<svg width="267" height="150" viewBox="0 0 267 150" fill="none" xmlns="http://www.w3.org/2000/svg">
<mask id="mask0_116_745" style="mask-type:alpha" maskUnits="userSpaceOnUse" x="0" y="0" width="267" height="150">
<rect width="266.75" height="150" fill="#C3A7D9"/>
</mask>
<g mask="url(#mask0_116_745)">
<rect width="266.75" height="150" fill="#C3A7D9"/>
<g opacity="0.4">
<path d="M164.386 57.9912C150.179 49.7705 127.216 49.7705 113.101 57.9912C113.034 58.0298 112.971 58.0672 112.906 58.1083C103.818 63.4791 100.723 70.9883 103.601 77.8295C105.13 81.4707 108.353 84.9249 113.264 87.7661C127.474 95.988 150.44 95.988 164.558 87.7661C178.673 79.5454 178.596 66.2144 164.386 57.9924V57.9912Z" fill="white"/>
<path d="M171.001 54.1383C153.142 43.8055 124.185 43.8055 106.442 54.1383C105.966 54.4162 105.501 54.6966 105.053 54.9819L105.959 55.3433C106.365 55.0866 106.783 54.8337 107.213 54.5832C124.53 44.4983 152.805 44.4983 170.235 54.5832C187.67 64.6706 187.762 81.0857 170.445 91.1706C153.124 101.259 124.849 101.259 107.414 91.1706C101.019 87.4709 96.9549 82.9176 95.234 78.1374L94.1373 78.1761C95.8843 83.107 100.058 87.8036 106.647 91.6155C124.507 101.95 153.471 101.95 171.215 91.6155C188.957 81.2826 188.86 64.4699 171 54.1358L171.001 54.1383Z" fill="white"/>
<path d="M177.449 50.3826C156.016 37.9812 121.247 37.9812 99.9527 50.3826C99.0786 50.8923 98.2393 51.4156 97.4373 51.9502L99.852 52.9098C100.545 52.4562 101.264 52.01 102.012 51.5739C122.178 39.8292 155.107 39.8279 175.405 51.5739C195.709 63.3211 195.816 82.4367 175.649 94.1826C155.478 105.931 122.55 105.931 102.247 94.1826C94.534 89.7203 89.7395 84.1949 87.8607 78.4129L84.9437 78.5201C86.8822 84.6971 91.9677 90.61 100.201 95.3739C121.639 107.778 156.409 107.778 177.707 95.3739C199.001 82.9725 198.887 62.7878 177.449 50.3839V50.3826Z" fill="white"/>
<path d="M190.642 42.6991C161.885 26.0596 115.244 26.0596 86.6745 42.6991C58.1001 59.3411 58.2518 86.4169 87.009 103.056C99.1109 110.06 114.38 114.116 130.135 115.222L129.983 111.606C115.862 110.504 102.218 106.811 91.3546 100.525C65.0109 85.2829 64.8716 60.4763 91.0487 45.23C117.221 29.9861 159.952 29.9861 186.297 45.23C203.367 55.1068 209.437 68.9923 204.482 81.6928L210.323 82.9177C216.033 68.9412 209.459 53.5877 190.643 42.6991H190.642Z" fill="white"/>
<path d="M82.2815 105.812C50.8971 87.6527 50.7293 58.1059 81.9098 39.9461C113.09 21.7863 163.991 21.7863 195.375 39.9461C226.76 58.1059 226.924 87.6527 195.743 105.814C164.563 123.973 113.666 123.973 82.2815 105.814V105.812ZM196.397 39.3505C180.92 30.3946 160.38 25.4624 138.561 25.4624C116.742 25.4624 96.2585 30.3958 80.8815 39.3517C65.5045 48.3076 57.073 60.2156 57.1464 72.8799C57.2173 85.5455 65.7793 97.4547 81.257 106.411C96.7347 115.366 117.277 120.297 139.095 120.297C160.909 120.297 181.395 115.365 196.772 106.409C212.149 97.4535 220.578 85.5443 220.508 72.8799C220.437 60.2143 211.873 48.3063 196.395 39.3505H196.397Z" fill="white"/>
<path d="M242.846 51.5776L240.346 52.0088C251.471 70.1835 247.743 90.7433 229.131 107.256L231.22 108.119C242.977 97.7503 249.254 85.5968 249.179 72.8764C249.138 65.5081 246.967 58.3279 242.844 51.5764L242.846 51.5776ZM212.69 25.4202C192.293 14.6886 166.137 8.81689 138.467 8.81689C108.991 8.81689 81.3144 15.4799 60.5398 27.5785C39.7615 39.6809 28.3745 55.7684 28.4728 72.8789C28.566 89.9907 40.1358 106.078 61.0459 118.177C81.9609 130.278 109.71 136.942 139.185 136.94C156.835 136.942 173.835 134.552 189.099 130.036L187.827 128.726C147.447 140.591 96.6926 136.727 62.8351 117.136C20.6605 92.7334 20.438 53.0269 62.3402 28.6228C102.968 4.96014 168.508 4.24112 210.897 26.4657L212.688 25.4215L212.69 25.4202Z" fill="white"/>
<path d="M228.087 20.8893C215.962 13.8736 201.831 8.43929 186.101 4.7408C170.909 1.16941 154.864 -0.642456 138.414 -0.642456C121.964 -0.642456 105.942 1.16816 90.7886 4.7408C75.0995 8.43929 61.0293 13.8736 48.9834 20.8893C36.9324 27.9087 27.6219 36.0908 21.2993 45.2124C15.1942 54.0212 12.1255 63.3298 12.1815 72.8776C12.235 82.4266 15.4056 91.7364 21.6101 100.543C22.013 101.115 22.427 101.683 22.8523 102.247L25.3005 101.779C5.31922 75.3997 13.783 43.484 50.785 21.9336C99.0149 -6.15655 177.754 -6.15655 226.299 21.9336C274.848 50.0249 275.104 95.7327 226.874 123.823C196.862 141.302 155.037 147.908 116.026 143.633L115.406 145.1C123.219 145.964 131.183 146.401 139.242 146.399C155.69 146.399 171.715 144.588 186.87 141.017C202.561 137.317 216.625 131.884 228.676 124.865C240.723 117.849 250.04 109.664 256.36 100.544C262.464 91.7339 265.528 82.4266 265.475 72.8776C265.424 63.3298 262.251 54.0212 256.046 45.2124C249.625 36.0945 240.219 27.9087 228.089 20.8906L228.087 20.8893Z" fill="white"/>
<path d="M236.227 16.1502C222.995 8.49397 207.579 2.56242 190.413 -1.47128C180.839 -3.72302 170.95 -5.33177 160.844 -6.29004L161.027 -5.80779C188.364 -3.18096 214.618 4.23846 235.717 16.4467C289.494 47.5624 289.777 98.1937 236.356 129.307C182.929 160.424 95.7127 160.424 41.9361 129.307C-11.8368 98.1949 -12.1216 47.5649 41.3057 16.448C47.7141 12.7158 54.6149 9.43106 61.8825 6.59613L61.7109 6.13631C54.2382 9.04476 47.2478 12.3906 40.7909 16.1502C27.6396 23.8088 17.4736 32.7386 10.5802 42.6913C3.91816 52.3027 0.573439 62.4599 0.630635 72.8787C0.689074 83.2963 4.15191 93.4534 10.9197 103.066C17.9262 113.018 28.1916 121.947 41.4238 129.605C54.6609 137.263 70.0752 143.192 87.2427 147.229C103.823 151.125 121.33 153.102 139.277 153.103C157.226 153.102 174.71 151.125 191.246 147.227C208.366 143.192 223.716 137.262 236.867 129.603C250.014 121.947 260.178 113.016 267.073 103.065C273.733 93.4522 277.082 83.295 277.024 72.8774C276.963 62.4586 273.504 52.3014 266.735 42.6901C259.728 32.7361 249.463 23.8088 236.227 16.1489V16.1502Z" fill="white"/>
</g>
<path d="M254.152 70.7042H14.7805V71.7042H254.152V70.7042Z" fill="white"/>
<path d="M203.424 8.72061L15.7661 69.0674L16.071 70.0198L203.729 9.67299L203.424 8.72061Z" fill="white"/>
<path d="M71.456 6.96918L71.1354 7.91638L254.22 70.166L254.54 69.2188L71.456 6.96918Z" fill="white"/>
<path d="M13.016 67.9702L12.5405 68.8499L141.659 138.963L142.134 138.084L13.016 67.9702Z" fill="white"/>
<path d="M266.479 68.172L137.348 138.263L137.824 139.143L266.954 69.0518L266.479 68.172Z" fill="white"/>
<path d="M220.942 3.51437C211.506 -1.9449 196.258 -1.9449 186.885 3.51437C177.511 8.97364 177.56 17.8261 186.995 23.2854C196.431 28.7446 211.679 28.7446 221.054 23.2854C230.428 17.8261 230.378 8.97364 220.942 3.51437Z" fill="#8252A8"/>
<path d="M228.052 9.02002H179.885V13.4001H228.052V9.02002Z" fill="#E5E5E4"/>
<path d="M220.942 -0.86673C211.506 -6.326 196.258 -6.326 186.885 -0.86673C177.511 4.59254 177.56 13.445 186.995 18.9043C196.431 24.3635 211.679 24.3635 221.054 18.9043C230.428 13.445 230.378 4.59254 220.942 -0.86673Z" fill="#FAF6F3"/>
<path opacity="0.5" d="M205.739 8.34324C209.522 8.34324 212.589 7.24639 212.589 5.89336C212.589 4.54033 209.522 3.44348 205.739 3.44348C201.956 3.44348 198.889 4.54033 198.889 5.89336C198.889 7.24639 201.956 8.34324 205.739 8.34324Z" fill="#B79FD1"/>
<path d="M157.544 130.905C148.108 125.445 132.86 125.445 123.486 130.905C114.112 136.364 114.162 145.216 123.597 150.676C133.033 156.135 148.281 156.135 157.656 150.676C167.03 145.216 166.98 136.364 157.544 130.905Z" fill="#8252A8"/>
<path d="M164.654 136.41H116.488V140.79H164.654V136.41Z" fill="#E5E5E4"/>
<path d="M157.544 126.523C148.108 121.064 132.86 121.064 123.486 126.523C114.112 131.982 114.162 140.835 123.597 146.294C133.033 151.753 148.281 151.753 157.656 146.294C167.03 140.835 166.98 131.982 157.544 126.523Z" fill="#FAF6F3"/>
<path opacity="0.5" d="M139.829 138.156C143.713 138.156 146.862 137.03 146.862 135.641C146.862 134.252 143.713 133.126 139.829 133.126C135.945 133.126 132.797 134.252 132.797 135.641C132.797 137.03 135.945 138.156 139.829 138.156Z" fill="#B79FD1"/>
<path d="M155.619 63.3236C146.183 57.8643 130.935 57.8643 121.562 63.3236C112.188 68.7828 112.237 77.6353 121.672 83.0946C131.108 88.5538 146.356 88.5538 155.731 83.0946C165.105 77.6353 165.055 68.7828 155.619 63.3236Z" fill="#8252A8"/>
<path d="M162.729 68.8286H114.562V73.2087H162.729V68.8286Z" fill="#E5E5E4"/>
<path d="M155.619 58.9435C146.183 53.4842 130.935 53.4842 121.562 58.9435C112.188 64.4027 112.237 73.2552 121.672 78.7145C131.108 84.1737 146.356 84.1737 155.731 78.7145C165.105 73.2552 165.055 64.4027 155.619 58.9435Z" fill="white"/>
<path opacity="0.5" d="M138.861 72.2272C142.745 72.2272 145.893 71.1014 145.893 69.7126C145.893 68.3237 142.745 67.1979 138.861 67.1979C134.977 67.1979 131.828 68.3237 131.828 69.7126C131.828 71.1014 134.977 72.2272 138.861 72.2272Z" fill="#B79FD1"/>
<path d="M267.681 63.0057C258.245 57.5464 242.997 57.5464 233.623 63.0057C224.249 68.465 224.299 77.3174 233.734 82.7767C243.17 88.236 258.418 88.236 267.793 82.7767C277.167 77.3174 277.117 68.465 267.681 63.0057Z" fill="#8252A8"/>
<path d="M274.791 68.5114H226.624V72.8915H274.791V68.5114Z" fill="#E5E5E4"/>
<path d="M267.681 58.6256C258.245 53.1663 242.997 53.1663 233.623 58.6256C224.249 64.0848 224.299 72.9373 233.734 78.3966C243.17 83.8558 258.418 83.8558 267.793 78.3966C277.167 72.9373 277.117 64.0848 267.681 58.6256Z" fill="#FAF6F3"/>
<path opacity="0.5" d="M255.583 72.409C259.467 72.409 262.615 71.2831 262.615 69.8943C262.615 68.5055 259.467 67.3796 255.583 67.3796C251.699 67.3796 248.55 68.5055 248.55 69.8943C248.55 71.2831 251.699 72.409 255.583 72.409Z" fill="#B79FD1"/>
<path d="M91.5775 3.08347C82.1414 -2.3758 66.8937 -2.3758 57.5197 3.08347C48.1458 8.54274 48.1956 17.3952 57.6304 22.8545C67.0665 28.3137 82.3142 28.3137 91.6894 22.8545C101.063 17.3952 101.014 8.54274 91.5775 3.08347Z" fill="#8252A8"/>
<path d="M98.687 8.58752H50.5206V12.9676H98.687V8.58752Z" fill="#E5E5E4"/>
<path d="M91.5775 -1.29813C82.1414 -6.7574 66.8937 -6.7574 57.5197 -1.29813C48.1458 4.16114 48.1956 13.0136 57.6304 18.4729C67.0665 23.9321 82.3142 23.9321 91.6894 18.4729C101.063 13.0136 101.014 4.16114 91.5775 -1.29813Z" fill="#FAF6F3"/>
<path opacity="0.5" d="M74.4618 10.8751C78.3458 10.8751 81.4944 9.7492 81.4944 8.36038C81.4944 6.97156 78.3458 5.8457 74.4618 5.8457C70.5778 5.8457 67.4292 6.97156 67.4292 8.36038C67.4292 9.7492 70.5778 10.8751 74.4618 10.8751Z" fill="#B79FD1"/>
<path d="M30.9147 63.7409C21.4787 58.2817 6.23096 58.2817 -3.14295 63.7409C-12.5169 69.2002 -12.4671 78.0527 -3.03229 83.5119C6.4038 88.9712 21.6515 88.9712 31.0266 83.5119C40.4006 78.0527 40.3508 69.2002 30.9147 63.7409Z" fill="#8252A8"/>
<path d="M38.0244 69.2452H-10.1421V73.6254H38.0244V69.2452Z" fill="#E5E5E4"/>
<path d="M30.9147 59.3595C21.4787 53.9002 6.23096 53.9002 -3.14295 59.3595C-12.5169 64.8187 -12.4671 73.6712 -3.03229 79.1305C6.4038 84.5897 21.6515 84.5897 31.0266 79.1305C40.4006 73.6712 40.3508 64.8187 30.9147 59.3595Z" fill="#FAF6F3"/>
<path opacity="0.5" d="M14.7802 71.0969C18.8256 71.0969 22.105 69.9241 22.105 68.4775C22.105 67.0309 18.8256 65.8582 14.7802 65.8582C10.7348 65.8582 7.45537 67.0309 7.45537 68.4775C7.45537 69.9241 10.7348 71.0969 14.7802 71.0969Z" fill="#B79FD1"/>
</g>
</svg>
