<svg width="268" height="150" viewBox="0 0 268 150" fill="none" xmlns="http://www.w3.org/2000/svg">
<mask id="mask0_114_127" style="mask-type:alpha" maskUnits="userSpaceOnUse" x="0" y="0" width="268" height="150">
<rect x="0.5" width="266.75" height="150" fill="#ECE6E4"/>
</mask>
<g mask="url(#mask0_114_127)">
<rect x="0.5" width="266.75" height="150" fill="#ECE6E4"/>
<path d="M-14.5 48.7258C-14.5 49.1367 -14.3849 49.5311 -14.1713 49.8927L9.678 49.8927C9.82593 49.5804 9.92455 49.2353 9.92455 48.8901C9.92455 46.9342 7.27828 45.3398 4.00743 45.3398C3.90881 45.3398 3.81019 45.3398 3.71157 45.3398C2.9555 43.3675 0.720143 41.9375 -1.94256 41.9375C-4.32584 41.9375 -6.39684 43.1045 -7.33371 44.781C-8.18841 44.9947 -8.92805 45.3892 -9.48689 45.8987C-9.81561 45.8329 -10.1772 45.8001 -10.5388 45.8001C-12.7249 45.8001 -14.5 47.115 -14.5 48.7258Z" fill="#D7E2F5"/>
<path d="M246.5 14.7883C246.5 15.1992 246.615 15.5936 246.829 15.9552L270.678 15.9552C270.826 15.6429 270.925 15.2978 270.925 14.9526C270.925 12.9967 268.278 11.4023 265.007 11.4023C264.909 11.4023 264.81 11.4023 264.712 11.4023C263.956 9.42997 261.72 8 259.057 8C256.674 8 254.603 9.16699 253.666 10.8435C252.812 11.0572 252.072 11.4517 251.513 11.9612C251.184 11.8954 250.823 11.8626 250.461 11.8626C248.275 11.8626 246.5 13.1775 246.5 14.7883Z" fill="#D7E2F5"/>
<path d="M74.5 13.2018C74.5 13.6949 74.6315 14.1715 74.8945 14.5989L103.658 14.5989C103.839 14.2208 103.954 13.8099 103.954 13.3826C103.954 11.0157 100.749 9.09267 96.8043 9.09267C96.6892 9.09267 96.5741 9.09267 96.4591 9.09267C95.5386 6.70939 92.8431 5 89.6544 5C86.778 5 84.2797 6.3971 83.162 8.41878C82.1429 8.68176 81.2389 9.15842 80.565 9.76657C80.1541 9.68438 79.7432 9.63508 79.2994 9.63508C76.6532 9.63508 74.5164 11.213 74.5164 13.1689L74.5 13.2018Z" fill="#D7E2F5"/>
<path d="M143.5 3.1196C143.5 3.61269 143.648 4.08935 143.911 4.5167L173.875 4.5167C174.072 4.13866 174.17 3.72775 174.17 3.31684C174.17 0.966427 170.834 -0.9402 166.725 -0.9402C166.61 -0.9402 166.478 -0.9402 166.363 -0.9402C165.41 -3.29061 162.599 -5 159.263 -5C156.255 -5 153.674 -3.6029 152.491 -1.59766C151.422 -1.33467 150.485 -0.858018 149.795 -0.24987C149.368 -0.332052 148.924 -0.381361 148.48 -0.381361C145.735 -0.381361 143.5 1.1801 143.5 3.1196Z" fill="#D7E2F5"/>
<path d="M23.5 29.3445C23.5 29.7225 23.5986 30.1005 23.7794 30.4293L44.3907 30.4293C44.5222 30.1334 44.6044 29.8211 44.6044 29.4924C44.6044 27.6515 42.3197 26.1722 39.4927 26.1722C39.4105 26.1722 39.3283 26.1722 39.2461 26.1722C38.5887 24.3314 36.6492 23 34.3645 23C32.2935 23 30.5184 24.0848 29.713 25.6463C28.9733 25.8599 28.3323 26.2215 27.8557 26.6982C27.5598 26.6325 27.2639 26.5996 26.9517 26.5996C25.0615 26.5996 23.5329 27.8323 23.5329 29.3445L23.5 29.3445Z" fill="#DEDCCB"/>
<path d="M126.5 35.7528C126.5 36.0979 126.615 36.4431 126.812 36.7389L149.708 36.7389C149.856 36.476 149.938 36.1801 149.938 35.8842C149.938 34.2242 147.391 32.8764 144.251 32.8764C144.153 32.8764 144.071 32.8764 143.972 32.8764C143.249 31.1999 141.096 30 138.548 30C136.247 30 134.274 30.9862 133.37 32.4162C132.549 32.597 131.842 32.9421 131.316 33.3695C130.987 33.3037 130.658 33.2873 130.313 33.2873C128.209 33.2873 126.5 34.405 126.5 35.7692L126.5 35.7528Z" fill="#DEDCCB"/>
<path d="M188.5 20.3254C188.5 20.6541 188.599 20.95 188.763 21.2294L208.437 21.2294C208.569 20.9829 208.635 20.7199 208.635 20.4405C208.635 18.8954 206.449 17.6627 203.753 17.6627C203.671 17.6627 203.589 17.6627 203.506 17.6627C202.882 16.1177 201.025 15 198.855 15C196.883 15 195.19 15.904 194.417 17.2189C193.71 17.3997 193.102 17.6956 192.642 18.0901C192.363 18.0407 192.067 18.0079 191.771 18.0079C189.963 18.0079 188.5 19.0434 188.5 20.309L188.5 20.3254Z" fill="#DEDCCB"/>
<path d="M8.49982 150.369L111.425 150.369L111.425 122L8.49982 122L8.49982 150.369Z" fill="#99C6B0"/>
<path d="M100.325 150.221L157.771 150.221L129.056 119.929L100.325 150.221Z" fill="#4C8BE9" fill-opacity="0.5"/>
<path d="M23.5 99L23.5 125.2L49.371 125.2L49.371 99L23.5 99Z" fill="#FDD247" fill-opacity="0.5"/>
<path d="M243.5 124L243.5 140L269.5 140L269.5 124L243.5 124Z" fill="#FDD247" fill-opacity="0.4"/>
<path d="M235.5 117L235.5 133L251.5 133L251.5 117L235.5 117Z" fill="#FDD247" fill-opacity="0.4"/>
<path d="M74.5 94C107.085 94 133.5 67.8087 133.5 35.5C133.5 3.19134 107.085 -23 74.5 -23C41.9152 -23 15.5 3.19134 15.5 35.5C15.5 67.8087 41.9152 94 74.5 94Z" stroke="white" stroke-width="2" stroke-miterlimit="10" stroke-dasharray="4 4"/>
<path d="M149.994 80.4141C148.939 80.9609 147.628 81.2344 146.059 81.2344C144.027 81.2344 142.4 80.5931 141.176 79.3105C139.952 78.028 139.34 76.3451 139.34 74.2617C139.34 72.0221 140.027 70.2122 141.4 68.832C142.781 67.4518 144.522 66.7617 146.625 66.7617C147.979 66.7617 149.102 66.9538 149.994 67.3379L149.994 69.6426C149.05 69.0827 148.008 68.8027 146.869 68.8027C145.352 68.8027 144.122 69.2878 143.178 70.2578C142.24 71.2279 141.771 72.5234 141.771 74.1445C141.771 75.6875 142.211 76.918 143.09 77.8359C143.969 78.7474 145.124 79.2031 146.557 79.2031C147.878 79.2031 149.024 78.8906 149.994 78.2656L149.994 80.4141ZM167.354 81L164.805 81L163.546 77.4355L158.038 77.4355L156.827 81L154.288 81L159.532 66.9961L162.149 66.9961L167.354 81ZM162.93 75.541L160.987 69.9551C160.929 69.7728 160.867 69.4798 160.802 69.0762L160.762 69.0762C160.704 69.4473 160.639 69.7402 160.567 69.9551L158.643 75.541L162.93 75.541ZM183.308 81L180.593 81L178.357 77.25C178.155 76.9049 177.957 76.612 177.761 76.3711C177.573 76.1237 177.377 75.9219 177.175 75.7656C176.98 75.6094 176.765 75.4954 176.531 75.4238C176.296 75.3522 176.033 75.3164 175.74 75.3164L174.802 75.3164L174.802 81L172.488 81L172.488 66.9961L177.097 66.9961C177.755 66.9961 178.36 67.0742 178.914 67.2305C179.467 67.3867 179.949 67.6243 180.359 67.9434C180.769 68.2559 181.088 68.6497 181.316 69.125C181.55 69.5937 181.668 70.1439 181.668 70.7754C181.668 71.2702 181.593 71.7259 181.443 72.1426C181.3 72.5527 181.091 72.9206 180.818 73.2461C180.551 73.5651 180.226 73.8385 179.841 74.0664C179.464 74.2943 179.037 74.4701 178.562 74.5937L178.562 74.6328C178.816 74.776 179.037 74.9355 179.226 75.1113C179.415 75.2806 179.594 75.4564 179.763 75.6387C179.933 75.821 180.099 76.0293 180.261 76.2637C180.431 76.4915 180.616 76.7585 180.818 77.0645L183.308 81ZM174.802 68.8809L174.802 73.4316L176.736 73.4316C177.094 73.4316 177.423 73.3763 177.722 73.2656C178.028 73.1549 178.292 72.9954 178.513 72.7871C178.735 72.5788 178.907 72.3249 179.031 72.0254C179.155 71.7259 179.216 71.3906 179.216 71.0195C179.216 70.349 179.005 69.8249 178.582 69.4473C178.158 69.0697 177.55 68.8809 176.755 68.8809L174.802 68.8809ZM196.01 81L188.149 81L188.149 66.9961L195.698 66.9961L195.698 68.9687L190.473 68.9687L190.473 72.9336L195.287 72.9336L195.287 74.8965L190.473 74.8965L190.473 79.0371L196.01 79.0371L196.01 81ZM209.562 81L201.7 81L201.7 66.9961L209.249 66.9961L209.249 68.9687L204.025 68.9687L204.025 72.9336L208.839 72.9336L208.839 74.8965L204.025 74.8965L204.025 79.0371L209.562 79.0371L209.562 81ZM226.072 81L223.357 81L221.121 77.25C220.919 76.9049 220.721 76.612 220.525 76.3711C220.337 76.1237 220.141 75.9219 219.939 75.7656C219.744 75.6094 219.529 75.4954 219.295 75.4238C219.061 75.3522 218.797 75.3164 218.504 75.3164L217.566 75.3164L217.566 81L215.252 81L215.252 66.9961L219.861 66.9961C220.519 66.9961 221.124 67.0742 221.678 67.2305C222.231 67.3867 222.713 67.6243 223.123 67.9434C223.533 68.2559 223.852 68.6497 224.08 69.125C224.314 69.5937 224.432 70.1439 224.432 70.7754C224.432 71.2702 224.357 71.7259 224.207 72.1426C224.064 72.5527 223.855 72.9206 223.582 73.2461C223.315 73.5651 222.99 73.8385 222.605 74.0664C222.228 74.2943 221.801 74.4701 221.326 74.5937L221.326 74.6328C221.58 74.776 221.801 74.9355 221.99 75.1113C222.179 75.2806 222.358 75.4564 222.527 75.6387C222.697 75.821 222.863 76.0293 223.025 76.2637C223.195 76.4915 223.38 76.7585 223.582 77.0645L226.072 81ZM217.566 68.8809L217.566 73.4316L219.5 73.4316C219.858 73.4316 220.187 73.3763 220.486 73.2656C220.792 73.1549 221.056 72.9954 221.277 72.7871C221.499 72.5788 221.671 72.3249 221.795 72.0254C221.919 71.7259 221.98 71.3906 221.98 71.0195C221.98 70.349 221.769 69.8249 221.346 69.4473C220.923 69.0697 220.314 68.8809 219.52 68.8809L217.566 68.8809Z" fill="#252423"/>
<path d="M143.559 89.7402L141.537 89.7402L141.537 96L140.717 96L140.717 89.7402L138.7 89.7402L138.7 88.998L143.559 88.998L143.559 89.7402ZM145.682 96L144.862 96L144.862 88.998L145.682 88.998L145.682 96ZM148.548 93.3535L148.548 96L147.728 96L147.728 88.998L149.652 88.998C150.401 88.998 150.98 89.1803 151.39 89.5449C151.804 89.9095 152.01 90.4238 152.01 91.0879C152.01 91.752 151.781 92.2956 151.322 92.7187C150.866 93.1419 150.249 93.3535 149.471 93.3535L148.548 93.3535ZM148.548 89.7402L148.548 92.6113L149.408 92.6113C149.974 92.6113 150.406 92.4827 150.702 92.2256C151.001 91.9652 151.151 91.599 151.151 91.127C151.151 90.2025 150.604 89.7402 149.51 89.7402L148.548 89.7402ZM154.159 94.8867L153.377 97.2891L152.806 97.2891L153.377 94.8867L154.159 94.8867ZM162.986 89.7402L160.965 89.7402L160.965 96L160.145 96L160.145 89.7402L158.128 89.7402L158.128 88.998L162.986 88.998L162.986 89.7402ZM169.026 96L168.118 96L167.376 94.0371L164.407 94.0371L163.709 96L162.796 96L165.481 88.998L166.331 88.998L169.026 96ZM167.107 93.2998L166.009 90.3164C165.973 90.2187 165.937 90.0625 165.901 89.8477L165.882 89.8477C165.849 90.0462 165.812 90.2025 165.769 90.3164L164.68 93.2998L167.107 93.2998ZM174.832 95.707C174.314 95.9805 173.67 96.1172 172.898 96.1172C171.902 96.1172 171.104 95.7965 170.505 95.1553C169.907 94.514 169.607 93.6725 169.607 92.6309C169.607 91.5111 169.944 90.6061 170.618 89.916C171.292 89.2259 172.146 88.8809 173.181 88.8809C173.845 88.8809 174.395 88.9769 174.832 89.1689L174.832 90.043C174.33 89.763 173.777 89.623 173.171 89.623C172.367 89.623 171.715 89.8916 171.213 90.4287C170.715 90.9658 170.466 91.6836 170.466 92.582C170.466 93.4349 170.699 94.1152 171.165 94.623C171.633 95.1276 172.247 95.3799 173.005 95.3799C173.709 95.3799 174.317 95.2236 174.832 94.9111L174.832 95.707ZM180.598 89.7402L178.577 89.7402L178.577 96L177.756 96L177.756 89.7402L175.74 89.7402L175.74 88.998L180.598 88.998L180.598 89.7402ZM182.722 96L181.902 96L181.902 88.998L182.722 88.998L182.722 96ZM189.533 95.707C189.016 95.9805 188.371 96.1172 187.6 96.1172C186.604 96.1172 185.806 95.7965 185.207 95.1553C184.608 94.514 184.309 93.6725 184.309 92.6309C184.309 91.5111 184.646 90.6061 185.319 89.916C185.993 89.2259 186.848 88.8809 187.883 88.8809C188.547 88.8809 189.097 88.9769 189.533 89.1689L189.533 90.043C189.032 89.763 188.479 89.623 187.873 89.623C187.069 89.623 186.416 89.8916 185.915 90.4287C185.417 90.9658 185.168 91.6836 185.168 92.582C185.168 93.4349 185.401 94.1152 185.866 94.623C186.335 95.1276 186.949 95.3799 187.707 95.3799C188.41 95.3799 189.019 95.2236 189.533 94.9111L189.533 95.707ZM191.784 94.8867L191.003 97.2891L190.431 97.2891L191.003 94.8867L191.784 94.8867ZM201.891 96L200.983 96L200.241 94.0371L197.272 94.0371L196.574 96L195.661 96L198.346 88.998L199.196 88.998L201.891 96ZM199.972 93.2998L198.873 90.3164C198.838 90.2187 198.802 90.0625 198.766 89.8477L198.746 89.8477C198.714 90.0462 198.676 90.2025 198.634 90.3164L197.545 93.2998L199.972 93.2998ZM208.771 96L207.765 96L204.161 90.4189C204.07 90.279 203.995 90.1325 203.937 89.9795L203.907 89.9795C203.933 90.1292 203.946 90.4499 203.946 90.9414L203.946 96L203.126 96L203.126 88.998L204.191 88.998L207.696 94.4912C207.843 94.7191 207.937 94.8753 207.98 94.96L207.999 94.96C207.967 94.7581 207.95 94.4147 207.95 93.9297L207.95 88.998L208.771 88.998L208.771 96ZM210.807 96L210.807 88.998L212.74 88.998C215.208 88.998 216.441 90.1357 216.441 92.4111C216.441 93.4919 216.098 94.361 215.411 95.0186C214.728 95.6729 213.811 96 212.662 96L210.807 96ZM211.627 89.7402L211.627 95.2578L212.672 95.2578C213.59 95.2578 214.304 95.012 214.815 94.5205C215.326 94.029 215.582 93.3324 215.582 92.4307C215.582 90.637 214.628 89.7402 212.721 89.7402L211.627 89.7402ZM226.382 96L225.474 96L224.732 94.0371L221.763 94.0371L221.065 96L220.152 96L222.838 88.998L223.687 88.998L226.382 96ZM224.463 93.2998L223.365 90.3164C223.329 90.2187 223.293 90.0625 223.257 89.8477L223.238 89.8477C223.205 90.0462 223.168 90.2025 223.126 90.3164L222.037 93.2998L224.463 93.2998ZM227.618 96L227.618 88.998L229.551 88.998C232.019 88.998 233.252 90.1357 233.252 92.4111C233.252 93.4919 232.909 94.361 232.222 95.0186C231.538 95.6729 230.622 96 229.473 96L227.618 96ZM228.438 89.7402L228.438 95.2578L229.483 95.2578C230.401 95.2578 231.115 95.012 231.626 94.5205C232.137 94.029 232.393 93.3324 232.393 92.4307C232.393 90.637 231.439 89.7402 229.532 89.7402L228.438 89.7402ZM239.79 88.998L237.197 96L236.294 96L233.755 88.998L234.668 88.998L236.607 94.5498C236.668 94.7288 236.716 94.9355 236.748 95.1699L236.768 95.1699C236.794 94.9746 236.848 94.7646 236.929 94.54L238.906 88.998L239.79 88.998ZM241.816 96L240.996 96L240.996 88.998L241.816 88.998L241.816 96ZM243.535 95.7168L243.535 94.75C243.646 94.8477 243.777 94.9355 243.93 95.0137C244.087 95.0918 244.249 95.1585 244.419 95.2139C244.591 95.266 244.764 95.3066 244.936 95.3359C245.109 95.3652 245.268 95.3799 245.415 95.3799C245.919 95.3799 246.295 95.2871 246.543 95.1016C246.793 94.9128 246.919 94.6426 246.919 94.291C246.919 94.1022 246.876 93.9378 246.792 93.7979C246.71 93.6579 246.596 93.5309 246.45 93.417C246.304 93.2998 246.129 93.1891 245.928 93.085C245.729 92.9775 245.514 92.8652 245.283 92.748C245.039 92.6243 244.811 92.499 244.599 92.3721C244.388 92.2451 244.204 92.1051 244.048 91.9521C243.891 91.7992 243.768 91.6266 243.677 91.4346C243.589 91.2393 243.545 91.0114 243.545 90.751C243.545 90.432 243.615 90.1553 243.755 89.9209C243.895 89.6833 244.079 89.488 244.306 89.335C244.534 89.182 244.793 89.068 245.083 88.9932C245.376 88.9183 245.674 88.8809 245.976 88.8809C246.666 88.8809 247.169 88.9639 247.485 89.1299L247.485 90.0527C247.072 89.7663 246.541 89.623 245.893 89.623C245.714 89.623 245.535 89.6426 245.356 89.6816C245.177 89.7174 245.018 89.7777 244.878 89.8623C244.738 89.9469 244.624 90.056 244.536 90.1895C244.448 90.3229 244.404 90.4857 244.404 90.6777C244.404 90.8568 244.437 91.0114 244.502 91.1416C244.57 91.2718 244.669 91.3906 244.8 91.498C244.93 91.6055 245.088 91.7096 245.273 91.8105C245.462 91.9115 245.679 92.0221 245.923 92.1426C246.173 92.2663 246.411 92.3965 246.636 92.5332C246.86 92.6699 247.057 92.8213 247.226 92.9873C247.396 93.1533 247.529 93.3372 247.627 93.5391C247.728 93.7409 247.778 93.972 247.778 94.2324C247.778 94.5775 247.71 94.8704 247.573 95.1113C247.44 95.349 247.257 95.5426 247.026 95.6924C246.798 95.8421 246.535 95.9495 246.235 96.0146C245.936 96.083 245.62 96.1172 245.288 96.1172C245.177 96.1172 245.04 96.1074 244.878 96.0879C244.715 96.0716 244.549 96.0456 244.38 96.0098C244.21 95.9772 244.049 95.9365 243.896 95.8877C243.747 95.8356 243.626 95.7786 243.535 95.7168ZM253.086 96L249.375 96L249.375 88.998L252.929 88.998L252.929 89.7402L250.195 89.7402L250.195 92.0693L252.724 92.0693L252.724 92.8066L250.195 92.8066L250.195 95.2578L253.086 95.2578L253.086 96Z" fill="#252423"/>
<circle opacity="0.5" cx="-6.5" cy="124" r="26" fill="#4C8BE9"/>
<path d="M30.3093 69.7923C29.6974 58.3234 30.4113 46.5947 38.3456 37.4436C46.647 27.8728 58.4974 25.7549 70.6538 24.7358L70.6538 39.8412L70.6538 39.9212L70.6538 43.4577C70.6538 43.5976 70.6742 43.7175 70.7354 43.8374C70.7965 43.9373 70.8577 44.0372 70.9597 44.1171C71.0413 44.1771 71.1229 44.237 71.2249 44.2969C71.4696 44.4168 71.7756 44.4768 72.0815 44.4967C72.4487 44.5367 72.8362 44.4967 73.1626 44.4568C73.3257 44.4368 73.4481 44.4168 73.5705 44.3769C73.6521 44.3569 73.7133 44.3369 73.7744 44.3169C73.9172 44.257 74.06 44.197 74.1824 44.1171C74.3456 44.0372 74.5087 43.9573 74.6515 43.8973C75.6713 43.3978 76.6504 42.8983 77.6906 42.8184C78.3433 42.7784 79.0164 42.8783 79.7303 43.2579C80.6685 43.7375 81.4436 44.5567 81.9127 45.5557C82.1575 46.0752 82.3206 46.6347 82.4022 47.2341C82.4226 47.4339 82.443 47.6337 82.443 47.8535C82.443 48.2731 82.4022 48.6727 82.3002 49.0723C82.2798 49.1722 82.239 49.2921 82.2186 49.392C82.1574 49.6118 82.0759 49.8116 81.9943 50.0314C81.5863 50.9905 80.8929 51.7697 80.0566 52.3092C79.3631 52.7488 78.5472 53.0085 77.6702 53.0085C76.6504 53.0085 75.7121 52.6688 74.9371 52.0894C74.4883 51.8896 73.9376 51.6698 73.2645 51.4101C72.5303 51.1303 71.9184 51.3301 71.49 51.6299C71.1841 51.8297 70.9597 52.0694 70.8373 52.2293C70.7761 52.3092 70.715 52.3691 70.6946 52.4091C70.6946 52.4291 70.6742 52.4491 70.6742 52.4491L70.6742 54.3672L70.6742 70.4517L70.6742 70.5316L70.6742 70.5715L70.6742 70.6714L47.1365 70.6714C47.1365 70.6714 47.0345 70.7114 46.9733 70.7114L30.3093 70.8113L30.3093 70.6914C30.3093 70.4117 30.3297 70.132 30.3093 69.8522L30.3093 69.7923Z" fill="#F9991C"/>
<path d="M77.4619 68.1165L77.4619 68.2391C77.4619 68.2391 77.5434 68.2391 77.6861 68.2391L98.0887 68.2391C98.5575 68.2595 98.9243 67.5242 99.1078 66.8707C99.1282 66.7686 99.1689 66.6665 99.1893 66.5848C99.2097 66.4622 99.2505 66.3397 99.2505 66.2376C99.2505 66.1355 99.2708 66.0333 99.2708 65.9721C99.2708 65.7678 99.2505 65.584 99.2097 65.4207C99.2097 65.4207 99.2097 65.3798 99.2097 65.3594C99.1078 64.7875 98.8632 64.2565 98.6186 63.7255C98.5575 63.603 98.4963 63.4804 98.4352 63.3783C98.4352 63.3783 98.4352 63.3375 98.4148 63.317C98.0887 62.6839 97.7626 62.0712 97.5587 61.4177C97.5383 61.336 97.518 61.2747 97.4976 61.193C97.4568 61.0705 97.4364 60.948 97.4161 60.8254C97.3957 60.6824 97.3753 60.5599 97.3753 60.4169C97.3753 60.3761 97.3753 60.3352 97.3753 60.2944C97.3753 60.274 97.3753 60.2331 97.3753 60.2127C97.3753 60.1923 97.3753 60.1719 97.3753 60.1514C97.3753 59.3754 97.5587 58.6401 97.8441 57.9661C98.7001 56.0259 100.616 54.6984 102.817 54.6984C104.468 54.6984 105.977 55.4745 106.975 56.6795C107.261 57.0267 107.505 57.4147 107.709 57.8232C107.913 58.2317 108.035 58.6197 108.096 59.0077C108.096 59.0486 108.096 59.0894 108.117 59.1303C108.157 59.3754 108.178 59.6204 108.178 59.8655C108.178 61.0092 107.77 62.0712 107.322 63.1741C107.159 63.5621 106.996 63.9502 106.833 64.3382C106.792 64.4608 106.731 64.5629 106.69 64.6854C106.547 65.0326 106.323 65.4002 106.323 65.7883C106.323 66.5031 106.486 68.2391 107.505 68.3208C107.526 68.3208 107.546 68.3208 107.587 68.3208L117.717 68.3208C117.717 68.3208 117.717 68.3208 117.717 68.2799C122.282 46.7946 107.831 23.6959 83.923 21.3063C81.8033 21.1021 79.6835 21 77.5434 21L77.5026 36.2562L77.5026 36.6442L77.5026 40.6472C77.5026 40.6472 77.5026 40.9536 77.6657 41.1169C77.951 41.3824 78.5013 41.6479 79.2147 41.6479C79.602 41.7296 80.03 41.7501 80.4988 41.6275C80.4988 41.6275 80.7842 41.7296 80.8249 41.7092C81.5179 41.4846 82.0682 41.1578 82.5574 40.974C83.8007 40.5042 84.7995 40.0754 86.1447 40.0754C88.5702 40.0754 90.2211 41.1782 91.0772 43.098C91.281 43.5269 91.5052 44.0375 91.6275 44.5276C91.6683 44.7114 91.6886 44.9157 91.6886 45.0995C91.6886 45.6305 91.6071 46.1411 91.4441 46.6312C91.4441 46.6312 91.4441 46.6312 91.4441 46.6516C91.3625 46.8967 91.2606 47.1418 91.1383 47.3665C90.5269 48.5306 89.4466 49.4496 88.1421 49.9194C87.4695 50.1645 86.7358 50.3074 85.9612 50.3074C84.7383 50.3074 83.5969 49.9602 82.6593 49.3475C82.1294 49.1433 81.4568 48.8982 80.6619 48.6327C79.9281 48.3876 79.2963 48.4897 78.8071 48.694C78.2771 48.9186 77.8899 49.2658 77.6861 49.4701C77.5841 49.5926 77.523 49.6539 77.523 49.6539L77.5026 68.0961L77.4619 68.1165Z" fill="#193D78"/>
<path d="M30.2434 70.6593C30.2434 70.6593 30.2639 70.8034 30.2843 70.8858C30.3662 71.3181 30.4685 71.7298 30.5708 72.1415C32.5145 79.9851 37.4863 86.6963 43.0924 92.9135C45.9773 96.1044 50.2535 98.966 52.4837 102.527C53.4658 104.071 53.8136 105.862 54.0591 107.633C54.5092 110.721 54.7547 114.982 54.7138 118.091L70.6523 118.132L70.6523 100.242C70.6523 100.242 70.6933 100.242 70.7137 100.201C70.7956 100.098 71.082 99.7688 71.5117 99.5012C72.0641 99.1512 72.862 98.863 73.8441 99.1924C74.6625 99.46 75.3173 99.7071 75.8492 99.9129C76.7904 100.51 77.9362 100.881 79.1638 100.881C80.4119 100.881 81.5781 100.51 82.5193 99.8924C83.3172 99.3777 83.9515 98.6777 84.3811 97.8543C84.5653 97.5043 84.688 97.1543 84.7903 96.7838C84.8722 96.4132 84.9336 96.0221 84.9336 95.6309C84.9336 95.1163 84.8517 94.6222 84.7085 94.1487C84.5448 93.6134 84.2788 93.0988 83.931 92.6459C83.9106 92.6253 83.8901 92.5841 83.8696 92.5635C83.44 92.0283 82.908 91.5548 82.3147 91.2048C81.4144 90.6695 80.3505 90.3607 79.1842 90.3607C78.2022 90.3607 77.261 90.5872 76.4426 90.9783C76.2175 91.0813 76.0129 91.2048 75.7879 91.3489C75.7265 91.3901 75.6651 91.4312 75.6037 91.4724C75.1127 91.6577 74.5398 91.8636 73.8441 92.09C73.5372 92.193 73.2508 92.2341 72.9848 92.2341C72.5961 92.2341 72.2482 92.1518 71.9413 92.0077C71.4094 91.7812 71.0206 91.4107 70.8365 91.2048C70.7751 91.143 70.7342 91.1019 70.7137 91.0607C70.7137 91.0401 70.6933 91.0195 70.6933 91.0195L70.6933 70.9681L70.7137 70.8858C70.7137 70.8858 70.6319 70.8858 70.5296 70.8858L51.6243 70.8858L51.522 70.8652C51.4197 70.8652 51.3174 70.8652 51.2151 70.8034C51.1128 70.7622 51.031 70.7211 50.9492 70.6387C50.5604 70.2887 50.4377 69.5888 50.4377 68.8889C50.4377 68.8889 50.4377 68.8477 50.4377 68.8271C50.4377 68.6624 50.4377 68.4977 50.4377 68.3536C50.4786 67.8389 50.5604 67.4066 50.6423 67.2007C50.9287 66.4596 51.2561 65.7391 51.522 65.0391C51.522 65.0391 51.5016 65.0391 51.4811 65.0597C51.522 64.9568 51.563 64.8539 51.6243 64.7509C51.8699 64.0922 52.054 63.4334 52.0949 62.754C52.0949 62.6305 52.0949 62.5276 52.0949 62.4041C52.0949 62.0129 52.054 61.6218 51.9517 61.21C51.9108 61.0659 51.8699 60.9012 51.8085 60.7571C51.7471 60.5924 51.6857 60.4277 51.6039 60.263C51.4811 60.016 51.3379 59.769 51.1742 59.5219C50.1921 58.0603 48.5144 57.1133 46.673 57.1133C45.5272 57.1133 44.4633 57.4633 43.5835 58.0809C42.1513 59.069 41.2305 60.7365 41.2101 62.6305C41.2101 62.6305 41.2101 62.6511 41.2101 62.6717C41.2101 62.8775 41.2305 63.104 41.251 63.3099C41.251 63.3099 41.251 63.3305 41.251 63.351C41.3942 64.1745 41.8444 65.0803 42.274 65.9861C43.031 67.6537 43.6653 69.3418 42.008 70.6593C41.9467 70.7005 41.9057 70.7416 41.9057 70.7416L30.1411 70.7416L30.2434 70.6593Z" fill="#193D78"/>
<path d="M73.8089 118.091L90.8693 118.132C90.9316 115.024 91.1391 111.874 91.2014 108.765C91.2429 107.324 91.2637 105.863 91.7825 104.504C92.8203 101.766 95.6014 99.8718 97.9882 97.8955C101.413 95.0545 104.401 91.8018 106.892 88.3227C110.669 83.0731 113.45 77.1235 114.82 70.9887C114.82 70.9887 114.82 70.9681 114.82 70.9475L104.547 70.9475C104.401 70.824 104.132 70.577 103.883 70.227C103.571 69.8564 103.281 69.3006 103.281 68.6418C103.281 68.4154 103.322 68.1683 103.405 67.9007C103.405 67.8801 103.405 67.8389 103.426 67.8183C103.426 67.8183 103.426 67.7772 103.447 67.7566C103.55 67.4684 103.654 67.2213 103.737 66.9743C103.903 66.5626 104.049 66.2126 104.173 65.8832C104.194 65.842 104.215 65.8214 104.235 65.7803C104.733 65.0392 105.066 64.1745 105.149 63.2481C105.149 63.0628 105.169 62.8776 105.169 62.6923C105.169 62.4041 105.149 62.1158 105.107 61.8276C104.692 59.1719 102.43 57.1545 99.6901 57.1133C99.6901 57.1133 99.6486 57.1133 99.6278 57.1133C97.3863 57.1133 95.4354 58.4514 94.5637 60.3866C94.4391 60.6542 94.3561 60.9218 94.2731 61.21C94.1693 61.6012 94.1071 62.0129 94.0863 62.4246C94.0863 62.507 94.0863 62.6099 94.0863 62.6923C94.0863 62.7129 94.0863 62.754 94.0863 62.7746C94.0863 63.0217 94.1071 63.2481 94.1486 63.4746C94.2731 64.401 94.6467 65.2656 95.1656 66.0067C95.1863 66.0479 95.2278 66.0891 95.2693 66.1302C95.3108 66.2126 95.3523 66.3155 95.3939 66.4185C95.5599 66.8302 95.7259 67.3037 95.9335 67.8389C95.975 67.9419 95.9957 68.0242 96.0165 68.1272C96.0165 68.1683 96.0165 68.2095 96.0372 68.2507C96.0372 68.2507 96.0372 68.2918 96.0372 68.333C96.0372 68.333 96.058 68.5389 96.058 68.6212C96.058 68.8683 96.0373 69.0947 95.9542 69.3212C95.9542 69.3829 95.9127 69.4447 95.892 69.5065C95.5599 70.3711 94.792 70.8858 94.792 70.8858L74.0995 70.8858L73.8089 70.8652L73.8089 91.0813L73.7882 91.0813C73.7882 91.0813 73.8297 91.143 73.9127 91.2254C74.0788 91.4107 74.3901 91.7195 74.8467 91.9459C75.3863 92.2341 76.1127 92.3988 76.9844 92.1312C77.6901 91.9048 78.2712 91.6989 78.7693 91.5136C78.7693 91.5136 78.7901 91.493 78.8108 91.4724C79.2259 91.1842 79.7033 90.9372 80.2014 90.7519C80.8656 90.5049 81.6127 90.3813 82.3806 90.3813C83.0448 90.3813 83.6674 90.4843 84.2486 90.649C84.8297 90.8342 85.3901 91.0813 85.8674 91.4107C86.3448 91.7195 86.7599 92.1106 87.092 92.5223C87.1127 92.5429 87.1335 92.5841 87.1542 92.6047C87.6108 93.2017 87.9429 93.8811 88.0882 94.6222C88.1505 94.9516 88.192 95.281 88.192 95.6104C88.192 95.9397 88.1505 96.2691 88.0882 96.5779C87.9844 97.0308 87.8391 97.4837 87.6108 97.8955C87.1127 98.8219 86.3033 99.6042 85.3278 100.119C84.4561 100.592 83.4184 100.86 82.3184 100.86C81.0731 100.86 79.9108 100.51 78.9561 99.8924C78.4165 99.6865 77.7316 99.4395 76.9222 99.1718C76.0505 98.8836 75.324 99.0689 74.7844 99.3571C74.1203 99.7071 73.7259 100.222 73.7259 100.222L73.7259 118.07L73.8089 118.091Z" fill="#F9991C"/>
<path d="M56.7532 128.094L85.7182 128.094C87.3483 128.094 88.6697 126.751 88.6697 125.093L88.6697 123.624C88.6697 121.966 87.3483 120.623 85.7182 120.623L56.7532 120.623C55.1232 120.623 53.8018 121.966 53.8018 123.624L53.8018 125.093C53.8018 126.751 55.1232 128.094 56.7532 128.094Z" fill="#193D78"/>
<path d="M56.7532 138.057L85.7182 138.057C87.3483 138.057 88.6697 136.63 88.6697 134.87L88.6697 133.771C88.6697 132.011 87.3483 130.585 85.7182 130.585L56.7532 130.585C55.1232 130.585 53.8018 132.011 53.8018 133.771L53.8018 134.87C53.8018 136.63 55.1232 138.057 56.7532 138.057Z" fill="#193D78"/>
<path d="M56.7532 145.528L85.7182 145.528C87.3483 145.528 88.6697 144.288 88.6697 142.759L88.6697 142.071C88.6697 140.542 87.3483 139.302 85.7182 139.302L56.7532 139.302C55.1232 139.302 53.8018 140.542 53.8018 142.071L53.8018 142.759C53.8018 144.288 55.1232 145.528 56.7532 145.528Z" fill="#193D78"/>
<path d="M61.2729 148.019C61.3144 150.765 65.7559 153 71.2352 153C76.7144 153 81.1559 150.782 81.1974 148.019L61.2729 148.019Z" fill="#193D78"/>
</g>
</svg>
