<svg width="299" height="170" viewBox="0 0 299 170" fill="none" xmlns="http://www.w3.org/2000/svg">
<path d="M389.088 98.8676C378.026 122.618 358.247 141.001 333.649 155.169L333.307 155.38C300.418 174.254 258.967 185.827 218.507 192.662C183.305 198.456 147.735 201.74 112.157 202.481C82.0542 203.274 61.8693 202.146 61.1106 202.059C58.8549 201.796 56.6422 201.403 56.6422 201.403C55.0284 201.136 53.3816 200.785 51.7932 200.408L51.6714 200.426L51.1969 200.298C38.7977 197.303 27.6749 191.473 18.9624 183.402C8.45702 173.588 2.14664 160.889 1.01818 147.292C-0.563154 131.178 2.01712 114.81 8.57273 99.3679C23.9898 64.0654 65.3257 26.4142 111.461 16.8426C129.029 13.2212 154.101 11.4602 177.257 -5.64421C182.575 -9.56148 184.323 -10.9411 189.257 -14.642C196.32 -19.9564 232.558 -47.1805 280.166 -49.459C291.835 -50.0261 331.02 -50.3674 362.509 -26.6071C405.545 5.88011 405.898 62.5944 389.088 98.8676Z" fill="#D9E5FF"/>
</svg>
