<svg width="234" height="163" viewBox="0 0 234 163" fill="none" xmlns="http://www.w3.org/2000/svg">
<path d="M0.0748825 154.208H64.0939C64.135 154.208 64.1686 154.165 64.1686 154.112C64.1686 154.06 64.135 154.017 64.0939 154.017H0.0748825C0.0337906 154.017 0.000175476 154.06 0.000175476 154.112C0.000175476 154.165 0.0337906 154.208 0.0748825 154.208Z" fill="black"/>
<path d="M4.90153 157.458H19.2818C19.3364 157.458 19.381 157.414 19.381 157.36C19.381 157.307 19.3364 157.263 19.2818 157.263H4.90153C4.84695 157.263 4.80229 157.307 4.80229 157.36C4.80229 157.414 4.84695 157.458 4.90153 157.458Z" fill="black"/>
<path d="M28.9913 157.458H72.2155C72.27 157.458 72.3147 157.414 72.3147 157.36C72.3147 157.307 72.27 157.263 72.2155 157.263H28.9913C28.9367 157.263 28.892 157.307 28.892 157.36C28.892 157.414 28.9367 157.458 28.9913 157.458Z" fill="black"/>
<path d="M40.1259 162.607H102.86C102.915 162.607 102.959 162.563 102.959 162.509C102.959 162.456 102.915 162.412 102.86 162.412H40.1249C40.0703 162.412 40.0257 162.456 40.0257 162.509C40.0257 162.563 40.0703 162.607 40.1259 162.607Z" fill="black"/>
<path d="M167.634 47.9752L174.528 67.7484C174.969 69.0123 176.064 69.948 177.401 70.2038L180.47 70.7896C180.47 70.7896 172.489 87.7851 159.039 84.938C145.588 82.0908 148.546 70.7896 148.546 70.7896L151.392 70.5642C153.096 70.4292 154.264 68.8202 153.837 67.1969L150.638 55.0455C150.637 55.0436 163.67 44.739 167.634 47.9752Z" fill="white"/>
<path d="M162.052 85.3523C164.104 85.3523 166.129 84.9053 168.102 84.0133C170.449 82.953 172.726 81.2641 174.87 78.9942C178.515 75.1342 180.539 70.8701 180.558 70.8273C180.571 70.8007 180.57 70.7703 180.556 70.7446C180.543 70.7189 180.518 70.6999 180.489 70.6942L177.419 70.1084C176.12 69.8602 175.048 68.9435 174.62 67.7158L167.726 47.9425C167.72 47.9263 167.709 47.9111 167.696 47.8997C166.017 46.5294 162.621 47.3073 157.6 50.2115C153.884 52.3616 150.609 54.9416 150.576 54.9672C150.546 54.991 150.534 55.0291 150.543 55.0652L153.742 67.2165C153.938 67.963 153.789 68.7504 153.334 69.379C152.878 70.0076 152.167 70.4041 151.383 70.466L148.537 70.6913C148.496 70.6942 148.462 70.7227 148.451 70.7627C148.44 70.8083 147.284 75.3824 149.824 79.4183C151.589 82.2236 154.682 84.1113 159.017 85.0289C160.033 85.2448 161.045 85.3523 162.052 85.3523ZM180.329 70.8587C179.988 71.5501 178.024 75.3767 174.724 78.8696C171.387 82.4014 165.961 86.3051 159.059 84.8444C154.777 83.9382 151.726 82.0791 149.989 79.3203C147.657 75.6144 148.494 71.4483 148.625 70.8777L151.4 70.6581C152.24 70.5915 153.003 70.1664 153.493 69.4922C153.981 68.8189 154.141 67.9725 153.929 67.1718L150.747 55.0804C151.621 54.3986 163.79 45.0316 167.55 48.0319L174.436 67.7795C174.886 69.0719 176.015 70.0361 177.381 70.2967L180.329 70.8587Z" fill="black"/>
<path d="M138.584 23.3908C137.406 29.0956 141.933 34.2678 145.849 35.2207C145.988 35.254 146.127 35.2844 146.263 35.3139C146.346 35.5963 146.449 35.8797 146.579 36.1583C148.119 39.4648 152.528 41.0729 156.23 40.7438C157.303 41.8707 158.701 43.4389 160.184 45.4216C164.918 51.754 168.278 48.9069 173.196 42.6362C173.85 41.8013 174.795 40.7362 175.285 38.9684C176.257 35.4584 174.575 32.2974 174.361 31.9094C172.756 28.9976 170.69 29.106 166.15 26.1143C159.247 21.5668 159.127 18.0901 153.194 16.1264C151.624 15.6062 149.647 14.9776 147.179 15.4217C143.589 16.0674 139.515 18.8842 138.584 23.3908Z" fill="black"/>
<path d="M162.936 51.0493C162.936 51.0493 159.595 58.6152 150.847 57.2172C142.098 55.8193 141.876 44.9033 142.658 33.3044C143.532 34.4009 145.49 35.2444 147.036 35.8891C153.328 38.5138 158.987 35.0732 159.82 34.632C158.321 36.4388 158.318 38.8923 159.58 40.5526C160.277 41.4694 161.28 42.1312 163.604 42.1702C163.604 42.1702 165.023 38.5366 168.324 40.6458C171.623 42.7551 170.395 51.6541 162.936 51.0493Z" fill="white"/>
<path d="M152.929 57.4828C156.35 57.4828 158.749 56.0526 160.237 54.7279C161.964 53.1911 162.831 51.4927 162.995 51.1494C166.221 51.3853 168.74 49.8124 169.744 46.93C170.622 44.4119 170.02 41.617 168.376 40.5653C167.38 39.9291 166.45 39.7417 165.611 40.009C164.32 40.4207 163.673 41.7625 163.539 42.0725C161.143 42.0193 160.257 41.2832 159.658 40.4949C158.368 38.7993 158.466 36.4124 159.894 34.6912C159.923 34.656 159.923 34.6056 159.894 34.5704C159.865 34.5352 159.814 34.5257 159.774 34.5476C159.73 34.5704 159.675 34.6009 159.606 34.6389C154.145 37.642 149.776 36.9279 147.073 35.801C145.7 35.2285 143.625 34.3631 142.733 33.2457C142.709 33.2144 142.666 33.202 142.628 33.2134C142.589 33.2248 142.562 33.2591 142.56 33.298C142.205 38.574 141.99 44.5774 143.083 49.1087C144.26 53.9833 146.795 56.6669 150.831 57.3116C151.568 57.4296 152.267 57.4828 152.929 57.4828ZM162.935 50.9545C162.896 50.9545 162.862 50.9764 162.846 51.0115C162.837 51.0306 161.994 52.9087 160.1 54.5919C158.357 56.142 155.34 57.8385 150.861 57.1234C146.911 56.4929 144.429 53.8559 143.271 49.064C142.199 44.6249 142.393 38.7489 142.737 33.5453C143.638 34.5229 145.331 35.2808 146.996 35.9759C149.702 37.1047 154.049 37.8256 159.472 34.9289C158.252 36.6806 158.246 38.9581 159.502 40.61C160.136 41.4449 161.072 42.2228 163.601 42.2656C163.637 42.2646 163.678 42.2418 163.693 42.2047C163.698 42.1886 164.327 40.6185 165.671 40.1915C166.451 39.9433 167.326 40.1231 168.269 40.726C169.843 41.7321 170.41 44.43 169.56 46.8692C168.579 49.684 166.105 51.2112 162.943 50.9554C162.94 50.9545 162.938 50.9545 162.935 50.9545Z" fill="black"/>
<path d="M163.45 47.726C163.491 47.726 163.528 47.7012 163.542 47.6613C163.738 47.1012 163.939 46.5211 164.296 46.0352C164.685 45.5036 165.214 45.1774 165.748 45.1413C165.801 45.1375 165.842 45.0918 165.838 45.0395C165.834 44.9872 165.787 44.9482 165.734 44.9511C165.143 44.991 164.561 45.3457 164.138 45.923C163.766 46.4317 163.559 47.0251 163.359 47.5985C163.342 47.648 163.369 47.7022 163.419 47.7193C163.43 47.7241 163.44 47.726 163.45 47.726Z" fill="black"/>
<path d="M161.335 38.9902C161.335 38.9902 159.909 45.0612 156.824 47.6031C153.738 50.1459 149.224 44.6437 142.193 44.5999C142.193 44.5999 141.999 55.2944 143.566 57.648C145.544 60.6188 161.242 61.6345 163.081 51.308C163.081 51.308 161.411 46.3392 163.749 42.4289L161.335 38.9902Z" fill="black"/>
<path d="M119.74 79.7765C123.719 74.5044 129.799 71.1523 136.459 70.5503C140.252 70.207 145.007 69.8428 150.311 69.5765C150.603 70.5132 151.011 71.4195 151.541 72.2754C153.078 74.7574 155.486 76.6669 158.169 77.8537C160.853 79.0405 163.858 79.5768 166.791 79.2297C169.664 78.8893 172.397 77.6892 174.382 75.5913C176 73.8806 177.942 71.8141 178.439 69.5718C183.251 69.839 187.043 70.2298 191.559 70.924C200.179 72.2487 207.602 77.3687 212.309 84.5751C222.58 100.295 234 116.891 234 136.036C234 157.803 180.734 155.912 180.734 155.912H128.8L95.5915 128.234C95.5906 128.235 105.926 98.0787 119.74 79.7765Z" fill="#90AAFF"/>
<path d="M185.468 152.374C185.86 154.971 180.732 155.913 180.732 155.913C174.519 155.913 164.842 155.913 164.842 155.913L141.18 152.928C141.18 152.928 139.333 123.02 172.787 126.634C172.786 126.634 182.882 135.249 185.468 152.374Z" fill="white"/>
<path d="M158.609 153.141C158.614 153.141 158.618 153.141 158.623 153.14C158.676 153.132 158.712 153.084 158.705 153.032C158.452 151.331 158.857 149.444 159.846 147.717C160.671 146.276 161.888 144.919 163.569 143.569C163.893 143.308 164.244 143.038 164.646 142.866C164.695 142.845 164.717 142.789 164.696 142.74C164.675 142.692 164.618 142.67 164.568 142.691C164.144 142.872 163.782 143.151 163.447 143.42C161.748 144.786 160.515 146.16 159.677 147.622C158.668 149.386 158.254 151.316 158.513 153.058C158.52 153.107 158.561 153.141 158.609 153.141Z" fill="black"/>
<path d="M150.96 152.711C151.007 152.711 151.049 152.677 151.055 152.629C151.343 150.636 151.758 148.303 152.648 146.116C153.572 143.845 154.93 141.99 156.575 140.75C156.618 140.717 156.626 140.658 156.593 140.616C156.561 140.575 156.5 140.567 156.457 140.599C154.783 141.859 153.404 143.743 152.468 146.046C151.571 148.251 151.153 150.598 150.864 152.602C150.856 152.655 150.893 152.702 150.946 152.71C150.95 152.71 150.955 152.711 150.96 152.711Z" fill="black"/>
<path d="M144.832 152.71C144.836 152.71 144.84 152.71 144.844 152.71C144.897 152.703 144.935 152.656 144.929 152.604C144.386 148.138 145.7 144.589 146.898 142.398C148.198 140.022 149.645 138.686 149.66 138.672C149.699 138.636 149.701 138.576 149.665 138.538C149.628 138.5 149.567 138.497 149.528 138.534C149.514 138.547 148.046 139.9 146.731 142.302C145.517 144.518 144.186 148.109 144.737 152.627C144.742 152.674 144.784 152.71 144.832 152.71Z" fill="black"/>
<path d="M70.753 157.464H169.347C169.931 157.464 170.515 157.317 170.996 156.993C172.123 156.232 172.515 154.871 172.069 153.702C170.907 151.311 168.504 150.469 164.951 150.469H64.2849L65.5915 153.952C66.3964 156.064 68.4536 157.464 70.753 157.464Z" fill="black"/>
<path d="M70.1952 157.464C68.2232 157.464 66.4507 156.285 65.7213 154.489L48.2677 111.519C47.8047 110.379 47.9481 109.087 48.6503 108.071C49.3525 107.056 50.5226 106.447 51.7739 106.447H112.367C116.018 106.447 119.274 108.704 120.492 112.081L136.875 157.465H70.1952V157.464Z" fill="black"/>
<path d="M68.7771 150.984H128.853C128.906 150.984 128.949 150.941 128.949 150.889C128.949 150.837 128.906 150.794 128.853 150.794H68.7771C68.7239 150.794 68.6803 150.837 68.6803 150.889C68.6803 150.941 68.7239 150.984 68.7771 150.984Z" fill="white"/>
<path d="M213.11 127.271C213.162 127.271 213.206 127.23 213.207 127.178C213.208 127.126 213.165 127.082 213.112 127.081L174.521 126.362C174.469 126.36 174.424 126.403 174.423 126.456C174.422 126.508 174.464 126.552 174.518 126.553L213.108 127.271C213.109 127.271 213.11 127.271 213.11 127.271Z" fill="black"/>
<path d="M200.223 125.124C200.232 125.124 200.242 125.123 200.251 125.12C200.303 125.105 200.332 125.051 200.316 125.001C198.915 120.423 196.982 115.996 194.571 111.844C194.094 111.025 193.334 109.939 192.218 109.975C192.165 109.977 192.123 110.02 192.124 110.073C192.126 110.125 192.172 110.168 192.224 110.165C192.239 110.164 192.256 110.164 192.271 110.164C193.257 110.164 193.959 111.173 194.402 111.938C196.806 116.079 198.734 120.492 200.131 125.056C200.143 125.098 200.182 125.124 200.223 125.124Z" fill="black"/>
<path d="M215.572 -6.12431C216.061 -3.95923 214.667 -1.81559 212.461 -1.33619C212.297 -1.30014 212.133 -1.27773 211.969 -1.26214C211.926 0.398211 211.629 2.01764 211.104 3.55034C211.252 3.61953 211.398 3.69552 211.54 3.78517C213.447 4.97684 214.008 7.4586 212.793 9.32844C211.578 11.1983 209.048 11.7488 207.142 10.5571C207 10.4685 206.868 10.3701 206.741 10.2677C205.546 11.3824 204.176 12.3315 202.66 13.0701C202.715 13.2221 202.763 13.377 202.8 13.5388C203.289 15.7038 201.896 17.8475 199.69 18.3269C197.483 18.8063 195.297 17.4402 194.809 15.2751C194.772 15.1134 194.749 14.9526 194.734 14.7928C193.041 14.7509 191.39 14.4595 189.828 13.9441C189.758 14.0893 189.679 14.2325 189.589 14.3718C188.374 16.2417 185.844 16.7922 183.938 15.6005C182.031 14.4089 181.471 11.9271 182.685 10.0573C182.776 9.91794 182.876 9.78835 182.98 9.66363C181.844 8.49144 180.876 7.1468 180.123 5.65989C179.968 5.71348 179.809 5.76122 179.646 5.79727C177.439 6.27667 175.253 4.91058 174.765 2.7455C174.276 0.580421 175.669 -1.56322 177.875 -2.04262C178.04 -2.07867 178.204 -2.10108 178.367 -2.11667C178.41 -3.77702 178.708 -5.39645 179.233 -6.92915C179.085 -6.99833 178.938 -7.07434 178.796 -7.16301C176.89 -8.35468 176.329 -10.8364 177.544 -12.7063C178.758 -14.5761 181.288 -15.1257 183.195 -13.935C183.337 -13.8463 183.469 -13.7479 183.596 -13.6456C184.79 -14.7603 186.161 -15.7093 187.676 -16.4479C187.622 -16.5999 187.573 -16.7548 187.536 -16.9166C187.047 -19.0817 188.441 -21.2253 190.647 -21.7047C192.854 -22.1841 195.039 -20.818 195.528 -18.6529C195.564 -18.4912 195.587 -18.3304 195.603 -18.1706C197.295 -18.1287 198.946 -17.8374 200.509 -17.3219C200.58 -17.4671 200.657 -17.6103 200.748 -17.7497C201.962 -19.6195 204.492 -20.1691 206.399 -18.9784C208.305 -17.7867 208.866 -15.305 207.651 -13.4351C207.561 -13.2958 207.46 -13.1662 207.356 -13.0415C208.493 -11.8693 209.46 -10.5246 210.213 -9.03772C210.368 -9.09131 210.527 -9.13906 210.691 -9.17511C212.898 -9.65548 215.083 -8.28939 215.572 -6.12431ZM202.588 -3.3025C201.68 -7.32281 197.622 -9.8601 193.523 -8.96951C189.425 -8.07893 186.838 -4.09759 187.746 -0.0772858C188.654 3.94302 192.712 6.48032 196.811 5.58973C200.909 4.69914 203.496 0.717808 202.588 -3.3025Z" fill="white"/>
<path d="M198.803 18.5195C199.102 18.5195 199.406 18.4874 199.71 18.4221C200.803 18.1843 201.736 17.5432 202.338 16.6175C202.939 15.6909 203.138 14.5898 202.895 13.518C202.867 13.3913 202.83 13.2627 202.781 13.1195C204.232 12.4033 205.565 11.4874 206.745 10.397C206.864 10.4906 206.977 10.5695 207.087 10.6387C209.037 11.8576 211.633 11.2925 212.875 9.38076C213.477 8.45412 213.675 7.35404 213.433 6.28124C213.191 5.20845 212.537 4.2935 211.593 3.70303C211.483 3.63385 211.362 3.56758 211.225 3.50035C211.734 1.99006 212.017 0.418381 212.065 -1.17376C212.218 -1.19033 212.355 -1.21274 212.482 -1.24002C213.576 -1.47777 214.509 -2.11892 215.111 -3.04458C215.713 -3.97122 215.911 -5.0713 215.669 -6.1441C215.169 -8.35789 212.926 -9.76003 210.669 -9.26992C210.542 -9.24264 210.408 -9.20561 210.263 -9.15787C209.533 -10.5805 208.6 -11.8881 207.488 -13.0466C207.584 -13.1645 207.665 -13.2746 207.734 -13.3828C208.336 -14.3094 208.534 -15.4095 208.292 -16.4823C208.05 -17.5551 207.397 -18.47 206.452 -19.0605C204.503 -20.2795 201.907 -19.7143 200.664 -17.8026C200.594 -17.6944 200.526 -17.5756 200.458 -17.4411C198.919 -17.94 197.316 -18.2177 195.692 -18.2654C195.675 -18.4165 195.653 -18.548 195.625 -18.6737C195.125 -20.8875 192.882 -22.2896 190.625 -21.7995C189.531 -21.5618 188.598 -20.9206 187.997 -19.995C187.396 -19.0683 187.197 -17.9682 187.439 -16.8954C187.468 -16.7688 187.505 -16.6402 187.553 -16.4969C186.103 -15.7808 184.77 -14.8648 183.59 -13.7745C183.47 -13.868 183.357 -13.947 183.247 -14.0161C181.298 -15.2351 178.701 -14.67 177.459 -12.7582C176.858 -11.8316 176.66 -10.7315 176.902 -9.6587C177.144 -8.5859 177.798 -7.67096 178.742 -7.08048C178.852 -7.0113 178.973 -6.94504 179.11 -6.87781C178.601 -5.36751 178.318 -3.79583 178.269 -2.20369C178.116 -2.18712 177.979 -2.16471 177.852 -2.13743C176.759 -1.89968 175.826 -1.25853 175.224 -0.332869C174.622 0.593769 174.424 1.69385 174.666 2.76665C175.098 4.68228 176.836 5.9899 178.758 5.9899C179.057 5.9899 179.361 5.95775 179.665 5.89246C179.792 5.86518 179.926 5.82816 180.071 5.78041C180.801 7.20399 181.734 8.51161 182.845 9.66918C182.75 9.7861 182.669 9.89718 182.599 10.0053C181.998 10.932 181.799 12.0321 182.042 13.1049C182.284 14.1777 182.937 15.0926 183.881 15.6831C185.831 16.902 188.428 16.3369 189.669 14.4251C189.74 14.317 189.807 14.1981 189.876 14.0637C191.415 14.5625 193.018 14.8402 194.641 14.888C194.659 15.039 194.681 15.1705 194.709 15.2962C195.143 17.2109 196.88 18.5185 198.803 18.5195ZM206.74 10.169C206.715 10.169 206.69 10.1778 206.672 10.1963C205.469 11.3188 204.104 12.2562 202.615 12.9821C202.57 13.0035 202.548 13.0552 202.565 13.1019C202.626 13.2715 202.669 13.4176 202.702 13.5589C202.933 14.5801 202.744 15.6295 202.171 16.5113C201.597 17.3941 200.708 18.0041 199.667 18.2311C197.517 18.6988 195.381 17.3629 194.904 15.2534C194.873 15.1121 194.849 14.962 194.831 14.7818C194.826 14.7331 194.784 14.695 194.735 14.6941C193.072 14.6531 191.431 14.3686 189.858 13.8503C189.81 13.8347 189.759 13.8561 189.737 13.9009C189.659 14.0597 189.583 14.1971 189.504 14.3189C188.321 16.141 185.846 16.6779 183.99 15.5174C183.09 14.9552 182.467 14.0831 182.237 13.061C182.006 12.0399 182.195 10.9904 182.768 10.1086C182.847 9.98683 182.942 9.86113 183.056 9.72472C183.088 9.68672 183.086 9.63117 183.051 9.59512C181.907 8.41514 180.951 7.07634 180.21 5.61574C180.189 5.5719 180.136 5.55046 180.088 5.56702C179.916 5.62646 179.767 5.66933 179.622 5.70051C177.47 6.16822 175.336 4.83234 174.859 2.7228C174.628 1.70164 174.818 0.652233 175.39 -0.229584C175.964 -1.11238 176.853 -1.72234 177.894 -1.94938C178.039 -1.98055 178.192 -2.00394 178.374 -2.02148C178.424 -2.02635 178.463 -2.0663 178.464 -2.116C178.505 -3.74614 178.795 -5.35582 179.324 -6.90022C179.34 -6.94699 179.318 -6.99766 179.273 -7.01909C179.11 -7.09509 178.971 -7.17012 178.847 -7.24807C177.948 -7.81029 177.324 -8.68237 177.094 -9.70449C176.864 -10.7256 177.053 -11.7751 177.625 -12.6569C178.808 -14.479 181.282 -15.0159 183.139 -13.8554C183.263 -13.7774 183.391 -13.6858 183.53 -13.5728C183.569 -13.5416 183.625 -13.5436 183.661 -13.5777C184.864 -14.7002 186.229 -15.6375 187.718 -16.3634C187.763 -16.3849 187.785 -16.4365 187.768 -16.4833C187.706 -16.6528 187.664 -16.799 187.631 -16.9403C187.4 -17.9614 187.589 -19.0108 188.162 -19.8927C188.735 -20.7754 189.625 -21.3854 190.666 -21.6124C192.815 -22.0801 194.952 -20.7443 195.428 -18.6347C195.46 -18.4925 195.484 -18.3434 195.502 -18.1641C195.507 -18.1154 195.547 -18.0774 195.598 -18.0764C197.26 -18.0355 198.902 -17.751 200.475 -17.2326C200.522 -17.217 200.574 -17.2384 200.596 -17.2833C200.674 -17.443 200.75 -17.5795 200.829 -17.7013C202.012 -19.5224 204.486 -20.0602 206.343 -18.8998C207.242 -18.3375 207.865 -17.4655 208.096 -16.4433C208.326 -15.4212 208.137 -14.3728 207.565 -13.491C207.485 -13.3692 207.391 -13.2435 207.277 -13.107C207.245 -13.069 207.247 -13.0135 207.282 -12.9774C208.426 -11.7975 209.382 -10.4587 210.122 -8.99807C210.144 -8.95422 210.197 -8.93278 210.244 -8.94935C210.417 -9.00878 210.566 -9.05166 210.711 -9.08284C212.861 -9.55054 214.997 -8.21466 215.473 -6.10512C215.705 -5.08397 215.515 -4.03455 214.942 -3.15274C214.369 -2.26994 213.48 -1.65998 212.439 -1.43295C212.296 -1.40177 212.138 -1.37839 211.958 -1.36085C211.909 -1.35598 211.87 -1.31505 211.869 -1.26633C211.827 0.364788 211.537 1.97447 211.008 3.51789C210.993 3.56466 211.014 3.61533 211.06 3.63677C211.223 3.71277 211.362 3.7878 211.486 3.86575C212.385 4.42797 213.008 5.30004 213.238 6.32217C213.47 7.34332 213.28 8.39273 212.708 9.27455C211.525 11.0966 209.05 11.6335 207.194 10.473C207.07 10.3951 206.942 10.3035 206.803 10.1905C206.785 10.1768 206.763 10.169 206.74 10.169ZM195.166 5.86421C195.716 5.86421 196.274 5.80574 196.833 5.68492C198.84 5.2484 200.555 4.07134 201.661 2.37007C202.766 0.668797 203.13 -1.35305 202.685 -3.32325C201.767 -7.38936 197.647 -9.96465 193.502 -9.06432C191.494 -8.6278 189.779 -7.45074 188.674 -5.74947C187.568 -4.0482 187.205 -2.02635 187.65 -0.0561466C188.445 3.46235 191.636 5.86421 195.166 5.86421ZM195.168 -9.04971C198.608 -9.04971 201.716 -6.70924 202.49 -3.28233C202.924 -1.36377 202.57 0.606434 201.493 2.26386C200.416 3.92129 198.746 5.06814 196.79 5.49394C192.751 6.37186 188.738 3.86282 187.843 -0.09902C187.41 -2.01758 187.764 -3.98778 188.841 -5.64521C189.917 -7.30264 191.588 -8.44949 193.544 -8.87529C194.09 -8.99319 194.633 -9.04971 195.168 -9.04971Z" fill="black"/>
<path d="M230.873 19.6487C231.129 20.7829 230.4 21.9054 229.243 22.1568C229.157 22.1753 229.072 22.187 228.985 22.1958C228.964 23.0649 228.808 23.9136 228.532 24.7165C228.609 24.7525 228.686 24.7925 228.76 24.8393C229.759 25.4638 230.052 26.7637 229.416 27.7429C228.78 28.7222 227.455 29.0106 226.457 28.386C226.382 28.3393 226.313 28.2886 226.246 28.235C225.621 28.8186 224.903 29.3156 224.109 29.7024C224.137 29.7823 224.162 29.8632 224.182 29.948C224.438 31.0821 223.709 32.2046 222.552 32.456C221.396 32.7074 220.252 31.9912 219.996 30.858C219.977 30.7733 219.965 30.6895 219.956 30.6057C219.07 30.5842 218.206 30.4312 217.387 30.1613C217.35 30.2373 217.309 30.3124 217.262 30.3855C216.626 31.3647 215.301 31.6531 214.302 31.0285C213.304 30.404 213.01 29.1041 213.646 28.1249C213.694 28.0518 213.746 27.9836 213.801 27.9193C213.206 27.3054 212.7 26.601 212.305 25.8224C212.223 25.8507 212.141 25.875 212.055 25.8945C210.898 26.1459 209.754 25.4297 209.498 24.2965C209.242 23.1623 209.971 22.0399 211.128 21.7885C211.214 21.77 211.299 21.7583 211.386 21.7495C211.408 20.8803 211.564 20.0317 211.839 19.2288C211.762 19.1927 211.685 19.1528 211.611 19.106C210.613 18.4814 210.319 17.1816 210.955 16.2023C211.591 15.2231 212.916 14.9347 213.914 15.5592C213.989 15.606 214.058 15.6567 214.125 15.7103C214.75 15.1266 215.469 14.6297 216.262 14.2428C216.234 14.1629 216.209 14.0821 216.189 13.9973C215.933 12.8631 216.662 11.7406 217.819 11.4892C218.975 11.2378 220.119 11.954 220.375 13.0872C220.394 13.172 220.406 13.2558 220.415 13.3396C221.301 13.361 222.165 13.514 222.984 13.7839C223.021 13.7079 223.062 13.6329 223.109 13.5598C223.745 12.5805 225.07 12.2921 226.069 12.9167C227.067 13.5413 227.361 14.8411 226.725 15.8204C226.677 15.8934 226.624 15.9617 226.57 16.026C227.165 16.6398 227.671 17.3443 228.066 18.1228C228.148 18.0946 228.23 18.0702 228.317 18.0507C229.473 17.7984 230.617 18.5145 230.873 19.6487ZM224.073 21.1259C223.598 19.0202 221.472 17.6912 219.325 18.1579C217.178 18.6246 215.824 20.7098 216.299 22.8155C216.775 24.9211 218.9 26.2502 221.047 25.7834C223.194 25.3177 224.548 23.2325 224.073 21.1259Z" fill="white"/>
<path d="M222.09 32.602C222.251 32.602 222.412 32.5854 222.575 32.5494C223.16 32.4227 223.66 32.0797 223.981 31.5838C224.304 31.0878 224.409 30.4993 224.28 29.9254C224.267 29.8698 224.251 29.8114 224.232 29.75C224.969 29.3817 225.649 28.9149 226.253 28.3615C226.306 28.4014 226.355 28.4355 226.405 28.4667C227.448 29.1186 228.837 28.8165 229.501 27.7934C229.824 27.2975 229.929 26.7089 229.8 26.135C229.67 25.5611 229.321 25.071 228.816 24.7553C228.767 24.7251 228.713 24.6949 228.655 24.6647C228.911 23.8939 229.055 23.093 229.084 22.2813C229.149 22.2726 229.21 22.2628 229.266 22.2502C229.851 22.1235 230.351 21.7805 230.672 21.2845C230.994 20.7886 231.1 20.2001 230.971 19.6261C230.703 18.4413 229.503 17.692 228.297 17.9541C228.24 17.9668 228.18 17.9824 228.118 18.0018C227.742 17.2779 227.266 16.6114 226.703 16.019C226.743 15.9673 226.778 15.9196 226.81 15.8709C227.132 15.3749 227.238 14.7864 227.109 14.2125C226.979 13.6386 226.629 13.1484 226.124 12.8327C225.081 12.1809 223.692 12.4829 223.028 13.506C222.996 13.5548 222.966 13.6064 222.935 13.6639C222.149 13.4125 221.333 13.2712 220.505 13.243C220.496 13.1786 220.486 13.1192 220.473 13.0637C220.205 11.8788 219.005 11.1295 217.799 11.3916C217.214 11.5183 216.714 11.8613 216.392 12.3572C216.07 12.8532 215.965 13.4417 216.094 14.0156C216.107 14.0712 216.122 14.1297 216.142 14.191C215.405 14.5594 214.725 15.0261 214.121 15.5795C214.069 15.5406 214.019 15.5055 213.97 15.4743C212.927 14.8224 211.537 15.1245 210.874 16.1476C210.551 16.6436 210.446 17.2321 210.575 17.806C210.705 18.3799 211.054 18.87 211.559 19.1857C211.609 19.2169 211.661 19.2461 211.72 19.2763C211.464 20.0471 211.32 20.848 211.291 21.6597C211.226 21.6675 211.165 21.6782 211.109 21.6909C210.524 21.8175 210.024 22.1605 209.702 22.6565C209.381 23.1524 209.275 23.741 209.404 24.3149C209.672 25.4997 210.872 26.25 212.078 25.9869C212.136 25.9743 212.194 25.9587 212.257 25.9392C212.633 26.6631 213.108 27.3296 213.672 27.9221C213.631 27.9737 213.597 28.0224 213.565 28.0702C213.242 28.5661 213.137 29.1546 213.266 29.7286C213.396 30.3025 213.746 30.7926 214.251 31.1083C215.294 31.7601 216.683 31.4581 217.347 30.435C217.379 30.3863 217.409 30.3346 217.439 30.2771C218.225 30.5285 219.042 30.6698 219.87 30.6981C219.878 30.7624 219.889 30.8218 219.902 30.8774C220.132 31.9024 221.062 32.602 222.09 32.602ZM226.247 28.1364C226.222 28.1364 226.198 28.1452 226.179 28.1637C225.553 28.7483 224.841 29.2365 224.066 29.6146C224.021 29.636 223.999 29.6876 224.016 29.7344C224.048 29.8211 224.07 29.8962 224.086 29.9683C224.204 30.4915 224.108 31.0284 223.814 31.4795C223.52 31.9316 223.065 32.2434 222.532 32.3594C221.431 32.5991 220.337 31.9151 220.093 30.8355C220.077 30.7633 220.064 30.6844 220.055 30.5938C220.05 30.5451 220.01 30.5071 219.959 30.5061C219.093 30.4847 218.238 30.3366 217.419 30.0667C217.371 30.0511 217.319 30.0725 217.297 30.1173C217.258 30.1992 217.219 30.2693 217.178 30.3317C216.572 31.2642 215.306 31.5399 214.356 30.9456C213.895 30.6581 213.577 30.2109 213.459 29.6886C213.341 29.1654 213.437 28.6285 213.731 28.1773C213.771 28.115 213.818 28.0526 213.879 27.9805C213.91 27.9425 213.908 27.887 213.874 27.8519C213.278 27.2371 212.78 26.5404 212.394 25.7784C212.371 25.7346 212.319 25.7131 212.272 25.7297C212.183 25.7609 212.107 25.7823 212.034 25.7979C210.933 26.0376 209.839 25.3536 209.595 24.274C209.477 23.7507 209.573 23.2138 209.867 22.7627C210.161 22.3106 210.615 21.9988 211.149 21.8828C211.223 21.8672 211.303 21.8546 211.396 21.8458C211.445 21.8409 211.484 21.801 211.485 21.7513C211.507 20.9016 211.658 20.0636 211.933 19.2588C211.949 19.212 211.927 19.1614 211.882 19.1399C211.798 19.101 211.727 19.063 211.663 19.023C211.203 18.7356 210.884 18.2883 210.766 17.766C210.648 17.2428 210.744 16.7059 211.038 16.2548C211.644 15.3223 212.91 15.0475 213.861 15.6409C213.924 15.6809 213.99 15.7286 214.061 15.7851C214.1 15.8163 214.156 15.8144 214.193 15.7803C214.819 15.1956 215.531 14.7075 216.306 14.3294C216.351 14.308 216.373 14.2563 216.356 14.2095C216.325 14.1238 216.302 14.0468 216.286 13.9757C216.168 13.4525 216.264 12.9156 216.558 12.4644C216.852 12.0123 217.306 11.7005 217.84 11.5846C218.941 11.3458 220.035 12.0289 220.279 13.1085C220.295 13.1806 220.308 13.2595 220.316 13.3501C220.321 13.3989 220.362 13.4369 220.413 13.4378C221.279 13.4593 222.134 13.6074 222.953 13.8773C223.001 13.8929 223.053 13.8714 223.074 13.8266C223.114 13.7448 223.153 13.6756 223.194 13.6123C223.8 12.6798 225.066 12.404 226.016 12.9984C226.476 13.2858 226.795 13.7331 226.913 14.2553C227.031 14.7786 226.935 15.3155 226.641 15.7666C226.601 15.829 226.554 15.8913 226.493 15.9634C226.462 16.0014 226.464 16.057 226.498 16.0921C227.095 16.7069 227.592 17.4046 227.978 18.1655C228.001 18.2094 228.052 18.2308 228.1 18.2143C228.188 18.1841 228.265 18.1616 228.339 18.1461C229.439 17.9073 230.534 18.5904 230.778 19.67C230.896 20.1932 230.799 20.7301 230.506 21.1813C230.212 21.6334 229.757 21.9452 229.224 22.0611C229.15 22.0767 229.07 22.0894 228.977 22.0982C228.928 22.103 228.889 22.143 228.888 22.1927C228.866 23.0423 228.715 23.8803 228.439 24.6851C228.424 24.7319 228.445 24.7826 228.491 24.804C228.574 24.843 228.646 24.881 228.709 24.9209C229.17 25.2084 229.488 25.6556 229.607 26.1779C229.725 26.7011 229.628 27.238 229.335 27.6892C228.728 28.6217 227.462 28.8974 226.512 28.303C226.448 28.2631 226.384 28.2173 226.312 28.1588C226.292 28.1432 226.27 28.1364 226.247 28.1364ZM220.185 25.9743C220.477 25.9743 220.773 25.9431 221.069 25.8788C222.133 25.6478 223.042 25.0233 223.627 24.122C224.213 23.2206 224.405 22.1488 224.17 21.1053C223.683 18.9499 221.499 17.5858 219.304 18.0632C218.24 18.2942 217.331 18.9187 216.746 19.82C216.16 20.7214 215.968 21.7932 216.203 22.8367C216.624 24.7007 218.315 25.9743 220.185 25.9743ZM220.186 18.1626C221.966 18.1626 223.575 19.3738 223.976 21.1472C224.2 22.1401 224.016 23.1593 223.459 24.0167C222.902 24.8742 222.038 25.4686 221.026 25.6878C218.936 26.1419 216.86 24.844 216.396 22.7939C216.172 21.801 216.356 20.7818 216.912 19.9243C217.47 19.0668 218.334 18.4725 219.346 18.2532C219.628 18.1919 219.91 18.1626 220.186 18.1626Z" fill="black"/>
<path d="M183.987 57.5186C182.241 58.3559 181.176 60.077 181.093 61.8914L185.079 60.3724L183.987 57.5186Z" fill="white"/>
<path d="M181.092 61.9807C181.103 61.9807 181.115 61.9789 181.125 61.9745L185.111 60.4554C185.157 60.4376 185.181 60.3869 185.162 60.3415L184.071 57.4886C184.062 57.4655 184.044 57.4468 184.02 57.437C183.996 57.4281 183.969 57.429 183.946 57.4396C182.219 58.2681 181.089 59.9731 181 61.8881C180.999 61.9184 181.013 61.9469 181.039 61.9647C181.055 61.9745 181.074 61.9807 181.092 61.9807ZM184.961 60.3211L181.191 61.7582C181.32 59.9972 182.36 58.4372 183.937 57.6425L184.961 60.3211Z" fill="black"/>
<path d="M185.019 60.3564L181.093 61.8915C182.38 63.0741 184.235 63.5653 186.005 63.0937L186.46 62.962L185.019 60.3564Z" fill="white"/>
<path d="M184.662 63.3574C185.12 63.3574 185.579 63.2996 186.028 63.1795L186.485 63.0469C186.511 63.0389 186.532 63.0202 186.543 62.9953C186.554 62.9703 186.552 62.9428 186.539 62.9187L185.1 60.3132C185.078 60.2731 185.029 60.2562 184.987 60.2731L181.06 61.8082C181.031 61.8197 181.01 61.8447 181.005 61.874C181 61.9043 181.01 61.9345 181.032 61.9559C182.019 62.8653 183.333 63.3574 184.662 63.3574ZM186.325 62.9081L185.978 63.0086C184.334 63.4473 182.54 63.0309 181.261 61.9221L184.978 60.4689L186.325 62.9081Z" fill="black"/>
<path d="M205.912 63.9871C205.912 63.9871 200.398 61.9261 197.919 56.335C194.625 48.9019 187.211 49.9662 184.893 53.9813C182.508 58.1139 184.39 64.0022 192.105 66.8623C199.82 69.7224 205.82 65.4109 205.82 65.4109L210.577 69.4536L209.561 65.6716L211.56 62.5571L205.912 63.9871Z" fill="white"/>
<path d="M210.577 69.5428C210.594 69.5428 210.611 69.5383 210.625 69.5294C210.659 69.509 210.675 69.4689 210.665 69.4315L209.659 65.6869L211.637 62.6053C211.657 62.5742 211.655 62.535 211.633 62.5056C211.611 62.4763 211.573 62.4629 211.537 62.4718L205.917 63.8947C205.502 63.7301 200.349 61.5944 198.002 56.3005C196.513 52.9412 193.949 50.9265 190.965 50.7726C188.413 50.64 186 51.8832 184.814 53.9379C183.709 55.852 183.531 58.0723 184.31 60.1884C185.378 63.0867 188.135 65.4867 192.073 66.9461C196.082 68.4322 199.619 67.9561 201.882 67.295C204.062 66.6578 205.511 65.7288 205.814 65.5241L210.517 69.5214C210.535 69.5357 210.555 69.5428 210.577 69.5428ZM211.361 62.6996L209.484 65.6246C209.471 65.6451 209.467 65.6709 209.473 65.695L210.415 69.1984L205.88 65.3443C205.849 65.3168 205.802 65.315 205.767 65.3399C205.753 65.3506 204.246 66.4193 201.824 67.1268C199.59 67.779 196.096 68.248 192.137 66.7806C188.25 65.3399 185.531 62.9773 184.481 60.1288C183.72 58.0625 183.894 55.8947 184.973 54.0269C186.107 52.0611 188.512 50.8251 190.956 50.9515C193.869 51.1018 196.376 53.0774 197.837 56.3726C200.302 61.9343 205.824 64.0522 205.88 64.0727C205.897 64.0789 205.917 64.0798 205.935 64.0754L211.361 62.6996Z" fill="black"/>
<path d="M192.434 70.9786C192.484 70.9786 192.525 70.9385 192.525 70.8896V67.0355C192.525 66.9866 192.484 66.9465 192.434 66.9465C192.385 66.9465 192.344 66.9866 192.344 67.0355V70.8896C192.344 70.9385 192.385 70.9786 192.434 70.9786Z" fill="black"/>
<path d="M196.055 71.7221C196.105 71.7221 196.146 71.6821 196.146 71.6331V67.8405C196.146 67.7915 196.105 67.7515 196.055 67.7515C196.005 67.7515 195.965 67.7915 195.965 67.8405V71.6331C195.965 71.6821 196.005 71.7221 196.055 71.7221Z" fill="black"/>
<path d="M193.222 58.0218C193.222 58.0218 198.178 54.6421 206.648 48.2483C206.788 48.1433 206.82 48.3666 206.82 48.3666C206.82 48.3666 207.792 53.2663 202.882 56.2225C202.882 56.2225 205.263 55.1591 208.278 53.8385C208.278 53.8385 208.716 57.9391 204.098 59.5604C204.098 59.5604 205.611 59.6049 207.549 59.5426C207.549 59.5426 204.082 64.6808 196.077 62.5985L193.222 58.0218Z" fill="white"/>
<path d="M199.723 63.1791C201.991 63.1791 203.699 62.5642 204.858 61.928C206.723 60.9046 207.588 59.6437 207.623 59.5903C207.642 59.5627 207.643 59.5271 207.627 59.4977C207.611 59.4684 207.583 59.4506 207.544 59.4523C206.257 59.4942 205.148 59.4879 204.556 59.479C206.668 58.607 207.596 57.1894 208.003 56.1206C208.473 54.8873 208.371 53.8701 208.367 53.8274C208.364 53.7989 208.347 53.774 208.322 53.7598C208.297 53.7456 208.266 53.7438 208.24 53.7553C206.378 54.5714 204.746 55.2939 203.777 55.7246C205.707 54.267 206.478 52.5006 206.779 51.2041C207.149 49.6094 206.917 48.3983 206.906 48.3476C206.903 48.3244 206.877 48.1829 206.773 48.1402C206.732 48.1242 206.669 48.1171 206.591 48.1758C198.22 54.4948 193.218 57.9137 193.168 57.9476C193.127 57.9751 193.116 58.0312 193.145 58.0712C193.174 58.1113 193.23 58.122 193.271 58.0935C193.321 58.0597 198.327 54.639 206.702 48.3173C206.703 48.3155 206.705 48.3146 206.707 48.3137C206.715 48.3289 206.724 48.3556 206.728 48.3778C206.731 48.3938 206.963 49.613 206.6 51.172C206.265 52.6074 205.339 54.6363 202.833 56.1455C202.792 56.1705 202.778 56.2221 202.801 56.263C202.823 56.3048 202.875 56.3217 202.918 56.3022C202.942 56.2915 205.27 55.2521 208.194 53.9707C208.206 54.2777 208.195 55.1151 207.831 56.0664C207.409 57.1662 206.415 58.6506 204.066 59.4755C204.025 59.4897 204 59.5306 204.007 59.5734C204.013 59.6152 204.05 59.6472 204.094 59.6481C204.108 59.649 205.534 59.6891 207.365 59.6357C207.08 59.9978 206.228 60.974 204.762 61.7767C203.073 62.7004 200.2 63.5778 196.1 62.5108C196.052 62.4984 196.002 62.5269 195.989 62.574C195.977 62.6212 196.006 62.6701 196.054 62.6826C197.407 63.0359 198.63 63.1791 199.723 63.1791Z" fill="black"/>
<path d="M188.28 60.1739C186.723 60.1739 185.46 58.9352 185.46 57.4073C185.46 55.8793 186.723 54.6406 188.28 54.6406C189.837 54.6406 191.1 55.8793 191.1 57.4073C191.1 58.9352 189.837 60.1739 188.28 60.1739Z" fill="#90AAFF"/>
<path d="M187.117 59.1997C186.565 59.1997 186.119 58.7614 186.119 58.2208C186.119 57.6802 186.565 57.2419 187.117 57.2419C187.668 57.2419 188.115 57.6802 188.115 58.2208C188.115 58.7614 187.668 59.1997 187.117 59.1997Z" fill="white"/>
</svg>
