<svg width="750" height="294" viewBox="0 0 750 294" fill="none" xmlns="http://www.w3.org/2000/svg">
<mask id="mask0_34_615" style="mask-type:alpha" maskUnits="userSpaceOnUse" x="0" y="0" width="750" height="294">
<rect width="750" height="294" rx="12" fill="white"/>
</mask>
<g mask="url(#mask0_34_615)">
<rect x="0.5" y="0.5" width="749" height="293" rx="11.5" fill="url(#paint0_linear_34_615)" stroke="#D8D8D8"/>
<circle cx="72.5" cy="171.5" r="24.5" fill="#E4D6FF"/>
<circle cx="119.5" cy="8.5" r="24.5" fill="#E4D6FF"/>
<circle cx="655.5" cy="244.5" r="24.5" fill="#90AAFF" fill-opacity="0.24"/>
<path fill-rule="evenodd" clip-rule="evenodd" d="M23.5 319C50.8381 319 73 296.838 73 269.5C73 242.162 50.8381 220 23.5 220C-3.83809 220 -26 242.162 -26 269.5C-26 296.838 -3.83809 319 23.5 319ZM23.5 301C40.897 301 55 286.897 55 269.5C55 252.103 40.897 238 23.5 238C6.10303 238 -8 252.103 -8 269.5C-8 286.897 6.10303 301 23.5 301Z" fill="#E4D6FF" fill-opacity="0.88"/>
<path fill-rule="evenodd" clip-rule="evenodd" d="M741 135C759.225 135 774 120.225 774 102C774 83.7746 759.225 69 741 69C722.775 69 708 83.7746 708 102C708 120.225 722.775 135 741 135ZM741 123C752.598 123 762 113.598 762 102C762 90.402 752.598 81 741 81C729.402 81 720 90.402 720 102C720 113.598 729.402 123 741 123Z" fill="#CBD9FE"/>
<circle cx="715.5" cy="36.5" r="54.5" fill="#90AAFF" fill-opacity="0.24"/>
</g>
<path d="M646.934 167.221C671.617 132.254 708.434 58.8239 658.247 44.8372C595.513 27.3538 594.484 79.8039 580.086 130.197C565.688 180.59 593.456 245.382 529.693 247.439C479.335 249.063 490.986 176.651 503.496 138.847C503.821 137.866 504.076 136.886 504.234 135.864C506.753 119.624 506.885 89.1626 488.556 85.9749" stroke="#BCCCF8" stroke-width="2" stroke-linecap="round" stroke-dasharray="6 6"/>
<path fill-rule="evenodd" clip-rule="evenodd" d="M672.291 215.926C690.656 206.084 698.62 185.183 690.077 169.242C681.534 153.302 659.721 148.359 641.355 158.202C622.989 168.045 615.026 188.946 623.569 204.886C627.852 212.878 635.472 218.106 644.32 220.091C644.471 220.125 644.598 220.224 644.663 220.364C646.209 223.657 647.611 228.255 647.945 234.091C647.971 234.55 648.546 234.748 648.834 234.389C651.466 231.107 655.38 225.597 657.251 220.973C657.32 220.802 657.475 220.683 657.658 220.659C662.573 220.024 667.547 218.468 672.291 215.926Z" fill="url(#paint1_linear_34_615)"/>
<path d="M664.757 173.235C665.439 174.508 665.87 175.74 666.049 176.933C666.228 178.125 666.212 179.324 666.001 180.529C665.79 181.734 665.239 183.318 664.347 185.281L663.203 187.826C662.507 189.335 662.139 190.734 662.098 192.022C662.079 192.502 662.106 192.973 662.18 193.437C662.387 194.734 661.996 196.171 660.839 196.791C659.648 197.43 658.123 196.967 657.758 195.665C657.657 195.304 657.579 194.95 657.525 194.604C657.377 193.548 657.373 192.545 657.512 191.597C657.652 190.649 657.898 189.742 658.249 188.876C658.591 187.994 658.96 187.142 659.355 186.318C659.74 185.478 660.114 184.656 660.477 183.85C660.846 183.019 661.116 182.175 661.284 181.321C661.453 180.466 661.484 179.587 661.376 178.684C661.284 177.772 660.97 176.815 660.434 175.814C659.397 173.88 657.946 172.693 656.079 172.252C654.229 171.802 652.167 172.186 649.894 173.404C647.621 174.623 646.137 176.182 645.443 178.083C645 179.295 644.877 180.565 645.074 181.894C645.273 183.233 644.749 184.662 643.515 185.219C642.192 185.816 640.614 185.18 640.298 183.764C639.718 181.17 639.863 178.764 640.731 176.546C641.878 173.617 644.189 171.221 647.664 169.359C651.284 167.418 654.615 166.791 657.657 167.475C660.69 168.143 663.057 170.063 664.757 173.235ZM665.985 206.383C664.674 207.086 663.041 206.593 662.338 205.281L662.142 204.915C661.439 203.604 661.933 201.971 663.244 201.268C664.555 200.565 666.188 201.059 666.891 202.37L667.087 202.736C667.79 204.047 667.297 205.68 665.985 206.383Z" fill="url(#paint2_linear_34_615)"/>
<circle cx="601.066" cy="152.886" r="39.8614" fill="url(#paint3_linear_34_615)"/>
<circle cx="601.066" cy="152.885" r="32.1958" fill="white"/>
<circle cx="603.714" cy="168.188" r="6.13253" transform="rotate(-12 603.714 168.188)" fill="#2E52B2"/>
<path fill-rule="evenodd" clip-rule="evenodd" d="M602.03 138.032C601.725 137.982 601.524 137.68 601.57 137.375C601.649 136.845 601.637 136.293 601.519 135.738C600.991 133.253 598.549 131.667 596.064 132.195C593.579 132.723 591.993 135.166 592.521 137.65C592.639 138.205 592.852 138.715 593.14 139.166C593.306 139.426 593.245 139.784 592.987 139.953C588.974 142.589 586.778 147.503 587.836 152.483L590.656 165.749C590.714 166.019 590.541 166.285 590.271 166.342L586.718 167.098C585.638 167.327 584.948 168.389 585.178 169.47L585.621 171.556C585.851 172.636 586.913 173.326 587.993 173.096L592.035 172.237C592.035 172.237 592.035 172.237 592.035 172.237C592.035 172.237 592.035 172.237 592.035 172.237L616.029 167.137C616.029 167.137 616.029 167.137 616.029 167.137C616.029 167.137 616.029 167.137 616.029 167.137L620.072 166.278C621.152 166.048 621.842 164.986 621.612 163.905L621.169 161.82C620.939 160.739 619.877 160.049 618.797 160.279L615.243 161.034C614.973 161.092 614.708 160.919 614.65 160.649L611.83 147.383C610.772 142.404 606.768 138.808 602.03 138.032Z" fill="#4A78EC"/>
<path fill-rule="evenodd" clip-rule="evenodd" d="M433.897 47.8497C434 47.7069 434.022 47.5209 433.954 47.3587L428.286 33.9341C428.122 33.5465 428.481 33.1425 428.885 33.2592L445.16 37.9609C445.282 37.9962 445.413 37.9835 445.527 37.9265C449.843 35.757 454.718 34.5356 459.878 34.5356H506.949C524.622 34.5356 538.949 48.8625 538.949 66.5356V81.5192C538.949 99.1924 524.622 113.519 506.949 113.519H459.878C442.205 113.519 427.878 99.1923 427.878 81.5192V66.5356C427.878 59.5608 430.11 53.1072 433.897 47.8497Z" fill="url(#paint4_linear_34_615)"/>
<circle cx="458.731" cy="74.0284" r="13.5753" fill="#F5F4FC"/>
<mask id="mask1_34_615" style="mask-type:alpha" maskUnits="userSpaceOnUse" x="445" y="60" width="28" height="28">
<circle cx="458.731" cy="74.0284" r="13.5753" fill="white"/>
</mask>
<g mask="url(#mask1_34_615)">
<path fill-rule="evenodd" clip-rule="evenodd" d="M458.731 75.2628C461.457 75.2628 463.667 73.0527 463.667 70.3264C463.667 67.6 461.457 65.3899 458.731 65.3899C456.005 65.3899 453.795 67.6 453.795 70.3264C453.795 73.0527 456.005 75.2628 458.731 75.2628ZM458.731 93.7739C463.502 93.7739 467.37 89.9062 467.37 85.1351C467.37 80.364 463.502 76.4962 458.731 76.4962C453.96 76.4962 450.092 80.364 450.092 85.1351C450.092 89.9062 453.96 93.7739 458.731 93.7739Z" fill="#45ABE6"/>
</g>
<rect x="482.179" y="66.6245" width="39.4918" height="4.93647" rx="2" fill="#45ABE6"/>
<rect x="482.179" y="76.4966" width="29.6188" height="4.93647" rx="2" fill="#45ABE6"/>
<circle cx="412" cy="103" r="15" fill="url(#paint5_linear_34_615)"/>
<circle cx="404.5" cy="102.5" r="2.5" fill="white"/>
<circle cx="412.5" cy="102.5" r="2.5" fill="white"/>
<circle cx="420.5" cy="102.5" r="2.5" fill="white"/>
<circle cx="489" cy="212" r="18" fill="url(#paint6_linear_34_615)"/>
<mask id="mask2_34_615" style="mask-type:alpha" maskUnits="userSpaceOnUse" x="471" y="194" width="36" height="36">
<circle cx="489" cy="212" r="18" fill="white"/>
</mask>
<g mask="url(#mask2_34_615)">
<path fill-rule="evenodd" clip-rule="evenodd" d="M489 213.636C492.615 213.636 495.545 210.706 495.545 207.091C495.545 203.476 492.615 200.545 489 200.545C485.385 200.545 482.454 203.476 482.454 207.091C482.454 210.706 485.385 213.636 489 213.636ZM489 238.182C495.326 238.182 500.455 233.053 500.455 226.727C500.455 220.401 495.326 215.273 489 215.273C482.674 215.273 477.545 220.401 477.545 226.727C477.545 233.053 482.674 238.182 489 238.182Z" fill="url(#paint7_linear_34_615)"/>
</g>
<defs>
<linearGradient id="paint0_linear_34_615" x1="750" y1="147" x2="-1.48803e-05" y2="147" gradientUnits="userSpaceOnUse">
<stop stop-color="#D9E5FF"/>
<stop offset="1" stop-color="#EEDFFF"/>
</linearGradient>
<linearGradient id="paint1_linear_34_615" x1="667.55" y1="160.363" x2="650.808" y2="213.753" gradientUnits="userSpaceOnUse">
<stop stop-color="#FFF276"/>
<stop offset="1" stop-color="#FCB132"/>
</linearGradient>
<linearGradient id="paint2_linear_34_615" x1="643.2" y1="171.751" x2="667.209" y2="205.676" gradientUnits="userSpaceOnUse">
<stop stop-color="white"/>
<stop offset="1" stop-color="#FEECC8"/>
</linearGradient>
<linearGradient id="paint3_linear_34_615" x1="586.501" y1="181.249" x2="634.028" y2="135.255" gradientUnits="userSpaceOnUse">
<stop stop-color="#4471E6"/>
<stop offset="1" stop-color="#83A6F8"/>
</linearGradient>
<linearGradient id="paint4_linear_34_615" x1="526.608" y1="49.9124" x2="463.011" y2="101.737" gradientUnits="userSpaceOnUse">
<stop stop-color="#77E4FF"/>
<stop offset="1" stop-color="#47BDFD"/>
</linearGradient>
<linearGradient id="paint5_linear_34_615" x1="423.5" y1="118" x2="407.5" y2="95.5" gradientUnits="userSpaceOnUse">
<stop stop-color="#C5C5FF"/>
<stop offset="1" stop-color="#605ED5"/>
</linearGradient>
<linearGradient id="paint6_linear_34_615" x1="501" y1="200" x2="483.5" y2="225" gradientUnits="userSpaceOnUse">
<stop stop-color="#BB73FE"/>
<stop offset="1" stop-color="#9148EE"/>
</linearGradient>
<linearGradient id="paint7_linear_34_615" x1="500.455" y1="200.545" x2="489" y2="226.727" gradientUnits="userSpaceOnUse">
<stop stop-color="#FFF277"/>
<stop offset="1" stop-color="#FAAC3A"/>
</linearGradient>
</defs>
</svg>
