<svg width="229" height="310" viewBox="0 0 229 310" fill="none" xmlns="http://www.w3.org/2000/svg">
<g filter="url(#filter0_d_98_4102)">
<g clip-path="url(#clip0_98_4102)">
<rect x="8" y="6" width="213" height="294" rx="12" fill="url(#paint0_linear_98_4102)"/>
<path opacity="0.6" fill-rule="evenodd" clip-rule="evenodd" d="M210 57C228.225 57 243 42.2254 243 24C243 5.7746 228.225 -9 210 -9C191.775 -9 177 5.7746 177 24C177 42.2254 191.775 57 210 57ZM210 45C221.598 45 231 35.598 231 24C231 12.402 221.598 3 210 3C198.402 3 189 12.402 189 24C189 35.598 198.402 45 210 45Z" fill="url(#paint1_linear_98_4102)"/>
</g>
</g>
<defs>
<filter id="filter0_d_98_4102" x="0" y="-3.8147e-06" width="229" height="310" filterUnits="userSpaceOnUse" color-interpolation-filters="sRGB">
<feFlood flood-opacity="0" result="BackgroundImageFix"/>
<feColorMatrix in="SourceAlpha" type="matrix" values="0 0 0 0 0 0 0 0 0 0 0 0 0 0 0 0 0 0 127 0" result="hardAlpha"/>
<feOffset dy="2"/>
<feGaussianBlur stdDeviation="4"/>
<feComposite in2="hardAlpha" operator="out"/>
<feColorMatrix type="matrix" values="0 0 0 0 0 0 0 0 0 0 0 0 0 0 0 0 0 0 0.04 0"/>
<feBlend mode="normal" in2="BackgroundImageFix" result="effect1_dropShadow_98_4102"/>
<feBlend mode="normal" in="SourceGraphic" in2="effect1_dropShadow_98_4102" result="shape"/>
</filter>
<linearGradient id="paint0_linear_98_4102" x1="221" y1="153" x2="8" y2="153" gradientUnits="userSpaceOnUse">
<stop stop-color="#FFF0A2"/>
<stop offset="1" stop-color="#FFAE64"/>
</linearGradient>
<linearGradient id="paint1_linear_98_4102" x1="243" y1="24" x2="177" y2="24" gradientUnits="userSpaceOnUse">
<stop stop-color="#FFF0A2"/>
<stop offset="1" stop-color="#FFAE64"/>
</linearGradient>
<clipPath id="clip0_98_4102">
<rect x="8" y="6" width="213" height="294" rx="12" fill="white"/>
</clipPath>
</defs>
</svg>
