<svg width="300" height="117" viewBox="0 0 300 117" fill="none" xmlns="http://www.w3.org/2000/svg">
<mask id="mask0_92_3079" style="mask-type:alpha" maskUnits="userSpaceOnUse" x="0" y="0" width="300" height="117">
<rect width="300" height="117" rx="8" fill="white"/>
</mask>
<g mask="url(#mask0_92_3079)">
<rect x="-4" width="307.569" height="117" rx="8" fill="url(#paint0_linear_92_3079)"/>
<ellipse cx="28.9992" cy="68.25" rx="9.8" ry="9.75" fill="#E4D6FF"/>
<ellipse cx="47.8" cy="3.38281" rx="9.8" ry="9.75" fill="#E4D6FF"/>
<ellipse cx="262.199" cy="97.3008" rx="9.8" ry="9.75" fill="#90AAFF" fill-opacity="0.24"/>
<path fill-rule="evenodd" clip-rule="evenodd" d="M9.39961 126.949C20.3348 126.949 29.1996 118.129 29.1996 107.25C29.1996 96.3703 20.3348 87.5508 9.39961 87.5508C-1.53563 87.5508 -10.4004 96.3703 -10.4004 107.25C-10.4004 118.129 -1.53563 126.949 9.39961 126.949ZM9.3998 119.786C16.3586 119.786 21.9998 114.173 21.9998 107.25C21.9998 100.327 16.3586 94.7144 9.3998 94.7144C2.44102 94.7144 -3.2002 100.327 -3.2002 107.25C-3.2002 114.173 2.44102 119.786 9.3998 119.786Z" fill="#E4D6FF" fill-opacity="0.88"/>
<path fill-rule="evenodd" clip-rule="evenodd" d="M296.399 53.7248C303.689 53.7248 309.599 47.8451 309.599 40.5921C309.599 33.3392 303.689 27.4595 296.399 27.4595C289.109 27.4595 283.199 33.3392 283.199 40.5921C283.199 47.8451 289.109 53.7248 296.399 53.7248ZM296.399 48.9491C301.038 48.9491 304.799 45.2075 304.799 40.592C304.799 35.9765 301.038 32.2349 296.399 32.2349C291.76 32.2349 287.999 35.9765 287.999 40.592C287.999 45.2075 291.76 48.9491 296.399 48.9491Z" fill="#CBD9FE"/>
<path d="M272.9 63.6962C279.803 54.1613 290.1 34.1381 276.064 30.3242C258.519 25.5568 258.231 39.859 254.204 53.6004C250.178 67.3419 257.943 85.0095 240.111 85.5704C226.516 85.998 229.08 67.6141 232.421 57.0656C232.74 56.0576 233.027 55.0444 233.147 53.9939C233.667 49.415 233.315 42.3403 228.605 41.5418" stroke="#BCCCF8" stroke-width="2" stroke-linecap="round" stroke-dasharray="6 6"/>
<path fill-rule="evenodd" clip-rule="evenodd" d="M280.041 77.0261C285.151 74.3692 287.334 68.6699 284.918 64.2962C282.502 59.9225 276.402 58.5307 271.292 61.1875C266.182 63.8444 263.999 69.5437 266.415 73.9174C267.587 76.0391 269.626 77.459 271.998 78.0555C272.148 78.0933 272.277 78.1918 272.34 78.3305C272.66 79.0265 272.951 79.916 273.109 80.9912C273.176 81.4423 273.764 81.6333 274.036 81.2681C274.627 80.4735 275.282 79.4825 275.684 78.5843C275.759 78.4178 275.916 78.3 276.1 78.2756C277.427 78.1005 278.765 77.6895 280.041 77.0261Z" fill="url(#paint1_linear_92_3079)"/>
<path d="M277.855 65.3461C278.047 65.6943 278.169 66.0312 278.221 66.3568C278.273 66.6824 278.271 67.0094 278.214 67.3379C278.157 67.6663 278.006 68.0976 277.76 68.6317L277.446 69.3244C277.254 69.7349 277.154 70.1159 277.144 70.4673C277.14 70.5976 277.148 70.7259 277.17 70.8522C277.229 71.2069 277.123 71.5991 276.801 71.7665C276.47 71.9388 276.044 71.8094 275.94 71.4528C275.912 71.3546 275.889 71.2585 275.874 71.1644C275.831 70.876 275.828 70.6026 275.865 70.3441C275.903 70.0855 275.97 69.8385 276.066 69.603C276.16 69.3629 276.262 69.1308 276.37 68.9069C276.476 68.6783 276.579 68.4544 276.679 68.2352C276.781 68.0089 276.854 67.7794 276.9 67.5464C276.946 67.3134 276.953 67.0737 276.921 66.8271C276.894 66.5782 276.805 66.3168 276.654 66.0429C276.362 65.5136 275.955 65.1873 275.434 65.064C274.918 64.9383 274.344 65.0399 273.712 65.3686C273.08 65.6974 272.669 66.1205 272.478 66.6381C272.357 66.9675 272.325 67.3134 272.382 67.676C272.439 68.0423 272.296 68.4318 271.953 68.5817C271.585 68.7425 271.143 68.5658 271.053 68.178C270.888 67.4701 270.924 66.8145 271.163 66.2112C271.477 65.4138 272.118 64.7638 273.083 64.2613C274.09 63.7377 275.017 63.5717 275.866 63.7633C276.713 63.9502 277.376 64.4778 277.855 65.3461ZM278.252 74.3915C277.887 74.5812 277.431 74.4433 277.232 74.0836L277.179 73.9864C276.98 73.6266 277.115 73.1813 277.479 72.9916C277.844 72.802 278.3 72.9398 278.498 73.2995L278.552 73.3968C278.751 73.7565 278.616 74.2018 278.252 74.3915Z" fill="url(#paint2_linear_92_3079)"/>
<ellipse cx="260.072" cy="59.787" rx="11.1483" ry="10.8696" fill="url(#paint3_linear_92_3079)"/>
<ellipse cx="260.072" cy="59.7871" rx="9.00438" ry="8.77927" fill="white"/>
<ellipse cx="1.7052" cy="1.68196" rx="1.7052" ry="1.68196" transform="matrix(0.97982 -0.200034 0.216085 0.976408 258.775 62.6582)" fill="#2E52B2"/>
<path fill-rule="evenodd" clip-rule="evenodd" d="M260.731 55.8559C260.441 55.7616 260.249 55.4554 260.192 55.1573C260.19 55.1446 260.187 55.1318 260.184 55.1191C260.032 54.4372 259.349 53.9977 258.659 54.1374C257.968 54.2771 257.532 54.9431 257.684 55.625C257.686 55.6309 257.687 55.6368 257.689 55.6426C257.759 55.939 257.708 56.2938 257.479 56.4909C256.583 57.2604 256.134 58.4848 256.414 59.7306L257.123 62.8937C257.184 63.1638 257.013 63.4282 256.741 63.4834L256.35 63.563C255.885 63.6576 255.592 64.1097 255.695 64.5727C255.798 65.0358 256.258 65.3346 256.723 65.24L257.607 65.0601C257.608 65.0598 257.609 65.0607 257.61 65.0621C257.61 65.0634 257.611 65.0643 257.613 65.064L264.245 63.7286C264.25 63.7276 264.253 63.7226 264.252 63.7176C264.251 63.7125 264.254 63.7076 264.259 63.7066L265.089 63.5377C265.554 63.4432 265.848 62.9911 265.745 62.528C265.642 62.0649 265.182 61.7662 264.717 61.8607L264.362 61.9329C264.092 61.9878 263.825 61.8148 263.765 61.546L263.057 58.3928C262.781 57.1609 261.863 56.2226 260.731 55.8559Z" fill="#4A78EC"/>
<path fill-rule="evenodd" clip-rule="evenodd" d="M213.552 32.1434C213.653 31.9974 213.676 31.8094 213.605 31.6462L212.049 28.053C211.881 27.6665 212.238 27.2588 212.643 27.373L217.247 28.6699C217.37 28.7044 217.501 28.6905 217.615 28.6339C219.056 27.9177 220.681 27.515 222.4 27.515H231.926C237.873 27.515 242.695 32.3363 242.695 38.2838C242.695 44.2312 237.873 49.0525 231.926 49.0525H222.4C216.452 49.0525 211.631 44.2312 211.631 38.2838C211.631 36.0016 212.341 33.8852 213.552 32.1434Z" fill="url(#paint4_linear_92_3079)"/>
<ellipse cx="220.259" cy="38.2833" rx="3.79668" ry="3.70177" fill="#F5F4FC"/>
<mask id="mask1_92_3079" style="mask-type:alpha" maskUnits="userSpaceOnUse" x="216" y="34" width="9" height="8">
<ellipse cx="220.259" cy="38.2833" rx="3.79668" ry="3.70177" fill="white"/>
</mask>
<g mask="url(#mask1_92_3079)">
<path fill-rule="evenodd" clip-rule="evenodd" d="M220.26 38.6204C221.022 38.6204 221.64 38.0177 221.64 37.2743C221.64 36.5309 221.022 35.9282 220.26 35.9282C219.497 35.9282 218.879 36.5309 218.879 37.2743C218.879 38.0177 219.497 38.6204 220.26 38.6204ZM220.26 43.6675C221.594 43.6675 222.676 42.6128 222.676 41.3118C222.676 40.0108 221.594 38.9562 220.26 38.9562C218.925 38.9562 217.844 40.0108 217.844 41.3118C217.844 42.6128 218.925 43.6675 220.26 43.6675Z" fill="#45ABE6"/>
</g>
<rect x="226.821" y="36.2651" width="11.0449" height="1.3461" rx="0.673048" fill="#45ABE6"/>
<rect x="226.821" y="38.957" width="8.28367" height="1.3461" rx="0.673048" fill="#45ABE6"/>
<ellipse cx="207.195" cy="46.184" rx="4.19514" ry="4.09026" fill="url(#paint5_linear_92_3079)"/>
<ellipse cx="205.094" cy="46.0474" rx="0.699189" ry="0.68171" fill="white"/>
<ellipse cx="207.333" cy="46.0474" rx="0.699189" ry="0.68171" fill="white"/>
<ellipse cx="209.57" cy="46.0474" rx="0.699189" ry="0.68171" fill="white"/>
<ellipse cx="228.729" cy="75.9068" rx="5.03416" ry="4.90831" fill="url(#paint6_linear_92_3079)"/>
<mask id="mask2_92_3079" style="mask-type:alpha" maskUnits="userSpaceOnUse" x="223" y="70" width="11" height="11">
<ellipse cx="228.729" cy="75.9068" rx="5.03416" ry="4.90831" fill="white"/>
</mask>
<g mask="url(#mask2_92_3079)">
<path fill-rule="evenodd" clip-rule="evenodd" d="M228.728 76.3534C229.739 76.3534 230.559 75.5543 230.559 74.5685C230.559 73.5828 229.739 72.7837 228.728 72.7837C227.717 72.7837 226.897 73.5828 226.897 74.5685C226.897 75.5543 227.717 76.3534 228.728 76.3534ZM228.729 83.0465C230.498 83.0465 231.933 81.6481 231.933 79.923C231.933 78.198 230.498 76.7995 228.729 76.7995C226.96 76.7995 225.525 78.198 225.525 79.923C225.525 81.6481 226.96 83.0465 228.729 83.0465Z" fill="url(#paint7_linear_92_3079)"/>
</g>
</g>
<defs>
<linearGradient id="paint0_linear_92_3079" x1="303.569" y1="58.5" x2="-4.00001" y2="58.5" gradientUnits="userSpaceOnUse">
<stop stop-color="#D9E5FF"/>
<stop offset="1" stop-color="#EEDFFF"/>
</linearGradient>
<linearGradient id="paint1_linear_92_3079" x1="278.572" y1="61.7529" x2="274.206" y2="76.2214" gradientUnits="userSpaceOnUse">
<stop stop-color="#FFF276"/>
<stop offset="1" stop-color="#FCB132"/>
</linearGradient>
<linearGradient id="paint2_linear_92_3079" x1="271.843" y1="64.9068" x2="278.362" y2="74.3587" gradientUnits="userSpaceOnUse">
<stop stop-color="white"/>
<stop offset="1" stop-color="#FEECC8"/>
</linearGradient>
<linearGradient id="paint3_linear_92_3079" x1="255.999" y1="67.5212" x2="268.965" y2="54.6512" gradientUnits="userSpaceOnUse">
<stop stop-color="#4471E6"/>
<stop offset="1" stop-color="#83A6F8"/>
</linearGradient>
<linearGradient id="paint4_linear_92_3079" x1="239.243" y1="31.8602" x2="221.944" y2="46.4464" gradientUnits="userSpaceOnUse">
<stop stop-color="#77E4FF"/>
<stop offset="1" stop-color="#47BDFD"/>
</linearGradient>
<linearGradient id="paint5_linear_92_3079" x1="210.411" y1="50.2743" x2="206.086" y2="44.0354" gradientUnits="userSpaceOnUse">
<stop stop-color="#C5C5FF"/>
<stop offset="1" stop-color="#605ED5"/>
</linearGradient>
<linearGradient id="paint6_linear_92_3079" x1="232.086" y1="72.6346" x2="227.356" y2="79.5643" gradientUnits="userSpaceOnUse">
<stop stop-color="#BB73FE"/>
<stop offset="1" stop-color="#9148EE"/>
</linearGradient>
<linearGradient id="paint7_linear_92_3079" x1="231.933" y1="72.7837" x2="228.863" y2="79.98" gradientUnits="userSpaceOnUse">
<stop stop-color="#FFF277"/>
<stop offset="1" stop-color="#FAAC3A"/>
</linearGradient>
</defs>
</svg>
