<svg width="229" height="310" viewBox="0 0 229 310" fill="none" xmlns="http://www.w3.org/2000/svg">
<g filter="url(#filter0_d_253_8133)">
<g clip-path="url(#clip0_253_8133)">
<rect x="8" y="6" width="213" height="294" rx="12" fill="url(#paint0_linear_253_8133)"/>
<path fill-rule="evenodd" clip-rule="evenodd" d="M210 57C228.225 57 243 42.2254 243 24C243 5.7746 228.225 -9 210 -9C191.775 -9 177 5.7746 177 24C177 42.2254 191.775 57 210 57ZM210 45C221.598 45 231 35.598 231 24C231 12.402 221.598 3 210 3C198.402 3 189 12.402 189 24C189 35.598 198.402 45 210 45Z" fill="#DADAFF"/>
<path fill-rule="evenodd" clip-rule="evenodd" d="M13 325C31.2254 325 46 310.225 46 292C46 273.775 31.2254 259 13 259C-5.2254 259 -20 273.775 -20 292C-20 310.225 -5.2254 325 13 325ZM12.9997 313C24.5977 313 33.9997 303.598 33.9997 292C33.9997 280.402 24.5977 271 12.9997 271C1.40175 271 -8.00027 280.402 -8.00027 292C-8.00027 303.598 1.40175 313 12.9997 313Z" fill="#DADAFF"/>
</g>
</g>
<defs>
<filter id="filter0_d_253_8133" x="0" y="0" width="229" height="310" filterUnits="userSpaceOnUse" color-interpolation-filters="sRGB">
<feFlood flood-opacity="0" result="BackgroundImageFix"/>
<feColorMatrix in="SourceAlpha" type="matrix" values="0 0 0 0 0 0 0 0 0 0 0 0 0 0 0 0 0 0 127 0" result="hardAlpha"/>
<feOffset dy="2"/>
<feGaussianBlur stdDeviation="4"/>
<feComposite in2="hardAlpha" operator="out"/>
<feColorMatrix type="matrix" values="0 0 0 0 0 0 0 0 0 0 0 0 0 0 0 0 0 0 0.04 0"/>
<feBlend mode="normal" in2="BackgroundImageFix" result="effect1_dropShadow_253_8133"/>
<feBlend mode="normal" in="SourceGraphic" in2="effect1_dropShadow_253_8133" result="shape"/>
</filter>
<linearGradient id="paint0_linear_253_8133" x1="114.5" y1="6.00001" x2="114.5" y2="300" gradientUnits="userSpaceOnUse">
<stop stop-color="#EAE8FF"/>
<stop offset="1" stop-color="#F1E4FF"/>
</linearGradient>
<clipPath id="clip0_253_8133">
<rect x="8" y="6" width="213" height="294" rx="12" fill="white"/>
</clipPath>
</defs>
</svg>
