<svg width="87" height="60" viewBox="0 0 87 60" fill="none" xmlns="http://www.w3.org/2000/svg">
<path d="M69.9001 36.6962C76.8032 27.1613 87.1003 7.13813 73.064 3.32419C55.5187 -1.44324 55.2311 12.859 51.2043 26.6004C47.1776 40.3419 54.9435 58.0095 37.1106 58.5704C23.5155 58.998 26.0799 40.6141 29.4211 30.0656C29.7404 29.0576 30.0273 28.0444 30.1466 26.9939C30.6666 22.415 30.3146 15.3403 25.6055 14.5418" stroke="#BCCCF8" stroke-width="2" stroke-linecap="round" stroke-dasharray="6 6"/>
<path fill-rule="evenodd" clip-rule="evenodd" d="M77.0409 50.0261C82.1506 47.3692 84.3343 41.6699 81.9184 37.2962C79.5025 32.9225 73.4018 31.5307 68.2921 34.1875C63.1824 36.8444 60.9987 42.5437 63.4146 46.9174C64.5865 49.0391 66.6256 50.459 68.9979 51.0555C69.1481 51.0933 69.2767 51.1918 69.3404 51.3305C69.6597 52.0265 69.9507 52.916 70.1092 53.9912C70.1757 54.4423 70.7642 54.6333 71.0359 54.2681C71.6271 53.4735 72.2819 52.4825 72.6845 51.5843C72.7591 51.4178 72.9159 51.3 73.1005 51.2756C74.4272 51.1005 75.765 50.6895 77.0409 50.0261Z" fill="url(#paint0_linear_92_3095)"/>
<path d="M74.8551 38.3461C75.0473 38.6943 75.1694 39.0312 75.2213 39.3568C75.2732 39.6824 75.2707 40.0094 75.2139 40.3379C75.157 40.6663 75.0059 41.0976 74.7605 41.6317L74.4458 42.3244C74.2542 42.7349 74.1537 43.1159 74.1444 43.4673C74.14 43.5976 74.1483 43.7259 74.1695 43.8522C74.229 44.2069 74.123 44.5991 73.8014 44.7665C73.4703 44.9388 73.044 44.8094 72.9402 44.4528C72.9116 44.3546 72.8895 44.2585 72.8738 44.1644C72.8308 43.876 72.828 43.6026 72.8654 43.3441C72.9028 43.0855 72.9697 42.8385 73.0663 42.603C73.1602 42.3629 73.2616 42.1308 73.3703 41.9069C73.4765 41.6783 73.5794 41.4544 73.6792 41.2352C73.7808 41.0089 73.8545 40.7794 73.9002 40.5464C73.9458 40.3134 73.9529 40.0737 73.9214 39.8271C73.8944 39.5782 73.8053 39.3168 73.6541 39.0429C73.3619 38.5136 72.9553 38.1873 72.4343 38.064C71.9177 37.9383 71.3436 38.0399 70.7119 38.3686C70.0802 38.6974 69.669 39.1205 69.4784 39.6381C69.3571 39.9675 69.3249 40.3134 69.3818 40.676C69.4394 41.0423 69.2959 41.4318 68.9529 41.5817C68.5851 41.7425 68.1434 41.5658 68.0529 41.178C67.8877 40.4701 67.9242 39.8145 68.1625 39.2112C68.4775 38.4138 69.1177 37.7638 70.0833 37.2613C71.0895 36.7377 72.0172 36.5717 72.8664 36.7633C73.713 36.9502 74.3759 37.4778 74.8551 38.3461ZM75.2517 47.3915C74.8872 47.5812 74.4308 47.4433 74.2323 47.0836L74.1786 46.9864C73.9801 46.6266 74.1146 46.1813 74.4791 45.9916C74.8435 45.802 75.2999 45.9398 75.4984 46.2995L75.5521 46.3968C75.7506 46.7565 75.6161 47.2018 75.2517 47.3915Z" fill="url(#paint1_linear_92_3095)"/>
<ellipse cx="57.0721" cy="32.787" rx="11.1483" ry="10.8696" fill="url(#paint2_linear_92_3095)"/>
<ellipse cx="57.0718" cy="32.7871" rx="9.00438" ry="8.77927" fill="white"/>
<ellipse cx="1.7052" cy="1.68196" rx="1.7052" ry="1.68196" transform="matrix(0.97982 -0.200034 0.216085 0.976408 55.7754 35.6582)" fill="#2E52B2"/>
<path fill-rule="evenodd" clip-rule="evenodd" d="M57.7315 28.8559C57.4406 28.7616 57.2494 28.4554 57.1924 28.1573C57.1899 28.1446 57.1873 28.1318 57.1844 28.1191C57.0322 27.4372 56.3491 26.9977 55.6588 27.1374C54.9684 27.2771 54.5322 27.9431 54.6844 28.625C54.6858 28.6309 54.6871 28.6368 54.6885 28.6426C54.7591 28.939 54.7083 29.2938 54.4789 29.4909C53.5828 30.2604 53.134 31.4848 53.4135 32.7306L54.1232 35.8937C54.1838 36.1638 54.0127 36.4282 53.7414 36.4834L53.3502 36.563C52.8853 36.6576 52.5919 37.1097 52.6947 37.5727C52.7975 38.0358 53.2577 38.3346 53.7226 38.24L54.6068 38.0601C54.6081 38.0598 54.6095 38.0607 54.6098 38.0621C54.6101 38.0634 54.6114 38.0643 54.6128 38.064L61.2451 36.7286C61.2501 36.7276 61.2533 36.7226 61.2522 36.7176C61.2511 36.7125 61.2543 36.7076 61.2593 36.7066L62.0893 36.5377C62.5541 36.4432 62.8476 35.9911 62.7447 35.528C62.6419 35.0649 62.1817 34.7662 61.7169 34.8607L61.3623 34.9329C61.0923 34.9878 60.8253 34.8148 60.765 34.546L60.0574 31.3928C59.781 30.1609 58.863 29.2226 57.7315 28.8559Z" fill="#4A78EC"/>
<path fill-rule="evenodd" clip-rule="evenodd" d="M10.5519 5.14337C10.6534 4.99735 10.6755 4.80941 10.6048 4.6462L9.0488 1.05301C8.88141 0.666467 9.23773 0.258838 9.64318 0.37304L14.2475 1.66991C14.3699 1.7044 14.5006 1.69046 14.6145 1.63387C16.056 0.917689 17.6808 0.514999 19.3996 0.514999H28.9259C34.8733 0.514999 39.6946 5.33635 39.6946 11.2838C39.6946 17.2312 34.8733 22.0525 28.9259 22.0525H19.3996C13.4522 22.0525 8.63086 17.2312 8.63086 11.2838C8.63086 9.00156 9.3408 6.88516 10.5519 5.14337Z" fill="url(#paint3_linear_92_3095)"/>
<ellipse cx="17.2586" cy="11.2833" rx="3.79668" ry="3.70177" fill="#F5F4FC"/>
<mask id="mask0_92_3095" style="mask-type:alpha" maskUnits="userSpaceOnUse" x="13" y="7" width="9" height="8">
<ellipse cx="17.2586" cy="11.2833" rx="3.79668" ry="3.70177" fill="white"/>
</mask>
<g mask="url(#mask0_92_3095)">
<path fill-rule="evenodd" clip-rule="evenodd" d="M17.2597 11.6204C18.0222 11.6204 18.6403 11.0177 18.6403 10.2743C18.6403 9.53089 18.0222 8.92822 17.2597 8.92822C16.4972 8.92822 15.879 9.53089 15.879 10.2743C15.879 11.0177 16.4972 11.6204 17.2597 11.6204ZM17.2598 16.6675C18.5942 16.6675 19.6759 15.6128 19.6759 14.3118C19.6759 13.0108 18.5942 11.9562 17.2598 11.9562C15.9255 11.9562 14.8438 13.0108 14.8438 14.3118C14.8438 15.6128 15.9255 16.6675 17.2598 16.6675Z" fill="#45ABE6"/>
</g>
<rect x="23.8213" y="9.26514" width="11.0449" height="1.3461" rx="0.673048" fill="#45ABE6"/>
<rect x="23.8213" y="11.957" width="8.28367" height="1.3461" rx="0.673048" fill="#45ABE6"/>
<ellipse cx="4.19514" cy="19.184" rx="4.19514" ry="4.09026" fill="url(#paint4_linear_92_3095)"/>
<ellipse cx="2.09372" cy="19.0474" rx="0.699189" ry="0.68171" fill="white"/>
<ellipse cx="4.33298" cy="19.0474" rx="0.699189" ry="0.68171" fill="white"/>
<ellipse cx="6.57028" cy="19.0474" rx="0.699189" ry="0.68171" fill="white"/>
<ellipse cx="25.7295" cy="48.9068" rx="5.03416" ry="4.90831" fill="url(#paint5_linear_92_3095)"/>
<mask id="mask1_92_3095" style="mask-type:alpha" maskUnits="userSpaceOnUse" x="20" y="43" width="11" height="11">
<ellipse cx="25.7295" cy="48.9068" rx="5.03416" ry="4.90831" fill="white"/>
</mask>
<g mask="url(#mask1_92_3095)">
<path fill-rule="evenodd" clip-rule="evenodd" d="M25.7279 49.3534C26.739 49.3534 27.5585 48.5543 27.5585 47.5685C27.5585 46.5828 26.739 45.7837 25.7279 45.7837C24.7169 45.7837 23.8973 46.5828 23.8973 47.5685C23.8973 48.5543 24.7169 49.3534 25.7279 49.3534ZM25.7289 56.0465C27.4982 56.0465 28.9325 54.6481 28.9325 52.923C28.9325 51.198 27.4982 49.7995 25.7289 49.7995C23.9597 49.7995 22.5254 51.198 22.5254 52.923C22.5254 54.6481 23.9597 56.0465 25.7289 56.0465Z" fill="url(#paint6_linear_92_3095)"/>
</g>
<defs>
<linearGradient id="paint0_linear_92_3095" x1="75.5719" y1="34.7529" x2="71.2055" y2="49.2214" gradientUnits="userSpaceOnUse">
<stop stop-color="#FFF276"/>
<stop offset="1" stop-color="#FCB132"/>
</linearGradient>
<linearGradient id="paint1_linear_92_3095" x1="68.843" y1="37.9068" x2="75.3623" y2="47.3587" gradientUnits="userSpaceOnUse">
<stop stop-color="white"/>
<stop offset="1" stop-color="#FEECC8"/>
</linearGradient>
<linearGradient id="paint2_linear_92_3095" x1="52.9987" y1="40.5212" x2="65.9652" y2="27.6512" gradientUnits="userSpaceOnUse">
<stop stop-color="#4471E6"/>
<stop offset="1" stop-color="#83A6F8"/>
</linearGradient>
<linearGradient id="paint3_linear_92_3095" x1="36.2431" y1="4.86024" x2="18.9443" y2="19.4464" gradientUnits="userSpaceOnUse">
<stop stop-color="#77E4FF"/>
<stop offset="1" stop-color="#47BDFD"/>
</linearGradient>
<linearGradient id="paint4_linear_92_3095" x1="7.41141" y1="23.2743" x2="3.08581" y2="17.0354" gradientUnits="userSpaceOnUse">
<stop stop-color="#C5C5FF"/>
<stop offset="1" stop-color="#605ED5"/>
</linearGradient>
<linearGradient id="paint5_linear_92_3095" x1="29.0856" y1="45.6346" x2="24.3561" y2="52.5643" gradientUnits="userSpaceOnUse">
<stop stop-color="#BB73FE"/>
<stop offset="1" stop-color="#9148EE"/>
</linearGradient>
<linearGradient id="paint6_linear_92_3095" x1="28.9325" y1="45.7837" x2="25.8629" y2="52.98" gradientUnits="userSpaceOnUse">
<stop stop-color="#FFF277"/>
<stop offset="1" stop-color="#FAAC3A"/>
</linearGradient>
</defs>
</svg>
