<svg width="1211" height="606" viewBox="0 0 1211 606" fill="none" xmlns="http://www.w3.org/2000/svg">
<g clip-path="url(#clip0_77_10746)">
<path d="M460.953 423.377C460.835 423.377 460.717 423.354 460.6 423.308C460.111 423.113 459.873 422.561 460.068 422.07L482.963 364.6C483.159 364.111 483.71 363.873 484.201 364.068C484.69 364.264 484.928 364.815 484.733 365.306L461.838 422.777C461.688 423.15 461.332 423.377 460.953 423.377Z" fill="#3F3F3F"/>
<path d="M474.607 432.454C474.489 432.454 474.371 432.431 474.253 432.385C473.765 432.19 473.527 431.636 473.722 431.147L483.923 405.543C484.118 405.055 484.67 404.817 485.161 405.012C485.649 405.207 485.888 405.759 485.692 406.25L475.491 431.854C475.342 432.227 474.983 432.454 474.607 432.454Z" fill="#3F3F3F"/>
<path d="M630.262 267.377C649.963 187.08 615.476 165.328 635.946 121.226C667.443 53.3682 805.363 23.4619 895.723 35.6651C1006.4 50.6107 1114.11 132.208 1132.95 255.622C1153.08 387.498 1068.56 510.945 951.291 560.514C906.418 579.481 852.023 588.116 799.38 585.561C792.226 585.214 784.455 582.849 777.395 582.084C771.862 581.485 767.009 582.571 761.564 581.715C745.832 579.245 730.524 575.692 715.968 571.039C709.244 568.889 704.844 562.261 698.471 559.637C691.235 556.656 682.083 557.608 675.392 554.007C655.14 543.11 637.603 529.365 624.103 512.672C617.091 504 579.589 456.246 583.251 393.651C586.284 341.921 614.645 331.027 630.262 267.377Z" fill="#D9E5FF"/>
<path d="M742.824 433.738H1003.51C1007.48 433.738 1011.04 431.356 1012.47 427.749L1136.04 115.44C1137.27 112.325 1136.67 109.096 1134.89 106.674C1133.19 104.346 1128.25 97.4674 1128.25 97.4674L866.404 102.768C862.431 102.768 858.872 105.15 857.448 108.757L729.248 422.584C729.248 422.584 733.308 427.742 735.301 430.198C737.027 432.323 739.7 433.738 742.824 433.738Z" fill="black"/>
<path d="M997.167 425.435H736.483C732.924 425.435 729.626 423.709 727.657 420.815C725.734 417.991 725.35 414.557 726.596 411.394L849.396 99.9618C850.959 96.0009 854.932 93.3372 859.283 93.3372H1119.97C1123.53 93.3372 1126.83 95.0636 1128.8 97.9572C1130.72 100.781 1131.1 104.216 1129.86 107.379L1007.06 418.811C1005.49 422.775 1001.52 425.435 997.167 425.435ZM859.28 95.3448C855.745 95.3448 852.519 97.4976 851.255 100.7L728.459 412.129C727.458 414.665 727.769 417.423 729.311 419.688C730.908 422.031 733.587 423.431 736.483 423.431H997.171C1000.71 423.431 1003.93 421.278 1005.19 418.076L1127.99 106.647C1128.99 104.11 1128.68 101.353 1127.14 99.088C1125.54 96.7447 1122.86 95.3448 1119.97 95.3448H859.28Z" fill="black"/>
<path d="M975.428 406.021H714.741C711.182 406.021 707.883 404.295 705.915 401.401C703.992 398.577 703.608 395.142 704.853 391.98L827.653 80.5504C829.216 76.5895 833.189 73.9258 837.54 73.9258H1098.23C1101.79 73.9258 1105.09 75.6522 1107.05 78.5458C1108.98 81.3698 1109.36 84.8046 1108.11 87.9673L985.315 399.399C983.755 403.36 979.779 406.021 975.428 406.021ZM837.54 75.9304C834.006 75.9304 830.78 78.0832 829.519 81.2852L706.719 392.714C705.718 395.251 706.03 398.009 707.572 400.273C709.168 402.616 711.847 404.016 714.741 404.016H975.428C978.962 404.016 982.189 401.864 983.452 398.662L1106.25 87.2326C1107.25 84.6958 1106.94 81.9383 1105.4 79.6736C1103.8 77.3303 1101.12 75.9304 1098.22 75.9304H837.54Z" fill="black"/>
<path d="M736.142 386.404H965.831C969.329 386.404 972.468 384.306 973.723 381.128L1081.92 106.728C1084.04 101.343 1079.96 95.5624 1074.03 95.5624H844.34C840.842 95.5624 837.704 97.6607 836.449 100.839L728.25 375.241C726.127 380.623 730.212 386.404 736.142 386.404Z" fill="#D9DFEB"/>
<path d="M965.934 386.96H940.436C939.883 386.96 939.435 386.513 939.435 385.959C939.435 385.406 939.883 384.959 940.436 384.959H965.934C969 384.959 971.797 383.093 972.891 380.317L999.731 312.25C999.934 311.736 1000.52 311.483 1001.03 311.685C1001.55 311.888 1001.8 312.471 1001.6 312.985L974.757 381.052C973.363 384.584 969.816 386.96 965.934 386.96Z" fill="black"/>
<path d="M815.308 155.853C815.184 155.853 815.06 155.829 814.939 155.78C814.425 155.575 814.174 154.994 814.377 154.48L832.267 109.441C832.47 108.927 833.053 108.676 833.567 108.878C834.081 109.084 834.332 109.665 834.13 110.179L816.239 155.218C816.082 155.611 815.707 155.853 815.308 155.853Z" fill="black"/>
<path d="M1057.16 170.324C1057.04 170.324 1056.92 170.299 1056.8 170.254C1056.28 170.052 1056.03 169.468 1056.23 168.954L1081.09 105.912C1081.96 103.714 1081.69 101.326 1080.35 99.3632C1078.97 97.3314 1076.64 96.1159 1074.13 96.1159H866.195C865.642 96.1159 865.194 95.6684 865.194 95.1151C865.194 94.5617 865.642 94.1143 866.195 94.1143H1074.13C1077.31 94.1143 1080.25 95.6563 1082.01 98.2354C1083.72 100.757 1084.07 103.823 1082.96 106.647L1058.1 169.689C1057.94 170.082 1057.56 170.324 1057.16 170.324Z" fill="black"/>
<path d="M924.174 240.364L915.821 248.717L917.238 250.135L925.592 241.782L924.174 240.364Z" fill="black"/>
<path d="M917.237 275.513L915.82 276.931L924.173 285.284L925.59 283.866L917.237 275.513Z" fill="black"/>
<path d="M882.083 240.365L880.666 241.783L889.019 250.136L890.437 248.718L882.083 240.365Z" fill="black"/>
<path d="M905.97 271.045L905.127 269.228C907.887 267.946 909.668 265.149 909.668 262.107C909.668 257.781 906.149 254.258 901.819 254.258C899.206 254.258 896.775 255.552 895.312 257.72L893.652 256.598C895.49 253.88 898.544 252.257 901.822 252.257C907.255 252.257 911.673 256.677 911.673 262.107C911.673 265.926 909.432 269.437 905.97 271.045Z" fill="black"/>
<path d="M906.006 150.126C906.496 157.485 909.907 163.796 916.108 167.252C927.519 173.61 944.297 168.059 954.904 154.87C938.072 139.553 915.135 146.434 906.006 150.126Z" fill="#91AAFF"/>
<path d="M945.129 136.786L950.347 129.953C952.322 127.368 952.606 124.105 951.046 121.949C950.595 121.323 948.273 121.03 946.447 120.812C945.153 120.658 944.082 119.969 943.466 118.896L942.637 117.45C941.564 116.456 939.998 116.059 938.365 116.483C937.805 116.628 937.249 116.843 936.708 117.124L936.173 117.402C933.636 118.723 931.825 121.317 931.568 123.99L930.788 133.164L945.129 136.786Z" fill="black"/>
<path d="M931.414 153.452C930.957 153.452 930.503 153.398 930.062 153.28C928.717 152.929 927.646 152.058 927.048 150.831C926.358 149.409 926.373 147.65 927.09 146.002L928.735 142.222C928.955 141.714 929.545 141.482 930.053 141.702C930.561 141.923 930.794 142.513 930.573 143.021L928.928 146.8C928.444 147.913 928.417 149.059 928.85 149.954C929.191 150.658 929.787 151.139 930.567 151.342C932.496 151.843 934.915 150.441 935.855 148.282L938.316 142.628C938.537 142.12 939.127 141.887 939.635 142.108C940.143 142.328 940.375 142.918 940.155 143.426L937.694 149.08C936.542 151.726 933.956 153.452 931.414 153.452Z" fill="black"/>
<path d="M934.866 144.771C934.818 144.771 934.77 144.768 934.721 144.762L931.61 144.309C929.705 144.154 928.735 143.175 928.254 142.377C927.005 140.302 927.61 137.143 928.596 134.878L933.107 124.099C933.267 123.715 933.66 123.47 934.062 123.485L942.58 123.742C945.029 123.515 946.985 124.226 948.098 125.753C949.307 127.413 949.365 129.829 948.252 132.381L946.235 137.019C944.191 141.717 939.728 144.759 934.866 144.771ZM934.691 125.508L930.44 135.664C929.624 137.536 929.167 140.009 929.971 141.339C930.325 141.926 930.924 142.243 931.798 142.31C931.822 142.313 931.843 142.313 931.867 142.319L934.936 142.767C938.973 142.727 942.679 140.163 944.397 136.22L946.417 131.582C947.236 129.699 947.26 128.002 946.48 126.932C945.785 125.977 944.485 125.565 942.713 125.744C942.67 125.747 942.628 125.75 942.583 125.747L934.691 125.508Z" fill="black"/>
<path d="M763.021 393.005C764.708 379.314 763.741 381.412 763.741 381.412L706.338 384.793C706.338 384.793 701.107 420.362 700.781 422.793C700.506 424.843 686.491 497.076 675.404 553.998C687.985 560.768 701.612 566.437 715.974 571.03C726.59 547.201 737.992 518.396 745.992 489.46C752.29 515.024 758.486 551.31 761.567 581.719C773.963 583.666 786.62 584.942 799.383 585.561C807.326 533.571 815.087 450.138 795.358 394.371L763.021 393.005Z" fill="black"/>
<path d="M747.144 499.662C746.664 499.662 746.24 499.317 746.159 498.827C743.982 485.989 738.249 469.51 733.965 460.993C728.876 450.876 728.316 440.52 727.948 433.669C727.917 433.116 728.341 432.644 728.894 432.614C729.438 432.586 729.919 433.007 729.949 433.56C730.309 440.245 730.853 450.347 735.754 460.092C740.105 468.739 745.923 485.469 748.133 498.491C748.227 499.036 747.858 499.556 747.314 499.646C747.256 499.655 747.202 499.662 747.144 499.662Z" fill="#D9E5FF"/>
<path d="M770.834 254.851C770.302 254.851 769.74 254.824 769.141 254.769C765.525 254.449 760.454 253.079 758.035 250.273L757.056 249.284C754.936 247.15 754.395 243.893 755.701 241.187L763.517 225.171C763.544 225.117 763.568 225.059 763.593 225.005C764.134 223.659 764.342 222.19 764.2 220.757C763.378 212.439 762.909 192.459 776.249 186.548C787.576 181.532 797.59 186.001 806.016 199.834L806.277 200.26C807.123 201.636 807.038 204.502 806.836 208.103C806.815 208.505 806.794 208.88 806.778 209.219C806.657 211.898 806.975 214.447 807.725 216.799L807.955 217.513C808.342 218.728 807.964 220.046 806.99 220.872C806.954 220.902 806.918 220.929 806.875 220.956L804.514 222.444C804.148 222.674 803.87 223.018 803.734 223.408C802.071 228.201 799.709 232.349 796.519 236.089C792.743 240.513 789.266 240.933 783.799 237.559C782.756 238.811 780.679 244.341 779.222 249.172C778.708 251.083 777.924 252.601 775.802 253.714C774.323 254.488 772.775 254.851 770.834 254.851ZM784.966 186.581C782.554 186.581 779.923 187.116 777.066 188.38C764.92 193.759 765.419 212.675 766.199 220.557C766.371 222.311 766.114 224.107 765.455 225.752C765.413 225.855 765.37 225.951 765.322 226.051L757.509 242.061C756.572 244.002 756.962 246.339 758.483 247.872L759.49 248.885C759.508 248.903 759.523 248.921 759.541 248.94C761.428 251.153 765.815 252.459 769.322 252.771C771.726 252.982 773.338 252.743 774.88 251.936C776.228 251.231 776.818 250.424 777.302 248.619C778.689 244.014 781.299 236.228 783.264 235.5C783.687 235.343 784.123 235.388 784.495 235.624C789.886 239.068 792.178 238.097 795.002 234.786C798.028 231.24 800.269 227.303 801.847 222.749C802.131 221.93 802.703 221.219 803.452 220.745L805.744 219.299C806.065 218.997 806.186 218.541 806.05 218.117L805.82 217.401C804.998 214.821 804.65 212.037 804.783 209.119C804.798 208.774 804.819 208.39 804.843 207.982C804.955 205.981 805.161 202.252 804.577 201.3L804.311 200.865C801.935 196.976 795.6 186.581 784.966 186.581Z" fill="black"/>
<path d="M796.837 177.738C801.118 179.942 803.044 183.963 805.397 184.592C813.932 186.878 817.981 191.316 815.009 198.555C810.059 210.604 795.074 205.174 791.948 205.204C789.024 205.231 784.186 206.991 781.341 212.853C780.975 213.609 780.141 214.03 779.318 213.9C778.357 213.748 777.67 212.893 777.746 211.916C777.994 208.835 778.118 202.597 775.191 201.724C771.517 200.626 765.73 209.171 770.988 214.964C772.603 216.742 772.57 219.78 770.819 221.489C769.676 222.604 767.242 223.109 765.141 222.06C763.859 221.422 763.148 220.137 762.689 218.783C760.793 213.186 758.335 193.977 764.693 183.703C772.352 171.328 791.137 174.802 796.837 177.738Z" fill="black"/>
<path d="M783.893 237.435C783.709 237.435 783.521 237.384 783.352 237.278C779.4 234.744 776.936 230.922 775.563 228.162C775.318 227.666 775.518 227.064 776.013 226.819C776.506 226.571 777.111 226.774 777.356 227.27C778.614 229.804 780.866 233.305 784.431 235.591C784.897 235.89 785.033 236.51 784.734 236.975C784.546 237.275 784.223 237.435 783.893 237.435Z" fill="black"/>
<path d="M675.767 466.622C675.256 466.622 674.733 466.55 674.219 466.402L594.063 443.223C592.63 442.809 591.445 441.862 590.722 440.553C590.003 439.247 589.833 437.738 590.248 436.305L603.966 388.865C604.821 385.908 607.923 384.193 610.884 385.052L691.039 408.231C692.472 408.645 693.657 409.592 694.38 410.901C695.099 412.207 695.269 413.716 694.854 415.149L681.136 462.589C680.426 465.029 678.188 466.622 675.767 466.622ZM609.329 386.836C607.775 386.836 606.339 387.858 605.889 389.424L592.171 436.864C591.904 437.783 592.013 438.751 592.476 439.588C592.939 440.426 593.697 441.034 594.617 441.3L674.772 464.479C676.668 465.026 678.657 463.931 679.207 462.033L692.925 414.593C693.191 413.673 693.083 412.706 692.62 411.868C692.157 411.031 691.399 410.423 690.479 410.157L610.324 386.981C609.995 386.881 609.659 386.836 609.329 386.836Z" fill="black"/>
<path d="M676.033 423.781C672.773 423.781 669.496 423.322 666.276 422.391L624.849 410.414C615.909 407.829 608.501 401.921 603.993 393.781L603.491 392.871C603.222 392.388 603.397 391.777 603.881 391.511C604.365 391.242 604.975 391.417 605.241 391.901L605.743 392.811C609.995 400.485 616.979 406.051 625.406 408.488L666.832 420.465C675.286 422.908 684.184 421.913 691.888 417.665C692.375 417.399 692.983 417.574 693.249 418.058C693.515 418.542 693.34 419.152 692.856 419.418C687.619 422.312 681.856 423.781 676.033 423.781Z" fill="black"/>
<path d="M651.023 410.345L644.375 408.423L639.889 423.935L646.537 425.858L651.023 410.345Z" fill="black"/>
<path d="M892.488 293.381C892.4 293.381 892.313 293.369 892.225 293.344L879.278 289.816C878.888 289.71 878.601 289.38 878.549 288.981C878.465 288.349 876.566 273.425 884.134 267.958C887.98 265.18 893.601 262.682 900.836 260.538C902.106 260.161 904.31 260.414 904.963 261.857C905.341 262.737 905.378 264.684 902.871 265.866L896.367 268.581C898.024 269.915 901.229 273.558 901.81 275.88C902.656 279.26 901.229 282.478 897.447 285.719C896.721 286.342 896.116 286.847 895.62 287.267C894.571 288.15 893.74 288.845 893.697 289.051C893.607 289.48 893.525 291.267 893.495 292.401C893.486 292.709 893.338 292.997 893.09 293.178C892.911 293.314 892.7 293.381 892.488 293.381ZM880.463 288.065L891.53 291.08C891.569 290.188 891.632 289.105 891.729 288.646C891.914 287.76 892.521 287.252 894.323 285.737C894.816 285.323 895.415 284.821 896.134 284.201C899.282 281.504 900.5 278.943 899.856 276.37C899.463 274.804 896.712 271.39 895.019 270.081C894.487 269.667 894.211 269.023 894.284 268.351C894.357 267.68 894.768 267.109 895.379 266.821L902.049 264.037C903.412 263.393 903.125 262.673 903.122 262.664C902.983 262.477 902.009 262.277 901.399 262.458C894.381 264.539 888.966 266.936 885.301 269.582C879.523 273.761 880.194 285.202 880.463 288.065Z" fill="black"/>
<path d="M656.047 407.59C655.817 407.59 655.575 407.575 655.321 407.548C651.554 407.116 649.673 400.173 649.159 397.918L633.061 393.476C632.632 393.358 632.333 392.971 632.327 392.527C632.284 390.093 632.962 387.728 634.286 385.687L638.208 379.64C638.377 379.38 638.655 379.214 638.967 379.187L651.378 378.156C651.732 378.125 652.071 378.286 652.276 378.573C652.434 378.794 656.134 384.022 657.026 388.799C657.673 392.258 657.764 396.028 657.819 398.281C657.84 399.097 657.855 399.741 657.888 400.104C657.906 400.316 658.094 400.857 658.257 401.335C658.816 402.976 659.584 405.226 658.466 406.617C657.943 407.267 657.132 407.59 656.047 407.59ZM634.343 391.75L650.275 396.146C650.641 396.246 650.919 396.545 650.991 396.917C651.675 400.367 653.537 405.326 655.545 405.555C656.234 405.634 656.739 405.562 656.899 405.362C657.326 404.833 656.67 402.907 656.355 401.985C656.116 401.289 655.929 400.739 655.89 400.288C655.85 399.856 655.835 399.185 655.814 398.329C655.757 395.995 655.672 392.466 655.055 389.165C654.387 385.588 651.856 381.548 650.961 380.2L639.623 381.14L635.967 386.773C634.997 388.276 634.443 389.981 634.343 391.75Z" fill="black"/>
<path d="M894.332 292.597C891.303 286.438 881.7 287.4 877.742 288.515C877.331 288.63 876.974 288.887 876.714 289.223C871.293 296.262 866.464 300.002 862.406 302.004C858.143 304.108 853.03 303.467 849.314 300.495C834.133 288.358 808.526 267.408 808.526 267.408C799.948 262.591 791.836 258.794 784.213 255.833C778.19 243.945 773.304 242.735 762.159 240.389C759.644 239.86 757.479 239.627 755.653 239.579C751.411 239.464 747.368 241.369 744.683 244.655L743.129 246.557C720.667 245.466 706.335 254.854 704.07 256.447C678.418 274.507 687.81 280.781 663.231 306.805C638.652 332.829 637.207 378.367 637.207 378.367C637.201 385.733 647.538 384.52 652.902 383.395C654.716 383.014 656.059 381.494 656.219 379.646C656.552 375.818 714.837 272.2 705.954 353.362C704.905 362.95 706.359 379.368 703.236 387.891C699.907 396.974 703.759 407.242 712.391 411.608C726.076 418.529 747.365 417.136 754.991 416.492C766.598 415.509 779.188 414.523 789.024 410.393C793.242 408.621 797.904 404.966 800.683 402.592C802.228 401.274 802.963 399.242 802.633 397.237C801.442 389.999 798.772 371.413 799.628 354.505C800.284 341.57 803.171 329.415 804.348 324.895C804.586 323.982 805.636 323.559 806.437 324.055C813.306 328.324 841.132 344.192 862.219 335.49C891.732 323.317 895.321 294.608 894.332 292.597Z" fill="#91AAFF"/>
<path d="M876.874 495.456C874.129 495.456 871.894 493.221 871.894 490.476C871.894 487.731 874.129 485.496 876.874 485.496C879.62 485.496 881.854 487.731 881.854 490.476C881.854 493.221 879.62 495.456 876.874 495.456ZM876.874 487.501C875.232 487.501 873.899 488.834 873.899 490.476C873.899 492.118 875.235 493.451 876.874 493.451C878.516 493.451 879.849 492.118 879.849 490.476C879.849 488.837 878.516 487.501 876.874 487.501Z" fill="black"/>
<path d="M623.265 107.469C619.177 107.469 615.851 104.143 615.851 100.055C615.851 95.9675 619.177 92.6416 623.265 92.6416C627.353 92.6416 630.679 95.9675 630.679 100.055C630.679 104.143 627.353 107.469 623.265 107.469ZM623.265 94.6432C620.281 94.6432 617.856 97.0712 617.856 100.052C617.856 103.037 620.284 105.462 623.265 105.462C626.249 105.462 628.674 103.034 628.674 100.052C628.674 97.0712 626.249 94.6432 623.265 94.6432Z" fill="black"/>
<path d="M618.89 135.217C615.951 135.217 613.556 132.825 613.556 129.886C613.556 126.947 615.948 124.556 618.89 124.556C621.829 124.556 624.221 126.947 624.221 129.886C624.221 132.825 621.829 135.217 618.89 135.217ZM618.89 126.557C617.055 126.557 615.561 128.051 615.561 129.886C615.561 131.721 617.055 133.215 618.89 133.215C620.725 133.215 622.219 131.721 622.219 129.886C622.219 128.051 620.725 126.557 618.89 126.557Z" fill="black"/>
<path d="M1064.3 346.747C1064.18 346.747 1064.06 346.723 1063.93 346.674C1063.42 346.469 1063.17 345.888 1063.37 345.371L1087.47 284.881C1087.68 284.367 1088.26 284.116 1088.77 284.322C1089.29 284.527 1089.54 285.108 1089.33 285.625L1065.23 346.115C1065.08 346.508 1064.7 346.747 1064.3 346.747Z" fill="black"/>
<path d="M770.949 152.63C770.825 152.63 770.701 152.605 770.577 152.557C770.063 152.352 769.812 151.771 770.018 151.254L794.116 90.7641C794.321 90.2501 794.905 89.9992 795.419 90.2048C795.933 90.4104 796.184 90.9909 795.978 91.5079L771.88 151.998C771.723 152.391 771.348 152.63 770.949 152.63Z" fill="black"/>
<path d="M1078.67 366.826C1078.55 366.826 1078.43 366.802 1078.3 366.754C1077.79 366.548 1077.54 365.965 1077.74 365.451L1088.48 338.501C1088.69 337.987 1089.27 337.736 1089.78 337.942C1090.3 338.148 1090.55 338.728 1090.34 339.245L1079.61 366.194C1079.45 366.587 1079.07 366.826 1078.67 366.826Z" fill="black"/>
<path d="M748.469 165.02C748.345 165.02 748.221 164.996 748.097 164.948C747.583 164.742 747.332 164.162 747.537 163.645L758.274 136.695C758.48 136.181 759.063 135.93 759.577 136.136C760.091 136.342 760.342 136.922 760.137 137.439L749.4 164.388C749.243 164.781 748.868 165.02 748.469 165.02Z" fill="black"/>
<path d="M913.937 475.633C913.813 475.633 913.689 475.609 913.565 475.56C913.051 475.355 912.8 474.771 913.006 474.257L937.104 413.767C937.31 413.253 937.89 413.002 938.407 413.208C938.921 413.413 939.172 413.994 938.966 414.511L914.869 475.001C914.711 475.394 914.336 475.633 913.937 475.633Z" fill="black"/>
<path d="M839.808 474.478C839.681 474.478 839.554 474.454 839.43 474.402C838.916 474.194 838.671 473.61 838.88 473.096L850.481 444.569C850.69 444.055 851.273 443.81 851.787 444.018C852.301 444.227 852.546 444.81 852.338 445.324L840.736 473.852C840.579 474.242 840.204 474.478 839.808 474.478Z" fill="black"/>
<path d="M656.658 69.2725C656.358 69.2725 656.059 69.1576 655.832 68.9308C655.376 68.4743 655.376 67.7335 655.832 67.2769L658.472 64.6373C658.928 64.1808 659.669 64.1808 660.126 64.6373C660.582 65.0939 660.582 65.8347 660.126 66.2912L657.486 68.9308C657.256 69.1576 656.957 69.2725 656.658 69.2725Z" fill="black"/>
<path d="M645.552 80.378C645.253 80.378 644.953 80.2631 644.726 80.0363C644.27 79.5797 644.27 78.839 644.726 78.3824L647.366 75.7428C647.823 75.2863 648.563 75.2863 649.02 75.7428C649.477 76.1994 649.477 76.9402 649.02 77.3967L646.38 80.0363C646.148 80.2661 645.848 80.378 645.552 80.378Z" fill="black"/>
<path d="M659.297 80.378C658.998 80.378 658.698 80.2631 658.472 80.0363L655.832 77.3967C655.376 76.9402 655.376 76.1994 655.832 75.7428C656.289 75.2863 657.029 75.2863 657.486 75.7428L660.126 78.3824C660.582 78.839 660.582 79.5797 660.126 80.0363C659.896 80.2661 659.596 80.378 659.297 80.378Z" fill="black"/>
<path d="M648.191 69.2725C647.892 69.2725 647.593 69.1576 647.366 68.9308L644.726 66.2912C644.27 65.8347 644.27 65.0939 644.726 64.6373C645.183 64.1808 645.924 64.1808 646.38 64.6373L649.02 67.2769C649.477 67.7335 649.477 68.4743 649.02 68.9308C648.787 69.1576 648.488 69.2725 648.191 69.2725Z" fill="black"/>
<circle opacity="0.25" cx="408" cy="-53" r="129" fill="#CADDFF"/>
<circle opacity="0.25" cx="19" cy="168" r="75" fill="#CADDFF"/>
<path d="M21.5827 170.193C24.0829 164.931 28.716 160.738 33.9424 158.354C36.3666 157.267 38.8728 156.486 41.5293 156.266C44.0201 156.036 46.6886 156.469 49.1311 157.072C50.2948 157.361 51.4352 157.766 52.5249 158.185C53.9227 158.74 55.3204 159.295 56.6441 159.979C59.1766 161.323 61.191 163.571 62.7494 165.941C64.3994 168.451 65.5837 171.249 66.5011 174.065C67.5004 177.186 68.2874 180.529 68.513 183.803C68.7152 187.193 67.9644 190.674 65.6695 193.256C63.661 195.489 60.6755 196.508 57.7456 195.708C55.1101 194.993 52.8464 193.03 51.4674 190.721C49.9693 188.17 49.66 185.192 50.3585 182.326C51.8391 176.299 57.2379 171.518 62.6533 169.028C65.4555 167.731 68.5971 166.889 71.7312 167.033C75.0955 167.225 78.125 168.6 80.6364 170.879C83.3038 173.335 85.3849 176.439 87.3743 179.405C89.5333 182.598 91.554 185.883 93.3351 189.287C96.9341 196.031 99.8785 203.168 102.113 210.496C102.656 212.318 103.134 214.103 103.576 215.953C103.962 217.599 101.429 218.278 101.042 216.632C97.6563 202.78 91.5849 189.647 83.2767 178.098C81.461 175.578 79.4893 172.881 76.8241 171.244C74.4807 169.795 71.7109 169.389 69.0447 169.775C66.2265 170.203 63.5353 171.306 61.1698 172.815C58.8919 174.245 56.7234 176.084 55.1476 178.31C53.6087 180.471 52.5476 182.997 52.6229 185.71C52.6765 187.937 53.9132 190.12 55.5706 191.644C57.2007 193.066 59.3021 193.815 61.3016 193.17C63.7941 192.338 65.2099 189.717 65.6863 187.239C66.3028 184.067 65.4378 180.636 64.7192 177.549C64.1002 175.036 63.2142 172.54 62.0886 170.163C60.9259 167.851 59.5098 165.607 57.5678 163.831C55.7037 162.144 53.2436 161.272 50.9354 160.36C48.756 159.523 46.4695 159.097 44.1364 158.902C41.9552 158.667 40.0394 159.016 37.925 159.637C33.2536 161.053 28.8033 164.104 25.86 168.118C25.0652 169.205 24.4362 170.303 23.8344 171.503C23.5151 172.135 22.64 172.315 22.061 171.978C21.4176 171.604 21.2633 170.826 21.5827 170.193Z" fill="#3F3F3F"/>
<path d="M82.8628 197.78C87.079 202.773 91.6829 207.388 96.5869 211.705C97.7899 212.749 99.0573 213.831 100.297 214.811C100.775 215.175 101.294 215.692 101.896 215.913C102.319 216.073 102.393 215.944 102.551 215.519C102.82 214.9 102.973 214.258 103.127 213.615C103.355 212.843 103.518 212.034 103.681 211.225C104.036 209.709 104.275 208.169 104.449 206.592C104.818 203.104 104.842 199.544 104.511 196.079C104.435 195.389 105.187 194.75 105.849 194.791C106.614 194.805 107.095 195.387 107.135 196.142C107.452 199.555 107.451 202.999 107.069 206.436C106.885 208.18 106.649 209.938 106.286 211.621C105.945 213.188 105.632 214.857 105.048 216.326C104.404 217.974 102.997 219.007 101.231 218.496C99.6303 217.996 98.2809 216.608 97.0271 215.578C94.2993 213.302 91.6455 210.897 89.13 208.401C86.3162 205.601 83.59 202.724 81.0392 199.69C80.5712 199.159 80.5182 198.354 81.0306 197.834C81.4786 197.276 82.4454 197.236 82.8628 197.78Z" fill="#3F3F3F"/>
<circle opacity="0.25" cx="32.5" cy="680.5" r="175.5" fill="#CADDFF"/>
</g>
<defs>
<clipPath id="clip0_77_10746">
<rect width="1211" height="606" fill="white"/>
</clipPath>
</defs>
</svg>
