<svg width="48" height="53" viewBox="0 0 48 53" fill="none" xmlns="http://www.w3.org/2000/svg">
<path d="M-3.8484 13.2591C-2.12469 10.2605 0.811901 7.99316 4.01586 6.82401C5.50109 6.29301 7.02067 5.94694 8.60323 5.93992C10.0882 5.91913 11.6476 6.29903 13.0654 6.76901C13.7408 6.99428 14.397 7.28689 15.0226 7.58518C15.8242 7.97831 16.6258 8.37144 17.3777 8.8376C18.8144 9.75046 19.9025 11.1745 20.7151 12.6497C21.5754 14.2116 22.1468 15.923 22.5593 17.6319C23.0062 19.5258 23.3171 21.5406 23.2989 23.489C23.2616 25.5047 22.6559 27.5304 21.1779 28.9528C19.8856 30.1813 18.0713 30.6459 16.3742 30.0365C14.8474 29.4911 13.5984 28.2246 12.8892 26.7939C12.1207 25.2149 12.0756 23.4377 12.6218 21.7738C13.7774 18.2749 17.1945 15.6951 20.5152 14.4724C22.2339 13.8342 24.1324 13.4816 25.9808 13.7121C27.9632 13.9815 29.6927 14.9357 31.0736 16.401C32.5386 17.9781 33.6265 19.9124 34.6667 21.7598C35.7966 23.75 36.8405 25.788 37.737 27.8854C39.5548 32.0435 40.9668 36.4046 41.9502 40.8453C42.1869 41.9492 42.3873 43.0279 42.5628 44.1432C42.7154 45.1352 41.1844 45.4196 41.0318 44.4276C39.6695 36.0716 36.6844 28.0171 32.3019 20.7962C31.3439 19.2204 30.3018 17.5328 28.8002 16.4407C27.4803 15.4742 25.8596 15.1057 24.2636 15.2109C22.5757 15.3331 20.9317 15.8618 19.4616 16.645C18.0471 17.3861 16.6784 18.3737 15.6425 19.6184C14.6315 20.8265 13.8864 22.2722 13.8053 23.8816C13.7338 25.2022 14.3647 26.5517 15.2751 27.5304C16.174 28.4476 17.3832 28.9882 18.5966 28.699C20.1104 28.3221 21.0699 26.8366 21.4667 25.3918C21.9785 23.543 21.6255 21.4722 21.3432 19.6116C21.0932 18.0956 20.6845 16.5773 20.1283 15.1182C19.5473 13.6956 18.8131 12.3015 17.7459 11.1606C16.7207 10.0756 15.3049 9.44585 13.981 8.799C12.7298 8.20242 11.3962 7.84435 10.0242 7.62094C8.74414 7.38047 7.594 7.49849 6.31366 7.76823C3.48311 8.38973 0.707592 9.98944 -1.22051 12.2289C-1.74131 12.8358 -2.16452 13.4565 -2.57628 14.1388C-2.7946 14.4982 -3.32088 14.5641 -3.648 14.3379C-4.01146 14.0866 -4.06673 13.6185 -3.8484 13.2591Z" fill="#3F3F3F"/>
<path d="M31.1468 32.4272C33.411 35.5778 35.9222 38.523 38.6249 41.3052C39.2886 41.979 39.9886 42.678 40.6772 43.3153C40.9431 43.5529 41.2262 43.883 41.5725 44.0418C41.8154 44.1561 41.8652 44.0831 41.9783 43.8389C42.166 43.4852 42.2867 43.112 42.4075 42.7388C42.578 42.2926 42.7122 41.8213 42.8464 41.35C43.1262 40.469 43.339 39.5685 43.5155 38.6429C43.8955 36.5954 44.0745 34.4896 44.0391 32.4236C44.0259 32.0115 44.5007 31.6682 44.891 31.7232C45.3426 31.7669 45.6008 32.1334 45.5891 32.582C45.6187 34.6172 45.4589 36.6557 45.0733 38.6724C44.8833 39.6961 44.6627 40.7256 44.3695 41.7047C44.0954 42.6166 43.8327 43.59 43.419 44.4322C42.9611 45.3781 42.0806 45.9243 41.0589 45.5402C40.1347 45.1698 39.4003 44.2859 38.706 43.6178C37.1969 42.1444 35.7375 40.598 34.3643 39.0038C32.8285 37.2165 31.3482 35.387 29.9789 33.4732C29.7265 33.1374 29.7325 32.6581 30.0598 32.374C30.3509 32.0649 30.925 32.0858 31.1468 32.4272Z" fill="#3F3F3F"/>
</svg>
