<svg width="554" height="553" viewBox="0 0 554 553" fill="none" xmlns="http://www.w3.org/2000/svg">
<path d="M47.2616 234.377C66.9633 154.08 32.4763 132.328 52.946 88.2265C84.4427 20.3682 222.363 -9.53806 312.723 2.66512C423.395 17.6107 531.114 99.2081 549.948 222.622C570.076 354.498 485.557 477.945 368.291 527.514C323.418 546.481 269.023 555.116 216.38 552.561C209.226 552.214 201.455 549.849 194.395 549.084C188.862 548.485 184.009 549.571 178.564 548.715C162.832 546.245 147.524 542.692 132.968 538.039C126.244 535.889 121.844 529.261 115.471 526.637C108.235 523.656 99.0828 524.608 92.3917 521.007C72.1397 510.11 54.6029 496.365 41.1026 479.672C34.0909 471 -3.41058 423.246 0.25098 360.651C3.28363 308.921 31.6448 298.027 47.2616 234.377Z" fill="#D9E5FF"/>
<path d="M159.824 400.738H420.511C424.484 400.738 428.043 398.356 429.467 394.748L553.044 82.4395C554.272 79.3252 553.67 76.0961 551.895 73.6742C550.187 71.346 545.246 64.4673 545.246 64.4673L283.404 69.7677C279.431 69.7677 275.872 72.1503 274.448 75.7574L146.248 389.584C146.248 389.584 150.309 394.742 152.301 397.198C154.028 399.323 156.701 400.738 159.824 400.738Z" fill="black"/>
<path d="M153.483 391.434H414.171C418.144 391.434 421.703 389.052 423.127 385.445L545.926 74.0125C548.336 67.9019 543.698 61.3407 536.971 61.3407H276.283C272.31 61.3407 268.752 63.7233 267.327 67.3304L144.528 378.759C142.118 384.87 146.756 391.434 153.483 391.434Z" fill="white"/>
<path d="M414.168 392.435H153.483C149.925 392.435 146.626 390.709 144.658 387.815C142.735 384.991 142.351 381.557 143.596 378.394L266.396 66.9618C267.959 63.0009 271.932 60.3371 276.283 60.3371H536.97C540.529 60.3371 543.828 62.0636 545.796 64.9571C547.719 67.7811 548.103 71.216 546.858 74.3786L424.058 385.811C422.495 389.775 418.522 392.435 414.168 392.435ZM276.28 62.3447C272.746 62.3447 269.519 64.4975 268.256 67.6995L145.459 379.129C144.458 381.665 144.769 384.423 146.311 386.688C147.908 389.031 150.587 390.431 153.483 390.431H414.171C417.705 390.431 420.931 388.278 422.192 385.076L544.989 73.6469C545.99 71.1101 545.678 68.3526 544.136 66.0879C542.54 63.7447 539.861 62.3447 536.967 62.3447H276.28Z" fill="black"/>
<path d="M131.741 372.02H392.428C396.401 372.02 399.96 369.637 401.384 366.03L524.184 54.5981C526.594 48.4874 521.956 41.9263 515.228 41.9263H254.541C250.568 41.9263 247.009 44.3089 245.585 47.916L122.788 359.348C120.378 365.456 125.013 372.02 131.741 372.02Z" fill="white"/>
<path d="M392.428 373.021H131.741C128.182 373.021 124.883 371.294 122.915 368.401C120.992 365.577 120.608 362.142 121.854 358.979L244.653 47.5504C246.217 43.5895 250.19 40.9257 254.54 40.9257H515.228C518.787 40.9257 522.085 42.6522 524.054 45.5458C525.977 48.3698 526.361 51.8046 525.115 54.9672L402.315 366.399C400.755 370.36 396.779 373.021 392.428 373.021ZM254.54 42.9303C251.006 42.9303 247.78 45.0831 246.519 48.2851L123.719 359.714C122.718 362.251 123.03 365.008 124.572 367.273C126.168 369.616 128.847 371.016 131.741 371.016H392.428C395.963 371.016 399.189 368.864 400.453 365.662L523.249 54.2325C524.25 51.6957 523.939 48.9382 522.397 46.6735C520.8 44.3303 518.121 42.9303 515.225 42.9303H254.54Z" fill="black"/>
<path d="M153.142 353.404H382.831C386.329 353.404 389.468 351.305 390.723 348.128L498.922 73.7284C501.044 68.3434 496.959 62.5623 491.03 62.5623H261.34C257.842 62.5623 254.704 64.6607 253.449 67.8385L145.25 342.241C143.127 347.623 147.212 353.404 153.142 353.404Z" fill="#D9DFEB"/>
<path d="M361.058 245.002H258.021C247.356 245.002 240.036 234.272 243.925 224.342C246.195 218.543 251.789 214.724 258.021 214.724H361.058C371.722 214.724 379.043 225.455 375.154 235.384C372.881 241.187 367.287 245.002 361.058 245.002Z" fill="white"/>
<path d="M305.149 156.635H379.653C381.525 156.635 383.046 155.117 383.046 153.243C383.046 151.371 381.528 149.85 379.653 149.85H305.149C303.278 149.85 301.757 151.368 301.757 153.243C301.76 155.117 303.278 156.635 305.149 156.635Z" fill="white"/>
<path d="M273.29 173.848H386.59C388.461 173.848 389.982 172.331 389.982 170.456C389.982 168.584 388.464 167.063 386.59 167.063H273.29C271.418 167.063 269.897 168.581 269.897 170.456C269.897 172.331 271.415 173.848 273.29 173.848Z" fill="white"/>
<path d="M282.343 191.494H356.847C358.718 191.494 360.239 189.976 360.239 188.102C360.239 186.23 358.721 184.709 356.847 184.709H282.343C280.471 184.709 278.95 186.227 278.95 188.102C278.95 189.976 280.468 191.494 282.343 191.494Z" fill="white"/>
<path d="M382.934 353.96H357.436C356.883 353.96 356.435 353.513 356.435 352.959C356.435 352.406 356.883 351.959 357.436 351.959H382.934C386 351.959 388.796 350.093 389.891 347.317L416.731 279.25C416.934 278.736 417.518 278.482 418.032 278.685C418.546 278.888 418.8 279.471 418.597 279.985L391.757 348.052C390.363 351.584 386.816 353.96 382.934 353.96Z" fill="black"/>
<path d="M232.308 122.853C232.184 122.853 232.06 122.829 231.939 122.78C231.425 122.575 231.174 121.994 231.377 121.48L249.267 76.4407C249.47 75.9267 250.053 75.6757 250.567 75.8783C251.081 76.0839 251.332 76.6644 251.13 77.1785L233.239 122.218C233.082 122.611 232.707 122.853 232.308 122.853Z" fill="black"/>
<path d="M474.165 137.324C474.044 137.324 473.917 137.299 473.799 137.254C473.285 137.051 473.031 136.468 473.233 135.954L498.09 72.9122C498.958 70.7141 498.689 68.3255 497.353 66.3632C495.968 64.3313 493.643 63.1158 491.133 63.1158H283.195C282.642 63.1158 282.194 62.6683 282.194 62.115C282.194 61.5617 282.642 61.1142 283.195 61.1142H491.133C494.308 61.1142 497.253 62.6562 499.009 65.2353C500.724 67.757 501.072 70.8229 499.956 73.647L475.099 136.689C474.942 137.082 474.564 137.324 474.165 137.324Z" fill="black"/>
<path d="M341.174 207.364L332.821 215.717L334.238 217.134L342.591 208.781L341.174 207.364Z" fill="black"/>
<path d="M334.237 242.513L332.819 243.931L341.172 252.284L342.59 250.866L334.237 242.513Z" fill="black"/>
<path d="M299.083 207.365L297.666 208.783L306.019 217.136L307.437 215.718L299.083 207.365Z" fill="black"/>
<path d="M322.97 238.045L322.126 236.228C324.887 234.946 326.668 232.149 326.668 229.107C326.668 224.781 323.148 221.258 318.819 221.258C316.206 221.258 313.775 222.552 312.312 224.72L310.652 223.598C312.49 220.88 315.544 219.256 318.822 219.256C324.255 219.256 328.672 223.677 328.672 229.107C328.672 232.926 326.432 236.436 322.97 238.045Z" fill="black"/>
<path d="M329.864 94.5641C340.244 79.4311 358.524 72.6583 370.697 79.4432C382.87 86.2251 384.322 103.995 373.942 119.128C373.292 120.074 372.614 120.987 371.907 121.867C361.3 135.056 351.183 130.581 339.772 124.222C333.571 120.766 323.487 124.485 323 117.126C322.529 110.042 324.775 101.987 329.864 94.5641Z" fill="white"/>
<path d="M323.006 117.126C323.496 124.485 326.907 130.796 333.108 134.251C344.519 140.61 361.297 135.059 371.904 121.87C355.071 106.552 332.135 113.434 323.006 117.126Z" fill="#91AAFF"/>
<path d="M362.128 103.786L367.347 96.9527C369.322 94.3675 369.606 91.105 368.046 88.9492C367.595 88.3233 365.273 88.0301 363.447 87.8124C362.153 87.6582 361.082 86.9688 360.465 85.8954L359.637 84.4502C358.564 83.4554 356.997 83.0593 355.365 83.4826C354.805 83.6277 354.249 83.8424 353.708 84.1236L353.173 84.4018C350.636 85.7231 348.825 88.3173 348.568 90.9901L347.788 100.164L362.128 103.786Z" fill="black"/>
<path d="M360.082 91.5554L350.987 91.2621L346.025 103.895C345.015 106.217 345.456 108.382 346.699 109.506L345.006 113.401C343.86 116.034 344.894 118.68 347.313 119.309C349.735 119.938 352.625 118.314 353.771 115.681L356.233 110.027C358.836 108.847 361.082 106.456 362.316 103.617L364.333 98.9783C366.162 94.7786 365.107 92.3416 360.082 91.5554Z" fill="white"/>
<path d="M348.413 120.452C347.957 120.452 347.503 120.398 347.062 120.28C345.716 119.929 344.646 119.058 344.047 117.831C343.358 116.409 343.373 114.65 344.09 113.002L345.734 109.222C345.955 108.714 346.545 108.482 347.053 108.702C347.561 108.923 347.794 109.513 347.573 110.021L345.928 113.8C345.444 114.913 345.417 116.059 345.849 116.954C346.191 117.658 346.787 118.139 347.567 118.342C349.496 118.843 351.915 117.441 352.855 115.282L355.316 109.628C355.537 109.12 356.127 108.887 356.634 109.108C357.142 109.328 357.375 109.918 357.155 110.426L354.693 116.08C353.541 118.726 350.956 120.452 348.413 120.452Z" fill="black"/>
<path d="M351.866 111.771C351.818 111.771 351.77 111.768 351.721 111.762L348.61 111.309C346.705 111.154 345.735 110.175 345.254 109.376C344.005 107.302 344.61 104.143 345.596 101.878L350.107 91.0989C350.267 90.7149 350.66 90.47 351.062 90.4851L359.58 90.7421C362.029 90.5153 363.985 91.2259 365.098 92.7528C366.307 94.4127 366.365 96.8286 365.252 99.3805L363.235 104.019C361.191 108.717 356.728 111.759 351.866 111.771ZM351.691 92.5079L347.44 102.664C346.624 104.536 346.167 107.009 346.971 108.339C347.325 108.926 347.924 109.243 348.797 109.31C348.822 109.313 348.843 109.313 348.867 109.319L351.936 109.766C355.972 109.727 359.679 107.163 361.397 103.22L363.417 98.5823C364.236 96.6986 364.26 95.0023 363.48 93.932C362.785 92.9765 361.484 92.5653 359.713 92.7437C359.67 92.7467 359.628 92.7498 359.583 92.7468L351.691 92.5079Z" fill="black"/>
<path d="M180.021 360.005C181.708 346.314 180.741 348.412 180.741 348.412L123.338 351.793C123.338 351.793 118.107 387.362 117.781 389.793C117.506 391.843 103.491 464.076 92.4038 520.998C104.985 527.768 118.612 533.437 132.974 538.03C143.59 514.201 154.992 485.396 162.992 456.46C169.291 482.024 175.486 518.31 178.567 548.719C190.964 550.666 203.62 551.942 216.383 552.561C224.326 500.571 232.087 417.138 212.358 361.371L180.021 360.005Z" fill="black"/>
<path d="M164.145 466.662C163.664 466.662 163.24 466.317 163.159 465.827C160.982 452.989 155.249 436.51 150.965 427.993C145.876 417.876 145.317 407.52 144.948 400.669C144.918 400.116 145.341 399.644 145.894 399.614C146.438 399.586 146.919 400.007 146.949 400.56C147.309 407.245 147.853 417.347 152.755 427.092C157.106 435.739 162.923 452.469 165.133 465.492C165.227 466.036 164.858 466.556 164.314 466.647C164.256 466.656 164.202 466.662 164.145 466.662Z" fill="#D9E5FF"/>
<path d="M224.002 184.818L223.776 184.102C222.959 181.541 222.66 178.856 222.784 176.171C222.896 173.7 223.301 169.195 222.43 167.783C219.981 163.801 210.475 147.014 193.661 154.461C180.55 160.27 181.518 180.715 182.201 187.654C182.362 189.26 182.126 190.88 181.524 192.377C181.494 192.456 181.458 192.531 181.421 192.61L173.608 208.62C172.481 210.951 172.949 213.739 174.769 215.577L175.776 216.59C177.986 219.181 182.885 220.469 186.232 220.769C188.672 220.986 190.531 220.772 192.342 219.822C194.063 218.921 194.758 217.778 195.269 215.879C195.269 215.879 199.327 202.428 200.957 203.468C206.435 206.966 209.359 206.428 212.764 202.437C214.898 199.933 217.741 195.993 219.794 190.079C220.008 189.462 220.435 188.942 220.985 188.595L223.346 187.107C224.005 186.548 224.265 185.644 224.002 184.818Z" fill="white"/>
<path d="M187.834 221.851C187.302 221.851 186.74 221.823 186.141 221.769C182.525 221.449 177.454 220.079 175.035 217.273L174.056 216.284C171.936 214.15 171.395 210.893 172.701 208.187L180.517 192.171C180.544 192.117 180.568 192.059 180.593 192.005C181.134 190.659 181.343 189.19 181.2 187.757C180.378 179.439 179.909 159.459 193.249 153.548C204.576 148.532 214.59 153.001 223.017 166.834L223.277 167.26C224.123 168.636 224.039 171.502 223.836 175.103C223.815 175.505 223.794 175.88 223.778 176.219C223.658 178.898 223.975 181.447 224.725 183.799L224.955 184.512C225.342 185.728 224.964 187.046 223.99 187.872C223.954 187.902 223.918 187.929 223.875 187.956L221.514 189.444C221.148 189.674 220.87 190.018 220.734 190.408C219.071 195.201 216.709 199.349 213.52 203.089C209.743 207.513 206.266 207.933 200.799 204.559C199.756 205.811 197.679 211.341 196.222 216.172C195.708 218.083 194.924 219.601 192.802 220.714C191.323 221.488 189.775 221.851 187.834 221.851ZM201.966 153.581C199.554 153.581 196.923 154.116 194.066 155.38C181.92 160.759 182.419 179.675 183.199 187.557C183.371 189.311 183.114 191.107 182.455 192.752C182.413 192.855 182.371 192.951 182.322 193.051L174.509 209.061C173.572 211.002 173.962 213.339 175.483 214.872L176.49 215.885C176.508 215.903 176.523 215.921 176.541 215.94C178.428 218.153 182.815 219.459 186.322 219.77C188.726 219.982 190.338 219.743 191.88 218.936C193.228 218.231 193.818 217.424 194.302 215.619C195.689 211.014 198.299 203.228 200.264 202.5C200.687 202.343 201.123 202.388 201.495 202.624C206.886 206.068 209.178 205.097 212.002 201.786C215.028 198.239 217.269 194.303 218.847 189.749C219.131 188.93 219.703 188.219 220.453 187.745L222.744 186.299C223.065 185.997 223.186 185.54 223.05 185.117L222.82 184.401C221.998 181.821 221.65 179.037 221.783 176.119C221.798 175.774 221.819 175.39 221.843 174.982C221.955 172.98 222.161 169.252 221.577 168.3L221.311 167.865C218.935 163.976 212.6 153.581 201.966 153.581Z" fill="black"/>
<path d="M213.837 144.738C218.118 146.942 220.044 150.963 222.397 151.592C230.932 153.878 234.981 158.316 232.009 165.555C227.059 177.604 212.074 172.174 208.948 172.204C206.024 172.231 201.186 173.991 198.341 179.853C197.975 180.609 197.141 181.03 196.318 180.9C195.357 180.748 194.671 179.893 194.746 178.916C194.994 175.835 195.118 169.597 192.191 168.724C188.518 167.626 182.73 176.171 187.988 181.964C189.603 183.742 189.57 186.78 187.819 188.489C186.676 189.604 184.242 190.109 182.141 189.06C180.859 188.422 180.148 187.137 179.689 185.783C177.793 180.186 175.335 160.977 181.693 150.703C189.352 138.328 208.138 141.802 213.837 144.738Z" fill="black"/>
<path d="M200.893 204.435C200.709 204.435 200.521 204.384 200.352 204.278C196.4 201.744 193.936 197.922 192.563 195.162C192.318 194.666 192.518 194.064 193.014 193.819C193.506 193.571 194.111 193.774 194.356 194.27C195.614 196.804 197.866 200.305 201.431 202.591C201.897 202.89 202.033 203.51 201.734 203.975C201.546 204.275 201.223 204.435 200.893 204.435Z" fill="black"/>
<path d="M93.9033 433.136L8.92855 408.566C7.82797 408.249 7.19302 407.097 7.51049 405.996L22.6224 353.737C22.9398 352.636 24.0918 352.001 25.1924 352.319L110.167 376.888C111.268 377.206 111.903 378.358 111.585 379.458L96.4734 431.718C96.1559 432.822 95.0039 433.454 93.9033 433.136Z" fill="white"/>
<path d="M92.7665 433.622C92.2555 433.622 91.7324 433.55 91.2184 433.402L11.0632 410.223C9.63001 409.809 8.44477 408.862 7.72213 407.553C7.00252 406.247 6.8332 404.738 7.24743 403.305L20.9654 355.865C21.8211 352.908 24.9233 351.193 27.8834 352.052L108.039 375.231C109.472 375.645 110.657 376.591 111.38 377.901C112.099 379.207 112.269 380.716 111.854 382.149L98.1363 429.589C97.4258 432.029 95.1883 433.622 92.7665 433.622ZM26.3293 353.836C24.7751 353.836 23.3389 354.858 22.8884 356.424L9.17043 403.864C8.90436 404.783 9.0132 405.751 9.47581 406.588C9.93842 407.426 10.6973 408.034 11.6165 408.3L91.7717 431.479C93.6675 432.026 95.657 430.931 96.2073 429.032L109.925 381.592C110.191 380.673 110.083 379.706 109.62 378.868C109.157 378.031 108.398 377.423 107.479 377.157L27.324 353.981C26.9945 353.881 26.6588 353.836 26.3293 353.836Z" fill="black"/>
<path d="M21.3672 359.388L21.8721 360.298C26.2231 368.15 33.5069 373.958 42.1332 376.453L83.5562 388.432C92.2037 390.933 101.492 389.896 109.378 385.548L21.3672 359.388Z" fill="white"/>
<path d="M93.0323 390.781C89.7729 390.781 86.4953 390.322 83.2752 389.391L41.8491 377.414C32.9084 374.829 25.5006 368.921 20.9924 360.781L20.4905 359.871C20.2214 359.388 20.3968 358.777 20.8806 358.511C21.3643 358.242 21.9751 358.417 22.2412 358.901L22.7431 359.811C26.9942 367.485 33.9787 373.051 42.4054 375.488L83.8316 387.465C92.2855 389.908 101.184 388.913 108.888 384.665C109.375 384.399 109.983 384.574 110.249 385.058C110.515 385.542 110.339 386.152 109.856 386.418C104.619 389.312 98.8557 390.781 93.0323 390.781Z" fill="black"/>
<path d="M68.0228 377.345L61.3745 375.423L56.8883 390.935L63.5366 392.858L68.0228 377.345Z" fill="black"/>
<path d="M296.538 255.851C296.538 255.851 294.545 240.951 301.714 235.775C307.144 231.853 315.048 229.413 318.114 228.503C319.003 228.24 320.66 228.427 321.044 229.274C321.044 229.274 321.733 230.879 319.435 231.965L312.804 234.732C312.182 235.025 312.088 235.868 312.632 236.289C314.304 237.583 317.34 241.172 317.83 243.128C318.646 246.393 316.901 249.293 313.787 251.963C310.673 254.633 309.856 255.141 309.708 255.851C309.56 256.562 309.485 259.38 309.485 259.38L296.538 255.851Z" fill="white"/>
<path d="M309.488 260.381C309.4 260.381 309.312 260.369 309.225 260.344L296.278 256.816C295.888 256.71 295.6 256.38 295.549 255.981C295.464 255.349 293.566 240.425 301.134 234.958C304.98 232.18 310.6 229.682 317.836 227.538C319.106 227.161 321.31 227.414 321.963 228.857C322.341 229.737 322.377 231.684 319.871 232.866L313.367 235.581C315.024 236.915 318.229 240.558 318.809 242.88C319.656 246.26 318.229 249.478 314.446 252.719C313.721 253.342 313.116 253.847 312.62 254.267C311.571 255.15 310.74 255.845 310.697 256.051C310.606 256.48 310.525 258.267 310.495 259.401C310.486 259.709 310.337 259.997 310.089 260.178C309.911 260.314 309.699 260.381 309.488 260.381ZM297.463 255.065L308.529 258.08C308.569 257.188 308.632 256.105 308.729 255.646C308.913 254.76 309.521 254.252 311.323 252.737C311.816 252.323 312.415 251.821 313.134 251.201C316.282 248.504 317.5 245.943 316.856 243.37C316.463 241.804 313.712 238.39 312.018 237.081C311.486 236.667 311.211 236.023 311.284 235.351C311.356 234.68 311.768 234.109 312.378 233.821L319.048 231.037C320.412 230.393 320.125 229.673 320.122 229.664C319.983 229.477 319.009 229.277 318.398 229.458C311.381 231.539 305.965 233.936 302.301 236.582C296.523 240.761 297.194 252.202 297.463 255.065Z" fill="black"/>
<path d="M56.048 347.187L52.1265 353.235C50.914 355.1 50.2881 357.286 50.3274 359.512L67.0085 364.113C67.0085 364.113 68.7894 373.136 72.4328 373.553C77.1708 374.094 74.0263 368.688 73.8902 367.2C73.7541 365.713 73.9023 360.6 73.0406 355.986C72.1789 351.372 68.4598 346.159 68.4598 346.159L56.048 347.187Z" fill="white"/>
<path d="M73.0466 374.59C72.8168 374.59 72.5749 374.575 72.3209 374.548C68.5535 374.116 66.6729 367.173 66.1589 364.918L50.0613 360.476C49.632 360.358 49.3326 359.971 49.3266 359.527C49.2842 357.093 49.9615 354.728 51.2859 352.687L55.2074 346.64C55.3768 346.38 55.6549 346.214 55.9664 346.187L68.3782 345.156C68.7319 345.125 69.0706 345.286 69.2762 345.573C69.4334 345.794 73.1343 351.021 74.0262 355.799C74.6733 359.258 74.764 363.028 74.8184 365.281C74.8396 366.097 74.8547 366.741 74.8879 367.104C74.9061 367.316 75.0936 367.857 75.2568 368.334C75.8162 369.976 76.5842 372.226 75.4655 373.617C74.9424 374.267 74.1321 374.59 73.0466 374.59ZM51.3433 358.75L67.2746 363.146C67.6404 363.246 67.9186 363.545 67.9911 363.917C68.6745 367.367 70.537 372.326 72.5447 372.555C73.234 372.634 73.739 372.561 73.8992 372.362C74.3256 371.833 73.6694 369.907 73.355 368.985C73.1161 368.289 72.9287 367.739 72.8894 367.288C72.8501 366.856 72.8349 366.185 72.8138 365.329C72.7563 362.995 72.6717 359.466 72.0548 356.165C71.3866 352.588 68.8559 348.548 67.9609 347.2L56.6225 348.14L52.967 353.773C51.9964 355.276 51.4431 356.981 51.3433 358.75Z" fill="black"/>
<path d="M311.332 259.597C308.302 253.438 298.7 254.4 294.742 255.515C294.33 255.63 293.974 255.887 293.714 256.223C288.292 263.262 283.464 267.002 279.406 269.004C275.143 271.108 270.03 270.467 266.314 267.495C251.133 255.358 225.526 234.408 225.526 234.408C216.948 229.591 208.836 225.794 201.213 222.833C195.19 210.945 190.304 209.735 179.159 207.389C176.644 206.86 174.479 206.627 172.652 206.579C168.41 206.464 164.368 208.369 161.683 211.655L160.129 213.557C137.667 212.466 123.335 221.854 121.07 223.447C95.418 241.507 104.809 247.781 80.2305 273.805C55.6518 299.829 54.2065 345.367 54.2065 345.367C54.2005 352.733 64.5381 351.52 69.902 350.395C71.7161 350.014 73.0586 348.494 73.2188 346.646C73.5514 342.818 131.837 239.2 122.954 320.362C121.905 329.95 123.359 346.368 120.236 354.892C116.907 363.974 120.759 374.242 129.391 378.608C143.076 385.529 164.365 384.136 171.99 383.492C183.598 382.509 196.188 381.523 206.024 377.393C210.242 375.621 214.904 371.966 217.683 369.592C219.228 368.274 219.962 366.242 219.633 364.237C218.442 356.999 215.772 338.413 216.627 321.505C217.284 308.57 220.171 296.415 221.347 291.895C221.586 290.982 222.635 290.559 223.437 291.055C230.306 295.324 258.132 311.192 279.219 302.49C308.732 290.317 312.321 261.608 311.332 259.597Z" fill="#91AAFF"/>
<path d="M293.874 462.456C291.128 462.456 288.894 460.221 288.894 457.476C288.894 454.73 291.128 452.496 293.874 452.496C296.619 452.496 298.854 454.73 298.854 457.476C298.854 460.221 296.619 462.456 293.874 462.456ZM293.874 454.501C292.232 454.501 290.899 455.834 290.899 457.476C290.899 459.118 292.235 460.451 293.874 460.451C295.516 460.451 296.849 459.118 296.849 457.476C296.849 455.837 295.516 454.501 293.874 454.501Z" fill="black"/>
<path d="M40.2649 74.4693C36.177 74.4693 32.8511 71.1433 32.8511 67.0554C32.8511 62.9675 36.177 59.6416 40.2649 59.6416C44.3528 59.6416 47.6787 62.9675 47.6787 67.0554C47.6787 71.1433 44.3528 74.4693 40.2649 74.4693ZM40.2649 61.6432C37.2806 61.6432 34.8557 64.0712 34.8557 67.0524C34.8557 70.0367 37.2836 72.4616 40.2649 72.4616C43.2492 72.4616 45.6741 70.0337 45.6741 67.0524C45.6741 64.0712 43.2492 61.6432 40.2649 61.6432Z" fill="black"/>
<path d="M35.8898 102.217C32.9508 102.217 30.5562 99.825 30.5562 96.8861C30.5562 93.9472 32.9478 91.5555 35.8898 91.5555C38.8287 91.5555 41.2203 93.9472 41.2203 96.8861C41.2203 99.825 38.8287 102.217 35.8898 102.217ZM35.8898 93.5572C34.0544 93.5572 32.5608 95.0508 32.5608 96.8861C32.5608 98.7214 34.0544 100.215 35.8898 100.215C37.7251 100.215 39.2187 98.7214 39.2187 96.8861C39.2187 95.0508 37.7251 93.5572 35.8898 93.5572Z" fill="black"/>
<path d="M481.303 313.747C481.179 313.747 481.055 313.723 480.931 313.674C480.417 313.469 480.166 312.888 480.372 312.371L504.47 251.881C504.675 251.367 505.256 251.116 505.773 251.322C506.287 251.527 506.538 252.108 506.332 252.625L482.234 313.115C482.077 313.508 481.702 313.747 481.303 313.747Z" fill="black"/>
<path d="M187.949 119.63C187.825 119.63 187.701 119.605 187.577 119.557C187.063 119.352 186.812 118.771 187.018 118.254L211.116 57.7641C211.321 57.2501 211.905 56.9992 212.419 57.2048C212.933 57.4104 213.184 57.9909 212.978 58.5079L188.88 118.998C188.723 119.391 188.348 119.63 187.949 119.63Z" fill="black"/>
<path d="M495.674 333.826C495.55 333.826 495.426 333.802 495.302 333.754C494.788 333.548 494.537 332.965 494.743 332.451L505.479 305.501C505.685 304.987 506.266 304.736 506.783 304.942C507.297 305.148 507.548 305.728 507.342 306.245L496.605 333.194C496.448 333.587 496.07 333.826 495.674 333.826Z" fill="black"/>
<path d="M165.468 132.02C165.344 132.02 165.22 131.996 165.097 131.948C164.583 131.742 164.332 131.162 164.537 130.645L175.274 103.695C175.48 103.181 176.063 102.93 176.577 103.136C177.091 103.342 177.342 103.922 177.136 104.439L166.4 131.388C166.242 131.781 165.868 132.02 165.468 132.02Z" fill="black"/>
<path d="M330.937 442.633C330.813 442.633 330.689 442.609 330.565 442.56C330.051 442.355 329.8 441.771 330.006 441.257L354.104 380.767C354.309 380.253 354.89 380.002 355.407 380.208C355.921 380.413 356.172 380.994 355.966 381.511L331.868 442.001C331.711 442.394 331.336 442.633 330.937 442.633Z" fill="black"/>
<path d="M256.808 441.478C256.681 441.478 256.554 441.454 256.43 441.402C255.916 441.193 255.671 440.61 255.88 440.096L267.481 411.568C267.69 411.054 268.273 410.809 268.787 411.018C269.301 411.227 269.546 411.81 269.338 412.324L257.736 440.852C257.579 441.242 257.204 441.478 256.808 441.478Z" fill="black"/>
<path d="M73.6571 36.2725C73.3578 36.2725 73.0584 36.1576 72.8317 35.9308C72.3751 35.4743 72.3751 34.7335 72.8317 34.2769L75.4713 31.6373C75.9278 31.1808 76.6686 31.1808 77.1252 31.6373C77.5817 32.0939 77.5817 32.8347 77.1252 33.2912L74.4856 35.9308C74.2558 36.1576 73.9564 36.2725 73.6571 36.2725Z" fill="black"/>
<path d="M62.5516 47.378C62.2523 47.378 61.953 47.2631 61.7262 47.0363C61.2696 46.5797 61.2696 45.839 61.7262 45.3824L64.3658 42.7428C64.8224 42.2863 65.5631 42.2863 66.0197 42.7428C66.4763 43.1994 66.4763 43.9402 66.0197 44.3967L63.3801 47.0363C63.1473 47.2661 62.848 47.378 62.5516 47.378Z" fill="black"/>
<path d="M76.2967 47.378C75.9974 47.378 75.698 47.2631 75.4713 47.0363L72.8317 44.3967C72.3751 43.9402 72.3751 43.1994 72.8317 42.7428C73.2882 42.2863 74.029 42.2863 74.4856 42.7428L77.1252 45.3824C77.5817 45.839 77.5817 46.5797 77.1252 47.0363C76.8954 47.2661 76.596 47.378 76.2967 47.378Z" fill="black"/>
<path d="M65.1912 36.2725C64.8919 36.2725 64.5926 36.1576 64.3658 35.9308L61.7262 33.2912C61.2696 32.8347 61.2696 32.0939 61.7262 31.6373C62.1828 31.1808 62.9235 31.1808 63.3801 31.6373L66.0197 34.2769C66.4763 34.7335 66.4763 35.4743 66.0197 35.9308C65.7869 36.1576 65.4875 36.2725 65.1912 36.2725Z" fill="black"/>
</svg>
