<svg width="322" height="170" viewBox="0 0 322 170" fill="none" xmlns="http://www.w3.org/2000/svg">
<path d="M394.336 98.8674C383.12 122.617 363.068 141.001 338.129 155.169L337.782 155.38C304.437 174.254 262.412 185.827 221.392 192.662C185.702 198.456 149.639 201.74 113.569 202.481C83.0488 203.274 62.5843 202.145 61.8151 202.059C59.5281 201.796 57.2848 201.402 57.2848 201.402C55.6487 201.136 53.9791 200.785 52.3686 200.408L52.2451 200.426L51.764 200.298C39.193 197.303 27.9162 191.473 19.083 183.402C8.4321 173.588 2.03431 160.889 0.890212 147.292C-0.71303 131.178 1.90299 114.81 8.54941 99.3677C24.1801 64.0651 66.0885 26.4139 112.863 16.8424C130.675 13.2209 156.093 11.4599 179.57 -5.64445C184.962 -9.56173 186.734 -10.9414 191.737 -14.6422C198.898 -19.9566 235.637 -47.1807 283.905 -49.4592C295.736 -50.0263 335.463 -50.3676 367.389 -26.6074C411.021 5.87986 411.379 62.5942 394.336 98.8674Z" fill="#D9E5FF"/>
</svg>
