<svg width="247" height="170" viewBox="0 0 247 170" fill="none" xmlns="http://www.w3.org/2000/svg">
<path d="M163.877 -9.39027C163.714 -9.31426 163.555 -9.22886 163.402 -9.1345C162.281 -10.5368 160.953 -11.7624 159.462 -12.7704C159.546 -12.929 159.62 -13.0923 159.684 -13.2594C159.903 -13.8242 160.003 -14.4269 159.978 -15.03C159.953 -15.6331 159.803 -16.2236 159.538 -16.7649C159.273 -17.3063 158.898 -17.7868 158.437 -18.1766C157.976 -18.5664 157.438 -18.8572 156.857 -19.0308C156.277 -19.2045 155.665 -19.2573 155.062 -19.186C154.458 -19.1147 153.874 -18.9209 153.347 -18.6165C152.82 -18.3121 152.361 -17.9036 151.998 -17.4166C151.635 -16.9295 151.377 -16.3742 151.239 -15.7853C149.442 -15.983 147.624 -15.9113 145.845 -15.5727C145.792 -15.743 145.728 -15.9098 145.655 -16.0722C145.17 -17.132 144.28 -17.9539 143.18 -18.3571C142.081 -18.7604 140.862 -18.7119 139.792 -18.2223C138.722 -17.7328 137.888 -16.8423 137.474 -15.7468C137.06 -14.6512 137.1 -13.4404 137.585 -12.3806C137.66 -12.2189 137.745 -12.062 137.84 -11.9109C136.42 -10.7864 135.177 -9.45757 134.152 -7.96887C133.617 -8.24213 133.03 -8.40336 132.428 -8.44265C131.826 -8.48194 131.222 -8.39846 130.651 -8.19734C130.081 -7.99622 129.558 -7.6817 129.113 -7.27312C128.668 -6.86453 128.312 -6.3705 128.065 -5.82138C127.818 -5.27225 127.687 -4.67964 127.679 -4.07994C127.671 -3.48023 127.786 -2.88611 128.018 -2.33406C128.249 -1.78201 128.592 -1.2837 129.026 -0.869733C129.46 -0.455772 129.975 -0.134903 130.539 0.0731605C130.708 0.133451 130.88 0.183891 131.056 0.224223C130.843 2.01098 130.902 3.81737 131.23 5.58281C131.058 5.63705 130.89 5.7012 130.726 5.77494C129.656 6.26435 128.822 7.1546 128.409 8.24984C127.995 9.34508 128.035 10.5556 128.519 11.6151C129.004 12.6746 129.894 13.4963 130.993 13.8994C132.092 14.3026 133.311 14.2541 134.381 13.7647C134.544 13.6888 134.702 13.6031 134.855 13.5078C135.976 14.9104 137.305 16.1361 138.795 17.1437C138.505 17.6984 138.335 18.3073 138.299 18.93C138.262 19.5527 138.359 20.1751 138.583 20.7559C138.807 21.3366 139.154 21.8625 139.599 22.2987C140.044 22.7349 140.578 23.0714 141.166 23.2859C141.753 23.5004 142.381 23.5881 143.007 23.543C143.633 23.498 144.244 23.3213 144.798 23.0246C145.352 22.728 145.837 22.3182 146.221 21.8223C146.606 21.3265 146.88 20.756 147.026 20.1486C148.823 20.3465 150.641 20.2748 152.42 19.9359C152.473 20.1064 152.536 20.2734 152.609 20.436C153.094 21.4957 153.984 22.3177 155.083 22.7209C156.183 23.1241 157.402 23.0756 158.472 22.5861C159.542 22.0966 160.376 21.2061 160.79 20.1105C161.204 19.015 161.164 17.8041 160.679 16.7443C160.604 16.5825 160.519 16.4255 160.425 16.2742C161.845 15.1496 163.088 13.8207 164.113 12.3321C164.669 12.6201 165.281 12.7868 165.908 12.8211C166.536 12.8553 167.164 12.7563 167.752 12.5308C168.34 12.3052 168.874 11.9582 169.318 11.5128C169.762 11.0674 170.106 10.5338 170.328 9.94758C170.55 9.36135 170.643 8.73588 170.603 8.11277C170.563 7.48967 170.389 6.88321 170.094 6.33373C169.799 5.78425 169.389 5.30435 168.892 4.92594C168.395 4.54753 167.821 4.27928 167.209 4.13905C167.422 2.35229 167.363 0.545914 167.035 -1.21954C167.207 -1.27283 167.375 -1.33663 167.54 -1.41058C168.609 -1.89998 169.443 -2.79023 169.857 -3.88547C170.271 -4.98071 170.231 -6.19124 169.746 -7.25075C169.261 -8.31025 168.372 -9.13194 167.272 -9.53506C166.173 -9.93818 164.955 -9.88971 163.885 -9.40031L163.877 -9.39027ZM152.529 9.60267C151.046 10.2788 149.399 10.5047 147.795 10.2516C146.19 9.99849 144.701 9.27786 143.515 8.18079C142.329 7.08372 141.499 5.65945 141.131 4.08804C140.763 2.51662 140.873 0.86861 141.447 -0.647678C142.02 -2.16397 143.033 -3.48045 144.355 -4.43071C145.678 -5.38098 147.251 -5.92237 148.877 -5.98643C150.502 -6.0505 152.107 -5.63437 153.488 -4.79064C154.869 -3.94692 155.964 -2.71349 156.635 -1.24626C157.08 -0.271316 157.328 0.782788 157.363 1.8558C157.398 2.92881 157.219 3.9997 156.838 5.00724C156.457 6.01478 155.88 6.93923 155.14 7.72774C154.401 8.51625 153.513 9.15337 152.529 9.60267Z" fill="white"/>
<path d="M158.576 22.8238C157.441 23.3415 156.15 23.3923 154.984 22.9651C153.819 22.5379 152.875 21.6675 152.36 20.5449C152.316 20.4495 152.27 20.3497 152.235 20.2372C150.581 20.5315 148.895 20.5986 147.226 20.4368C147.193 20.5499 147.158 20.6548 147.119 20.751C146.909 21.3348 146.584 21.8721 146.163 22.3315C145.742 22.7909 145.235 23.1633 144.669 23.427C144.104 23.6907 143.493 23.8405 142.87 23.8676C142.248 23.8947 141.627 23.7987 141.044 23.585C140.462 23.3713 139.928 23.0443 139.475 22.6229C139.022 22.2016 138.659 21.6943 138.406 21.1306C138.153 20.567 138.016 19.9582 138.003 19.3396C137.989 18.7211 138.1 18.1052 138.328 17.5277C138.365 17.4283 138.408 17.3263 138.456 17.2223C137.085 16.2696 135.854 15.1331 134.797 13.8449C134.691 13.9044 134.595 13.9533 134.499 13.9974C133.364 14.5164 132.072 14.5678 130.907 14.1403C129.741 13.7129 128.797 12.8415 128.283 11.718C127.77 10.5945 127.727 9.31086 128.166 8.14946C128.605 6.98806 129.489 6.04403 130.623 5.52506C130.721 5.48048 130.82 5.43488 130.933 5.3978C130.65 3.75622 130.595 2.08212 130.771 0.422413C130.657 0.390804 130.552 0.35784 130.456 0.319727C129.308 -0.1209 128.384 -0.993856 127.883 -2.11056C127.383 -3.22726 127.346 -4.49806 127.781 -5.64841C128.215 -6.79877 129.087 -7.73634 130.207 -8.25856C131.327 -8.78079 132.605 -8.84576 133.766 -8.43943C133.866 -8.40283 133.968 -8.36075 134.074 -8.3148C135.043 -9.6825 136.197 -10.9126 137.501 -11.9707C137.442 -12.0763 137.394 -12.1708 137.35 -12.2674C136.836 -13.3912 136.793 -14.6751 137.232 -15.8368C137.671 -16.9986 138.555 -17.9428 139.69 -18.4619C140.825 -18.981 142.117 -19.0324 143.283 -18.6049C144.449 -18.1773 145.393 -17.3057 145.907 -16.1819C145.951 -16.0854 145.997 -15.9856 146.033 -15.8736C147.688 -16.1679 149.373 -16.235 151.042 -16.0732C151.075 -16.1863 151.11 -16.2912 151.149 -16.3873C151.601 -17.5313 152.486 -18.4562 153.613 -18.962C154.741 -19.4678 156.02 -19.5141 157.175 -19.0908C158.329 -18.6675 159.267 -17.8086 159.784 -16.6996C160.302 -15.5907 160.358 -14.3207 159.941 -13.1641C159.902 -13.0642 159.859 -12.9638 159.812 -12.8587C161.183 -11.906 162.413 -10.7698 163.469 -9.48191C163.576 -9.54135 163.671 -9.58873 163.769 -9.63382C164.904 -10.1528 166.196 -10.2042 167.362 -9.77672C168.527 -9.34925 169.471 -8.47791 169.985 -7.35441C170.499 -6.23091 170.541 -4.94726 170.102 -3.78585C169.664 -2.62445 168.78 -1.68043 167.645 -1.16146C167.548 -1.11687 167.447 -1.07077 167.333 -1.03478C167.617 0.606891 167.673 2.28122 167.498 3.94119C167.611 3.9728 167.716 4.00576 167.812 4.04388C168.96 4.4845 169.884 5.35747 170.385 6.47417C170.886 7.59087 170.922 8.86166 170.488 10.012C170.053 11.1624 169.182 12.0999 168.062 12.6222C166.942 13.1444 165.663 13.2094 164.502 12.803C164.402 12.7664 164.3 12.7244 164.195 12.6784C163.225 14.0468 162.072 15.278 160.768 16.3376C160.827 16.4432 160.875 16.5382 160.919 16.6337C161.43 17.7574 161.47 19.04 161.031 20.2003C160.592 21.3607 159.709 22.3041 158.576 22.8238ZM146.916 19.9076C146.96 19.8871 147.009 19.8793 147.058 19.885C148.826 20.0782 150.616 20.0067 152.367 19.6729C152.431 19.6606 152.497 19.6721 152.553 19.7052C152.609 19.7383 152.651 19.7908 152.67 19.8526C152.719 20.0126 152.778 20.1694 152.847 20.322C153.303 21.3178 154.139 22.0901 155.172 22.469C156.205 22.8478 157.35 22.8023 158.356 22.3423C159.361 21.8823 160.145 21.0456 160.534 20.0162C160.923 18.9868 160.885 17.8491 160.43 16.8533C160.359 16.7015 160.279 16.5542 160.19 16.4123C160.157 16.3569 160.145 16.2911 160.156 16.2272C160.168 16.1633 160.203 16.1056 160.254 16.0649C161.651 14.9584 162.876 13.6513 163.886 12.1871C163.923 12.1333 163.978 12.0945 164.041 12.0783C164.105 12.062 164.172 12.0693 164.23 12.0987C164.379 12.1767 164.533 12.2454 164.691 12.3043C165.72 12.668 166.855 12.6127 167.85 12.1505C168.845 11.6883 169.62 10.8564 170.006 9.83517C170.391 8.81395 170.358 7.68567 169.912 6.69495C169.466 5.70422 168.644 4.93089 167.624 4.54259C167.465 4.48603 167.303 4.4388 167.139 4.40113C167.075 4.38607 167.02 4.34853 166.982 4.29554C166.945 4.24254 166.929 4.17771 166.936 4.11318C167.145 2.35488 167.087 0.577271 166.763 -1.15991C166.752 -1.22353 166.764 -1.28919 166.798 -1.34479C166.832 -1.40039 166.884 -1.44219 166.946 -1.46251C167.489 -1.63437 167.991 -1.91457 168.421 -2.28582C168.852 -2.65706 169.202 -3.11148 169.451 -3.62107C169.699 -4.13065 169.84 -4.68459 169.865 -5.24873C169.89 -5.81288 169.798 -6.37527 169.596 -6.90123C169.393 -7.42719 169.084 -7.90557 168.687 -8.30687C168.291 -8.70817 167.815 -9.02389 167.29 -9.23456C166.764 -9.44523 166.2 -9.54638 165.632 -9.53178C165.064 -9.51718 164.504 -9.38714 163.987 -9.14967C163.833 -9.07819 163.684 -8.99755 163.54 -8.90818C163.484 -8.87381 163.418 -8.86098 163.354 -8.87214C163.289 -8.88329 163.231 -8.91765 163.191 -8.96866C162.088 -10.3491 160.781 -11.5555 159.315 -12.5474C159.261 -12.5841 159.223 -12.6389 159.207 -12.7018C159.191 -12.7647 159.199 -12.8313 159.229 -12.8891C159.309 -13.0376 159.38 -13.1912 159.44 -13.3488C159.828 -14.378 159.791 -15.5156 159.335 -16.5111C158.879 -17.5066 158.043 -18.2786 157.01 -18.6572C155.977 -19.0358 154.832 -18.99 153.827 -18.5299C152.821 -18.0698 152.038 -17.2331 151.65 -16.2038C151.591 -16.046 151.542 -15.885 151.503 -15.7216C151.488 -15.6582 151.45 -15.6024 151.396 -15.5649C151.342 -15.5274 151.277 -15.5107 151.212 -15.5181C149.444 -15.7118 147.654 -15.6404 145.903 -15.3061C145.839 -15.2939 145.773 -15.3054 145.717 -15.3384C145.661 -15.3713 145.619 -15.4235 145.599 -15.4852C145.426 -16.0458 145.134 -16.5624 144.743 -17.0006C144.352 -17.4388 143.871 -17.7884 143.332 -18.0263C142.793 -18.2642 142.208 -18.3847 141.617 -18.38C141.025 -18.3753 140.441 -18.2454 139.902 -17.999C139.363 -17.7525 138.882 -17.3952 138.492 -16.9508C138.102 -16.5064 137.811 -15.9851 137.638 -15.4217C137.466 -14.8583 137.416 -14.2658 137.492 -13.6835C137.567 -13.1012 137.767 -12.5426 138.078 -12.0449C138.112 -11.9899 138.125 -11.9241 138.113 -11.8602C138.102 -11.7962 138.067 -11.7385 138.016 -11.698C136.618 -10.592 135.394 -9.28478 134.384 -7.82021C134.347 -7.76621 134.292 -7.72746 134.228 -7.71136C134.165 -7.69526 134.098 -7.70294 134.04 -7.73293C133.89 -7.8102 133.737 -7.87848 133.579 -7.93743C133.068 -8.1251 132.523 -8.21057 131.977 -8.18896C131.431 -8.16734 130.894 -8.03907 130.396 -7.81145C129.898 -7.58384 129.449 -7.26134 129.076 -6.86238C128.702 -6.46342 128.411 -5.9958 128.218 -5.48623C128.025 -4.97666 127.935 -4.43511 127.953 -3.89251C127.971 -3.34991 128.096 -2.81687 128.321 -2.32385C128.547 -1.83082 128.868 -1.38745 129.267 -1.01906C129.665 -0.650668 130.134 -0.364461 130.645 -0.176785C130.804 -0.119506 130.965 -0.072095 131.13 -0.0348282C131.193 -0.0202405 131.249 0.0171848 131.286 0.0703009C131.324 0.123416 131.34 0.188504 131.332 0.253128C131.125 2.01148 131.183 3.78889 131.505 5.52622C131.517 5.59001 131.505 5.65624 131.472 5.71225C131.438 5.76827 131.385 5.81015 131.322 5.82991C130.757 6.00618 130.235 6.29988 129.791 6.69144C129.348 7.08299 128.992 7.56341 128.749 8.10067C128.506 8.63794 128.38 9.21972 128.381 9.80725C128.381 10.3948 128.507 10.9745 128.751 11.5079C128.995 12.0413 129.351 12.5161 129.796 12.9005C130.24 13.285 130.762 13.5704 131.328 13.7377C131.893 13.9049 132.489 13.9502 133.076 13.8705C133.662 13.7909 134.225 13.588 134.728 13.2756C134.784 13.2418 134.85 13.2291 134.915 13.2401C134.979 13.251 135.036 13.2847 135.077 13.335C136.182 14.7153 137.49 15.9215 138.957 16.9133C139.012 16.9496 139.05 17.0045 139.066 17.0675C139.082 17.1305 139.073 17.1973 139.043 17.255C138.964 17.4042 138.894 17.5579 138.834 17.7152C138.445 18.7445 138.483 19.882 138.939 20.8776C139.394 21.8731 140.231 22.6451 141.264 23.0237C142.297 23.4023 143.442 23.3565 144.447 22.8964C145.452 22.4363 146.235 21.5995 146.624 20.5703C146.682 20.4124 146.731 20.2514 146.77 20.0881C146.78 20.0494 146.798 20.0133 146.823 19.9822C146.848 19.9512 146.88 19.9261 146.916 19.9087L146.916 19.9076ZM152.638 9.84327C151.108 10.5427 149.407 10.7771 147.75 10.5168C146.093 10.2565 144.554 9.51326 143.329 8.38101C142.103 7.24876 141.246 5.77837 140.865 4.15577C140.484 2.53317 140.597 0.831225 141.189 -0.734847C141.781 -2.30092 142.826 -3.66079 144.191 -4.6425C145.557 -5.62422 147.182 -6.18369 148.86 -6.25016C150.539 -6.31664 152.196 -5.88714 153.622 -5.01597C155.048 -4.14481 156.179 -2.8711 156.872 -1.35591C157.799 0.676562 157.874 2.99736 157.08 5.09718C156.287 7.19699 154.689 8.90428 152.639 9.84437L152.638 9.84327ZM145.851 -4.99433C144.418 -4.33816 143.209 -3.27586 142.378 -1.94174C141.548 -0.607621 141.132 0.938408 141.184 2.50086C141.235 4.06331 141.752 5.57203 142.669 6.83623C143.586 8.10044 144.862 9.06337 146.334 9.60327C147.807 10.1432 149.411 10.2358 150.944 9.86944C152.476 9.50308 153.869 8.69419 154.944 7.54504C156.02 6.39588 156.731 4.95808 156.987 3.41342C157.244 1.86876 157.034 0.286612 156.385 -1.13298C155.511 -3.03498 153.912 -4.50957 151.937 -5.23326C149.963 -5.95694 147.774 -5.87062 145.851 -4.99323L145.851 -4.99433Z" fill="black"/>
<path d="M109.81 8.04654C109.349 8.19853 108.926 8.44636 108.569 8.77342C108.212 9.10048 107.928 9.4992 107.738 9.9428C107.548 10.3864 107.455 10.8646 107.465 11.3454C107.476 11.8261 107.59 12.2983 107.8 12.7302C106.623 13.4775 105.563 14.3953 104.658 15.4529C104.542 15.377 104.421 15.3086 104.296 15.2482C103.894 15.0328 103.452 14.9004 102.995 14.8589C102.539 14.8174 102.079 14.8677 101.641 15.0068C101.204 15.1459 100.798 15.371 100.449 15.6685C100.1 15.9661 99.8138 16.3301 99.6084 16.7387C99.4029 17.1474 99.2822 17.5924 99.2532 18.0472C99.2243 18.502 99.2878 18.9572 99.44 19.3857C99.5922 19.8143 99.8299 20.2073 100.139 20.5414C100.448 20.8756 100.822 21.1439 101.239 21.3304C101.363 21.3909 101.49 21.4432 101.621 21.4871C101.313 22.8383 101.212 24.2264 101.319 25.6047C101.183 25.6314 101.048 25.6668 100.916 25.7107C100.474 25.8595 100.066 26.0965 99.7183 26.407C99.3704 26.7175 99.0897 27.0951 98.8933 27.5164C98.697 27.9377 98.5892 28.3938 98.5766 28.8567C98.564 29.3196 98.6469 29.7794 98.8201 30.208C98.9933 30.6365 99.2533 31.0246 99.5839 31.3484C99.9145 31.6722 100.309 31.9249 100.743 32.0908C101.176 32.2568 101.64 32.3325 102.106 32.3133C102.572 32.2942 103.029 32.1805 103.45 31.9794C104.194 33.144 105.11 34.1903 106.167 35.0835C106.09 35.1995 106.02 35.32 105.958 35.4442C105.552 36.251 105.483 37.1828 105.768 38.0347C106.053 38.8865 106.667 39.5886 107.476 39.9865C108.285 40.3844 109.222 40.4455 110.082 40.1563C110.941 39.8672 111.652 39.2515 112.059 38.4447C112.12 38.3206 112.174 38.1932 112.22 38.063C113.578 38.3586 114.974 38.4497 116.362 38.3331C116.388 38.4684 116.422 38.6019 116.466 38.7327C116.762 39.5691 117.379 40.254 118.182 40.6398C118.985 41.0257 119.91 41.0817 120.76 40.7958C121.609 40.51 122.313 39.905 122.722 39.1112C123.131 38.3175 123.21 37.3983 122.944 36.5516C122.9 36.4213 122.847 36.2937 122.788 36.1694C123.966 35.4221 125.025 34.5047 125.931 33.4477C126.047 33.5231 126.168 33.5914 126.292 33.6524C126.709 33.859 127.164 33.9783 127.63 34.0028C128.096 34.0273 128.563 33.9565 129.002 33.7948C129.44 33.6331 129.842 33.384 130.181 33.0627C130.52 32.7415 130.79 32.3551 130.973 31.9273C131.157 31.4995 131.251 31.0395 131.249 30.5757C131.246 30.1118 131.149 29.6541 130.961 29.2307C130.774 28.8072 130.5 28.4272 130.158 28.114C129.816 27.8009 129.413 27.5612 128.972 27.4099C129.279 26.0585 129.381 24.6707 129.275 23.2923C129.746 23.1914 130.192 22.9926 130.582 22.7091C130.972 22.4255 131.298 22.0636 131.538 21.6471C131.779 21.2306 131.928 20.7689 131.976 20.2924C132.025 19.8159 131.971 19.3353 131.819 18.8822C131.668 18.4292 131.421 18.0139 131.095 17.6636C130.769 17.3134 130.372 17.0361 129.93 16.85C129.488 16.664 129.01 16.5733 128.528 16.5839C128.047 16.5946 127.572 16.7064 127.136 16.9119C126.393 15.7466 125.477 14.7002 124.419 13.8079C124.496 13.692 124.566 13.5715 124.628 13.4471C125.024 12.6417 125.085 11.7157 124.798 10.8707C124.511 10.0256 123.899 9.32982 123.095 8.93454C122.291 8.53926 121.36 8.47649 120.505 8.75986C119.65 9.04324 118.939 9.64985 118.528 10.4478C118.466 10.5711 118.412 10.698 118.367 10.8278C117.009 10.533 115.613 10.442 114.225 10.5577C114.198 10.4231 114.163 10.2902 114.121 10.1598C113.834 9.31006 113.22 8.61036 112.411 8.21419C111.603 7.81802 110.667 7.75773 109.81 8.04654ZM113.299 18.4834C114.49 18.0822 115.77 18.0398 116.979 18.3617C118.188 18.6836 119.272 19.3553 120.092 20.2918C120.912 21.2283 121.433 22.3875 121.588 23.6229C121.743 24.8583 121.526 26.1144 120.963 27.2321C120.4 28.3499 119.518 29.2793 118.428 29.9027C117.337 30.526 116.088 30.8154 114.837 30.7342C113.586 30.653 112.39 30.2048 111.401 29.4464C110.412 28.688 109.673 27.6534 109.279 26.4734C109.016 25.6903 108.912 24.8624 108.973 24.037C109.033 23.2116 109.256 22.4049 109.629 21.6629C110.003 20.9209 110.519 20.2582 111.149 19.7127C111.778 19.1671 112.509 18.7494 113.299 18.4834Z" fill="white"/>
<path d="M121.226 40.9578C121.108 41.0123 120.987 41.0602 120.863 41.1013C119.936 41.412 118.926 41.3456 118.054 40.9168C117.182 40.4879 116.519 39.7316 116.211 38.8138C116.19 38.7493 116.17 38.6827 116.152 38.6124C114.89 38.6979 113.623 38.6154 112.385 38.3674C112.357 38.435 112.327 38.499 112.296 38.5593C111.839 39.3966 111.074 40.027 110.162 40.3171C109.25 40.6071 108.262 40.5341 107.409 40.1135C106.555 39.6929 105.902 38.9577 105.587 38.0633C105.273 37.1689 105.322 36.1855 105.724 35.321C105.754 35.2608 105.787 35.1991 105.825 35.1354C104.878 34.309 104.047 33.3596 103.355 32.3125C103.287 32.3436 103.221 32.3686 103.156 32.3875C102.233 32.6866 101.231 32.6127 100.367 32.1819C99.5037 31.7511 98.8484 30.998 98.5435 30.0862C98.2387 29.1743 98.3089 28.1771 98.7388 27.3109C99.1687 26.4448 99.9238 25.7795 100.84 25.4593C100.904 25.438 100.971 25.4179 101.043 25.3996C100.966 24.1455 101.058 22.8855 101.317 21.6532C101.249 21.6246 101.185 21.5967 101.125 21.5662C100.688 21.3569 100.297 21.0633 99.9766 20.7024C99.6557 20.3415 99.4104 19.9205 99.255 19.4636C99.0995 19.0067 99.037 18.5231 99.071 18.0407C99.105 17.5583 99.2348 17.0867 99.453 16.6531C99.6712 16.2195 99.9733 15.8326 100.342 15.5146C100.711 15.1967 101.139 14.9541 101.601 14.8008C102.064 14.6475 102.551 14.5866 103.036 14.6217C103.521 14.6567 103.994 14.7869 104.426 15.0048C104.486 15.0343 104.549 15.0681 104.612 15.1041C105.45 14.1566 106.411 13.3243 107.47 12.6295C107.44 12.5629 107.415 12.4973 107.396 12.4325C107.237 11.976 107.171 11.492 107.201 11.0085C107.232 10.525 107.359 10.0517 107.575 9.61599C107.791 9.18028 108.091 8.79087 108.459 8.47035C108.826 8.14982 109.254 7.90457 109.717 7.74882C110.179 7.59307 110.668 7.52992 111.153 7.56303C111.639 7.59615 112.113 7.72487 112.547 7.94173C112.981 8.15859 113.367 8.45927 113.682 8.82633C113.997 9.19338 114.236 9.6195 114.383 10.08C114.404 10.1444 114.424 10.211 114.443 10.2819C115.705 10.1959 116.972 10.2784 118.209 10.5275C118.239 10.4597 118.267 10.3962 118.298 10.3355C118.736 9.46549 119.503 8.80135 120.429 8.48922C121.356 8.17709 122.366 8.24253 123.239 8.67114C124.11 9.10241 124.77 9.86041 125.076 10.779C125.382 11.6976 125.307 12.7018 124.87 13.5716C124.84 13.6318 124.806 13.6935 124.768 13.7572C125.716 14.5835 126.547 15.5327 127.24 16.5796C127.306 16.5492 127.374 16.5275 127.437 16.5051C128.364 16.1932 129.375 16.2592 130.248 16.6884C131.121 17.1177 131.783 17.8751 132.091 18.7941C132.398 19.713 132.324 20.7182 131.885 21.5885C131.447 22.4589 130.68 23.123 129.753 23.4349C129.688 23.4567 129.621 23.4768 129.549 23.4962C129.627 24.75 129.535 26.0097 129.275 27.2415C129.344 27.2696 129.407 27.2991 129.468 27.3281C130.341 27.7569 131.004 28.5138 131.311 29.4323C131.618 30.3508 131.545 31.3556 131.107 32.2258C130.669 33.096 129.902 33.7601 128.976 34.0722C128.049 34.3843 127.038 34.3187 126.166 33.8899C126.105 33.8605 126.043 33.8278 125.985 33.7881C125.147 34.7354 124.186 35.568 123.128 36.2639C123.158 36.3297 123.18 36.3963 123.201 36.4597C123.487 37.3154 123.443 38.2481 123.078 39.0785C122.714 39.9088 122.054 40.5782 121.226 40.9578ZM112.109 37.8187C112.161 37.7948 112.22 37.7883 112.277 37.8C113.609 38.0896 114.979 38.1784 116.341 38.0634C116.406 38.0582 116.47 38.0768 116.523 38.1158C116.575 38.1547 116.61 38.2113 116.623 38.2749C116.707 38.6927 116.877 39.0884 117.121 39.4375C117.366 39.7866 117.68 40.0817 118.044 40.3047C118.409 40.5276 118.816 40.6737 119.241 40.7339C119.665 40.7941 120.098 40.7672 120.513 40.6547C120.929 40.5423 121.317 40.3467 121.654 40.08C121.991 39.8134 122.27 39.4813 122.474 39.1043C122.678 38.7273 122.803 38.3134 122.84 37.888C122.877 37.4627 122.826 37.0349 122.69 36.6311C122.649 36.5115 122.6 36.3946 122.545 36.2811C122.517 36.2224 122.512 36.1557 122.53 36.0932C122.549 36.0307 122.589 35.9767 122.644 35.9413C123.799 35.2091 124.838 34.309 125.726 33.2713C125.768 33.2216 125.828 33.189 125.893 33.1796C125.957 33.1702 126.023 33.1848 126.078 33.2205C126.184 33.2903 126.294 33.3538 126.407 33.4107C126.777 33.5989 127.181 33.712 127.597 33.7433C128.012 33.7746 128.43 33.7236 128.827 33.5931C129.223 33.4626 129.59 33.2553 129.907 32.9832C130.223 32.7111 130.482 32.3797 130.669 32.0081C130.856 31.6366 130.967 31.2324 130.996 30.819C131.025 30.4057 130.97 29.9913 130.836 29.6001C130.702 29.2089 130.491 28.8486 130.215 28.5402C129.939 28.2318 129.604 27.9814 129.229 27.8036C129.113 27.7476 128.994 27.699 128.872 27.6579C128.81 27.6367 128.759 27.5936 128.727 27.5369C128.696 27.4803 128.686 27.4139 128.7 27.3504C129.001 26.0245 129.101 24.6627 128.995 23.3105C128.99 23.2458 129.009 23.1814 129.048 23.1293C129.088 23.0772 129.145 23.0409 129.209 23.0272C129.334 23.0023 129.458 22.9697 129.579 22.9294C129.988 22.7936 130.365 22.576 130.687 22.2902C131.009 22.0043 131.27 21.6563 131.452 21.2677C131.634 20.879 131.734 20.4579 131.746 20.0304C131.758 19.603 131.682 19.1783 131.522 18.7825C131.362 18.3868 131.122 18.0285 130.816 17.7297C130.511 17.4309 130.146 17.1981 129.745 17.0455C129.345 16.893 128.916 16.824 128.486 16.8429C128.056 16.8617 127.634 16.968 127.246 17.1551C127.187 17.1849 127.119 17.1915 127.056 17.1737C126.992 17.1559 126.938 17.115 126.904 17.0592C126.175 15.9168 125.277 14.8906 124.241 14.0146C124.191 13.9729 124.158 13.9144 124.149 13.8501C124.14 13.7859 124.155 13.7204 124.191 13.6659C124.263 13.5606 124.327 13.4508 124.385 13.3372C124.58 12.9681 124.699 12.5646 124.736 12.1503C124.772 11.736 124.725 11.3193 124.598 10.9244C124.47 10.5295 124.264 10.1645 123.993 9.85064C123.721 9.53679 123.388 9.28043 123.014 9.09656C122.641 8.91269 122.233 8.80501 121.816 8.77981C121.399 8.75461 120.98 8.8124 120.584 8.94979C120.188 9.08719 119.824 9.30143 119.511 9.57999C119.199 9.85856 118.945 10.1958 118.764 10.5721C118.707 10.6859 118.657 10.8034 118.616 10.9239C118.593 10.985 118.55 11.0362 118.492 11.0677C118.435 11.0993 118.368 11.1092 118.304 11.0955C116.972 10.8059 115.603 10.7171 114.241 10.8321C114.176 10.8374 114.111 10.819 114.059 10.7803C114.007 10.7415 113.971 10.6851 113.958 10.6217C113.934 10.497 113.902 10.3739 113.862 10.2532C113.747 9.84726 113.55 9.46932 113.283 9.14225C113.017 8.81518 112.685 8.54577 112.31 8.35033C111.934 8.15488 111.522 8.03746 111.098 8.00516C110.675 7.97286 110.248 8.02635 109.844 8.1624C109.441 8.29846 109.069 8.51424 108.75 8.7967C108.432 9.07917 108.174 9.42245 107.992 9.80577C107.811 10.1891 107.709 10.6045 107.693 11.0269C107.677 11.4492 107.747 11.8698 107.9 12.2631C107.941 12.3832 107.989 12.5006 108.045 12.6147C108.073 12.673 108.08 12.7399 108.062 12.8028C108.044 12.8656 108.004 12.92 107.949 12.9556C106.794 13.6882 105.755 14.5882 104.867 15.6256C104.824 15.6751 104.765 15.7076 104.7 15.7169C104.635 15.7263 104.57 15.7119 104.515 15.6764C104.409 15.6062 104.299 15.5427 104.186 15.4862C103.44 15.1191 102.576 15.0622 101.784 15.3283C100.992 15.5943 100.336 16.1614 99.9612 16.9047C99.5862 17.6481 99.5227 18.5069 99.7846 19.2922C100.046 20.0775 100.612 20.7249 101.358 21.0921C101.472 21.148 101.59 21.1964 101.711 21.237C101.772 21.2588 101.823 21.302 101.855 21.3587C101.886 21.4154 101.895 21.4817 101.881 21.5451C101.58 22.8714 101.481 24.2335 101.587 25.5861C101.591 25.6506 101.572 25.7148 101.533 25.7668C101.493 25.8187 101.437 25.8547 101.373 25.8683C101.247 25.8932 101.124 25.9258 101.002 25.9661C100.61 26.0981 100.247 26.3054 99.9349 26.5762C99.6223 26.8469 99.366 27.1757 99.1806 27.544C98.8062 28.2876 98.7433 29.1465 99.0058 29.9315C99.2683 30.7166 99.8347 31.3636 100.58 31.7302C101.326 32.0968 102.19 32.153 102.982 31.8863C103.103 31.8453 103.222 31.7964 103.337 31.7399C103.396 31.7129 103.462 31.708 103.524 31.726C103.586 31.744 103.639 31.7837 103.674 31.8378C104.403 32.9804 105.301 34.0065 106.339 34.8819C106.388 34.924 106.42 34.9826 106.429 35.0469C106.438 35.1112 106.423 35.1767 106.387 35.2311C106.316 35.3368 106.251 35.4466 106.193 35.5598C105.819 36.3034 105.756 37.1621 106.018 37.9472C106.28 38.7323 106.846 39.3794 107.592 39.7462C108.338 40.1129 109.201 40.1693 109.993 39.9029C110.785 39.6364 111.441 39.069 111.815 38.3255C111.871 38.211 111.921 38.0935 111.964 37.9737C111.976 37.9395 111.995 37.9081 112.02 37.8814C112.045 37.8547 112.075 37.8334 112.109 37.8187ZM118.026 30.4071C117.813 30.5045 117.595 30.5904 117.373 30.6645C115.741 31.2109 113.963 31.1042 112.419 30.367C110.874 29.6298 109.684 28.3204 109.103 26.7176C108.522 25.1148 108.595 23.3453 109.307 21.786C110.019 20.2266 111.314 19.0006 112.915 18.369C114.516 17.7374 116.298 17.7501 117.88 18.4045C119.463 19.0589 120.721 20.3032 121.387 21.8724C122.054 23.4416 122.075 25.2118 121.447 26.8059C120.819 28.4001 119.591 29.6922 118.026 30.4071ZM112.777 18.971C111.333 19.6301 110.201 20.8212 109.622 22.2907C109.043 23.7603 109.063 25.3921 109.676 26.8389C110.29 28.2857 111.45 29.4331 112.909 30.0368C114.367 30.6404 116.01 30.6528 117.486 30.0711C118.963 29.4894 120.157 28.3597 120.814 26.9224C121.471 25.4852 121.539 23.8539 121.004 22.3761C120.469 20.8982 119.373 19.6904 117.95 19.0098C116.526 18.3292 114.888 18.2296 113.383 18.7322C113.177 18.8012 112.974 18.8809 112.777 18.971Z" fill="black"/>
<path d="M87.3008 150C85.0801 150 83.6385 148.206 84.0793 145.991L103.235 50.0097C103.677 47.797 105.838 46.0002 108.055 46.0002H242.699C244.92 46.0002 246.361 47.7936 245.921 50.0097L226.872 145.455C226.368 147.961 223.924 150 221.405 150H87.3008Z" fill="white"/>
<path d="M221.502 150.117H87.0001C85.8826 150.117 84.9109 149.687 84.2642 148.905C83.5998 148.101 83.3589 147.03 83.5905 145.889L102.8 49.8372C103.258 47.5453 105.509 45.6804 107.816 45.6804H242.86C243.977 45.6804 244.949 46.1109 245.596 46.8924C246.26 47.6957 246.501 48.7673 246.269 49.9091L227.168 145.421C226.65 148.011 224.109 150.117 221.502 150.117ZM107.816 46.0482C105.676 46.0482 103.589 47.7801 103.163 49.9091L83.9509 145.96C83.7446 146.992 83.9577 147.955 84.5505 148.672C85.1256 149.367 85.9955 149.75 87.0001 149.75H221.502C223.944 149.75 226.319 147.776 226.807 145.349L245.909 49.8372C246.115 48.8058 245.902 47.8428 245.31 47.1256C244.734 46.4327 243.865 46.0482 242.86 46.0482H107.816Z" fill="black"/>
<path d="M214.866 162H49.9991C43.9464 162 40.0139 157.523 41.2163 152H228C226.798 157.523 220.918 162 214.866 162Z" fill="white"/>
<path d="M215.315 162.508H50.2232C47.2752 162.508 44.7165 161.442 43.0183 159.506C41.2744 157.518 40.644 154.862 41.2414 152.028C41.2498 151.988 41.2726 151.953 41.306 151.927C41.3393 151.902 41.3811 151.888 41.4242 151.888H228.468C228.495 151.888 228.522 151.894 228.547 151.905C228.572 151.916 228.594 151.932 228.612 151.952C228.629 151.972 228.642 151.995 228.649 152.02C228.655 152.045 228.656 152.071 228.65 152.096C227.433 157.838 221.451 162.508 215.315 162.508ZM41.5815 152.236C41.0527 154.913 41.6662 157.411 43.306 159.286C44.9323 161.139 47.3886 162.16 50.2232 162.16H215.315C221.208 162.16 226.955 157.724 228.238 152.236H41.5815Z" fill="black"/>
<path d="M123.987 65.1516H116.923C114.414 65.1516 111.967 66.9479 111.487 69.1433L110.139 75.3217C109.659 77.5163 111.318 79.3125 113.827 79.3125H120.889C123.398 79.3125 125.844 77.5163 126.326 75.3217L127.674 69.1472C128.155 66.9479 126.495 65.1516 123.987 65.1516Z" fill="#D9E5FF"/>
<path d="M120.444 88.1636H113.387C110.878 88.1636 108.433 89.9599 107.952 92.1552L106.599 98.3336C106.118 100.529 107.778 102.325 110.286 102.325H117.347C119.856 102.325 122.303 100.528 122.783 98.3336L124.136 92.1552C124.612 89.9599 122.953 88.1636 120.444 88.1636Z" fill="#D9E5FF"/>
<path d="M116.53 107.635H108.763C106.003 107.635 103.313 109.431 102.784 111.627L101.296 117.803C100.768 119.999 102.593 121.796 105.353 121.796H113.119C115.879 121.796 118.569 119.999 119.098 117.803L120.585 111.623C121.114 109.431 119.289 107.635 116.53 107.635Z" fill="#D9E5FF"/>
<path d="M110.202 128.876H103.848C101.59 128.876 99.3893 130.672 98.9564 132.868L97.7395 139.046C97.3066 141.24 98.7998 143.037 101.058 143.037H107.412C109.67 143.037 111.871 141.24 112.304 139.046L113.521 132.867C113.954 130.672 112.46 128.876 110.202 128.876Z" fill="#D9E5FF"/>
<path d="M225.113 66.9216L224.24 70.4619H133.067L133.941 66.9216H225.113Z" fill="#D9E5FF"/>
<path d="M195.021 74.0024L194.194 79.3128H133.067L133.895 74.0024H195.021Z" fill="#D9E5FF"/>
<path d="M218.033 88.1636L217.194 93.4739H129.527L130.366 88.1636H218.033Z" fill="#D9E5FF"/>
<path d="M193.252 95.2439L192.378 100.554H127.758L128.632 95.2439H193.252Z" fill="#D9E5FF"/>
<path d="M214.493 109.405L213.653 112.945H125.987L126.827 109.405H214.493Z" fill="#D9E5FF"/>
<path d="M170.24 116.485L169.376 120.025H124.217L125.082 116.485H170.24Z" fill="#D9E5FF"/>
<path d="M210.953 128.876L210.113 134.186H122.447L123.286 128.876H210.953Z" fill="#D9E5FF"/>
<path d="M184.401 134.186L183.55 141.266H120.677L121.528 134.186H184.401Z" fill="#D9E5FF"/>
<path d="M205.459 61.6112H141.915C140.665 61.6112 139.904 60.6887 140.219 59.551L141.036 56.591C141.351 55.4548 142.619 54.5308 143.868 54.5308H207.416C208.665 54.5308 209.426 55.4533 209.111 56.591L208.293 59.551C207.979 60.6887 206.71 61.6112 205.459 61.6112Z" fill="#90AAFF"/>
<path d="M67.6913 66.0239C67.6913 66.0239 70.3537 88.2178 61.565 88.4928C54.7852 88.7035 47.5867 84.0609 47.4721 83.5437C47.3574 83.0264 46.8945 69.3133 46.8945 69.3133L67.6913 66.0239Z" fill="white"/>
<path d="M61.1105 88.8014C54.3997 88.8014 47.3477 84.3832 47.1737 83.6101C47.0535 83.0792 46.6348 70.733 46.5878 69.3264C46.5852 69.253 46.6097 69.1813 46.6568 69.1246C46.7039 69.0679 46.7703 69.0301 46.8434 69.0185L67.643 65.725C67.6835 65.7184 67.7249 65.7199 67.7648 65.7295C67.8047 65.7392 67.8422 65.7567 67.8751 65.7811C67.94 65.8317 67.9826 65.9053 67.9939 65.9864C68.0699 66.6267 69.8163 81.7328 65.2375 87.0007C64.2427 88.146 63.0103 88.7494 61.5747 88.7932C61.4214 88.7987 61.2652 88.8014 61.1105 88.8014ZM47.7622 83.4486C48.3011 84.1547 54.9193 88.1994 61.1215 88.1994C61.2666 88.1994 61.4117 88.1994 61.5554 88.1994C62.8141 88.1597 63.8973 87.626 64.7774 86.6149C68.8326 81.949 67.6513 68.5916 67.4233 66.3763L47.2041 69.5781C47.3851 74.9186 47.6724 82.7412 47.7622 83.4486Z" fill="black"/>
<path d="M59.8654 82.942L54.8376 98.6269L38.1125 94.9119L47.1389 71.8711L59.8654 82.942Z" fill="white"/>
<path d="M54.838 98.9276C54.8156 98.9275 54.7933 98.9248 54.7716 98.9194L38.0535 95.2045C38.0109 95.195 37.9708 95.1765 37.936 95.1503C37.9012 95.1241 37.8726 95.0907 37.852 95.0526C37.8314 95.0144 37.8194 94.9722 37.8167 94.929C37.8141 94.8858 37.8209 94.8426 37.8366 94.8022L46.863 71.7627C46.8765 71.7246 46.8975 71.6895 46.9249 71.6597C46.9524 71.6298 46.9856 71.6056 47.0226 71.5887C47.0596 71.5718 47.0997 71.5624 47.1405 71.5612C47.1812 71.5599 47.2218 71.5668 47.2599 71.5814C47.2979 71.596 47.3325 71.618 47.3618 71.6462C47.391 71.6743 47.4143 71.708 47.4301 71.7452C47.4459 71.7824 47.454 71.8224 47.4539 71.8628C47.4538 71.9032 47.4455 71.9431 47.4295 71.9803L38.5316 94.6941L54.639 98.2722L59.577 82.8542C59.6014 82.778 59.6554 82.7145 59.727 82.6776C59.7986 82.6408 59.8821 82.6337 59.9591 82.6578C60.036 82.682 60.1002 82.7354 60.1373 82.8063C60.1745 82.8773 60.1817 82.9599 60.1573 83.0362L55.1281 98.7169C55.1085 98.7779 55.0698 98.8312 55.0177 98.8691C54.9656 98.9069 54.9026 98.9274 54.838 98.9276Z" fill="black"/>
<path d="M59.6001 72.2882C59.6001 72.2882 62.3814 71.2237 61.0964 75.9252L59.6001 72.2882Z" fill="white"/>
<path d="M61.0966 76.2264C61.0696 76.2266 61.0427 76.2234 61.0165 76.2168C60.9388 76.1957 60.8727 76.145 60.8326 76.0758C60.7925 76.0066 60.7816 75.9245 60.8023 75.8474C61.402 73.6444 61.04 72.9151 60.7719 72.6757C60.3768 72.324 59.7122 72.5662 59.7053 72.5689C59.63 72.5978 59.5462 72.5958 59.4723 72.5635C59.3985 72.5312 59.3407 72.4711 59.3115 72.3965C59.2824 72.3219 59.2844 72.239 59.317 72.1658C59.3497 72.0927 59.4103 72.0354 59.4856 72.0065C59.5271 71.9915 60.5025 71.6262 61.1781 72.2282C61.8538 72.8303 61.9118 74.0877 61.3895 76.0034C61.3724 76.0674 61.3344 76.1239 61.2815 76.1643C61.2285 76.2046 61.1635 76.2265 61.0966 76.2264Z" fill="black"/>
<path d="M55.5493 173.462L9.43088 180.68C4.1405 181.501 -0.102577 177.332 0.468049 172.059C2.3554 154.545 7.60709 123.758 19.7229 104.145C31.5292 85.0437 68.7096 90.5361 80.6057 108.433C85.8022 116.255 93.9705 127.978 100.597 137.406C106.129 145.278 102.823 156.195 93.842 159.767C90.8896 160.939 87.638 161.156 84.5535 160.386C81.469 159.615 78.71 157.897 76.6721 155.478L75.3333 153.891L78.3315 164.427L55.5493 173.462Z" fill="#90AAFF"/>
<path d="M75.3278 154.192C75.2754 154.192 75.2237 154.179 75.1779 154.154C75.1321 154.128 75.0938 154.091 75.0667 154.047L56.721 124.144C56.6971 124.11 56.6805 124.072 56.6722 124.031C56.6638 123.991 56.664 123.949 56.6726 123.909C56.6812 123.868 56.6981 123.83 56.7222 123.796C56.7463 123.762 56.7772 123.734 56.8128 123.712C56.8485 123.691 56.8882 123.677 56.9296 123.671C56.9709 123.666 57.013 123.668 57.0532 123.68C57.0934 123.691 57.1309 123.71 57.1634 123.736C57.1958 123.762 57.2226 123.794 57.2419 123.831L75.5876 153.732C75.6159 153.778 75.6315 153.83 75.6326 153.883C75.6338 153.937 75.6205 153.989 75.5941 154.036C75.5678 154.083 75.5293 154.121 75.4827 154.148C75.4362 154.175 75.3832 154.189 75.3292 154.189L75.3278 154.192Z" fill="black"/>
<path d="M8.9917 180.302L13.0759 191.189C22.141 215.393 50.8643 225.902 73.6451 213.346L131.184 179.541C134.984 177.31 137.793 173.74 139.047 169.546C140.302 165.352 139.911 160.843 137.951 156.922C135.992 153.002 132.609 149.959 128.481 148.403C124.353 146.847 119.783 146.894 115.688 148.533L55.8314 172.448L8.9917 180.302Z" fill="white"/>
<path d="M52.9629 218.969C44.2155 218.966 35.6783 216.313 28.4974 211.366C21.3166 206.419 15.8359 199.415 12.7911 191.293L8.70694 180.406C8.69306 180.369 8.68669 180.329 8.68821 180.29C8.68972 180.25 8.69908 180.211 8.71576 180.175C8.73244 180.139 8.75611 180.107 8.78541 180.08C8.81472 180.053 8.84908 180.032 8.88655 180.019C8.92402 180.005 8.96385 179.999 9.00378 180C9.04371 180.002 9.08295 180.011 9.11925 180.027C9.15556 180.044 9.18823 180.067 9.2154 180.096C9.24256 180.125 9.26368 180.159 9.27756 180.197L13.3618 191.087C15.4795 196.741 18.8067 201.874 23.1153 206.135C27.4239 210.396 32.612 213.685 38.3239 215.774C44.0357 217.864 50.1364 218.705 56.2075 218.241C62.2786 217.778 68.1766 216.019 73.4972 213.086L131.03 179.289C134.762 177.097 137.521 173.589 138.753 169.468C139.985 165.347 139.6 160.917 137.675 157.065C135.75 153.213 132.426 150.223 128.37 148.694C124.314 147.166 119.825 147.211 115.801 148.82L65.4186 168.942C65.3816 168.957 65.342 168.965 65.302 168.964C65.2621 168.964 65.2227 168.956 65.1859 168.94C65.1491 168.925 65.1158 168.902 65.0878 168.874C65.0598 168.846 65.0377 168.813 65.0227 168.776C65.0078 168.739 65.0002 168.7 65.0006 168.661C65.0009 168.621 65.0091 168.582 65.0247 168.546C65.0403 168.509 65.063 168.476 65.0914 168.448C65.1199 168.421 65.1536 168.399 65.1906 168.384L115.573 148.259C119.738 146.599 124.382 146.557 128.577 148.141C132.772 149.725 136.209 152.819 138.2 156.804C140.192 160.789 140.592 165.371 139.32 169.635C138.048 173.899 135.198 177.531 131.339 179.804L73.7997 213.605C67.4288 217.121 60.2565 218.968 52.9629 218.969Z" fill="black"/>
<path d="M66.1023 161.166C66.7928 160.899 67.5499 160.85 68.2697 161.025C68.9896 161.201 69.6369 161.593 70.1229 162.147C69.7568 160.44 70.6148 158.691 72.241 158.043C73.8672 157.394 75.6717 158.043 76.6181 159.481C76.5463 157.975 77.4886 156.498 78.8136 155.981C81.4595 154.919 83.0774 157.31 83.7047 158.843C83.5472 157.274 84.3955 155.747 85.8891 155.149C87.7239 154.414 89.8379 155.351 90.6116 157.243L92.1314 160.954C92.9051 162.847 92.0457 164.977 90.2123 165.712C89.533 165.975 88.789 166.027 88.0792 165.861C87.3694 165.695 86.7274 165.319 86.2386 164.783C86.6918 166.538 85.8352 168.373 84.1592 169.045C82.551 169.691 80.7286 169.045 79.7821 167.607C79.8526 169.112 79.0194 170.532 77.5867 171.108C76.0212 171.735 74.2555 171.143 73.2883 169.78C73.4016 171.315 72.5616 172.79 71.0984 173.378C69.2635 174.113 67.1496 173.176 66.3745 171.284L64.1846 165.929C63.4094 164.032 64.2744 161.901 66.1023 161.166Z" fill="white"/>
<path d="M69.8011 173.923C68.9987 173.913 68.2173 173.667 67.5566 173.216C66.8959 172.765 66.3858 172.129 66.0914 171.39L63.9 166.037C63.4963 165.065 63.4899 163.976 63.8821 162.999C64.0694 162.524 64.3528 162.091 64.7149 161.728C65.0769 161.365 65.5101 161.078 65.9877 160.887C66.6035 160.647 67.2713 160.567 67.9271 160.655C68.5829 160.744 69.2048 160.997 69.7334 161.392C69.7094 160.62 69.9233 159.86 70.3467 159.212C70.7702 158.564 71.383 158.06 72.1034 157.765C72.8238 157.471 73.6177 157.402 74.3792 157.566C75.1406 157.73 75.8335 158.12 76.3654 158.684C76.5878 157.359 77.4887 156.173 78.7045 155.697C80.8323 154.844 82.4668 156.021 83.4602 157.67C83.579 157.047 83.8534 156.464 84.2584 155.974C84.6634 155.484 85.1861 155.102 85.7786 154.864C87.7641 154.067 90.0618 155.081 90.8908 157.124L92.4106 160.835C92.8146 161.807 92.8215 162.896 92.4299 163.872C92.2178 164.408 91.8846 164.888 91.456 165.276C91.0273 165.664 90.5146 165.949 89.9572 166.11C89.3998 166.271 88.8125 166.303 88.2405 166.205C87.6684 166.106 87.1269 165.879 86.6574 165.54C86.7265 167.17 85.7952 168.708 84.2712 169.318C83.5534 169.597 82.7683 169.658 82.0153 169.495C81.2622 169.331 80.575 168.95 80.0406 168.4C79.9433 169.096 79.6522 169.751 79.2 170.292C78.7478 170.833 78.1524 171.238 77.4805 171.463C76.8086 171.687 76.0868 171.722 75.3962 171.563C74.7055 171.404 74.0732 171.057 73.5703 170.562C73.4909 171.239 73.2302 171.882 72.8153 172.426C72.4003 172.969 71.8463 173.393 71.2104 173.653C70.7625 173.832 70.284 173.923 69.8011 173.923ZM67.3887 161.219C66.9867 161.219 66.5883 161.295 66.2157 161.445C65.8137 161.606 65.4493 161.847 65.145 162.153C64.8406 162.459 64.6026 162.823 64.4458 163.224C64.1131 164.056 64.1196 164.984 64.4638 165.811L66.6537 171.165C67.3639 172.9 69.3051 173.765 70.981 173.095C71.6241 172.826 72.1642 172.361 72.5233 171.768C72.8824 171.175 73.0419 170.484 72.9789 169.796C72.974 169.73 72.991 169.664 73.0274 169.609C73.0638 169.554 73.1175 169.512 73.1804 169.49C73.2432 169.468 73.3116 169.467 73.3751 169.487C73.4385 169.507 73.4935 169.547 73.5316 169.601C74.4421 170.885 76.06 171.38 77.4666 170.823C78.0949 170.56 78.6252 170.109 78.9844 169.535C79.3437 168.96 79.5143 168.289 79.4727 167.615C79.4717 167.55 79.4915 167.487 79.5293 167.435C79.5671 167.382 79.6209 167.343 79.6827 167.324C79.7445 167.304 79.8112 167.304 79.8729 167.324C79.9346 167.345 79.988 167.384 80.0254 167.437C80.9083 168.781 82.5925 169.337 84.0322 168.76C85.5355 168.158 86.352 166.478 85.932 164.852C85.9174 164.788 85.9244 164.721 85.9521 164.661C85.9798 164.601 86.0265 164.552 86.0852 164.521C86.1438 164.489 86.2112 164.478 86.2768 164.489C86.3425 164.499 86.4029 164.531 86.4487 164.578C87.4062 165.601 88.8335 165.936 90.0853 165.434C90.4869 165.272 90.8511 165.031 91.1554 164.725C91.4597 164.419 91.6978 164.055 91.8552 163.655C92.1885 162.822 92.1821 161.894 91.8372 161.066L90.3174 157.355C89.6086 155.62 87.6674 154.755 85.9914 155.427C84.6471 155.966 83.8457 157.328 83.9949 158.817C84.0004 158.888 83.98 158.959 83.9372 159.017C83.8945 159.075 83.8322 159.116 83.7618 159.132C83.6913 159.149 83.6171 159.14 83.5527 159.107C83.4883 159.074 83.4379 159.02 83.4105 158.953C83.0402 158.046 81.6143 155.173 78.9159 156.255C77.7056 156.728 76.8434 158.108 76.9098 159.464C76.9108 159.528 76.891 159.591 76.8532 159.644C76.8154 159.696 76.7616 159.735 76.6998 159.755C76.6379 159.775 76.5713 159.775 76.5096 159.754C76.4479 159.734 76.3945 159.694 76.3571 159.642C75.4756 158.297 73.79 157.741 72.3503 158.318C70.8885 158.904 70.0747 160.489 70.4159 162.084C70.4301 162.149 70.4221 162.217 70.3933 162.277C70.3645 162.337 70.3165 162.385 70.2567 162.416C70.197 162.446 70.1288 162.455 70.0629 162.443C69.997 162.431 69.937 162.398 69.8923 162.348C69.5783 161.997 69.1933 161.715 68.7623 161.521C68.3312 161.326 67.8637 161.223 67.3901 161.219H67.3887Z" fill="black"/>
<path d="M73.2875 170.077C73.226 170.076 73.166 170.058 73.1154 170.023C73.0648 169.988 73.0261 169.939 73.0042 169.882L70.5242 163.502C70.495 163.427 70.497 163.344 70.5297 163.271C70.5623 163.198 70.623 163.141 70.6983 163.112C70.7736 163.083 70.8574 163.085 70.9312 163.117C71.005 163.15 71.0629 163.21 71.092 163.284L73.5721 169.666C73.6009 169.741 73.5986 169.824 73.5657 169.897C73.5328 169.97 73.472 170.027 73.3966 170.056C73.3619 170.07 73.3248 170.076 73.2875 170.077Z" fill="black"/>
<path d="M79.7855 167.931C79.7253 167.93 79.6668 167.911 79.6176 167.876C79.5684 167.842 79.5306 167.794 79.5092 167.738L77.0222 161.356C76.9933 161.282 76.9954 161.199 77.0282 161.126C77.061 161.053 77.1217 160.996 77.197 160.967C77.2723 160.938 77.356 160.941 77.4297 160.973C77.5034 161.005 77.5611 161.066 77.5901 161.14L80.0771 167.522C80.0915 167.559 80.0985 167.598 80.0976 167.638C80.0966 167.677 80.0878 167.716 80.0716 167.752C80.0555 167.788 80.0322 167.821 80.0033 167.848C79.9743 167.875 79.9402 167.896 79.903 167.911C79.8656 167.925 79.8257 167.932 79.7855 167.931Z" fill="black"/>
<path d="M86.2085 165.056C86.1493 165.055 86.0916 165.038 86.0425 165.005C85.9934 164.972 85.9551 164.926 85.9322 164.872L83.3734 158.776C83.358 158.739 83.3501 158.7 83.3501 158.66C83.3501 158.621 83.3579 158.582 83.3732 158.545C83.3884 158.508 83.4108 158.475 83.4391 158.447C83.4673 158.419 83.5009 158.397 83.5378 158.382C83.5747 158.367 83.6143 158.359 83.6543 158.359C83.6943 158.359 83.7339 158.366 83.7708 158.381C83.8078 158.397 83.8413 158.419 83.8696 158.447C83.8979 158.475 83.9204 158.508 83.9357 158.545L86.4932 164.64C86.5087 164.677 86.5168 164.716 86.517 164.755C86.5171 164.795 86.5093 164.834 86.494 164.871C86.4787 164.907 86.4562 164.94 86.4278 164.968C86.3995 164.996 86.3658 165.018 86.3287 165.033C86.2908 165.049 86.2498 165.057 86.2085 165.056Z" fill="black"/>
<path d="M64.7138 55.4241C69.6256 55.8031 74.6825 64.8175 61.9339 71.3661C61.9339 71.3661 60.1129 69.1837 57.9078 71.2704C55.7026 73.357 58.7699 77.8191 58.7699 77.8191C58.7699 77.8191 27.7862 118.575 40.9465 127.543C48.442 132.652 14.4863 135.492 5.36045 119.429C-4.34986 102.349 2.57364 88.6615 9.598 82.8544C22.7528 71.9586 29.7329 72.4553 39.4322 61.3543C44.2072 55.8907 56.0384 48.1173 64.7138 55.4241Z" fill="black"/>
<path d="M14.0579 34.7869C12.0066 34.4139 10.6781 32.2378 11.0966 29.9361C11.515 27.6344 13.5244 26.0651 15.5757 26.438C17.627 26.811 18.9555 28.9871 18.5371 31.2888C18.1186 33.5905 16.1092 35.1598 14.0579 34.7869ZM15.3708 27.5651C13.8733 27.2928 12.408 28.4387 12.1028 30.1173C11.7973 31.7976 12.7674 33.3845 14.2634 33.6564C15.7609 33.9287 17.2263 32.7828 17.5314 31.1042C17.8366 29.4256 16.8683 27.8373 15.3708 27.5651Z" fill="black"/>
<path d="M8.55573 49.9577C6.79815 49.6382 5.62142 47.9731 5.93522 46.247C6.24903 44.5209 7.93469 43.3762 9.69408 43.6961C11.4517 44.0156 12.6266 45.6803 12.3128 47.4064C11.999 49.1325 10.3133 50.2772 8.55573 49.9577ZM9.48036 44.8717C8.38277 44.6722 7.33003 45.387 7.13407 46.465C6.9381 47.5429 7.67187 48.5825 8.76946 48.7821C9.86704 48.9816 10.9198 48.2667 11.1157 47.1888C11.3117 46.1109 10.5779 45.0712 9.48036 44.8717Z" fill="black"/>
<path d="M36.6054 16.9257C36.4373 16.8951 36.2807 16.8011 36.176 16.6529C35.9653 16.3545 36.0396 15.9459 36.3418 15.7407L38.0893 14.5544C38.3916 14.3492 38.8077 14.4249 39.0184 14.7233C39.2291 15.0218 39.1548 15.4304 38.8526 15.6355L37.1051 16.8218C36.9533 16.9234 36.7736 16.9562 36.6054 16.9257Z" fill="black"/>
<path d="M29.2529 21.9166C29.0847 21.8861 28.9281 21.7921 28.8235 21.6439C28.6128 21.3454 28.687 20.9369 28.9893 20.7317L30.7368 19.5454C31.039 19.3402 31.4552 19.4159 31.6659 19.7143C31.8766 20.0128 31.8023 20.4213 31.5 20.6265L29.7526 21.8128C29.5987 21.9158 29.4194 21.9469 29.2529 21.9166Z" fill="black"/>
<path d="M36.9745 23.3202C36.8063 23.2897 36.6497 23.1957 36.545 23.0475L35.3269 21.3221C35.1162 21.0236 35.1905 20.6151 35.4927 20.4099C35.795 20.2047 36.2111 20.2803 36.4218 20.5788L37.64 22.3042C37.8507 22.6026 37.7764 23.0112 37.4741 23.2164C37.322 23.3197 37.1426 23.3508 36.9745 23.3202Z" fill="black"/>
<path d="M31.8492 16.061C31.6811 16.0304 31.5245 15.9364 31.4198 15.7882L30.2017 14.0628C29.991 13.7643 30.0652 13.3558 30.3675 13.1506C30.6698 12.9454 31.0859 13.0211 31.2966 13.3195L32.5147 15.0449C32.7254 15.3434 32.6512 15.7519 32.3489 15.9571C32.1954 16.0584 32.0157 16.0912 31.8492 16.061Z" fill="black"/>
</svg>
