<svg width="314" height="170" viewBox="0 0 314 170" fill="none" xmlns="http://www.w3.org/2000/svg">
<path d="M238.098 263.602C213.205 272.902 186.476 272.484 159.654 265.809L159.271 265.726C123.459 256.752 87.3437 236.794 55.3853 214.156C27.6934 194.352 1.60955 172.52 -22.6015 148.883C-43.2099 129.001 -55.8024 114.495 -56.2431 113.918C-57.5497 112.2 -58.7305 110.419 -58.7305 110.419C-59.6073 109.134 -60.4436 107.768 -61.2217 106.422L-61.3157 106.352L-61.537 105.939C-67.573 95.3983 -70.6666 83.7175 -70.5024 72.087C-70.2437 58.005 -65.0651 44.73 -55.7763 34.3379C-44.9308 21.8569 -31.1289 12.0216 -15.3671 5.54197C20.9528 -8.97933 76.2464 -7.56145 114 16.994C128.359 26.3611 146.335 42.1409 174.366 45.758C180.796 46.5963 182.977 46.8067 188.992 47.538C197.614 48.5726 241.817 53.9095 275.166 84.628C283.346 92.1513 309.661 118.52 313.063 156.726C317.701 208.95 276.061 249.339 238.098 263.602Z" fill="#D9E5FF" fill-opacity="0.26"/>
</svg>
