<svg width="98" height="94" viewBox="0 0 98 94" fill="none" xmlns="http://www.w3.org/2000/svg">
<g clip-path="url(#clip0_875_17444)">
<path d="M62.0976 21.1403H35.9244C35.3279 21.141 34.7561 21.3762 34.3344 21.7943C33.9126 22.2125 33.6754 22.7794 33.6747 23.3707V81.0414L33.3747 81.1321L26.954 83.0814C26.6497 83.1734 26.321 83.142 26.0401 82.9939C25.7592 82.8459 25.549 82.5934 25.4557 82.2919L6.35704 20.4429C6.2641 20.1412 6.29578 19.8153 6.44511 19.5367C6.59445 19.2582 6.84923 19.0498 7.15345 18.9575L17.0477 15.9538L45.7317 7.24934L55.6259 4.24573C55.7765 4.19979 55.9347 4.18373 56.0915 4.19849C56.2484 4.21324 56.4007 4.25851 56.5399 4.33171C56.6791 4.40491 56.8023 4.5046 56.9026 4.62507C57.0029 4.74555 57.0782 4.88444 57.1242 5.03381L62.0061 20.8429L62.0976 21.1403Z" fill="#F2F2F2"/>
<path d="M67.8102 20.8441L61.9264 1.79052C61.8286 1.47305 61.6685 1.17782 61.4555 0.921691C61.2425 0.665563 60.9806 0.453561 60.6849 0.297799C60.3892 0.142036 60.0655 0.0455649 59.7322 0.0139008C59.3988 -0.0177632 59.0625 0.0160007 58.7423 0.11326L44.8316 4.33466L16.1492 13.0407L2.23842 17.2635C1.5922 17.4603 1.05111 17.9032 0.733917 18.495C0.416728 19.0868 0.349352 19.7793 0.546583 20.4203L20.6561 85.5375C20.8163 86.055 21.1396 86.5079 21.5785 86.8299C22.0174 87.1518 22.5489 87.3258 23.0948 87.3263C23.3475 87.3264 23.5988 87.2888 23.8402 87.2148L33.376 84.3212L33.676 84.229V83.9183L33.376 84.009L23.7517 86.9308C23.1813 87.1032 22.5652 87.0442 22.0386 86.7669C21.512 86.4895 21.1178 86.0164 20.9426 85.4513L0.834608 20.3326C0.747782 20.0526 0.717522 19.7583 0.745557 19.4667C0.773592 19.1751 0.859371 18.8918 0.997987 18.6331C1.1366 18.3744 1.32533 18.1454 1.55336 17.9591C1.78139 17.7728 2.04425 17.633 2.32688 17.5475L16.2376 13.3247L44.9201 4.62015L58.8309 0.397267C59.0453 0.332406 59.2681 0.299336 59.4923 0.299128C59.9733 0.300199 60.4413 0.453942 60.8278 0.737837C61.2143 1.02173 61.4989 1.42086 61.64 1.87676L67.4968 20.8441L67.5898 21.1415H67.9018L67.8102 20.8441Z" fill="#3F3D56"/>
<path d="M18.8333 19.0061C18.5442 19.0059 18.2628 18.9138 18.0304 18.7435C17.7979 18.5731 17.6267 18.3333 17.5418 18.0594L15.61 11.8036C15.558 11.6356 15.54 11.459 15.5569 11.2841C15.5739 11.1092 15.6254 10.9392 15.7085 10.784C15.7917 10.6288 15.9049 10.4914 16.0416 10.3795C16.1784 10.2677 16.336 10.1837 16.5055 10.1323L42.8931 2.12308C43.2354 2.01952 43.6052 2.05484 43.9212 2.22129C44.2373 2.38774 44.4739 2.67171 44.579 3.01089L46.5108 9.26675C46.6152 9.60613 46.5795 9.9727 46.4116 10.286C46.2438 10.5994 45.9574 10.8339 45.6153 10.9382L19.2277 18.9474C19.0999 18.9862 18.967 19.006 18.8333 19.0061Z" fill="#494CA8"/>
<path d="M28.9528 6.68442C30.6094 6.68442 31.9524 5.35298 31.9524 3.71056C31.9524 2.06814 30.6094 0.736694 28.9528 0.736694C27.2961 0.736694 25.9531 2.06814 25.9531 3.71056C25.9531 5.35298 27.2961 6.68442 28.9528 6.68442Z" fill="#494CA8"/>
<path d="M28.9532 5.59374C30.0022 5.59374 30.8526 4.75063 30.8526 3.7106C30.8526 2.67057 30.0022 1.82745 28.9532 1.82745C27.9041 1.82745 27.0537 2.67057 27.0537 3.7106C27.0537 4.75063 27.9041 5.59374 28.9532 5.59374Z" fill="white"/>
<path d="M90.8181 86.5653H40.1245C39.7865 86.5649 39.4624 86.4316 39.2234 86.1947C38.9844 85.9578 38.85 85.6365 38.8496 85.3014V25.0807C38.85 24.7456 38.9844 24.4243 39.2234 24.1874C39.4624 23.9504 39.7865 23.8171 40.1245 23.8168H90.8181C91.1561 23.8172 91.4801 23.9504 91.7191 24.1874C91.9581 24.4243 92.0926 24.7456 92.093 25.0807V85.3014C92.0926 85.6365 91.9581 85.9578 91.7191 86.1947C91.4801 86.4316 91.1561 86.5649 90.8181 86.5653Z" fill="#E6E6E6"/>
<path d="M67.4957 20.8429H35.9247C35.2488 20.8438 34.6008 21.1105 34.1228 21.5843C33.6449 22.0582 33.376 22.7006 33.375 23.3707V84.0078L33.675 83.9171V23.3707C33.6757 22.7794 33.9129 22.2125 34.3347 21.7943C34.7564 21.3762 35.3282 21.141 35.9247 21.1403H67.5887L67.4957 20.8429ZM95.0173 20.8429H35.9247C35.2488 20.8438 34.6008 21.1105 34.1228 21.5843C33.6449 22.0582 33.376 22.7006 33.375 23.3707V91.4722C33.376 92.1423 33.6449 92.7847 34.1228 93.2586C34.6008 93.7324 35.2488 93.999 35.9247 94H95.0173C95.6932 93.999 96.3412 93.7324 96.8191 93.2586C97.2971 92.7847 97.566 92.1423 97.567 91.4722V23.3707C97.566 22.7006 97.2971 22.0582 96.8191 21.5843C96.3412 21.1105 95.6932 20.8438 95.0173 20.8429ZM97.267 91.4722C97.2663 92.0635 97.029 92.6304 96.6073 93.0485C96.1855 93.4667 95.6137 93.7019 95.0173 93.7026H35.9247C35.3282 93.7019 34.7564 93.4667 34.3347 93.0485C33.9129 92.6304 33.6757 92.0635 33.675 91.4722V23.3707C33.6757 22.7794 33.9129 22.2125 34.3347 21.7943C34.7564 21.3762 35.3282 21.141 35.9247 21.1403H95.0173C95.6137 21.141 96.1855 21.3762 96.6073 21.7943C97.029 22.2125 97.2663 22.7794 97.267 23.3707V91.4722Z" fill="#3F3D56"/>
<path d="M79.2696 27.3854H51.6731C51.3152 27.385 50.9721 27.2439 50.719 26.993C50.466 26.7421 50.3236 26.402 50.3232 26.0472V19.5047C50.3236 19.1499 50.466 18.8097 50.719 18.5588C50.9721 18.308 51.3152 18.1668 51.6731 18.1664H79.2696C79.6275 18.1668 79.9706 18.308 80.2237 18.5588C80.4767 18.8097 80.6191 19.1499 80.6195 19.5047V26.0472C80.6191 26.402 80.4767 26.7421 80.2237 26.993C79.9706 27.2439 79.6275 27.385 79.2696 27.3854Z" fill="#494CA8"/>
<path d="M65.4713 18.6125C67.128 18.6125 68.4709 17.2811 68.4709 15.6387C68.4709 13.9962 67.128 12.6648 65.4713 12.6648C63.8147 12.6648 62.4717 13.9962 62.4717 15.6387C62.4717 17.2811 63.8147 18.6125 65.4713 18.6125Z" fill="#494CA8"/>
<path d="M65.4706 17.45C66.4797 17.45 67.2977 16.639 67.2977 15.6386C67.2977 14.6382 66.4797 13.8273 65.4706 13.8273C64.4616 13.8273 63.6436 14.6382 63.6436 15.6386C63.6436 16.639 64.4616 17.45 65.4706 17.45Z" fill="white"/>
</g>
<defs>
<clipPath id="clip0_875_17444">
<rect width="97.1333" height="94" fill="white" transform="translate(0.433594)"/>
</clipPath>
</defs>
</svg>
