<svg width="1175" height="174" viewBox="0 0 1175 174" fill="none" xmlns="http://www.w3.org/2000/svg">
<g filter="url(#filter0_dd_72_12144)">
<g clip-path="url(#clip0_72_12144)">
<rect x="2" y="1" width="1171" height="170" rx="4" fill="url(#paint0_linear_72_12144)"/>
<path d="M240.098 264.602C215.205 273.902 188.476 273.484 161.654 266.809L161.271 266.726C125.459 257.752 89.3437 237.794 57.3853 215.156C29.6934 195.352 3.60955 173.52 -20.6015 149.883C-41.2099 130.001 -53.8024 115.495 -54.2431 114.918C-55.5497 113.2 -56.7305 111.419 -56.7305 111.419C-57.6073 110.134 -58.4436 108.768 -59.2217 107.422L-59.3157 107.352L-59.537 106.939C-65.573 96.3983 -68.6666 84.7175 -68.5024 73.087C-68.2437 59.005 -63.0651 45.73 -53.7763 35.3379C-42.9308 22.8569 -29.1289 13.0216 -13.3671 6.54197C22.9528 -7.97933 78.2464 -6.56145 116 17.994C130.359 27.3611 148.335 43.1409 176.366 46.758C182.796 47.5963 184.977 47.8067 190.992 48.538C199.614 49.5726 243.817 54.9095 277.166 85.628C285.346 93.1513 311.661 119.52 315.063 157.726C319.701 209.95 278.061 250.339 240.098 264.602Z" fill="#EBF1FF" fill-opacity="0.5"/>
<g clip-path="url(#clip1_72_12144)">
<path d="M958.233 36.4251C958.233 36.4251 980.263 15.8439 1007.34 25.6471C1034.42 35.4504 1055.55 80.0335 1081.69 81.505C1107.83 82.9764 1132.2 67.7842 1152.83 81.0364C1173.46 94.2885 1177.15 151.594 1137.68 157.475C1098.21 163.356 1076.19 142.283 1059.23 143.263C1042.28 144.242 1000.94 166.295 968.356 156.496C935.768 146.697 906.371 79.0682 958.233 36.4251Z" fill="#EBF1FF"/>
<g opacity="0.46">
<path d="M1147.77 40.1159H1047.52C1047.27 40.116 1047.03 40.0598 1046.81 39.9514C1046.58 39.843 1046.39 39.6855 1046.24 39.4909C1046.09 39.2962 1045.99 39.0697 1045.94 38.8287C1045.89 38.5876 1045.89 38.3385 1045.96 38.1004L1055.3 2.17561C1055.39 1.83205 1055.6 1.52828 1055.88 1.31147C1056.16 1.09466 1056.51 0.97693 1056.86 0.976563H1157.12C1157.36 0.976432 1157.61 1.03259 1157.83 1.14071C1158.05 1.24883 1158.24 1.40604 1158.39 1.60025C1158.54 1.79446 1158.64 2.0205 1158.69 2.26098C1158.74 2.50146 1158.74 2.74997 1158.67 2.98742L1149.33 38.8889C1149.24 39.2381 1149.04 39.5489 1148.76 39.7715C1148.48 39.9941 1148.13 40.1154 1147.77 40.1159Z" fill="#BFD9FF"/>
<path d="M1061.26 8.67926H1096.15" stroke="#A9C2FF" stroke-width="3.45" stroke-linecap="round" stroke-linejoin="round"/>
<path d="M1058.58 24.7568H1093.47" stroke="#A9C2FF" stroke-width="3.45" stroke-linecap="round" stroke-linejoin="round"/>
<path d="M1073.25 18.6823H1108.13" stroke="#A9C2FF" stroke-width="3.45" stroke-linecap="round" stroke-linejoin="round"/>
<path d="M1060.37 14.04H1070.83" stroke="#A9C2FF" stroke-width="3.45" stroke-linecap="round" stroke-linejoin="round"/>
<path d="M1058.94 18.6823H1069.4" stroke="#A9C2FF" stroke-width="3.45" stroke-linecap="round" stroke-linejoin="round"/>
<path d="M1101.7 8.67926H1114.13" stroke="#A9C2FF" stroke-width="3.45" stroke-linecap="round" stroke-linejoin="round"/>
<path d="M1107.79 32.2963H1089.22C1089.2 32.2962 1089.18 32.2912 1089.16 32.2817C1089.14 32.2721 1089.12 32.2584 1089.11 32.2413C1089.1 32.2243 1089.09 32.2045 1089.08 32.1833C1089.08 32.1621 1089.08 32.1402 1089.08 32.119L1089.91 28.9278C1089.92 28.8974 1089.94 28.8706 1089.97 28.8513C1089.99 28.832 1090.02 28.8212 1090.05 28.8205H1108.62C1108.64 28.8212 1108.66 28.8267 1108.68 28.8368C1108.7 28.8469 1108.72 28.8613 1108.73 28.8788C1108.75 28.8963 1108.75 28.9165 1108.76 28.9379C1108.76 28.9593 1108.76 28.9814 1108.76 29.0025L1107.93 32.189C1107.92 32.2195 1107.9 32.2463 1107.88 32.2656C1107.85 32.2849 1107.82 32.2956 1107.79 32.2963Z" stroke="#84AEE5" stroke-width="1.15" stroke-miterlimit="10"/>
<path d="M1084.71 32.2964H1066.14C1066.12 32.3003 1066.09 32.2974 1066.07 32.288C1066.05 32.2786 1066.02 32.263 1066.01 32.2429C1065.99 32.2229 1065.98 32.199 1065.98 32.1739C1065.98 32.1488 1065.98 32.1234 1065.99 32.1004L1066.82 28.9092C1066.83 28.8788 1066.85 28.8519 1066.87 28.8327C1066.9 28.8134 1066.93 28.8026 1066.96 28.8019H1085.53C1085.55 28.8018 1085.57 28.8069 1085.59 28.8167C1085.61 28.8265 1085.63 28.8407 1085.64 28.8583C1085.65 28.8759 1085.66 28.8964 1085.67 28.9182C1085.67 28.9399 1085.67 28.9624 1085.67 28.9838L1084.83 32.1704C1084.83 32.2025 1084.82 32.2323 1084.79 32.2551C1084.77 32.2779 1084.74 32.2925 1084.71 32.2964Z" stroke="#84AEE5" stroke-width="1.15" stroke-miterlimit="10"/>
<path d="M1140.42 27.6728C1139.49 26.4084 1135.61 25.4893 1134.54 24.2203C1133.99 23.5764 1133.99 22.3541 1134.13 21.351C1134.45 21.1615 1134.75 20.9223 1135.01 20.6418C1135.4 20.0516 1135.75 19.4376 1136.06 18.8036C1136.11 18.8639 1136.18 18.9117 1136.26 18.9439C1136.33 18.976 1136.42 18.9918 1136.5 18.9902C1137 18.9902 1138.93 16.3542 1138.44 15.7243C1138.15 15.3791 1137.7 15.6776 1137.35 15.9996C1137.86 14.8332 1138.22 13.9374 1138.22 13.9374H1138.2C1138.25 13.7928 1138.29 13.6435 1138.33 13.4708C1139.1 10.4056 1137.23 7.91882 1134.16 7.91882C1131.09 7.91882 1127.98 10.4476 1127.21 13.5128C1127.17 13.6621 1127.14 13.8114 1127.12 13.9794C1127.12 13.9794 1127.03 14.8752 1126.96 16.0416C1126.77 15.7196 1126.47 15.421 1126.02 15.7663C1125.22 16.3775 1125.84 18.9995 1126.34 19.0322C1126.53 19.0249 1126.72 18.9599 1126.88 18.8456C1126.87 19.4607 1126.91 20.0756 1127 20.6838C1127.16 21.0114 1127.39 21.2965 1127.68 21.5143C1127.29 22.4987 1126.71 23.6091 1125.89 24.2203C1124.19 25.4893 1119.87 26.4084 1118.28 27.6728C1116.88 28.8112 1115.59 32.1377 1115.35 32.8049H1140.79C1140.89 32.1377 1141.28 28.8345 1140.42 27.6728Z" fill="#8DBCF8"/>
</g>
<path d="M1130.33 68.6927H1030.07C1029.83 68.6928 1029.58 68.6367 1029.36 68.5286C1029.14 68.4204 1028.95 68.2632 1028.8 68.069C1028.65 67.8748 1028.54 67.6488 1028.5 67.4083C1028.45 67.1678 1028.45 66.9193 1028.52 66.6819L1037.86 30.7804C1037.95 30.4355 1038.15 30.1303 1038.44 29.9124C1038.72 29.6946 1039.07 29.5765 1039.42 29.5767H1139.69C1139.93 29.5796 1140.17 29.6379 1140.39 29.7472C1140.61 29.8565 1140.8 30.0139 1140.95 30.2076C1141.1 30.4013 1141.2 30.6262 1141.25 30.8652C1141.3 31.1043 1141.29 31.3513 1141.23 31.5875L1131.88 67.489C1131.79 67.8331 1131.59 68.1378 1131.31 68.3555C1131.03 68.5733 1130.68 68.6918 1130.33 68.6927Z" stroke="#7094D8" stroke-width="1.15" stroke-miterlimit="10"/>
<path d="M1128.45 66.0145H1028.19C1027.95 66.0146 1027.7 65.9585 1027.48 65.8503C1027.26 65.7422 1027.07 65.585 1026.92 65.3908C1026.77 65.1966 1026.67 64.9706 1026.62 64.7301C1026.57 64.4896 1026.58 64.2411 1026.64 64.0036L1035.98 28.1022C1036.07 27.7573 1036.28 27.4521 1036.56 27.2342C1036.84 27.0164 1037.19 26.8983 1037.54 26.8984H1137.81C1138.05 26.8985 1138.3 26.9548 1138.52 27.0628C1138.74 27.1709 1138.93 27.328 1139.08 27.5221C1139.23 27.7162 1139.34 27.942 1139.39 28.1825C1139.44 28.4229 1139.43 28.6715 1139.37 28.9093L1130.02 64.8341C1129.93 65.1769 1129.72 65.4787 1129.44 65.6922C1129.15 65.9058 1128.8 66.0191 1128.45 66.0145Z" fill="#A5C5FF"/>
<path d="M1059.65 66.0146H1109.84" stroke="#7094D8" stroke-width="1.15" stroke-miterlimit="10"/>
<path d="M1045.7 26.8984H1088.1" stroke="#7094D8" stroke-width="1.15" stroke-miterlimit="10"/>
<path d="M1120.35 60.6539H1097.81C1097.58 60.6672 1097.35 60.6233 1097.14 60.526C1096.93 60.4287 1096.75 60.2811 1096.61 60.0963C1096.47 59.9116 1096.38 59.6954 1096.34 59.467C1096.31 59.2387 1096.33 59.0053 1096.41 58.7876L1102.1 36.015C1102.24 35.499 1102.55 35.0414 1102.96 34.7066C1103.38 34.3718 1103.9 34.1767 1104.43 34.1488H1126.98C1127.21 34.1355 1127.44 34.1794 1127.65 34.2767C1127.86 34.374 1128.04 34.5216 1128.18 34.7064C1128.32 34.8911 1128.41 35.1073 1128.44 35.3357C1128.48 35.564 1128.46 35.7974 1128.38 36.015L1122.69 58.7876C1122.55 59.3037 1122.24 59.7613 1121.82 60.0961C1121.4 60.4309 1120.89 60.6259 1120.35 60.6539Z" fill="#B7DEFF"/>
<path d="M1109.29 60.747L1111.27 52.8436L1108.05 51.4766C1108.05 51.4766 1102.02 53.6834 1101.51 54.2152C1101.08 54.6585 1098.91 59.268 1098.24 60.747H1109.29Z" fill="#90AAFF"/>
<path d="M1120.45 60.747C1120.5 59.268 1120.64 54.6585 1120.45 54.2152C1120.2 53.6834 1115.27 51.4766 1115.27 51.4766L1111.32 52.8436L1109.35 60.747H1120.45Z" fill="#90AAFF"/>
<path d="M1111.33 60.7472L1114.42 53.9121L1107.78 54.29L1107.13 60.7472H1111.33Z" fill="#F2F2F2"/>
<path d="M1109.23 50.0399L1107.78 50.9496L1106.83 53.2264L1106.59 56.343L1108.62 55.5079L1110.2 57.4068L1112.31 55.6572L1113.61 56.8749L1115.56 52.6946L1115.22 50.1145L1114.4 49.7319L1109.23 50.0399Z" fill="#F2F2F2"/>
<path d="M1109.67 44.0539C1109.62 43.9148 1109.53 43.7906 1109.42 43.6919C1109.31 43.5932 1109.17 43.5228 1109.03 43.4867C1108.88 43.4506 1108.73 43.4498 1108.58 43.4843C1108.44 43.5189 1108.3 43.5879 1108.19 43.6854C1107.19 44.4225 1108.36 47.2499 1109.08 46.3961C1109.8 45.5423 1109.67 44.0539 1109.67 44.0539Z" fill="white"/>
<path d="M1116.77 43.998C1116.77 43.998 1117.7 42.8317 1118.42 43.4848C1119.15 44.138 1116.79 47.1286 1116.41 46.3308C1116.02 45.533 1116.77 43.998 1116.77 43.998Z" fill="white"/>
<path d="M1114.55 52.242L1115.57 46.8486L1109.67 47.3572L1108.37 52.424C1108.37 52.424 1109.4 54.8221 1110.51 55.8858C1110.51 55.8952 1113.93 52.9279 1114.55 52.242Z" fill="white"/>
<path d="M1119.33 41.8188C1119.11 42.4767 1118.56 42.64 1118.53 43.0225C1118.46 43.6513 1118.23 44.2527 1117.87 44.7721C1117.7 44.9593 1117.51 45.1239 1117.3 45.262C1117.3 45.262 1112.24 46.6617 1109.68 44.7161C1109.57 44.1751 1109.57 43.6195 1109.68 43.0785C1109.85 42.1921 1109.42 42.0381 1109.92 41.6042C1110.12 41.4509 1110.29 41.2522 1110.4 41.0239C1110.52 40.7956 1110.58 40.5438 1110.58 40.2885C1110.56 40.0001 1110.6 39.7104 1110.69 39.4381C1110.79 39.1657 1110.94 38.9167 1111.14 38.7069C1111.65 38.2123 1112.12 38.3756 1112.61 37.9417C1112.61 37.9417 1113.35 36.7054 1114.33 36.5421C1115.3 36.3788 1117.35 35.8842 1118.57 37.3819C1119.8 38.8795 1119.23 40.1812 1119.58 40.6478C1119.93 41.1143 1119.33 41.8188 1119.33 41.8188Z" fill="black"/>
<path d="M1109.63 43.1253C1109.63 43.1253 1107.25 49.6897 1111.74 50.1796C1115.71 50.2729 1117.12 45.4347 1117.69 42.9526C1118.26 40.4706 1117.91 37.8765 1114.73 37.9605C1111.55 38.0445 1109.98 41.6603 1109.63 43.1253Z" fill="white"/>
<path d="M1110.88 40.7738C1110.96 40.9378 1111 41.1182 1111 41.301C1111 41.4838 1110.96 41.6642 1110.88 41.8282C1110.61 42.3601 1109.87 42.5654 1109.76 43.2652C1109.65 43.965 1109.33 45.4207 1109.12 45.486C1108.92 45.5513 1109.07 44.063 1109.12 43.5545C1109.28 42.1361 1109.79 40.7784 1110.6 39.6028C1111.66 38.2684 1112.31 37.7039 1114.2 37.3959C1116.09 37.088 1117.52 37.8625 1118.04 39.0336C1118.56 40.2046 1117.73 43.1066 1117.73 43.1066C1117.73 43.1066 1117.85 41.7069 1117.39 41.3897C1116.92 41.0724 1116.53 40.8205 1116.61 40.6292C1116.69 40.4379 1115.12 41.1331 1113.55 40.6292C1111.98 40.1253 1111.47 40.3539 1111.21 40.5172C1111.08 40.5796 1110.97 40.6669 1110.88 40.7738Z" fill="black"/>
<path d="M1106.43 53.3008C1106.4 53.4547 1104.24 58.5822 1104.24 58.5822L1106.11 59.5153L1105.58 60.5791" stroke="#022755" stroke-width="0.49" stroke-miterlimit="10"/>
<path d="M1115.76 53.3008C1115.71 53.4547 1115.31 58.5822 1115.31 58.5822L1112.94 59.5153V60.5791" stroke="#022755" stroke-width="0.49" stroke-miterlimit="10"/>
<path d="M1120.35 60.6539H1097.81C1097.58 60.6672 1097.35 60.6233 1097.14 60.526C1096.93 60.4287 1096.75 60.2811 1096.61 60.0963C1096.47 59.9116 1096.38 59.6954 1096.34 59.467C1096.31 59.2387 1096.33 59.0053 1096.41 58.7876L1102.1 36.015C1102.24 35.499 1102.55 35.0414 1102.96 34.7066C1103.38 34.3718 1103.9 34.1767 1104.43 34.1488H1126.98C1127.21 34.1355 1127.44 34.1794 1127.65 34.2767C1127.86 34.374 1128.04 34.5216 1128.18 34.7064C1128.32 34.8911 1128.41 35.1073 1128.44 35.3357C1128.48 35.564 1128.46 35.7974 1128.38 36.015L1122.69 58.7876C1122.55 59.3037 1122.24 59.7613 1121.82 60.0961C1121.4 60.4309 1120.89 60.6259 1120.35 60.6539Z" stroke="white" stroke-width="1.15" stroke-miterlimit="10"/>
<path d="M1041.94 35.4736H1076.83" stroke="#73A5FF" stroke-width="3.45" stroke-linecap="round" stroke-linejoin="round"/>
<path d="M1039.26 51.5469H1074.14" stroke="#73A5FF" stroke-width="3.45" stroke-linecap="round" stroke-linejoin="round"/>
<path d="M1053.93 45.4766H1088.81" stroke="#73A5FF" stroke-width="3.45" stroke-linecap="round" stroke-linejoin="round"/>
<path d="M1041.05 40.8301H1051.51" stroke="#73A5FF" stroke-width="3.45" stroke-linecap="round" stroke-linejoin="round"/>
<path d="M1039.61 45.4766H1050.08" stroke="#73A5FF" stroke-width="3.45" stroke-linecap="round" stroke-linejoin="round"/>
<path d="M1082.37 35.4736H1094.81" stroke="#73A5FF" stroke-width="3.45" stroke-linecap="round" stroke-linejoin="round"/>
<path d="M1088.47 59.0864H1069.9C1069.88 59.0865 1069.86 59.0815 1069.84 59.072C1069.82 59.0624 1069.8 59.0485 1069.79 59.0314C1069.77 59.0142 1069.77 58.9942 1069.76 58.973C1069.76 58.9518 1069.76 58.9299 1069.76 58.9091L1070.59 55.7225C1070.6 55.6917 1070.62 55.6645 1070.64 55.6451C1070.67 55.6257 1070.7 55.6152 1070.73 55.6152H1089.3C1089.32 55.6154 1089.34 55.6204 1089.36 55.6299C1089.38 55.6394 1089.4 55.6532 1089.41 55.6702C1089.42 55.6873 1089.43 55.7071 1089.44 55.7283C1089.44 55.7494 1089.44 55.7714 1089.44 55.7925L1088.61 58.9791C1088.6 59.0099 1088.58 59.0372 1088.55 59.0566C1088.53 59.076 1088.5 59.0865 1088.47 59.0864Z" stroke="#7094D8" stroke-width="1.15" stroke-miterlimit="10"/>
<path d="M1065.39 59.0864H1046.83C1046.81 59.0863 1046.79 59.0813 1046.77 59.0717C1046.75 59.0622 1046.73 59.0484 1046.72 59.0314C1046.71 59.0144 1046.7 58.9946 1046.69 58.9734C1046.69 58.9522 1046.69 58.9303 1046.69 58.9091L1047.53 55.7225C1047.53 55.6921 1047.55 55.665 1047.57 55.6455C1047.6 55.6261 1047.63 55.6154 1047.66 55.6152H1066.23C1066.25 55.6152 1066.27 55.6201 1066.29 55.6297C1066.31 55.6392 1066.33 55.6531 1066.34 55.6703C1066.36 55.6875 1066.37 55.7074 1066.37 55.7286C1066.37 55.7498 1066.37 55.7717 1066.37 55.7925L1065.53 58.9791C1065.52 59.01 1065.5 59.0376 1065.48 59.0572C1065.45 59.0767 1065.42 59.0871 1065.39 59.0864Z" stroke="#7094D8" stroke-width="1.15" stroke-miterlimit="10"/>
<path d="M1086.76 22.8813H1108.49" stroke="#7094D8" stroke-width="1.15" stroke-miterlimit="10"/>
<path d="M1129.55 117.275H1029.27C1029.02 117.275 1028.78 117.219 1028.56 117.111C1028.34 117.003 1028.14 116.846 1027.99 116.652C1027.84 116.458 1027.74 116.232 1027.69 115.991C1027.64 115.751 1027.65 115.502 1027.71 115.264L1037.05 79.3629C1037.14 79.0181 1037.35 78.7128 1037.63 78.495C1037.91 78.2771 1038.26 78.159 1038.61 78.1592H1138.89C1139.14 78.1598 1139.38 78.2166 1139.6 78.3253C1139.82 78.4339 1140.01 78.5916 1140.16 78.7861C1140.31 78.9806 1140.42 79.2069 1140.47 79.4476C1140.52 79.6883 1140.51 79.937 1140.45 80.1747L1131.1 116.1C1131.01 116.439 1130.8 116.738 1130.52 116.95C1130.24 117.163 1129.9 117.277 1129.55 117.275Z" fill="#BFD9FF"/>
<path d="M1043.02 85.8433H1077.9" stroke="#A9C2FF" stroke-width="3.45" stroke-linecap="round" stroke-linejoin="round"/>
<path d="M1040.33 101.916H1075.22" stroke="#A9C2FF" stroke-width="3.45" stroke-linecap="round" stroke-linejoin="round"/>
<path d="M1055 95.8462H1089.89" stroke="#A9C2FF" stroke-width="3.45" stroke-linecap="round" stroke-linejoin="round"/>
<path d="M1042.12 91.1992H1052.59" stroke="#A9C2FF" stroke-width="3.45" stroke-linecap="round" stroke-linejoin="round"/>
<path d="M1040.69 95.8462H1051.16" stroke="#A9C2FF" stroke-width="3.45" stroke-linecap="round" stroke-linejoin="round"/>
<path d="M1083.45 85.8433H1095.88" stroke="#A9C2FF" stroke-width="3.45" stroke-linecap="round" stroke-linejoin="round"/>
<path d="M1089.54 109.456H1070.97C1070.95 109.455 1070.93 109.45 1070.91 109.441C1070.89 109.431 1070.88 109.418 1070.86 109.401C1070.85 109.384 1070.84 109.364 1070.83 109.343C1070.83 109.321 1070.83 109.299 1070.83 109.278L1071.67 106.092C1071.67 106.061 1071.69 106.034 1071.72 106.014C1071.74 105.995 1071.77 105.984 1071.81 105.984H1090.37C1090.39 105.985 1090.42 105.99 1090.43 105.999C1090.45 106.009 1090.47 106.022 1090.48 106.039C1090.5 106.056 1090.51 106.076 1090.51 106.097C1090.52 106.119 1090.52 106.141 1090.51 106.162L1089.68 109.348C1089.67 109.379 1089.65 109.406 1089.63 109.426C1089.6 109.445 1089.57 109.456 1089.54 109.456Z" stroke="#84AEE5" stroke-width="1.15" stroke-miterlimit="10"/>
<path d="M1066.46 109.456H1047.89C1047.87 109.456 1047.85 109.451 1047.83 109.441C1047.81 109.432 1047.8 109.418 1047.78 109.401C1047.77 109.383 1047.76 109.363 1047.76 109.342C1047.75 109.321 1047.75 109.299 1047.76 109.278L1048.59 106.092C1048.6 106.061 1048.61 106.033 1048.64 106.014C1048.66 105.994 1048.69 105.984 1048.73 105.984H1067.29C1067.31 105.985 1067.34 105.99 1067.35 105.999C1067.37 106.009 1067.39 106.022 1067.4 106.039C1067.42 106.056 1067.43 106.076 1067.43 106.097C1067.44 106.119 1067.44 106.141 1067.43 106.162L1066.6 109.348C1066.59 109.38 1066.58 109.407 1066.55 109.427C1066.52 109.446 1066.49 109.456 1066.46 109.456Z" stroke="#84AEE5" stroke-width="1.15" stroke-miterlimit="10"/>
<path d="M1122.17 104.837C1121.24 103.568 1117.36 102.649 1116.29 101.384C1115.75 100.736 1115.75 99.5181 1115.88 98.515C1116.2 98.3226 1116.5 98.0837 1116.76 97.8059C1117.15 97.2156 1117.5 96.6017 1117.81 95.9677C1117.86 96.0281 1117.93 96.0757 1118.01 96.1071C1118.09 96.1385 1118.17 96.153 1118.25 96.1496C1118.76 96.1496 1120.69 93.5136 1120.19 92.907C1119.91 92.5571 1119.45 92.8604 1119.1 93.1823C1119.62 92.0159 1119.98 91.1201 1119.98 91.1201C1120.02 90.9708 1120.06 90.8215 1120.11 90.6536C1120.87 87.5883 1119 85.1016 1115.93 85.1016C1112.86 85.1016 1109.73 87.621 1108.98 90.6722C1108.95 90.8215 1108.91 90.9708 1108.89 91.1388C1108.89 91.1388 1108.8 92.0346 1108.73 93.201C1108.55 92.8791 1108.24 92.5758 1107.8 92.9257C1106.99 93.5322 1107.62 96.1543 1108.12 96.1683C1108.31 96.1647 1108.5 96.1011 1108.65 95.9863C1108.64 96.6015 1108.69 97.2163 1108.78 97.8245C1108.93 98.1599 1109.16 98.4531 1109.45 98.6783C1109.07 99.6581 1108.49 100.773 1107.67 101.384C1105.97 102.649 1101.64 103.568 1100.06 104.837C1098.64 105.975 1097.37 109.297 1097.12 109.969H1122.54C1122.64 109.297 1123.03 105.975 1122.17 104.837Z" fill="#8DBCF8"/>
<g opacity="0.46">
<path d="M1119.15 165.144H1018.89C1018.64 165.144 1018.4 165.088 1018.18 164.98C1017.96 164.872 1017.77 164.714 1017.62 164.52C1017.47 164.326 1017.36 164.1 1017.31 163.859C1017.26 163.619 1017.27 163.37 1017.33 163.133L1026.68 127.208C1026.77 126.863 1026.97 126.558 1027.25 126.34C1027.53 126.122 1027.88 126.004 1028.24 126.004H1128.5C1128.75 126.004 1128.99 126.061 1129.21 126.169C1129.44 126.277 1129.63 126.435 1129.78 126.629C1129.93 126.824 1130.03 127.051 1130.08 127.292C1130.13 127.533 1130.13 127.782 1130.06 128.02L1120.72 163.921C1120.63 164.271 1120.43 164.582 1120.15 164.804C1119.86 165.025 1119.51 165.145 1119.15 165.144Z" fill="#BFD9FF"/>
<path d="M1032.64 133.712H1067.53" stroke="#A9C2FF" stroke-width="3.45" stroke-linecap="round" stroke-linejoin="round"/>
<path d="M1029.95 149.785H1064.84" stroke="#A9C2FF" stroke-width="3.45" stroke-linecap="round" stroke-linejoin="round"/>
<path d="M1044.62 143.715H1079.51" stroke="#A9C2FF" stroke-width="3.45" stroke-linecap="round" stroke-linejoin="round"/>
<path d="M1031.74 139.068H1042.21" stroke="#A9C2FF" stroke-width="3.45" stroke-linecap="round" stroke-linejoin="round"/>
<path d="M1030.31 143.715H1040.78" stroke="#A9C2FF" stroke-width="3.45" stroke-linecap="round" stroke-linejoin="round"/>
<path d="M1073.07 133.712H1085.5" stroke="#A9C2FF" stroke-width="3.45" stroke-linecap="round" stroke-linejoin="round"/>
<path d="M1079.17 157.324H1060.6C1060.57 157.324 1060.55 157.319 1060.53 157.31C1060.51 157.3 1060.5 157.286 1060.48 157.269C1060.47 157.252 1060.46 157.232 1060.46 157.211C1060.45 157.19 1060.45 157.168 1060.46 157.147L1061.29 153.96C1061.3 153.93 1061.32 153.902 1061.34 153.882C1061.37 153.863 1061.4 153.852 1061.43 153.853H1080.01C1080.03 153.853 1080.06 153.858 1080.07 153.868C1080.09 153.877 1080.11 153.891 1080.12 153.908C1080.14 153.925 1080.15 153.945 1080.15 153.966C1080.16 153.987 1080.16 154.009 1080.15 154.03L1079.32 157.217C1079.31 157.251 1079.29 157.282 1079.26 157.302C1079.24 157.322 1079.2 157.33 1079.17 157.324Z" stroke="#84AEE5" stroke-width="1.15" stroke-miterlimit="10"/>
<path d="M1056.09 157.324H1037.52C1037.5 157.324 1037.48 157.319 1037.46 157.31C1037.44 157.3 1037.42 157.286 1037.41 157.269C1037.39 157.252 1037.38 157.232 1037.38 157.211C1037.38 157.19 1037.38 157.168 1037.38 157.147L1038.21 153.96C1038.22 153.93 1038.24 153.902 1038.26 153.883C1038.29 153.864 1038.32 153.853 1038.35 153.853H1056.92C1056.94 153.853 1056.96 153.858 1056.98 153.868C1057 153.877 1057.02 153.891 1057.03 153.908C1057.04 153.925 1057.05 153.945 1057.06 153.967C1057.06 153.988 1057.06 154.01 1057.05 154.03L1056.23 157.217C1056.22 157.248 1056.2 157.275 1056.17 157.294C1056.15 157.314 1056.12 157.324 1056.09 157.324Z" stroke="#84AEE5" stroke-width="1.15" stroke-miterlimit="10"/>
<path d="M1111.79 152.705C1110.85 151.436 1106.98 150.517 1105.91 149.253C1105.36 148.604 1105.36 147.387 1105.49 146.384C1105.82 146.19 1106.12 145.951 1106.38 145.674C1106.76 145.084 1107.11 144.47 1107.42 143.836C1107.48 143.896 1107.55 143.943 1107.62 143.975C1107.7 144.007 1107.78 144.024 1107.86 144.023C1108.37 144.023 1110.3 141.382 1109.8 140.757C1109.52 140.407 1109.06 140.71 1108.72 141.032C1109.23 139.866 1109.59 138.97 1109.59 138.97C1109.63 138.821 1109.68 138.676 1109.72 138.503C1110.48 135.438 1108.62 132.951 1105.55 132.951C1102.48 132.951 1099.36 135.438 1098.6 138.503C1098.56 138.657 1098.53 138.802 1098.51 138.97C1098.51 138.97 1098.42 139.866 1098.34 141.032C1098.17 140.71 1097.85 140.407 1097.41 140.757C1096.61 141.363 1097.23 143.985 1097.73 144.023C1097.92 144.015 1098.11 143.95 1098.26 143.836C1098.26 144.451 1098.3 145.066 1098.39 145.674C1098.55 146.019 1098.8 146.318 1099.1 146.547C1098.72 147.527 1098.14 148.642 1097.32 149.253C1095.62 150.517 1091.3 151.436 1089.71 152.705C1088.29 153.844 1087.02 157.166 1086.78 157.838H1112.22C1112.26 157.166 1112.65 153.844 1111.79 152.705Z" fill="#8DBCF8"/>
</g>
<path d="M1099.1 165.326H1116.99" stroke="#7094D8" stroke-width="1.15" stroke-miterlimit="10"/>
<path d="M1038.27 117.457H1080.85" stroke="#7094D8" stroke-width="1.15" stroke-miterlimit="10"/>
<path d="M1090.6 117.457H1100.98" stroke="#7094D8" stroke-width="1.15" stroke-miterlimit="10"/>
<path d="M1135.42 78.3364H1139.01C1139.26 78.3365 1139.5 78.3943 1139.72 78.5052C1139.94 78.616 1140.13 78.7768 1140.28 78.9747C1140.43 79.1725 1140.52 79.4019 1140.57 79.6443C1140.61 79.8867 1140.59 80.1355 1140.52 80.3706L1138.99 85.2881" stroke="#7094D8" stroke-width="1.15" stroke-miterlimit="10"/>
<path d="M1021.51 15.2115H1019.67C1019.57 15.2167 1019.47 15.1963 1019.37 15.1522C1019.28 15.1081 1019.2 15.0416 1019.14 14.9585C1019.07 14.8755 1019.03 14.7785 1019.02 14.6762C1019 14.5738 1019.01 14.4692 1019.05 14.3717L1019.52 12.5381C1019.58 12.3084 1019.72 12.1047 1019.9 11.9558C1020.09 11.8069 1020.32 11.7201 1020.56 11.7076H1022.39C1022.5 11.7056 1022.6 11.7283 1022.69 11.7737C1022.78 11.8192 1022.86 11.886 1022.92 11.9686C1022.98 12.0512 1023.02 12.147 1023.03 12.2478C1023.05 12.3486 1023.04 12.4514 1023 12.5474L1022.53 14.3717C1022.47 14.6006 1022.34 14.8046 1022.16 14.9552C1021.97 15.1057 1021.75 15.1953 1021.51 15.2115Z" fill="#BFD9FF"/>
<path d="M1020.17 20.5816H1018.33C1018.23 20.5862 1018.12 20.5658 1018.03 20.5222C1017.94 20.4785 1017.86 20.413 1017.8 20.3312C1017.73 20.2494 1017.69 20.1538 1017.68 20.0527C1017.66 19.9516 1017.67 19.8481 1017.7 19.7511L1018.17 17.9175C1018.23 17.6878 1018.37 17.4842 1018.56 17.3352C1018.74 17.1863 1018.97 17.0995 1019.21 17.0871H1021.05C1021.15 17.0825 1021.25 17.1028 1021.35 17.1465C1021.44 17.1901 1021.52 17.2557 1021.58 17.3375C1021.64 17.4193 1021.68 17.5148 1021.7 17.6159C1021.72 17.717 1021.71 17.8205 1021.67 17.9175L1021.21 19.7511C1021.14 19.9805 1021.01 20.184 1020.82 20.3329C1020.64 20.4819 1020.41 20.5689 1020.17 20.5816Z" fill="#EDF4FF"/>
<path d="M1026.01 20.5814H1024.17C1024.07 20.5872 1023.97 20.5675 1023.88 20.5242C1023.78 20.481 1023.7 20.4153 1023.64 20.3332C1023.58 20.2511 1023.54 20.155 1023.52 20.0534C1023.5 19.9519 1023.51 19.848 1023.55 19.751L1024.02 17.9174C1024.08 17.6869 1024.21 17.4825 1024.4 17.3334C1024.59 17.1842 1024.82 17.098 1025.06 17.0869H1026.89C1026.99 17.0812 1027.09 17.1008 1027.19 17.1441C1027.28 17.1874 1027.36 17.253 1027.42 17.3351C1027.49 17.4172 1027.53 17.5133 1027.54 17.6149C1027.56 17.7165 1027.55 17.8204 1027.52 17.9174L1027.05 19.751C1026.98 19.9814 1026.85 20.1858 1026.66 20.335C1026.48 20.4841 1026.25 20.5704 1026.01 20.5814Z" fill="#BFD9FF"/>
<path d="M1031.85 20.5814H1030.01C1029.91 20.5872 1029.81 20.5675 1029.71 20.5242C1029.62 20.481 1029.54 20.4153 1029.48 20.3332C1029.41 20.2511 1029.37 20.155 1029.36 20.0534C1029.34 19.9519 1029.35 19.848 1029.38 19.751L1029.85 17.9174C1029.92 17.6869 1030.05 17.4825 1030.24 17.3334C1030.43 17.1842 1030.65 17.098 1030.89 17.0869H1032.73C1032.83 17.0812 1032.93 17.1008 1033.02 17.1441C1033.12 17.1874 1033.2 17.253 1033.26 17.3351C1033.32 17.4172 1033.36 17.5133 1033.38 17.6149C1033.4 17.7165 1033.39 17.8204 1033.35 17.9174L1032.88 19.751C1032.82 19.9807 1032.69 20.1846 1032.5 20.3336C1032.31 20.4827 1032.09 20.5694 1031.85 20.5814Z" fill="#EDF4FF"/>
<path d="M1018.8 26.0775H1016.96C1016.86 26.0833 1016.76 26.0636 1016.67 26.0203C1016.57 25.9771 1016.49 25.9114 1016.43 25.8293C1016.37 25.7472 1016.33 25.6511 1016.31 25.5495C1016.29 25.448 1016.3 25.3441 1016.34 25.247L1016.81 23.4135C1016.87 23.1808 1017.01 22.9748 1017.2 22.8254C1017.39 22.6761 1017.62 22.5911 1017.86 22.583H1019.69C1019.8 22.5773 1019.9 22.5969 1019.99 22.6402C1020.09 22.6835 1020.17 22.7491 1020.23 22.8312C1020.29 22.9133 1020.33 23.0094 1020.35 23.111C1020.36 23.2126 1020.35 23.3164 1020.32 23.4135L1019.85 25.247C1019.79 25.4797 1019.65 25.6857 1019.46 25.8351C1019.27 25.9845 1019.04 26.0694 1018.8 26.0775Z" fill="#EDF4FF"/>
<path d="M1017.33 31.9468H1015.5C1015.39 31.9514 1015.29 31.931 1015.2 31.8874C1015.11 31.8438 1015.03 31.7782 1014.96 31.6964C1014.9 31.6146 1014.86 31.519 1014.85 31.418C1014.83 31.3169 1014.84 31.2134 1014.87 31.1163L1015.34 29.2828C1015.4 29.0527 1015.54 28.8487 1015.72 28.6996C1015.91 28.5506 1016.14 28.464 1016.38 28.4523H1018.22C1018.32 28.4477 1018.42 28.4681 1018.51 28.5117C1018.61 28.5553 1018.69 28.6209 1018.75 28.7027C1018.81 28.7845 1018.85 28.8801 1018.87 28.9811C1018.88 29.0822 1018.88 29.1858 1018.84 29.2828L1018.38 31.1163C1018.31 31.3461 1018.17 31.5497 1017.99 31.6987C1017.8 31.8476 1017.57 31.9344 1017.33 31.9468Z" fill="#EDF4FF"/>
<path d="M1024.64 26.0775H1022.8C1022.7 26.0833 1022.59 26.0636 1022.5 26.0203C1022.41 25.9771 1022.33 25.9114 1022.27 25.8293C1022.2 25.7472 1022.16 25.6511 1022.15 25.5495C1022.13 25.448 1022.14 25.3441 1022.17 25.247L1022.64 23.4135C1022.71 23.183 1022.84 22.9786 1023.03 22.8295C1023.21 22.6803 1023.44 22.594 1023.68 22.583H1025.52C1025.62 22.5773 1025.72 22.5969 1025.81 22.6402C1025.91 22.6835 1025.99 22.7491 1026.05 22.8312C1026.11 22.9133 1026.15 23.0094 1026.17 23.111C1026.19 23.2126 1026.18 23.3164 1026.14 23.4135L1025.67 25.247C1025.61 25.4761 1025.47 25.6792 1025.29 25.8281C1025.1 25.9769 1024.87 26.0641 1024.64 26.0775Z" fill="#EDF4FF"/>
<path d="M1022.07 36.2997H1020.24C1020.14 36.3054 1020.04 36.2858 1019.95 36.2425C1019.85 36.1992 1019.77 36.1336 1019.71 36.0515C1019.65 35.9694 1019.61 35.8733 1019.59 35.7717C1019.57 35.6701 1019.58 35.5662 1019.62 35.4692L1020.09 33.6356C1020.15 33.4052 1020.28 33.2008 1020.47 33.0516C1020.66 32.9025 1020.89 32.8162 1021.13 32.8052H1022.96C1023.06 32.7994 1023.16 32.8191 1023.26 32.8624C1023.35 32.9056 1023.43 32.9713 1023.49 33.0534C1023.56 33.1355 1023.6 33.2316 1023.61 33.3332C1023.63 33.4347 1023.62 33.5386 1023.59 33.6356L1023.12 35.4692C1023.05 35.7011 1022.92 35.9066 1022.73 36.0559C1022.54 36.2052 1022.31 36.2906 1022.07 36.2997Z" fill="#BFD9FF"/>
<path d="M1050.94 4.57373H1050.82C1050.64 4.57373 1050.45 4.57373 1050.25 4.57373C1044.81 4.57373 1039.31 8.9267 1037.86 14.3341L1037.79 14.5954C1037.79 14.6217 1037.79 14.6483 1037.79 14.6747L1037.75 14.838C1036.56 20.32 1040.09 24.6823 1045.69 24.4537C1050.83 24.2484 1056.03 20.152 1057.57 15.0712C1059.25 9.50989 1056.2 4.91432 1050.94 4.57373ZM1054.67 14.838C1053.59 18.4491 1049.89 21.3697 1046.24 21.4771C1042.31 21.603 1039.87 18.5657 1040.67 14.74L1040.79 14.2734C1041.83 10.485 1045.69 7.44772 1049.51 7.44772C1049.71 7.44772 1049.9 7.44772 1050.09 7.44772C1053.75 7.7883 1055.84 10.9935 1054.69 14.838H1054.67Z" fill="#EBEDFC"/>
<path d="M1050.4 6.23921C1050.35 6.3824 1050.34 6.53421 1050.35 6.68515C1050.36 6.8361 1050.4 6.98294 1050.47 7.11649C1050.55 7.25004 1050.64 7.36743 1050.76 7.46133C1050.88 7.55523 1051.02 7.62361 1051.17 7.66221C1054.14 8.45069 1055.73 11.3947 1054.69 14.8332C1053.6 18.4443 1049.9 21.365 1046.25 21.4723C1042.6 21.5796 1040.32 19.0695 1040.55 15.7243C1040.56 15.5683 1040.54 15.4108 1040.49 15.2629C1040.44 15.115 1040.36 14.9801 1040.25 14.8677C1040.14 14.7553 1040.01 14.6681 1039.86 14.6122C1039.71 14.5563 1039.56 14.533 1039.4 14.5439C1038.94 14.566 1038.5 14.7494 1038.15 15.0622C1037.81 15.3751 1037.59 15.7976 1037.53 16.2562C1037.21 21.0244 1040.59 24.6122 1045.71 24.4022C1050.84 24.1923 1056.03 20.1006 1057.58 15.0198C1059.07 10.1163 1056.82 5.93595 1052.6 4.81622C1052.12 4.73782 1051.63 4.84031 1051.22 5.10358C1050.82 5.36684 1050.53 5.77188 1050.4 6.23921Z" fill="#A5C5FF"/>
<path d="M1075.72 3.54736H1075.59C1075.4 3.54736 1075.22 3.54736 1075.03 3.54736C1069.53 3.54736 1063.96 7.99831 1062.59 13.4943C1061.22 18.9904 1064.56 23.4366 1070.06 23.4366C1070.25 23.4366 1070.44 23.4366 1070.63 23.4366H1070.76C1076 23.0821 1081.14 18.8224 1082.48 13.6016C1082.49 13.5737 1082.49 13.5456 1082.48 13.5177C1083.82 8.20359 1080.81 3.90195 1075.72 3.54736ZM1071.29 20.4367H1071.26H1070.91H1070.8C1066.92 20.4367 1064.56 17.3014 1065.53 13.4384C1066.49 9.57527 1070.42 6.44001 1074.3 6.44001H1074.4C1074.52 6.44001 1074.63 6.44001 1074.75 6.44001H1074.78C1078.36 6.69195 1080.48 9.7059 1079.56 13.4384C1079.55 13.4669 1079.55 13.495 1079.54 13.5223C1078.61 17.2175 1074.97 20.2081 1071.29 20.4367Z" fill="white"/>
<path d="M1079.12 14.7776C1078.48 16.1859 1077.52 17.4241 1076.31 18.3919C1075.1 19.3597 1073.68 20.0299 1072.17 20.3482C1071.79 20.4205 1071.45 20.5938 1071.17 20.8491C1070.89 21.1043 1070.69 21.4315 1070.59 21.7946C1070.52 21.9911 1070.51 22.2018 1070.56 22.4036C1070.6 22.6055 1070.7 22.7907 1070.85 22.9391C1070.99 23.0875 1071.18 23.1932 1071.38 23.2448C1071.58 23.2964 1071.79 23.2918 1071.99 23.2315C1074.15 22.7839 1076.17 21.8322 1077.89 20.4545C1079.61 19.0767 1080.98 17.312 1081.88 15.3048C1082.27 14.395 1081.8 13.5552 1080.87 13.5552C1080.49 13.5758 1080.13 13.7012 1079.82 13.9171C1079.51 14.1331 1079.27 14.4311 1079.12 14.7776Z" fill="#BFD9FF"/>
<path d="M1049.29 38.5486H1030.72C1030.7 38.5486 1030.68 38.5436 1030.66 38.5338C1030.64 38.524 1030.62 38.5097 1030.61 38.4921C1030.59 38.4746 1030.58 38.4541 1030.58 38.4323C1030.57 38.4106 1030.58 38.3881 1030.58 38.3666L1031.41 35.1801C1031.42 35.1496 1031.44 35.1228 1031.47 35.1035C1031.49 35.0842 1031.52 35.0735 1031.55 35.0728H1050.1C1050.13 35.0727 1050.15 35.0778 1050.17 35.0876C1050.19 35.0974 1050.21 35.1116 1050.22 35.1292C1050.23 35.1468 1050.24 35.1673 1050.25 35.189C1050.25 35.2108 1050.25 35.2333 1050.25 35.2547L1049.41 38.4413C1049.41 38.4696 1049.39 38.4949 1049.37 38.514C1049.34 38.5331 1049.32 38.5451 1049.29 38.5486Z" fill="#EDF4FF"/>
<path d="M1135.4 53.3255C1139.27 49.9175 1140.24 44.7155 1137.58 41.7065C1134.92 38.6975 1129.63 39.0209 1125.76 42.4289C1121.9 45.8369 1120.92 51.0389 1123.58 54.0479C1126.24 57.0569 1131.54 56.7335 1135.4 53.3255Z" fill="#73A5FF"/>
<path d="M1142.78 56.7255C1142.6 57.3469 1142.24 57.8986 1141.74 58.3029C1141.23 58.7072 1140.62 58.9437 1139.97 58.9789C1139.69 58.9917 1139.42 58.9364 1139.17 58.8179C1138.91 58.6994 1138.7 58.5213 1138.53 58.2991C1138.36 58.0769 1138.25 57.8174 1138.21 57.5431C1138.17 57.2688 1138.19 56.9881 1138.28 56.7255C1138.45 56.1041 1138.82 55.5523 1139.32 55.148C1139.82 54.7437 1140.44 54.5073 1141.08 54.472C1141.36 54.4593 1141.64 54.5146 1141.89 54.6331C1142.14 54.7516 1142.36 54.9297 1142.53 55.1518C1142.69 55.374 1142.8 55.6336 1142.85 55.9078C1142.89 56.1821 1142.87 56.4628 1142.78 56.7255Z" fill="#73A5FF"/>
<path d="M1128.46 52.069C1128.34 52.0731 1128.22 52.0481 1128.11 51.9962C1127.99 51.9443 1127.9 51.867 1127.82 51.7704L1125.69 48.9384C1125.56 48.6991 1125.52 48.4183 1125.59 48.1525C1125.65 47.8867 1125.82 47.6558 1126.05 47.5061C1126.14 47.4109 1126.25 47.3353 1126.37 47.2836C1126.5 47.232 1126.63 47.2054 1126.76 47.2054C1126.9 47.2054 1127.03 47.232 1127.15 47.2836C1127.28 47.3353 1127.39 47.4109 1127.48 47.5061L1129.07 49.6243L1134.76 45.08C1134.85 44.9848 1134.97 44.9092 1135.09 44.8575C1135.21 44.8059 1135.34 44.7793 1135.48 44.7793C1135.61 44.7793 1135.74 44.8059 1135.87 44.8575C1135.99 44.9092 1136.1 44.9848 1136.2 45.08C1136.33 45.3194 1136.36 45.5996 1136.3 45.8643C1136.23 46.1291 1136.06 46.3589 1135.84 46.5077L1129.25 51.7704C1129.03 51.9553 1128.75 52.0605 1128.46 52.069Z" fill="white"/>
<path d="M982.566 86.9585C982.566 86.9585 975.557 87.3504 971.276 103.288C966.996 119.226 964.267 138.653 965.827 143.706C967.388 148.758 984.122 162.368 990.351 162.368C996.58 162.368 996.968 157.702 995.8 153.816C994.632 149.93 982.566 139.409 982.566 139.409C982.566 139.409 992.295 108.317 991.912 100.157C991.529 91.9973 986.846 86.9585 982.566 86.9585Z" fill="#90AAFF"/>
<path d="M1070.3 82.2087L1069.14 82.3253L1071.74 77.1932C1071.74 77.1932 1078.36 76.778 1079.42 79.568L1076.39 86.2911L1070.3 82.2087Z" fill="white"/>
<path d="M1074.02 67.5586C1074.02 67.5586 1073.76 62.2959 1075.64 61.5494C1077.52 60.8029 1079.61 62.2586 1079.61 62.2586C1079.61 62.2586 1082.64 61.9506 1083.61 63.243C1084.59 64.5354 1084.5 66.5089 1084.5 66.5089C1085 66.6342 1085.46 66.8845 1085.84 67.2363C1086.22 67.588 1086.5 68.0297 1086.66 68.5197C1087.1 70.1434 1086.31 73.2833 1086.31 73.2833C1086.31 73.2833 1084.33 75.714 1082.04 75.1122C1079.75 74.5103 1074.02 67.5586 1074.02 67.5586Z" fill="white"/>
<path d="M1070.55 71.8277C1070.55 71.8277 1069.85 64.9413 1070.59 64.0315C1071.33 63.1218 1078.93 52.6289 1078.93 52.6289C1078.93 52.6289 1080.51 54.4158 1079.6 56.4593C1078.69 58.5029 1075.12 64.6894 1075.12 64.6894V69.9755C1075.12 69.9755 1072.76 71.6037 1070.55 71.8277Z" fill="white"/>
<path d="M1071.13 77.3563C1071.13 77.3563 1069.32 66.299 1070.55 64.7827C1071.79 63.2663 1077.87 64.1481 1079.03 64.5867C1080.18 65.0253 1083.4 69.1543 1083.84 70.7779C1084.28 72.4015 1081.26 78.2754 1079.44 79.5725C1077.62 80.8695 1072.17 79.4558 1071.13 77.3563Z" fill="white"/>
<path d="M1011.39 37.8439C1011.39 37.8439 1017.15 39.3136 1020.41 48.1408C1023.67 56.968 1021.5 75.7283 1019.32 77.9351C1017.15 80.1419 1010.54 79.3021 1001.38 76.2835C991.692 73.0922 988.421 63.0473 986.706 56.4175C983.393 43.7272 994.444 30.6729 1011.39 37.8439Z" fill="white"/>
<path d="M990.758 86.5708L995.431 69.8588C995.431 69.8588 1004.78 67.1387 1010.61 73.3579L1012.56 76.078V86.958C1005.33 88.1098 997.947 87.9787 990.758 86.5708Z" fill="white"/>
<path d="M1005.36 208.925H976.482C975.735 198.117 976.142 187.26 977.697 176.537C982.37 169.539 992.295 170.127 1001.06 176.537C1002.34 177.534 1003.34 178.837 1003.97 180.326C1007.11 187.175 1006.44 199.548 1005.36 208.925Z" fill="white"/>
<path d="M1034.18 208.925H1003.48C1003.06 207.305 1002.64 205.644 1002.22 203.943C1002.22 203.943 996.739 189.33 1003.96 180.326C1004.96 179.081 1006.15 178 1007.48 177.12C1019.74 168.96 1029.08 170.122 1032 183.535C1033.1 188.593 1033.87 198.297 1034.18 208.925Z" fill="white"/>
<path d="M1022.63 38.6326C1022.63 38.6326 1025.39 42.2204 1023.74 46.3588C1022.08 50.4971 1015.99 52.1627 1015.99 52.1627C1015.99 52.1627 1017.93 54.9248 1015.99 58.7832L1014.59 60.9946C1014.59 60.9946 1016.52 65.4083 1015.99 66.5093C1015.46 67.6104 1013.51 67.3398 1013.51 67.3398C1013.51 67.3398 1011.3 61.2746 1010.46 61.8205C1009.63 62.3663 1007.43 65.1283 1007.43 67.6151C1007.43 70.1018 1008.25 72.0287 1007.7 73.6803C1007.15 75.3319 998.585 75.3366 994.991 74.7861C991.398 74.2355 985.879 63.1968 984.496 58.228C984.496 58.228 982.561 51.3323 985.328 45.5377C985.328 45.5377 984.772 40.5735 989.473 35.6093C994.174 30.6452 1009.1 32.2968 1011.58 34.2097C1011.58 34.2097 1011.3 31.4523 1014.06 32.0029C1016.82 32.5534 1020.97 35.0541 1022.63 38.6326Z" fill="black"/>
<path d="M1014.34 63.7472C1014.34 63.7472 1013.51 60.1594 1010.47 61.8157C1007.43 63.472 1011.02 72.0239 1013.51 71.4687C1016 70.9135 1014.89 65.1236 1014.34 63.7472Z" fill="white"/>
<path d="M988.267 86.4826C988.267 86.4826 989.571 81.9103 990.739 81.5184C991.907 81.1265 1006.31 79.5776 1014.1 84.2385C1017.61 86.9585 1017.22 88.904 1017.22 88.904C1017.22 88.904 993.968 84.4531 988.267 86.4826Z" fill="#DEE0E8"/>
<path d="M985.46 84.1193C985.46 84.1193 1009.6 82.5458 1026.73 90.026C1034.52 93.9622 1052.33 111.763 1052.33 111.763L1066.36 82.2434C1066.36 82.2434 1074.24 79.4082 1077.36 86.8648C1077.36 86.8648 1068.5 121.7 1061.1 132.7C1056.43 136.637 1034.14 123.84 1034.14 123.84C1034.14 123.84 1037.64 169.501 1036.47 189.995C1034.92 193.931 1004.54 195.897 999.077 195.505C993.613 195.113 974.568 188.823 974.166 187.642C973.764 186.461 976.906 139.226 976.111 133.716C975.316 128.207 972.998 101.045 973.774 97.1093C974.55 93.1731 978.06 85.6929 985.46 84.1193Z" fill="#90AAFF"/>
<path d="M973.608 108.336L976.725 141.76" stroke="black" stroke-width="1.03" stroke-miterlimit="10"/>
<path d="M1027.04 119.995C1027.04 119.995 1050.1 136.609 1060.9 133.404" stroke="black" stroke-width="1.03" stroke-miterlimit="10"/>
<path d="M1054.48 115.913C1055.92 116.846 1057.09 118.15 1057.86 119.687C1058.63 121.225 1058.98 122.941 1058.86 124.656" stroke="black" stroke-width="1.03" stroke-miterlimit="10"/>
<path d="M1053.31 113.58C1054.83 113.202 1056.43 113.341 1057.86 113.975C1059.28 114.609 1060.46 115.702 1061.19 117.079" stroke="black" stroke-width="1.03" stroke-miterlimit="10"/>
<path d="M1026.16 93.4712C1026.16 93.4712 1013.9 99.8817 1022.07 114.746" stroke="black" stroke-width="1.03" stroke-miterlimit="10"/>
<path d="M1008.79 74.0908C1008.79 74.0908 1010.83 79.3396 1017.67 78.4624" stroke="black" stroke-width="1.03" stroke-miterlimit="10"/>
<path d="M1074.87 63.3038L1077.16 61.2603C1077.16 61.2603 1078.76 61.2603 1079.61 62.2773" stroke="black" stroke-width="1.03" stroke-miterlimit="10"/>
<path d="M1077.59 63.6398C1077.59 63.4952 1080.86 61.7456 1080.86 61.7456C1080.86 61.7456 1083.83 62.4781 1084.27 64.0317C1084.71 65.5854 1084.36 66.4112 1084.36 66.4112" stroke="black" stroke-width="1.03" stroke-miterlimit="10"/>
<path d="M1081.44 66.4576C1081.58 66.411 1085.57 66.6536 1085.57 66.6536C1086.02 66.9855 1086.38 67.4185 1086.62 67.9167C1086.86 68.4149 1086.99 68.9639 1086.97 69.5182C1086.91 70.7968 1086.69 72.0621 1086.3 73.2833C1086.3 73.2833 1084.9 75.2989 1082.45 75.2522" stroke="white" stroke-width="1.03" stroke-miterlimit="10"/>
<path d="M1083.72 70.54C1083.72 70.54 1084.19 71.3192 1083.58 72.7282C1082.97 74.1372 1082.18 77.823 1079.42 79.5492" stroke="black" stroke-width="1.03" stroke-miterlimit="10"/>
<path d="M1000.91 45.2296C995.216 42.463 987.917 45.8128 987.917 45.8128C988.26 44.6211 988.893 43.5322 989.758 42.6428C990.624 41.7533 991.696 41.0906 992.879 40.7134" stroke="black" stroke-width="1.37" stroke-miterlimit="10"/>
<path d="M988.206 48.1457C988.206 48.1457 989.669 48.0011 991.566 50.9124" stroke="black" stroke-width="1.37" stroke-miterlimit="10"/>
<path d="M1013.31 35.0771C1013.31 35.0771 1020.52 36.2435 1020.71 43.4332" stroke="black" stroke-width="1.37" stroke-miterlimit="10"/>
</g>
</g>
</g>
<defs>
<filter id="filter0_dd_72_12144" x="0.2" y="5.96046e-08" width="1174.6" height="173.6" filterUnits="userSpaceOnUse" color-interpolation-filters="sRGB">
<feFlood flood-opacity="0" result="BackgroundImageFix"/>
<feColorMatrix in="SourceAlpha" type="matrix" values="0 0 0 0 0 0 0 0 0 0 0 0 0 0 0 0 0 0 127 0" result="hardAlpha"/>
<feOffset dy="0.8"/>
<feGaussianBlur stdDeviation="0.9"/>
<feColorMatrix type="matrix" values="0 0 0 0 0 0 0 0 0 0 0 0 0 0 0 0 0 0 0.13 0"/>
<feBlend mode="normal" in2="BackgroundImageFix" result="effect1_dropShadow_72_12144"/>
<feColorMatrix in="SourceAlpha" type="matrix" values="0 0 0 0 0 0 0 0 0 0 0 0 0 0 0 0 0 0 127 0" result="hardAlpha"/>
<feOffset dy="0.15"/>
<feGaussianBlur stdDeviation="0.225"/>
<feColorMatrix type="matrix" values="0 0 0 0 0 0 0 0 0 0 0 0 0 0 0 0 0 0 0.11 0"/>
<feBlend mode="normal" in2="effect1_dropShadow_72_12144" result="effect2_dropShadow_72_12144"/>
<feBlend mode="normal" in="SourceGraphic" in2="effect2_dropShadow_72_12144" result="shape"/>
</filter>
<linearGradient id="paint0_linear_72_12144" x1="1173" y1="86" x2="1.99998" y2="85.9997" gradientUnits="userSpaceOnUse">
<stop stop-color="#D9E5FF"/>
<stop offset="1" stop-color="#EEDFFF"/>
</linearGradient>
<clipPath id="clip0_72_12144">
<rect x="2" y="1" width="1171" height="170" rx="4" fill="white"/>
</clipPath>
<clipPath id="clip1_72_12144">
<rect width="256" height="208" fill="white" transform="translate(912 1)"/>
</clipPath>
</defs>
</svg>
