<svg width="256" height="170" viewBox="0 0 256 170" fill="none" xmlns="http://www.w3.org/2000/svg">
<g clip-path="url(#clip0_674_21591)">
<path d="M46.233 35.4251C46.233 35.4251 68.2631 14.8439 95.344 24.6471C122.425 34.4504 143.552 79.0335 169.693 80.505C195.834 81.9764 220.201 66.7842 240.829 80.0364C261.457 93.2885 265.153 150.594 225.682 156.475C186.21 162.356 164.186 141.283 147.233 142.263C130.281 143.242 88.9446 165.295 56.3561 155.496C23.7676 145.697 -5.62916 78.0682 46.233 35.4251Z" fill="#D9E5FF"/>
<g opacity="0.46">
<path d="M235.771 39.1159H135.516C135.27 39.116 135.026 39.0598 134.805 38.9514C134.584 38.843 134.391 38.6855 134.24 38.4909C134.089 38.2962 133.985 38.0697 133.936 37.8287C133.886 37.5876 133.893 37.3385 133.955 37.1004L143.301 1.17561C143.393 0.832045 143.595 0.528278 143.878 0.311467C144.16 0.0946565 144.506 -0.0230698 144.862 -0.0234373H245.117C245.362 -0.023568 245.605 0.0325876 245.826 0.140711C246.046 0.248834 246.239 0.406045 246.389 0.600255C246.54 0.794464 246.643 1.0205 246.693 1.26098C246.742 1.50146 246.735 1.74997 246.673 1.98742L237.327 37.8889C237.243 38.2381 237.044 38.5489 236.761 38.7715C236.479 38.9941 236.13 39.1154 235.771 39.1159Z" fill="#BFD9FF"/>
<path d="M149.264 7.6792H184.148" stroke="#A9C2FF" stroke-width="3.45" stroke-linecap="round" stroke-linejoin="round"/>
<path d="M146.577 23.7568H181.466" stroke="#A9C2FF" stroke-width="3.45" stroke-linecap="round" stroke-linejoin="round"/>
<path d="M161.25 17.6821H196.134" stroke="#A9C2FF" stroke-width="3.45" stroke-linecap="round" stroke-linejoin="round"/>
<path d="M148.367 13.04H158.834" stroke="#A9C2FF" stroke-width="3.45" stroke-linecap="round" stroke-linejoin="round"/>
<path d="M146.937 17.6821H157.404" stroke="#A9C2FF" stroke-width="3.45" stroke-linecap="round" stroke-linejoin="round"/>
<path d="M189.695 7.6792H202.125" stroke="#A9C2FF" stroke-width="3.45" stroke-linecap="round" stroke-linejoin="round"/>
<path d="M195.788 31.2962H177.223C177.201 31.296 177.179 31.291 177.16 31.2815C177.14 31.272 177.123 31.2582 177.11 31.2411C177.096 31.2241 177.087 31.2043 177.082 31.1831C177.077 31.162 177.077 31.14 177.082 31.1189L177.914 27.9276C177.923 27.8972 177.941 27.8704 177.967 27.8511C177.992 27.8318 178.023 27.821 178.054 27.8203H196.62C196.642 27.821 196.663 27.8266 196.683 27.8367C196.702 27.8467 196.719 27.8611 196.732 27.8786C196.745 27.8961 196.754 27.9163 196.758 27.9377C196.762 27.9591 196.761 27.9812 196.756 28.0023L195.929 31.1888C195.92 31.2193 195.901 31.2461 195.876 31.2654C195.851 31.2847 195.82 31.2954 195.788 31.2962Z" stroke="#84AEE5" stroke-width="1.15" stroke-miterlimit="10"/>
<path d="M172.708 31.2963H154.143C154.118 31.3002 154.092 31.2973 154.069 31.2879C154.045 31.2785 154.025 31.2629 154.009 31.2428C153.994 31.2227 153.984 31.1989 153.981 31.1738C153.979 31.1487 153.983 31.1233 153.993 31.1003L154.82 27.9091C154.829 27.8786 154.847 27.8518 154.873 27.8325C154.898 27.8132 154.929 27.8025 154.96 27.8018H173.526C173.548 27.8017 173.57 27.8068 173.59 27.8166C173.61 27.8264 173.628 27.8406 173.641 27.8582C173.655 27.8758 173.664 27.8963 173.668 27.918C173.673 27.9398 173.672 27.9623 173.666 27.9837L172.835 31.1703C172.831 31.2023 172.816 31.2321 172.793 31.255C172.77 31.2778 172.74 31.2923 172.708 31.2963Z" stroke="#84AEE5" stroke-width="1.15" stroke-miterlimit="10"/>
<path d="M228.42 26.6729C227.485 25.4086 223.607 24.4894 222.541 23.2204C221.995 22.5766 221.995 21.3542 222.125 20.3511C222.455 20.1616 222.753 19.9224 223.009 19.6419C223.396 19.0517 223.745 18.4377 224.055 17.8037C224.112 17.8641 224.181 17.9119 224.257 17.944C224.334 17.9761 224.416 17.9919 224.499 17.9903C225.004 17.9903 226.934 15.3543 226.439 14.7244C226.154 14.3792 225.696 14.6778 225.35 14.9997C225.864 13.8333 226.224 12.9375 226.224 12.9375H226.2C226.252 12.7929 226.294 12.6436 226.331 12.471C227.097 9.40569 225.228 6.91895 222.158 6.91895C219.088 6.91895 215.98 9.44768 215.209 12.513C215.172 12.6623 215.139 12.8116 215.116 12.9795C215.116 12.9795 215.027 13.8753 214.957 15.0417C214.775 14.7198 214.466 14.4212 214.022 14.7664C213.219 15.3776 213.84 17.9997 214.34 18.0323C214.534 18.025 214.721 17.96 214.878 17.8457C214.869 18.4609 214.911 19.0757 215.004 19.6839C215.157 20.0115 215.388 20.2966 215.677 20.5144C215.293 21.4988 214.714 22.6092 213.892 23.2204C212.191 24.4894 207.868 25.4086 206.284 26.6729C204.882 27.8113 203.592 31.1379 203.349 31.805H228.789C228.887 31.1379 229.275 27.8347 228.42 26.6729Z" fill="#8DBCF8"/>
</g>
<path d="M218.326 67.6927H118.072C117.826 67.6928 117.583 67.6367 117.363 67.5286C117.142 67.4204 116.949 67.2632 116.799 67.069C116.648 66.8748 116.545 66.6488 116.496 66.4083C116.447 66.1678 116.453 65.9193 116.516 65.6819L125.862 29.7804C125.952 29.4355 126.154 29.1303 126.436 28.9124C126.719 28.6946 127.065 28.5765 127.422 28.5767H227.686C227.931 28.5796 228.171 28.6379 228.39 28.7472C228.608 28.8565 228.799 29.0139 228.947 29.2076C229.096 29.4013 229.198 29.6262 229.247 29.8652C229.296 30.1043 229.289 30.3513 229.228 30.5875L219.882 66.489C219.793 66.8331 219.591 67.1378 219.31 67.3555C219.028 67.5733 218.682 67.6918 218.326 67.6927Z" stroke="#7094D8" stroke-width="1.15" stroke-miterlimit="10"/>
<path d="M216.448 65.0145H116.193C115.947 65.0146 115.705 64.9585 115.484 64.8503C115.263 64.7422 115.07 64.585 114.92 64.3908C114.77 64.1966 114.666 63.9706 114.617 63.7301C114.568 63.4896 114.575 63.2411 114.637 63.0036L123.983 27.1022C124.073 26.7573 124.275 26.4521 124.558 26.2342C124.84 26.0164 125.187 25.8983 125.544 25.8984H225.808C226.054 25.8985 226.296 25.9548 226.517 26.0628C226.738 26.1709 226.931 26.328 227.082 26.5221C227.232 26.7162 227.336 26.942 227.386 27.1825C227.436 27.4229 227.43 27.6715 227.368 27.9093L218.022 63.8341C217.928 64.1769 217.721 64.4787 217.437 64.6922C217.152 64.9058 216.804 65.0191 216.448 65.0145Z" fill="#A5C5FF"/>
<path d="M147.652 65.0146H197.835" stroke="#7094D8" stroke-width="1.15" stroke-miterlimit="10"/>
<path d="M133.698 25.8984H176.096" stroke="#7094D8" stroke-width="1.15" stroke-miterlimit="10"/>
<path d="M208.354 59.6539H185.811C185.581 59.6672 185.35 59.6233 185.14 59.526C184.93 59.4287 184.748 59.2811 184.609 59.0963C184.47 58.9116 184.379 58.6954 184.345 58.467C184.31 58.2387 184.332 58.0053 184.41 57.7876L190.097 35.015C190.242 34.499 190.545 34.0414 190.964 33.7066C191.383 33.3718 191.897 33.1767 192.433 33.1488H214.976C215.207 33.1355 215.437 33.1794 215.647 33.2767C215.857 33.374 216.039 33.5216 216.178 33.7064C216.317 33.8911 216.408 34.1073 216.443 34.3357C216.477 34.564 216.455 34.7974 216.378 35.015L210.691 57.7876C210.546 58.3037 210.242 58.7613 209.823 59.0961C209.404 59.4309 208.89 59.6259 208.354 59.6539Z" fill="#B7DEFF"/>
<path d="M197.293 59.747L199.265 51.8436L196.05 50.4766C196.05 50.4766 190.022 52.6834 189.508 53.2152C189.078 53.6585 186.914 58.268 186.237 59.747H197.293Z" fill="#90AAFF"/>
<path d="M208.452 59.747C208.504 58.268 208.639 53.6585 208.452 53.2152C208.205 52.6834 203.274 50.4766 203.274 50.4766L199.321 51.8436L197.349 59.747H208.452Z" fill="#90AAFF"/>
<path d="M199.331 59.7472L202.419 52.9121L195.784 53.29L195.134 59.7472H199.331Z" fill="#F2F2F2"/>
<path d="M197.228 49.0399L195.779 49.9496L194.83 52.2264L194.587 55.343L196.62 54.5079L198.2 56.4068L200.312 54.6572L201.606 55.8749L203.56 51.6946L203.218 49.1145L202.401 48.7319L197.228 49.0399Z" fill="#F2F2F2"/>
<path d="M197.672 43.0539C197.617 42.9148 197.53 42.7906 197.418 42.6919C197.306 42.5932 197.172 42.5228 197.027 42.4867C196.881 42.4506 196.73 42.4498 196.584 42.4843C196.439 42.5189 196.304 42.5879 196.19 42.6854C195.195 43.4225 196.363 46.2499 197.083 45.3961C197.802 44.5423 197.672 43.0539 197.672 43.0539Z" fill="white"/>
<path d="M204.765 42.998C204.765 42.998 205.7 41.8317 206.424 42.4848C207.148 43.138 204.793 46.1286 204.405 45.3308C204.018 44.533 204.765 42.998 204.765 42.998Z" fill="white"/>
<path d="M202.55 51.242L203.569 45.8486L197.672 46.3572L196.372 51.424C196.372 51.424 197.401 53.8221 198.508 54.8858C198.508 54.8952 201.933 51.9279 202.55 51.242Z" fill="white"/>
<path d="M207.326 40.8188C207.106 41.4767 206.564 41.64 206.527 42.0225C206.456 42.6513 206.23 43.2527 205.868 43.7721C205.7 43.9593 205.508 44.1239 205.298 44.262C205.298 44.262 200.242 45.6617 197.676 43.7161C197.573 43.1751 197.573 42.6195 197.676 42.0785C197.849 41.1921 197.419 41.0381 197.919 40.6042C198.124 40.4509 198.29 40.2522 198.404 40.0239C198.518 39.7956 198.578 39.5438 198.578 39.2885C198.557 39.0001 198.596 38.7104 198.694 38.4381C198.791 38.1657 198.944 37.9167 199.144 37.7069C199.653 37.2123 200.116 37.3756 200.611 36.9417C200.611 36.9417 201.349 35.7054 202.326 35.5421C203.303 35.3788 205.349 34.8842 206.574 36.3819C207.798 37.8795 207.233 39.1812 207.583 39.6478C207.933 40.1143 207.326 40.8188 207.326 40.8188Z" fill="black"/>
<path d="M197.634 42.1253C197.634 42.1253 195.246 48.6897 199.742 49.1796C203.709 49.2729 205.12 44.4347 205.69 41.9526C206.261 39.4706 205.905 36.8765 202.728 36.9605C199.55 37.0445 197.98 40.6603 197.634 42.1253Z" fill="white"/>
<path d="M198.882 39.7738C198.963 39.9378 199.005 40.1182 199.005 40.301C199.005 40.4838 198.963 40.6642 198.882 40.8282C198.611 41.3601 197.873 41.5654 197.76 42.2652C197.648 42.965 197.326 44.4207 197.125 44.486C196.924 44.5513 197.069 43.063 197.125 42.5545C197.281 41.1361 197.787 39.7784 198.597 38.6028C199.658 37.2684 200.312 36.7039 202.2 36.3959C204.088 36.088 205.518 36.8625 206.041 38.0336C206.564 39.2046 205.728 42.1066 205.728 42.1066C205.728 42.1066 205.854 40.7069 205.387 40.3897C204.919 40.0724 204.532 39.8205 204.611 39.6292C204.69 39.4379 203.116 40.1331 201.546 39.6292C199.975 39.1253 199.471 39.3539 199.209 39.5172C199.084 39.5796 198.972 39.6669 198.882 39.7738Z" fill="black"/>
<path d="M194.433 52.3008C194.396 52.4547 192.242 57.5822 192.242 57.5822L194.111 58.5153L193.578 59.5791" stroke="#022755" stroke-width="0.49" stroke-miterlimit="10"/>
<path d="M203.756 52.3008C203.714 52.4547 203.312 57.5822 203.312 57.5822L200.943 58.5153V59.5791" stroke="#022755" stroke-width="0.49" stroke-miterlimit="10"/>
<path d="M208.354 59.6539H185.811C185.581 59.6672 185.35 59.6233 185.14 59.526C184.93 59.4287 184.748 59.2811 184.609 59.0963C184.47 58.9116 184.379 58.6954 184.345 58.467C184.31 58.2387 184.332 58.0053 184.41 57.7876L190.097 35.015C190.242 34.499 190.545 34.0414 190.964 33.7066C191.383 33.3718 191.897 33.1767 192.433 33.1488H214.976C215.207 33.1355 215.437 33.1794 215.647 33.2767C215.857 33.374 216.039 33.5216 216.178 33.7064C216.317 33.8911 216.408 34.1073 216.443 34.3357C216.477 34.564 216.455 34.7974 216.378 35.015L210.691 57.7876C210.546 58.3037 210.242 58.7613 209.823 59.0961C209.404 59.4309 208.89 59.6259 208.354 59.6539Z" stroke="white" stroke-width="1.15" stroke-miterlimit="10"/>
<path d="M129.941 34.4736H164.825" stroke="#73A5FF" stroke-width="3.45" stroke-linecap="round" stroke-linejoin="round"/>
<path d="M127.259 50.5469H162.143" stroke="#73A5FF" stroke-width="3.45" stroke-linecap="round" stroke-linejoin="round"/>
<path d="M141.927 44.4766H176.811" stroke="#73A5FF" stroke-width="3.45" stroke-linecap="round" stroke-linejoin="round"/>
<path d="M129.049 39.8301H139.511" stroke="#73A5FF" stroke-width="3.45" stroke-linecap="round" stroke-linejoin="round"/>
<path d="M127.614 44.4766H138.081" stroke="#73A5FF" stroke-width="3.45" stroke-linecap="round" stroke-linejoin="round"/>
<path d="M170.372 34.4736H182.807" stroke="#73A5FF" stroke-width="3.45" stroke-linecap="round" stroke-linejoin="round"/>
<path d="M176.465 58.0864H157.9C157.878 58.0865 157.857 58.0815 157.837 58.072C157.818 58.0624 157.801 58.0485 157.788 58.0314C157.775 58.0142 157.766 57.9942 157.762 57.973C157.758 57.9518 157.758 57.9299 157.764 57.9091L158.591 54.7225C158.6 54.6917 158.618 54.6645 158.643 54.6451C158.668 54.6257 158.7 54.6152 158.731 54.6152H177.297C177.319 54.6154 177.34 54.6204 177.36 54.6299C177.379 54.6394 177.397 54.6532 177.41 54.6702C177.424 54.6873 177.433 54.7071 177.438 54.7283C177.442 54.7494 177.442 54.7714 177.437 54.7925L176.606 57.9791C176.597 58.0099 176.579 58.0372 176.554 58.0566C176.529 58.076 176.497 58.0865 176.465 58.0864Z" stroke="#7094D8" stroke-width="1.15" stroke-miterlimit="10"/>
<path d="M153.39 58.0864H134.834C134.812 58.0863 134.791 58.0813 134.771 58.0717C134.752 58.0622 134.734 58.0484 134.721 58.0314C134.707 58.0144 134.698 57.9946 134.693 57.9734C134.689 57.9522 134.689 57.9303 134.694 57.9091L135.525 54.7225C135.533 54.6921 135.55 54.665 135.575 54.6455C135.599 54.6261 135.629 54.6154 135.661 54.6152H154.231C154.253 54.6152 154.274 54.6201 154.294 54.6297C154.313 54.6392 154.33 54.6531 154.343 54.6703C154.356 54.6875 154.365 54.7074 154.369 54.7286C154.374 54.7498 154.373 54.7717 154.367 54.7925L153.526 57.9791C153.519 58.01 153.502 58.0376 153.477 58.0572C153.453 58.0767 153.422 58.0871 153.39 58.0864Z" stroke="#7094D8" stroke-width="1.15" stroke-miterlimit="10"/>
<path d="M174.755 21.8813H196.494" stroke="#7094D8" stroke-width="1.15" stroke-miterlimit="10"/>
<path d="M217.546 116.275H117.268C117.022 116.275 116.779 116.219 116.559 116.111C116.338 116.003 116.145 115.846 115.994 115.652C115.843 115.458 115.739 115.232 115.69 114.991C115.64 114.751 115.646 114.502 115.707 114.264L125.053 78.3629C125.143 78.0181 125.345 77.7128 125.628 77.495C125.91 77.2771 126.257 77.159 126.614 77.1592H226.892C227.138 77.1598 227.38 77.2166 227.601 77.3253C227.822 77.4339 228.015 77.5916 228.165 77.7861C228.315 77.9806 228.419 78.2069 228.468 78.4476C228.517 78.6883 228.51 78.937 228.448 79.1747L219.102 115.1C219.008 115.439 218.804 115.738 218.523 115.95C218.242 116.163 217.898 116.277 217.546 116.275Z" fill="#BFD9FF"/>
<path d="M131.016 84.8433H165.9" stroke="#A9C2FF" stroke-width="3.45" stroke-linecap="round" stroke-linejoin="round"/>
<path d="M128.329 100.916H163.218" stroke="#A9C2FF" stroke-width="3.45" stroke-linecap="round" stroke-linejoin="round"/>
<path d="M143.002 94.8462H177.886" stroke="#A9C2FF" stroke-width="3.45" stroke-linecap="round" stroke-linejoin="round"/>
<path d="M130.119 90.1992H140.586" stroke="#A9C2FF" stroke-width="3.45" stroke-linecap="round" stroke-linejoin="round"/>
<path d="M128.689 94.8462H139.156" stroke="#A9C2FF" stroke-width="3.45" stroke-linecap="round" stroke-linejoin="round"/>
<path d="M171.447 84.8433H183.882" stroke="#A9C2FF" stroke-width="3.45" stroke-linecap="round" stroke-linejoin="round"/>
<path d="M177.54 108.456H158.974C158.953 108.455 158.931 108.45 158.912 108.441C158.892 108.431 158.875 108.418 158.862 108.401C158.848 108.384 158.839 108.364 158.834 108.343C158.829 108.321 158.829 108.299 158.834 108.278L159.666 105.092C159.674 105.061 159.693 105.034 159.718 105.014C159.743 104.995 159.774 104.984 159.806 104.984H178.372C178.394 104.985 178.415 104.99 178.435 104.999C178.454 105.009 178.471 105.022 178.485 105.039C178.498 105.056 178.508 105.076 178.513 105.097C178.517 105.119 178.517 105.141 178.512 105.162L177.68 108.348C177.672 108.379 177.654 108.406 177.629 108.426C177.603 108.445 177.572 108.456 177.54 108.456Z" stroke="#84AEE5" stroke-width="1.15" stroke-miterlimit="10"/>
<path d="M154.46 108.456H135.894C135.873 108.456 135.852 108.451 135.832 108.441C135.813 108.432 135.796 108.418 135.783 108.401C135.77 108.383 135.761 108.363 135.756 108.342C135.752 108.321 135.753 108.299 135.759 108.278L136.591 105.092C136.597 105.061 136.614 105.033 136.639 105.014C136.664 104.994 136.695 104.984 136.726 104.984H155.292C155.314 104.985 155.335 104.99 155.355 104.999C155.374 105.009 155.391 105.022 155.405 105.039C155.418 105.056 155.428 105.076 155.433 105.097C155.437 105.119 155.437 105.141 155.432 105.162L154.601 108.348C154.593 108.38 154.575 108.407 154.549 108.427C154.524 108.446 154.492 108.456 154.46 108.456Z" stroke="#84AEE5" stroke-width="1.15" stroke-miterlimit="10"/>
<path d="M210.172 103.837C209.237 102.568 205.359 101.649 204.293 100.384C203.751 99.7359 203.751 98.5181 203.877 97.515C204.205 97.3226 204.502 97.0837 204.761 96.8059C205.148 96.2156 205.497 95.6017 205.807 94.9677C205.864 95.0281 205.933 95.0757 206.009 95.1071C206.086 95.1385 206.168 95.153 206.251 95.1496C206.756 95.1496 208.686 92.5136 208.191 91.907C207.905 91.5571 207.447 91.8604 207.102 92.1823C207.616 91.0159 207.976 90.1201 207.976 90.1201C208.022 89.9708 208.064 89.8215 208.106 89.6536C208.868 86.5883 206.999 84.1016 203.929 84.1016C200.859 84.1016 197.732 86.621 196.985 89.6722C196.947 89.8215 196.915 89.9708 196.891 90.1388C196.891 90.1388 196.802 91.0346 196.732 92.201C196.55 91.8791 196.242 91.5758 195.798 91.9257C194.994 92.5322 195.615 95.1543 196.115 95.1683C196.309 95.1647 196.497 95.1011 196.653 94.9863C196.644 95.6015 196.686 96.2163 196.779 96.8245C196.93 97.1599 197.161 97.4531 197.452 97.6783C197.069 98.6581 196.489 99.7732 195.667 100.384C193.966 101.649 189.643 102.568 188.064 103.837C186.639 104.975 185.368 108.297 185.125 108.969H210.536C210.639 108.297 211.027 104.975 210.172 103.837Z" fill="#8DBCF8"/>
<g opacity="0.46">
<path d="M207.148 164.144H106.889C106.643 164.144 106.401 164.088 106.18 163.98C105.959 163.872 105.767 163.714 105.616 163.52C105.466 163.326 105.362 163.1 105.313 162.859C105.264 162.619 105.271 162.37 105.333 162.133L114.679 126.208C114.767 125.863 114.968 125.558 115.25 125.34C115.532 125.122 115.879 125.004 116.235 125.004H216.504C216.75 125.004 216.993 125.061 217.215 125.169C217.436 125.277 217.629 125.435 217.78 125.629C217.931 125.824 218.035 126.051 218.084 126.292C218.133 126.533 218.127 126.782 218.065 127.02L208.719 162.921C208.632 163.271 208.43 163.582 208.145 163.804C207.86 164.025 207.509 164.145 207.148 164.144Z" fill="#BFD9FF"/>
<path d="M120.637 132.712H155.526" stroke="#A9C2FF" stroke-width="3.45" stroke-linecap="round" stroke-linejoin="round"/>
<path d="M117.955 148.785H152.839" stroke="#A9C2FF" stroke-width="3.45" stroke-linecap="round" stroke-linejoin="round"/>
<path d="M132.623 142.715H167.512" stroke="#A9C2FF" stroke-width="3.45" stroke-linecap="round" stroke-linejoin="round"/>
<path d="M119.745 138.068H130.207" stroke="#A9C2FF" stroke-width="3.45" stroke-linecap="round" stroke-linejoin="round"/>
<path d="M118.315 142.715H128.778" stroke="#A9C2FF" stroke-width="3.45" stroke-linecap="round" stroke-linejoin="round"/>
<path d="M161.068 132.712H173.503" stroke="#A9C2FF" stroke-width="3.45" stroke-linecap="round" stroke-linejoin="round"/>
<path d="M167.166 156.324H148.596C148.574 156.324 148.553 156.319 148.533 156.31C148.514 156.3 148.497 156.286 148.484 156.269C148.471 156.252 148.462 156.232 148.458 156.211C148.454 156.19 148.454 156.168 148.46 156.147L149.292 152.96C149.299 152.93 149.316 152.902 149.34 152.882C149.365 152.863 149.396 152.852 149.427 152.853H168.012C168.034 152.853 168.055 152.858 168.075 152.868C168.094 152.877 168.111 152.891 168.125 152.908C168.138 152.925 168.148 152.945 168.152 152.966C168.157 152.987 168.157 153.009 168.152 153.03L167.32 156.217C167.314 156.251 167.294 156.282 167.265 156.302C167.236 156.322 167.201 156.33 167.166 156.324Z" stroke="#84AEE5" stroke-width="1.15" stroke-miterlimit="10"/>
<path d="M144.086 156.324H125.52C125.499 156.324 125.477 156.319 125.458 156.31C125.438 156.3 125.421 156.286 125.408 156.269C125.394 156.252 125.385 156.232 125.38 156.211C125.375 156.19 125.375 156.168 125.38 156.147L126.212 152.96C126.22 152.93 126.238 152.902 126.264 152.883C126.289 152.863 126.32 152.853 126.352 152.853H144.918C144.94 152.853 144.961 152.858 144.98 152.867C145 152.877 145.017 152.891 145.03 152.908C145.043 152.925 145.052 152.945 145.056 152.966C145.06 152.988 145.059 153.01 145.054 153.03L144.226 156.217C144.218 156.248 144.2 156.275 144.175 156.294C144.149 156.314 144.118 156.324 144.086 156.324Z" stroke="#84AEE5" stroke-width="1.15" stroke-miterlimit="10"/>
<path d="M199.788 151.706C198.854 150.437 194.975 149.517 193.91 148.253C193.363 147.605 193.363 146.387 193.494 145.384C193.82 145.19 194.118 144.951 194.377 144.675C194.763 144.084 195.111 143.47 195.419 142.836C195.477 142.896 195.545 142.943 195.622 142.976C195.698 143.008 195.78 143.024 195.863 143.023C196.372 143.023 198.302 140.382 197.802 139.757C197.517 139.407 197.059 139.71 196.718 140.032C197.228 138.866 197.587 137.97 197.587 137.97C197.634 137.821 197.681 137.676 197.718 137.504C198.485 134.438 196.615 131.952 193.545 131.952C190.475 131.952 187.363 134.438 186.597 137.504C186.559 137.658 186.531 137.802 186.508 137.97C186.508 137.97 186.419 138.866 186.344 140.032C186.167 139.71 185.854 139.407 185.41 139.757C184.611 140.364 185.232 142.986 185.727 143.023C185.921 143.016 186.108 142.951 186.265 142.836C186.258 143.452 186.3 144.066 186.391 144.675C186.553 145.019 186.797 145.318 187.101 145.547C186.723 146.527 186.139 147.642 185.316 148.253C183.62 149.517 179.297 150.437 177.713 151.706C176.288 152.844 175.017 156.166 174.779 156.838H200.218C200.256 156.166 200.653 152.844 199.788 151.706Z" fill="#8DBCF8"/>
</g>
<path d="M187.101 164.326H204.99" stroke="#7094D8" stroke-width="1.15" stroke-miterlimit="10"/>
<path d="M126.273 116.457H168.853" stroke="#7094D8" stroke-width="1.15" stroke-miterlimit="10"/>
<path d="M178.601 116.457H188.98" stroke="#7094D8" stroke-width="1.15" stroke-miterlimit="10"/>
<path d="M223.42 77.3364H227.013C227.26 77.3365 227.503 77.3943 227.722 77.5052C227.942 77.616 228.133 77.7768 228.28 77.9747C228.426 78.1725 228.524 78.4019 228.565 78.6443C228.607 78.8867 228.59 79.1355 228.518 79.3706L226.995 84.2881" stroke="#7094D8" stroke-width="1.15" stroke-miterlimit="10"/>
<path d="M109.511 14.2115H107.674C107.571 14.2167 107.467 14.1963 107.374 14.1522C107.28 14.1081 107.198 14.0416 107.137 13.9585C107.075 13.8755 107.034 13.7785 107.019 13.6762C107.003 13.5738 107.013 13.4692 107.048 13.3717L107.515 11.5381C107.58 11.3084 107.716 11.1047 107.903 10.9558C108.09 10.8069 108.319 10.7201 108.557 10.7076H110.394C110.496 10.7056 110.597 10.7283 110.688 10.7737C110.779 10.8192 110.858 10.886 110.918 10.9686C110.978 11.0512 111.017 11.147 111.031 11.2478C111.046 11.3486 111.035 11.4514 111.001 11.5474L110.534 13.3717C110.472 13.6006 110.341 13.8046 110.157 13.9552C109.974 14.1057 109.748 14.1953 109.511 14.2115Z" fill="#BFD9FF"/>
<path d="M108.17 19.5816H106.328C106.226 19.5862 106.124 19.5658 106.031 19.5222C105.938 19.4785 105.858 19.413 105.796 19.3312C105.734 19.2494 105.694 19.1538 105.677 19.0527C105.661 18.9516 105.669 18.8481 105.702 18.7511L106.17 16.9175C106.235 16.6878 106.37 16.4842 106.557 16.3352C106.744 16.1863 106.973 16.0995 107.212 16.0871H109.048C109.151 16.0825 109.253 16.1028 109.345 16.1465C109.438 16.1901 109.519 16.2557 109.58 16.3375C109.642 16.4193 109.683 16.5148 109.699 16.6159C109.716 16.717 109.707 16.8205 109.674 16.9175L109.207 18.7511C109.143 18.9805 109.008 19.184 108.822 19.3329C108.636 19.4819 108.408 19.5689 108.17 19.5816Z" fill="#EDF4FF"/>
<path d="M114.006 19.5814H112.174C112.072 19.5872 111.969 19.5675 111.876 19.5242C111.782 19.481 111.701 19.4153 111.639 19.3332C111.577 19.2511 111.536 19.155 111.521 19.0534C111.505 18.9519 111.514 18.848 111.548 18.751L112.015 16.9174C112.079 16.6869 112.214 16.4825 112.402 16.3334C112.589 16.1842 112.818 16.098 113.058 16.0869H114.889C114.992 16.0812 115.095 16.1008 115.188 16.1441C115.282 16.1874 115.363 16.253 115.425 16.3351C115.487 16.4172 115.527 16.5133 115.543 16.6149C115.559 16.7165 115.55 16.8204 115.516 16.9174L115.048 18.751C114.984 18.9814 114.849 19.1858 114.662 19.335C114.475 19.4841 114.245 19.5704 114.006 19.5814Z" fill="#BFD9FF"/>
<path d="M119.847 19.5814H118.011C117.908 19.5872 117.805 19.5675 117.712 19.5242C117.619 19.481 117.538 19.4153 117.476 19.3332C117.414 19.2511 117.373 19.155 117.357 19.0534C117.341 18.9519 117.351 18.848 117.385 18.751L117.852 16.9174C117.916 16.6869 118.051 16.4825 118.238 16.3334C118.425 16.1842 118.655 16.098 118.894 16.0869H120.726C120.829 16.0812 120.931 16.1008 121.025 16.1441C121.118 16.1874 121.199 16.253 121.261 16.3351C121.323 16.4172 121.364 16.5133 121.38 16.6149C121.396 16.7165 121.386 16.8204 121.352 16.9174L120.885 18.751C120.821 18.9807 120.687 19.1846 120.501 19.3336C120.314 19.4827 120.086 19.5694 119.847 19.5814Z" fill="#EDF4FF"/>
<path d="M106.796 25.0775H104.964C104.861 25.0833 104.758 25.0636 104.665 25.0203C104.572 24.9771 104.49 24.9114 104.429 24.8293C104.367 24.7472 104.326 24.6511 104.31 24.5495C104.294 24.448 104.304 24.3441 104.338 24.247L104.805 22.4135C104.87 22.1808 105.007 21.9748 105.197 21.8254C105.387 21.6761 105.619 21.5911 105.861 21.583H107.693C107.796 21.5773 107.898 21.5969 107.992 21.6402C108.085 21.6835 108.166 21.7491 108.228 21.8312C108.29 21.9133 108.331 22.0094 108.347 22.111C108.363 22.2126 108.353 22.3164 108.319 22.4135L107.852 24.247C107.787 24.4797 107.65 24.6857 107.46 24.8351C107.27 24.9845 107.037 25.0694 106.796 25.0775Z" fill="#EDF4FF"/>
<path d="M105.333 30.9468H103.497C103.394 30.9514 103.292 30.931 103.199 30.8874C103.107 30.8438 103.026 30.7782 102.964 30.6964C102.902 30.6146 102.862 30.519 102.845 30.418C102.829 30.3169 102.838 30.2134 102.87 30.1163L103.338 28.2828C103.402 28.0527 103.537 27.8487 103.724 27.6996C103.911 27.5506 104.141 27.464 104.38 27.4523H106.216C106.319 27.4477 106.421 27.4681 106.513 27.5117C106.606 27.5553 106.687 27.6209 106.749 27.7027C106.81 27.7845 106.851 27.8801 106.867 27.9811C106.884 28.0822 106.875 28.1858 106.842 28.2828L106.375 30.1163C106.31 30.3461 106.175 30.5497 105.988 30.6987C105.801 30.8476 105.572 30.9344 105.333 30.9468Z" fill="#EDF4FF"/>
<path d="M112.637 25.0775H110.8C110.698 25.0833 110.595 25.0636 110.502 25.0203C110.408 24.9771 110.327 24.9114 110.265 24.8293C110.203 24.7472 110.163 24.6511 110.147 24.5495C110.131 24.448 110.14 24.3441 110.174 24.247L110.642 22.4135C110.705 22.183 110.841 21.9786 111.028 21.8295C111.215 21.6803 111.444 21.594 111.684 21.583H113.515C113.618 21.5773 113.721 21.5969 113.814 21.6402C113.908 21.6835 113.989 21.7491 114.051 21.8312C114.113 21.9133 114.153 22.0094 114.169 22.111C114.185 22.2126 114.176 22.3164 114.142 22.4135L113.674 24.247C113.61 24.4761 113.475 24.6792 113.289 24.8281C113.103 24.9769 112.875 25.0641 112.637 25.0775Z" fill="#EDF4FF"/>
<path d="M110.067 35.2997H108.244C108.142 35.3054 108.039 35.2858 107.946 35.2425C107.852 35.1992 107.771 35.1336 107.709 35.0515C107.647 34.9694 107.606 34.8733 107.591 34.7717C107.575 34.6701 107.584 34.5662 107.618 34.4692L108.085 32.6356C108.149 32.4052 108.284 32.2008 108.472 32.0516C108.659 31.9025 108.888 31.8162 109.128 31.8052H110.959C111.062 31.7994 111.165 31.8191 111.258 31.8624C111.351 31.9056 111.433 31.9713 111.495 32.0534C111.557 32.1355 111.597 32.2316 111.613 32.3332C111.629 32.4347 111.619 32.5386 111.586 32.6356L111.118 34.4692C111.054 34.7011 110.917 34.9066 110.728 35.0559C110.539 35.2052 110.308 35.2906 110.067 35.2997Z" fill="#BFD9FF"/>
<path d="M138.937 3.57373H138.824C138.638 3.57373 138.446 3.57373 138.254 3.57373C132.81 3.57373 127.305 7.9267 125.857 13.3341L125.791 13.5954C125.789 13.6217 125.789 13.6483 125.791 13.6747L125.749 13.838C124.558 19.32 128.086 23.6823 133.693 23.4537C138.834 23.2484 144.025 19.152 145.568 14.0712C147.25 8.50989 144.203 3.91432 138.937 3.57373ZM142.675 13.838C141.591 17.4491 137.885 20.3697 134.236 20.4771C130.31 20.603 127.866 17.5657 128.675 13.74L128.787 13.2734C129.829 9.485 133.693 6.44772 137.511 6.44772C137.708 6.44772 137.899 6.44772 138.091 6.44772C141.745 6.7883 143.843 9.99354 142.689 13.838H142.675Z" fill="#EBEDFC"/>
<path d="M138.404 5.23921C138.355 5.3824 138.335 5.53421 138.347 5.68515C138.359 5.8361 138.403 5.98294 138.474 6.11649C138.546 6.25004 138.644 6.36743 138.763 6.46133C138.882 6.55523 139.019 6.62361 139.166 6.66221C142.138 7.45069 143.726 10.3947 142.689 13.8332C141.605 17.4443 137.899 20.365 134.25 20.4723C130.6 20.5796 128.32 18.0695 128.549 14.7243C128.564 14.5683 128.545 14.4108 128.493 14.2629C128.441 14.115 128.358 13.9801 128.248 13.8677C128.139 13.7553 128.006 13.6681 127.859 13.6122C127.713 13.5563 127.556 13.533 127.399 13.5439C126.936 13.566 126.495 13.7494 126.154 14.0622C125.812 14.3751 125.592 14.7976 125.53 15.2562C125.207 20.0244 128.586 23.6122 133.712 23.4022C138.838 23.1923 144.035 19.1006 145.582 14.0198C147.072 9.11629 144.825 4.93595 140.596 3.81622C140.118 3.73782 139.629 3.84031 139.223 4.10358C138.818 4.36684 138.526 4.77188 138.404 5.23921Z" fill="#A5C5FF"/>
<path d="M163.718 2.54736H163.587C163.404 2.54736 163.218 2.54736 163.031 2.54736C157.53 2.54736 151.956 6.99831 150.586 12.4943C149.217 17.9904 152.563 22.4366 158.063 22.4366C158.25 22.4366 158.437 22.4366 158.629 22.4366H158.764C163.998 22.0821 169.138 17.8224 170.484 12.6016C170.486 12.5737 170.486 12.5456 170.484 12.5177C171.821 7.20359 168.806 2.90195 163.718 2.54736ZM159.292 19.4367H159.264H158.914H158.797C154.918 19.4367 152.558 16.3014 153.526 12.4384C154.493 8.57527 158.418 5.44001 162.297 5.44001H162.404C162.521 5.44001 162.633 5.44001 162.75 5.44001H162.778C166.362 5.69195 168.484 8.7059 167.559 12.4384C167.553 12.4669 167.545 12.495 167.535 12.5223C166.61 16.2175 162.975 19.2081 159.292 19.4367Z" fill="white"/>
<path d="M167.119 13.7776C166.48 15.1859 165.517 16.4241 164.309 17.3919C163.101 18.3597 161.682 19.0299 160.166 19.3482C159.795 19.4205 159.451 19.5938 159.172 19.8491C158.893 20.1043 158.691 20.4315 158.587 20.7946C158.521 20.9911 158.511 21.2018 158.557 21.4036C158.604 21.6055 158.705 21.7907 158.849 21.9391C158.994 22.0875 159.177 22.1932 159.378 22.2448C159.579 22.2964 159.79 22.2918 159.988 22.2315C162.147 21.7839 164.169 20.8322 165.888 19.4545C167.608 18.0767 168.976 16.312 169.881 14.3048C170.274 13.395 169.797 12.5552 168.872 12.5552C168.495 12.5758 168.131 12.7012 167.821 12.9171C167.512 13.1331 167.269 13.4311 167.119 13.7776Z" fill="#BFD9FF"/>
<path d="M137.287 37.5486H118.721C118.699 37.5486 118.677 37.5436 118.657 37.5338C118.637 37.524 118.62 37.5097 118.606 37.4921C118.593 37.4746 118.583 37.4541 118.579 37.4323C118.575 37.4106 118.575 37.3881 118.581 37.3666L119.413 34.1801C119.422 34.1496 119.44 34.1228 119.465 34.1035C119.491 34.0842 119.521 34.0735 119.553 34.0728H138.105C138.127 34.0727 138.149 34.0778 138.169 34.0876C138.189 34.0974 138.206 34.1116 138.22 34.1292C138.233 34.1468 138.243 34.1673 138.247 34.189C138.251 34.2108 138.251 34.2333 138.245 34.2547L137.413 37.4413C137.405 37.4696 137.389 37.4949 137.366 37.514C137.344 37.5331 137.316 37.5451 137.287 37.5486Z" fill="#EDF4FF"/>
<path d="M223.401 52.3255C227.265 48.9175 228.241 43.7155 225.579 40.7065C222.917 37.6975 217.627 38.0209 213.762 41.4289C209.897 44.8369 208.921 50.0389 211.583 53.0479C214.245 56.0569 219.536 55.7335 223.401 52.3255Z" fill="#73A5FF"/>
<path d="M230.775 55.7255C230.603 56.3469 230.24 56.8986 229.737 57.3029C229.234 57.7072 228.616 57.9437 227.971 57.9789C227.694 57.9917 227.417 57.9364 227.165 57.8179C226.914 57.6994 226.695 57.5213 226.528 57.2991C226.361 57.0769 226.252 56.8174 226.208 56.5431C226.165 56.2688 226.19 55.9881 226.28 55.7255C226.452 55.1041 226.815 54.5523 227.318 54.148C227.821 53.7437 228.439 53.5073 229.084 53.472C229.361 53.4593 229.638 53.5146 229.89 53.6331C230.141 53.7516 230.36 53.9297 230.527 54.1518C230.693 54.374 230.803 54.6336 230.847 54.9078C230.89 55.1821 230.865 55.4628 230.775 55.7255Z" fill="#73A5FF"/>
<path d="M216.462 51.069C216.339 51.0731 216.217 51.0481 216.106 50.9962C215.995 50.9443 215.897 50.867 215.822 50.7704L213.691 47.9384C213.557 47.6991 213.52 47.4183 213.586 47.1525C213.652 46.8867 213.816 46.6558 214.046 46.5061C214.139 46.4109 214.251 46.3353 214.374 46.2836C214.497 46.232 214.629 46.2054 214.763 46.2054C214.897 46.2054 215.029 46.232 215.152 46.2836C215.275 46.3353 215.387 46.4109 215.48 46.5061L217.074 48.6243L222.761 44.08C222.854 43.9848 222.966 43.9092 223.089 43.8575C223.212 43.8059 223.345 43.7793 223.478 43.7793C223.612 43.7793 223.744 43.8059 223.867 43.8575C223.99 43.9092 224.102 43.9848 224.196 44.08C224.327 44.3194 224.363 44.5996 224.296 44.8643C224.229 45.1291 224.065 45.3589 223.836 45.5077L217.251 50.7704C217.029 50.9553 216.751 51.0605 216.462 51.069Z" fill="white"/>
<path d="M70.5659 85.9585C70.5659 85.9585 63.5564 86.3504 59.2759 102.288C54.9955 118.226 52.2664 137.653 53.8272 142.706C55.388 147.758 72.122 161.368 78.3511 161.368C84.5803 161.368 84.9681 156.702 83.7999 152.816C82.6316 148.93 70.5659 138.409 70.5659 138.409C70.5659 138.409 80.2951 107.317 79.9119 99.1574C79.5287 90.9973 74.8464 85.9585 70.5659 85.9585Z" fill="#90AAFF"/>
<path d="M158.297 81.2087L157.138 81.3253L159.741 76.1932C159.741 76.1932 166.362 75.778 167.423 78.568L164.386 85.2911L158.297 81.2087Z" fill="white"/>
<path d="M162.021 66.5586C162.021 66.5586 161.76 61.2959 163.638 60.5494C165.517 59.8029 167.61 61.2586 167.61 61.2586C167.61 61.2586 170.643 60.9506 171.615 62.243C172.587 63.5354 172.503 65.5089 172.503 65.5089C173.003 65.6342 173.463 65.8845 173.84 66.2363C174.217 66.588 174.498 67.0297 174.657 67.5197C175.101 69.1434 174.311 72.2833 174.311 72.2833C174.311 72.2833 172.325 74.714 170.035 74.1122C167.746 73.5103 162.021 66.5586 162.021 66.5586Z" fill="white"/>
<path d="M158.549 70.8277C158.549 70.8277 157.848 63.9413 158.591 63.0315C159.334 62.1218 166.933 51.6289 166.933 51.6289C166.933 51.6289 168.507 53.4158 167.601 55.4593C166.694 57.5029 163.119 63.6894 163.119 63.6894V68.9755C163.119 68.9755 160.76 70.6037 158.549 70.8277Z" fill="white"/>
<path d="M159.133 76.3563C159.133 76.3563 157.316 65.299 158.554 63.7827C159.792 62.2663 165.867 63.1481 167.026 63.5867C168.185 64.0253 171.395 68.1543 171.839 69.7779C172.283 71.4015 169.26 77.2754 167.442 78.5725C165.624 79.8695 160.166 78.4558 159.133 76.3563Z" fill="white"/>
<path d="M99.3937 36.8439C99.3937 36.8439 105.151 38.3136 108.413 47.1408C111.674 55.968 109.501 74.7283 107.324 76.9351C105.146 79.1419 98.5432 78.3021 89.3841 75.2835C79.6923 72.0922 76.4212 62.0473 74.7062 55.4175C71.393 42.7272 82.4447 29.6729 99.3937 36.8439Z" fill="white"/>
<path d="M78.7577 85.5708L83.4307 68.8588C83.4307 68.8588 92.7767 66.1387 98.6133 72.3579L100.562 75.078V85.958C93.3276 87.1098 85.9464 86.9787 78.7577 85.5708Z" fill="white"/>
<path d="M93.3561 207.925H64.4816C63.7349 197.117 64.1422 186.26 65.6966 175.537C70.3696 168.539 80.2951 169.127 89.0616 175.537C90.3364 176.534 91.3366 177.837 91.9682 179.326C95.1132 186.175 94.4356 198.548 93.3561 207.925Z" fill="white"/>
<path d="M122.179 207.925H91.4822C91.0586 206.305 90.638 204.644 90.2205 202.943C90.2205 202.943 84.7391 188.33 91.9589 179.326C92.958 178.081 94.1452 177 95.4777 176.12C107.74 167.96 117.081 169.122 120.002 182.535C121.1 187.593 121.871 197.297 122.179 207.925Z" fill="white"/>
<path d="M110.628 37.6326C110.628 37.6326 113.389 41.2204 111.735 45.3588C110.081 49.4971 103.992 51.1627 103.992 51.1627C103.992 51.1627 105.927 53.9248 103.992 57.7832L102.59 59.9946C102.59 59.9946 104.525 64.4083 103.992 65.5093C103.459 66.6104 101.506 66.3398 101.506 66.3398C101.506 66.3398 99.2955 60.2746 98.4637 60.8205C97.6319 61.3663 95.4263 64.1283 95.4263 66.6151C95.4263 69.1018 96.2534 71.0287 95.702 72.6803C95.1506 74.3319 86.585 74.3366 82.9914 73.7861C79.3979 73.2355 73.8791 62.1968 72.4959 57.228C72.4959 57.228 70.5612 50.3323 73.3276 44.5377C73.3276 44.5377 72.7716 39.5735 77.4726 34.6093C82.1736 29.6452 97.0992 31.2968 99.5759 33.2097C99.5759 33.2097 99.3002 30.4523 102.062 31.0029C104.824 31.5534 108.969 34.0541 110.628 37.6326Z" fill="black"/>
<path d="M102.338 62.7472C102.338 62.7472 101.511 59.1594 98.4684 60.8157C95.4263 62.472 99.0245 71.0239 101.511 70.4687C103.997 69.9135 102.894 64.1236 102.338 62.7472Z" fill="white"/>
<path d="M76.267 85.4826C76.267 85.4826 77.5707 80.9103 78.739 80.5184C79.9072 80.1265 94.3094 78.5776 102.104 83.2385C105.609 85.9585 105.216 87.904 105.216 87.904C105.216 87.904 81.968 83.4531 76.267 85.4826Z" fill="#DEE0E8"/>
<path d="M73.4602 83.1193C73.4602 83.1193 97.5997 81.5458 114.732 89.026C122.52 92.9622 140.335 110.763 140.335 110.763L154.358 81.2434C154.358 81.2434 162.244 78.4082 165.358 85.8648C165.358 85.8648 156.499 120.7 149.104 131.7C144.43 135.637 122.137 122.84 122.137 122.84C122.137 122.84 125.643 168.501 124.474 188.995C122.917 192.931 92.5418 194.897 87.0772 194.505C81.6126 194.113 62.5684 187.823 62.1664 186.642C61.7644 185.461 64.9057 138.226 64.111 132.716C63.3163 127.207 60.9977 100.045 61.7737 96.1093C62.5497 92.1731 66.0603 84.6929 73.4602 83.1193Z" fill="#90AAFF"/>
<path d="M61.6078 107.336L64.7247 140.76" stroke="black" stroke-width="1.03" stroke-miterlimit="10"/>
<path d="M115.039 118.995C115.039 118.995 138.105 135.609 148.904 132.404" stroke="black" stroke-width="1.03" stroke-miterlimit="10"/>
<path d="M142.479 114.913C143.925 115.846 145.094 117.15 145.864 118.687C146.634 120.225 146.977 121.941 146.857 123.656" stroke="black" stroke-width="1.03" stroke-miterlimit="10"/>
<path d="M141.31 112.58C142.827 112.202 144.427 112.341 145.855 112.975C147.284 113.609 148.459 114.702 149.194 116.079" stroke="black" stroke-width="1.03" stroke-miterlimit="10"/>
<path d="M114.16 92.4712C114.16 92.4712 101.898 98.8817 110.071 113.746" stroke="black" stroke-width="1.03" stroke-miterlimit="10"/>
<path d="M96.7908 73.0908C96.7908 73.0908 98.8329 78.3396 105.67 77.4624" stroke="black" stroke-width="1.03" stroke-miterlimit="10"/>
<path d="M162.872 62.3038L165.157 60.2603C165.157 60.2603 166.764 60.2603 167.615 61.2773" stroke="black" stroke-width="1.03" stroke-miterlimit="10"/>
<path d="M165.591 62.6398C165.591 62.4952 168.863 60.7456 168.863 60.7456C168.863 60.7456 171.83 61.4781 172.269 63.0317C172.708 64.5854 172.363 65.4112 172.363 65.4112" stroke="black" stroke-width="1.03" stroke-miterlimit="10"/>
<path d="M169.437 65.4576C169.582 65.411 173.573 65.6536 173.573 65.6536C174.018 65.9855 174.377 66.4185 174.621 66.9167C174.864 67.4149 174.986 67.9639 174.975 68.5182C174.912 69.7968 174.686 71.0621 174.302 72.2833C174.302 72.2833 172.9 74.2989 170.447 74.2522" stroke="white" stroke-width="1.03" stroke-miterlimit="10"/>
<path d="M171.722 69.54C171.722 69.54 172.19 70.3192 171.578 71.7282C170.965 73.1372 170.176 76.823 167.423 78.5492" stroke="black" stroke-width="1.03" stroke-miterlimit="10"/>
<path d="M88.9075 44.2296C83.2157 41.463 75.9165 44.8128 75.9165 44.8128C76.2602 43.6211 76.8928 42.5322 77.7584 41.6428C78.624 40.7533 79.6959 40.0906 80.8792 39.7134" stroke="black" stroke-width="1.37" stroke-miterlimit="10"/>
<path d="M76.2062 47.1457C76.2062 47.1457 77.6689 47.0011 79.5661 49.9124" stroke="black" stroke-width="1.37" stroke-miterlimit="10"/>
<path d="M101.314 34.0771C101.314 34.0771 108.515 35.2435 108.712 42.4332" stroke="black" stroke-width="1.37" stroke-miterlimit="10"/>
</g>
<defs>
<clipPath id="clip0_674_21591">
<rect width="256" height="208" fill="white"/>
</clipPath>
</defs>
</svg>
