<svg width="240" height="194" viewBox="0 0 240 194" fill="none" xmlns="http://www.w3.org/2000/svg">
<g clip-path="url(#clip0_1002_21544)">
<path opacity="0.2" d="M119.22 194.022C164.994 194.022 202.102 192.914 202.102 191.548C202.102 190.182 164.994 189.074 119.22 189.074C73.4455 189.074 36.3381 190.182 36.3381 191.548C36.3381 192.914 73.4455 194.022 119.22 194.022Z" fill="#0B2252"/>
<path d="M169.481 9.55017C170.078 8.95132 170.786 8.4766 171.566 8.15334C172.346 7.83008 173.182 7.66466 174.026 7.6666H180.405C180.878 5.49451 182.078 3.55 183.805 2.15572C185.532 0.761437 187.683 0.0012207 189.9 0.0012207C192.117 0.0012207 194.268 0.761437 195.995 2.15572C197.722 3.55 198.921 5.49451 199.394 7.6666H201.111C202.809 7.66889 204.438 8.34696 205.639 9.552C206.84 10.757 207.515 12.3906 207.516 14.0942C207.516 15.8001 206.84 17.4361 205.637 18.6423C204.434 19.8485 202.803 20.5261 201.102 20.5261H174.017C172.317 20.5238 170.688 19.8452 169.487 18.6392C168.286 17.4332 167.612 15.7986 167.612 14.0942C167.61 13.2507 167.775 12.4153 168.095 11.6356C168.416 10.8559 168.887 10.1473 169.481 9.55017Z" fill="#E9F3FC"/>
<path d="M91.4966 19.2394C90.9377 18.6773 90.2736 18.2315 89.5423 17.9277C88.8111 17.6238 88.0272 17.4678 87.2356 17.4687H81.2413C80.7962 15.4282 79.6688 13.6017 78.0461 12.292C76.4235 10.9824 74.4031 10.2683 72.3202 10.2683C70.2372 10.2683 68.2169 10.9824 66.5942 12.292C64.9716 13.6017 63.8442 15.4282 63.399 17.4687H61.7912C60.193 17.4693 58.6604 18.1062 57.5302 19.2394C56.4001 20.3727 55.765 21.9095 55.7644 23.5122C55.7636 24.3061 55.9188 25.0924 56.2214 25.826C56.524 26.5596 56.9679 27.2262 57.5277 27.7875C58.0875 28.3489 58.7522 28.794 59.4838 29.0974C60.2154 29.4008 60.9995 29.5566 61.7912 29.5557H87.2378C88.0293 29.556 88.8132 29.3999 89.5445 29.0963C90.2758 28.7927 90.9403 28.3475 91.5 27.7863C92.0597 27.225 92.5036 26.5587 92.8064 25.8253C93.1092 25.0919 93.2649 24.3059 93.2646 23.5122C93.2652 22.7183 93.1093 21.9321 92.8059 21.1989C92.5025 20.4656 92.0575 19.7997 91.4966 19.2394Z" fill="#E9F3FC"/>
<path d="M257.059 101.147V135.368C226.04 129.974 184.331 125.056 135.552 125.056C27.8725 125.056 -56.5802 149.052 -56.5802 149.052C-62.8559 135.618 -55.9029 96.9241 -39.5603 87.8578C-23.2177 78.7914 -9.01957 96.9155 3.88444 90.4466C16.7884 83.9778 4.71543 26.7782 24.5313 23.0978C44.3472 19.4174 56.827 56.2254 81.051 56.2254C105.275 56.2254 101.609 19.4261 129.925 17.9527C158.241 16.4792 157.495 55.6308 174.536 55.6308C191.578 55.6308 184.664 39.9307 211.37 39.4706C238.076 39.0106 245.445 94.8756 256.881 101.054L257.059 101.147Z" fill="url(#paint0_linear_1002_21544)"/>
<path d="M184.51 58.5603H60.9753C56.4899 58.5603 52.8538 62.2065 52.8538 66.7044V140.123C52.8538 144.621 56.4899 148.267 60.9753 148.267H184.51C188.996 148.267 192.632 144.621 192.632 140.123V66.7044C192.632 62.2065 188.996 58.5603 184.51 58.5603Z" fill="white"/>
<path d="M186.133 149.048H59.3501C57.4209 149.046 55.5714 148.276 54.2074 146.908C52.8434 145.54 52.0764 143.685 52.0747 141.75V65.0768C52.0764 63.1423 52.8434 61.2874 54.2074 59.9192C55.5714 58.551 57.4209 57.7814 59.3501 57.7791H186.133C188.063 57.7813 189.912 58.551 191.277 59.9191C192.641 61.2872 193.408 63.1421 193.411 65.0768V141.75C193.408 143.685 192.641 145.54 191.277 146.908C189.912 148.276 188.063 149.046 186.133 149.048ZM59.3501 59.3415C57.8341 59.3438 56.3809 59.9488 55.3091 61.024C54.2374 62.0991 53.6345 63.5566 53.6328 65.0768V141.75C53.6345 143.27 54.2374 144.728 55.3091 145.803C56.3809 146.878 57.8341 147.483 59.3501 147.486H186.133C187.649 147.483 189.101 146.877 190.173 145.802C191.244 144.727 191.847 143.27 191.848 141.75V65.0768C191.847 63.5566 191.244 62.0991 190.172 61.024C189.1 59.9488 187.647 59.3438 186.131 59.3415H59.3501Z" fill="#E3ECF5"/>
<path d="M110.572 84.9326C113.632 81.6646 117.833 80.0313 123.173 80.0327C128.113 80.0327 132.069 81.4295 135.041 84.223C138.013 87.0166 139.499 90.5877 139.499 94.9364C139.499 97.5679 138.96 99.704 137.882 101.345C136.804 102.985 134.596 105.394 131.256 108.573C128.828 110.888 127.247 112.841 126.515 114.432C125.782 116.023 125.415 118.393 125.413 121.541H118.798C118.798 117.989 119.219 115.126 120.062 112.952C120.904 110.778 122.78 108.287 125.688 105.481L128.718 102.538C129.571 101.761 130.316 100.871 130.931 99.8928C131.922 98.4019 132.458 96.654 132.474 94.8627C132.519 92.5521 131.732 90.3028 130.258 88.5262C128.778 86.7366 126.331 85.8419 122.916 85.8419C118.692 85.8419 115.771 87.3819 114.154 90.4618C113.242 92.1762 112.723 94.6478 112.598 97.8768H105.985C105.985 92.5111 107.514 88.1963 110.572 84.9326ZM118.655 127.725H126.049V135.475H118.655V127.725Z" fill="#90AAFF"/>
<path d="M180.128 70.6754H44.6738C44.4672 70.6754 44.2691 70.5931 44.123 70.4466C43.9769 70.3001 43.8948 70.1014 43.8948 69.8942C43.8948 69.6871 43.9769 69.4884 44.123 69.3418C44.2691 69.1953 44.4672 69.113 44.6738 69.113H180.128C180.335 69.113 180.533 69.1953 180.679 69.3418C180.825 69.4884 180.907 69.6871 180.907 69.8942C180.907 70.1014 180.825 70.3001 180.679 70.4466C180.533 70.5931 180.335 70.6754 180.128 70.6754Z" fill="#E3ECF5"/>
<path d="M61.801 64.8336C61.9402 63.9735 61.3578 63.1632 60.5002 63.0236C59.6425 62.884 58.8344 63.468 58.6952 64.328C58.556 65.1881 59.1384 65.9984 59.996 66.138C60.8537 66.2776 61.6618 65.6936 61.801 64.8336Z" fill="#E3ECF5"/>
<path d="M68.1107 64.9311C68.3103 64.0831 67.7866 63.2334 66.9409 63.0333C66.0953 62.8331 65.248 63.3583 65.0484 64.2063C64.8488 65.0543 65.3725 65.9039 66.2182 66.1041C67.0638 66.3042 67.9111 65.7791 68.1107 64.9311Z" fill="#E3ECF5"/>
<path d="M74.5 64.8331C74.6392 63.9731 74.0568 63.1627 73.1991 63.0231C72.3415 62.8835 71.5334 63.4675 71.3942 64.3275C71.2549 65.1876 71.8373 65.9979 72.695 66.1375C73.5526 66.2771 74.3608 65.6931 74.5 64.8331Z" fill="#E3ECF5"/>
<path d="M15.0486 134.85C11.9411 134.748 8.57385 133.663 8.64742 128.671C8.721 123.68 12.3414 122.893 12.7093 119.152C13.0772 115.41 13.101 111.921 15.0486 111.884C16.9962 111.847 15.7627 113.447 16.6716 115.18C17.5805 116.914 19.3377 119.134 18.9957 122.376C18.6538 125.618 20.9563 126.857 20.8351 129.509C20.714 132.161 19.0607 134.965 15.0486 134.85Z" fill="#DAEEFF"/>
<path d="M16.1933 122.083C16.1808 122.071 16.166 122.061 16.1497 122.054C16.1333 122.047 16.1158 122.043 16.0981 122.043C16.0804 122.043 16.0629 122.047 16.0465 122.054C16.0302 122.061 16.0153 122.071 16.0029 122.083C15.978 122.109 15.9641 122.143 15.9641 122.179C15.9641 122.214 15.978 122.249 16.0029 122.274C16.0029 122.274 16.8122 123.09 16.73 125.855C16.6586 128.242 15.4316 131.944 15.0312 133.061C14.6655 132.193 14.1916 131.23 13.7912 130.42C13.5229 129.876 13.2892 129.403 13.1637 129.105C12.7006 128.02 13.4039 125.733 13.4104 125.711C13.4207 125.677 13.4172 125.64 13.4006 125.608C13.384 125.576 13.3557 125.552 13.3217 125.54C13.3048 125.535 13.287 125.533 13.2693 125.534C13.2516 125.536 13.2345 125.541 13.2188 125.549C13.2031 125.558 13.1891 125.569 13.1778 125.583C13.1665 125.596 13.158 125.612 13.1529 125.629C13.1226 125.727 12.4128 128.033 12.9127 129.212C13.0425 129.518 13.2784 129.993 13.5489 130.542C14.276 132.015 15.3775 134.242 15.3602 135.099C15.3364 136.301 15.1914 138.024 15.1892 138.042C15.1862 138.077 15.1975 138.113 15.2206 138.141C15.2437 138.168 15.2767 138.186 15.3125 138.189H15.3255C15.3592 138.189 15.3915 138.176 15.4163 138.153C15.441 138.13 15.4565 138.099 15.4597 138.065C15.4597 138.048 15.6069 136.314 15.6307 135.106C15.6307 134.717 15.4554 134.114 15.1849 133.43C15.3645 132.938 16.9161 128.576 17.0005 125.855C17.0914 122.958 16.2301 122.116 16.1933 122.083Z" fill="#6AC1FF"/>
<path d="M245.347 121.929C242.701 121.849 239.829 120.918 239.894 116.654C239.959 112.39 243.043 111.728 243.356 108.54C243.67 105.352 243.687 102.382 245.347 102.351C247.007 102.321 245.957 103.682 246.732 105.161C247.507 106.641 249.004 108.532 248.714 111.294C248.424 114.056 250.385 115.115 250.283 117.37C250.182 119.625 248.762 122.031 245.347 121.929Z" fill="#DAEEFF"/>
<path d="M38.6125 114.069C36.7925 114.013 34.8168 113.373 34.8601 110.441C34.9034 107.509 37.0241 107.054 37.2405 104.86C37.4569 102.666 37.4677 100.624 38.6103 100.602C39.7529 100.58 39.0301 101.518 39.5625 102.536C40.0948 103.553 41.1249 104.853 40.9258 106.754C40.7267 108.655 42.0749 109.382 42.0078 110.938C41.9407 112.494 40.9669 114.132 38.6125 114.069Z" fill="#DAEEFF"/>
<path d="M39.2855 106.583C39.2705 106.568 39.2503 106.56 39.2293 106.56C39.2082 106.56 39.188 106.568 39.173 106.583C39.1655 106.59 39.1595 106.598 39.1554 106.608C39.1512 106.617 39.1491 106.628 39.1491 106.638C39.1491 106.648 39.1512 106.659 39.1554 106.668C39.1595 106.678 39.1655 106.686 39.173 106.693C39.173 106.693 39.6469 107.173 39.6058 108.794C39.5647 110.196 38.8397 112.366 38.6103 113.019C38.3939 112.509 38.1191 111.947 37.8832 111.472C37.7253 111.151 37.5889 110.875 37.5154 110.699C37.2449 110.063 37.656 108.722 37.6603 108.709C37.6651 108.699 37.6677 108.688 37.6678 108.676C37.6679 108.665 37.6656 108.654 37.661 108.643C37.6564 108.633 37.6496 108.623 37.6411 108.616C37.6326 108.608 37.6226 108.602 37.6117 108.599C37.6009 108.596 37.5894 108.594 37.5781 108.596C37.5668 108.597 37.5559 108.601 37.5461 108.607C37.5364 108.613 37.528 108.621 37.5216 108.63C37.5152 108.64 37.5108 108.65 37.5089 108.662C37.4915 108.72 37.0761 110.072 37.3682 110.762C37.4439 110.942 37.5846 111.22 37.7426 111.543C38.1754 112.411 38.8138 113.713 38.8029 114.219C38.79 114.924 38.7034 115.936 38.7034 115.955C38.7025 115.965 38.7037 115.976 38.707 115.986C38.7102 115.996 38.7154 116.005 38.7223 116.013C38.7292 116.021 38.7375 116.027 38.7469 116.032C38.7563 116.037 38.7665 116.039 38.777 116.04C38.7967 116.04 38.8159 116.033 38.8304 116.02C38.845 116.006 38.8538 115.988 38.8549 115.968C38.8549 115.957 38.9414 114.942 38.9544 114.232C38.9253 113.892 38.8374 113.559 38.6947 113.249C38.7986 112.96 39.7118 110.404 39.7594 108.807C39.8114 107.095 39.3072 106.602 39.2855 106.583Z" fill="#6AC1FF"/>
<path d="M216.962 143.549C213.781 143.454 210.327 142.334 210.403 137.208C210.478 132.083 214.19 131.284 214.568 127.443C214.947 123.602 214.964 120.041 216.962 120.002C218.959 119.963 217.695 121.604 218.626 123.383C219.556 125.162 221.359 127.434 221.006 130.761C220.654 134.088 223.017 135.357 222.893 138.072C222.77 140.787 221.078 143.675 216.962 143.549Z" fill="#DAEEFF"/>
<path d="M218.139 130.464C218.112 130.439 218.077 130.425 218.04 130.426C218.003 130.427 217.968 130.443 217.943 130.469C217.918 130.496 217.904 130.532 217.905 130.569C217.906 130.606 217.922 130.641 217.948 130.666C217.948 130.666 218.777 131.501 218.693 134.338C218.621 136.787 217.353 140.579 216.962 141.716C216.585 140.822 216.096 139.839 215.689 139.01C215.414 138.45 215.174 137.966 215.04 137.66C214.568 136.547 215.287 134.205 215.295 134.188C215.306 134.152 215.303 134.114 215.285 134.081C215.268 134.049 215.239 134.024 215.203 134.013C215.168 134.002 215.13 134.006 215.097 134.023C215.065 134.04 215.04 134.07 215.029 134.105C214.999 134.205 214.272 136.568 214.785 137.775C214.917 138.089 215.159 138.576 215.434 139.14C216.18 140.659 217.308 142.933 217.291 143.821C217.267 145.051 217.117 146.819 217.115 146.837C217.113 146.874 217.125 146.91 217.149 146.938C217.173 146.966 217.206 146.983 217.243 146.987H217.254C217.288 146.987 217.322 146.974 217.347 146.951C217.373 146.927 217.389 146.895 217.392 146.861C217.392 146.841 217.544 145.066 217.568 143.823C217.568 143.426 217.39 142.807 217.113 142.106C217.295 141.601 218.89 137.13 218.972 134.342C219.059 131.36 218.176 130.499 218.139 130.464Z" fill="#6AC1FF"/>
<path d="M43.8494 147.75C42.0424 148.223 35.1933 147.946 36.4917 144.558C37.9459 140.791 41.826 144.083 43.4923 146.173C42.9953 143.354 42.7585 140.494 42.7846 137.632C41.5533 136.147 38.9522 126.725 44.0831 127.192C50.7915 127.804 44.8491 136.722 43.3018 137.736C43.3018 139.906 43.449 144.215 44.4293 147.952C44.6457 145.578 47.0002 138.823 50.138 141.206C54.6824 144.66 45.9787 148.831 44.6587 148.759C45.0206 150.045 45.5782 151.268 46.312 152.383C46.8162 153.106 47.3745 153.944 47.9523 154.855L47.9848 154.89C48.2769 152.39 50.6032 145.969 53.6761 148.299C57.9262 151.526 50.6162 155.374 48.5496 155.812C49.9005 157.991 51.1099 160.254 52.17 162.589C52.3128 160.332 56.7295 155.716 58.4846 158.355C59.4649 159.827 54.2864 164.622 52.579 163.548C53.5528 165.935 54.1371 168.164 53.9358 169.789C53.8601 170.388 53.7519 171.091 53.6242 171.864C54.8339 170.52 59.2052 166.024 60.5058 169.505C61.5878 172.391 57.9804 174.062 56.4634 174.062C55.2775 174.062 54.0202 172.938 53.5268 172.445C53.4576 172.862 53.3854 173.288 53.3104 173.723C52.7002 177.276 51.9687 181.551 52.1851 184.122C53.2174 182.115 57.8267 173.754 60.5079 179.131C61.8842 181.887 57.9825 184.198 56.4655 184.704C55.2234 185.12 53.0031 184.747 52.2371 184.599C52.2727 184.866 52.3307 185.129 52.4102 185.385C53.3991 188.356 55.3922 191.374 55.4138 191.405C55.4388 191.443 55.4529 191.488 55.4545 191.535C55.4561 191.581 55.4453 191.626 55.4231 191.667C55.4009 191.707 55.3682 191.741 55.3285 191.764C55.2888 191.788 55.2435 191.8 55.1974 191.8C55.1549 191.8 55.1129 191.79 55.0752 191.77C55.0375 191.751 55.0051 191.722 54.981 191.687C53.9954 190.154 53.1384 188.542 52.4188 186.867C51.2286 186.715 46.6539 186.09 45.3382 185.211C43.8234 184.198 41.1075 180.871 43.317 179.637C46.734 177.734 50.3197 182.794 51.8887 185.426C51.3044 183.473 51.8216 179.532 52.4297 175.841C51.207 176.208 47.236 175.496 45.8424 174.57C44.3276 173.556 41.7135 170.931 43.317 169.503C47.3334 165.922 51.5792 173.506 52.5141 175.327C52.6114 174.752 52.7088 174.186 52.8019 173.639C53.0551 172.165 53.2931 170.776 53.4251 169.733C53.6134 168.214 53.0529 166.044 52.051 163.613C51.2546 163.867 48.5561 164.616 45.5914 164.19C42.0532 163.683 40.2592 160.92 41.5468 159.633C43.7411 157.435 50.2202 161.99 51.8951 163.233C50.7484 160.624 49.4058 158.105 47.8787 155.699C45.8164 156.179 37.604 156.003 38.7163 152.733C39.8286 149.462 44.0311 151.663 46.5068 153.579C46.3033 153.277 46.0999 152.978 45.8943 152.685C44.9638 151.335 44.3103 149.595 43.8494 147.75Z" fill="#90AAFF"/>
<path d="M58.4867 179.133C62.7303 177.432 63.7669 183.942 63.9898 186.077C64.9246 182.966 65.3206 179.177 64.8987 176.095C64.2495 176.08 61.7522 175.961 60.0037 175.084C57.9825 174.071 56.736 170.013 58.4889 169.511C61.4341 168.667 64.0244 173.784 64.8121 175.529C64.7429 175.136 64.6606 174.754 64.5632 174.392C63.8614 171.629 63.4209 168.807 63.2475 165.961C62.4512 165.946 60.2179 165.868 58.9952 165.458C57.4804 164.95 54.9117 160.981 56.974 160.389C59.8154 159.575 62.3278 163.663 63.2086 165.304C63.0376 162.17 63.1675 159.156 63.6976 157.101C63.4812 156.198 63.0484 154.28 63.0484 152.789C63.0484 150.762 65.3942 146.772 67.5929 148.733C71.6158 152.32 65.5868 156.513 64.1413 157.431C63.6522 159.456 63.544 162.376 63.7085 165.406C64.6108 163.127 68.2529 154.922 72.635 158.87C74.3143 160.389 70.6138 163.937 68.0906 164.946C66.7039 165.507 65.2387 165.849 63.7474 165.959C63.9205 168.758 64.3552 171.535 65.0458 174.253C65.1628 174.694 65.2575 175.141 65.3293 175.592C66.288 173.654 70.7393 165.41 75.6668 168.999C77.7096 170.49 73.6456 174.066 71.6244 175.075C69.8932 175.943 66.3572 175.991 65.3899 175.987C65.8097 179.059 65.431 182.822 64.5243 185.969C66.011 183.719 70.3498 177.94 73.6499 181.657C75.5976 183.866 70.5403 185.737 69.1055 186.214C67.8396 186.648 65.1302 186.763 64.2733 186.793C63.5526 188.963 62.5767 190.775 61.4362 191.728C61.3911 191.767 61.3336 191.789 61.2739 191.789C61.2218 191.789 61.171 191.773 61.1283 191.743C61.0856 191.713 61.0531 191.671 61.0354 191.621C61.0176 191.572 61.0154 191.519 61.0291 191.468C61.0427 191.418 61.0716 191.373 61.1116 191.34C62.1936 190.43 63.1328 188.707 63.821 186.624C63.1718 186.351 61.2501 185.522 60.0102 184.693C58.4867 183.692 56.1409 180.073 58.4867 179.133Z" fill="#D9E5FF"/>
<path d="M47.6236 191.802H70.6162C70.6833 191.802 70.7477 191.775 70.7952 191.727C70.8427 191.68 70.8694 191.615 70.8694 191.548C70.8694 191.481 70.8427 191.416 70.7952 191.368C70.7477 191.321 70.6833 191.294 70.6162 191.294H47.6236C47.5903 191.294 47.5574 191.301 47.5267 191.313C47.4959 191.326 47.468 191.345 47.4445 191.368C47.421 191.392 47.4024 191.42 47.3896 191.451C47.3769 191.481 47.3704 191.515 47.3704 191.548C47.3704 191.581 47.3769 191.614 47.3896 191.645C47.4024 191.676 47.421 191.704 47.4445 191.727C47.468 191.751 47.4959 191.77 47.5267 191.782C47.5574 191.795 47.5903 191.802 47.6236 191.802Z" fill="#14336A"/>
<path d="M39.5366 191.802H44.8428C44.9099 191.802 44.9744 191.775 45.0218 191.727C45.0693 191.68 45.096 191.615 45.096 191.548C45.096 191.481 45.0693 191.416 45.0218 191.368C44.9744 191.321 44.9099 191.294 44.8428 191.294H39.5366C39.4695 191.294 39.4051 191.321 39.3576 191.368C39.3101 191.416 39.2834 191.481 39.2834 191.548C39.2834 191.615 39.3101 191.68 39.3576 191.727C39.4051 191.775 39.4695 191.802 39.5366 191.802Z" fill="#14336A"/>
<path d="M176.495 189.821H180.546V150.832H182.519V166.239H185.586V150.832H187.559V168.212H182.519V189.821H186.573C186.827 189.833 187.066 189.942 187.242 190.127C187.417 190.311 187.515 190.556 187.515 190.811C187.515 191.066 187.417 191.311 187.242 191.496C187.066 191.68 186.827 191.79 186.573 191.802H176.495C176.241 191.79 176.001 191.68 175.825 191.496C175.65 191.311 175.552 191.066 175.552 190.811C175.552 190.556 175.65 190.311 175.825 190.127C176.001 189.942 176.241 189.833 176.495 189.821Z" fill="#646464"/>
<path d="M183.805 142.375C192.411 142.375 199.386 144.001 199.386 146.008V147.972C199.386 149.977 192.409 151.604 183.805 151.604C175.201 151.604 168.224 149.977 168.224 147.972V146.008C168.222 144.001 175.198 142.375 183.805 142.375Z" fill="black"/>
<path opacity="0.1" d="M163.493 94.7744C166.436 89.9133 164.892 83.5803 160.044 80.6293C155.196 77.6784 148.881 79.2268 145.938 84.088C142.995 88.9491 144.539 95.2821 149.387 98.2331C154.235 101.184 160.55 99.6356 163.493 94.7744Z" fill="white"/>
<path opacity="0.17" d="M161.174 86.2757C160.988 86.2765 160.807 86.2175 160.657 86.1073C160.508 85.9971 160.397 85.8416 160.343 85.6637C159.98 84.5009 159.172 83.5299 158.096 82.9643C157.02 82.3987 155.764 82.2847 154.604 82.6474C154.383 82.7165 154.145 82.6949 153.94 82.5875C153.735 82.48 153.582 82.2955 153.513 82.0745C153.444 81.8535 153.466 81.6141 153.573 81.409C153.68 81.2039 153.864 81.0499 154.084 80.9808C155.685 80.4796 157.419 80.6366 158.904 81.4171C160.389 82.1976 161.505 83.5378 162.005 85.1429C162.072 85.3628 162.05 85.6006 161.943 85.804C161.836 86.0075 161.652 86.1599 161.433 86.2279C161.35 86.2564 161.262 86.2725 161.174 86.2757Z" fill="#50C6A1"/>
<path d="M151.05 77.6759C148.73 78.4029 146.677 79.8035 145.15 81.7006C143.624 83.5977 142.693 85.9061 142.474 88.3339C142.256 90.7617 142.76 93.1999 143.924 95.3402C145.087 97.4805 146.858 99.2267 149.011 100.358C151.164 101.49 153.603 101.955 156.021 101.697C158.438 101.438 160.724 100.466 162.591 98.9048C164.457 97.3431 165.82 95.2615 166.507 92.9232C167.194 90.5849 167.174 88.0948 166.449 85.7679C165.477 82.6472 163.309 80.0415 160.421 78.5239C157.533 77.0064 154.162 76.7014 151.05 77.6759ZM157.778 99.272C155.84 99.8777 153.767 99.8938 151.82 99.3183C149.873 98.7428 148.139 97.6015 146.839 96.0386C145.538 94.4757 144.729 92.5613 144.513 90.5374C144.297 88.5134 144.684 86.4706 145.625 84.6671C146.566 82.8636 148.02 81.3804 149.801 80.4047C151.583 79.4291 153.613 79.0048 155.634 79.1855C157.656 79.3663 159.579 80.1439 161.161 81.4201C162.742 82.6964 163.911 84.414 164.519 86.356C164.922 87.6472 165.067 89.0053 164.947 90.3529C164.826 91.7004 164.442 93.0109 163.816 94.2094C163.19 95.4079 162.334 96.4709 161.298 97.3377C160.262 98.2045 159.066 98.8581 157.778 99.2611V99.272Z" fill="#D0DAED"/>
<path d="M159.288 100.482L157.245 101.122L160.151 110.449L162.194 109.809L159.288 100.482Z" fill="#D0DAED"/>
<path d="M166.382 126.883C166.072 126.981 165.746 127.016 165.423 126.986C165.1 126.957 164.785 126.864 164.498 126.713C164.21 126.562 163.955 126.355 163.747 126.105C163.539 125.855 163.382 125.567 163.286 125.256L158.819 110.919C158.766 110.753 158.746 110.579 158.761 110.407C158.776 110.234 158.826 110.066 158.906 109.912C158.987 109.759 159.097 109.623 159.231 109.513C159.365 109.403 159.519 109.321 159.685 109.271L161.901 108.577C162.065 108.524 162.239 108.504 162.411 108.519C162.583 108.534 162.751 108.584 162.904 108.665C163.057 108.745 163.192 108.856 163.302 108.99C163.412 109.124 163.494 109.279 163.543 109.445L168.01 123.782C168.204 124.41 168.141 125.089 167.836 125.671C167.531 126.252 167.008 126.688 166.382 126.883Z" fill="#7B7B7B"/>
<path d="M167.246 120.586C167.246 120.586 162.643 117.741 161.256 116.27C159.869 114.798 159.28 114.13 159.637 113.818C159.994 113.505 163.878 115.219 164.255 114.931C164.632 114.642 164.303 113.924 164.725 113.598C165.147 113.273 167.653 115.864 168.245 115.666C168.838 115.469 167.936 120.128 167.246 120.586Z" fill="#FFAA9D"/>
<path d="M148.895 173.571L145.521 176.846L136.973 168.912L139.787 164.325L148.895 173.571Z" fill="#FFAA9D"/>
<path d="M146.014 176.364C146.014 176.364 143.662 179.322 143.219 179.326C142.775 179.331 132.907 168.624 132.972 168.279C133.037 167.934 137.345 168.305 137.345 168.305L146.014 176.364Z" fill="url(#paint1_linear_1002_21544)"/>
<path d="M139.263 163.845C139.263 163.845 149.146 174.205 149.527 174.205C149.908 174.205 197.066 137.894 197.066 137.894L177.075 128.997C177.075 128.997 151.691 136 139.263 163.845Z" fill="url(#paint2_linear_1002_21544)"/>
<path d="M184.032 166.951L185.703 171.349L175.066 176.106L171.968 171.707L184.032 166.951Z" fill="#FFAA9D"/>
<path d="M175.519 129.003C175.519 129.003 158.828 132.495 157.382 138.163C155.937 143.831 157.25 150.024 161.851 157.272C166.451 164.52 171.13 172.406 172.093 172.662C172.093 172.662 184.452 167.697 184.731 167.079C185.01 166.46 177.806 149.397 177.806 149.397C177.806 149.397 192.48 148.419 195.902 139.745L175.519 129.003Z" fill="url(#paint3_linear_1002_21544)"/>
<path d="M174.352 128.951C174.201 129.937 192.433 141.388 195.659 140.837C198.886 140.285 203.06 126.927 201.907 116.953C200.753 106.98 191.842 99.4999 187.78 99.8471C183.718 100.194 181.543 104.016 180.991 110.09C180.18 119 174.521 127.851 174.352 128.951Z" fill="url(#paint4_linear_1002_21544)"/>
<path d="M189.602 101.381C191.751 101.195 199.145 105.543 200.874 118.372C202.603 131.202 195.538 132.278 189.602 131.449C183.666 130.62 168.726 123.268 166.529 120.642C166.529 120.642 166.058 116.519 167.646 115.046C167.646 115.046 182.056 116.515 185.798 117.65C189.539 118.785 181.461 102.091 189.602 101.381Z" fill="url(#paint5_linear_1002_21544)"/>
<path d="M185.456 170.705C185.456 170.705 187.239 174.038 187.07 174.448C186.901 174.858 173.199 179.741 172.909 179.546C172.619 179.35 174.653 175.524 174.653 175.524L185.456 170.705Z" fill="url(#paint6_linear_1002_21544)"/>
<path d="M177.529 93.0485L177.462 97.6337L178.144 97.612C178.144 97.612 178.691 101.405 181.364 100.806C182.132 100.635 183.112 99.9839 183.394 100.114C183.729 100.268 183.874 101.308 183.95 101.607C184.24 102.755 188.25 101.594 187.598 100.418C186.982 99.3003 186.062 97.7748 186.257 97.3494C186.936 95.8717 187.122 92.2022 183.443 90.9739C180.509 89.9974 177.566 91.4795 177.529 93.0485Z" fill="#FFAA9D"/>
<path d="M187.598 100.418C186.982 99.3002 186.062 97.7747 186.257 97.3494C186.257 97.3494 184.709 99.7364 183.281 100.097C183.321 100.091 183.362 100.096 183.4 100.11C183.736 100.264 183.881 101.303 183.956 101.603C184.24 102.755 188.25 101.594 187.598 100.418Z" fill="#FF9F91"/>
<path d="M183.714 95.2965C185.445 95.0014 184.363 98.8488 186.263 98.7208C188.163 98.5928 189.483 94.4328 188.092 91.2255C186.7 88.0182 184.049 88.1875 181.526 88.6345C179.003 89.0816 175.9 90.2165 175.9 92.1304C175.9 96.7374 181.338 92.8726 181.697 94.2571C181.976 95.329 182.403 98.4257 181.295 98.4973C180.187 98.5689 179.061 97.6531 178.187 97.8875C177.683 98.0242 176.296 104.063 179.918 104.265C183.502 104.465 184.409 101.294 183.653 98.7034C182.946 96.2405 182.874 95.4419 183.714 95.2965Z" fill="#14336A"/>
</g>
<defs>
<linearGradient id="paint0_linear_1002_21544" x1="99.0989" y1="27.6462" x2="99.0989" y2="108.299" gradientUnits="userSpaceOnUse">
<stop stop-color="#E9F3FC"/>
<stop offset="1" stop-color="white"/>
</linearGradient>
<linearGradient id="paint1_linear_1002_21544" x1="140.47" y1="172.468" x2="138.335" y2="175.105" gradientUnits="userSpaceOnUse">
<stop stop-color="#14336D"/>
<stop offset="0.97" stop-color="#0E2253"/>
</linearGradient>
<linearGradient id="paint2_linear_1002_21544" x1="149.646" y1="161.226" x2="164.487" y2="149.305" gradientUnits="userSpaceOnUse">
<stop stop-color="#14336D"/>
<stop offset="0.97" stop-color="#0E2253"/>
</linearGradient>
<linearGradient id="paint3_linear_1002_21544" x1="170.864" y1="149.762" x2="196.866" y2="159.168" gradientUnits="userSpaceOnUse">
<stop stop-color="#14336D"/>
<stop offset="0.97" stop-color="#0E2253"/>
</linearGradient>
<linearGradient id="paint4_linear_1002_21544" x1="179.922" y1="106.09" x2="193.05" y2="130.609" gradientUnits="userSpaceOnUse">
<stop stop-color="#3162DF"/>
<stop offset="0.96" stop-color="#173DB8"/>
</linearGradient>
<linearGradient id="paint5_linear_1002_21544" x1="183.798" y1="117.962" x2="198.724" y2="149.341" gradientUnits="userSpaceOnUse">
<stop stop-color="#3162DF"/>
<stop offset="0.96" stop-color="#173DB8"/>
</linearGradient>
<linearGradient id="paint6_linear_1002_21544" x1="178.473" y1="173.797" x2="180.074" y2="176.792" gradientUnits="userSpaceOnUse">
<stop stop-color="#14336D"/>
<stop offset="0.97" stop-color="#0E2253"/>
</linearGradient>
<clipPath id="clip0_1002_21544">
<rect width="240" height="194" fill="white"/>
</clipPath>
</defs>
</svg>
