<svg width="152" height="109" viewBox="0 0 152 109" fill="none" xmlns="http://www.w3.org/2000/svg">
<g clip-path="url(#clip0_73_1145)">
<g opacity="0.46">
<path d="M139.989 23.3189H80.4625C80.3162 23.319 80.1719 23.2854 80.0405 23.2208C79.9092 23.1562 79.7943 23.0623 79.7048 22.9463C79.6153 22.8303 79.5536 22.6952 79.5243 22.5515C79.495 22.4078 79.4989 22.2593 79.5358 22.1174L85.085 0.700658C85.1394 0.495839 85.2597 0.314747 85.4273 0.185495C85.5948 0.056242 85.8003 -0.0139409 86.0117 -0.01416H145.538C145.684 -0.014238 145.828 0.0192394 145.959 0.0836975C146.09 0.148156 146.204 0.241877 146.294 0.357656C146.383 0.473435 146.444 0.608187 146.474 0.751549C146.503 0.894912 146.499 1.04307 146.462 1.18462L140.913 22.5874C140.863 22.7956 140.745 22.9809 140.577 23.1136C140.409 23.2463 140.202 23.3186 139.989 23.3189Z" fill="#BFD9FF"/>
<path fill-rule="evenodd" clip-rule="evenodd" d="M87.6016 4.57768C87.6016 4.00973 88.0601 3.54932 88.6258 3.54932H109.338C109.904 3.54932 110.362 4.00973 110.362 4.57768C110.362 5.14563 109.904 5.60605 109.338 5.60605H88.6258C88.0601 5.60605 87.6016 5.14563 87.6016 4.57768Z" fill="#A9C2FF"/>
<path fill-rule="evenodd" clip-rule="evenodd" d="M86.0059 14.1626C86.0059 13.5947 86.4644 13.1343 87.0301 13.1343H107.745C108.311 13.1343 108.769 13.5947 108.769 14.1626C108.769 14.7306 108.311 15.191 107.745 15.191H87.0301C86.4644 15.191 86.0059 14.7306 86.0059 14.1626Z" fill="#A9C2FF"/>
<path fill-rule="evenodd" clip-rule="evenodd" d="M94.7178 10.5411C94.7178 9.97311 95.1763 9.5127 95.742 9.5127H116.454C117.02 9.5127 117.479 9.97311 117.479 10.5411C117.479 11.109 117.02 11.5694 116.454 11.5694H95.742C95.1763 11.5694 94.7178 11.109 94.7178 10.5411Z" fill="#A9C2FF"/>
<path fill-rule="evenodd" clip-rule="evenodd" d="M87.0684 7.77348C87.0684 7.20553 87.5269 6.74512 88.0926 6.74512H94.3077C94.8733 6.74512 95.3319 7.20553 95.3319 7.77348C95.3319 8.34143 94.8733 8.80185 94.3077 8.80185H88.0926C87.5269 8.80185 87.0684 8.34143 87.0684 7.77348Z" fill="#A9C2FF"/>
<path fill-rule="evenodd" clip-rule="evenodd" d="M86.2197 10.5411C86.2197 9.97311 86.6783 9.5127 87.2439 9.5127H93.459C94.0247 9.5127 94.4833 9.97311 94.4833 10.5411C94.4833 11.109 94.0247 11.5694 93.459 11.5694H87.2439C86.6783 11.5694 86.2197 11.109 86.2197 10.5411Z" fill="#A9C2FF"/>
<path fill-rule="evenodd" clip-rule="evenodd" d="M111.607 4.57768C111.607 4.00973 112.066 3.54932 112.632 3.54932H120.012C120.578 3.54932 121.036 4.00973 121.036 4.57768C121.036 5.14563 120.578 5.60605 120.012 5.60605H112.632C112.066 5.60605 111.607 5.14563 111.607 4.57768Z" fill="#A9C2FF"/>
<path fill-rule="evenodd" clip-rule="evenodd" d="M105.72 16.2422H116.748L116.753 16.2423C116.818 16.2443 116.881 16.2609 116.938 16.2907C116.995 16.3206 117.045 16.363 117.083 16.415C117.122 16.4668 117.148 16.5268 117.16 16.5905C117.172 16.6533 117.17 16.7181 117.154 16.7802C117.154 16.7808 117.153 16.7815 117.153 16.7822L116.662 18.6845L116.66 18.6896C116.634 18.7777 116.581 18.8552 116.509 18.911C116.436 18.9667 116.348 18.9978 116.257 18.9998L116.249 19L105.224 18.9999C105.16 18.9995 105.096 18.9847 105.039 18.9565C104.981 18.9282 104.931 18.8874 104.891 18.8369C104.851 18.7865 104.823 18.7276 104.809 18.6647C104.795 18.6019 104.795 18.5366 104.81 18.4739L104.811 18.4694L105.307 16.5575L105.309 16.5525C105.334 16.4644 105.387 16.3869 105.46 16.3311C105.533 16.2754 105.621 16.2443 105.712 16.2423L105.72 16.2422ZM105.917 16.9278L105.557 18.3143H116.052L116.41 16.9278H105.917Z" fill="#84AEE5"/>
<path fill-rule="evenodd" clip-rule="evenodd" d="M92.0081 16.231V16.231H103.031C103.031 16.231 103.032 16.231 103.032 16.231C103.097 16.231 103.161 16.246 103.22 16.2749C103.279 16.3039 103.33 16.3461 103.37 16.3983C103.41 16.4504 103.438 16.5111 103.451 16.5758C103.464 16.64 103.462 16.7062 103.445 16.7694L103.445 16.7689L103.115 16.6823L103.445 16.7709M102.955 18.6549C102.957 18.6446 102.959 18.6342 102.96 18.6237L102.621 18.582L102.951 18.6686L102.955 18.6549ZM92.0081 16.231L92.0005 16.2311L92.0081 16.231ZM102.701 16.9166H92.2056L91.8448 18.3143H102.338L102.701 16.9166ZM92.0005 16.2311C91.9093 16.2332 91.8211 16.2642 91.7485 16.32L92.0005 16.2311ZM91.7485 16.32C91.6761 16.3757 91.623 16.4532 91.5973 16.5413L91.7485 16.32ZM91.5973 16.5413L91.5957 16.5465L91.5973 16.5413ZM91.5957 16.5465L91.5944 16.5518L91.5957 16.5465ZM91.5944 16.5518L91.1078 18.4368L91.5944 16.5518ZM91.1078 18.4368C91.0875 18.4964 91.0806 18.5599 91.0877 18.6228C91.0964 18.6993 91.1255 18.772 91.172 18.8332C91.2185 18.8943 91.2805 18.9417 91.3516 18.9703C91.4112 18.9943 91.4752 19.0043 91.5389 18.9999" fill="#84AEE5"/>
<path d="M135.624 15.9009C135.069 15.1472 132.766 14.5992 132.134 13.8427C131.809 13.4589 131.809 12.7301 131.887 12.1321C132.082 12.0192 132.259 11.8766 132.411 11.7094C132.641 11.3575 132.848 10.9915 133.033 10.6135C133.066 10.6495 133.107 10.678 133.153 10.6971C133.198 10.7163 133.247 10.7257 133.296 10.7248C133.596 10.7248 134.742 9.15327 134.448 8.77778C134.278 8.57196 134.006 8.74997 133.801 8.94188C134.106 8.24653 134.32 7.71251 134.32 7.71251H134.306C134.337 7.62628 134.362 7.53728 134.384 7.43437C134.839 5.60699 133.729 4.12451 131.906 4.12451C130.083 4.12451 128.238 5.63203 127.78 7.4594C127.758 7.54841 127.739 7.63741 127.725 7.73754C127.725 7.73754 127.672 8.27157 127.63 8.96692C127.522 8.775 127.339 8.59699 127.075 8.80281C126.598 9.16717 126.967 10.7303 127.264 10.7498C127.379 10.7454 127.49 10.7067 127.583 10.6385C127.578 11.0053 127.603 11.3718 127.658 11.7344C127.749 11.9297 127.886 12.0997 128.058 12.2295C127.83 12.8164 127.486 13.4783 126.998 13.8427C125.988 14.5992 123.421 15.1472 122.481 15.9009C121.648 16.5796 120.883 18.5627 120.738 18.9605H135.843C135.901 18.5627 136.132 16.5935 135.624 15.9009Z" fill="#8DBCF8"/>
</g>
<path fill-rule="evenodd" clip-rule="evenodd" d="M75.6568 17.3789C75.5203 17.3789 75.3877 17.4242 75.2798 17.5078C75.172 17.5913 75.0949 17.7082 75.0606 17.8402C75.0606 17.8402 75.0606 17.8401 75.0606 17.8402L69.5114 39.2429C69.4877 39.3337 69.485 39.4291 69.5037 39.5211C69.5224 39.613 69.5619 39.6994 69.6192 39.7737C69.6764 39.848 69.75 39.9082 69.8342 39.9497C69.9184 39.9911 70.0109 40.0126 70.1048 40.0125H129.63C129.766 40.0122 129.899 39.9667 130.006 39.8832C130.114 39.7997 130.19 39.6829 130.225 39.5512L135.774 18.1493C135.774 18.1495 135.774 18.1492 135.774 18.1493C135.797 18.059 135.799 17.9641 135.781 17.8728C135.762 17.7813 135.723 17.6951 135.666 17.6209C135.61 17.5467 135.537 17.4863 135.453 17.4444C135.37 17.4027 135.279 17.3803 135.186 17.3789L75.6568 17.3789ZM75.6569 16.6934C75.3696 16.6933 75.0903 16.7887 74.8628 16.9649C74.6353 17.1411 74.4724 17.3881 74.3999 17.6672L68.8507 39.0697C68.8507 39.0698 68.8508 39.0697 68.8507 39.0697C68.8006 39.262 68.7951 39.4634 68.8347 39.6582C68.8743 39.853 68.958 40.0361 69.0792 40.1933C69.2004 40.3506 69.3559 40.4778 69.5337 40.5653C69.7116 40.6528 69.9071 40.6982 70.1051 40.6981M75.6569 16.6934C75.6569 16.6934 75.657 16.6934 75.6569 16.6934V16.6934Z" fill="#7094D8"/>
<path d="M128.516 38.7586H68.9901C68.8442 38.7587 68.7001 38.7252 68.5691 38.6608C68.4381 38.5963 68.3236 38.5026 68.2343 38.3868C68.1451 38.271 68.0835 38.1363 68.0544 37.9929C68.0252 37.8496 68.0293 37.7014 68.0662 37.5599L73.6154 16.1571C73.6688 15.9515 73.7888 15.7695 73.9565 15.6396C74.1242 15.5098 74.3302 15.4394 74.5421 15.4395H134.074C134.22 15.4395 134.364 15.473 134.495 15.5375C134.626 15.6019 134.741 15.6956 134.83 15.8113C134.92 15.9269 134.981 16.0616 135.011 16.2049C135.04 16.3483 135.037 16.4965 135.001 16.6382L129.451 38.0549C129.395 38.2593 129.273 38.4392 129.103 38.5665C128.934 38.6938 128.728 38.7614 128.516 38.7586Z" fill="#A5C5FF"/>
<path fill-rule="evenodd" clip-rule="evenodd" d="M117.464 39.1016H87.668V38.416H117.464V39.1016Z" fill="#7094D8"/>
<path fill-rule="evenodd" clip-rule="evenodd" d="M104.557 15.7823H79.3828V15.0967H104.557V15.7823Z" fill="#7094D8"/>
<path d="M123.71 35.5627H110.326C110.189 35.5707 110.052 35.5445 109.927 35.4865C109.803 35.4285 109.694 35.3405 109.612 35.2304C109.529 35.1202 109.475 34.9913 109.455 34.8552C109.434 34.7191 109.447 34.5799 109.493 34.4502L112.87 20.8742C112.956 20.5666 113.136 20.2938 113.385 20.0942C113.634 19.8946 113.939 19.7783 114.257 19.7616H127.642C127.779 19.7537 127.916 19.7799 128.041 19.8379C128.165 19.8959 128.274 19.9839 128.356 20.094C128.438 20.2042 128.492 20.3331 128.513 20.4692C128.534 20.6053 128.52 20.7445 128.474 20.8742L125.098 34.4502C125.012 34.7578 124.832 35.0306 124.583 35.2302C124.334 35.4298 124.029 35.5461 123.71 35.5627Z" fill="#B7DEFF"/>
<path d="M117.143 35.6184L118.314 30.9067L116.405 30.0918C116.405 30.0918 112.826 31.4074 112.52 31.7245C112.265 31.9887 110.98 34.7367 110.578 35.6184H117.143Z" fill="#90AAFF"/>
<path d="M123.768 35.6184C123.799 34.7367 123.879 31.9887 123.768 31.7245C123.621 31.4074 120.694 30.0918 120.694 30.0918L118.347 30.9067L117.176 35.6184H123.768Z" fill="#90AAFF"/>
<path d="M118.353 35.6187L120.187 31.5439L116.247 31.7692L115.861 35.6187H118.353Z" fill="#F2F2F2"/>
<path d="M117.104 29.2353L116.244 29.7777L115.68 31.135L115.536 32.993L116.743 32.4951L117.681 33.6271L118.935 32.5841L119.704 33.3101L120.863 30.8179L120.661 29.2798L120.175 29.0518L117.104 29.2353Z" fill="#F2F2F2"/>
<path d="M117.368 25.6667C117.336 25.5837 117.284 25.5097 117.217 25.4508C117.151 25.392 117.071 25.3501 116.985 25.3285C116.898 25.307 116.808 25.3065 116.722 25.3271C116.636 25.3477 116.555 25.3888 116.488 25.447C115.897 25.8864 116.591 27.572 117.018 27.063C117.445 26.554 117.368 25.6667 117.368 25.6667Z" fill="white"/>
<path d="M121.58 25.6334C121.58 25.6334 122.135 24.938 122.565 25.3274C122.995 25.7168 121.596 27.4997 121.366 27.0241C121.136 26.5485 121.58 25.6334 121.58 25.6334Z" fill="white"/>
<path d="M120.264 30.5483L120.869 27.333L117.367 27.6362L116.596 30.6568C116.596 30.6568 117.206 32.0864 117.864 32.7206C117.864 32.7261 119.897 30.9572 120.264 30.5483Z" fill="white"/>
<path d="M123.1 24.3345C122.969 24.7266 122.648 24.824 122.625 25.052C122.583 25.4269 122.449 25.7854 122.234 26.0951C122.134 26.2066 122.021 26.3048 121.896 26.3871C121.896 26.3871 118.893 27.2215 117.37 26.0617C117.309 25.7392 117.309 25.4079 117.37 25.0854C117.473 24.557 117.218 24.4652 117.515 24.2065C117.636 24.1151 117.734 23.9967 117.802 23.8605C117.87 23.7244 117.906 23.5743 117.906 23.4222C117.893 23.2502 117.916 23.0775 117.974 22.9152C118.032 22.7528 118.123 22.6043 118.241 22.4793C118.544 22.1844 118.819 22.2818 119.113 22.0231C119.113 22.0231 119.551 21.286 120.131 21.1887C120.711 21.0913 121.926 20.7965 122.653 21.6893C123.38 22.5822 123.044 23.3582 123.252 23.6363C123.46 23.9145 123.1 24.3345 123.1 24.3345Z" fill="black"/>
<path d="M117.345 25.1129C117.345 25.1129 115.927 29.0263 118.596 29.3184C120.952 29.374 121.79 26.4897 122.128 25.01C122.467 23.5303 122.256 21.9838 120.369 22.0339C118.483 22.084 117.55 24.2395 117.345 25.1129Z" fill="white"/>
<path d="M118.086 23.7114C118.134 23.8092 118.159 23.9167 118.159 24.0257C118.159 24.1347 118.134 24.2422 118.086 24.34C117.925 24.6571 117.487 24.7794 117.42 25.1966C117.353 25.6139 117.162 26.4817 117.043 26.5206C116.923 26.5595 117.009 25.6723 117.043 25.3691C117.135 24.5235 117.436 23.7141 117.917 23.0133C118.547 22.2178 118.935 21.8812 120.056 21.6977C121.177 21.5141 122.026 21.9758 122.337 22.6739C122.647 23.3721 122.151 25.1021 122.151 25.1021C122.151 25.1021 122.226 24.2677 121.948 24.0785C121.671 23.8894 121.44 23.7392 121.488 23.6252C121.535 23.5111 120.6 23.9256 119.667 23.6252C118.735 23.3248 118.436 23.4611 118.28 23.5584C118.206 23.5956 118.14 23.6477 118.086 23.7114Z" fill="black"/>
<path fill-rule="evenodd" clip-rule="evenodd" d="M115.301 31.1478C115.304 31.1416 115.304 31.1414 115.303 31.1447L115.586 31.2136C115.581 31.2312 115.57 31.26 115.562 31.2824C115.551 31.3108 115.535 31.3491 115.517 31.3954C115.48 31.4884 115.428 31.6157 115.366 31.7656C115.243 32.0653 115.081 32.4563 114.92 32.8441C114.758 33.2321 114.598 33.6171 114.477 33.9051L114.33 34.2581L115.448 34.8186L115.067 35.5836L114.806 35.4527L115.057 34.9494L113.956 34.3973L114.009 34.2711L114.209 33.7922C114.329 33.5042 114.49 33.1193 114.651 32.7316C114.812 32.3438 114.974 31.9533 115.097 31.6542C115.159 31.5045 115.21 31.378 115.247 31.2862C115.266 31.2402 115.28 31.2034 115.29 31.1769C115.296 31.1621 115.299 31.1529 115.301 31.1478Z" fill="#022755"/>
<path fill-rule="evenodd" clip-rule="evenodd" d="M120.828 31.2127C120.831 31.191 120.834 31.1599 120.84 31.1406L121.12 31.2176C121.121 31.2154 121.121 31.214 121.121 31.214C121.121 31.2141 121.12 31.2225 121.117 31.2462C121.114 31.2724 121.111 31.3089 121.106 31.3548C121.097 31.4465 121.086 31.5728 121.073 31.7224C121.047 32.0215 121.015 32.4119 120.984 32.7996C120.952 33.1873 120.922 33.5722 120.899 33.8601L120.861 34.3385L120.854 34.4301L119.455 34.9834V35.5181H119.164V34.7845L120.578 34.2252L120.609 33.837C120.632 33.549 120.662 33.1639 120.694 32.776C120.725 32.3881 120.757 31.9971 120.783 31.6972C120.796 31.5473 120.808 31.4198 120.817 31.3267C120.821 31.2802 120.825 31.2414 120.828 31.2127Z" fill="#022755"/>
<path fill-rule="evenodd" clip-rule="evenodd" d="M127.897 20.1489C127.823 20.1146 127.742 20.0992 127.661 20.1039L127.652 20.1045H114.266C114.022 20.1189 113.789 20.2089 113.598 20.362C113.406 20.5159 113.267 20.7258 113.2 20.9624L109.82 34.5495L109.815 34.5652C109.788 34.6416 109.78 34.7235 109.792 34.8036C109.804 34.8837 109.836 34.9596 109.884 35.0245C109.933 35.0894 109.997 35.1413 110.07 35.1755C110.144 35.2098 110.225 35.2252 110.306 35.2205L110.316 35.22H123.701C123.945 35.2055 124.178 35.1155 124.369 34.9624C124.561 34.8085 124.7 34.5986 124.767 34.362L128.147 20.775L128.152 20.7592C128.179 20.6828 128.187 20.6009 128.175 20.5208C128.163 20.4407 128.131 20.3648 128.083 20.2999C128.034 20.235 127.97 20.1831 127.897 20.1489ZM127.633 19.4189C127.822 19.4096 128.012 19.4466 128.184 19.5269C128.36 19.6087 128.512 19.7327 128.629 19.8882C128.745 20.0436 128.821 20.2254 128.85 20.4176C128.878 20.6038 128.862 20.7939 128.802 20.9721L125.427 34.5381L125.426 34.5429C125.321 34.9197 125.1 35.2537 124.795 35.4981C124.491 35.7424 124.117 35.8847 123.728 35.9051L123.719 35.9055H110.334C110.145 35.9148 109.956 35.8778 109.783 35.7975C109.607 35.7158 109.455 35.5917 109.338 35.4363C109.222 35.2809 109.146 35.099 109.117 34.9068C109.089 34.7207 109.105 34.5305 109.165 34.3523L112.54 20.7863L112.541 20.7815C112.646 20.4047 112.867 20.0707 113.172 19.8264C113.476 19.582 113.85 19.4397 114.239 19.4193L114.248 19.4189H127.633Z" fill="white"/>
<path fill-rule="evenodd" clip-rule="evenodd" d="M76.1279 20.5518C76.1279 19.9839 76.5865 19.5234 77.1521 19.5234H97.8645C98.4302 19.5234 98.8887 19.9839 98.8887 20.5518C98.8887 21.1198 98.4302 21.5802 97.8645 21.5802H77.1521C76.5865 21.5802 76.1279 21.1198 76.1279 20.5518Z" fill="#73A5FF"/>
<path fill-rule="evenodd" clip-rule="evenodd" d="M74.5361 30.1338C74.5361 29.5659 74.9947 29.1055 75.5604 29.1055H96.2727C96.8384 29.1055 97.2969 29.5659 97.2969 30.1338C97.2969 30.7018 96.8384 31.1622 96.2727 31.1622H75.5604C74.9947 31.1622 74.5361 30.7018 74.5361 30.1338Z" fill="#73A5FF"/>
<path fill-rule="evenodd" clip-rule="evenodd" d="M83.2451 26.5147C83.2451 25.9467 83.7037 25.4863 84.2693 25.4863H104.982C105.547 25.4863 106.006 25.9467 106.006 26.5147C106.006 27.0826 105.547 27.5431 104.982 27.5431H84.2693C83.7037 27.5431 83.2451 27.0826 83.2451 26.5147Z" fill="#73A5FF"/>
<path fill-rule="evenodd" clip-rule="evenodd" d="M75.5986 23.7447C75.5986 23.1767 76.0572 22.7163 76.6229 22.7163H82.8352C83.4008 22.7163 83.8594 23.1767 83.8594 23.7447C83.8594 24.3126 83.4008 24.773 82.8352 24.773H76.6229C76.0572 24.773 75.5986 24.3126 75.5986 23.7447Z" fill="#73A5FF"/>
<path fill-rule="evenodd" clip-rule="evenodd" d="M74.7461 26.5147C74.7461 25.9467 75.2047 25.4863 75.7703 25.4863H81.9854C82.5511 25.4863 83.0096 25.9467 83.0096 26.5147C83.0096 27.0826 82.5511 27.5431 81.9854 27.5431H75.7703C75.2047 27.5431 74.7461 27.0826 74.7461 26.5147Z" fill="#73A5FF"/>
<path fill-rule="evenodd" clip-rule="evenodd" d="M100.134 20.5518C100.134 19.9839 100.592 19.5234 101.158 19.5234H108.541C109.107 19.5234 109.565 19.9839 109.565 20.5518C109.565 21.1198 109.107 21.5802 108.541 21.5802H101.158C100.592 21.5802 100.134 21.1198 100.134 20.5518Z" fill="#73A5FF"/>
<path fill-rule="evenodd" clip-rule="evenodd" d="M94.2463 32.9019C94.2462 32.9019 94.2465 32.9019 94.2463 32.9019V32.9019ZM94.4443 32.9019H104.939L104.579 34.2857H94.0866L94.4443 32.9019ZM94.2469 32.2163C94.153 32.2163 94.0616 32.2473 93.9869 32.3047C93.9121 32.3622 93.8582 32.4429 93.8338 32.5345L93.3425 34.435C93.326 34.4972 93.3236 34.5625 93.3359 34.626C93.3483 34.6907 93.3755 34.7515 93.4154 34.8038C93.4551 34.8561 93.5064 34.8984 93.5652 34.9274C93.6238 34.9563 93.6881 34.9713 93.7533 34.9712L93.753 34.6285L93.754 34.9712C93.7538 34.9712 93.7535 34.9712 93.7533 34.9712L104.776 34.9712C104.776 34.9712 104.776 34.9712 104.776 34.9712M94.2469 32.2163C94.2468 32.2163 94.2469 32.2163 94.2469 32.2163V32.2163Z" fill="#7094D8"/>
<path fill-rule="evenodd" clip-rule="evenodd" d="M91.5748 32.2163H80.5488H91.5748ZM91.0734 34.9712H80.0555C79.9915 34.9708 79.9284 34.956 79.8708 34.9278C79.8133 34.8996 79.7628 34.8588 79.723 34.8083C79.6831 34.7577 79.6552 34.6988 79.6412 34.6361C79.6272 34.5732 79.6274 34.508 79.6419 34.4452L79.643 34.4407L80.1375 32.5385C80.1603 32.4475 80.2124 32.3667 80.2856 32.3084C80.36 32.2493 80.452 32.2169 80.5469 32.2163L80.5488 32.2163M91.2401 32.9019H80.7487L80.389 34.2857H90.8763L91.2401 32.9019Z" fill="#7094D8"/>
<path fill-rule="evenodd" clip-rule="evenodd" d="M116.668 13.3872H103.761V12.7017H116.668V13.3872Z" fill="#7094D8"/>
<path d="M129.168 69.3177H69.6278C69.4818 69.3177 69.3378 69.2842 69.2067 69.2197C69.0756 69.1553 68.9609 69.0616 68.8715 68.9459C68.7821 68.8302 68.7202 68.6956 68.6907 68.5522C68.6612 68.4089 68.6647 68.2607 68.7011 68.1189L74.2503 46.7161C74.3037 46.5106 74.4237 46.3286 74.5914 46.1987C74.7591 46.0688 74.9651 45.9984 75.177 45.9985H134.717C134.863 45.9989 135.007 46.0328 135.138 46.0975C135.269 46.1623 135.384 46.2563 135.473 46.3723C135.562 46.4883 135.624 46.6232 135.653 46.7666C135.682 46.9101 135.678 47.0584 135.641 47.2001L130.092 68.6168C130.036 68.8191 129.915 68.9972 129.748 69.1239C129.581 69.2505 129.377 69.3187 129.168 69.3177Z" fill="#BFD9FF"/>
<path fill-rule="evenodd" clip-rule="evenodd" d="M76.7666 50.5796C76.7666 50.0117 77.2252 49.5513 77.7908 49.5513H98.5032C99.0688 49.5513 99.5274 50.0117 99.5274 50.5796C99.5274 51.1476 99.0688 51.608 98.5032 51.608H77.7908C77.2252 51.608 76.7666 51.1476 76.7666 50.5796Z" fill="#A9C2FF"/>
<path fill-rule="evenodd" clip-rule="evenodd" d="M75.1709 60.1617C75.1709 59.5937 75.6295 59.1333 76.1951 59.1333H96.9102C97.4759 59.1333 97.9345 59.5937 97.9345 60.1617C97.9345 60.7296 97.4759 61.19 96.9102 61.19H76.1951C75.6295 61.19 75.1709 60.7296 75.1709 60.1617Z" fill="#A9C2FF"/>
<path fill-rule="evenodd" clip-rule="evenodd" d="M83.8828 56.543C83.8828 55.9751 84.3414 55.5146 84.907 55.5146H105.619C106.185 55.5146 106.644 55.9751 106.644 56.543C106.644 57.111 106.185 57.5714 105.619 57.5714H84.907C84.3414 57.5714 83.8828 57.111 83.8828 56.543Z" fill="#A9C2FF"/>
<path fill-rule="evenodd" clip-rule="evenodd" d="M76.2334 53.7725C76.2334 53.2046 76.692 52.7441 77.2576 52.7441H83.4727C84.0384 52.7441 84.4969 53.2046 84.4969 53.7725C84.4969 54.3405 84.0384 54.8009 83.4727 54.8009H77.2576C76.692 54.8009 76.2334 54.3405 76.2334 53.7725Z" fill="#A9C2FF"/>
<path fill-rule="evenodd" clip-rule="evenodd" d="M75.3848 56.543C75.3848 55.9751 75.8433 55.5146 76.409 55.5146H82.6241C83.1897 55.5146 83.6483 55.9751 83.6483 56.543C83.6483 57.111 83.1897 57.5714 82.6241 57.5714H76.409C75.8433 57.5714 75.3848 57.111 75.3848 56.543Z" fill="#A9C2FF"/>
<path fill-rule="evenodd" clip-rule="evenodd" d="M100.772 50.5796C100.772 50.0117 101.231 49.5513 101.797 49.5513H109.18C109.746 49.5513 110.204 50.0117 110.204 50.5796C110.204 51.1476 109.746 51.608 109.18 51.608H101.797C101.231 51.608 100.772 51.1476 100.772 50.5796Z" fill="#A9C2FF"/>
<path fill-rule="evenodd" clip-rule="evenodd" d="M94.8841 62.9297C94.8839 62.9297 94.8842 62.9297 94.8841 62.9297V62.9297ZM95.0817 62.9297H105.577L105.217 64.3135H94.722L95.0817 62.9297ZM94.8846 62.2441C94.7906 62.2441 94.6993 62.2752 94.6246 62.3325C94.5498 62.3901 94.4959 62.4708 94.4716 62.5623L93.976 64.4685L93.9749 64.4731C93.9604 64.5358 93.9602 64.6011 93.9742 64.6639C93.9883 64.7268 94.0162 64.7856 94.056 64.8361C94.0957 64.8866 94.1463 64.9274 94.2039 64.9556C94.2615 64.9839 94.3247 64.9987 94.3885 64.9991L105.414 64.9991C105.414 64.9991 105.414 64.9991 105.414 64.9991M94.8846 62.2441C94.8846 62.2441 94.8847 62.2441 94.8846 62.2441V62.2441Z" fill="#84AEE5"/>
<path fill-rule="evenodd" clip-rule="evenodd" d="M81.3814 62.9297L81.0216 64.3135H91.5139L91.8737 62.9297H81.3814ZM81.1837 62.2442C81.0873 62.2432 80.9934 62.2755 80.9178 62.3357C80.8436 62.3946 80.7914 62.4768 80.7694 62.5691L80.2772 64.4625C80.2605 64.5248 80.2582 64.5903 80.2704 64.6539C80.2829 64.7185 80.3101 64.7794 80.3499 64.8317C80.3898 64.884 80.4411 64.9262 80.4998 64.9553C80.5583 64.9842 80.6227 64.9992 80.6879 64.9991L80.6876 64.6563L80.6886 64.9991C80.6883 64.9991 80.6881 64.9991 80.6879 64.9991M91.7082 64.9991H91.711V64.6563L91.7017 64.999C91.7038 64.999 91.706 64.9991 91.7082 64.9991ZM91.7082 64.9991C91.8031 65.0003 91.8959 64.9694 91.9715 64.9113C92.0476 64.8528 92.1017 64.7702 92.1251 64.6769L92.6197 62.7747L92.6207 62.7702C92.6352 62.7074 92.6355 62.6422 92.6214 62.5793C92.6074 62.5166 92.5795 62.4577 92.5397 62.4071C92.4999 62.3567 92.4494 62.3158 92.3918 62.2876C92.3343 62.2594 92.2711 62.2446 92.2071 62.2442H81.1837" fill="#84AEE5"/>
<path d="M124.79 61.903C124.235 61.1464 121.932 60.5985 121.299 59.8448C120.978 59.4581 120.978 58.7322 121.052 58.1342C121.247 58.0195 121.423 57.8771 121.577 57.7114C121.807 57.3596 122.014 56.9935 122.198 56.6156C122.232 56.6516 122.273 56.68 122.318 56.6987C122.364 56.7174 122.413 56.7261 122.462 56.724C122.762 56.724 123.907 55.1525 123.613 54.791C123.444 54.5824 123.172 54.7631 122.967 54.9551C123.272 54.2597 123.486 53.7257 123.486 53.7257C123.513 53.6367 123.538 53.5477 123.563 53.4475C124.016 51.6202 122.906 50.1377 121.083 50.1377C119.26 50.1377 117.404 51.6396 116.96 53.4587C116.938 53.5477 116.918 53.6367 116.904 53.7368C116.904 53.7368 116.852 54.2708 116.81 54.9662C116.702 54.7743 116.519 54.5935 116.255 54.8021C115.778 55.1637 116.147 56.7268 116.444 56.7352C116.559 56.733 116.67 56.6951 116.763 56.6267C116.758 56.9934 116.783 57.36 116.838 57.7225C116.927 57.9225 117.065 58.0972 117.237 58.2315C117.01 58.8156 116.666 59.4804 116.177 59.8448C115.168 60.5985 112.601 61.1464 111.663 61.903C110.817 62.5816 110.062 64.562 109.918 64.9625H125.006C125.067 64.562 125.298 62.5816 124.79 61.903Z" fill="#8DBCF8"/>
<g opacity="0.46">
<path d="M122.995 97.8551H63.4657C63.3198 97.8551 63.1757 97.8217 63.0447 97.7572C62.9137 97.6928 62.7992 97.599 62.7099 97.4833C62.6207 97.3675 62.5591 97.2327 62.53 97.0894C62.5008 96.946 62.5049 96.7978 62.5418 96.6563L68.091 75.2396C68.1434 75.034 68.2628 74.8518 68.4301 74.7218C68.5974 74.5919 68.8032 74.5215 69.0149 74.522H128.549C128.696 74.5219 128.84 74.5555 128.971 74.6201C129.103 74.6847 129.218 74.7786 129.307 74.8946C129.397 75.0107 129.458 75.1457 129.488 75.2894C129.517 75.4331 129.513 75.5816 129.476 75.7235L123.927 97.1263C123.875 97.3349 123.755 97.5201 123.586 97.6522C123.417 97.7843 123.209 97.8558 122.995 97.8551Z" fill="#BFD9FF"/>
<path fill-rule="evenodd" clip-rule="evenodd" d="M70.6045 79.1167C70.6045 78.5488 71.0631 78.0884 71.6287 78.0884H92.3438C92.9095 78.0884 93.3681 78.5488 93.3681 79.1167C93.3681 79.6847 92.9095 80.1451 92.3438 80.1451H71.6287C71.0631 80.1451 70.6045 79.6847 70.6045 79.1167Z" fill="#A9C2FF"/>
<path fill-rule="evenodd" clip-rule="evenodd" d="M69.0117 88.6988C69.0117 88.1308 69.4703 87.6704 70.0359 87.6704H90.7483C91.314 87.6704 91.7725 88.1308 91.7725 88.6988C91.7725 89.2667 91.314 89.7271 90.7483 89.7271H70.0359C69.4703 89.7271 69.0117 89.2667 69.0117 88.6988Z" fill="#A9C2FF"/>
<path fill-rule="evenodd" clip-rule="evenodd" d="M77.7207 85.0801C77.7207 84.5122 78.1793 84.0518 78.7449 84.0518H99.4601C100.026 84.0518 100.484 84.5122 100.484 85.0801C100.484 85.6481 100.026 86.1085 99.4601 86.1085H78.7449C78.1793 86.1085 77.7207 85.6481 77.7207 85.0801Z" fill="#A9C2FF"/>
<path fill-rule="evenodd" clip-rule="evenodd" d="M70.0742 82.3101C70.0742 81.7422 70.5328 81.2817 71.0984 81.2817H77.3108C77.8764 81.2817 78.335 81.7422 78.335 82.3101C78.335 82.8781 77.8764 83.3385 77.3108 83.3385H71.0984C70.5328 83.3385 70.0742 82.8781 70.0742 82.3101Z" fill="#A9C2FF"/>
<path fill-rule="evenodd" clip-rule="evenodd" d="M69.2256 85.0801C69.2256 84.5122 69.6841 84.0518 70.2498 84.0518H76.4621C77.0278 84.0518 77.4863 84.5122 77.4863 85.0801C77.4863 85.6481 77.0278 86.1085 76.4621 86.1085H70.2498C69.6841 86.1085 69.2256 85.6481 69.2256 85.0801Z" fill="#A9C2FF"/>
<path fill-rule="evenodd" clip-rule="evenodd" d="M94.6104 79.1167C94.6104 78.5488 95.0689 78.0884 95.6346 78.0884H103.018C103.583 78.0884 104.042 78.5488 104.042 79.1167C104.042 79.6847 103.583 80.1451 103.018 80.1451H95.6346C95.0689 80.1451 94.6104 79.6847 94.6104 79.1167Z" fill="#A9C2FF"/>
<path fill-rule="evenodd" clip-rule="evenodd" d="M88.9224 91.4668L88.5626 92.8506H99.066L99.4258 91.4668H88.9224ZM88.7247 90.7813C88.6284 90.7804 88.5345 90.8126 88.4588 90.8728C88.3847 90.9317 88.3324 91.0139 88.3104 91.1062L87.8182 92.9996C87.8015 93.0621 87.7992 93.1275 87.8115 93.191C87.8239 93.2556 87.8511 93.3165 87.8909 93.3688C87.9308 93.4211 87.9821 93.4634 88.0408 93.4924C88.0993 93.5213 88.1637 93.5363 88.2289 93.5362L88.2286 93.1934L88.2296 93.5362C88.2293 93.5362 88.2291 93.5362 88.2289 93.5362M99.2385 93.5362C99.3339 93.5428 99.4293 93.5166 99.5085 93.4613C99.5941 93.4014 99.6546 93.3119 99.6783 93.21L100.172 91.3118L100.173 91.3073C100.187 91.2445 100.188 91.1793 100.174 91.1164C100.16 91.0537 100.132 90.9948 100.092 90.9442C100.052 90.8938 100.001 90.8529 99.9439 90.8247C99.8864 90.7965 99.8233 90.7817 99.7592 90.7813H88.7247M99.2385 93.5362C99.2261 93.5353 99.2137 93.5339 99.2013 93.532L99.2548 93.1934V93.5362H99.2385Z" fill="#84AEE5"/>
<path fill-rule="evenodd" clip-rule="evenodd" d="M85.7119 91.4668H75.2191L74.8594 92.8506H85.3542L85.7119 91.4668ZM75.022 91.4668H75.0215V91.4668C75.0216 91.4668 75.0218 91.4668 75.022 91.4668ZM86.0452 90.7813C86.1103 90.7812 86.1747 90.7961 86.2333 90.8251C86.2922 90.8542 86.3434 90.8965 86.3831 90.9487C86.4229 91.001 86.4501 91.0618 86.4626 91.1265C86.4748 91.1899 86.4726 91.2552 86.4559 91.3176L85.9653 93.2155L85.9646 93.218C85.9402 93.3096 85.8864 93.3903 85.8116 93.4478C85.7368 93.5053 85.6452 93.5363 85.5512 93.5362H85.5516V93.1934L85.551 93.5362M86.0452 90.7813H75.0222H86.0452Z" fill="#84AEE5"/>
<path d="M118.625 90.44C118.07 89.6834 115.767 89.1355 115.135 88.3818C114.81 87.9951 114.81 87.2692 114.888 86.6712C115.081 86.5557 115.258 86.4134 115.412 86.2484C115.641 85.8964 115.848 85.5304 116.031 85.1526C116.065 85.1881 116.106 85.2164 116.151 85.2355C116.196 85.2546 116.245 85.2643 116.294 85.2638C116.597 85.2638 117.743 83.6896 117.446 83.3168C117.277 83.1082 117.005 83.289 116.802 83.4809C117.105 82.7856 117.318 82.2516 117.318 82.2516C117.346 82.1626 117.374 82.0763 117.396 81.9734C117.851 80.1461 116.741 78.6636 114.918 78.6636C113.095 78.6636 111.247 80.1461 110.792 81.9734C110.77 82.0652 110.753 82.1514 110.74 82.2516C110.74 82.2516 110.687 82.7856 110.643 83.4809C110.537 83.289 110.351 83.1082 110.088 83.3168C109.613 83.6784 109.982 85.2416 110.276 85.2638C110.391 85.2595 110.502 85.2207 110.595 85.1526C110.591 85.5193 110.616 85.8857 110.67 86.2484C110.766 86.4537 110.911 86.6322 111.092 86.7685C110.867 87.3526 110.52 88.0174 110.032 88.3818C109.025 89.1355 106.458 89.6834 105.518 90.44C104.672 91.1186 103.917 93.099 103.775 93.4995H118.88C118.902 93.099 119.138 91.1186 118.625 90.44Z" fill="#8DBCF8"/>
</g>
<path fill-rule="evenodd" clip-rule="evenodd" d="M121.713 98.3062H111.092V97.6206H121.713V98.3062Z" fill="#7094D8"/>
<path fill-rule="evenodd" clip-rule="evenodd" d="M100.257 69.7691H74.9746V69.0835H100.257V69.7691Z" fill="#7094D8"/>
<path fill-rule="evenodd" clip-rule="evenodd" d="M112.206 69.7691H106.044V69.0835H112.206V69.7691Z" fill="#7094D8"/>
<path fill-rule="evenodd" clip-rule="evenodd" d="M134.789 46.4473L132.655 46.4473V45.7617H134.789C134.989 45.7618 135.185 45.8088 135.364 45.899C135.542 45.9892 135.697 46.1201 135.815 46.2811C135.934 46.4422 136.013 46.629 136.047 46.8265C136.08 47.0239 136.067 47.2266 136.009 47.418L135.104 50.3502L134.452 50.1473L135.356 47.2163C135.356 47.2164 135.356 47.2163 135.356 47.2163C135.383 47.1276 135.389 47.0335 135.374 46.9419C135.358 46.8503 135.321 46.7637 135.266 46.6888C135.211 46.614 135.139 46.5532 135.056 46.5112C134.973 46.4692 134.882 46.4474 134.789 46.4473Z" fill="#7094D8"/>
<path d="M65.0219 8.4722H63.9315C63.87 8.4753 63.8087 8.46316 63.753 8.43686C63.6973 8.41056 63.649 8.37091 63.6122 8.32141C63.5754 8.27191 63.5514 8.21409 63.5423 8.15307C63.5331 8.09205 63.5391 8.0297 63.5597 7.97155L63.8371 6.87846C63.8758 6.7415 63.9562 6.62011 64.0672 6.53131C64.1782 6.44252 64.3141 6.39079 64.4559 6.38338H65.5463C65.6068 6.38215 65.6668 6.39566 65.721 6.42276C65.7752 6.44985 65.8221 6.48972 65.8575 6.53894C65.893 6.58817 65.916 6.64528 65.9246 6.70538C65.9332 6.76548 65.9272 6.82678 65.907 6.88403L65.6295 7.97155C65.5929 8.10804 65.5146 8.22965 65.4057 8.31941C65.2967 8.40916 65.1626 8.46258 65.0219 8.4722Z" fill="#BFD9FF"/>
<path d="M64.2258 11.6735H63.1326C63.0718 11.6762 63.0112 11.6641 62.9562 11.6381C62.9011 11.6121 62.8532 11.573 62.8165 11.5242C62.7799 11.4754 62.7557 11.4185 62.746 11.3582C62.7363 11.298 62.7414 11.2362 62.7608 11.1784L63.0383 10.0853C63.0769 9.94835 63.1574 9.82695 63.2684 9.73816C63.3793 9.64937 63.5152 9.59763 63.657 9.59022H64.7475C64.8083 9.58748 64.8689 9.59963 64.9239 9.62565C64.979 9.65166 65.027 9.69074 65.0636 9.7395C65.1002 9.78826 65.1244 9.84524 65.1341 9.9055C65.1438 9.96576 65.1387 10.0275 65.1193 10.0853L64.8418 11.1784C64.8037 11.3151 64.7238 11.4365 64.6133 11.5253C64.5028 11.6141 64.3673 11.6659 64.2258 11.6735Z" fill="#EDF4FF"/>
<path d="M67.6912 11.6737H66.6036C66.5425 11.6771 66.4816 11.6654 66.4261 11.6396C66.3707 11.6138 66.3225 11.5747 66.2857 11.5257C66.2489 11.4768 66.2248 11.4195 66.2154 11.3589C66.206 11.2984 66.2116 11.2364 66.2318 11.1786L66.5092 10.0855C66.5471 9.94813 66.6273 9.82627 66.7385 9.73735C66.8496 9.64843 66.9859 9.59701 67.1279 9.59043H68.2156C68.2766 9.587 68.3376 9.5987 68.393 9.62451C68.4484 9.65032 68.4967 9.68944 68.5334 9.73839C68.5702 9.78735 68.5944 9.84464 68.6038 9.90518C68.6132 9.96573 68.6076 10.0277 68.5874 10.0855L68.3099 11.1786C68.272 11.316 68.1918 11.4378 68.0807 11.5268C67.9696 11.6157 67.8332 11.6671 67.6912 11.6737Z" fill="#BFD9FF"/>
<path d="M71.1598 11.6737H70.0694C70.0083 11.6771 69.9474 11.6654 69.892 11.6396C69.8365 11.6138 69.7883 11.5747 69.7515 11.5257C69.7148 11.4768 69.6906 11.4195 69.6812 11.3589C69.6718 11.2984 69.6774 11.2364 69.6976 11.1786L69.975 10.0855C70.0129 9.94813 70.0932 9.82627 70.2043 9.73735C70.3154 9.64843 70.4517 9.59701 70.5938 9.59043H71.6814C71.7424 9.587 71.8034 9.5987 71.8588 9.62451C71.9143 9.65032 71.9625 9.68944 71.9993 9.73839C72.036 9.78735 72.0602 9.84464 72.0696 9.90518C72.079 9.96573 72.0734 10.0277 72.0532 10.0855L71.7757 11.1786C71.738 11.3156 71.6582 11.4371 71.5476 11.526C71.437 11.6149 71.3013 11.6665 71.1598 11.6737Z" fill="#EDF4FF"/>
<path d="M63.4099 14.9501H62.3223C62.2613 14.9535 62.2003 14.9418 62.1449 14.916C62.0895 14.8902 62.0412 14.8511 62.0044 14.8021C61.9677 14.7531 61.9435 14.6959 61.9341 14.6353C61.9247 14.5748 61.9303 14.5128 61.9505 14.455L62.228 13.3619C62.2663 13.2232 62.3478 13.1004 62.4606 13.0113C62.5733 12.9223 62.7115 12.8716 62.855 12.8668H63.9427C64.0037 12.8634 64.0646 12.8751 64.1201 12.9009C64.1755 12.9267 64.2238 12.9658 64.2605 13.0148C64.2973 13.0637 64.3214 13.121 64.3308 13.1816C64.3403 13.2421 64.3346 13.304 64.3145 13.3619L64.037 14.455C63.9987 14.5937 63.9172 14.7165 63.8044 14.8055C63.6916 14.8946 63.5534 14.9452 63.4099 14.9501Z" fill="#EDF4FF"/>
<path d="M62.5414 18.4489H61.451C61.3902 18.4516 61.3296 18.4395 61.2745 18.4135C61.2194 18.3874 61.1715 18.3484 61.1349 18.2996C61.0983 18.2508 61.0741 18.1939 61.0644 18.1336C61.0547 18.0733 61.0598 18.0116 61.0792 17.9538L61.3567 16.8607C61.3949 16.7235 61.4753 16.6019 61.5863 16.513C61.6974 16.4242 61.8335 16.3726 61.9754 16.3656H63.0658C63.1266 16.3629 63.1872 16.375 63.2423 16.401C63.2974 16.427 63.3453 16.4661 63.3819 16.5149C63.4186 16.5637 63.4428 16.6206 63.4525 16.6809C63.4622 16.7411 63.4571 16.8029 63.4376 16.8607L63.1602 17.9538C63.1215 18.0908 63.0411 18.2121 62.9301 18.3009C62.8191 18.3897 62.6832 18.4415 62.5414 18.4489Z" fill="#EDF4FF"/>
<path d="M66.8785 14.9501H65.7881C65.7271 14.9535 65.6662 14.9418 65.6107 14.916C65.5553 14.8902 65.507 14.8511 65.4703 14.8021C65.4335 14.7531 65.4093 14.6959 65.3999 14.6353C65.3905 14.5748 65.3962 14.5128 65.4163 14.455L65.6938 13.3619C65.7317 13.2245 65.8119 13.1026 65.923 13.0137C66.0342 12.9248 66.1705 12.8734 66.3125 12.8668H67.4002C67.4612 12.8634 67.5221 12.8751 67.5776 12.9009C67.633 12.9267 67.6813 12.9658 67.718 13.0148C67.7548 13.0637 67.7789 13.121 67.7883 13.1816C67.7978 13.2421 67.7921 13.304 67.772 13.3619L67.4945 14.455C67.456 14.5915 67.376 14.7126 67.2656 14.8013C67.1551 14.8901 67.0198 14.9421 66.8785 14.9501Z" fill="#EDF4FF"/>
<path d="M65.3526 21.0438H64.2705C64.2095 21.0472 64.1486 21.0355 64.0931 21.0097C64.0377 20.9839 63.9895 20.9448 63.9527 20.8958C63.9159 20.8469 63.8918 20.7896 63.8824 20.7291C63.873 20.6685 63.8786 20.6066 63.8987 20.5487L64.1762 19.4556C64.2141 19.3182 64.2943 19.1964 64.4055 19.1075C64.5166 19.0185 64.6529 18.9671 64.7949 18.9605H65.8826C65.9436 18.9571 66.0046 18.9688 66.06 18.9946C66.1154 19.0204 66.1637 19.0596 66.2004 19.1085C66.2372 19.1575 66.2614 19.2148 66.2708 19.2753C66.2802 19.3358 66.2745 19.3978 66.2544 19.4556L65.9769 20.5487C65.9387 20.687 65.8577 20.8095 65.7454 20.8985C65.6332 20.9875 65.4956 21.0384 65.3526 21.0438Z" fill="#BFD9FF"/>
<path d="M82.4936 2.13037H82.427C82.316 2.13037 82.2023 2.13037 82.0885 2.13037C78.8561 2.13037 75.5876 4.72541 74.7275 7.94904L74.6886 8.1048C74.6871 8.12052 74.6871 8.13636 74.6886 8.15208L74.6637 8.24943C73.9562 11.5176 76.051 14.1182 79.3805 13.9819C82.4325 13.8595 85.5151 11.4174 86.4307 8.3885C87.4296 5.07308 85.6206 2.33341 82.4936 2.13037ZM84.7133 8.24943C84.0696 10.4022 81.8693 12.1434 79.7023 12.2074C77.3717 12.2825 75.9206 10.4718 76.4006 8.19102L76.4672 7.91288C77.0859 5.65439 79.3805 3.84371 81.6473 3.84371C81.7639 3.84371 81.8776 3.84371 81.9914 3.84371C84.1611 4.04675 85.4069 5.95757 84.7216 8.24943H84.7133Z" fill="#EBEDFC"/>
<path d="M82.1771 3.1234C82.1478 3.20876 82.1364 3.29927 82.1436 3.38925C82.1507 3.47924 82.1763 3.56678 82.2188 3.64639C82.2612 3.72601 82.3196 3.796 82.3903 3.85197C82.4609 3.90795 82.5423 3.94872 82.6294 3.97173C84.394 4.44179 85.3374 6.19684 84.7214 8.24673C84.0777 10.3995 81.8775 12.1407 79.7105 12.2046C77.5436 12.2686 76.1895 10.7722 76.3255 8.77798C76.3346 8.68498 76.3234 8.59111 76.2926 8.50291C76.2618 8.41471 76.2121 8.33432 76.1472 8.26732C76.0822 8.20032 76.0034 8.14834 75.9163 8.11501C75.8292 8.08167 75.7359 8.06777 75.643 8.07428C75.3681 8.08744 75.1065 8.19677 74.9037 8.38328C74.7009 8.56978 74.5698 8.82165 74.5331 9.09505C74.3417 11.9376 76.3477 14.0765 79.3914 13.9514C82.4352 13.8262 85.5205 11.3869 86.4389 8.35798C87.324 5.43474 85.9894 2.94261 83.4784 2.27508C83.195 2.22835 82.9045 2.28945 82.6637 2.44639C82.423 2.60334 82.2494 2.8448 82.1771 3.1234Z" fill="#A5C5FF"/>
<path d="M97.2071 1.51855H97.1294C97.0212 1.51855 96.9103 1.51855 96.7993 1.51855C93.5336 1.51855 90.2235 4.172 89.4105 7.44848C88.5976 10.725 90.5842 13.3756 93.8499 13.3756C93.9609 13.3756 94.0718 13.3756 94.1856 13.3756H94.2661C97.3736 13.1642 100.426 10.6248 101.225 7.51245C101.226 7.49579 101.226 7.47905 101.225 7.46239C102.018 4.29438 100.229 1.72994 97.2071 1.51855ZM94.5796 11.5872H94.5629H94.3549H94.2855C91.9826 11.5872 90.5814 9.7181 91.1557 7.41511C91.7301 5.11211 94.0607 3.24302 96.3637 3.24302H96.4275C96.4968 3.24302 96.5634 3.24302 96.6328 3.24302H96.6494C98.7776 3.39321 100.037 5.18999 99.4879 7.41511C99.4845 7.43213 99.4799 7.44887 99.474 7.46517C98.9246 9.66803 96.766 11.4509 94.5796 11.5872Z" fill="white"/>
<path d="M99.2268 8.21359C98.847 9.05319 98.2753 9.79134 97.5581 10.3683C96.8408 10.9452 95.9981 11.3448 95.0982 11.5346C94.8778 11.5777 94.6735 11.681 94.508 11.8332C94.3425 11.9853 94.2222 12.1804 94.1604 12.3968C94.1215 12.5139 94.1154 12.6396 94.143 12.7599C94.1705 12.8802 94.2305 12.9907 94.3164 13.0791C94.4024 13.1676 94.5109 13.2306 94.6302 13.2614C94.7495 13.2921 94.8749 13.2894 94.9928 13.2535C96.2745 12.9866 97.4749 12.4193 98.4959 11.5979C99.5168 10.7765 100.329 9.7245 100.867 8.52789C101.1 7.98551 100.817 7.48486 100.267 7.48486C100.043 7.49716 99.8273 7.5719 99.6435 7.70065C99.4596 7.8294 99.3153 8.00705 99.2268 8.21359Z" fill="#BFD9FF"/>
<path d="M81.5139 22.3846H70.4904C70.4773 22.3847 70.4642 22.3816 70.4524 22.3758C70.4405 22.37 70.4302 22.3615 70.4221 22.351C70.4141 22.3405 70.4086 22.3283 70.406 22.3153C70.4034 22.3023 70.4038 22.2889 70.4072 22.2762L70.9011 20.3765C70.9064 20.3583 70.9173 20.3423 70.9323 20.3308C70.9472 20.3193 70.9655 20.3129 70.9843 20.3125H81.9995C82.0127 20.3125 82.0257 20.3155 82.0375 20.3213C82.0494 20.3272 82.0597 20.3357 82.0678 20.3462C82.0758 20.3566 82.0814 20.3688 82.0839 20.3818C82.0865 20.3948 82.0861 20.4082 82.0827 20.421L81.5888 22.3207C81.584 22.3375 81.5743 22.3526 81.561 22.364C81.5477 22.3754 81.5313 22.3826 81.5139 22.3846Z" fill="#EDF4FF"/>
<path d="M132.644 31.1938C134.939 29.1622 135.518 26.061 133.937 24.2671C132.357 22.4733 129.216 22.6661 126.921 24.6978C124.626 26.7295 124.047 29.8307 125.627 31.6245C127.208 33.4183 130.349 33.2255 132.644 31.1938Z" fill="#73A5FF"/>
<path d="M137.023 33.2209C136.92 33.5914 136.705 33.9203 136.406 34.1613C136.107 34.4024 135.741 34.5433 135.358 34.5644C135.193 34.5719 135.029 34.539 134.879 34.4683C134.73 34.3977 134.6 34.2915 134.501 34.1591C134.402 34.0266 134.337 33.8719 134.311 33.7084C134.285 33.5449 134.3 33.3775 134.354 33.2209C134.456 32.8505 134.671 32.5216 134.97 32.2805C135.269 32.0395 135.635 31.8986 136.018 31.8775C136.183 31.8699 136.348 31.9029 136.497 31.9735C136.646 32.0442 136.776 32.1504 136.875 32.2828C136.974 32.4153 137.039 32.57 137.065 32.7335C137.091 32.897 137.076 33.0644 137.023 33.2209Z" fill="#73A5FF"/>
<path d="M128.524 30.4449C128.451 30.4473 128.379 30.4325 128.313 30.4015C128.247 30.3706 128.189 30.3245 128.144 30.2669L126.879 28.5786C126.8 28.4359 126.778 28.2685 126.817 28.1101C126.856 27.9516 126.953 27.8139 127.09 27.7247C127.145 27.668 127.212 27.6229 127.285 27.5921C127.358 27.5613 127.436 27.5454 127.516 27.5454C127.595 27.5454 127.674 27.5613 127.747 27.5921C127.82 27.6229 127.886 27.668 127.942 27.7247L128.888 28.9875L132.264 26.2784C132.32 26.2216 132.386 26.1765 132.459 26.1458C132.532 26.115 132.611 26.0991 132.69 26.0991C132.77 26.0991 132.848 26.115 132.921 26.1458C132.994 26.1765 133.061 26.2216 133.116 26.2784C133.194 26.4211 133.216 26.5881 133.176 26.746C133.136 26.9038 133.039 27.0408 132.903 27.1295L128.993 30.2669C128.861 30.3771 128.696 30.4398 128.524 30.4449Z" fill="white"/>
<path d="M41.8985 51.2446C41.8985 51.2446 37.7366 51.4783 35.1951 60.9795C32.6536 70.4807 31.0332 82.0624 31.9599 85.0747C32.8866 88.0869 42.8225 96.2003 46.521 96.2003C50.2195 96.2003 50.4498 93.4189 49.7562 91.102C49.0625 88.7851 41.8985 82.513 41.8985 82.513C41.8985 82.513 47.6752 63.9778 47.4477 59.1132C47.2202 54.2485 44.4401 51.2446 41.8985 51.2446Z" fill="#90AAFF"/>
<path d="M93.9889 48.4127L93.3008 48.4822L94.8462 45.4227C94.8462 45.4227 98.7778 45.1752 99.4077 46.8384L97.6042 50.8464L93.9889 48.4127Z" fill="white"/>
<path d="M96.1998 39.6791C96.1998 39.6791 96.0444 36.5417 97.1598 36.0967C98.2752 35.6517 99.5182 36.5195 99.5182 36.5195C99.5182 36.5195 101.319 36.3359 101.896 37.1063C102.473 37.8768 102.423 39.0533 102.423 39.0533C102.72 39.128 102.994 39.2772 103.217 39.4869C103.441 39.6966 103.608 39.9599 103.702 40.2521C103.966 41.22 103.497 43.0919 103.497 43.0919C103.497 43.0919 102.318 44.541 100.958 44.1822C99.5986 43.8234 96.1998 39.6791 96.1998 39.6791Z" fill="white"/>
<path d="M94.1387 42.2242C94.1387 42.2242 93.7225 38.1189 94.1637 37.5765C94.6049 37.0342 99.1164 30.7788 99.1164 30.7788C99.1164 30.7788 100.051 31.8441 99.5131 33.0623C98.9748 34.2806 96.8523 37.9687 96.8523 37.9687V41.12C96.8523 41.12 95.4511 42.0907 94.1387 42.2242Z" fill="white"/>
<path d="M94.4853 45.5204C94.4853 45.5204 93.406 38.9285 94.1413 38.0245C94.8765 37.1206 98.4835 37.6462 99.1716 37.9077C99.8597 38.1691 101.766 40.6307 102.029 41.5986C102.293 42.5665 100.498 46.0683 99.4185 46.8415C98.3392 47.6148 95.0985 46.772 94.4853 45.5204Z" fill="white"/>
<path d="M59.0144 21.9646C59.0144 21.9646 62.4327 22.8408 64.3694 28.1031C66.3061 33.3655 65.0159 44.5495 63.7229 45.8651C62.4299 47.1807 58.5094 46.6801 53.0712 44.8805C47.3167 42.978 45.3745 36.9897 44.3562 33.0373C42.389 25.4719 48.951 17.6896 59.0144 21.9646Z" fill="white"/>
<path d="M46.7627 51.0132L49.5373 41.0503C49.5373 41.0503 55.0865 39.4287 58.552 43.1363L59.709 44.7579V51.2441C55.4136 51.9307 51.031 51.8525 46.7627 51.0132Z" fill="white"/>
<path d="M55.4299 123.955H38.2856C37.8422 117.512 38.0841 111.039 39.007 104.647C41.7816 100.475 47.6749 100.825 52.88 104.647C53.6369 105.241 54.2308 106.018 54.6058 106.906C56.4731 110.989 56.0708 118.365 55.4299 123.955Z" fill="white"/>
<path d="M72.5443 123.955H54.318C54.0664 122.989 53.8167 121.999 53.5689 120.985C53.5689 120.985 50.3143 112.274 54.601 106.906C55.1943 106.164 55.8991 105.519 56.6903 104.995C63.9708 100.13 69.5172 100.823 71.2514 108.819C71.9034 111.834 72.3612 117.619 72.5443 123.955Z" fill="white"/>
<path d="M65.6855 22.4347C65.6855 22.4347 67.3253 24.5735 66.3431 27.0406C65.3609 29.5077 61.7456 30.5007 61.7456 30.5007C61.7456 30.5007 62.8943 32.1473 61.7456 34.4475L60.9132 35.7659C60.9132 35.7659 62.0619 38.3971 61.7456 39.0535C61.4293 39.7099 60.2695 39.5486 60.2695 39.5486C60.2695 39.5486 58.9572 35.9327 58.4633 36.2582C57.9694 36.5836 56.6598 38.2302 56.6598 39.7127C56.6598 41.1951 57.1509 42.3439 56.8235 43.3285C56.4961 44.3131 51.4103 44.3159 49.2766 43.9877C47.1429 43.6595 43.8661 37.0787 43.0449 34.1165C43.0449 34.1165 41.8962 30.0056 43.5387 26.5511C43.5387 26.5511 43.2086 23.5917 45.9998 20.6323C48.791 17.6729 57.6531 18.6575 59.1236 19.7979C59.1236 19.7979 58.9599 18.1541 60.5997 18.4823C62.2395 18.8105 64.7006 20.3013 65.6855 22.4347Z" fill="black"/>
<path d="M60.7632 37.407C60.7632 37.407 60.2721 35.2681 58.4659 36.2555C56.6596 37.2429 58.796 42.3412 60.2721 42.0102C61.7482 41.6792 61.0934 38.2275 60.7632 37.407Z" fill="white"/>
<path d="M45.2832 50.9609C45.2832 50.9609 46.0573 48.2351 46.751 48.0015C47.4446 47.7678 55.9959 46.8444 60.6239 49.623C62.7049 51.2446 62.4718 52.4044 62.4718 52.4044C62.4718 52.4044 48.6682 49.751 45.2832 50.9609Z" fill="#DEE0E8"/>
<path d="M43.6168 49.5519C43.6168 49.5519 57.9496 48.6138 68.122 53.0732C72.746 55.4198 83.3235 66.0315 83.3235 66.0315L91.6501 48.4335C91.6501 48.4335 96.3325 46.7433 98.181 51.1886C98.181 51.1886 92.9213 71.9557 88.5304 78.5137C85.7549 80.8603 72.5184 73.2318 72.5184 73.2318C72.5184 73.2318 74.6001 100.453 73.9062 112.67C72.9819 115.017 54.9465 116.189 51.7019 115.955C48.4573 115.721 37.1498 111.972 36.9111 111.267C36.6724 110.563 38.5376 82.404 38.0657 79.1194C37.5939 75.8347 36.2172 59.6425 36.678 57.2959C37.1387 54.9493 39.2231 50.49 43.6168 49.5519Z" fill="#90AAFF"/>
<path fill-rule="evenodd" clip-rule="evenodd" d="M38.126 83.9434L36.2754 64.0175L36.8843 63.9604L38.735 83.8863L38.126 83.9434Z" fill="black"/>
<path fill-rule="evenodd" clip-rule="evenodd" d="M68.126 71.1888C68.1258 71.1887 68.1258 71.1886 68.3045 70.9395C68.4832 70.6904 68.4832 70.6904 68.4833 70.6904L68.4925 70.6971L68.5214 70.7178C68.5471 70.7362 68.5855 70.7636 68.636 70.7993C68.7369 70.8707 68.8862 70.9755 69.0787 71.1083C69.4636 71.374 70.0213 71.7518 70.7106 72.1994C72.0898 73.0949 73.994 74.2682 76.0963 75.3813C78.2002 76.4953 80.4938 77.5444 82.6531 78.1963C84.8221 78.8511 86.8092 79.0906 88.325 78.6389L88.499 79.2275C86.8086 79.7313 84.6794 79.4492 82.477 78.7843C80.265 78.1165 77.9325 77.0478 75.811 75.9245C73.688 74.8004 71.7676 73.617 70.3785 72.715C69.6837 72.2639 69.1213 71.8829 68.7323 71.6144C68.5377 71.4801 68.3865 71.374 68.2837 71.3012C68.2323 71.2649 68.193 71.2369 68.1665 71.2179L68.1363 71.1962L68.126 71.1888Z" fill="black"/>
<path fill-rule="evenodd" clip-rule="evenodd" d="M86.333 70.8933C85.9003 70.0257 85.2434 69.2902 84.4307 68.7634L84.7623 68.2476C85.6668 68.8338 86.3981 69.6524 86.8798 70.6183C87.3616 71.5842 87.5762 72.6619 87.5013 73.7392L86.8913 73.6965C86.9585 72.7289 86.7657 71.7609 86.333 70.8933Z" fill="black"/>
<path fill-rule="evenodd" clip-rule="evenodd" d="M86.4774 67.631C85.6916 67.2808 84.8114 67.2039 83.977 67.4127L83.8291 66.8169C84.7957 66.575 85.8152 66.6641 86.7255 67.0698C87.6359 67.4755 88.385 68.1747 88.8535 69.0563L88.314 69.3454C87.9097 68.5847 87.2633 67.9812 86.4774 67.631Z" fill="black"/>
<path fill-rule="evenodd" clip-rule="evenodd" d="M67.6403 54.855C67.6405 54.8549 67.6407 54.8548 67.7823 55.1269C67.924 55.3989 67.9241 55.3989 67.9242 55.3988L67.924 55.3989L67.9214 55.4003L67.9086 55.4073C67.8968 55.4138 67.8785 55.424 67.8544 55.438C67.8061 55.4659 67.7343 55.5088 67.6438 55.567C67.4626 55.6834 67.2069 55.8604 66.9138 56.1004C66.3268 56.581 65.5956 57.3092 65.012 58.3015C63.857 60.2651 63.2447 63.32 65.6225 67.6621L65.0866 67.9579C62.6117 63.4385 63.2133 60.1519 64.4854 57.9892C65.1152 56.9184 65.9009 56.1374 66.5273 55.6245C66.841 55.3677 67.1161 55.177 67.3142 55.0498C67.4132 54.9861 67.4932 54.9383 67.5491 54.9059C67.5771 54.8897 67.5991 54.8774 67.6146 54.8689L67.6328 54.859L67.638 54.8562L67.6397 54.8553L67.6403 54.855Z" fill="black"/>
<path fill-rule="evenodd" clip-rule="evenodd" d="M57.1846 43.6852C57.1845 43.685 57.1844 43.6849 57.4694 43.5735C57.7544 43.4622 57.7543 43.4621 57.7543 43.4619L57.7542 43.4617L57.7541 43.4614C57.754 43.4614 57.7541 43.4615 57.7542 43.4618L57.7558 43.4657C57.7575 43.4698 57.7603 43.4766 57.7644 43.4861C57.7726 43.505 57.7858 43.5343 57.8042 43.5723C57.8412 43.6484 57.8994 43.7592 57.9818 43.8918C58.1467 44.1575 58.4068 44.5077 58.7852 44.8423C59.5339 45.5046 60.7652 46.1247 62.7022 45.8752L62.78 46.4842C60.6578 46.7576 59.2533 46.0747 58.3809 45.3031C57.9488 44.9208 57.652 44.5214 57.4628 44.2167C57.3681 44.0641 57.2998 43.9346 57.2546 43.8416C57.232 43.7951 57.2151 43.7577 57.2036 43.731C57.1978 43.7177 57.1934 43.707 57.1902 43.6992L57.1864 43.6898L57.1852 43.6868L57.1847 43.6857L57.1846 43.6852Z" fill="black"/>
<path fill-rule="evenodd" clip-rule="evenodd" d="M98.0616 35.6172L98.0616 35.9242C98.0616 35.6172 98.0615 35.6172 98.0616 35.6172L98.0625 35.6172L98.0638 35.6172L98.0674 35.6172L98.0788 35.6174C98.0881 35.6176 98.1009 35.618 98.1169 35.6187C98.1488 35.6201 98.1935 35.6228 98.2481 35.6281C98.3569 35.6387 98.5074 35.6598 98.6762 35.7022C99.0069 35.7852 99.4438 35.9592 99.7556 36.3336L99.2864 36.7275C99.0933 36.4955 98.8005 36.3664 98.5277 36.2978C98.3947 36.2644 98.2751 36.2476 98.1891 36.2393C98.183 36.2387 98.177 36.2381 98.1713 36.2376L96.9086 37.3713L96.501 36.9136L97.9448 35.6172L98.0616 35.6172Z" fill="black"/>
<path fill-rule="evenodd" clip-rule="evenodd" d="M100.335 35.9155L100.262 36.2135L100.117 35.9428L100.221 35.8872L100.335 35.9155ZM100.299 36.5422C100.339 36.554 100.389 36.5693 100.446 36.5881C100.607 36.6408 100.823 36.7198 101.044 36.8251C101.267 36.9312 101.487 37.0593 101.661 37.2073C101.837 37.3565 101.948 37.509 101.99 37.6599C102.111 38.0882 102.121 38.4064 102.105 38.6089C102.097 38.7105 102.082 38.784 102.071 38.8287C102.066 38.8511 102.061 38.8663 102.058 38.8743L102.056 38.8808C102.056 38.8808 102.056 38.8805 102.056 38.8799L102.057 38.8785L102.057 38.8775L102.058 38.8769C102.058 38.8768 102.058 38.8763 102.34 38.9949C102.622 39.1135 102.622 39.1133 102.622 39.1132L102.622 39.1122L102.623 39.1106L102.625 39.107L102.628 39.0976C102.631 39.0902 102.634 39.0809 102.638 39.0697C102.646 39.0471 102.655 39.0166 102.664 38.9784C102.684 38.9018 102.704 38.7944 102.715 38.6571C102.736 38.3819 102.719 37.9908 102.579 37.4929C102.491 37.1807 102.283 36.9313 102.056 36.7382C101.826 36.5437 101.556 36.3891 101.306 36.2702C101.055 36.1506 100.813 36.0625 100.636 36.0043C100.547 35.9752 100.473 35.9533 100.421 35.9386C100.395 35.9312 100.374 35.9256 100.359 35.9217L100.342 35.9173L100.337 35.916L100.336 35.9157L100.335 35.9155C100.335 35.9154 100.335 35.9155 100.262 36.2135L100.117 35.9428L100.033 35.9881C99.98 36.017 99.9038 36.0582 99.8124 36.108C99.6298 36.2074 99.3859 36.3411 99.1418 36.4776C98.8983 36.6138 98.6519 36.7542 98.4654 36.8668C98.3729 36.9227 98.2904 36.9744 98.2293 37.0168C98.1998 37.0372 98.168 37.0604 98.141 37.0839C98.1283 37.0949 98.1081 37.1134 98.0885 37.1373C98.0787 37.1494 98.0634 37.1696 98.0494 37.1967C98.0369 37.2209 98.0137 37.2728 98.0137 37.3428H98.6252C98.6252 37.41 98.6029 37.4588 98.5923 37.4794C98.5802 37.5029 98.5677 37.519 98.5615 37.5266C98.5546 37.535 98.549 37.5407 98.5464 37.5433C98.5435 37.5462 98.5417 37.5478 98.5415 37.5479C98.5415 37.5479 98.5415 37.5479 98.5415 37.5479C98.5418 37.5477 98.5445 37.5454 98.5507 37.5407C98.5571 37.5359 98.5656 37.5298 98.5765 37.5222C98.6216 37.491 98.6909 37.4472 98.7805 37.3931C98.9581 37.2859 99.1973 37.1494 99.4394 37.014C99.6808 36.879 99.9224 36.7466 100.104 36.6477C100.181 36.6056 100.248 36.5696 100.299 36.5422Z" fill="black"/>
<path fill-rule="evenodd" clip-rule="evenodd" d="M100.653 39.3257C100.657 39.3251 100.675 39.3225 100.697 39.3152L100.51 38.7307C100.549 38.718 100.586 38.7154 100.594 38.7148C100.594 38.7148 100.594 38.7148 100.595 38.7148C100.61 38.7136 100.625 38.713 100.639 38.7128C100.667 38.7122 100.701 38.7124 100.739 38.713C100.816 38.7144 100.918 38.7179 101.036 38.7227C101.272 38.7325 101.578 38.748 101.88 38.7644C102.182 38.7808 102.482 38.798 102.705 38.8111C102.817 38.8177 102.91 38.8233 102.975 38.8272L103.077 38.8333L103.169 38.8389L103.242 38.8937C103.545 39.1208 103.79 39.417 103.956 39.7579C104.122 40.0987 104.205 40.4744 104.197 40.8537L104.197 40.8581L104.197 40.8626C104.158 41.651 104.019 42.4312 103.784 43.1843L103.77 43.229L103.743 43.2675L103.492 43.0922C103.743 43.2675 103.743 43.2674 103.743 43.2675L103.742 43.2685L103.741 43.27L103.738 43.2742L103.728 43.2877C103.72 43.2989 103.709 43.3142 103.694 43.3331C103.664 43.3709 103.622 43.4232 103.566 43.4851C103.455 43.6085 103.292 43.7717 103.078 43.9341C102.652 44.2584 102.014 44.5885 101.197 44.5729L101.209 43.9589C101.848 43.9711 102.355 43.7143 102.709 43.4448C102.886 43.3103 103.021 43.1748 103.112 43.0738C103.157 43.0235 103.191 42.9821 103.213 42.9543C103.214 42.9531 103.215 42.9518 103.215 42.9506C103.426 42.2643 103.55 41.5544 103.586 40.8371C103.591 40.557 103.529 40.2796 103.406 40.0278C103.296 39.8011 103.139 39.601 102.945 39.4405L102.939 39.4401C102.874 39.4362 102.781 39.4307 102.67 39.4241C102.446 39.411 102.148 39.3938 101.847 39.3775C101.546 39.3612 101.243 39.3458 101.011 39.3363C100.895 39.3315 100.798 39.3282 100.728 39.327C100.693 39.3264 100.668 39.3263 100.652 39.3267C100.644 39.3268 100.641 39.327 100.641 39.327C100.641 39.327 100.641 39.327 100.641 39.327C100.642 39.3269 100.646 39.3266 100.653 39.3257Z" fill="white"/>
<path fill-rule="evenodd" clip-rule="evenodd" d="M101.698 41.614C101.698 41.6141 101.698 41.6143 101.96 41.4564C102.222 41.2985 102.223 41.2987 102.223 41.2988L102.223 41.2992L102.223 41.3L102.224 41.3017L102.227 41.3056L102.232 41.3157C102.236 41.3235 102.241 41.3332 102.247 41.3448C102.258 41.3681 102.272 41.3993 102.286 41.438C102.313 41.5157 102.343 41.6238 102.358 41.7605C102.387 42.0362 102.357 42.4158 102.155 42.8832C102.09 43.0316 102.023 43.2247 101.94 43.461C101.913 43.539 101.884 43.6216 101.853 43.7088C101.732 44.0521 101.584 44.4487 101.394 44.8539C101.016 45.6606 100.459 46.5279 99.5701 47.0874L99.2451 46.5672C99.9909 46.0975 100.485 45.3516 100.841 44.5924C101.018 44.2146 101.158 43.8401 101.277 43.5029C101.304 43.4262 101.331 43.3503 101.357 43.2762C101.442 43.0331 101.52 42.8092 101.594 42.6385C101.755 42.2659 101.768 41.9933 101.75 41.8268C101.74 41.7424 101.723 41.6818 101.71 41.6461C101.704 41.6283 101.698 41.6166 101.696 41.6112C101.695 41.6085 101.694 41.6074 101.694 41.6079L101.695 41.6099L101.696 41.6118L101.697 41.613L101.698 41.6136L101.698 41.614Z" fill="black"/>
<path fill-rule="evenodd" clip-rule="evenodd" d="M48.1452 24.0643C47.5062 24.2688 46.9275 24.6281 46.4602 25.1102C46.2028 25.3757 45.9837 25.674 45.8077 25.9962C46.2687 25.8397 46.8827 25.6591 47.5871 25.522C49.1292 25.2219 51.1611 25.1193 52.9662 26.0003L52.6106 26.7349C51.0363 25.9665 49.2115 26.0378 47.7418 26.3238C47.0126 26.4657 46.3847 26.6579 45.9395 26.8144C45.7172 26.8926 45.5412 26.9616 45.4219 27.0106C45.3622 27.0351 45.3168 27.0546 45.2868 27.0677C45.2718 27.0743 45.2607 27.0792 45.2536 27.0824L45.2461 27.0858L45.2447 27.0864L45.2446 27.0865L45.2445 27.0865L45.2445 27.0865L44.4385 27.4579L44.6843 26.6021C44.9069 25.827 45.3166 25.119 45.8772 24.5406C46.4378 23.9622 47.1319 23.5314 47.8981 23.2861L48.1452 24.0643Z" fill="black"/>
<path fill-rule="evenodd" clip-rule="evenodd" d="M45.2865 28.5128C45.2869 28.5128 45.2873 28.5127 45.2473 28.1063C45.2073 27.7 45.2077 27.6999 45.2081 27.6999L45.209 27.6998L45.2107 27.6996L45.2146 27.6993L45.2233 27.6986C45.2295 27.6982 45.2366 27.6979 45.2446 27.6976C45.2606 27.6971 45.2801 27.6971 45.3029 27.698C45.3485 27.6998 45.407 27.7054 45.4771 27.7189C45.6177 27.7459 45.8012 27.8038 46.0166 27.9214C46.4475 28.1567 46.9925 28.623 47.583 29.5327L46.9015 29.9787C46.3655 29.1529 45.9129 28.7945 45.628 28.6389C45.4855 28.5612 45.3815 28.5321 45.3241 28.5211C45.2951 28.5155 45.277 28.5143 45.2707 28.5141C45.269 28.514 45.2681 28.514 45.2681 28.514C45.2681 28.514 45.2687 28.514 45.27 28.514L45.2763 28.5136L45.2812 28.5133L45.2841 28.513L45.2857 28.5129L45.2865 28.5128Z" fill="black"/>
<path fill-rule="evenodd" clip-rule="evenodd" d="M60.0898 20.7182C60.09 20.7182 60.0902 20.7183 60.1552 20.3152C60.2202 19.912 60.2204 19.9121 60.2207 19.9121L60.2225 19.9124L60.2264 19.9131L60.2387 19.9152C60.249 19.9171 60.2632 19.9197 60.2811 19.9232C60.317 19.9302 60.3678 19.9408 60.4314 19.9557C60.5585 19.9854 60.7375 20.0324 60.9515 20.1026C61.3781 20.2427 61.9507 20.4773 62.5298 20.8566C63.6982 21.6218 64.8913 22.9791 64.954 25.2855L64.1408 25.3078C64.087 23.328 63.084 22.1946 62.0854 21.5406C61.581 21.2103 61.0774 21.0032 60.6987 20.8789C60.51 20.817 60.3541 20.7762 60.2469 20.7511C60.1934 20.7386 60.1522 20.7301 60.1254 20.7248C60.112 20.7222 60.1022 20.7204 60.0962 20.7193L60.0898 20.7182Z" fill="black"/>
</g>
<defs>
<clipPath id="clip0_73_1145">
<rect width="152" height="124" fill="white"/>
</clipPath>
</defs>
</svg>
