<svg width="149" height="129" viewBox="0 0 149 129" fill="none" xmlns="http://www.w3.org/2000/svg">
<path d="M212.348 67.0469C205.442 84.6486 194.043 99.3943 180.21 111.694L180.017 111.874C161.523 128.271 138.697 140.452 116.592 149.244C97.3652 156.787 78.039 162.624 58.8091 166.695C42.5316 170.255 31.6825 171.488 31.2765 171.504C30.0694 171.547 28.8908 171.495 28.8908 171.495C28.0304 171.471 27.1554 171.392 26.313 171.289L26.2466 171.313L25.9956 171.272C19.4219 170.431 13.6488 167.494 9.26482 162.759C3.98193 156.992 1.0767 148.803 1.0035 139.472C0.785047 128.438 2.82262 116.811 6.96911 105.43C16.6807 79.3695 40.4728 49.0865 65.7487 37.8267C75.3728 33.5553 88.9729 29.8261 102.144 15.6314C105.168 12.379 106.166 11.246 108.975 8.18231C112.996 3.78507 133.626 -18.746 159.409 -25.0874C165.729 -26.6478 186.89 -30.8017 202.948 -17.4463C224.894 0.816255 222.85 40.1726 212.348 67.0469Z" fill="#EBF1FF"/>
</svg>
