<svg xmlns="http://www.w3.org/2000/svg" width="79" height="129" viewBox="0 0 79 129" fill="none">
<path d="M59.3612 169.015C53.1549 174.978 46.491 174.71 39.804 170.43L39.7084 170.377C30.7801 164.623 21.776 151.827 13.8084 137.312C6.9044 124.613 0.401331 110.616 -5.6348 95.4603C-10.7728 82.7124 -13.9122 73.411 -14.0221 73.0414C-14.3479 71.94 -14.6423 70.7977 -14.6423 70.7977C-14.8609 69.9742 -15.0694 69.0978 -15.2633 68.235L-15.2868 68.19L-15.342 67.9253C-16.8468 61.167 -17.6181 53.6775 -17.5772 46.2203C-17.5127 37.1912 -16.2216 28.6796 -13.9058 22.0165C-11.2018 14.0139 -7.7608 7.70772 -3.83117 3.55317C5.22386 -5.75755 19.0093 -4.84844 28.4218 10.8959C32.0018 16.9019 36.4835 27.0195 43.472 29.3387C45.0749 29.8762 45.6187 30.0112 47.1183 30.48C49.2678 31.1434 60.2884 34.5653 68.6026 54.2612C70.6421 59.085 77.2028 75.9922 78.0509 100.489C79.2072 133.974 68.8259 159.87 59.3612 169.015Z" fill="#D9E5FF" fill-opacity="0.26"/>
</svg>