<svg width="1175" height="174" viewBox="0 0 1175 174" fill="none" xmlns="http://www.w3.org/2000/svg">
<g filter="url(#filter0_dd_72_5049)">
<g clip-path="url(#clip0_72_5049)">
<rect x="2" y="1" width="1171" height="170" rx="4" fill="url(#paint0_linear_72_5049)"/>
<path d="M1245.34 99.8676C1234.12 123.618 1214.07 142.001 1189.13 156.169L1188.78 156.38C1155.44 175.254 1113.41 186.827 1072.39 193.662C1036.7 199.456 1000.64 202.74 964.569 203.481C934.049 204.274 913.585 203.145 912.815 203.059C910.528 202.796 908.285 202.403 908.285 202.403C906.649 202.136 904.979 201.785 903.369 201.408L903.245 201.426L902.764 201.298C890.193 198.303 878.916 192.473 870.083 184.402C859.432 174.588 853.035 161.889 851.89 148.292C850.287 132.178 852.903 115.81 859.55 100.368C875.18 65.0654 917.089 27.4142 963.863 17.8426C981.675 14.2212 1007.09 12.4602 1030.57 -4.64421C1035.96 -8.56148 1037.73 -9.94112 1042.74 -13.642C1049.9 -18.9564 1086.64 -46.1805 1134.91 -48.459C1146.74 -49.0261 1186.46 -49.3674 1218.39 -25.6071C1262.02 6.88011 1262.38 63.5945 1245.34 99.8676Z" fill="#EBF1FF"/>
<path d="M240.098 264.602C215.205 273.902 188.476 273.484 161.654 266.809L161.271 266.726C125.459 257.752 89.3437 237.794 57.3853 215.156C29.6934 195.352 3.60955 173.52 -20.6015 149.883C-41.2099 130.001 -53.8024 115.495 -54.2431 114.918C-55.5497 113.2 -56.7305 111.419 -56.7305 111.419C-57.6073 110.134 -58.4436 108.768 -59.2217 107.422L-59.3157 107.352L-59.537 106.939C-65.573 96.3983 -68.6666 84.7175 -68.5024 73.087C-68.2437 59.005 -63.0651 45.73 -53.7763 35.3379C-42.9308 22.8569 -29.1289 13.0216 -13.3671 6.54197C22.9528 -7.97933 78.2464 -6.56145 116 17.994C130.359 27.3611 148.335 43.1409 176.366 46.758C182.796 47.5963 184.977 47.8067 190.992 48.538C199.614 49.5726 243.817 54.9095 277.166 85.628C285.346 93.1513 311.661 119.52 315.063 157.726C319.701 209.95 278.061 250.339 240.098 264.602Z" fill="#EBF1FF" fill-opacity="0.5"/>
<path d="M1074.88 -8.39027C1074.71 -8.31426 1074.56 -8.22886 1074.4 -8.1345C1073.28 -9.53683 1071.95 -10.7624 1070.46 -11.7704C1070.55 -11.929 1070.62 -12.0923 1070.68 -12.2594C1070.9 -12.8242 1071 -13.4269 1070.98 -14.03C1070.95 -14.6331 1070.8 -15.2236 1070.54 -15.7649C1070.27 -16.3063 1069.9 -16.7868 1069.44 -17.1766C1068.98 -17.5664 1068.44 -17.8572 1067.86 -18.0308C1067.28 -18.2045 1066.67 -18.2573 1066.06 -18.186C1065.46 -18.1147 1064.87 -17.9209 1064.35 -17.6165C1063.82 -17.3121 1063.36 -16.9036 1063 -16.4166C1062.64 -15.9295 1062.38 -15.3742 1062.24 -14.7853C1060.44 -14.983 1058.62 -14.9113 1056.84 -14.5727C1056.79 -14.743 1056.73 -14.9098 1056.65 -15.0722C1056.17 -16.132 1055.28 -16.9539 1054.18 -17.3571C1053.08 -17.7604 1051.86 -17.7119 1050.79 -17.2223C1049.72 -16.7328 1048.89 -15.8423 1048.47 -14.7468C1048.06 -13.6512 1048.1 -12.4404 1048.58 -11.3806C1048.66 -11.2189 1048.74 -11.062 1048.84 -10.9109C1047.42 -9.78642 1046.18 -8.45757 1045.15 -6.96887C1044.62 -7.24213 1044.03 -7.40336 1043.43 -7.44265C1042.83 -7.48194 1042.22 -7.39846 1041.65 -7.19734C1041.08 -6.99622 1040.56 -6.6817 1040.11 -6.27312C1039.67 -5.86453 1039.31 -5.3705 1039.06 -4.82138C1038.82 -4.27225 1038.69 -3.67964 1038.68 -3.07994C1038.67 -2.48023 1038.79 -1.88611 1039.02 -1.33406C1039.25 -0.782009 1039.59 -0.283695 1040.03 0.130267C1040.46 0.544228 1040.97 0.865097 1041.54 1.07316C1041.71 1.13345 1041.88 1.18389 1042.06 1.22422C1041.84 3.01098 1041.9 4.81737 1042.23 6.58281C1042.06 6.63705 1041.89 6.7012 1041.73 6.77494C1040.66 7.26435 1039.82 8.1546 1039.41 9.24984C1038.99 10.3451 1039.03 11.5556 1039.52 12.6151C1040 13.6746 1040.89 14.4963 1041.99 14.8994C1043.09 15.3026 1044.31 15.2541 1045.38 14.7647C1045.54 14.6888 1045.7 14.6031 1045.85 14.5078C1046.98 15.9104 1048.3 17.1361 1049.8 18.1437C1049.5 18.6984 1049.34 19.3073 1049.3 19.93C1049.26 20.5527 1049.36 21.1751 1049.58 21.7559C1049.81 22.3366 1050.15 22.8625 1050.6 23.2987C1051.04 23.7349 1051.58 24.0714 1052.17 24.2859C1052.75 24.5004 1053.38 24.5881 1054.01 24.543C1054.63 24.498 1055.24 24.3213 1055.8 24.0246C1056.35 23.728 1056.84 23.3182 1057.22 22.8223C1057.61 22.3265 1057.88 21.756 1058.03 21.1486C1059.82 21.3465 1061.64 21.2748 1063.42 20.9359C1063.47 21.1064 1063.54 21.2734 1063.61 21.436C1064.09 22.4957 1064.98 23.3177 1066.08 23.7209C1067.18 24.1241 1068.4 24.0756 1069.47 23.5861C1070.54 23.0966 1071.38 22.2061 1071.79 21.1105C1072.2 20.015 1072.16 18.8041 1071.68 17.7443C1071.6 17.5825 1071.52 17.4255 1071.42 17.2742C1072.84 16.1496 1074.09 14.8207 1075.11 13.3321C1075.67 13.6201 1076.28 13.7868 1076.91 13.8211C1077.54 13.8553 1078.16 13.7563 1078.75 13.5308C1079.34 13.3052 1079.87 12.9582 1080.32 12.5128C1080.76 12.0674 1081.11 11.5338 1081.33 10.9476C1081.55 10.3614 1081.64 9.73588 1081.6 9.11277C1081.56 8.48967 1081.39 7.88321 1081.09 7.33373C1080.8 6.78425 1080.39 6.30435 1079.89 5.92594C1079.39 5.54753 1078.82 5.27928 1078.21 5.13905C1078.42 3.35229 1078.36 1.54591 1078.03 -0.219539C1078.21 -0.272832 1078.38 -0.336632 1078.54 -0.410579C1079.61 -0.899983 1080.44 -1.79023 1080.86 -2.88547C1081.27 -3.98071 1081.23 -5.19124 1080.75 -6.25075C1080.26 -7.31025 1079.37 -8.13194 1078.27 -8.53506C1077.17 -8.93818 1075.95 -8.88971 1074.88 -8.40031L1074.88 -8.39027ZM1063.53 10.6027C1062.05 11.2788 1060.4 11.5047 1058.79 11.2516C1057.19 10.9985 1055.7 10.2779 1054.51 9.18079C1053.33 8.08372 1052.5 6.65945 1052.13 5.08804C1051.76 3.51662 1051.87 1.86861 1052.45 0.352322C1053.02 -1.16397 1054.03 -2.48045 1055.35 -3.43071C1056.68 -4.38098 1058.25 -4.92237 1059.88 -4.98643C1061.5 -5.0505 1063.11 -4.63437 1064.49 -3.79064C1065.87 -2.94692 1066.96 -1.71349 1067.63 -0.246261C1068.08 0.728684 1068.33 1.78279 1068.36 2.8558C1068.4 3.92881 1068.22 4.9997 1067.84 6.00724C1067.46 7.01478 1066.88 7.93923 1066.14 8.72774C1065.4 9.51625 1064.51 10.1534 1063.53 10.6027Z" fill="white"/>
<path d="M1069.58 23.8238C1068.44 24.3415 1067.15 24.3923 1065.98 23.9651C1064.82 23.5379 1063.88 22.6675 1063.36 21.5449C1063.32 21.4495 1063.27 21.3497 1063.24 21.2372C1061.58 21.5315 1059.9 21.5986 1058.23 21.4368C1058.19 21.5499 1058.16 21.6548 1058.12 21.751C1057.91 22.3348 1057.58 22.8721 1057.16 23.3315C1056.74 23.7909 1056.23 24.1633 1055.67 24.427C1055.1 24.6907 1054.49 24.8405 1053.87 24.8676C1053.25 24.8947 1052.63 24.7987 1052.04 24.585C1051.46 24.3713 1050.93 24.0443 1050.48 23.6229C1050.02 23.2016 1049.66 22.6943 1049.41 22.1306C1049.15 21.567 1049.02 20.9582 1049 20.3396C1048.99 19.7211 1049.1 19.1052 1049.33 18.5277C1049.37 18.4283 1049.41 18.3263 1049.46 18.2223C1048.09 17.2696 1046.85 16.1331 1045.8 14.8449C1045.69 14.9044 1045.6 14.9533 1045.5 14.9974C1044.36 15.5164 1043.07 15.5678 1041.91 15.1403C1040.74 14.7129 1039.8 13.8415 1039.28 12.718C1038.77 11.5945 1038.73 10.3109 1039.17 9.14946C1039.61 7.98806 1040.49 7.04403 1041.62 6.52506C1041.72 6.48048 1041.82 6.43488 1041.93 6.3978C1041.65 4.75622 1041.6 3.08212 1041.77 1.42241C1041.66 1.3908 1041.55 1.35784 1041.46 1.31973C1040.31 0.8791 1039.38 0.00614388 1038.88 -1.11056C1038.38 -2.22726 1038.35 -3.49806 1038.78 -4.64841C1039.22 -5.79877 1040.09 -6.73634 1041.21 -7.25856C1042.33 -7.78079 1043.61 -7.84576 1044.77 -7.43943C1044.87 -7.40283 1044.97 -7.36075 1045.07 -7.3148C1046.04 -8.6825 1047.2 -9.91265 1048.5 -10.9707C1048.44 -11.0763 1048.39 -11.1708 1048.35 -11.2674C1047.84 -12.3912 1047.79 -13.6751 1048.23 -14.8368C1048.67 -15.9986 1049.56 -16.9428 1050.69 -17.4619C1051.82 -17.981 1053.12 -18.0324 1054.28 -17.6049C1055.45 -17.1773 1056.39 -16.3057 1056.91 -15.1819C1056.95 -15.0854 1057 -14.9856 1057.03 -14.8736C1058.69 -15.1679 1060.37 -15.235 1062.04 -15.0732C1062.08 -15.1863 1062.11 -15.2912 1062.15 -15.3873C1062.6 -16.5313 1063.49 -17.4562 1064.61 -17.962C1065.74 -18.4678 1067.02 -18.5141 1068.17 -18.0908C1069.33 -17.6675 1070.27 -16.8086 1070.78 -15.6996C1071.3 -14.5907 1071.36 -13.3207 1070.94 -12.1641C1070.9 -12.0642 1070.86 -11.9638 1070.81 -11.8587C1072.18 -10.906 1073.41 -9.76981 1074.47 -8.48191C1074.58 -8.54135 1074.67 -8.58873 1074.77 -8.63382C1075.9 -9.15279 1077.2 -9.20419 1078.36 -8.77672C1079.53 -8.34925 1080.47 -7.47791 1080.99 -6.35441C1081.5 -5.23091 1081.54 -3.94726 1081.1 -2.78585C1080.66 -1.62445 1079.78 -0.680426 1078.65 -0.161459C1078.55 -0.116871 1078.45 -0.0707659 1078.33 -0.0347815C1078.62 1.60689 1078.67 3.28122 1078.5 4.94119C1078.61 4.9728 1078.72 5.00576 1078.81 5.04388C1079.96 5.4845 1080.88 6.35747 1081.39 7.47417C1081.89 8.59087 1081.92 9.86166 1081.49 11.012C1081.05 12.1624 1080.18 13.0999 1079.06 13.6222C1077.94 14.1444 1076.66 14.2094 1075.5 13.803C1075.4 13.7664 1075.3 13.7244 1075.2 13.6784C1074.23 15.0468 1073.07 16.278 1071.77 17.3376C1071.83 17.4432 1071.88 17.5382 1071.92 17.6337C1072.43 18.7574 1072.47 20.04 1072.03 21.2003C1071.59 22.3607 1070.71 23.3041 1069.58 23.8238ZM1057.92 20.9076C1057.96 20.8871 1058.01 20.8793 1058.06 20.885C1059.83 21.0782 1061.62 21.0067 1063.37 20.6729C1063.43 20.6606 1063.5 20.6721 1063.55 20.7052C1063.61 20.7383 1063.65 20.7908 1063.67 20.8526C1063.72 21.0126 1063.78 21.1694 1063.85 21.322C1064.3 22.3178 1065.14 23.0901 1066.17 23.469C1067.21 23.8478 1068.35 23.8023 1069.36 23.3423C1070.36 22.8823 1071.15 22.0456 1071.53 21.0162C1071.92 19.9868 1071.89 18.8491 1071.43 17.8533C1071.36 17.7015 1071.28 17.5542 1071.19 17.4123C1071.16 17.3569 1071.14 17.2911 1071.16 17.2272C1071.17 17.1633 1071.2 17.1056 1071.25 17.0649C1072.65 15.9584 1073.88 14.6513 1074.89 13.1871C1074.92 13.1333 1074.98 13.0945 1075.04 13.0783C1075.1 13.062 1075.17 13.0693 1075.23 13.0987C1075.38 13.1767 1075.53 13.2454 1075.69 13.3043C1076.72 13.668 1077.86 13.6127 1078.85 13.1505C1079.85 12.6883 1080.62 11.8564 1081.01 10.8352C1081.39 9.81395 1081.36 8.68567 1080.91 7.69495C1080.47 6.70422 1079.64 5.93089 1078.62 5.54259C1078.47 5.48603 1078.3 5.4388 1078.14 5.40113C1078.08 5.38607 1078.02 5.34853 1077.98 5.29554C1077.95 5.24254 1077.93 5.17771 1077.94 5.11318C1078.15 3.35488 1078.09 1.57727 1077.76 -0.159913C1077.75 -0.223534 1077.76 -0.289188 1077.8 -0.344787C1077.83 -0.400386 1077.88 -0.442193 1077.95 -0.462506C1078.49 -0.634374 1078.99 -0.914571 1079.42 -1.28582C1079.85 -1.65706 1080.2 -2.11148 1080.45 -2.62107C1080.7 -3.13065 1080.84 -3.68459 1080.86 -4.24873C1080.89 -4.81288 1080.8 -5.37527 1080.6 -5.90123C1080.39 -6.42719 1080.08 -6.90557 1079.69 -7.30687C1079.29 -7.70817 1078.82 -8.02389 1078.29 -8.23456C1077.76 -8.44523 1077.2 -8.54638 1076.63 -8.53178C1076.06 -8.51718 1075.5 -8.38714 1074.99 -8.14967C1074.83 -8.07819 1074.68 -7.99755 1074.54 -7.90818C1074.48 -7.87381 1074.42 -7.86098 1074.35 -7.87214C1074.29 -7.88329 1074.23 -7.91765 1074.19 -7.96866C1073.09 -9.34912 1071.78 -10.5555 1070.31 -11.5474C1070.26 -11.5841 1070.22 -11.6389 1070.21 -11.7018C1070.19 -11.7647 1070.2 -11.8313 1070.23 -11.8891C1070.31 -12.0376 1070.38 -12.1912 1070.44 -12.3488C1070.83 -13.378 1070.79 -14.5156 1070.34 -15.5111C1069.88 -16.5066 1069.04 -17.2786 1068.01 -17.6572C1066.98 -18.0358 1065.83 -17.99 1064.83 -17.5299C1063.82 -17.0698 1063.04 -16.2331 1062.65 -15.2038C1062.59 -15.046 1062.54 -14.885 1062.5 -14.7216C1062.49 -14.6582 1062.45 -14.6024 1062.4 -14.5649C1062.34 -14.5274 1062.28 -14.5107 1062.21 -14.5181C1060.44 -14.7118 1058.65 -14.6404 1056.9 -14.3061C1056.84 -14.2939 1056.77 -14.3054 1056.72 -14.3384C1056.66 -14.3713 1056.62 -14.4235 1056.6 -14.4852C1056.43 -15.0458 1056.13 -15.5624 1055.74 -16.0006C1055.35 -16.4388 1054.87 -16.7884 1054.33 -17.0263C1053.79 -17.2642 1053.21 -17.3847 1052.62 -17.38C1052.03 -17.3753 1051.44 -17.2454 1050.9 -16.999C1050.36 -16.7525 1049.88 -16.3952 1049.49 -15.9508C1049.1 -15.5064 1048.81 -14.9851 1048.64 -14.4217C1048.47 -13.8583 1048.42 -13.2658 1048.49 -12.6835C1048.57 -12.1012 1048.77 -11.5426 1049.08 -11.0449C1049.11 -10.9899 1049.13 -10.9241 1049.11 -10.8602C1049.1 -10.7962 1049.07 -10.7385 1049.02 -10.698C1047.62 -9.59197 1046.39 -8.28478 1045.38 -6.82021C1045.35 -6.76621 1045.29 -6.72746 1045.23 -6.71136C1045.16 -6.69526 1045.1 -6.70294 1045.04 -6.73293C1044.89 -6.8102 1044.74 -6.87848 1044.58 -6.93743C1044.07 -7.1251 1043.52 -7.21057 1042.98 -7.18896C1042.43 -7.16734 1041.89 -7.03907 1041.4 -6.81145C1040.9 -6.58384 1040.45 -6.26134 1040.08 -5.86238C1039.7 -5.46342 1039.41 -4.9958 1039.22 -4.48623C1039.03 -3.97666 1038.94 -3.43511 1038.95 -2.89251C1038.97 -2.34991 1039.1 -1.81687 1039.32 -1.32385C1039.55 -0.83082 1039.87 -0.387454 1040.27 -0.0190612C1040.67 0.349332 1041.13 0.635539 1041.65 0.823215C1041.8 0.880494 1041.97 0.927905 1042.13 0.965172C1042.19 0.979759 1042.25 1.01718 1042.29 1.0703C1042.32 1.12342 1042.34 1.1885 1042.33 1.25313C1042.12 3.01148 1042.18 4.78889 1042.51 6.52622C1042.52 6.59001 1042.51 6.65624 1042.47 6.71225C1042.44 6.76827 1042.39 6.81015 1042.32 6.82991C1041.76 7.00618 1041.24 7.29988 1040.79 7.69144C1040.35 8.08299 1039.99 8.56341 1039.75 9.10067C1039.51 9.63794 1039.38 10.2197 1039.38 10.8072C1039.38 11.3948 1039.51 11.9745 1039.75 12.5079C1040 13.0413 1040.35 13.5161 1040.8 13.9005C1041.24 14.285 1041.76 14.5704 1042.33 14.7377C1042.89 14.9049 1043.49 14.9502 1044.08 14.8705C1044.66 14.7909 1045.23 14.588 1045.73 14.2756C1045.78 14.2418 1045.85 14.2291 1045.91 14.2401C1045.98 14.251 1046.04 14.2847 1046.08 14.335C1047.18 15.7153 1048.49 16.9215 1049.96 17.9133C1050.01 17.9496 1050.05 18.0045 1050.07 18.0675C1050.08 18.1305 1050.07 18.1973 1050.04 18.255C1049.96 18.4042 1049.89 18.5579 1049.83 18.7152C1049.45 19.7445 1049.48 20.882 1049.94 21.8776C1050.39 22.8731 1051.23 23.6451 1052.26 24.0237C1053.3 24.4023 1054.44 24.3565 1055.45 23.8964C1056.45 23.4363 1057.24 22.5995 1057.62 21.5703C1057.68 21.4124 1057.73 21.2514 1057.77 21.0881C1057.78 21.0494 1057.8 21.0133 1057.82 20.9822C1057.85 20.9512 1057.88 20.9261 1057.92 20.9087L1057.92 20.9076ZM1063.64 10.8433C1062.11 11.5427 1060.41 11.7771 1058.75 11.5168C1057.09 11.2565 1055.55 10.5133 1054.33 9.38101C1053.1 8.24876 1052.25 6.77837 1051.87 5.15577C1051.48 3.53317 1051.6 1.83123 1052.19 0.265153C1052.78 -1.30092 1053.83 -2.66079 1055.19 -3.6425C1056.56 -4.62422 1058.18 -5.18369 1059.86 -5.25016C1061.54 -5.31664 1063.2 -4.88714 1064.62 -4.01597C1066.05 -3.14481 1067.18 -1.8711 1067.87 -0.355913C1068.8 1.67656 1068.87 3.99736 1068.08 6.09718C1067.29 8.19699 1065.69 9.90428 1063.64 10.8444L1063.64 10.8433ZM1056.85 -3.99433C1055.42 -3.33816 1054.21 -2.27586 1053.38 -0.941742C1052.55 0.392379 1052.13 1.93841 1052.18 3.50086C1052.24 5.06331 1052.75 6.57203 1053.67 7.83623C1054.59 9.10044 1055.86 10.0634 1057.33 10.6033C1058.81 11.1432 1060.41 11.2358 1061.94 10.8694C1063.48 10.5031 1064.87 9.69419 1065.94 8.54504C1067.02 7.39588 1067.73 5.95808 1067.99 4.41342C1068.24 2.86876 1068.03 1.28661 1067.38 -0.132976C1066.51 -2.03498 1064.91 -3.50957 1062.94 -4.23326C1060.96 -4.95694 1058.77 -4.87062 1056.85 -3.99323L1056.85 -3.99433Z" fill="black"/>
<path d="M1020.81 9.04654C1020.35 9.19853 1019.93 9.44636 1019.57 9.77342C1019.21 10.1005 1018.93 10.4992 1018.74 10.9428C1018.55 11.3864 1018.45 11.8646 1018.47 12.3454C1018.48 12.8261 1018.59 13.2983 1018.8 13.7302C1017.62 14.4775 1016.56 15.3953 1015.66 16.4529C1015.54 16.377 1015.42 16.3086 1015.3 16.2482C1014.89 16.0328 1014.45 15.9004 1014 15.8589C1013.54 15.8174 1013.08 15.8677 1012.64 16.0068C1012.2 16.1459 1011.8 16.371 1011.45 16.6685C1011.1 16.9661 1010.81 17.3301 1010.61 17.7387C1010.4 18.1474 1010.28 18.5924 1010.25 19.0472C1010.22 19.502 1010.29 19.9572 1010.44 20.3857C1010.59 20.8143 1010.83 21.2073 1011.14 21.5414C1011.45 21.8756 1011.82 22.1439 1012.24 22.3304C1012.36 22.3909 1012.49 22.4432 1012.62 22.4871C1012.31 23.8383 1012.21 25.2264 1012.32 26.6047C1012.18 26.6314 1012.05 26.6668 1011.92 26.7107C1011.47 26.8595 1011.07 27.0965 1010.72 27.407C1010.37 27.7175 1010.09 28.0951 1009.89 28.5164C1009.7 28.9377 1009.59 29.3938 1009.58 29.8567C1009.56 30.3196 1009.65 30.7794 1009.82 31.208C1009.99 31.6365 1010.25 32.0246 1010.58 32.3484C1010.91 32.6722 1011.31 32.9249 1011.74 33.0908C1012.18 33.2568 1012.64 33.3325 1013.11 33.3133C1013.57 33.2942 1014.03 33.1805 1014.45 32.9794C1015.19 34.144 1016.11 35.1903 1017.17 36.0835C1017.09 36.1995 1017.02 36.32 1016.96 36.4442C1016.55 37.251 1016.48 38.1828 1016.77 39.0347C1017.05 39.8865 1017.67 40.5886 1018.48 40.9865C1019.29 41.3844 1020.22 41.4455 1021.08 41.1563C1021.94 40.8672 1022.65 40.2515 1023.06 39.4447C1023.12 39.3206 1023.17 39.1932 1023.22 39.063C1024.58 39.3586 1025.97 39.4497 1027.36 39.3331C1027.39 39.4684 1027.42 39.6019 1027.47 39.7327C1027.76 40.5691 1028.38 41.254 1029.18 41.6398C1029.98 42.0257 1030.91 42.0817 1031.76 41.7958C1032.61 41.51 1033.31 40.905 1033.72 40.1112C1034.13 39.3175 1034.21 38.3983 1033.94 37.5516C1033.9 37.4213 1033.85 37.2937 1033.79 37.1694C1034.97 36.4221 1036.02 35.5047 1036.93 34.4477C1037.05 34.5231 1037.17 34.5914 1037.29 34.6524C1037.71 34.859 1038.16 34.9783 1038.63 35.0028C1039.1 35.0273 1039.56 34.9565 1040 34.7948C1040.44 34.6331 1040.84 34.384 1041.18 34.0627C1041.52 33.7415 1041.79 33.3551 1041.97 32.9273C1042.16 32.4995 1042.25 32.0395 1042.25 31.5757C1042.25 31.1118 1042.15 30.6541 1041.96 30.2307C1041.77 29.8072 1041.5 29.4272 1041.16 29.114C1040.82 28.8009 1040.41 28.5612 1039.97 28.4099C1040.28 27.0585 1040.38 25.6707 1040.27 24.2923C1040.75 24.1914 1041.19 23.9926 1041.58 23.7091C1041.97 23.4255 1042.3 23.0636 1042.54 22.6471C1042.78 22.2306 1042.93 21.7689 1042.98 21.2924C1043.02 20.8159 1042.97 20.3353 1042.82 19.8822C1042.67 19.4292 1042.42 19.0139 1042.09 18.6636C1041.77 18.3134 1041.37 18.0361 1040.93 17.85C1040.49 17.664 1040.01 17.5733 1039.53 17.5839C1039.05 17.5946 1038.57 17.7064 1038.14 17.9119C1037.39 16.7466 1036.48 15.7002 1035.42 14.8079C1035.5 14.692 1035.57 14.5715 1035.63 14.4471C1036.02 13.6417 1036.08 12.7157 1035.8 11.8707C1035.51 11.0256 1034.9 10.3298 1034.09 9.93454C1033.29 9.53926 1032.36 9.47649 1031.5 9.75986C1030.65 10.0432 1029.94 10.6498 1029.53 11.4478C1029.47 11.5711 1029.41 11.698 1029.37 11.8278C1028.01 11.533 1026.61 11.442 1025.23 11.5577C1025.2 11.4231 1025.16 11.2902 1025.12 11.1598C1024.83 10.3101 1024.22 9.61036 1023.41 9.21419C1022.6 8.81802 1021.67 8.75773 1020.81 9.04654ZM1024.3 19.4834C1025.49 19.0822 1026.77 19.0398 1027.98 19.3617C1029.19 19.6836 1030.27 20.3553 1031.09 21.2918C1031.91 22.2283 1032.43 23.3875 1032.59 24.6229C1032.74 25.8583 1032.53 27.1144 1031.96 28.2321C1031.4 29.3499 1030.52 30.2793 1029.43 30.9027C1028.34 31.526 1027.09 31.8154 1025.84 31.7342C1024.59 31.653 1023.39 31.2048 1022.4 30.4464C1021.41 29.688 1020.67 28.6534 1020.28 27.4734C1020.02 26.6903 1019.91 25.8624 1019.97 25.037C1020.03 24.2116 1020.26 23.4049 1020.63 22.6629C1021 21.9209 1021.52 21.2582 1022.15 20.7127C1022.78 20.1671 1023.51 19.7494 1024.3 19.4834Z" fill="white"/>
<path d="M1032.23 41.9578C1032.11 42.0123 1031.99 42.0602 1031.86 42.1013C1030.94 42.412 1029.93 42.3456 1029.05 41.9168C1028.18 41.4879 1027.52 40.7316 1027.21 39.8138C1027.19 39.7493 1027.17 39.6827 1027.15 39.6124C1025.89 39.6979 1024.62 39.6154 1023.39 39.3674C1023.36 39.435 1023.33 39.499 1023.3 39.5593C1022.84 40.3966 1022.07 41.027 1021.16 41.3171C1020.25 41.6071 1019.26 41.5341 1018.41 41.1135C1017.56 40.6929 1016.9 39.9577 1016.59 39.0633C1016.27 38.1689 1016.32 37.1855 1016.72 36.321C1016.75 36.2608 1016.79 36.1991 1016.83 36.1354C1015.88 35.309 1015.05 34.3596 1014.36 33.3125C1014.29 33.3436 1014.22 33.3686 1014.16 33.3875C1013.23 33.6866 1012.23 33.6127 1011.37 33.1819C1010.5 32.7511 1009.85 31.998 1009.54 31.0862C1009.24 30.1743 1009.31 29.1771 1009.74 28.3109C1010.17 27.4448 1010.92 26.7795 1011.84 26.4593C1011.9 26.438 1011.97 26.4179 1012.04 26.3996C1011.97 25.1455 1012.06 23.8855 1012.32 22.6532C1012.25 22.6246 1012.19 22.5967 1012.12 22.5662C1011.69 22.3569 1011.3 22.0633 1010.98 21.7024C1010.66 21.3415 1010.41 20.9205 1010.25 20.4636C1010.1 20.0067 1010.04 19.5231 1010.07 19.0407C1010.1 18.5583 1010.23 18.0867 1010.45 17.6531C1010.67 17.2195 1010.97 16.8326 1011.34 16.5146C1011.71 16.1967 1012.14 15.9541 1012.6 15.8008C1013.06 15.6475 1013.55 15.5866 1014.04 15.6217C1014.52 15.6567 1014.99 15.7869 1015.43 16.0048C1015.49 16.0343 1015.55 16.0681 1015.61 16.1041C1016.45 15.1566 1017.41 14.3243 1018.47 13.6295C1018.44 13.5629 1018.42 13.4973 1018.4 13.4325C1018.24 12.976 1018.17 12.492 1018.2 12.0085C1018.23 11.525 1018.36 11.0517 1018.57 10.616C1018.79 10.1803 1019.09 9.79087 1019.46 9.47035C1019.83 9.14982 1020.25 8.90457 1020.72 8.74882C1021.18 8.59307 1021.67 8.52992 1022.15 8.56303C1022.64 8.59615 1023.11 8.72487 1023.55 8.94173C1023.98 9.15859 1024.37 9.45927 1024.68 9.82633C1025 10.1934 1025.24 10.6195 1025.38 11.08C1025.4 11.1444 1025.42 11.211 1025.44 11.2819C1026.71 11.1959 1027.97 11.2784 1029.21 11.5275C1029.24 11.4597 1029.27 11.3962 1029.3 11.3355C1029.74 10.4655 1030.5 9.80135 1031.43 9.48922C1032.36 9.17709 1033.37 9.24253 1034.24 9.67114C1035.11 10.1024 1035.77 10.8604 1036.08 11.779C1036.38 12.6976 1036.31 13.7018 1035.87 14.5716C1035.84 14.6318 1035.81 14.6935 1035.77 14.7572C1036.72 15.5835 1037.55 16.5327 1038.24 17.5796C1038.31 17.5492 1038.37 17.5275 1038.44 17.5051C1039.36 17.1932 1040.38 17.2592 1041.25 17.6884C1042.12 18.1177 1042.78 18.8751 1043.09 19.7941C1043.4 20.713 1043.32 21.7182 1042.89 22.5885C1042.45 23.4589 1041.68 24.123 1040.75 24.4349C1040.69 24.4567 1040.62 24.4768 1040.55 24.4962C1040.63 25.75 1040.53 27.0097 1040.27 28.2415C1040.34 28.2696 1040.41 28.2991 1040.47 28.3281C1041.34 28.7569 1042 29.5138 1042.31 30.4323C1042.62 31.3508 1042.54 32.3556 1042.11 33.2258C1041.67 34.096 1040.9 34.7601 1039.98 35.0722C1039.05 35.3843 1038.04 35.3187 1037.17 34.8899C1037.11 34.8605 1037.04 34.8278 1036.99 34.7881C1036.15 35.7354 1035.19 36.568 1034.13 37.2639C1034.16 37.3297 1034.18 37.3963 1034.2 37.4597C1034.49 38.3154 1034.44 39.2481 1034.08 40.0785C1033.71 40.9088 1033.05 41.5782 1032.23 41.9578ZM1023.11 38.8187C1023.16 38.7948 1023.22 38.7883 1023.28 38.8C1024.61 39.0896 1025.98 39.1784 1027.34 39.0634C1027.41 39.0582 1027.47 39.0768 1027.52 39.1158C1027.57 39.1547 1027.61 39.2113 1027.62 39.2749C1027.71 39.6927 1027.88 40.0884 1028.12 40.4375C1028.37 40.7866 1028.68 41.0817 1029.04 41.3047C1029.41 41.5276 1029.82 41.6737 1030.24 41.7339C1030.67 41.7941 1031.1 41.7672 1031.51 41.6547C1031.93 41.5423 1032.32 41.3467 1032.65 41.08C1032.99 40.8134 1033.27 40.4813 1033.47 40.1043C1033.68 39.7273 1033.8 39.3134 1033.84 38.888C1033.88 38.4627 1033.83 38.0349 1033.69 37.6311C1033.65 37.5115 1033.6 37.3946 1033.54 37.2811C1033.52 37.2224 1033.51 37.1557 1033.53 37.0932C1033.55 37.0307 1033.59 36.9767 1033.64 36.9413C1034.8 36.2091 1035.84 35.309 1036.73 34.2713C1036.77 34.2216 1036.83 34.189 1036.89 34.1796C1036.96 34.1702 1037.02 34.1848 1037.08 34.2205C1037.18 34.2903 1037.29 34.3538 1037.41 34.4107C1037.78 34.5989 1038.18 34.712 1038.6 34.7433C1039.01 34.7746 1039.43 34.7236 1039.83 34.5931C1040.22 34.4626 1040.59 34.2553 1040.91 33.9832C1041.22 33.7111 1041.48 33.3797 1041.67 33.0081C1041.86 32.6366 1041.97 32.2324 1042 31.819C1042.02 31.4057 1041.97 30.9913 1041.84 30.6001C1041.7 30.2089 1041.49 29.8486 1041.22 29.5402C1040.94 29.2318 1040.6 28.9814 1040.23 28.8036C1040.11 28.7476 1039.99 28.699 1039.87 28.6579C1039.81 28.6367 1039.76 28.5936 1039.73 28.5369C1039.7 28.4803 1039.69 28.4139 1039.7 28.3504C1040 27.0245 1040.1 25.6627 1040 24.3105C1039.99 24.2458 1040.01 24.1814 1040.05 24.1293C1040.09 24.0772 1040.14 24.0409 1040.21 24.0272C1040.33 24.0023 1040.46 23.9697 1040.58 23.9294C1040.99 23.7936 1041.37 23.576 1041.69 23.2902C1042.01 23.0043 1042.27 22.6563 1042.45 22.2677C1042.63 21.879 1042.73 21.4579 1042.75 21.0304C1042.76 20.603 1042.68 20.1783 1042.52 19.7825C1042.36 19.3868 1042.12 19.0285 1041.82 18.7297C1041.51 18.4309 1041.15 18.1981 1040.75 18.0455C1040.34 17.893 1039.92 17.824 1039.49 17.8429C1039.06 17.8617 1038.63 17.968 1038.25 18.1551C1038.19 18.1849 1038.12 18.1915 1038.06 18.1737C1037.99 18.1559 1037.94 18.115 1037.9 18.0592C1037.18 16.9168 1036.28 15.8906 1035.24 15.0146C1035.19 14.9729 1035.16 14.9144 1035.15 14.8501C1035.14 14.7859 1035.15 14.7204 1035.19 14.6659C1035.26 14.5606 1035.33 14.4508 1035.38 14.3372C1035.58 13.9681 1035.7 13.5646 1035.74 13.1503C1035.77 12.736 1035.73 12.3193 1035.6 11.9244C1035.47 11.5295 1035.26 11.1645 1034.99 10.8506C1034.72 10.5368 1034.39 10.2804 1034.01 10.0966C1033.64 9.91269 1033.23 9.80501 1032.82 9.77981C1032.4 9.75461 1031.98 9.8124 1031.58 9.94979C1031.19 10.0872 1030.82 10.3014 1030.51 10.58C1030.2 10.8586 1029.94 11.1958 1029.76 11.5721C1029.71 11.6859 1029.66 11.8034 1029.62 11.9239C1029.59 11.985 1029.55 12.0362 1029.49 12.0677C1029.43 12.0993 1029.37 12.1092 1029.3 12.0955C1027.97 11.8059 1026.6 11.7171 1025.24 11.8321C1025.18 11.8374 1025.11 11.819 1025.06 11.7803C1025.01 11.7415 1024.97 11.6851 1024.96 11.6217C1024.93 11.497 1024.9 11.3739 1024.86 11.2532C1024.75 10.8473 1024.55 10.4693 1024.28 10.1422C1024.02 9.81518 1023.69 9.54577 1023.31 9.35033C1022.93 9.15488 1022.52 9.03746 1022.1 9.00516C1021.67 8.97286 1021.25 9.02635 1020.84 9.1624C1020.44 9.29846 1020.07 9.51424 1019.75 9.7967C1019.43 10.0792 1019.17 10.4224 1018.99 10.8058C1018.81 11.1891 1018.71 11.6045 1018.69 12.0269C1018.68 12.4492 1018.75 12.8698 1018.9 13.2631C1018.94 13.3832 1018.99 13.5006 1019.04 13.6147C1019.07 13.673 1019.08 13.7399 1019.06 13.8028C1019.04 13.8656 1019 13.92 1018.95 13.9556C1017.79 14.6882 1016.75 15.5882 1015.87 16.6256C1015.82 16.6751 1015.76 16.7076 1015.7 16.7169C1015.64 16.7263 1015.57 16.7119 1015.52 16.6764C1015.41 16.6062 1015.3 16.5427 1015.19 16.4862C1014.44 16.1191 1013.58 16.0622 1012.78 16.3283C1011.99 16.5943 1011.34 17.1614 1010.96 17.9047C1010.59 18.6481 1010.52 19.5069 1010.78 20.2922C1011.05 21.0775 1011.61 21.7249 1012.36 22.0921C1012.47 22.148 1012.59 22.1964 1012.71 22.237C1012.77 22.2588 1012.82 22.302 1012.85 22.3587C1012.89 22.4154 1012.9 22.4817 1012.88 22.5451C1012.58 23.8714 1012.48 25.2335 1012.59 26.5861C1012.59 26.6506 1012.57 26.7148 1012.53 26.7668C1012.49 26.8187 1012.44 26.8547 1012.37 26.8683C1012.25 26.8932 1012.12 26.9258 1012 26.9661C1011.61 27.0981 1011.25 27.3054 1010.93 27.5762C1010.62 27.8469 1010.37 28.1757 1010.18 28.544C1009.81 29.2876 1009.74 30.1465 1010.01 30.9315C1010.27 31.7166 1010.83 32.3636 1011.58 32.7302C1012.33 33.0968 1013.19 33.153 1013.98 32.8863C1014.1 32.8453 1014.22 32.7964 1014.34 32.7399C1014.4 32.7129 1014.46 32.708 1014.52 32.726C1014.59 32.744 1014.64 32.7837 1014.67 32.8378C1015.4 33.9804 1016.3 35.0065 1017.34 35.8819C1017.39 35.924 1017.42 35.9826 1017.43 36.0469C1017.44 36.1112 1017.42 36.1767 1017.39 36.2311C1017.32 36.3368 1017.25 36.4466 1017.19 36.5598C1016.82 37.3034 1016.76 38.1621 1017.02 38.9472C1017.28 39.7323 1017.85 40.3794 1018.59 40.7462C1019.34 41.1129 1020.2 41.1693 1020.99 40.9029C1021.79 40.6364 1022.44 40.069 1022.82 39.3255C1022.87 39.211 1022.92 39.0935 1022.96 38.9737C1022.98 38.9395 1023 38.9081 1023.02 38.8814C1023.05 38.8547 1023.08 38.8334 1023.11 38.8187ZM1029.03 31.4071C1028.81 31.5045 1028.6 31.5904 1028.37 31.6645C1026.74 32.2109 1024.96 32.1042 1023.42 31.367C1021.87 30.6298 1020.68 29.3204 1020.1 27.7176C1019.52 26.1148 1019.6 24.3453 1020.31 22.786C1021.02 21.2266 1022.31 20.0006 1023.92 19.369C1025.52 18.7374 1027.3 18.7501 1028.88 19.4045C1030.46 20.0589 1031.72 21.3032 1032.39 22.8724C1033.05 24.4416 1033.07 26.2118 1032.45 27.8059C1031.82 29.4001 1030.59 30.6922 1029.03 31.4071ZM1023.78 19.971C1022.33 20.6301 1021.2 21.8212 1020.62 23.2907C1020.04 24.7603 1020.06 26.3921 1020.68 27.8389C1021.29 29.2857 1022.45 30.4331 1023.91 31.0368C1025.37 31.6404 1027.01 31.6528 1028.49 31.0711C1029.96 30.4894 1031.16 29.3597 1031.81 27.9224C1032.47 26.4852 1032.54 24.8539 1032 23.3761C1031.47 21.8982 1030.37 20.6904 1028.95 20.0098C1027.53 19.3292 1025.89 19.2296 1024.38 19.7322C1024.18 19.8012 1023.97 19.8809 1023.78 19.971Z" fill="black"/>
<path d="M998.301 151C996.08 151 994.638 149.206 995.079 146.991L1014.24 51.0097C1014.68 48.797 1016.84 47.0002 1019.06 47.0002H1153.7C1155.92 47.0002 1157.36 48.7936 1156.92 51.0097L1137.87 146.455C1137.37 148.961 1134.92 151 1132.4 151H998.301Z" fill="white"/>
<path d="M1132.5 151.117H998C996.883 151.117 995.911 150.687 995.264 149.905C994.6 149.101 994.359 148.03 994.591 146.889L1013.8 50.8372C1014.26 48.5453 1016.51 46.6804 1018.82 46.6804H1153.86C1154.98 46.6804 1155.95 47.1109 1156.6 47.8924C1157.26 48.6957 1157.5 49.7673 1157.27 50.9091L1138.17 146.421C1137.65 149.011 1135.11 151.117 1132.5 151.117ZM1018.82 47.0482C1016.68 47.0482 1014.59 48.7801 1014.16 50.9091L994.951 146.96C994.745 147.992 994.958 148.955 995.551 149.672C996.126 150.367 996.996 150.75 998 150.75H1132.5C1134.94 150.75 1137.32 148.776 1137.81 146.349L1156.91 50.8372C1157.12 49.8058 1156.9 48.8428 1156.31 48.1256C1155.73 47.4327 1154.86 47.0482 1153.86 47.0482H1018.82Z" fill="black"/>
<path d="M1125.87 163H960.999C954.946 163 951.014 158.523 952.216 153H1139C1137.8 158.523 1131.92 163 1125.87 163Z" fill="white"/>
<path d="M1126.31 163.508H961.223C958.275 163.508 955.716 162.442 954.018 160.506C952.274 158.518 951.644 155.862 952.241 153.028C952.25 152.988 952.272 152.953 952.306 152.927C952.339 152.902 952.381 152.888 952.424 152.888H1139.47C1139.49 152.888 1139.52 152.894 1139.55 152.905C1139.57 152.916 1139.59 152.932 1139.61 152.952C1139.63 152.972 1139.64 152.995 1139.65 153.02C1139.65 153.045 1139.66 153.071 1139.65 153.096C1138.43 158.838 1132.45 163.508 1126.31 163.508ZM952.581 153.236C952.052 155.913 952.666 158.411 954.306 160.286C955.932 162.139 958.388 163.16 961.223 163.16H1126.31C1132.21 163.16 1137.95 158.724 1139.24 153.236H952.581Z" fill="black"/>
<path d="M1034.99 66.1516H1027.92C1025.41 66.1516 1022.97 67.9479 1022.49 70.1433L1021.14 76.3217C1020.66 78.5163 1022.32 80.3125 1024.83 80.3125H1031.89C1034.4 80.3125 1036.84 78.5163 1037.33 76.3217L1038.67 70.1472C1039.16 67.9479 1037.5 66.1516 1034.99 66.1516Z" fill="#D9E5FF"/>
<path d="M1031.44 89.1636H1024.39C1021.88 89.1636 1019.43 90.9599 1018.95 93.1552L1017.6 99.3336C1017.12 101.529 1018.78 103.325 1021.29 103.325H1028.35C1030.86 103.325 1033.3 101.528 1033.78 99.3336L1035.14 93.1552C1035.61 90.9599 1033.95 89.1636 1031.44 89.1636Z" fill="#D9E5FF"/>
<path d="M1027.53 108.635H1019.76C1017 108.635 1014.31 110.431 1013.78 112.627L1012.3 118.803C1011.77 120.999 1013.59 122.796 1016.35 122.796H1024.12C1026.88 122.796 1029.57 120.999 1030.1 118.803L1031.59 112.623C1032.11 110.431 1030.29 108.635 1027.53 108.635Z" fill="#D9E5FF"/>
<path d="M1021.2 129.876H1014.85C1012.59 129.876 1010.39 131.672 1009.96 133.868L1008.74 140.046C1008.31 142.24 1009.8 144.037 1012.06 144.037H1018.41C1020.67 144.037 1022.87 142.24 1023.3 140.046L1024.52 133.867C1024.95 131.672 1023.46 129.876 1021.2 129.876Z" fill="#D9E5FF"/>
<path d="M1136.11 67.9216L1135.24 71.4619H1044.07L1044.94 67.9216H1136.11Z" fill="#D9E5FF"/>
<path d="M1106.02 75.0024L1105.19 80.3128H1044.07L1044.9 75.0024H1106.02Z" fill="#D9E5FF"/>
<path d="M1129.03 89.1636L1128.19 94.4739H1040.53L1041.37 89.1636H1129.03Z" fill="#D9E5FF"/>
<path d="M1104.25 96.2439L1103.38 101.554H1038.76L1039.63 96.2439H1104.25Z" fill="#D9E5FF"/>
<path d="M1125.49 110.405L1124.65 113.945H1036.99L1037.83 110.405H1125.49Z" fill="#D9E5FF"/>
<path d="M1081.24 117.485L1080.38 121.025H1035.22L1036.08 117.485H1081.24Z" fill="#D9E5FF"/>
<path d="M1121.95 129.876L1121.11 135.186H1033.45L1034.29 129.876H1121.95Z" fill="#D9E5FF"/>
<path d="M1095.4 135.186L1094.55 142.266H1031.68L1032.53 135.186H1095.4Z" fill="#D9E5FF"/>
<path d="M1116.46 62.6112H1052.91C1051.67 62.6112 1050.9 61.6887 1051.22 60.551L1052.04 57.591C1052.35 56.4548 1053.62 55.5308 1054.87 55.5308H1118.42C1119.66 55.5308 1120.43 56.4533 1120.11 57.591L1119.29 60.551C1118.98 61.6887 1117.71 62.6112 1116.46 62.6112Z" fill="#90AAFF"/>
<path d="M978.691 67.0239C978.691 67.0239 981.354 89.2178 972.565 89.4928C965.785 89.7035 958.587 85.0609 958.472 84.5437C958.357 84.0264 957.895 70.3133 957.895 70.3133L978.691 67.0239Z" fill="white"/>
<path d="M972.111 89.8014C965.4 89.8014 958.348 85.3832 958.174 84.6101C958.054 84.0792 957.635 71.733 957.588 70.3264C957.585 70.253 957.61 70.1813 957.657 70.1246C957.704 70.0679 957.771 70.0301 957.844 70.0185L978.643 66.725C978.684 66.7184 978.725 66.7199 978.765 66.7295C978.805 66.7392 978.842 66.7567 978.875 66.7811C978.94 66.8317 978.983 66.9053 978.994 66.9864C979.07 67.6267 980.817 82.7328 976.238 88.0007C975.243 89.146 974.011 89.7494 972.575 89.7932C972.422 89.7987 972.265 89.8014 972.111 89.8014ZM958.762 84.4486C959.301 85.1547 965.919 89.1994 972.122 89.1994C972.267 89.1994 972.412 89.1994 972.556 89.1994C973.814 89.1597 974.898 88.626 975.778 87.6149C979.833 82.949 978.651 69.5916 978.424 67.3763L958.204 70.5781C958.385 75.9186 958.673 83.7412 958.762 84.4486Z" fill="black"/>
<path d="M970.866 83.942L965.838 99.6269L949.113 95.9119L958.139 72.8711L970.866 83.942Z" fill="white"/>
<path d="M965.838 99.9276C965.815 99.9275 965.793 99.9248 965.771 99.9194L949.053 96.2045C949.011 96.195 948.971 96.1765 948.936 96.1503C948.901 96.1241 948.872 96.0907 948.852 96.0526C948.831 96.0144 948.819 95.9722 948.816 95.929C948.814 95.8858 948.821 95.8426 948.836 95.8022L957.863 72.7627C957.876 72.7246 957.897 72.6895 957.925 72.6597C957.952 72.6298 957.985 72.6056 958.022 72.5887C958.059 72.5718 958.099 72.5624 958.14 72.5612C958.181 72.5599 958.222 72.5668 958.26 72.5814C958.298 72.596 958.332 72.618 958.362 72.6462C958.391 72.6743 958.414 72.708 958.43 72.7452C958.446 72.7824 958.454 72.8224 958.454 72.8628C958.454 72.9032 958.445 72.9431 958.429 72.9803L949.531 95.6941L965.639 99.2722L970.577 83.8542C970.601 83.778 970.655 83.7145 970.727 83.6776C970.798 83.6408 970.882 83.6337 970.959 83.6578C971.036 83.682 971.1 83.7354 971.137 83.8063C971.174 83.8773 971.181 83.9599 971.157 84.0362L966.128 99.7169C966.108 99.7779 966.07 99.8312 966.017 99.8691C965.965 99.9069 965.902 99.9274 965.838 99.9276Z" fill="black"/>
<path d="M970.6 73.2882C970.6 73.2882 973.381 72.2237 972.096 76.9252L970.6 73.2882Z" fill="white"/>
<path d="M972.097 77.2264C972.07 77.2266 972.043 77.2234 972.016 77.2168C971.939 77.1957 971.873 77.145 971.833 77.0758C971.792 77.0066 971.782 76.9245 971.802 76.8474C972.402 74.6444 972.04 73.9151 971.772 73.6757C971.377 73.324 970.712 73.5662 970.705 73.5689C970.63 73.5978 970.546 73.5958 970.472 73.5635C970.399 73.5312 970.341 73.4711 970.312 73.3965C970.282 73.3219 970.284 73.239 970.317 73.1658C970.35 73.0927 970.41 73.0354 970.486 73.0065C970.527 72.9915 971.503 72.6262 972.178 73.2282C972.854 73.8303 972.912 75.0877 972.39 77.0034C972.372 77.0674 972.334 77.1239 972.281 77.1643C972.228 77.2046 972.163 77.2265 972.097 77.2264Z" fill="black"/>
<path d="M966.549 174.462L920.431 181.68C915.141 182.501 910.897 178.332 911.468 173.059C913.355 155.545 918.607 124.758 930.723 105.145C942.529 86.0437 979.71 91.5361 991.606 109.433C996.802 117.255 1004.97 128.978 1011.6 138.406C1017.13 146.278 1013.82 157.195 1004.84 160.767C1001.89 161.939 998.638 162.156 995.553 161.386C992.469 160.615 989.71 158.897 987.672 156.478L986.333 154.891L989.332 165.427L966.549 174.462Z" fill="#90AAFF"/>
<path d="M986.328 155.192C986.275 155.192 986.224 155.179 986.178 155.154C986.132 155.128 986.094 155.091 986.067 155.047L967.721 125.144C967.697 125.11 967.68 125.072 967.672 125.031C967.664 124.991 967.664 124.949 967.673 124.909C967.681 124.868 967.698 124.83 967.722 124.796C967.746 124.762 967.777 124.734 967.813 124.712C967.849 124.691 967.888 124.677 967.93 124.671C967.971 124.666 968.013 124.668 968.053 124.68C968.093 124.691 968.131 124.71 968.163 124.736C968.196 124.762 968.223 124.794 968.242 124.831L986.588 154.732C986.616 154.778 986.631 154.83 986.633 154.883C986.634 154.937 986.62 154.989 986.594 155.036C986.568 155.083 986.529 155.121 986.483 155.148C986.436 155.175 986.383 155.189 986.329 155.189L986.328 155.192Z" fill="black"/>
<path d="M919.992 181.302L924.076 192.189C933.141 216.393 961.864 226.902 984.645 214.346L1042.18 180.541C1045.98 178.31 1048.79 174.74 1050.05 170.546C1051.3 166.352 1050.91 161.843 1048.95 157.922C1046.99 154.002 1043.61 150.959 1039.48 149.403C1035.35 147.847 1030.78 147.894 1026.69 149.533L966.831 173.448L919.992 181.302Z" fill="white"/>
<path d="M963.963 219.969C955.215 219.966 946.678 217.313 939.497 212.366C932.317 207.419 926.836 200.415 923.791 192.293L919.707 181.406C919.693 181.369 919.687 181.329 919.688 181.29C919.69 181.25 919.699 181.211 919.716 181.175C919.732 181.139 919.756 181.107 919.785 181.08C919.815 181.053 919.849 181.032 919.887 181.019C919.924 181.005 919.964 180.999 920.004 181C920.044 181.002 920.083 181.011 920.119 181.027C920.156 181.044 920.188 181.067 920.215 181.096C920.243 181.125 920.264 181.159 920.278 181.197L924.362 192.087C926.479 197.741 929.807 202.874 934.115 207.135C938.424 211.396 943.612 214.685 949.324 216.774C955.036 218.864 961.136 219.705 967.207 219.241C973.279 218.778 979.177 217.019 984.497 214.086L1042.03 180.289C1045.76 178.097 1048.52 174.589 1049.75 170.468C1050.99 166.347 1050.6 161.917 1048.67 158.065C1046.75 154.213 1043.43 151.223 1039.37 149.694C1035.31 148.166 1030.82 148.211 1026.8 149.82L976.419 169.942C976.382 169.957 976.342 169.965 976.302 169.964C976.262 169.964 976.223 169.956 976.186 169.94C976.149 169.925 976.116 169.902 976.088 169.874C976.06 169.846 976.038 169.813 976.023 169.776C976.008 169.739 976 169.7 976.001 169.661C976.001 169.621 976.009 169.582 976.025 169.546C976.04 169.509 976.063 169.476 976.091 169.448C976.12 169.421 976.154 169.399 976.191 169.384L1026.57 149.259C1030.74 147.599 1035.38 147.557 1039.58 149.141C1043.77 150.725 1047.21 153.819 1049.2 157.804C1051.19 161.789 1051.59 166.371 1050.32 170.635C1049.05 174.899 1046.2 178.531 1042.34 180.804L984.8 214.605C978.429 218.121 971.256 219.968 963.963 219.969Z" fill="black"/>
<path d="M977.103 162.166C977.793 161.899 978.55 161.85 979.27 162.025C979.99 162.201 980.637 162.593 981.123 163.147C980.757 161.44 981.615 159.691 983.241 159.043C984.867 158.394 986.672 159.043 987.618 160.481C987.547 158.975 988.489 157.498 989.814 156.981C992.46 155.919 994.078 158.31 994.705 159.843C994.547 158.274 995.396 156.747 996.889 156.149C998.724 155.414 1000.84 156.351 1001.61 158.243L1003.13 161.954C1003.91 163.847 1003.05 165.977 1001.21 166.712C1000.53 166.975 999.789 167.027 999.079 166.861C998.37 166.695 997.728 166.319 997.239 165.783C997.692 167.538 996.835 169.373 995.159 170.045C993.551 170.691 991.729 170.045 990.782 168.607C990.853 170.112 990.02 171.532 988.587 172.108C987.021 172.735 985.256 172.143 984.289 170.78C984.402 172.315 983.562 173.79 982.099 174.378C980.264 175.113 978.15 174.176 977.375 172.284L975.185 166.929C974.41 165.032 975.275 162.901 977.103 162.166Z" fill="white"/>
<path d="M980.801 174.923C979.999 174.913 979.218 174.667 978.557 174.216C977.896 173.765 977.386 173.129 977.092 172.39L974.9 167.037C974.497 166.065 974.49 164.976 974.882 163.999C975.07 163.524 975.353 163.091 975.715 162.728C976.077 162.365 976.51 162.078 976.988 161.887C977.604 161.647 978.272 161.567 978.927 161.655C979.583 161.744 980.205 161.997 980.734 162.392C980.71 161.62 980.924 160.86 981.347 160.212C981.77 159.564 982.383 159.06 983.104 158.765C983.824 158.471 984.618 158.402 985.379 158.566C986.141 158.73 986.834 159.12 987.366 159.684C987.588 158.359 988.489 157.173 989.705 156.697C991.833 155.844 993.467 157.021 994.46 158.67C994.579 158.047 994.854 157.464 995.259 156.974C995.664 156.484 996.186 156.102 996.779 155.864C998.764 155.067 1001.06 156.081 1001.89 158.124L1003.41 161.835C1003.81 162.807 1003.82 163.896 1003.43 164.872C1003.22 165.408 1002.88 165.888 1002.46 166.276C1002.03 166.664 1001.51 166.949 1000.96 167.11C1000.4 167.271 999.813 167.303 999.241 167.205C998.669 167.106 998.127 166.879 997.658 166.54C997.727 168.17 996.795 169.708 995.271 170.318C994.554 170.597 993.769 170.658 993.016 170.495C992.262 170.331 991.575 169.95 991.041 169.4C990.944 170.096 990.652 170.751 990.2 171.292C989.748 171.833 989.153 172.238 988.481 172.463C987.809 172.687 987.087 172.722 986.396 172.563C985.706 172.404 985.073 172.057 984.571 171.562C984.491 172.239 984.23 172.882 983.816 173.426C983.401 173.969 982.847 174.393 982.211 174.653C981.763 174.832 981.284 174.923 980.801 174.923ZM978.389 162.219C977.987 162.219 977.589 162.295 977.216 162.445C976.814 162.606 976.45 162.847 976.145 163.153C975.841 163.459 975.603 163.823 975.446 164.224C975.113 165.056 975.12 165.984 975.464 166.811L977.654 172.165C978.364 173.9 980.305 174.765 981.981 174.095C982.624 173.826 983.164 173.361 983.524 172.768C983.883 172.175 984.042 171.484 983.979 170.796C983.974 170.73 983.991 170.664 984.028 170.609C984.064 170.554 984.118 170.512 984.181 170.49C984.243 170.468 984.312 170.467 984.375 170.487C984.439 170.507 984.494 170.547 984.532 170.601C985.442 171.885 987.06 172.38 988.467 171.823C989.095 171.56 989.625 171.109 989.985 170.535C990.344 169.96 990.515 169.289 990.473 168.615C990.472 168.55 990.492 168.487 990.53 168.435C990.567 168.382 990.621 168.343 990.683 168.324C990.745 168.304 990.811 168.304 990.873 168.324C990.935 168.345 990.988 168.384 991.026 168.437C991.909 169.781 993.593 170.337 995.032 169.76C996.536 169.158 997.352 167.478 996.932 165.852C996.918 165.788 996.925 165.721 996.952 165.661C996.98 165.601 997.027 165.552 997.085 165.521C997.144 165.489 997.211 165.478 997.277 165.489C997.343 165.499 997.403 165.531 997.449 165.578C998.406 166.601 999.834 166.936 1001.09 166.434C1001.49 166.272 1001.85 166.031 1002.16 165.725C1002.46 165.419 1002.7 165.055 1002.86 164.655C1003.19 163.822 1003.18 162.894 1002.84 162.066L1001.32 158.355C1000.61 156.62 998.668 155.755 996.992 156.427C995.647 156.966 994.846 158.328 994.995 159.817C995.001 159.888 994.98 159.959 994.937 160.017C994.895 160.075 994.832 160.116 994.762 160.132C994.692 160.149 994.617 160.14 994.553 160.107C994.489 160.074 994.438 160.02 994.411 159.953C994.04 159.046 992.615 156.173 989.916 157.255C988.706 157.728 987.844 159.108 987.91 160.464C987.911 160.528 987.891 160.591 987.853 160.644C987.816 160.696 987.762 160.735 987.7 160.755C987.638 160.775 987.572 160.775 987.51 160.754C987.448 160.734 987.395 160.694 987.357 160.642C986.476 159.297 984.79 158.741 983.351 159.318C981.889 159.904 981.075 161.489 981.416 163.084C981.43 163.149 981.422 163.217 981.394 163.277C981.365 163.337 981.317 163.385 981.257 163.416C981.197 163.446 981.129 163.455 981.063 163.443C980.997 163.431 980.937 163.398 980.893 163.348C980.579 162.997 980.194 162.715 979.763 162.521C979.331 162.326 978.864 162.223 978.39 162.219H978.389Z" fill="black"/>
<path d="M984.288 171.077C984.226 171.076 984.166 171.058 984.116 171.023C984.065 170.988 984.026 170.939 984.004 170.882L981.524 164.502C981.495 164.427 981.497 164.344 981.53 164.271C981.563 164.198 981.623 164.141 981.699 164.112C981.774 164.083 981.858 164.085 981.931 164.117C982.005 164.15 982.063 164.21 982.092 164.284L984.572 170.666C984.601 170.741 984.599 170.824 984.566 170.897C984.533 170.97 984.472 171.027 984.397 171.056C984.362 171.07 984.325 171.076 984.288 171.077Z" fill="black"/>
<path d="M990.786 168.931C990.725 168.93 990.667 168.911 990.618 168.876C990.568 168.842 990.531 168.794 990.509 168.738L988.022 162.356C987.993 162.282 987.995 162.199 988.028 162.126C988.061 162.053 988.122 161.996 988.197 161.967C988.272 161.938 988.356 161.941 988.43 161.973C988.503 162.005 988.561 162.066 988.59 162.14L991.077 168.522C991.092 168.559 991.098 168.598 991.098 168.638C991.097 168.677 991.088 168.716 991.072 168.752C991.055 168.788 991.032 168.821 991.003 168.848C990.974 168.875 990.94 168.896 990.903 168.911C990.866 168.925 990.826 168.932 990.786 168.931Z" fill="black"/>
<path d="M997.209 166.056C997.149 166.055 997.092 166.038 997.043 166.005C996.993 165.972 996.955 165.926 996.932 165.872L994.373 159.776C994.358 159.739 994.35 159.7 994.35 159.66C994.35 159.621 994.358 159.582 994.373 159.545C994.388 159.508 994.411 159.475 994.439 159.447C994.467 159.419 994.501 159.397 994.538 159.382C994.575 159.367 994.614 159.359 994.654 159.359C994.694 159.359 994.734 159.366 994.771 159.381C994.808 159.397 994.841 159.419 994.87 159.447C994.898 159.475 994.92 159.508 994.936 159.545L997.493 165.64C997.509 165.677 997.517 165.716 997.517 165.755C997.517 165.795 997.509 165.834 997.494 165.871C997.479 165.907 997.456 165.94 997.428 165.968C997.399 165.996 997.366 166.018 997.329 166.033C997.291 166.049 997.25 166.057 997.209 166.056Z" fill="black"/>
<path d="M975.714 56.4241C980.626 56.8031 985.683 65.8175 972.934 72.3661C972.934 72.3661 971.113 70.1837 968.908 72.2704C966.703 74.357 969.77 78.8191 969.77 78.8191C969.77 78.8191 938.786 119.575 951.947 128.543C959.442 133.652 925.487 136.492 916.361 120.429C906.65 103.349 913.574 89.6615 920.598 83.8544C933.753 72.9586 940.733 73.4553 950.432 62.3543C955.207 56.8907 967.039 49.1173 975.714 56.4241Z" fill="black"/>
<path d="M925.058 35.7869C923.007 35.4139 921.678 33.2378 922.097 30.9361C922.515 28.6344 924.524 27.0651 926.576 27.438C928.627 27.811 929.956 29.9871 929.537 32.2888C929.119 34.5905 927.109 36.1598 925.058 35.7869ZM926.371 28.5651C924.873 28.2928 923.408 29.4387 923.103 31.1173C922.797 32.7976 923.767 34.3845 925.263 34.6564C926.761 34.9287 928.226 33.7828 928.531 32.1042C928.837 30.4256 927.868 28.8373 926.371 28.5651Z" fill="black"/>
<path d="M919.555 50.9577C917.798 50.6382 916.621 48.9731 916.935 47.247C917.249 45.5209 918.934 44.3762 920.694 44.6961C922.451 45.0156 923.626 46.6803 923.312 48.4064C922.998 50.1325 921.313 51.2772 919.555 50.9577ZM920.48 45.8717C919.382 45.6722 918.33 46.387 918.134 47.465C917.938 48.5429 918.671 49.5825 919.769 49.7821C920.867 49.9816 921.919 49.2667 922.115 48.1888C922.311 47.1109 921.577 46.0712 920.48 45.8717Z" fill="black"/>
<path d="M947.605 17.9257C947.437 17.8951 947.28 17.8011 947.175 17.6529C946.965 17.3545 947.039 16.9459 947.341 16.7407L949.089 15.5544C949.391 15.3492 949.807 15.4249 950.018 15.7233C950.228 16.0218 950.154 16.4304 949.852 16.6355L948.104 17.8218C947.953 17.9234 947.773 17.9562 947.605 17.9257Z" fill="black"/>
<path d="M940.253 22.9166C940.085 22.8861 939.928 22.7921 939.823 22.6439C939.613 22.3454 939.687 21.9369 939.989 21.7317L941.737 20.5454C942.039 20.3402 942.455 20.4159 942.666 20.7143C942.876 21.0128 942.802 21.4213 942.5 21.6265L940.752 22.8128C940.598 22.9158 940.419 22.9469 940.253 22.9166Z" fill="black"/>
<path d="M947.974 24.3202C947.806 24.2897 947.649 24.1957 947.545 24.0475L946.327 22.3221C946.116 22.0236 946.19 21.6151 946.492 21.4099C946.795 21.2047 947.211 21.2803 947.422 21.5788L948.64 23.3042C948.85 23.6026 948.776 24.0112 948.474 24.2164C948.322 24.3197 948.142 24.3508 947.974 24.3202Z" fill="black"/>
<path d="M942.849 17.061C942.681 17.0304 942.524 16.9364 942.419 16.7882L941.201 15.0628C940.99 14.7643 941.065 14.3558 941.367 14.1506C941.669 13.9454 942.085 14.0211 942.296 14.3195L943.514 16.0449C943.725 16.3434 943.651 16.7519 943.348 16.9571C943.195 17.0584 943.015 17.0912 942.849 17.061Z" fill="black"/>
</g>
</g>
<defs>
<filter id="filter0_dd_72_5049" x="0.2" y="5.96046e-08" width="1174.6" height="173.6" filterUnits="userSpaceOnUse" color-interpolation-filters="sRGB">
<feFlood flood-opacity="0" result="BackgroundImageFix"/>
<feColorMatrix in="SourceAlpha" type="matrix" values="0 0 0 0 0 0 0 0 0 0 0 0 0 0 0 0 0 0 127 0" result="hardAlpha"/>
<feOffset dy="0.8"/>
<feGaussianBlur stdDeviation="0.9"/>
<feColorMatrix type="matrix" values="0 0 0 0 0 0 0 0 0 0 0 0 0 0 0 0 0 0 0.13 0"/>
<feBlend mode="normal" in2="BackgroundImageFix" result="effect1_dropShadow_72_5049"/>
<feColorMatrix in="SourceAlpha" type="matrix" values="0 0 0 0 0 0 0 0 0 0 0 0 0 0 0 0 0 0 127 0" result="hardAlpha"/>
<feOffset dy="0.15"/>
<feGaussianBlur stdDeviation="0.225"/>
<feColorMatrix type="matrix" values="0 0 0 0 0 0 0 0 0 0 0 0 0 0 0 0 0 0 0.11 0"/>
<feBlend mode="normal" in2="effect1_dropShadow_72_5049" result="effect2_dropShadow_72_5049"/>
<feBlend mode="normal" in="SourceGraphic" in2="effect2_dropShadow_72_5049" result="shape"/>
</filter>
<linearGradient id="paint0_linear_72_5049" x1="1173" y1="86" x2="1.99998" y2="85.9997" gradientUnits="userSpaceOnUse">
<stop stop-color="#D9E5FF"/>
<stop offset="1" stop-color="#EEDFFF"/>
</linearGradient>
<clipPath id="clip0_72_5049">
<rect x="2" y="1" width="1171" height="170" rx="4" fill="white"/>
</clipPath>
</defs>
</svg>
