<svg width="50" height="50" viewBox="0 0 50 50" fill="none" xmlns="http://www.w3.org/2000/svg">
<rect width="50" height="50" rx="4" fill="#D8E9FD"/>
<circle cx="25" cy="25" r="10" fill="#09347A"/>
<path d="M24.99 15C19.47 15 15 19.48 15 25C15 30.52 19.47 35 24.99 35C30.52 35 35 30.52 35 25C35 19.48 30.52 15 24.99 15ZM25 33C20.58 33 17 29.42 17 25C17 20.58 20.58 17 25 17C29.42 17 33 20.58 33 25C33 29.42 29.42 33 25 33Z" fill="#09347A"/>
<path d="M25.5 20H24V26L29.25 29.15L29.92 28L25.5 25.5V20Z" fill="#D8E9FD"/>
</svg>
