<svg width="41" height="41" viewBox="0 0 41 41" fill="none" xmlns="http://www.w3.org/2000/svg">
<circle cx="20.5" cy="20.5" r="20.5" fill="#A0C7FA"/>
<path d="M16.0811 27.5342V25.6182C16.9014 26.2686 17.8271 26.5938 18.8584 26.5938C19.6963 26.5938 20.3643 26.4033 20.8623 26.0225C21.3662 25.6416 21.6182 25.126 21.6182 24.4756C21.6182 23.0459 20.5254 22.3311 18.3398 22.3311H17.3643V20.6963H18.2959C20.2354 20.6963 21.2051 20.0225 21.2051 18.6748C21.2051 17.4326 20.4492 16.8115 18.9375 16.8115C18.0938 16.8115 17.2998 17.1133 16.5557 17.7168V15.9062C17.4111 15.4258 18.4219 15.1855 19.5879 15.1855C20.707 15.1855 21.6035 15.4668 22.2773 16.0293C22.9512 16.5918 23.2881 17.3125 23.2881 18.1914C23.2881 19.8496 22.4443 20.916 20.7568 21.3906V21.4258C21.665 21.5137 22.3828 21.833 22.9102 22.3838C23.4375 22.9287 23.7012 23.6113 23.7012 24.4316C23.7012 25.5625 23.2764 26.4766 22.4268 27.1738C21.5771 27.8652 20.458 28.2109 19.0693 28.2109C17.8213 28.2109 16.8252 27.9854 16.0811 27.5342Z" fill="white"/>
</svg>
