<svg width="41" height="41" viewBox="0 0 41 41" fill="none" xmlns="http://www.w3.org/2000/svg">
<circle cx="20.5" cy="20.5" r="20.5" fill="#FAE6A0"/>
<path d="M16.3623 27.71V25.75C17.1885 26.3066 18.0264 26.585 18.876 26.585C19.7314 26.585 20.4199 26.3682 20.9414 25.9346C21.4629 25.4951 21.7236 24.9121 21.7236 24.1855C21.7236 23.4707 21.457 22.9141 20.9238 22.5156C20.3965 22.1172 19.6377 21.918 18.6475 21.918C18.3076 21.918 17.6191 21.9531 16.582 22.0234L17.0303 15.3965H23.2354V17.1367H18.7266L18.5156 20.292C18.9199 20.2686 19.2861 20.2568 19.6143 20.2568C20.9502 20.2568 21.9814 20.5996 22.708 21.2852C23.4404 21.9707 23.8066 22.9082 23.8066 24.0977C23.8066 25.3457 23.3877 26.3477 22.5498 27.1035C21.7178 27.8535 20.5723 28.2285 19.1133 28.2285C17.8828 28.2285 16.9658 28.0557 16.3623 27.71Z" fill="white"/>
</svg>
