<svg width="41" height="41" viewBox="0 0 41 41" fill="none" xmlns="http://www.w3.org/2000/svg">
<circle cx="20.5" cy="20.5" r="20.5" fill="#FFC6A1"/>
<path d="M23.7715 28H15.8613V27.0244C15.8613 26.626 15.917 26.2539 16.0283 25.9082C16.1396 25.5566 16.2891 25.2285 16.4766 24.9238C16.6641 24.6133 16.8838 24.3232 17.1357 24.0537C17.3877 23.7783 17.6572 23.5146 17.9443 23.2627C18.2314 23.0049 18.5244 22.7588 18.8232 22.5244C19.1221 22.2842 19.415 22.0439 19.7021 21.8037C19.9717 21.5752 20.2178 21.3525 20.4404 21.1357C20.6631 20.9131 20.8535 20.6846 21.0117 20.4502C21.1699 20.2158 21.293 19.9697 21.3809 19.7119C21.4688 19.4482 21.5127 19.1641 21.5127 18.8594C21.5127 18.5254 21.46 18.2354 21.3545 17.9893C21.2549 17.7373 21.1113 17.5293 20.9238 17.3652C20.7422 17.1953 20.5254 17.0693 20.2734 16.9873C20.0215 16.8994 19.7461 16.8555 19.4473 16.8555C18.9316 16.8555 18.4072 16.9756 17.874 17.2158C17.3408 17.4561 16.8281 17.8164 16.3359 18.2969V16.3369C16.5938 16.1436 16.8545 15.9766 17.1182 15.8359C17.3818 15.6895 17.6543 15.5693 17.9355 15.4756C18.2168 15.376 18.5127 15.3027 18.8232 15.2559C19.1338 15.209 19.4648 15.1855 19.8164 15.1855C20.3848 15.1855 20.9004 15.2617 21.3633 15.4141C21.8262 15.5605 22.2217 15.7803 22.5498 16.0732C22.8779 16.3604 23.1299 16.7207 23.3057 17.1543C23.4873 17.5879 23.5781 18.0859 23.5781 18.6484C23.5781 19.1582 23.5137 19.6182 23.3848 20.0283C23.2617 20.4326 23.083 20.8105 22.8486 21.1621C22.6201 21.5137 22.3418 21.8477 22.0137 22.1641C21.6855 22.4805 21.3193 22.8057 20.915 23.1396C20.5752 23.415 20.2354 23.6846 19.8955 23.9482C19.5615 24.2061 19.2598 24.4609 18.9902 24.7129C18.7207 24.959 18.501 25.208 18.3311 25.46C18.167 25.7061 18.085 25.9551 18.085 26.207V26.251H23.7715V28Z" fill="white"/>
</svg>
