<svg width="23" height="23" viewBox="0 0 23 23" fill="none" xmlns="http://www.w3.org/2000/svg">
<path d="M21.3201 1.1463C19.7915 -0.382102 17.3136 -0.382097 15.7853 1.1463L8.45055 8.48096C8.35582 8.57569 8.28445 8.69116 8.24209 8.81825L6.08483 15.29C5.98147 15.6001 6.06217 15.942 6.29329 16.173C6.52441 16.4041 6.86626 16.4849 7.17633 16.3815L13.6481 14.2243C13.7752 14.1819 13.8907 14.1105 13.9854 14.0158L21.3201 6.68114C22.8485 5.15273 22.8485 2.6747 21.3201 1.1463Z" fill="#494CA8"/>
<path d="M18.961 11.4805C18.9762 11.6888 18.9838 11.8992 18.9838 12.1113C18.9838 16.877 15.1204 20.7404 10.3548 20.7404C5.58915 20.7404 1.7258 16.877 1.7258 12.1113C1.7258 7.34568 5.58915 3.48233 10.3548 3.48233C10.5669 3.48233 10.7773 3.49 10.9856 3.50503L12.5096 1.98104C11.8145 1.83392 11.0937 1.75653 10.3548 1.75653C4.636 1.75653 0 6.39254 0 12.1113C0 17.8301 4.636 22.4662 10.3548 22.4662C16.0736 22.4662 20.7096 17.8301 20.7096 12.1113C20.7096 11.3724 20.6323 10.6516 20.4851 9.95647L18.961 11.4805Z" fill="#494CA8"/>
</svg>
