<svg width="18" height="18" viewBox="0 0 18 18" fill="none" xmlns="http://www.w3.org/2000/svg">
<path d="M2.02435 10.7977L7.31405 10.7975C6.99974 11.178 6.79696 11.654 6.75578 12.1754L6.74801 12.373V16.4237C6.74801 17.0223 6.96045 17.5713 7.31405 17.9993L7.19809 18C4.11867 18 1.8476 17.0349 0.459412 15.0866C0.160593 14.6672 0 14.1651 0 13.6502V12.822C0 11.704 0.906331 10.7977 2.02435 10.7977ZM11.4738 8.54735H14.1743C14.7569 8.54735 15.2361 8.99012 15.2937 9.55751L15.2995 9.67255L15.2991 10.7974L16.4247 10.7978C17.2947 10.7978 18 11.503 18 12.373V16.4237C18 17.2937 17.2947 17.999 16.4247 17.999H9.22345C8.35344 17.999 7.64817 17.2937 7.64817 16.4237V12.373C7.64817 11.503 8.35344 10.7978 9.22345 10.7978L10.3482 10.7974L10.3486 9.67255C10.3486 9.08996 10.7914 8.61078 11.3588 8.55316L11.4738 8.54735ZM13.9493 9.89759H11.6989L11.6985 10.7974H13.9489L13.9493 9.89759ZM7.19809 0C9.68381 0 11.6989 2.01508 11.6989 4.5008C11.6989 6.98652 9.68381 9.00159 7.19809 9.00159C4.71237 9.00159 2.69729 6.98652 2.69729 4.5008C2.69729 2.01508 4.71237 0 7.19809 0Z" fill="#494CA8"/>
</svg>
