<svg width="304" height="133" viewBox="0 0 304 133" fill="none" xmlns="http://www.w3.org/2000/svg">
<g filter="url(#filter0_dd_801_4292)">
<g clip-path="url(#clip0_801_4292)">
<rect x="2" y="1" width="300" height="129" rx="4" fill="url(#paint0_linear_801_4292)"/>
<path d="M365.348 68.0469C358.442 85.6486 347.043 100.394 333.21 112.694L333.017 112.874C314.523 129.271 291.697 141.452 269.592 150.244C250.365 157.787 231.039 163.624 211.809 167.695C195.532 171.255 184.683 172.488 184.276 172.504C183.069 172.547 181.891 172.495 181.891 172.495C181.03 172.471 180.155 172.392 179.313 172.289L179.247 172.313L178.996 172.272C172.422 171.431 166.649 168.494 162.265 163.759C156.982 157.992 154.077 149.803 154.003 140.472C153.785 129.438 155.823 117.811 159.969 106.43C169.681 80.3695 193.473 50.0865 218.749 38.8267C228.373 34.5553 241.973 30.8261 255.144 16.6314C258.168 13.379 259.166 12.246 261.975 9.18231C265.996 4.78507 286.626 -17.746 312.409 -24.0874C318.729 -25.6478 339.89 -29.8017 355.948 -16.4463C377.894 1.81626 375.85 41.1726 365.348 68.0469Z" fill="#EBF1FF"/>
<path d="M61.3612 170.015C55.1549 175.978 48.491 175.71 41.804 171.431L41.7084 171.377C32.7802 165.623 23.776 152.827 15.8084 138.312C8.90441 125.613 2.40134 111.616 -3.6348 96.4603C-8.77276 83.7124 -11.9122 74.411 -12.0221 74.0414C-12.3479 72.94 -12.6423 71.7977 -12.6423 71.7977C-12.8609 70.9742 -13.0694 70.0978 -13.2633 69.235L-13.2868 69.19L-13.342 68.9253C-14.8468 62.167 -15.6181 54.6775 -15.5772 47.2203C-15.5127 38.1912 -14.2216 29.6796 -11.9058 23.0165C-9.20181 15.0139 -5.7608 8.70772 -1.83117 4.55317C7.22386 -4.75755 21.0093 -3.84844 30.4218 11.8959C34.0018 17.9019 38.4835 28.0195 45.472 30.3388C47.0749 30.8762 47.6187 31.0112 49.1183 31.4801C51.2678 32.1434 62.2884 35.5653 70.6026 55.2612C72.6421 60.085 79.2028 76.9923 80.0509 101.489C81.2072 134.974 70.8259 160.87 61.3612 170.015Z" fill="#D9E5FF" fill-opacity="0.26"/>
<path d="M251.473 27.1366C251.402 27.1698 251.332 27.2071 251.265 27.2484C250.775 26.6352 250.194 26.0993 249.543 25.6586C249.579 25.5892 249.612 25.5178 249.64 25.4448C249.736 25.1978 249.779 24.9343 249.768 24.6706C249.757 24.4069 249.692 24.1487 249.576 23.912C249.46 23.6753 249.296 23.4652 249.094 23.2948C248.893 23.1243 248.658 22.9972 248.404 22.9213C248.15 22.8453 247.883 22.8222 247.619 22.8534C247.354 22.8846 247.099 22.9693 246.869 23.1024C246.638 23.2355 246.438 23.4141 246.279 23.6271C246.12 23.84 246.007 24.0828 245.947 24.3403C245.161 24.2539 244.366 24.2853 243.588 24.4333C243.565 24.3589 243.538 24.2859 243.505 24.2149C243.293 23.7515 242.904 23.3921 242.424 23.2158C241.943 23.0395 241.41 23.0607 240.942 23.2748C240.474 23.4888 240.109 23.8782 239.928 24.3572C239.748 24.8362 239.765 25.3657 239.977 25.8291C240.01 25.8998 240.047 25.9683 240.088 26.0344C239.468 26.5261 238.924 27.1071 238.476 27.7581C238.242 27.6386 237.985 27.5681 237.722 27.5509C237.459 27.5337 237.195 27.5702 236.945 27.6582C236.696 27.7461 236.467 27.8836 236.273 28.0623C236.078 28.2409 235.922 28.4569 235.814 28.697C235.706 28.9371 235.649 29.1963 235.645 29.4585C235.642 29.7207 235.692 29.9805 235.794 30.2219C235.895 30.4632 236.045 30.6811 236.235 30.8621C236.424 31.0431 236.649 31.1834 236.896 31.2744C236.97 31.3008 237.045 31.3228 237.122 31.3405C237.029 32.1217 237.055 32.9116 237.198 33.6835C237.123 33.7072 237.05 33.7353 236.978 33.7675C236.51 33.9815 236.146 34.3707 235.965 34.8496C235.784 35.3285 235.801 35.8578 236.013 36.3211C236.225 36.7844 236.614 37.1436 237.095 37.3199C237.575 37.4962 238.108 37.475 238.576 37.261C238.647 37.2278 238.717 37.1903 238.783 37.1487C239.274 37.762 239.854 38.2979 240.506 38.7385C240.379 38.981 240.305 39.2472 240.289 39.5195C240.273 39.7918 240.315 40.0639 240.413 40.3179C240.511 40.5718 240.663 40.8017 240.857 40.9925C241.052 41.1832 241.286 41.3303 241.543 41.4241C241.8 41.5179 242.074 41.5562 242.348 41.5365C242.622 41.5168 242.888 41.4396 243.131 41.3099C243.373 41.1802 243.585 41.001 243.753 40.7842C243.921 40.5674 244.041 40.3179 244.105 40.0523C244.891 40.1389 245.686 40.1075 246.464 39.9593C246.487 40.0339 246.514 40.1069 246.546 40.178C246.758 40.6414 247.147 41.0008 247.628 41.1771C248.109 41.3534 248.642 41.3322 249.11 41.1181C249.578 40.9041 249.942 40.5147 250.123 40.0357C250.304 39.5567 250.287 39.0272 250.075 38.5638C250.042 38.4931 250.005 38.4244 249.964 38.3583C250.584 37.8665 251.128 37.2855 251.576 36.6346C251.819 36.7605 252.087 36.8334 252.361 36.8484C252.636 36.8634 252.91 36.8201 253.167 36.7215C253.425 36.6228 253.658 36.4711 253.852 36.2763C254.046 36.0816 254.197 35.8483 254.294 35.592C254.391 35.3356 254.432 35.0622 254.414 34.7897C254.396 34.5173 254.32 34.2521 254.191 34.0118C254.062 33.7716 253.883 33.5617 253.666 33.3963C253.448 33.2308 253.198 33.1135 252.93 33.0522C253.023 32.2709 252.997 31.4811 252.854 30.7092C252.929 30.6859 253.003 30.658 253.075 30.6256C253.542 30.4117 253.907 30.0224 254.088 29.5435C254.269 29.0646 254.251 28.5353 254.039 28.0721C253.827 27.6088 253.438 27.2495 252.958 27.0732C252.477 26.897 251.944 26.9182 251.476 27.1322L251.473 27.1366ZM246.511 35.4412C245.863 35.7368 245.143 35.8356 244.441 35.7249C243.74 35.6142 243.088 35.2991 242.57 34.8194C242.051 34.3398 241.688 33.717 241.527 33.0299C241.366 32.3428 241.414 31.6222 241.665 30.9592C241.916 30.2962 242.359 29.7206 242.937 29.3051C243.515 28.8896 244.203 28.6529 244.914 28.6249C245.625 28.5969 246.327 28.7788 246.93 29.1477C247.534 29.5166 248.013 30.056 248.306 30.6975C248.501 31.1238 248.609 31.5847 248.625 32.0539C248.64 32.523 248.562 32.9913 248.395 33.4318C248.229 33.8724 247.976 34.2766 247.653 34.6214C247.33 34.9661 246.942 35.2447 246.511 35.4412Z" fill="white"/>
<path d="M249.156 41.2226C248.659 41.449 248.095 41.4712 247.585 41.2844C247.075 41.0976 246.663 40.717 246.437 40.2262C246.418 40.1844 246.398 40.1408 246.383 40.0916C245.66 40.2203 244.923 40.2496 244.193 40.1789C244.178 40.2283 244.163 40.2742 244.146 40.3162C244.054 40.5715 243.912 40.8064 243.728 41.0073C243.544 41.2082 243.322 41.371 243.075 41.4863C242.828 41.6017 242.56 41.6671 242.288 41.679C242.016 41.6909 241.745 41.6488 241.49 41.5554C241.235 41.462 241.002 41.319 240.804 41.1348C240.606 40.9505 240.447 40.7287 240.336 40.4823C240.226 40.2358 240.166 39.9696 240.16 39.6992C240.154 39.4287 240.202 39.1594 240.302 38.9069C240.318 38.8634 240.337 38.8188 240.358 38.7734C239.759 38.3568 239.22 37.8599 238.758 37.2966C238.712 37.3226 238.67 37.344 238.628 37.3633C238.132 37.5902 237.567 37.6127 237.057 37.4258C236.547 37.2389 236.135 36.8579 235.91 36.3666C235.685 35.8754 235.667 35.3141 235.859 34.8063C236.051 34.2985 236.437 33.8857 236.933 33.6588C236.976 33.6393 237.019 33.6193 237.069 33.6031C236.945 32.8853 236.921 32.1534 236.998 31.4277C236.948 31.4138 236.902 31.3994 236.86 31.3828C236.358 31.1901 235.954 30.8084 235.735 30.3201C235.516 29.8318 235.5 29.2762 235.69 28.7732C235.88 28.2702 236.261 27.8603 236.751 27.6319C237.241 27.4036 237.8 27.3752 238.307 27.5528C238.351 27.5688 238.396 27.5872 238.442 27.6073C238.866 27.0093 239.37 26.4714 239.941 26.0088C239.915 25.9626 239.894 25.9213 239.874 25.8791C239.65 25.3877 239.631 24.8263 239.823 24.3183C240.015 23.8104 240.401 23.3975 240.898 23.1705C241.394 22.9436 241.959 22.9211 242.469 23.108C242.978 23.295 243.391 23.6761 243.616 24.1675C243.635 24.2097 243.655 24.2533 243.671 24.3023C244.395 24.1736 245.131 24.1442 245.861 24.215C245.876 24.1655 245.891 24.1197 245.908 24.0776C246.106 23.5774 246.493 23.1731 246.986 22.9519C247.479 22.7307 248.038 22.7105 248.543 22.8956C249.048 23.0807 249.457 23.4562 249.684 23.9411C249.91 24.426 249.935 24.9813 249.752 25.487C249.735 25.5307 249.717 25.5746 249.696 25.6205C250.295 26.0371 250.833 26.5339 251.295 27.097C251.342 27.071 251.383 27.0503 251.426 27.0306C251.922 26.8037 252.487 26.7812 252.997 26.9681C253.507 27.155 253.919 27.536 254.144 28.0273C254.369 28.5185 254.387 29.0798 254.195 29.5876C254.003 30.0954 253.617 30.5082 253.121 30.7351C253.078 30.7546 253.034 30.7748 252.985 30.7905C253.109 31.5083 253.133 32.2404 253.056 32.9662C253.106 32.98 253.152 32.9945 253.194 33.0111C253.696 33.2038 254.1 33.5855 254.319 34.0738C254.538 34.562 254.554 35.1177 254.364 35.6207C254.174 36.1237 253.793 36.5336 253.303 36.762C252.813 36.9903 252.254 37.0187 251.747 36.841C251.703 36.825 251.658 36.8066 251.612 36.7865C251.188 37.3849 250.684 37.9232 250.114 38.3865C250.14 38.4327 250.161 38.4742 250.18 38.516C250.403 39.0073 250.421 39.5681 250.229 40.0755C250.037 40.5828 249.651 40.9954 249.156 41.2226ZM244.057 39.9475C244.076 39.9385 244.098 39.9351 244.119 39.9376C244.892 40.0221 245.675 39.9908 246.44 39.8449C246.469 39.8395 246.498 39.8445 246.522 39.859C246.546 39.8735 246.565 39.8964 246.573 39.9234C246.595 39.9934 246.62 40.0619 246.65 40.1287C246.85 40.5641 247.215 40.9018 247.667 41.0674C248.119 41.2331 248.62 41.2132 249.059 41.0121C249.499 40.8109 249.841 40.4451 250.011 39.995C250.182 39.5449 250.165 39.0474 249.966 38.612C249.935 38.5456 249.9 38.4812 249.861 38.4192C249.847 38.395 249.841 38.3662 249.846 38.3383C249.852 38.3103 249.867 38.2851 249.889 38.2673C250.5 37.7835 251.035 37.212 251.477 36.5717C251.493 36.5482 251.517 36.5313 251.545 36.5241C251.573 36.517 251.602 36.5202 251.627 36.5331C251.693 36.5672 251.76 36.5972 251.829 36.623C252.279 36.782 252.776 36.7578 253.211 36.5557C253.646 36.3536 253.984 35.9899 254.153 35.5434C254.322 35.0968 254.307 34.6035 254.112 34.1703C253.917 33.7371 253.558 33.399 253.112 33.2292C253.042 33.2045 252.971 33.1838 252.899 33.1673C252.872 33.1607 252.847 33.1443 252.831 33.1212C252.815 33.098 252.808 33.0696 252.811 33.0414C252.902 32.2726 252.877 31.4954 252.735 30.7358C252.73 30.708 252.736 30.6793 252.751 30.6549C252.765 30.6306 252.788 30.6124 252.815 30.6035C253.052 30.5283 253.272 30.4058 253.46 30.2435C253.649 30.0812 253.802 29.8825 253.91 29.6596C254.019 29.4368 254.081 29.1946 254.091 28.948C254.102 28.7013 254.062 28.4554 253.974 28.2254C253.885 27.9954 253.75 27.7863 253.577 27.6108C253.403 27.4353 253.195 27.2973 252.965 27.2052C252.736 27.1131 252.489 27.0688 252.241 27.0752C251.992 27.0816 251.747 27.1385 251.521 27.2423C251.454 27.2735 251.389 27.3088 251.326 27.3479C251.302 27.3629 251.273 27.3685 251.244 27.3636C251.216 27.3588 251.191 27.3437 251.173 27.3214C250.691 26.7178 250.12 26.1903 249.478 25.7566C249.455 25.7406 249.438 25.7166 249.431 25.6891C249.424 25.6616 249.428 25.6325 249.441 25.6072C249.476 25.5423 249.507 25.4752 249.533 25.4062C249.703 24.9562 249.686 24.4588 249.487 24.0235C249.288 23.5882 248.922 23.2507 248.471 23.0852C248.019 22.9196 247.518 22.9396 247.079 23.1408C246.639 23.342 246.297 23.7078 246.127 24.1579C246.101 24.2269 246.08 24.2973 246.063 24.3687C246.056 24.3964 246.04 24.4208 246.016 24.4372C245.993 24.4537 245.964 24.4609 245.936 24.4577C245.162 24.373 244.38 24.4043 243.614 24.5504C243.586 24.5557 243.557 24.5507 243.533 24.5363C243.508 24.5219 243.49 24.4991 243.481 24.4721C243.405 24.227 243.278 24.0011 243.107 23.8095C242.936 23.6179 242.726 23.465 242.49 23.361C242.254 23.257 241.999 23.2043 241.74 23.2063C241.481 23.2084 241.226 23.2652 240.99 23.373C240.755 23.4807 240.545 23.637 240.374 23.8313C240.203 24.0256 240.076 24.2535 240 24.4998C239.925 24.7462 239.903 25.0053 239.936 25.2599C239.97 25.5145 240.057 25.7587 240.193 25.9764C240.208 26.0004 240.213 26.0292 240.208 26.0571C240.203 26.0851 240.188 26.1103 240.166 26.128C239.554 26.6116 239.019 27.1832 238.578 27.8236C238.562 27.8472 238.537 27.8641 238.509 27.8712C238.482 27.8782 238.452 27.8749 238.427 27.8617C238.362 27.828 238.295 27.7981 238.226 27.7723C238.002 27.6903 237.764 27.6529 237.525 27.6624C237.286 27.6718 237.051 27.7279 236.834 27.8274C236.616 27.9269 236.42 28.068 236.257 28.2424C236.093 28.4168 235.966 28.6213 235.881 28.8441C235.797 29.0669 235.758 29.3037 235.766 29.541C235.773 29.7782 235.828 30.0113 235.927 30.2269C236.025 30.4424 236.166 30.6363 236.34 30.7974C236.514 30.9584 236.719 31.0836 236.943 31.1657C237.012 31.1907 237.083 31.2114 237.155 31.2277C237.182 31.2341 237.207 31.2505 237.223 31.2737C237.24 31.2969 237.247 31.3254 237.243 31.3536C237.152 32.1225 237.178 32.8996 237.319 33.6593C237.324 33.6872 237.319 33.7161 237.304 33.7406C237.289 33.7651 237.266 33.7834 237.239 33.7921C236.992 33.8691 236.764 33.9976 236.569 34.1688C236.375 34.34 236.22 34.55 236.114 34.7849C236.007 35.0199 235.952 35.2742 235.953 35.5311C235.953 35.788 236.008 36.0415 236.115 36.2748C236.221 36.508 236.377 36.7156 236.571 36.8837C236.766 37.0518 236.994 37.1766 237.241 37.2497C237.489 37.3228 237.749 37.3426 238.005 37.3078C238.262 37.273 238.508 37.1843 238.728 37.0477C238.753 37.0329 238.781 37.0274 238.81 37.0321C238.838 37.0369 238.863 37.0517 238.881 37.0736C239.364 37.6772 239.936 38.2046 240.577 38.6383C240.601 38.6541 240.618 38.6781 240.625 38.7057C240.632 38.7332 240.628 38.7624 240.615 38.7876C240.58 38.8529 240.55 38.9201 240.523 38.9889C240.353 39.4389 240.37 39.9363 240.569 40.3716C240.768 40.8069 241.134 41.1444 241.586 41.31C242.037 41.4755 242.538 41.4555 242.978 41.2543C243.417 41.0531 243.76 40.6873 243.929 40.2372C243.955 40.1682 243.976 40.0978 243.994 40.0264C243.998 40.0095 244.005 39.9937 244.016 39.9801C244.028 39.9666 244.041 39.9556 244.057 39.948L244.057 39.9475ZM246.559 35.5469C245.89 35.8527 245.146 35.9552 244.422 35.8414C243.697 35.7276 243.025 35.4026 242.489 34.9075C241.953 34.4125 241.578 33.7695 241.411 33.06C241.245 32.3506 241.294 31.6064 241.553 30.9216C241.812 30.2369 242.269 29.6423 242.866 29.213C243.463 28.7838 244.173 28.5392 244.907 28.5101C245.641 28.481 246.366 28.6688 246.989 29.0497C247.613 29.4306 248.107 29.9876 248.41 30.6501C248.816 31.5388 248.848 32.5535 248.501 33.4717C248.154 34.3898 247.456 35.1363 246.559 35.5474L246.559 35.5469ZM243.591 29.0592C242.965 29.3461 242.436 29.8106 242.073 30.3939C241.71 30.9773 241.528 31.6533 241.551 32.3364C241.573 33.0196 241.799 33.6793 242.2 34.2321C242.601 34.7848 243.159 35.2059 243.803 35.442C244.447 35.678 245.148 35.7185 245.818 35.5583C246.488 35.3981 247.097 35.0445 247.568 34.542C248.038 34.0395 248.349 33.4109 248.461 32.7355C248.573 32.0601 248.481 31.3683 248.197 30.7476C247.815 29.9159 247.116 29.2712 246.253 28.9547C245.389 28.6383 244.432 28.676 243.592 29.0597L243.591 29.0592Z" fill="black"/>
<path d="M227.833 34.7611C227.632 34.8276 227.447 34.936 227.29 35.079C227.134 35.222 227.01 35.3963 226.927 35.5903C226.844 35.7842 226.803 35.9933 226.808 36.2035C226.813 36.4138 226.862 36.6202 226.954 36.809C226.439 37.1358 225.976 37.5371 225.58 37.9996C225.53 37.9664 225.477 37.9365 225.422 37.9101C225.246 37.8158 225.053 37.7579 224.853 37.7398C224.654 37.7217 224.453 37.7437 224.261 37.8045C224.07 37.8653 223.893 37.9637 223.74 38.0938C223.587 38.2239 223.462 38.3831 223.372 38.5618C223.283 38.7405 223.23 38.935 223.217 39.1339C223.204 39.3327 223.232 39.5318 223.299 39.7192C223.365 39.9065 223.469 40.0784 223.604 40.2245C223.74 40.3706 223.903 40.4879 224.085 40.5695C224.139 40.5959 224.195 40.6188 224.253 40.638C224.118 41.2288 224.073 41.8357 224.12 42.4384C224.061 42.4501 224.002 42.4656 223.944 42.4847C223.751 42.5498 223.573 42.6534 223.42 42.7892C223.268 42.925 223.146 43.0901 223.06 43.2743C222.974 43.4585 222.927 43.6579 222.921 43.8603C222.916 44.0627 222.952 44.2638 223.028 44.4512C223.103 44.6385 223.217 44.8082 223.362 44.9498C223.506 45.0914 223.679 45.2019 223.868 45.2744C224.058 45.347 224.261 45.3801 224.464 45.3717C224.668 45.3633 224.868 45.3137 225.052 45.2257C225.377 45.7349 225.778 46.1924 226.24 46.583C226.206 46.6337 226.176 46.6864 226.149 46.7407C225.971 47.0935 225.941 47.5009 226.066 47.8734C226.19 48.2458 226.459 48.5528 226.813 48.7268C227.166 48.9008 227.576 48.9275 227.952 48.801C228.328 48.6746 228.639 48.4054 228.816 48.0526C228.843 47.9984 228.867 47.9427 228.887 47.8857C229.481 48.015 230.091 48.0548 230.698 48.0039C230.709 48.063 230.724 48.1214 230.743 48.1786C230.873 48.5443 231.142 48.8437 231.493 49.0125C231.845 49.1812 232.249 49.2057 232.621 49.0807C232.992 48.9557 233.3 48.6912 233.479 48.3441C233.657 47.997 233.692 47.5951 233.576 47.2249C233.556 47.1679 233.534 47.1121 233.508 47.0577C234.022 46.731 234.486 46.3299 234.882 45.8677C234.933 45.9007 234.985 45.9306 235.04 45.9572C235.222 46.0476 235.421 46.0997 235.625 46.1104C235.829 46.1211 236.033 46.0902 236.224 46.0195C236.416 45.9488 236.592 45.8398 236.74 45.6994C236.888 45.5589 237.006 45.39 237.087 45.2029C237.167 45.0159 237.208 44.8147 237.207 44.6119C237.206 44.4091 237.163 44.209 237.081 44.0238C236.999 43.8387 236.88 43.6725 236.73 43.5356C236.581 43.3987 236.404 43.2939 236.212 43.2277C236.346 42.6368 236.39 42.03 236.344 41.4273C236.55 41.3832 236.745 41.2963 236.915 41.1723C237.086 41.0483 237.229 40.8901 237.334 40.7079C237.439 40.5258 237.504 40.3239 237.525 40.1156C237.546 39.9072 237.523 39.6971 237.457 39.499C237.39 39.3009 237.282 39.1193 237.14 38.9662C236.997 38.813 236.824 38.6918 236.63 38.6104C236.437 38.5291 236.228 38.4894 236.018 38.4941C235.807 38.4987 235.599 38.5476 235.409 38.6375C235.084 38.128 234.683 37.6704 234.221 37.2803C234.254 37.2296 234.285 37.1769 234.312 37.1225C234.485 36.7703 234.512 36.3655 234.386 35.996C234.261 35.6265 233.993 35.3222 233.642 35.1494C233.29 34.9766 232.883 34.9491 232.509 35.073C232.135 35.1969 231.825 35.4622 231.645 35.8111C231.618 35.865 231.594 35.9205 231.574 35.9772C230.981 35.8483 230.37 35.8085 229.763 35.8591C229.752 35.8003 229.737 35.7422 229.718 35.6851C229.593 35.3136 229.324 35.0077 228.97 34.8344C228.617 34.6612 228.208 34.6349 227.833 34.7611ZM229.359 39.3246C229.879 39.1492 230.439 39.1307 230.968 39.2714C231.496 39.4122 231.97 39.7058 232.329 40.1153C232.687 40.5248 232.915 41.0317 232.983 41.5719C233.051 42.112 232.956 42.6612 232.71 43.15C232.464 43.6387 232.078 44.0451 231.601 44.3177C231.124 44.5902 230.578 44.7168 230.031 44.6812C229.484 44.6457 228.961 44.4498 228.529 44.1182C228.096 43.7865 227.773 43.3342 227.601 42.8182C227.486 42.4758 227.441 42.1138 227.467 41.7529C227.493 41.392 227.591 41.0393 227.754 40.7148C227.917 40.3904 228.143 40.1007 228.418 39.8621C228.694 39.6236 229.013 39.4409 229.359 39.3246Z" fill="white"/>
<path d="M232.824 49.1517C232.772 49.1755 232.719 49.1964 232.665 49.2144C232.26 49.3502 231.818 49.3212 231.437 49.1337C231.056 48.9462 230.766 48.6155 230.631 48.2142C230.622 48.186 230.613 48.1569 230.605 48.1261C230.053 48.1635 229.5 48.1274 228.958 48.019C228.946 48.0485 228.933 48.0765 228.919 48.1029C228.72 48.469 228.385 48.7447 227.986 48.8715C227.587 48.9983 227.156 48.9664 226.782 48.7825C226.409 48.5986 226.124 48.2771 225.986 47.886C225.849 47.4949 225.87 47.0649 226.046 46.687C226.059 46.6606 226.073 46.6337 226.09 46.6058C225.676 46.2445 225.313 45.8294 225.01 45.3715C224.98 45.3851 224.951 45.396 224.923 45.4043C224.519 45.5351 224.081 45.5028 223.703 45.3144C223.326 45.126 223.039 44.7968 222.906 44.398C222.773 43.9993 222.803 43.5633 222.991 43.1846C223.179 42.8059 223.51 42.5149 223.91 42.375C223.938 42.3657 223.968 42.3569 223.999 42.3489C223.965 41.8005 224.006 41.2496 224.119 40.7108C224.089 40.6983 224.061 40.6861 224.035 40.6727C223.844 40.5812 223.673 40.4528 223.533 40.295C223.392 40.1372 223.285 39.9531 223.217 39.7534C223.149 39.5536 223.122 39.3421 223.137 39.1312C223.152 38.9203 223.208 38.7141 223.304 38.5245C223.399 38.3349 223.531 38.1657 223.692 38.0267C223.854 37.8877 224.041 37.7816 224.243 37.7146C224.445 37.6475 224.659 37.6209 224.871 37.6362C225.083 37.6516 225.289 37.7085 225.478 37.8038C225.505 37.8166 225.532 37.8314 225.56 37.8472C225.926 37.4329 226.346 37.069 226.809 36.7651C226.796 36.7361 226.785 36.7073 226.777 36.679C226.707 36.4794 226.678 36.2678 226.692 36.0564C226.705 35.845 226.761 35.638 226.855 35.4475C226.949 35.257 227.081 35.0867 227.241 34.9466C227.402 34.8064 227.589 34.6992 227.791 34.6311C227.994 34.563 228.207 34.5354 228.42 34.5499C228.632 34.5644 228.839 34.6206 229.029 34.7155C229.219 34.8103 229.388 34.9417 229.525 35.1022C229.663 35.2627 229.767 35.4491 229.832 35.6504C229.841 35.6786 229.85 35.7077 229.858 35.7387C230.41 35.7011 230.964 35.7372 231.505 35.8461C231.518 35.8164 231.53 35.7887 231.544 35.7621C231.735 35.3817 232.07 35.0913 232.475 34.9548C232.881 34.8184 233.322 34.847 233.704 35.0344C234.085 35.223 234.374 35.5544 234.507 35.956C234.641 36.3577 234.609 36.7968 234.417 37.1771C234.404 37.2034 234.389 37.2304 234.373 37.2583C234.787 37.6196 235.15 38.0346 235.453 38.4923C235.482 38.479 235.512 38.4695 235.54 38.4598C235.945 38.3234 236.387 38.3522 236.769 38.5399C237.15 38.7276 237.44 39.0588 237.574 39.4606C237.709 39.8624 237.676 40.3019 237.485 40.6825C237.293 41.063 236.958 41.3534 236.552 41.4898C236.524 41.4993 236.494 41.5081 236.463 41.5166C236.497 42.0648 236.457 42.6156 236.343 43.1542C236.373 43.1665 236.401 43.1794 236.428 43.1921C236.809 43.3796 237.099 43.7105 237.233 44.1121C237.368 44.5138 237.336 44.9531 237.144 45.3336C236.953 45.7141 236.618 46.0045 236.212 46.1409C235.807 46.2774 235.365 46.2487 234.984 46.0612C234.957 46.0484 234.93 46.034 234.905 46.0167C234.538 46.4309 234.118 46.795 233.655 47.0992C233.669 47.128 233.678 47.1571 233.688 47.1848C233.812 47.559 233.793 47.9668 233.634 48.3299C233.474 48.693 233.186 48.9856 232.824 49.1517ZM228.837 47.7791C228.86 47.7686 228.886 47.7658 228.911 47.7709C229.493 47.8975 230.092 47.9364 230.688 47.8861C230.716 47.8838 230.745 47.8919 230.767 47.909C230.79 47.926 230.806 47.9507 230.811 47.9785C230.848 48.1612 230.922 48.3342 231.029 48.4869C231.136 48.6395 231.273 48.7686 231.433 48.8661C231.592 48.9635 231.77 49.0274 231.956 49.0538C232.141 49.0801 232.331 49.0683 232.512 49.0191C232.694 48.9699 232.864 48.8844 233.011 48.7678C233.158 48.6512 233.281 48.5061 233.37 48.3412C233.459 48.1764 233.513 47.9954 233.529 47.8094C233.546 47.6234 233.523 47.4364 233.464 47.2598C233.446 47.2075 233.425 47.1564 233.401 47.1068C233.389 47.0811 233.386 47.0519 233.394 47.0246C233.402 46.9973 233.42 46.9737 233.444 46.9582C233.949 46.638 234.403 46.2445 234.791 45.7907C234.81 45.769 234.836 45.7547 234.864 45.7506C234.893 45.7465 234.921 45.7529 234.945 45.7685C234.992 45.799 235.04 45.8268 235.089 45.8517C235.251 45.934 235.428 45.9834 235.609 45.9971C235.791 46.0108 235.974 45.9885 236.147 45.9314C236.321 45.8744 236.481 45.7837 236.619 45.6648C236.758 45.5458 236.871 45.4009 236.953 45.2384C237.035 45.076 237.083 44.8992 237.096 44.7185C237.108 44.5377 237.085 44.3566 237.026 44.1855C236.967 44.0145 236.875 43.8569 236.754 43.7221C236.634 43.5872 236.487 43.4777 236.323 43.4C236.273 43.3755 236.22 43.3543 236.167 43.3363C236.14 43.327 236.118 43.3082 236.104 43.2834C236.09 43.2586 236.086 43.2296 236.092 43.2018C236.224 42.6221 236.267 42.0267 236.221 41.4354C236.219 41.4071 236.227 41.379 236.244 41.3562C236.261 41.3334 236.286 41.3175 236.314 41.3115C236.369 41.3007 236.423 41.2864 236.476 41.2688C236.655 41.2094 236.82 41.1142 236.961 40.9893C237.102 40.8643 237.215 40.7121 237.295 40.5422C237.375 40.3722 237.418 40.1881 237.424 40.0012C237.429 39.8143 237.396 39.6286 237.326 39.4556C237.256 39.2825 237.151 39.1258 237.017 38.9952C236.884 38.8646 236.724 38.7628 236.549 38.6961C236.374 38.6294 236.186 38.5992 235.998 38.6075C235.81 38.6157 235.626 38.6622 235.456 38.744C235.43 38.757 235.401 38.7599 235.373 38.7521C235.345 38.7443 235.322 38.7265 235.307 38.702C234.988 38.2025 234.595 37.7538 234.142 37.3708C234.12 37.3526 234.106 37.327 234.102 37.2989C234.098 37.2708 234.105 37.2421 234.12 37.2183C234.152 37.1723 234.18 37.1243 234.205 37.0746C234.29 36.9132 234.343 36.7368 234.359 36.5557C234.375 36.3745 234.354 36.1923 234.298 36.0196C234.242 35.847 234.152 35.6874 234.034 35.5501C233.915 35.4129 233.769 35.3008 233.606 35.2204C233.442 35.14 233.264 35.0929 233.082 35.0819C232.899 35.0709 232.716 35.0962 232.543 35.1562C232.37 35.2163 232.211 35.31 232.074 35.4318C231.937 35.5536 231.826 35.7011 231.747 35.8656C231.722 35.9153 231.701 35.9667 231.683 36.0194C231.673 36.0461 231.654 36.0685 231.629 36.0823C231.604 36.0961 231.574 36.1004 231.546 36.0944C230.964 35.9678 230.365 35.929 229.77 35.9793C229.741 35.9816 229.713 35.9735 229.69 35.9566C229.668 35.9397 229.652 35.915 229.646 35.8873C229.636 35.8327 229.621 35.7789 229.604 35.7261C229.554 35.5486 229.468 35.3834 229.351 35.2404C229.234 35.0974 229.09 34.9796 228.925 34.8941C228.761 34.8087 228.581 34.7573 228.396 34.7432C228.21 34.7291 228.024 34.7525 227.847 34.8119C227.671 34.8714 227.508 34.9658 227.369 35.0893C227.23 35.2128 227.117 35.3629 227.038 35.5305C226.958 35.6981 226.913 35.8797 226.907 36.0644C226.9 36.2491 226.93 36.433 226.997 36.605C227.015 36.6575 227.036 36.7088 227.06 36.7587C227.073 36.7842 227.076 36.8135 227.068 36.8409C227.06 36.8684 227.043 36.8922 227.019 36.9078C226.514 37.2281 226.059 37.6216 225.671 38.0752C225.652 38.0969 225.626 38.111 225.598 38.1151C225.57 38.1192 225.541 38.1129 225.517 38.0974C225.471 38.0667 225.423 38.039 225.373 38.0143C225.047 37.8537 224.669 37.8289 224.323 37.9452C223.977 38.0615 223.69 38.3095 223.526 38.6345C223.362 38.9595 223.334 39.335 223.449 39.6784C223.563 40.0218 223.811 40.3049 224.137 40.4654C224.187 40.4899 224.238 40.511 224.291 40.5288C224.318 40.5383 224.34 40.5572 224.354 40.582C224.367 40.6068 224.372 40.6358 224.365 40.6635C224.234 41.2434 224.191 41.839 224.237 42.4304C224.239 42.4586 224.23 42.4867 224.213 42.5094C224.196 42.5321 224.171 42.5479 224.143 42.5538C224.088 42.5647 224.034 42.579 223.981 42.5966C223.81 42.6543 223.651 42.7449 223.514 42.8633C223.378 42.9817 223.266 43.1255 223.185 43.2865C223.021 43.6116 222.993 43.9872 223.108 44.3304C223.223 44.6737 223.471 44.9566 223.797 45.1169C224.123 45.2772 224.5 45.3017 224.847 45.1852C224.9 45.1672 224.952 45.1459 225.002 45.1211C225.028 45.1093 225.057 45.1072 225.084 45.1151C225.111 45.1229 225.134 45.1403 225.149 45.164C225.468 45.6635 225.861 46.1122 226.314 46.495C226.336 46.5134 226.35 46.539 226.354 46.5671C226.358 46.5952 226.351 46.6238 226.336 46.6476C226.305 46.6939 226.276 46.7419 226.251 46.7914C226.087 47.1165 226.06 47.492 226.174 47.8353C226.289 48.1786 226.537 48.4615 226.862 48.6219C227.188 48.7822 227.566 48.8069 227.912 48.6904C228.259 48.5739 228.545 48.3258 228.709 48.0007C228.734 47.9506 228.755 47.8992 228.774 47.8469C228.779 47.8319 228.788 47.8181 228.799 47.8065C228.81 47.7948 228.823 47.7855 228.837 47.7791ZM231.425 44.5384C231.331 44.581 231.236 44.6185 231.139 44.6509C230.426 44.8899 229.648 44.8432 228.973 44.5208C228.297 44.1985 227.777 43.626 227.523 42.9252C227.269 42.2243 227.301 41.4506 227.612 40.7688C227.924 40.087 228.49 39.5509 229.19 39.2747C229.89 38.9986 230.669 39.0041 231.361 39.2903C232.053 39.5764 232.603 40.1205 232.894 40.8066C233.186 41.4927 233.195 42.2667 232.921 42.9638C232.646 43.6608 232.109 44.2258 231.425 44.5384ZM229.129 39.538C228.498 39.8262 228.003 40.347 227.75 40.9895C227.497 41.6321 227.506 42.3456 227.774 42.9782C228.042 43.6108 228.549 44.1125 229.187 44.3764C229.825 44.6404 230.543 44.6458 231.189 44.3914C231.834 44.1371 232.356 43.6431 232.644 43.0147C232.931 42.3863 232.961 41.673 232.727 41.0268C232.493 40.3806 232.014 39.8525 231.391 39.5549C230.769 39.2573 230.052 39.2138 229.394 39.4336C229.304 39.4637 229.216 39.4986 229.129 39.538Z" fill="black"/>
<path d="M217.989 96.8297C217.018 96.8297 216.388 96.0451 216.581 95.0765L224.956 53.1091C225.15 52.1416 226.094 51.356 227.064 51.356H285.937C286.908 51.356 287.538 52.1401 287.345 53.1091L279.016 94.8424C278.796 95.9381 277.727 96.8297 276.626 96.8297H217.989Z" fill="white"/>
<path d="M276.668 96.881H217.857C217.369 96.881 216.944 96.6928 216.661 96.3511C216.371 95.9995 216.265 95.5313 216.367 95.032L224.766 53.0339C224.966 52.0317 225.95 51.2163 226.959 51.2163H286.007C286.495 51.2163 286.92 51.4045 287.203 51.7463C287.494 52.0975 287.599 52.566 287.498 53.0653L279.145 94.8277C278.919 95.96 277.808 96.881 276.668 96.881ZM226.959 51.3771C226.024 51.3771 225.111 52.1344 224.925 53.0653L216.524 95.0635C216.434 95.5145 216.527 95.9355 216.786 96.2491C217.038 96.5528 217.418 96.7202 217.857 96.7202H276.668C277.736 96.7202 278.774 95.8573 278.987 94.7963L287.34 53.0339C287.43 52.5829 287.337 52.1618 287.078 51.8482C286.826 51.5452 286.446 51.3771 286.007 51.3771H226.959Z" fill="black"/>
<path d="M273.766 102.077H201.679C199.032 102.077 197.313 100.119 197.839 97.7041H279.509C278.984 100.119 276.413 102.077 273.766 102.077Z" fill="white"/>
<path d="M273.963 102.299H201.777C200.488 102.299 199.369 101.833 198.627 100.987C197.864 100.117 197.589 98.9557 197.85 97.7166C197.854 97.6993 197.864 97.6837 197.878 97.6725C197.893 97.6614 197.911 97.6553 197.93 97.6553H279.714C279.726 97.6553 279.738 97.6578 279.749 97.6627C279.76 97.6675 279.769 97.6746 279.777 97.6833C279.785 97.692 279.79 97.7021 279.793 97.713C279.796 97.7239 279.796 97.7353 279.794 97.7464C279.262 100.257 276.646 102.299 273.963 102.299ZM197.999 97.8077C197.767 98.9779 198.036 100.071 198.753 100.89C199.464 101.7 200.538 102.147 201.777 102.147H273.963C276.54 102.147 279.053 100.207 279.614 97.8077H197.999Z" fill="black"/>
<path d="M234.031 59.7305H230.942C229.845 59.7305 228.775 60.5159 228.565 61.4758L227.976 64.1773C227.766 65.1369 228.491 65.9223 229.588 65.9223H232.676C233.773 65.9223 234.843 65.1369 235.053 64.1773L235.643 61.4775C235.853 60.5159 235.127 59.7305 234.031 59.7305Z" fill="#D9E5FF"/>
<path d="M232.482 69.792H229.396C228.299 69.792 227.229 70.5774 227.019 71.5373L226.428 74.2388C226.218 75.1987 226.943 75.9838 228.04 75.9838H231.127C232.224 75.9838 233.294 75.1984 233.504 74.2388L234.096 71.5373C234.304 70.5774 233.579 69.792 232.482 69.792Z" fill="#D9E5FF"/>
<path d="M230.769 78.3057H227.373C226.166 78.3057 224.99 79.0913 224.759 80.051L224.108 82.7518C223.877 83.7119 224.675 84.4975 225.882 84.4975H229.278C230.484 84.4975 231.66 83.7119 231.892 82.7518L232.542 80.0497C232.774 79.0909 231.976 78.3057 230.769 78.3057Z" fill="#D9E5FF"/>
<path d="M228.004 87.5938H225.225C224.238 87.5938 223.276 88.3793 223.086 89.3393L222.554 92.0404C222.365 93.0001 223.018 93.7856 224.005 93.7856H226.783C227.771 93.7856 228.733 93.0001 228.922 92.0404L229.455 89.3386C229.644 88.3793 228.991 87.5938 228.004 87.5938Z" fill="#D9E5FF"/>
<path d="M278.247 60.5039L277.865 62.0519H238L238.382 60.5039H278.247Z" fill="#D9E5FF"/>
<path d="M265.089 63.6001L264.728 65.922H238L238.362 63.6001H265.089Z" fill="#D9E5FF"/>
<path d="M275.151 69.792L274.784 72.1139H236.452L236.819 69.792H275.151Z" fill="#D9E5FF"/>
<path d="M264.316 72.8877L263.934 75.2096H235.679L236.061 72.8877H264.316Z" fill="#D9E5FF"/>
<path d="M273.603 79.0796L273.236 80.6275H234.904L235.272 79.0796H273.603Z" fill="#D9E5FF"/>
<path d="M254.254 82.1753L253.876 83.7232H234.131L234.509 82.1753H254.254Z" fill="#D9E5FF"/>
<path d="M272.056 87.5938L271.689 89.9157H233.357L233.724 87.5938H272.056Z" fill="#D9E5FF"/>
<path d="M260.445 89.915L260.073 93.011H232.582L232.954 89.915H260.445Z" fill="#D9E5FF"/>
<path d="M269.654 58.1819H241.869C241.323 58.1819 240.99 57.7785 241.128 57.281L241.485 55.9868C241.623 55.49 242.177 55.0859 242.723 55.0859H270.509C271.056 55.0859 271.388 55.4893 271.251 55.9868L270.893 57.281C270.756 57.7785 270.201 58.1819 269.654 58.1819Z" fill="#90AAFF"/>
<path d="M209.416 60.1113C209.416 60.1113 210.58 69.8155 206.737 69.9358C203.772 70.0279 200.625 67.9979 200.575 67.7718C200.525 67.5456 200.322 61.5496 200.322 61.5496L209.416 60.1113Z" fill="white"/>
<path d="M206.539 70.0714C203.604 70.0714 200.521 68.1395 200.445 67.8015C200.392 67.5693 200.209 62.171 200.189 61.556C200.187 61.5239 200.198 61.4925 200.219 61.4677C200.239 61.4429 200.268 61.4264 200.3 61.4213L209.395 59.9813C209.413 59.9784 209.431 59.979 209.448 59.9832C209.466 59.9875 209.482 59.9951 209.496 60.0058C209.525 60.0279 209.543 60.0601 209.548 60.0955C209.582 60.3755 210.345 66.9806 208.343 69.284C207.908 69.7848 207.369 70.0486 206.742 70.0678C206.674 70.0702 206.606 70.0714 206.539 70.0714ZM200.702 67.7309C200.938 68.0396 203.831 69.8081 206.543 69.8081C206.607 69.8081 206.67 69.8081 206.733 69.8081C207.283 69.7908 207.757 69.5574 208.142 69.1153C209.915 67.0751 209.398 61.2347 209.299 60.2661L200.458 61.666C200.537 64.0012 200.663 67.4216 200.702 67.7309Z" fill="black"/>
<path d="M205.994 67.5087L203.795 74.3669L196.482 72.7425L200.429 62.668L205.994 67.5087Z" fill="white"/>
<path d="M203.795 74.4992C203.785 74.4991 203.776 74.4979 203.766 74.4956L196.456 72.8712C196.438 72.8671 196.42 72.859 196.405 72.8475C196.39 72.8361 196.377 72.8215 196.368 72.8048C196.359 72.7881 196.354 72.7697 196.353 72.7508C196.352 72.7319 196.355 72.713 196.361 72.6953L200.308 62.6214C200.314 62.6047 200.323 62.5894 200.335 62.5763C200.347 62.5633 200.362 62.5527 200.378 62.5453C200.394 62.5379 200.412 62.5338 200.43 62.5333C200.447 62.5327 200.465 62.5357 200.482 62.5421C200.498 62.5485 200.514 62.5581 200.526 62.5704C200.539 62.5827 200.549 62.5975 200.556 62.6137C200.563 62.63 200.567 62.6475 200.567 62.6651C200.567 62.6828 200.563 62.7003 200.556 62.7165L196.665 72.6481L203.708 74.2126L205.867 67.4711C205.878 67.4378 205.902 67.41 205.933 67.3939C205.964 67.3778 206.001 67.3747 206.034 67.3852C206.068 67.3958 206.096 67.4191 206.112 67.4502C206.129 67.4812 206.132 67.5173 206.121 67.5507L203.922 74.407C203.914 74.4337 203.897 74.457 203.874 74.4736C203.851 74.4901 203.824 74.4991 203.795 74.4992Z" fill="black"/>
<path d="M205.878 62.8509C205.878 62.8509 207.094 62.3854 206.532 64.4411L205.878 62.8509Z" fill="white"/>
<path d="M206.532 64.5725C206.52 64.5725 206.508 64.5711 206.497 64.5683C206.463 64.559 206.434 64.5369 206.416 64.5066C206.399 64.4763 206.394 64.4404 206.403 64.4067C206.665 63.4435 206.507 63.1246 206.39 63.0199C206.217 62.8661 205.926 62.972 205.923 62.9732C205.89 62.9858 205.854 62.985 205.821 62.9709C205.789 62.9567 205.764 62.9305 205.751 62.8979C205.738 62.8652 205.739 62.829 205.754 62.797C205.768 62.765 205.794 62.74 205.827 62.7273C205.845 62.7208 206.272 62.561 206.567 62.8243C206.863 63.0875 206.888 63.6373 206.66 64.4749C206.652 64.5029 206.636 64.5277 206.612 64.5453C206.589 64.5629 206.561 64.5725 206.532 64.5725Z" fill="black"/>
<path d="M204.107 107.089L183.942 110.245C181.628 110.603 179.773 108.781 180.023 106.475C180.848 98.8172 183.144 85.3558 188.442 76.78C193.604 68.4279 209.861 70.8294 215.062 78.655C217.335 82.0748 220.906 87.2009 223.804 91.3231C226.223 94.7651 224.777 99.5388 220.85 101.1C219.559 101.613 218.137 101.708 216.789 101.371C215.44 101.034 214.234 100.283 213.343 99.2253L212.757 98.5313L214.068 103.138L204.107 107.089Z" fill="#90AAFF"/>
<path d="M212.756 98.6632C212.733 98.6633 212.71 98.6576 212.69 98.6464C212.67 98.6353 212.653 98.6192 212.641 98.5998L204.62 85.5248C204.609 85.51 204.602 85.4932 204.598 85.4755C204.595 85.4578 204.595 85.4395 204.599 85.4219C204.602 85.4042 204.61 85.3874 204.62 85.3727C204.631 85.3579 204.644 85.3455 204.66 85.3361C204.675 85.3267 204.693 85.3206 204.711 85.3181C204.729 85.3157 204.747 85.3169 204.765 85.3217C204.783 85.3266 204.799 85.3349 204.813 85.3463C204.827 85.3577 204.839 85.3718 204.848 85.3878L212.869 98.4622C212.881 98.482 212.888 98.5048 212.889 98.5282C212.889 98.5515 212.883 98.5746 212.872 98.595C212.86 98.6154 212.844 98.6323 212.823 98.6441C212.803 98.6559 212.78 98.6621 212.756 98.662L212.756 98.6632Z" fill="black"/>
<path d="M183.749 110.08L185.535 114.84C189.498 125.423 202.058 130.018 212.019 124.528L237.177 109.747C238.839 108.772 240.067 107.211 240.615 105.377C241.164 103.543 240.993 101.571 240.136 99.8571C239.28 98.1428 237.801 96.8124 235.995 96.1321C234.19 95.4519 232.192 95.4721 230.402 96.1888L204.23 106.646L183.749 110.08Z" fill="white"/>
<path d="M202.976 126.987C199.151 126.986 195.419 125.826 192.279 123.663C189.139 121.499 186.743 118.437 185.411 114.886L183.625 110.125C183.619 110.109 183.617 110.092 183.617 110.075C183.618 110.057 183.622 110.04 183.629 110.025C183.637 110.009 183.647 109.995 183.66 109.983C183.673 109.971 183.688 109.962 183.704 109.956C183.72 109.95 183.738 109.947 183.755 109.948C183.773 109.949 183.79 109.953 183.806 109.96C183.822 109.967 183.836 109.977 183.848 109.99C183.86 110.003 183.869 110.018 183.875 110.034L185.661 114.796C186.587 117.268 188.042 119.512 189.925 121.375C191.809 123.239 194.078 124.676 196.575 125.59C199.073 126.504 201.74 126.872 204.395 126.669C207.05 126.466 209.628 125.697 211.955 124.415L237.111 109.637C238.743 108.678 239.949 107.145 240.488 105.343C241.026 103.541 240.858 101.604 240.016 99.9195C239.175 98.2353 237.721 96.9281 235.948 96.2596C234.174 95.5911 232.211 95.6107 230.452 96.3145L208.422 105.113C208.406 105.119 208.389 105.123 208.372 105.122C208.354 105.122 208.337 105.119 208.321 105.112C208.305 105.105 208.29 105.095 208.278 105.083C208.266 105.071 208.256 105.056 208.249 105.04C208.243 105.024 208.24 105.007 208.24 104.99C208.24 104.972 208.243 104.955 208.25 104.939C208.257 104.924 208.267 104.909 208.279 104.897C208.292 104.885 208.307 104.875 208.323 104.869L230.352 96.0692C232.173 95.3434 234.204 95.3251 236.038 96.0177C237.873 96.7104 239.375 98.0631 240.246 99.8054C241.117 101.548 241.292 103.551 240.736 105.416C240.179 107.28 238.933 108.868 237.246 109.862L212.087 124.642C209.301 126.179 206.165 126.986 202.976 126.987Z" fill="black"/>
<path d="M213.65 123.991C212.079 119.672 220.209 118.188 224.513 114.029C229.215 109.482 234.783 110.897 236.403 114.817C237.924 118.5 234.691 122.38 229.576 124.458C224.145 126.664 215.388 128.764 213.65 123.991Z" fill="white"/>
<path d="M219.203 127.001C217.915 127.001 216.75 126.821 215.806 126.408C214.685 125.915 213.917 125.117 213.524 124.037C212.492 121.205 215.416 119.582 218.802 117.702C220.789 116.599 222.844 115.458 224.42 113.933C226.761 111.67 229.575 110.673 232.137 111.2C234.162 111.619 235.762 112.915 236.526 114.766C237.986 118.299 235.148 122.334 229.625 124.578C226.4 125.89 222.42 127.001 219.203 127.001ZM230.768 111.326C228.67 111.326 226.485 112.304 224.606 114.121C223.006 115.668 220.842 116.869 218.933 117.929C215.654 119.753 212.819 121.325 213.774 123.949C214.142 124.96 214.861 125.707 215.914 126.169C219.138 127.586 225.058 126.153 229.523 124.339C234.9 122.154 237.679 118.26 236.279 114.87C235.548 113.102 234.019 111.86 232.081 111.46C231.649 111.371 231.209 111.326 230.768 111.326Z" fill="black"/>
<path d="M228.336 123.47C228.314 123.47 228.292 123.465 228.273 123.454C228.253 123.444 228.237 123.429 228.225 123.41L223.72 116.567C223.701 116.538 223.694 116.502 223.701 116.468C223.708 116.434 223.729 116.404 223.759 116.385C223.788 116.366 223.824 116.359 223.859 116.367C223.893 116.374 223.923 116.394 223.943 116.424L228.448 123.266C228.461 123.286 228.468 123.309 228.469 123.333C228.47 123.357 228.464 123.38 228.453 123.401C228.441 123.422 228.425 123.439 228.404 123.452C228.383 123.464 228.36 123.47 228.336 123.47Z" fill="black"/>
<path d="M231.181 122.063C231.159 122.062 231.137 122.057 231.118 122.047C231.099 122.036 231.082 122.021 231.07 122.003L226.288 114.823C226.268 114.794 226.261 114.758 226.268 114.724C226.276 114.69 226.296 114.66 226.326 114.641C226.355 114.622 226.391 114.615 226.426 114.622C226.46 114.629 226.49 114.649 226.51 114.679L231.292 121.858C231.311 121.887 231.317 121.922 231.31 121.955C231.303 121.989 231.283 122.018 231.254 122.037C231.233 122.053 231.207 122.062 231.181 122.063Z" fill="black"/>
<path d="M225.251 124.478C225.229 124.478 225.208 124.472 225.188 124.462C225.169 124.452 225.153 124.436 225.141 124.418L220.937 118.14C220.918 118.111 220.911 118.076 220.918 118.041C220.925 118.007 220.945 117.977 220.974 117.958C221.004 117.938 221.04 117.931 221.074 117.938C221.109 117.945 221.139 117.965 221.159 117.994L225.362 124.273C225.375 124.293 225.383 124.316 225.384 124.339C225.385 124.363 225.38 124.387 225.369 124.408C225.357 124.429 225.34 124.446 225.32 124.459C225.299 124.471 225.275 124.477 225.251 124.477V124.478Z" fill="black"/>
<path d="M222.088 125.527C222.066 125.527 222.044 125.521 222.025 125.511C222.005 125.5 221.989 125.485 221.977 125.467L218.085 119.625C218.065 119.595 218.058 119.56 218.065 119.525C218.072 119.491 218.093 119.461 218.122 119.442C218.152 119.422 218.188 119.416 218.222 119.423C218.257 119.43 218.287 119.45 218.307 119.479L222.199 125.325C222.217 125.354 222.223 125.389 222.216 125.422C222.209 125.456 222.19 125.485 222.161 125.504C222.139 125.519 222.114 125.526 222.088 125.527Z" fill="black"/>
<path d="M208.722 101.713C209.024 101.596 209.355 101.574 209.669 101.651C209.984 101.728 210.267 101.899 210.48 102.142C210.32 101.395 210.695 100.631 211.406 100.347C212.117 100.063 212.906 100.347 213.32 100.976C213.288 100.318 213.7 99.6716 214.28 99.4454C215.437 98.9811 216.144 100.027 216.418 100.697C216.349 100.011 216.72 99.3431 217.373 99.0816C218.176 98.7604 219.1 99.1702 219.438 99.9976L220.103 101.62C220.441 102.448 220.065 103.379 219.264 103.7C218.967 103.815 218.641 103.838 218.331 103.766C218.021 103.693 217.74 103.529 217.526 103.294C217.724 104.062 217.35 104.864 216.617 105.158C215.914 105.44 215.117 105.158 214.703 104.529C214.734 105.187 214.37 105.808 213.743 106.06C213.059 106.334 212.287 106.075 211.864 105.479C211.913 106.15 211.546 106.795 210.906 107.053C210.104 107.374 209.18 106.964 208.841 106.137L207.883 103.796C207.544 102.966 207.922 102.034 208.722 101.713Z" fill="white"/>
<path d="M210.338 107.29C209.987 107.286 209.645 107.178 209.356 106.981C209.067 106.784 208.844 106.506 208.716 106.183L207.758 103.842C207.581 103.417 207.578 102.941 207.75 102.514C207.832 102.306 207.955 102.117 208.114 101.958C208.272 101.799 208.461 101.674 208.67 101.59C208.94 101.485 209.232 101.45 209.518 101.489C209.805 101.528 210.077 101.639 210.308 101.811C210.298 101.474 210.391 101.141 210.576 100.858C210.761 100.575 211.029 100.354 211.344 100.226C211.659 100.097 212.007 100.066 212.339 100.138C212.672 100.21 212.975 100.38 213.208 100.627C213.305 100.048 213.699 99.5293 214.231 99.321C215.161 98.9483 215.876 99.4628 216.31 100.184C216.362 99.9116 216.482 99.6567 216.659 99.4423C216.836 99.228 217.065 99.061 217.324 98.9567C218.192 98.6085 219.197 99.0518 219.559 99.9451L220.224 101.568C220.4 101.993 220.403 102.469 220.232 102.896C220.139 103.13 219.994 103.34 219.806 103.509C219.619 103.679 219.395 103.804 219.151 103.874C218.907 103.945 218.65 103.959 218.4 103.916C218.15 103.872 217.913 103.773 217.708 103.625C217.738 104.338 217.331 105.01 216.665 105.277C216.351 105.399 216.008 105.426 215.678 105.354C215.349 105.283 215.049 105.116 214.815 104.876C214.772 105.18 214.645 105.466 214.447 105.703C214.25 105.939 213.989 106.116 213.696 106.215C213.402 106.313 213.086 106.328 212.784 106.258C212.482 106.189 212.206 106.037 211.986 105.821C211.951 106.117 211.837 106.398 211.656 106.636C211.474 106.873 211.232 107.059 210.954 107.172C210.758 107.25 210.549 107.29 210.338 107.29ZM209.283 101.736C209.107 101.736 208.933 101.769 208.77 101.834C208.594 101.905 208.435 102.01 208.302 102.144C208.169 102.278 208.065 102.437 207.996 102.612C207.851 102.976 207.853 103.382 208.004 103.744L208.962 106.085C209.272 106.843 210.121 107.221 210.854 106.928C211.135 106.811 211.371 106.607 211.528 106.348C211.685 106.089 211.755 105.787 211.727 105.486C211.725 105.457 211.732 105.428 211.748 105.404C211.764 105.38 211.788 105.362 211.815 105.352C211.843 105.342 211.873 105.342 211.9 105.351C211.928 105.36 211.952 105.377 211.969 105.401C212.367 105.962 213.074 106.179 213.689 105.935C213.964 105.82 214.196 105.623 214.353 105.372C214.51 105.12 214.585 104.827 214.567 104.532C214.566 104.504 214.575 104.476 214.591 104.453C214.608 104.431 214.631 104.414 214.658 104.405C214.685 104.396 214.715 104.396 214.742 104.405C214.769 104.414 214.792 104.431 214.808 104.454C215.194 105.042 215.931 105.285 216.56 105.033C217.218 104.77 217.575 104.035 217.391 103.324C217.385 103.296 217.388 103.267 217.4 103.24C217.412 103.214 217.432 103.193 217.458 103.179C217.484 103.166 217.513 103.161 217.542 103.165C217.57 103.17 217.597 103.184 217.617 103.205C218.036 103.651 218.66 103.798 219.207 103.578C219.383 103.508 219.542 103.402 219.675 103.269C219.808 103.135 219.912 102.976 219.981 102.801C220.127 102.437 220.124 102.031 219.973 101.669L219.308 100.046C218.998 99.2875 218.15 98.9094 217.417 99.2032C216.829 99.4389 216.479 100.034 216.544 100.685C216.546 100.716 216.537 100.748 216.519 100.773C216.5 100.798 216.473 100.816 216.442 100.823C216.411 100.83 216.379 100.827 216.351 100.812C216.322 100.798 216.3 100.774 216.288 100.745C216.126 100.348 215.503 99.0919 214.323 99.5651C213.794 99.7722 213.417 100.375 213.446 100.968C213.446 100.996 213.438 101.024 213.421 101.047C213.405 101.07 213.381 101.087 213.354 101.095C213.327 101.104 213.298 101.104 213.271 101.095C213.244 101.086 213.221 101.069 213.204 101.046C212.819 100.458 212.082 100.215 211.452 100.467C210.813 100.723 210.457 101.416 210.607 102.114C210.613 102.142 210.609 102.172 210.597 102.198C210.584 102.224 210.563 102.246 210.537 102.259C210.511 102.272 210.481 102.276 210.452 102.271C210.423 102.266 210.397 102.251 210.378 102.229C210.24 102.076 210.072 101.952 209.883 101.867C209.695 101.782 209.491 101.738 209.284 101.736H209.283Z" fill="black"/>
<path d="M211.863 105.608C211.836 105.608 211.81 105.6 211.787 105.585C211.765 105.57 211.748 105.548 211.739 105.523L210.654 102.734C210.642 102.701 210.643 102.665 210.657 102.633C210.671 102.601 210.698 102.576 210.731 102.563C210.764 102.55 210.8 102.551 210.832 102.565C210.865 102.58 210.89 102.606 210.903 102.638L211.987 105.429C212 105.462 211.999 105.498 211.984 105.53C211.97 105.562 211.943 105.587 211.91 105.599C211.895 105.605 211.879 105.608 211.863 105.608Z" fill="black"/>
<path d="M214.704 104.67C214.678 104.669 214.653 104.661 214.631 104.646C214.609 104.631 214.593 104.61 214.584 104.586L213.496 101.795C213.484 101.763 213.484 101.726 213.499 101.694C213.513 101.662 213.54 101.638 213.573 101.625C213.606 101.612 213.642 101.613 213.674 101.628C213.707 101.642 213.732 101.668 213.744 101.701L214.832 104.491C214.838 104.507 214.841 104.524 214.841 104.542C214.84 104.559 214.837 104.576 214.83 104.592C214.822 104.608 214.812 104.622 214.8 104.634C214.787 104.646 214.772 104.655 214.756 104.661C214.739 104.667 214.722 104.67 214.704 104.67Z" fill="black"/>
<path d="M217.513 103.413C217.487 103.413 217.461 103.405 217.44 103.391C217.418 103.377 217.402 103.356 217.392 103.333L216.273 100.667C216.266 100.651 216.263 100.634 216.263 100.617C216.263 100.599 216.266 100.582 216.273 100.566C216.279 100.55 216.289 100.536 216.302 100.524C216.314 100.511 216.329 100.502 216.345 100.495C216.361 100.488 216.378 100.485 216.396 100.485C216.413 100.485 216.43 100.488 216.447 100.495C216.463 100.501 216.477 100.511 216.49 100.523C216.502 100.536 216.512 100.55 216.519 100.566L217.637 103.232C217.644 103.247 217.647 103.265 217.647 103.282C217.647 103.299 217.644 103.316 217.637 103.332C217.631 103.348 217.621 103.363 217.608 103.375C217.596 103.387 217.581 103.397 217.565 103.403C217.549 103.41 217.531 103.414 217.513 103.413Z" fill="black"/>
<path d="M208.114 55.4772C210.262 55.6429 212.473 59.5844 206.898 62.4478C206.898 62.4478 206.102 61.4935 205.138 62.4059C204.174 63.3183 205.515 65.2693 205.515 65.2693C205.515 65.2693 191.967 83.0899 197.722 87.011C200.999 89.245 186.152 90.4865 182.162 83.4632C177.916 75.9948 180.943 70.0101 184.015 67.471C189.767 62.7069 192.819 62.924 197.06 58.0701C199.147 55.6812 204.321 52.2823 208.114 55.4772Z" fill="black"/>
<path d="M185.963 46.453C185.066 46.29 184.485 45.3385 184.668 44.3321C184.851 43.3257 185.73 42.6395 186.627 42.8026C187.524 42.9656 188.104 43.9171 187.922 44.9235C187.739 45.9299 186.86 46.6161 185.963 46.453ZM186.537 43.2953C185.882 43.1763 185.242 43.6773 185.108 44.4113C184.975 45.146 185.399 45.8399 186.053 45.9588C186.708 46.0778 187.348 45.5768 187.482 44.8428C187.615 44.1089 187.192 43.4144 186.537 43.2953Z" fill="black"/>
<path d="M183.558 53.0861C182.79 52.9464 182.275 52.2184 182.412 51.4637C182.549 50.7089 183.287 50.2084 184.056 50.3483C184.824 50.488 185.338 51.2159 185.201 51.9706C185.064 52.7254 184.327 53.2259 183.558 53.0861ZM183.962 50.8623C183.482 50.7751 183.022 51.0876 182.936 51.559C182.851 52.0303 183.172 52.4849 183.652 52.5721C184.131 52.6594 184.592 52.3468 184.677 51.8755C184.763 51.4041 184.442 50.9496 183.962 50.8623Z" fill="black"/>
<path d="M195.822 38.6432C195.748 38.6298 195.68 38.5887 195.634 38.5239C195.542 38.3934 195.574 38.2148 195.706 38.1251L196.47 37.6064C196.603 37.5166 196.784 37.5497 196.877 37.6802C196.969 37.8107 196.936 37.9894 196.804 38.0791L196.04 38.5978C195.974 38.6422 195.895 38.6565 195.822 38.6432Z" fill="black"/>
<path d="M192.606 40.8253C192.532 40.8119 192.464 40.7709 192.418 40.706C192.326 40.5756 192.358 40.3969 192.49 40.3072L193.255 39.7885C193.387 39.6988 193.569 39.7319 193.661 39.8623C193.753 39.9928 193.72 40.1715 193.588 40.2612L192.824 40.7799C192.757 40.8249 192.679 40.8385 192.606 40.8253Z" fill="black"/>
<path d="M195.983 41.4393C195.909 41.4259 195.841 41.3848 195.795 41.32L195.262 40.5656C195.17 40.4351 195.203 40.2564 195.335 40.1667C195.467 40.077 195.649 40.1101 195.741 40.2406L196.274 40.995C196.366 41.1255 196.333 41.3041 196.201 41.3939C196.135 41.439 196.056 41.4526 195.983 41.4393Z" fill="black"/>
<path d="M193.741 38.2649C193.668 38.2516 193.599 38.2105 193.554 38.1457L193.021 37.3913C192.929 37.2608 192.961 37.0821 193.094 36.9924C193.226 36.9027 193.408 36.9358 193.5 37.0663L194.032 37.8207C194.125 37.9512 194.092 38.1298 193.96 38.2195C193.893 38.2638 193.814 38.2782 193.741 38.2649Z" fill="black"/>
</g>
</g>
<defs>
<filter id="filter0_dd_801_4292" x="0.2" y="5.96046e-08" width="303.6" height="132.6" filterUnits="userSpaceOnUse" color-interpolation-filters="sRGB">
<feFlood flood-opacity="0" result="BackgroundImageFix"/>
<feColorMatrix in="SourceAlpha" type="matrix" values="0 0 0 0 0 0 0 0 0 0 0 0 0 0 0 0 0 0 127 0" result="hardAlpha"/>
<feOffset dy="0.8"/>
<feGaussianBlur stdDeviation="0.9"/>
<feColorMatrix type="matrix" values="0 0 0 0 0 0 0 0 0 0 0 0 0 0 0 0 0 0 0.13 0"/>
<feBlend mode="normal" in2="BackgroundImageFix" result="effect1_dropShadow_801_4292"/>
<feColorMatrix in="SourceAlpha" type="matrix" values="0 0 0 0 0 0 0 0 0 0 0 0 0 0 0 0 0 0 127 0" result="hardAlpha"/>
<feOffset dy="0.15"/>
<feGaussianBlur stdDeviation="0.225"/>
<feColorMatrix type="matrix" values="0 0 0 0 0 0 0 0 0 0 0 0 0 0 0 0 0 0 0.11 0"/>
<feBlend mode="normal" in2="effect1_dropShadow_801_4292" result="effect2_dropShadow_801_4292"/>
<feBlend mode="normal" in="SourceGraphic" in2="effect2_dropShadow_801_4292" result="shape"/>
</filter>
<linearGradient id="paint0_linear_801_4292" x1="152" y1="1.00001" x2="152" y2="130" gradientUnits="userSpaceOnUse">
<stop stop-color="#EAE8FF"/>
<stop offset="1" stop-color="#F1E4FF"/>
</linearGradient>
<clipPath id="clip0_801_4292">
<rect x="2" y="1" width="300" height="129" rx="4" fill="white"/>
</clipPath>
</defs>
</svg>
