<svg width="28" height="35" viewBox="0 0 28 35" fill="none" xmlns="http://www.w3.org/2000/svg">
<path d="M26.3883 31.2263H25.2406V2.83381H26.3855C27.1687 2.83381 27.8024 2.19941 27.8024 1.41696C27.8024 0.634508 27.1687 0.000108429 26.3855 0.000108429C25.8272 7.82503e-05 0.00882342 -0.000119683 1.41685 0.000108429C0.633708 0.000108429 0 0.634508 0 1.41696C0 2.19941 0.633708 2.83381 1.41685 2.83381H2.57106V31.2263H1.42342C0.629989 31.2263 0.0065723 31.8638 0.0065723 32.6432C0.0065723 33.4224 0.629989 34.06 1.42342 34.06C12.1522 34.06 18.2211 34.06 26.3883 34.06C27.1675 34.06 27.8051 33.4224 27.8051 32.6432C27.8051 31.8638 27.1675 31.2263 26.3883 31.2263ZM19.5732 10.1436C20.3525 10.1436 20.9901 10.7812 20.9901 11.5604V12.9773C20.9901 13.7565 20.3525 14.3941 19.5732 14.3941C18.7939 14.3941 18.1564 13.7565 18.1564 12.9773V11.5604C18.1564 10.7812 18.7939 10.1436 19.5732 10.1436ZM18.1564 5.89304V4.47619C18.1564 3.69694 18.7939 3.05934 19.5732 3.05934C20.3525 3.05934 20.9901 3.69694 20.9901 4.47619V5.89304C20.9901 6.67229 20.3525 7.30989 19.5732 7.30989C18.7939 7.30989 18.1564 6.67229 18.1564 5.89304ZM19.5732 17.2278C20.3525 17.2278 20.9901 17.8654 20.9901 18.6447V20.0615C20.9901 20.8408 20.3525 21.4784 19.5732 21.4784C18.7939 21.4784 18.1564 20.8408 18.1564 20.0615V18.6447C18.1564 17.8654 18.7939 17.2278 19.5732 17.2278ZM13.9059 14.3941C13.1265 14.3941 12.489 13.7565 12.489 12.9773V11.5604C12.489 10.7812 13.1265 10.1436 13.9059 10.1436C14.6851 10.1436 15.3227 10.7812 15.3227 11.5604V12.9773C15.3227 13.7565 14.6851 14.3941 13.9059 14.3941ZM15.3227 18.6447V20.0615C15.3227 20.8408 14.6851 21.4784 13.9059 21.4784C13.1265 21.4784 12.489 20.8408 12.489 20.0615V18.6447C12.489 17.8654 13.1265 17.2278 13.9059 17.2278C14.6851 17.2278 15.3227 17.8654 15.3227 18.6447ZM13.9059 7.30989C13.1265 7.30989 12.489 6.67229 12.489 5.89304V4.47619C12.489 3.69694 13.1265 3.05934 13.9059 3.05934C14.6851 3.05934 15.3227 3.69694 15.3227 4.47619V5.89304C15.3227 6.67229 14.6851 7.30989 13.9059 7.30989ZM8.23846 14.3941C7.45912 14.3941 6.82161 13.7565 6.82161 12.9773V11.5604C6.82161 10.7812 7.45912 10.1436 8.23846 10.1436C9.01771 10.1436 9.65531 10.7812 9.65531 11.5604V12.9773C9.65531 13.7565 9.01771 14.3941 8.23846 14.3941ZM9.65531 18.6447V20.0615C9.65531 20.8408 9.01771 21.4784 8.23846 21.4784C7.45912 21.4784 6.82161 20.8408 6.82161 20.0615V18.6447C6.82161 17.8654 7.45912 17.2278 8.23846 17.2278C9.01771 17.2278 9.65531 17.8654 9.65531 18.6447ZM8.23846 7.30989C7.45912 7.30989 6.82161 6.67229 6.82161 5.89304V4.47619C6.82161 3.69694 7.45912 3.05934 8.23846 3.05934C9.01771 3.05934 9.65531 3.69694 9.65531 4.47619V5.89304C9.65531 6.67229 9.01771 7.30989 8.23846 7.30989ZM10.7604 31.2263V27.7266C10.7604 25.9981 12.1631 24.5813 13.9059 24.5813C15.6117 24.5813 17.037 25.9406 17.037 27.7266V31.2263H10.7604Z" fill="#494CA8"/>
</svg>
