<svg width="29" height="38" viewBox="0 0 29 38" fill="none" xmlns="http://www.w3.org/2000/svg">
<path d="M6.74137 0.694144C6.7292 0.68806 6.69878 0.657638 6.71095 0.608964C6.72312 0.554206 6.75963 0.548122 6.77179 0.542037L8.67009 0.0552958C9.05948 -0.0420526 9.4793 -0.0116313 9.85044 0.152644L17.4071 3.49899L11.84 4.91663L6.74137 0.694144ZM14.1155 16.8296C13.8661 17.1643 13.5071 17.4076 13.1055 17.5111L11.1951 17.9978C11.1586 18.0039 11.1342 17.9978 11.1099 17.9735C11.0855 17.9491 11.0795 17.9187 11.0916 17.8822L13.4767 11.3599L19.202 9.89964L14.1155 16.8296ZM27.4036 6.80275L8.80394 11.5485C8.05558 11.7371 7.25854 11.7614 6.50409 11.6154L2.59798 10.8549C1.91655 10.721 1.36288 10.1978 1.19252 9.5285L0 4.8497L0.863966 4.63067C0.894388 4.62458 0.924809 4.63067 0.949146 4.655L3.02388 6.76016C3.71749 7.45985 4.73965 7.74581 5.69488 7.50244L21.3497 3.50508C22.3232 3.25562 23.3393 3.29213 24.2884 3.60242L27.4827 4.655C27.8477 4.78277 28.1276 5.08699 28.2189 5.44596C28.3649 6.05439 28.012 6.65064 27.4036 6.80275Z" fill="#494CA8"/>
<path d="M20.1744 21H8.05159C6.97286 21 6.09961 21.8733 6.09961 22.952V37.9H22.152V22.952C22.1264 21.8733 21.2531 21 20.1744 21ZM20.1744 30.3489V34.1502H17.4005V30.3489H20.1744ZM17.4005 28.5511V24.7498H20.1744V28.5511H17.4005ZM15.4999 30.3489V34.1502H12.7261V30.3489H15.4999ZM15.4999 24.7498V28.5511H12.7261V24.7498H15.4999ZM10.8254 30.3489V34.1502H8.05159V30.3489H10.8254ZM8.05159 28.5511V24.7498H10.8254V28.5511H8.05159Z" fill="#494CA8"/>
</svg>
