<svg width="18" height="20" viewBox="0 0 18 20" fill="none" xmlns="http://www.w3.org/2000/svg">
<path d="M10.5925 17.9664L8.16321 18.4754C8.02487 18.5049 7.88396 18.5208 7.7425 18.5229C7.203 18.5213 6.68596 18.3067 6.30393 17.9257C6.06411 17.6865 5.88813 17.391 5.79211 17.0661C5.69608 16.7413 5.68308 16.3976 5.75429 16.0664L6.26321 13.6371C6.34169 13.2475 6.53556 12.8905 6.81964 12.6125L13.205 6.22714C13.3191 6.114 13.4416 6.00965 13.5714 5.915V2.53571C13.5698 1.9963 13.3548 1.47945 12.9734 1.09803C12.592 0.716605 12.0751 0.501611 11.5357 0.5H2.03571C1.4963 0.501611 0.979448 0.716605 0.598027 1.09803C0.216605 1.47945 0.00161099 1.9963 0 2.53571V17.4643C0.00161099 18.0037 0.216605 18.5206 0.598027 18.902C0.979448 19.2834 1.4963 19.4984 2.03571 19.5H11.5357C12.0751 19.4984 12.592 19.2834 12.9734 18.902C13.3548 18.5206 13.5698 18.0037 13.5714 17.4643V15.4557L11.6171 17.41C11.3392 17.6941 10.9821 17.888 10.5925 17.9664ZM3.39286 3.21429H10.1786C10.3585 3.21429 10.5311 3.28578 10.6584 3.41303C10.7857 3.54029 10.8571 3.71289 10.8571 3.89286C10.8571 4.07283 10.7857 4.24542 10.6584 4.37268C10.5311 4.49994 10.3585 4.57143 10.1786 4.57143H3.39286C3.21289 4.57143 3.04029 4.49994 2.91303 4.37268C2.78578 4.24542 2.71429 4.07283 2.71429 3.89286C2.71429 3.71289 2.78578 3.54029 2.91303 3.41303C3.04029 3.28578 3.21289 3.21429 3.39286 3.21429ZM3.39286 5.92857H10.1786C10.3585 5.92857 10.5311 6.00006 10.6584 6.12732C10.7857 6.25458 10.8571 6.42717 10.8571 6.60714C10.8571 6.78711 10.7857 6.95971 10.6584 7.08697C10.5311 7.21422 10.3585 7.28571 10.1786 7.28571H3.39286C3.21289 7.28571 3.04029 7.21422 2.91303 7.08697C2.78578 6.95971 2.71429 6.78711 2.71429 6.60714C2.71429 6.42717 2.78578 6.25458 2.91303 6.12732C3.04029 6.00006 3.21289 5.92857 3.39286 5.92857ZM2.71429 9.32143C2.71429 9.14146 2.78578 8.96886 2.91303 8.84161C3.04029 8.71435 3.21289 8.64286 3.39286 8.64286H6.10714C6.28711 8.64286 6.45971 8.71435 6.58697 8.84161C6.71422 8.96886 6.78571 9.14146 6.78571 9.32143C6.78571 9.5014 6.71422 9.67399 6.58697 9.80125C6.45971 9.92851 6.28711 10 6.10714 10H3.39286C3.21289 10 3.04029 9.92851 2.91303 9.80125C2.78578 9.67399 2.71429 9.5014 2.71429 9.32143Z" fill="#494CA8"/>
<path d="M17.0472 7.18408C16.6593 6.81394 16.1438 6.60742 15.6076 6.60742C15.0715 6.60742 14.5559 6.81394 14.168 7.18408L7.77587 13.5755C7.68303 13.6685 7.61915 13.7863 7.59198 13.9148L7.08169 16.3448C7.0609 16.4436 7.0624 16.5457 7.0861 16.6439C7.10979 16.742 7.15508 16.8336 7.21866 16.912C7.28224 16.9904 7.36251 17.0536 7.45362 17.0971C7.54474 17.1405 7.64439 17.1631 7.74534 17.1632C7.79233 17.1632 7.83919 17.1582 7.88512 17.1482L10.3151 16.6373C10.4436 16.6101 10.5615 16.5462 10.6544 16.4534L17.0458 10.0626C17.2349 9.87354 17.3849 9.64911 17.4872 9.4021C17.5895 9.1551 17.6422 8.89035 17.6422 8.62299C17.6422 8.35563 17.5895 8.09088 17.4872 7.84388C17.3849 7.59687 17.2349 7.37244 17.0458 7.1834L17.0472 7.18408Z" fill="#494CA8"/>
</svg>
