<svg width="55" height="34" viewBox="0 0 55 34" fill="none" xmlns="http://www.w3.org/2000/svg">
<path d="M39.4915 16.9535C39.4972 17.0871 39.4979 17.2218 39.5054 17.3566C39.5314 17.8116 39.5694 18.2627 39.6187 18.7063C39.6276 18.7803 39.6402 18.8518 39.6497 18.9265C39.694 19.291 39.744 19.6517 39.8041 20.0041C39.8301 20.1572 39.863 20.3059 39.8921 20.4565C39.9319 20.6628 39.9756 20.8647 40.0199 21.0646C40.1515 21.0191 40.2856 20.9843 40.4173 20.9438C40.5388 20.9064 40.6602 20.8659 40.7836 20.8324C41.0317 20.7647 41.281 20.709 41.5335 20.6584C41.605 20.6438 41.6765 20.6261 41.7486 20.6128C42.4225 20.4894 43.1084 20.4224 43.8013 20.4224C44.4942 20.4224 45.1807 20.4888 45.8546 20.6128C45.9217 20.6242 45.9881 20.6426 46.0552 20.6558C46.3121 20.7065 46.5677 20.7647 46.8215 20.8324C46.9404 20.8659 47.0587 20.9052 47.1777 20.9412C47.3131 20.983 47.4492 21.0178 47.5839 21.0646C47.6289 20.8621 47.6719 20.659 47.7118 20.4515C47.7409 20.3021 47.7725 20.156 47.7991 20.0041C47.8598 19.6472 47.9105 19.2821 47.9554 18.9126C47.9649 18.8423 47.9763 18.7753 47.9845 18.705C48.0345 18.2627 48.0718 17.8103 48.0977 17.3541C48.1066 17.2206 48.1079 17.0845 48.1123 16.951C48.1243 16.6827 48.1319 16.4144 48.1351 16.1455H39.4688C39.4719 16.4157 39.4801 16.6853 39.4915 16.9535Z" fill="#494CA8"/>
<path d="M48.1127 14.7239C48.1064 14.5917 48.1051 14.4582 48.0988 14.3259C48.0722 13.8735 48.0355 13.4261 47.9868 12.9863C47.9805 12.9357 47.9723 12.8864 47.9653 12.8357C47.9204 12.4491 47.8672 12.0669 47.8033 11.6936C47.7799 11.5576 47.7521 11.4253 47.7261 11.2918C47.6856 11.0741 47.6407 10.8615 47.5939 10.6514C47.4869 10.6862 47.3762 10.7122 47.2674 10.7438C47.1174 10.7894 46.9681 10.8356 46.8162 10.8748C46.6574 10.9153 46.496 10.9488 46.3353 10.9824C46.167 11.0184 45.9999 11.0551 45.831 11.0836C45.6892 11.1058 45.5462 11.1222 45.4032 11.1406C45.2153 11.164 45.0274 11.1887 44.8382 11.2039C44.7129 11.214 44.5863 11.2152 44.4592 11.2197C44.2896 11.2285 44.12 11.2431 43.9479 11.2431C43.9137 11.2431 43.8808 11.238 43.846 11.238C43.6878 11.2368 43.5315 11.2235 43.3733 11.2159C43.019 11.1975 42.6684 11.164 42.3185 11.1146C42.166 11.0925 42.0129 11.076 41.8591 11.0482C41.7022 11.0184 41.5472 10.9792 41.3909 10.9431C41.2055 10.9001 41.0195 10.859 40.8372 10.8084C40.6993 10.7698 40.5645 10.7229 40.4285 10.6787C40.2962 10.6369 40.1614 10.6008 40.0298 10.5527C39.9836 10.754 39.94 10.9596 39.9001 11.1659C39.8704 11.3177 39.8368 11.4664 39.8102 11.6208C39.7495 11.972 39.6995 12.334 39.6539 12.6997C39.6438 12.7788 39.6299 12.8541 39.6204 12.9332C39.5698 13.378 39.5325 13.833 39.5046 14.2911C39.4964 14.4297 39.4951 14.5702 39.4901 14.7087C39.4787 14.9783 39.4711 15.2478 39.4673 15.518H48.133C48.1317 15.2529 48.1235 14.9871 48.1127 14.7239Z" fill="#494CA8"/>
<path d="M45.942 5.44518C45.9673 5.47239 45.9926 5.49581 46.0179 5.52555C46.1274 5.64893 46.2362 5.78245 46.3412 5.92482C46.3634 5.95456 46.3843 5.98809 46.4064 6.0172C46.488 6.1349 46.5703 6.25449 46.65 6.38167C46.6836 6.43356 46.7146 6.48798 46.7462 6.54366C46.8139 6.65756 46.8816 6.77589 46.9455 6.89991C46.9778 6.95939 47.0101 7.0195 47.0411 7.08151C47.1082 7.21629 47.1746 7.35486 47.2385 7.4966C47.2632 7.55229 47.2891 7.60417 47.3132 7.66112C47.4011 7.86234 47.4846 8.07115 47.5663 8.29009C47.5701 8.30148 47.5745 8.31224 47.5783 8.32363C47.6542 8.52991 47.727 8.74378 47.7972 8.96525C47.82 9.03675 47.8415 9.11015 47.863 9.18292C47.9137 9.34997 47.9624 9.52018 48.0092 9.69482C48.0193 9.73216 48.0307 9.76759 48.0415 9.80619C48.1946 9.74291 48.3471 9.68027 48.4964 9.61067C48.5939 9.56511 48.6945 9.52398 48.79 9.47589C49.0798 9.33098 49.3633 9.17532 49.6379 9.00511C49.6506 8.99625 49.6633 8.99182 49.6759 8.98296C49.9632 8.80516 50.241 8.60963 50.5099 8.40209C50.5953 8.33755 50.6757 8.26605 50.7605 8.19834C50.8927 8.0895 51.0237 7.97687 51.1521 7.86108C49.5974 6.42597 47.6922 5.49201 45.6401 5.14209C45.6534 5.15538 45.6686 5.17183 45.6825 5.18638C45.7699 5.26548 45.8565 5.35343 45.942 5.44518Z" fill="#494CA8"/>
<path d="M37.5642 22.2695C37.5914 22.2524 37.6174 22.2309 37.6452 22.2138C37.9464 22.0208 38.2584 21.8455 38.5779 21.6823C38.6773 21.6317 38.781 21.5886 38.8816 21.5399C39.0607 21.4557 39.2373 21.3672 39.4208 21.29C39.3632 21.0426 39.3176 20.7819 39.2676 20.525C39.2449 20.4016 39.2164 20.2801 39.1955 20.1542C39.043 19.2714 38.938 18.3476 38.8816 17.4016C38.8728 17.2498 38.8715 17.0954 38.8652 16.9403C38.8544 16.6746 38.8393 16.4114 38.8361 16.1431H32.959C33.0362 18.8943 34.1296 21.4595 36.0627 23.4262C36.1987 23.3015 36.3436 23.1889 36.4854 23.0712C36.5797 22.9921 36.6714 22.9092 36.7676 22.8339C37.0251 22.6352 37.2909 22.4479 37.5642 22.2695Z" fill="#494CA8"/>
<path d="M41.726 6.35324C41.6874 6.40386 41.6507 6.46081 41.6146 6.51523C41.5735 6.57597 41.5323 6.63735 41.4918 6.70063C41.4558 6.75884 41.4203 6.81959 41.3843 6.88097C41.3444 6.94741 41.3058 7.01448 41.2672 7.08345C41.2324 7.14799 41.1982 7.21443 41.1641 7.28151C41.1255 7.35427 41.0888 7.42704 41.0521 7.50297C41.0166 7.57321 40.985 7.64534 40.9515 7.71811C40.916 7.79594 40.8819 7.87251 40.8471 7.95413C40.8135 8.02943 40.7825 8.10726 40.7521 8.18509C40.718 8.26798 40.6844 8.35214 40.6515 8.4382C40.6218 8.51856 40.5927 8.60145 40.5623 8.68434C40.53 8.77356 40.499 8.86215 40.468 8.95517C40.4402 9.03932 40.413 9.12601 40.3858 9.2108C40.356 9.30698 40.3257 9.40379 40.2972 9.50251C40.2706 9.59173 40.2459 9.68031 40.2206 9.7708C40.2073 9.82395 40.1928 9.8771 40.1782 9.93026C40.3105 9.97961 40.4427 10.0239 40.5756 10.0688C40.7015 10.1093 40.8268 10.1543 40.954 10.1897C41.1584 10.2492 41.3647 10.296 41.5716 10.3416C41.6772 10.3662 41.7823 10.3934 41.8892 10.4143C42.1373 10.4624 42.3885 10.4972 42.6403 10.5269C42.7067 10.5358 42.7738 10.5478 42.8409 10.5567C43.4869 10.6225 44.1387 10.6307 44.786 10.5814C44.8556 10.575 44.924 10.5643 44.9929 10.5567C45.2429 10.5333 45.4934 10.5061 45.7415 10.4649C45.8434 10.4479 45.9452 10.4232 46.0471 10.4017C46.2584 10.3612 46.4711 10.3175 46.6811 10.2644C46.8007 10.2333 46.9184 10.1941 47.0374 10.1593C47.1766 10.1188 47.3145 10.0739 47.4518 10.0283C47.4379 9.97645 47.4246 9.9233 47.4113 9.87267C47.386 9.77649 47.3595 9.68221 47.3322 9.5873C47.305 9.49112 47.2759 9.39557 47.2468 9.30192C47.219 9.21017 47.1911 9.12032 47.1608 9.03236C47.131 8.93998 47.1007 8.8495 47.0697 8.76154C47.0386 8.67485 47.0089 8.5888 46.9773 8.50464C46.9456 8.41921 46.9134 8.33632 46.8805 8.25406C46.8482 8.17244 46.8153 8.08955 46.7817 8.01045C46.7482 7.93135 46.714 7.85353 46.6799 7.77696C46.6457 7.7004 46.6109 7.62383 46.5761 7.55233C46.5407 7.47703 46.504 7.40426 46.4673 7.33213C46.4306 7.26189 46.3964 7.19102 46.3603 7.12585C46.3224 7.05687 46.2838 6.99107 46.2458 6.92463C46.2078 6.86009 46.1718 6.79618 46.1338 6.7329C46.0939 6.67089 46.0547 6.61204 46.0148 6.55256C45.9769 6.49435 45.9383 6.43487 45.899 6.37982C45.8585 6.32287 45.8168 6.26972 45.7757 6.2153C45.7358 6.16341 45.6966 6.11026 45.6567 6.06217C45.6149 6.01155 45.5719 5.96599 45.5282 5.91727C45.4884 5.87297 45.4485 5.82552 45.4074 5.78375C45.3637 5.73946 45.3182 5.69833 45.2745 5.65784C45.2334 5.61924 45.1922 5.58 45.1517 5.54394C45.1056 5.50534 45.0587 5.47243 45.0113 5.43763C44.9708 5.40663 44.9309 5.37436 44.8904 5.34715C44.8404 5.31361 44.7911 5.2864 44.7404 5.25793C44.7018 5.23578 44.6639 5.20984 44.6234 5.19022C44.5709 5.16428 44.5177 5.14466 44.4639 5.12378C44.4272 5.10923 44.3905 5.09025 44.3532 5.07822C44.2937 5.05861 44.233 5.04595 44.1729 5.03393C44.1419 5.02507 44.1102 5.01558 44.0805 5.00925C43.9881 4.9947 43.8957 4.98584 43.8033 4.98584C43.7116 4.98584 43.6211 4.9947 43.53 5.00925C43.4983 5.01431 43.4686 5.02507 43.4376 5.0314C43.3781 5.04469 43.318 5.05734 43.2591 5.07696C43.2231 5.08835 43.1889 5.1067 43.1528 5.11999C43.0984 5.14087 43.0446 5.16048 42.9921 5.18769C42.9523 5.20604 42.9149 5.23072 42.877 5.25223C42.827 5.28071 42.7776 5.30792 42.7276 5.34019C42.689 5.36613 42.6517 5.39714 42.6118 5.42561C42.5644 5.46168 42.5156 5.49585 42.4676 5.53571C42.4283 5.56798 42.391 5.60468 42.3511 5.63948C42.3056 5.68125 42.2587 5.72364 42.2132 5.7692C42.1746 5.80906 42.136 5.85336 42.0974 5.89512C42.0537 5.94321 42.0094 5.99004 41.9651 6.04192C41.9272 6.08748 41.8892 6.13684 41.8512 6.18682C41.8095 6.24187 41.7665 6.29503 41.726 6.35324Z" fill="#494CA8"/>
<path d="M38.8641 14.7272C38.8717 14.564 38.873 14.402 38.8825 14.2413C38.9091 13.7863 38.9483 13.3364 38.9976 12.8941C39.0002 12.8732 39.0008 12.8524 39.0027 12.8308C39.0559 12.3689 39.1229 11.9165 39.2008 11.4729C39.2254 11.328 39.259 11.1901 39.2868 11.0477C39.3343 10.8016 39.3792 10.5535 39.4343 10.3162C39.2571 10.2409 39.0875 10.1517 38.9154 10.0663C38.8097 10.0144 38.7009 9.96885 38.5971 9.91317C38.2852 9.74865 37.9795 9.57211 37.6853 9.38038C37.6448 9.35317 37.6068 9.32216 37.5663 9.29369C37.312 9.12284 37.0639 8.94504 36.8241 8.75331C36.7286 8.67674 36.6374 8.59385 36.5444 8.51476C36.4065 8.39706 36.2666 8.28633 36.135 8.16357C34.157 10.1384 33.0376 12.729 32.9604 15.5169H38.8363C38.8382 15.2531 38.854 14.9905 38.8641 14.7272Z" fill="#494CA8"/>
<path d="M37.2102 8.26107C37.4697 8.46988 37.7367 8.66667 38.0145 8.84828C38.0271 8.85587 38.0398 8.86157 38.0524 8.87042C38.3176 9.0419 38.5915 9.20136 38.8712 9.34879C38.9649 9.39941 39.0636 9.44371 39.1585 9.49116C39.3009 9.56014 39.4464 9.62594 39.5926 9.68985C39.6014 9.65505 39.6116 9.62405 39.6217 9.59114C39.6691 9.4184 39.7191 9.24882 39.7704 9.08303C39.7913 9.01406 39.8122 8.94319 39.8343 8.87422C39.9045 8.66034 39.9767 8.4528 40.052 8.25158C40.0564 8.24019 40.0602 8.2269 40.0653 8.21551C40.1456 8.00164 40.2291 7.79915 40.3158 7.60236C40.3411 7.54542 40.3665 7.49226 40.3924 7.43532C40.455 7.30054 40.5183 7.16576 40.5841 7.03857C40.617 6.9753 40.6493 6.91392 40.6816 6.85317C40.7448 6.73675 40.8094 6.62348 40.8746 6.51464C40.9087 6.45896 40.941 6.40328 40.9752 6.35013C41.0492 6.23243 41.1239 6.12296 41.2004 6.01539C41.2264 5.97806 41.2523 5.93756 41.2795 5.90276C41.3827 5.76292 41.4896 5.63194 41.5984 5.51108C41.6168 5.48893 41.637 5.47122 41.6567 5.45034C41.7459 5.35416 41.8357 5.26114 41.9281 5.17698C41.9408 5.16559 41.9534 5.15104 41.9654 5.13965C39.9798 5.47944 38.1258 6.36658 36.5996 7.72639C36.7236 7.84028 36.8483 7.95355 36.9761 8.06112C37.0539 8.12756 37.1299 8.1978 37.2102 8.26107Z" fill="#494CA8"/>
<path d="M51.1818 8.65992C51.0844 8.73902 50.9895 8.82444 50.8895 8.89974C50.6225 9.10476 50.3478 9.29522 50.065 9.47429C50.0422 9.48758 50.0213 9.50656 49.9985 9.51985C49.6917 9.71031 49.3746 9.88432 49.0507 10.0463C48.9494 10.0957 48.8438 10.1381 48.7406 10.1861C48.5603 10.269 48.3812 10.357 48.1958 10.4323C48.2426 10.6398 48.28 10.8588 48.3217 11.0727C48.3534 11.2359 48.3882 11.3928 48.4166 11.5586C48.4742 11.8959 48.521 12.2407 48.5634 12.5881C48.5761 12.6856 48.5932 12.7798 48.6039 12.8786C48.6546 13.3259 48.6932 13.7809 48.7216 14.2415C48.7299 14.3801 48.7305 14.5193 48.7362 14.6579C48.7482 14.9445 48.764 15.2312 48.7666 15.5191H54.6424C54.5658 12.8039 53.4977 10.264 51.6089 8.30811C51.471 8.43086 51.3248 8.54223 51.1818 8.65992Z" fill="#494CA8"/>
<path d="M50.4537 23.3327C50.1866 23.1264 49.9133 22.9283 49.6292 22.748C49.6216 22.7429 49.614 22.7392 49.6064 22.7347C49.3324 22.5607 49.0496 22.4013 48.761 22.2526C48.6648 22.2032 48.5649 22.1608 48.468 22.114C48.3231 22.045 48.1751 21.9805 48.0264 21.9185C48.015 21.959 48.0036 21.9976 47.9909 22.038C47.9485 22.1975 47.9017 22.3532 47.8555 22.5076C47.8302 22.5892 47.8055 22.6733 47.7796 22.755C47.7163 22.9492 47.6524 23.1378 47.5834 23.3213C47.5721 23.3536 47.5613 23.3871 47.5493 23.4187C47.4714 23.6288 47.3879 23.83 47.3019 24.0268C47.274 24.0901 47.2449 24.1502 47.2158 24.2135C47.1563 24.3457 47.0956 24.4729 47.0329 24.5963C46.9981 24.664 46.964 24.7298 46.9285 24.795C46.8672 24.9089 46.8051 25.019 46.7412 25.1259C46.7058 25.1842 46.671 25.2449 46.6343 25.3012C46.5622 25.4176 46.4869 25.5271 46.4109 25.6334C46.3837 25.672 46.3571 25.7125 46.3293 25.7511C46.2255 25.8897 46.1192 26.0207 46.0117 26.1428C45.987 26.1713 45.9617 26.1947 45.937 26.2206C45.8522 26.3124 45.7655 26.3997 45.6788 26.4801C45.6643 26.4933 45.6516 26.5098 45.6377 26.5205C47.6575 26.177 49.5368 25.2651 51.0769 23.8686C50.9472 23.7509 50.8169 23.6351 50.6821 23.5238C50.6062 23.4624 50.5321 23.3947 50.4537 23.3327Z" fill="#494CA8"/>
<path d="M48.7396 16.9285C48.7326 17.088 48.7314 17.2474 48.7225 17.4044C48.6959 17.8441 48.6592 18.2795 48.613 18.7085C48.608 18.749 48.6048 18.7901 48.6004 18.8306C48.5479 19.2754 48.4846 19.7133 48.4118 20.1417C48.3852 20.2936 48.3511 20.4397 48.322 20.5878C48.277 20.8226 48.2346 21.0636 48.1821 21.2908C48.3656 21.3674 48.5409 21.4566 48.7193 21.5407C48.8206 21.5888 48.925 21.6325 49.025 21.6831C49.3439 21.8464 49.6558 22.0229 49.9583 22.2159C49.9811 22.2292 50.0001 22.2456 50.0228 22.2602C50.3013 22.4405 50.5727 22.6323 50.8366 22.8373C50.9296 22.9113 51.0188 22.9917 51.1112 23.0682C51.2548 23.1878 51.401 23.3017 51.5396 23.4276C53.4733 21.4616 54.5654 18.8971 54.6433 16.1445H48.7674C48.7649 16.4084 48.7497 16.6678 48.7396 16.9285Z" fill="#494CA8"/>
<path d="M45.7587 25.4673C45.8023 25.4116 45.8454 25.356 45.8884 25.2965C45.9257 25.2446 45.9618 25.1889 45.9985 25.1345C46.039 25.0725 46.0826 25.0111 46.1225 24.9453C46.1592 24.8871 46.194 24.8257 46.2301 24.765C46.2693 24.6973 46.3079 24.6289 46.3478 24.5599C46.3826 24.4941 46.418 24.4264 46.4522 24.3587C46.4908 24.286 46.5275 24.2132 46.5635 24.1373C46.5977 24.067 46.6306 23.9924 46.6635 23.9196C46.6996 23.8405 46.7344 23.7627 46.7692 23.6798C46.8021 23.6045 46.8331 23.5254 46.8647 23.4475C46.8983 23.3634 46.9312 23.2792 46.9641 23.1919C46.9951 23.1103 47.0242 23.0261 47.0539 22.9445C47.0862 22.8527 47.1172 22.7629 47.1482 22.6699C47.1754 22.5845 47.2039 22.4984 47.2305 22.4117C47.2615 22.313 47.2912 22.2149 47.3203 22.1175C47.3456 22.0283 47.3703 21.9384 47.3944 21.8492C47.4089 21.7948 47.4235 21.7404 47.438 21.6859C47.2976 21.6366 47.159 21.5898 47.0179 21.5461C46.9008 21.5088 46.785 21.4695 46.6667 21.4373C46.4503 21.379 46.2332 21.3322 46.0137 21.2867C45.92 21.267 45.8251 21.2411 45.7302 21.2246C45.4644 21.1766 45.1961 21.1418 44.9285 21.1145C44.8772 21.1082 44.8279 21.1 44.7773 21.0949C44.1261 21.0367 43.4719 21.0367 42.822 21.0949C42.7708 21.1 42.7208 21.1082 42.6702 21.1145C42.4019 21.1418 42.1355 21.1778 41.8697 21.2246C41.7742 21.2417 41.6792 21.2664 41.585 21.2867C41.3667 21.3322 41.1496 21.379 40.9345 21.4373C40.8155 21.4708 40.6985 21.51 40.5808 21.5474C40.4416 21.5904 40.303 21.6366 40.165 21.6859C40.1796 21.7391 40.1929 21.7922 40.2068 21.8454C40.2315 21.9371 40.2568 22.027 40.2827 22.1175C40.3118 22.2162 40.3416 22.3155 40.3726 22.4117C40.3992 22.4984 40.4257 22.5832 40.4536 22.6673C40.4846 22.7635 40.5175 22.8565 40.5504 22.9489C40.5789 23.0293 40.608 23.1097 40.6371 23.1887C40.6706 23.278 40.7048 23.3653 40.7402 23.452C40.7706 23.5285 40.801 23.6038 40.832 23.6779C40.868 23.762 40.9041 23.8424 40.9408 23.9228C40.9731 23.9943 41.006 24.0664 41.0376 24.1341C41.0756 24.2132 41.1148 24.2885 41.1534 24.3638C41.187 24.4283 41.2199 24.4935 41.254 24.5568C41.2939 24.6295 41.3344 24.6992 41.3749 24.7694C41.4103 24.8276 41.4432 24.8883 41.4787 24.9434C41.5204 25.0098 41.5641 25.0731 41.6058 25.1364C41.6413 25.1908 41.6754 25.2452 41.7121 25.2958C41.7552 25.3566 41.8007 25.4123 41.845 25.4699C41.8817 25.5167 41.9172 25.5648 41.9551 25.6097C42.0001 25.6641 42.0462 25.7135 42.0924 25.7641C42.1291 25.8046 42.1658 25.847 42.2038 25.8862C42.25 25.933 42.2987 25.9754 42.3462 26.0197C42.3848 26.0533 42.4215 26.09 42.4594 26.1222C42.5075 26.1627 42.5569 26.1988 42.6069 26.2349C42.6448 26.2633 42.6815 26.2931 42.7195 26.319C42.7708 26.3526 42.8227 26.381 42.8733 26.4095C42.9112 26.4317 42.9486 26.4551 42.9853 26.4741C43.0397 26.5013 43.0947 26.5209 43.1492 26.543C43.1852 26.5563 43.2188 26.574 43.2542 26.5861C43.3162 26.6057 43.3782 26.6196 43.4402 26.6316C43.4693 26.6379 43.4978 26.6487 43.5282 26.6538C43.6193 26.6683 43.711 26.6772 43.8028 26.6772C43.8952 26.6772 43.9863 26.6683 44.0781 26.6538C44.1065 26.6487 44.1363 26.6379 44.1673 26.6316C44.228 26.6183 44.2894 26.6057 44.3501 26.5861C44.3856 26.5734 44.4197 26.5563 44.4552 26.543C44.5096 26.5209 44.5653 26.5013 44.6184 26.4741C44.6558 26.4557 44.6925 26.4323 44.7298 26.4108C44.7817 26.381 44.8329 26.3526 44.8848 26.319C44.9228 26.2931 44.9595 26.2633 44.9968 26.2349C45.0462 26.1988 45.0962 26.1634 45.1449 26.1222C45.1835 26.09 45.2208 26.0533 45.2594 26.0185C45.3062 25.9754 45.3531 25.933 45.3999 25.8862C45.4391 25.8464 45.4752 25.8033 45.5132 25.7628C45.5581 25.7135 45.6043 25.6641 45.6492 25.6097C45.6846 25.566 45.722 25.5167 45.7587 25.4673Z" fill="#494CA8"/>
<path d="M41.6716 26.2291C41.6444 26.1994 41.6159 26.1722 41.5881 26.1424C41.4818 26.0216 41.3767 25.8906 41.273 25.7533C41.2439 25.7134 41.216 25.6704 41.1882 25.6299C41.1129 25.5261 41.0388 25.4173 40.9667 25.3021C40.9313 25.2452 40.8971 25.1857 40.861 25.1269C40.7965 25.018 40.7338 24.9079 40.6718 24.7934C40.6377 24.7288 40.6041 24.6662 40.5706 24.5991C40.5061 24.4732 40.444 24.341 40.382 24.2075C40.3555 24.148 40.3276 24.0898 40.301 24.0284C40.2143 23.8316 40.1302 23.6278 40.0505 23.4152C40.0435 23.3956 40.0372 23.3747 40.0308 23.3558C39.9581 23.159 39.8878 22.9565 39.8208 22.7477C39.7974 22.6736 39.7746 22.5971 39.7518 22.5218C39.7031 22.361 39.6556 22.1991 39.6101 22.0326C39.598 21.9928 39.5866 21.9573 39.5759 21.9175C39.4329 21.9795 39.2899 22.0396 39.1494 22.1067C39.0444 22.156 38.9387 22.2016 38.8362 22.2547C38.5692 22.3921 38.3091 22.5414 38.0554 22.6983C38.0269 22.7179 37.9952 22.7318 37.9668 22.7502C37.6877 22.9293 37.4169 23.1248 37.153 23.3298C37.0689 23.3956 36.9892 23.4671 36.9063 23.5361C36.7765 23.6437 36.6494 23.7563 36.5234 23.8696C38.0648 25.2661 39.9423 26.1766 41.9639 26.5215C41.9488 26.5082 41.9348 26.4917 41.9215 26.4784C41.8368 26.4025 41.7539 26.3184 41.6716 26.2291Z" fill="#494CA8"/>
<path d="M24.3418 14.0434L28.1093 21.0981L29.6652 20.066L28.0485 10.5645L24.3418 14.0434Z" fill="#494CA8"/>
<path d="M14.0558 27.8555L13.206 24.605C12.4423 25.2289 11.5874 25.668 10.7769 25.8534L13.4174 28.4933L14.0558 27.8555Z" fill="#494CA8"/>
<path d="M32.6228 1.46054L31.6711 0.507603C30.6606 -0.502287 28.4719 0.0418888 26.7931 1.72124L23.4053 5.33243C23.4053 5.33243 23.4047 5.33243 23.4034 5.33369L19.5366 9.45678C19.5366 9.45678 19.5366 9.45678 19.5353 9.45678L9.57881 19.929C9.48833 20.0182 9.40733 20.1081 9.32634 20.1973C8.52147 21.0895 7.99501 22.1386 7.88364 23.0758C7.82289 23.5889 7.85706 24.3052 8.36201 24.8108L8.56829 25.0171C9.07387 25.5226 9.79142 25.5562 10.304 25.4954C11.2405 25.3841 12.2902 24.8589 13.1818 24.0534C13.2716 23.9717 13.3596 23.8914 13.4469 23.8047L23.9223 13.8425H23.9236L28.0466 9.97438L31.6635 6.58213C33.372 4.86988 33.5846 2.42171 32.6228 1.46054Z" fill="#494CA8"/>
<path d="M5.52581 19.3228L4.88672 19.9618L7.52787 22.603C7.71264 21.7924 8.15115 20.9369 8.77632 20.1745L5.52581 19.3228Z" fill="#494CA8"/>
<path d="M22.8131 5.33156L13.3128 3.71484L12.2808 5.27081L19.3342 9.03892L22.8131 5.33156Z" fill="#494CA8"/>
<path d="M7.15278 25.9205L0.571405 32.5013C0.486615 32.5867 0.486615 32.724 0.571405 32.8075C0.613168 32.8493 0.669484 32.8721 0.724534 32.8721C0.780217 32.8721 0.835268 32.8499 0.877663 32.8075L7.45904 26.2255C7.54383 26.1413 7.54383 26.004 7.45904 25.9205C7.37488 25.8351 7.2382 25.8351 7.15278 25.9205Z" fill="#494CA8"/>
<path d="M11.451 11.0118C11.3662 10.9277 11.2301 10.9277 11.146 11.0118L0.0631182 22.0953C-0.0210394 22.1795 -0.0210394 22.3168 0.0631182 22.4003C0.104881 22.4421 0.160564 22.4649 0.215614 22.4649C0.27193 22.4649 0.326981 22.4427 0.368743 22.4003L11.451 11.3181C11.5364 11.2346 11.5364 11.0973 11.451 11.0118Z" fill="#494CA8"/>
<path d="M22.0613 21.9268L10.9791 33.0103C10.8943 33.0945 10.8943 33.2318 10.9791 33.3166C11.0209 33.3583 11.0759 33.3798 11.1316 33.3798C11.1867 33.3798 11.243 33.359 11.2847 33.3166L22.367 22.235C22.4518 22.1496 22.4518 22.0122 22.367 21.9275C22.2822 21.8433 22.1449 21.8433 22.0613 21.9268Z" fill="#494CA8"/>
</svg>
