<svg width="242" height="241" viewBox="0 0 242 241" fill="none" xmlns="http://www.w3.org/2000/svg">
<path d="M20.5969 102.143C29.1829 67.1488 14.1533 57.6694 23.0741 38.4495C36.8005 8.87656 96.907 -4.15673 136.286 1.16147C184.518 7.67482 231.462 43.2354 239.67 97.0196C248.442 154.492 211.608 208.291 160.503 229.893C140.947 238.159 117.242 241.922 94.2993 240.809C91.1817 240.657 87.7952 239.627 84.7184 239.293C82.307 239.033 80.1921 239.506 77.8189 239.133C70.963 238.056 64.2915 236.508 57.9482 234.48C55.0176 233.543 53.1004 230.655 50.3227 229.511C47.1694 228.212 43.1808 228.627 40.2647 227.057C31.4388 222.308 23.7962 216.318 17.9127 209.043C14.857 205.264 -1.48635 184.452 0.109378 157.174C1.43102 134.629 13.791 129.882 20.5969 102.143Z" fill="#D9E5FF"/>
<path d="M69.6528 174.644H183.262C184.993 174.644 186.544 173.605 187.165 172.033L241.02 35.9276C241.555 34.5704 241.293 33.1631 240.519 32.1076C239.775 31.093 237.622 28.0952 237.622 28.0952L123.509 30.4051C121.778 30.4051 120.227 31.4435 119.606 33.0155L63.7363 169.783C63.7363 169.783 65.506 172.031 66.3743 173.101C67.1268 174.027 68.2916 174.644 69.6528 174.644Z" fill="black"/>
<path d="M66.8903 170.589H180.499C182.23 170.589 183.781 169.55 184.402 167.978L237.919 32.2549C238.969 29.5918 236.948 26.7324 234.016 26.7324H120.407C118.676 26.7324 117.125 27.7708 116.504 29.3428L62.9873 165.065C61.9371 167.728 63.9584 170.589 66.8903 170.589Z" fill="white"/>
<path d="M180.497 171.025H66.8899C65.339 171.025 63.9014 170.273 63.0436 169.011C62.2055 167.781 62.0382 166.284 62.5811 164.906L116.098 29.182C116.779 27.4558 118.51 26.2949 120.407 26.2949H234.015C235.566 26.2949 237.004 27.0473 237.862 28.3084C238.7 29.5391 238.867 31.036 238.324 32.4143L184.808 168.138C184.126 169.865 182.395 171.025 180.497 171.025ZM120.405 27.1699C118.865 27.1699 117.459 28.1081 116.908 29.5035L63.3928 165.226C62.9566 166.331 63.0923 167.533 63.7643 168.52C64.4601 169.541 65.6276 170.151 66.8899 170.151H180.499C182.039 170.151 183.445 169.213 183.994 167.818L237.51 32.0954C237.946 30.9899 237.81 29.7881 237.138 28.8012C236.443 27.78 235.275 27.1699 234.014 27.1699H120.405Z" fill="black"/>
<path d="M57.4135 162.128H171.022C172.754 162.128 174.305 161.09 174.925 159.518L228.442 23.7944C229.492 21.1314 227.471 18.272 224.539 18.272H110.93C109.199 18.272 107.648 19.3103 107.027 20.8823L53.5118 156.606C52.4616 159.268 54.4816 162.128 57.4135 162.128Z" fill="white"/>
<path d="M171.022 162.565H57.4133C55.8624 162.565 54.4248 161.812 53.567 160.551C52.7289 159.32 52.5616 157.824 53.1045 156.445L106.621 20.723C107.302 18.9968 109.034 17.8359 110.93 17.8359H224.539C226.09 17.8359 227.527 18.5883 228.385 19.8494C229.223 21.0801 229.391 22.577 228.848 23.9553L175.331 159.679C174.651 161.405 172.918 162.565 171.022 162.565ZM110.93 18.7096C109.39 18.7096 107.984 19.6478 107.434 21.0432L53.9175 156.765C53.4813 157.871 53.6171 159.073 54.2891 160.06C54.9848 161.081 56.1523 161.691 57.4133 161.691H171.022C172.562 161.691 173.968 160.753 174.519 159.357L228.035 23.6351C228.471 22.5296 228.335 21.3278 227.663 20.3409C226.967 19.3197 225.8 18.7096 224.538 18.7096H110.93Z" fill="black"/>
<path d="M66.7396 154.016H166.839C168.364 154.016 169.732 153.101 170.279 151.716L217.432 32.1319C218.357 29.7851 216.577 27.2656 213.993 27.2656H113.893C112.369 27.2656 111.001 28.1801 110.454 29.565L63.3004 149.151C62.3754 151.496 64.1556 154.016 66.7396 154.016Z" fill="#D9DFEB"/>
<path d="M157.351 106.774H112.446C107.799 106.774 104.609 102.097 106.303 97.7702C107.293 95.2429 109.731 93.5786 112.446 93.5786H157.351C161.998 93.5786 165.188 98.2551 163.494 102.582C162.503 105.111 160.065 106.774 157.351 106.774Z" fill="white"/>
<path d="M132.986 68.2631H165.456C166.271 68.2631 166.934 67.6016 166.934 66.7846C166.934 65.9689 166.272 65.3062 165.456 65.3062H132.986C132.171 65.3062 131.508 65.9676 131.508 66.7846C131.509 67.6016 132.171 68.2631 132.986 68.2631Z" fill="white"/>
<path d="M119.101 75.7645H168.478C169.294 75.7645 169.956 75.103 169.956 74.2861C169.956 73.4704 169.295 72.8076 168.478 72.8076H119.101C118.286 72.8076 117.623 73.4691 117.623 74.2861C117.623 75.103 118.285 75.7645 119.101 75.7645Z" fill="white"/>
<path d="M123.047 83.4549H155.516C156.332 83.4549 156.995 82.7935 156.995 81.9765C156.995 81.1609 156.333 80.498 155.516 80.498H123.047C122.231 80.498 121.568 81.1595 121.568 81.9765C121.568 82.7935 122.23 83.4549 123.047 83.4549Z" fill="white"/>
<path d="M166.884 154.258H155.772C155.531 154.258 155.336 154.063 155.336 153.822C155.336 153.581 155.531 153.386 155.772 153.386H166.884C168.22 153.386 169.439 152.573 169.916 151.363L181.613 121.699C181.702 121.475 181.956 121.364 182.18 121.453C182.404 121.541 182.515 121.795 182.426 122.019L170.729 151.683C170.122 153.222 168.576 154.258 166.884 154.258Z" fill="black"/>
<path d="M101.241 53.5398C101.187 53.5398 101.133 53.5293 101.08 53.5082C100.856 53.4186 100.747 53.1656 100.835 52.9416L108.632 33.3133C108.72 33.0893 108.975 32.9799 109.199 33.0682C109.423 33.1578 109.532 33.4108 109.444 33.6348L101.647 53.2631C101.578 53.4344 101.415 53.5398 101.241 53.5398Z" fill="black"/>
<path d="M206.643 59.8467C206.59 59.8467 206.535 59.8362 206.484 59.8164C206.26 59.7281 206.149 59.4738 206.237 59.2498L217.07 31.7759C217.448 30.818 217.331 29.777 216.748 28.9218C216.145 28.0363 215.132 27.5066 214.038 27.5066H123.418C123.176 27.5066 122.981 27.3116 122.981 27.0704C122.981 26.8293 123.176 26.6343 123.418 26.6343H214.038C215.421 26.6343 216.705 27.3063 217.47 28.4303C218.218 29.5292 218.369 30.8654 217.883 32.0961L207.05 59.57C206.982 59.7413 206.817 59.8467 206.643 59.8467Z" fill="black"/>
<path d="M148.685 90.37L145.045 94.0103L145.663 94.628L149.303 90.9877L148.685 90.37Z" fill="black"/>
<path d="M145.662 105.688L145.044 106.306L148.684 109.946L149.302 109.328L145.662 105.688Z" fill="black"/>
<path d="M130.341 90.371L129.724 90.9888L133.364 94.6291L133.982 94.0113L130.341 90.371Z" fill="black"/>
<path d="M140.752 103.741L140.384 102.949C141.587 102.391 142.364 101.172 142.364 99.8463C142.364 97.9607 140.83 96.4256 138.943 96.4256C137.804 96.4256 136.745 96.9895 136.107 97.9343L135.384 97.4454C136.185 96.2608 137.516 95.5532 138.944 95.5532C141.312 95.5532 143.237 97.4797 143.237 99.8463C143.237 101.511 142.261 103.04 140.752 103.741Z" fill="black"/>
<path d="M143.756 41.2115C148.28 34.6165 156.247 31.6649 161.552 34.6218C166.857 37.5774 167.489 45.3214 162.965 51.9165C162.682 52.3289 162.387 52.7269 162.079 53.1103C157.456 58.8581 153.047 56.9079 148.074 54.1368C145.372 52.6307 140.977 54.2514 140.765 51.0442C140.559 47.9568 141.538 44.4465 143.756 41.2115Z" fill="white"/>
<path d="M140.768 51.0439C140.981 54.2512 142.467 57.0012 145.17 58.5073C150.143 61.2784 157.455 58.8591 162.077 53.1114C154.742 46.4359 144.746 49.435 140.768 51.0439Z" fill="#91AAFF"/>
<path d="M157.817 45.2301L160.092 42.2521C160.952 41.1255 161.076 39.7037 160.396 38.7642C160.2 38.4914 159.188 38.3636 158.392 38.2688C157.828 38.2016 157.361 37.9011 157.092 37.4333L156.731 36.8035C156.264 36.37 155.581 36.1973 154.87 36.3818C154.626 36.4451 154.383 36.5386 154.147 36.6612L153.914 36.7824C152.809 37.3582 152.019 38.4888 151.907 39.6536L151.567 43.6515L157.817 45.2301Z" fill="black"/>
<path d="M156.925 39.9003L152.961 39.7725L150.799 45.2778C150.359 46.2898 150.551 47.2332 151.093 47.7234L150.355 49.4206C149.856 50.5683 150.306 51.7213 151.36 51.9954C152.416 52.2695 153.676 51.5619 154.175 50.4141L155.248 47.9501C156.382 47.4362 157.361 46.3939 157.899 45.1565L158.778 43.1352C159.575 41.3049 159.115 40.2429 156.925 39.9003Z" fill="white"/>
<path d="M151.841 52.4938C151.642 52.4938 151.445 52.4701 151.252 52.4187C150.666 52.2658 150.199 51.8863 149.938 51.3513C149.638 50.732 149.645 49.9651 149.957 49.247L150.674 47.5999C150.77 47.3785 151.027 47.277 151.248 47.3732C151.47 47.4694 151.571 47.7264 151.475 47.9477L150.758 49.5949C150.547 50.0798 150.535 50.5792 150.724 50.9692C150.873 51.2762 151.132 51.4857 151.472 51.574C152.313 51.7928 153.367 51.1814 153.777 50.2405L154.849 47.7764C154.946 47.5551 155.203 47.4536 155.424 47.5498C155.645 47.646 155.747 47.9029 155.651 48.1243L154.578 50.5884C154.076 51.7414 152.949 52.4938 151.841 52.4938Z" fill="black"/>
<path d="M153.343 48.7104C153.322 48.7104 153.301 48.7091 153.28 48.7065L151.924 48.5088C151.094 48.4416 150.671 48.0147 150.462 47.6668C149.917 46.7629 150.181 45.3859 150.611 44.3989L152.577 39.7014C152.646 39.534 152.818 39.4273 152.993 39.4339L156.705 39.5459C157.772 39.4471 158.625 39.7567 159.11 40.4222C159.637 41.1456 159.662 42.1984 159.177 43.3105L158.298 45.3319C157.407 47.3796 155.462 48.7052 153.343 48.7104ZM153.267 40.3154L151.414 44.7415C151.059 45.5572 150.86 46.6351 151.21 47.2148C151.364 47.4705 151.625 47.6088 152.006 47.6378C152.017 47.6391 152.026 47.6392 152.036 47.6418L153.374 47.8368C155.133 47.8197 156.748 46.7023 157.497 44.984L158.377 42.9627C158.734 42.1417 158.745 41.4025 158.405 40.9361C158.102 40.5197 157.535 40.3405 156.763 40.4182C156.744 40.4195 156.726 40.4208 156.706 40.4195L153.267 40.3154Z" fill="black"/>
<path d="M78.4517 156.891C79.1869 150.924 78.7653 151.839 78.7653 151.839L53.7489 153.312C53.7489 153.312 51.4693 168.813 51.327 169.873C51.2071 170.766 45.0996 202.246 40.2676 227.053C45.7505 230.003 51.6893 232.474 57.9484 234.475C62.5748 224.091 67.5438 211.537 71.0304 198.927C73.7752 210.068 76.4751 225.881 77.8178 239.133C83.2204 239.982 88.7362 240.538 94.2982 240.808C97.7598 218.15 101.142 181.79 92.5444 157.487L78.4517 156.891Z" fill="black"/>
<path d="M71.5327 203.372C71.3232 203.372 71.1387 203.222 71.1031 203.009C70.1544 197.414 67.6561 190.232 65.7889 186.52C63.5712 182.111 63.3274 177.598 63.1667 174.612C63.1535 174.371 63.338 174.166 63.5791 174.152C63.8163 174.141 64.0258 174.324 64.039 174.565C64.1958 177.478 64.433 181.881 66.569 186.128C68.4651 189.896 71.0004 197.187 71.9636 202.862C72.0044 203.099 71.8437 203.326 71.6065 203.366C71.5815 203.37 71.5577 203.372 71.5327 203.372Z" fill="#D9E5FF"/>
<path d="M97.6208 80.544L97.522 80.2317C97.1662 79.1156 97.0358 77.9455 97.0898 76.7754C97.1386 75.6989 97.3151 73.7355 96.9356 73.1201C95.8683 71.3847 91.7255 64.0689 84.3978 67.3144C78.6843 69.8457 79.106 78.7559 79.4038 81.78C79.4736 82.4797 79.3708 83.186 79.1086 83.8382C79.0954 83.8725 79.0796 83.9054 79.0638 83.9397L75.6589 90.9169C75.1674 91.9328 75.3716 93.1477 76.1649 93.9489L76.6037 94.3903C77.5669 95.5196 79.7015 96.0809 81.1602 96.2114C82.2236 96.3062 83.034 96.2127 83.8233 95.7989C84.5731 95.4063 84.8761 94.9082 85.0988 94.0807C85.0988 94.0807 86.8672 88.2182 87.5774 88.6715C89.9651 90.1961 91.2393 89.9616 92.723 88.2222C93.6533 87.1312 94.8919 85.4142 95.7866 82.8368C95.8802 82.568 96.066 82.3413 96.3058 82.1898L97.3349 81.5415C97.6222 81.2977 97.7355 80.9037 97.6208 80.544Z" fill="white"/>
<path d="M81.8583 96.6826C81.6264 96.6826 81.3813 96.6707 81.1204 96.647C79.5445 96.5073 77.3347 95.9104 76.2806 94.6876L75.8536 94.2567C74.9299 93.3264 74.6941 91.9072 75.2633 90.7279L78.6695 83.7481C78.6814 83.7244 78.6919 83.6993 78.7025 83.6756C78.9384 83.0892 79.0293 82.4489 78.9673 81.8243C78.6089 78.1993 78.4047 69.492 84.2183 66.9159C89.1544 64.7298 93.5186 66.6774 97.191 72.7058L97.3043 72.8916C97.6733 73.4912 97.6364 74.7403 97.5481 76.3097C97.5389 76.485 97.5297 76.6484 97.5231 76.7959C97.4704 77.9634 97.6087 79.0742 97.9355 80.0994L98.0357 80.4104C98.2043 80.9401 98.0396 81.5146 97.6153 81.8743C97.5995 81.8875 97.5837 81.8994 97.5652 81.9112L96.5361 82.5595C96.3767 82.6597 96.2555 82.8099 96.1962 82.9799C95.4714 85.0684 94.4423 86.8763 93.0522 88.5063C91.4064 90.4341 89.891 90.6172 87.5086 89.1467C87.054 89.6922 86.1488 92.1023 85.5136 94.2079C85.2896 95.0407 84.9483 95.7022 84.0233 96.1871C83.379 96.5244 82.7043 96.6826 81.8583 96.6826ZM88.0172 66.9304C86.9657 66.9304 85.8193 67.1636 84.5741 67.7144C79.281 70.0586 79.4984 78.3021 79.8383 81.7373C79.9134 82.5016 79.8014 83.2843 79.5142 84.0011C79.4957 84.0459 79.4773 84.0881 79.4562 84.1315L76.0513 91.1087C75.6428 91.9547 75.8128 92.9732 76.4756 93.6413L76.9144 94.0828C76.9223 94.0907 76.9289 94.0986 76.9368 94.1065C77.759 95.071 79.671 95.6403 81.1995 95.776C82.2471 95.8682 82.9494 95.7641 83.6214 95.4123C84.2091 95.1053 84.4661 94.7535 84.6769 93.9668C85.2817 91.96 86.4189 88.5669 87.2754 88.2493C87.4599 88.1808 87.6496 88.2006 87.8117 88.3034C90.1611 89.8042 91.1599 89.3812 92.3907 87.9383C93.7097 86.3927 94.6861 84.6771 95.3739 82.6926C95.4978 82.3355 95.7468 82.0259 96.0736 81.819L97.0724 81.1891C97.2121 81.0574 97.2648 80.8584 97.2055 80.6739L97.1054 80.3616C96.747 79.2376 96.5954 78.024 96.6534 76.7525C96.66 76.6023 96.6692 76.4349 96.6797 76.257C96.7285 75.3847 96.8181 73.76 96.5638 73.3449L96.4478 73.1552C95.4121 71.4606 92.6516 66.9304 88.0172 66.9304Z" fill="black"/>
<path d="M93.1897 63.0764C95.0556 64.037 95.8949 65.7895 96.9201 66.0636C100.64 67.0598 102.404 68.9942 101.109 72.1487C98.952 77.3997 92.4215 75.0331 91.059 75.0463C89.7848 75.0582 87.6765 75.8251 86.4365 78.3801C86.2771 78.7095 85.9134 78.8927 85.555 78.836C85.136 78.7701 84.8369 78.3972 84.8698 77.9716C84.9779 76.6289 85.0319 73.9105 83.7564 73.5297C82.1554 73.0513 79.6333 76.7751 81.9248 79.2998C82.6284 80.0746 82.6139 81.3989 81.851 82.1434C81.3529 82.6296 80.2922 82.8497 79.3764 82.3925C78.8177 82.1144 78.508 81.5544 78.3077 80.9641C77.4815 78.525 76.4102 70.1537 79.1813 65.6762C82.5191 60.2829 90.7059 61.7969 93.1897 63.0764Z" fill="black"/>
<path d="M87.5498 89.093C87.4694 89.093 87.3878 89.0706 87.314 89.0245C85.5917 87.9202 84.5178 86.2547 83.9196 85.0516C83.8129 84.8355 83.8998 84.5733 84.1159 84.4666C84.3307 84.3585 84.5942 84.4468 84.701 84.6629C85.2491 85.7671 86.2308 87.293 87.7844 88.2892C87.9873 88.4196 88.0466 88.6898 87.9161 88.8927C87.8345 89.0231 87.6935 89.093 87.5498 89.093Z" fill="black"/>
<path d="M40.9234 188.762L3.89094 178.055C3.4113 177.916 3.13459 177.414 3.27294 176.934L9.85877 154.159C9.99713 153.68 10.4992 153.403 10.9788 153.542L48.0112 164.249C48.4909 164.387 48.7676 164.889 48.6292 165.369L42.0434 188.144C41.905 188.625 41.403 188.9 40.9234 188.762Z" fill="white"/>
<path d="M40.4289 188.974C40.2062 188.974 39.9782 188.942 39.7542 188.878L4.82219 178.776C4.19761 178.596 3.68107 178.183 3.36614 177.613C3.05253 177.043 2.97874 176.386 3.15927 175.761L9.13763 155.087C9.51054 153.798 10.8625 153.051 12.1525 153.425L47.0845 163.527C47.7091 163.707 48.2256 164.12 48.5406 164.69C48.8542 165.259 48.928 165.917 48.7475 166.541L42.7691 187.216C42.4594 188.279 41.4843 188.974 40.4289 188.974ZM11.4752 154.203C10.7979 154.203 10.172 154.648 9.97569 155.331L3.99732 176.005C3.88136 176.406 3.9288 176.827 4.1304 177.192C4.33201 177.557 4.66275 177.822 5.06333 177.938L39.9953 188.04C40.8215 188.278 41.6886 187.801 41.9284 186.974L47.9068 166.299C48.0227 165.898 47.9753 165.477 47.7737 165.112C47.5721 164.747 47.2413 164.482 46.8408 164.366L11.9087 154.266C11.7651 154.222 11.6188 154.203 11.4752 154.203Z" fill="black"/>
<path d="M9.3125 156.621L9.53255 157.018C11.4287 160.44 14.603 162.971 18.3624 164.058L36.4148 169.279C40.1834 170.369 44.2313 169.917 47.6679 168.022L9.3125 156.621Z" fill="white"/>
<path d="M40.5441 170.303C39.1236 170.303 37.6952 170.103 36.2919 169.697L18.2382 164.478C14.3418 163.351 11.1134 160.776 9.14876 157.229L8.93002 156.833C8.81275 156.622 8.88917 156.356 9.1 156.24C9.31083 156.122 9.57701 156.199 9.69296 156.41L9.9117 156.806C11.7644 160.151 14.8082 162.576 18.4807 163.638L36.5344 168.858C40.2186 169.923 44.0966 169.489 47.4541 167.638C47.6662 167.522 47.9311 167.598 48.047 167.809C48.163 168.02 48.0866 168.286 47.8757 168.402C45.5935 169.663 43.082 170.303 40.5441 170.303Z" fill="black"/>
<path d="M29.6454 164.449L26.748 163.611L24.7929 170.371L27.6903 171.209L29.6454 164.449Z" fill="black"/>
<path d="M129.232 111.5C129.232 111.5 128.364 105.007 131.488 102.751C133.854 101.042 137.299 99.9785 138.635 99.5818C139.022 99.4672 139.744 99.5489 139.912 99.9178C139.912 99.9178 140.212 100.618 139.211 101.091L136.321 102.296C136.05 102.424 136.009 102.792 136.246 102.975C136.975 103.539 138.298 105.103 138.511 105.956C138.867 107.379 138.107 108.642 136.749 109.806C135.392 110.969 135.036 111.191 134.972 111.5C134.907 111.81 134.874 113.038 134.874 113.038L129.232 111.5Z" fill="white"/>
<path d="M134.876 113.474C134.838 113.474 134.799 113.469 134.761 113.459L129.119 111.921C128.949 111.875 128.824 111.731 128.801 111.557C128.764 111.282 127.937 104.778 131.235 102.395C132.911 101.184 135.361 100.096 138.514 99.1617C139.067 98.997 140.028 99.1077 140.313 99.7362C140.477 100.12 140.493 100.968 139.401 101.483L136.566 102.667C137.288 103.248 138.685 104.836 138.938 105.848C139.307 107.321 138.685 108.723 137.037 110.135C136.721 110.407 136.457 110.627 136.241 110.81C135.784 111.195 135.421 111.498 135.403 111.588C135.363 111.775 135.328 112.553 135.315 113.048C135.311 113.182 135.246 113.307 135.138 113.386C135.06 113.445 134.968 113.474 134.876 113.474ZM129.635 111.158L134.458 112.472C134.475 112.083 134.503 111.611 134.545 111.411C134.625 111.025 134.89 110.804 135.676 110.143C135.89 109.963 136.151 109.744 136.465 109.474C137.837 108.299 138.368 107.182 138.087 106.061C137.916 105.379 136.717 103.891 135.979 103.32C135.747 103.14 135.627 102.859 135.659 102.567C135.69 102.274 135.869 102.025 136.136 101.9L139.042 100.686C139.637 100.406 139.511 100.092 139.51 100.088C139.45 100.006 139.025 99.9194 138.759 99.9984C135.701 100.905 133.341 101.95 131.744 103.103C129.226 104.924 129.518 109.91 129.635 111.158Z" fill="black"/>
<path d="M24.4255 151.305L22.7164 153.94C22.188 154.753 21.9153 155.706 21.9324 156.676L29.2021 158.681C29.2021 158.681 29.9782 162.613 31.566 162.795C33.6309 163.031 32.2605 160.675 32.2012 160.027C32.1419 159.378 32.2064 157.15 31.8309 155.139C31.4554 153.129 29.8346 150.857 29.8346 150.857L24.4255 151.305Z" fill="white"/>
<path d="M31.8342 163.247C31.7341 163.247 31.6286 163.241 31.518 163.229C29.8761 163.04 29.0565 160.015 28.8325 159.032L21.8171 157.096C21.63 157.045 21.4995 156.876 21.4969 156.683C21.4785 155.622 21.7736 154.591 22.3508 153.702L24.0598 151.067C24.1336 150.953 24.2548 150.881 24.3906 150.869L29.7997 150.42C29.9539 150.406 30.1014 150.476 30.191 150.601C30.2596 150.698 31.8724 152.976 32.2611 155.058C32.5431 156.565 32.5826 158.208 32.6064 159.19C32.6156 159.546 32.6222 159.827 32.6367 159.985C32.6446 160.077 32.7263 160.313 32.7974 160.521C33.0412 161.236 33.3759 162.217 32.8884 162.823C32.6604 163.106 32.3073 163.247 31.8342 163.247ZM22.3758 156.344L29.3187 158.26C29.4782 158.303 29.5994 158.434 29.631 158.596C29.9288 160.099 30.7405 162.26 31.6155 162.36C31.9159 162.395 32.136 162.363 32.2058 162.276C32.3916 162.046 32.1056 161.206 31.9686 160.804C31.8645 160.501 31.7828 160.261 31.7657 160.065C31.7485 159.877 31.742 159.584 31.7327 159.211C31.7077 158.194 31.6708 156.656 31.402 155.217C31.1108 153.658 30.0079 151.898 29.6178 151.31L24.6765 151.72L23.0834 154.175C22.6604 154.83 22.4193 155.573 22.3758 156.344Z" fill="black"/>
<path d="M135.681 113.133C134.36 110.449 130.175 110.868 128.45 111.354C128.271 111.404 128.116 111.516 128.002 111.663C125.64 114.73 123.535 116.36 121.767 117.233C119.909 118.15 117.681 117.87 116.061 116.575C109.445 111.286 98.2858 102.156 98.2858 102.156C94.5475 100.056 91.0121 98.4015 87.6902 97.1114C85.0654 91.9303 82.936 91.4032 78.079 90.3807C76.9826 90.1501 76.0392 90.0486 75.2433 90.0275C73.3946 89.9775 71.6328 90.8076 70.4627 92.2399L69.7854 93.0688C59.9963 92.5931 53.7504 96.6845 52.7635 97.3789C41.5842 105.25 45.6769 107.984 34.9654 119.325C24.2539 130.666 23.624 150.512 23.624 150.512C23.6214 153.722 28.1266 153.194 30.4642 152.704C31.2548 152.538 31.8398 151.875 31.9097 151.07C32.0546 149.401 57.4558 104.244 53.5844 139.615C53.1271 143.793 53.761 150.948 52.3998 154.663C50.949 158.621 52.6277 163.096 56.3898 164.999C62.3536 168.015 71.6315 167.408 74.9547 167.127C80.0133 166.699 85.5002 166.269 89.7867 164.469C91.6248 163.697 93.6567 162.104 94.8677 161.07C95.541 160.495 95.8612 159.61 95.7176 158.736C95.1984 155.581 94.0349 147.482 94.4078 140.113C94.6937 134.476 95.9521 129.179 96.4647 127.209C96.5688 126.811 97.026 126.626 97.3752 126.843C100.369 128.703 112.496 135.618 121.685 131.826C134.547 126.521 136.111 114.01 135.681 113.133Z" fill="#91AAFF"/>
<path d="M128.073 201.54C126.876 201.54 125.902 200.566 125.902 199.37C125.902 198.173 126.876 197.2 128.073 197.2C129.269 197.2 130.243 198.173 130.243 199.37C130.243 200.566 129.269 201.54 128.073 201.54ZM128.073 198.073C127.357 198.073 126.776 198.654 126.776 199.37C126.776 200.085 127.358 200.667 128.073 200.667C128.788 200.667 129.369 200.085 129.369 199.37C129.369 198.656 128.788 198.073 128.073 198.073Z" fill="black"/>
<path d="M17.5493 32.4537C15.7678 32.4537 14.3184 31.0042 14.3184 29.2227C14.3184 27.4412 15.7678 25.9917 17.5493 25.9917C19.3309 25.9917 20.7803 27.4412 20.7803 29.2227C20.7803 31.0042 19.3309 32.4537 17.5493 32.4537ZM17.5493 26.864C16.2488 26.864 15.192 27.9221 15.192 29.2214C15.192 30.5219 16.2501 31.5787 17.5493 31.5787C18.8499 31.5787 19.9067 30.5206 19.9067 29.2214C19.9067 27.9221 18.8499 26.864 17.5493 26.864Z" fill="black"/>
<path d="M15.6428 44.5466C14.362 44.5466 13.3184 43.5043 13.3184 42.2235C13.3184 40.9427 14.3607 39.9004 15.6428 39.9004C16.9236 39.9004 17.9659 40.9427 17.9659 42.2235C17.9659 43.5043 16.9236 44.5466 15.6428 44.5466ZM15.6428 40.7727C14.8429 40.7727 14.192 41.4236 14.192 42.2235C14.192 43.0233 14.8429 43.6743 15.6428 43.6743C16.4426 43.6743 17.0936 43.0233 17.0936 42.2235C17.0936 41.4236 16.4426 40.7727 15.6428 40.7727Z" fill="black"/>
<path d="M209.756 136.732C209.701 136.732 209.647 136.721 209.593 136.7C209.369 136.611 209.26 136.358 209.35 136.132L219.852 109.771C219.941 109.547 220.194 109.437 220.42 109.527C220.644 109.617 220.753 109.87 220.663 110.095L210.161 136.457C210.093 136.628 209.929 136.732 209.756 136.732Z" fill="black"/>
<path d="M81.9108 52.1353C81.8568 52.1353 81.8027 52.1248 81.7487 52.1037C81.5247 52.0141 81.4153 51.7611 81.5049 51.5357L92.0069 25.174C92.0965 24.95 92.3509 24.8406 92.5749 24.9302C92.7989 25.0198 92.9082 25.2728 92.8186 25.4982L82.3166 51.8599C82.2481 52.0312 82.0847 52.1353 81.9108 52.1353Z" fill="black"/>
<path d="M216.019 145.483C215.965 145.483 215.911 145.473 215.857 145.452C215.633 145.362 215.524 145.108 215.613 144.884L220.292 133.139C220.382 132.915 220.635 132.806 220.86 132.896C221.084 132.985 221.194 133.238 221.104 133.463L216.425 145.208C216.357 145.379 216.192 145.483 216.019 145.483Z" fill="black"/>
<path d="M72.1129 57.5352C72.0589 57.5352 72.0049 57.5247 71.9509 57.5036C71.7269 57.414 71.6175 57.161 71.7071 56.9357L76.3862 45.1911C76.4758 44.9671 76.7301 44.8577 76.9541 44.9473C77.1781 45.0369 77.2875 45.2899 77.1979 45.5152L72.5188 57.2598C72.4503 57.4311 72.2869 57.5352 72.1129 57.5352Z" fill="black"/>
<path d="M144.226 192.902C144.172 192.902 144.118 192.891 144.064 192.87C143.84 192.781 143.731 192.526 143.82 192.302L154.322 165.941C154.412 165.717 154.665 165.607 154.89 165.697C155.114 165.786 155.224 166.039 155.134 166.265L144.632 192.627C144.564 192.798 144.4 192.902 144.226 192.902Z" fill="black"/>
<path d="M111.92 192.398C111.865 192.398 111.81 192.387 111.756 192.365C111.532 192.274 111.425 192.019 111.516 191.795L116.572 179.363C116.663 179.139 116.917 179.032 117.141 179.123C117.365 179.214 117.472 179.468 117.381 179.692L112.325 192.125C112.256 192.295 112.093 192.398 111.92 192.398Z" fill="black"/>
<path d="M32.1017 15.8074C31.9713 15.8074 31.8408 15.7574 31.742 15.6585C31.543 15.4596 31.543 15.1367 31.742 14.9378L32.8923 13.7874C33.0913 13.5884 33.4142 13.5884 33.6131 13.7874C33.8121 13.9864 33.8121 14.3092 33.6131 14.5082L32.4628 15.6585C32.3626 15.7574 32.2322 15.8074 32.1017 15.8074Z" fill="black"/>
<path d="M27.2619 20.6473C27.1314 20.6473 27.001 20.5972 26.9022 20.4984C26.7032 20.2994 26.7032 19.9766 26.9022 19.7776L28.0525 18.6273C28.2515 18.4283 28.5743 18.4283 28.7733 18.6273C28.9723 18.8262 28.9723 19.1491 28.7733 19.348L27.6229 20.4984C27.5215 20.5985 27.391 20.6473 27.2619 20.6473Z" fill="black"/>
<path d="M33.2521 20.6473C33.1216 20.6473 32.9912 20.5972 32.8923 20.4984L31.742 19.348C31.543 19.1491 31.543 18.8262 31.742 18.6273C31.941 18.4283 32.2638 18.4283 32.4628 18.6273L33.6131 19.7776C33.8121 19.9766 33.8121 20.2994 33.6131 20.4984C33.513 20.5985 33.3825 20.6473 33.2521 20.6473Z" fill="black"/>
<path d="M28.4122 15.8074C28.2818 15.8074 28.1513 15.7574 28.0525 15.6585L26.9022 14.5082C26.7032 14.3092 26.7032 13.9864 26.9022 13.7874C27.1011 13.5884 27.424 13.5884 27.6229 13.7874L28.7733 14.9378C28.9723 15.1367 28.9723 15.4596 28.7733 15.6585C28.6718 15.7574 28.5414 15.8074 28.4122 15.8074Z" fill="black"/>
</svg>
