<svg width="818" height="345" viewBox="0 0 818 345" fill="none" xmlns="http://www.w3.org/2000/svg">
<rect width="818" height="345" rx="8" fill="transparent"/>
<path d="M409 190.5C434.353 190.5 455 169.853 455 144.5C455 119.147 434.353 98.5 409 98.5C383.647 98.5 363 119.147 363 144.5C363 169.853 383.647 190.5 409 190.5ZM409 102.779C432 102.779 450.721 121.5 450.721 144.5C450.721 167.5 432 186.221 409 186.221C386 186.221 367.279 167.5 367.279 144.5C367.279 121.5 386 102.779 409 102.779Z" fill="#4EBD6D"/>
<path d="M400.121 161.509C400.549 161.937 401.084 162.151 401.619 162.151C402.154 162.151 402.688 161.937 403.116 161.509L434.033 130.593C434.888 129.737 434.888 128.453 434.033 127.598C433.177 126.742 431.893 126.742 431.037 127.598L401.619 156.909L386.963 142.253C386.107 141.398 384.823 141.398 383.968 142.253C383.112 143.109 383.112 144.393 383.968 145.249L400.121 161.509Z" fill="#4EBD6D"/>
<path d="M309.742 223.695L304.234 234.395V240.5H301.445V234.453L296.078 223.695H299.254L302.559 230.902C302.598 230.988 302.715 231.312 302.91 231.875H302.945C303.016 231.625 303.145 231.301 303.332 230.902L306.789 223.695H309.742ZM314.77 240.781C312.918 240.781 311.438 240.223 310.328 239.105C309.227 237.98 308.676 236.492 308.676 234.641C308.676 232.625 309.25 231.051 310.398 229.918C311.555 228.785 313.109 228.219 315.062 228.219C316.938 228.219 318.398 228.77 319.445 229.871C320.492 230.973 321.016 232.5 321.016 234.453C321.016 236.367 320.449 237.902 319.316 239.059C318.191 240.207 316.676 240.781 314.77 240.781ZM314.898 230.387C313.836 230.387 312.996 230.758 312.379 231.5C311.762 232.242 311.453 233.266 311.453 234.57C311.453 235.828 311.766 236.82 312.391 237.547C313.016 238.266 313.852 238.625 314.898 238.625C315.969 238.625 316.789 238.27 317.359 237.559C317.938 236.848 318.227 235.836 318.227 234.523C318.227 233.203 317.938 232.184 317.359 231.465C316.789 230.746 315.969 230.387 314.898 230.387ZM334.258 240.5H331.539V238.602H331.492C330.703 240.055 329.477 240.781 327.812 240.781C324.977 240.781 323.559 239.078 323.559 235.672V228.5H326.277V235.391C326.277 237.547 327.109 238.625 328.773 238.625C329.578 238.625 330.238 238.328 330.754 237.734C331.277 237.141 331.539 236.363 331.539 235.402V228.5H334.258V240.5ZM341.043 223.367L339.133 228.582H337.34L338.664 223.367H341.043ZM350.934 231.09C350.605 230.832 350.133 230.703 349.516 230.703C348.711 230.703 348.039 231.066 347.5 231.793C346.961 232.52 346.691 233.508 346.691 234.758V240.5H343.973V228.5H346.691V230.973H346.738C347.004 230.129 347.41 229.473 347.957 229.004C348.512 228.527 349.129 228.289 349.809 228.289C350.301 228.289 350.676 228.363 350.934 228.512V231.09ZM362.805 235.238H354.625C354.656 236.348 354.996 237.203 355.645 237.805C356.301 238.406 357.199 238.707 358.34 238.707C359.621 238.707 360.797 238.324 361.867 237.559V239.75C360.773 240.438 359.328 240.781 357.531 240.781C355.766 240.781 354.379 240.238 353.371 239.152C352.371 238.059 351.871 236.523 351.871 234.547C351.871 232.68 352.422 231.16 353.523 229.988C354.633 228.809 356.008 228.219 357.648 228.219C359.289 228.219 360.559 228.746 361.457 229.801C362.355 230.855 362.805 232.32 362.805 234.195V235.238ZM360.18 233.316C360.172 232.34 359.941 231.582 359.488 231.043C359.035 230.496 358.41 230.223 357.613 230.223C356.832 230.223 356.168 230.508 355.621 231.078C355.082 231.648 354.75 232.395 354.625 233.316H360.18ZM386.113 240.5H383.055L381.543 236.223H374.934L373.48 240.5H370.434L376.727 223.695H379.867L386.113 240.5ZM380.805 233.949L378.473 227.246C378.402 227.027 378.328 226.676 378.25 226.191H378.203C378.133 226.637 378.055 226.988 377.969 227.246L375.66 233.949H380.805ZM390.859 240.5H388.129V222.734H390.859V240.5ZM397.141 240.5H394.41V222.734H397.141V240.5ZM419.324 239.797C418.059 240.453 416.484 240.781 414.602 240.781C412.164 240.781 410.211 240.012 408.742 238.473C407.273 236.934 406.539 234.914 406.539 232.414C406.539 229.727 407.363 227.555 409.012 225.898C410.668 224.242 412.758 223.414 415.281 223.414C416.906 223.414 418.254 223.645 419.324 224.105V226.871C418.191 226.199 416.941 225.863 415.574 225.863C413.754 225.863 412.277 226.445 411.145 227.609C410.02 228.773 409.457 230.328 409.457 232.273C409.457 234.125 409.984 235.602 411.039 236.703C412.094 237.797 413.48 238.344 415.199 238.344C416.785 238.344 418.16 237.969 419.324 237.219V239.797ZM431.418 240.5H428.781V238.625H428.734C427.906 240.062 426.691 240.781 425.09 240.781C423.91 240.781 422.984 240.461 422.312 239.82C421.648 239.18 421.316 238.332 421.316 237.277C421.316 235.012 422.621 233.691 425.23 233.316L428.793 232.812C428.793 231.102 427.98 230.246 426.355 230.246C424.926 230.246 423.637 230.738 422.488 231.723V229.344C423.754 228.594 425.215 228.219 426.871 228.219C429.902 228.219 431.418 229.711 431.418 232.695V240.5ZM428.793 234.605L426.273 234.957C425.492 235.059 424.902 235.25 424.504 235.531C424.113 235.805 423.918 236.289 423.918 236.984C423.918 237.492 424.098 237.91 424.457 238.238C424.824 238.559 425.312 238.719 425.922 238.719C426.75 238.719 427.434 238.43 427.973 237.852C428.52 237.266 428.793 236.531 428.793 235.648V234.605ZM445.211 240.5H442.492V238.602H442.445C441.656 240.055 440.43 240.781 438.766 240.781C435.93 240.781 434.512 239.078 434.512 235.672V228.5H437.23V235.391C437.23 237.547 438.062 238.625 439.727 238.625C440.531 238.625 441.191 238.328 441.707 237.734C442.23 237.141 442.492 236.363 442.492 235.402V228.5H445.211V240.5ZM459.684 239.539C459.684 243.945 457.469 246.148 453.039 246.148C451.477 246.148 450.113 245.887 448.949 245.363V242.879C450.262 243.629 451.508 244.004 452.688 244.004C455.539 244.004 456.965 242.602 456.965 239.797V238.484H456.918C456.02 240.016 454.668 240.781 452.863 240.781C451.402 240.781 450.223 240.25 449.324 239.188C448.434 238.117 447.988 236.684 447.988 234.887C447.988 232.848 448.469 231.227 449.43 230.023C450.391 228.82 451.711 228.219 453.391 228.219C454.977 228.219 456.152 228.867 456.918 230.164H456.965V228.5H459.684V239.539ZM456.988 235.004V233.445C456.988 232.602 456.707 231.883 456.145 231.289C455.59 230.688 454.895 230.387 454.059 230.387C453.027 230.387 452.219 230.77 451.633 231.535C451.055 232.293 450.766 233.355 450.766 234.723C450.766 235.902 451.043 236.848 451.598 237.559C452.16 238.262 452.902 238.613 453.824 238.613C454.762 238.613 455.523 238.277 456.109 237.605C456.695 236.926 456.988 236.059 456.988 235.004ZM473.887 240.5H471.168V233.938C471.168 231.562 470.375 230.375 468.789 230.375C467.992 230.375 467.32 230.719 466.773 231.406C466.227 232.094 465.953 232.973 465.953 234.043V240.5H463.223V222.734H465.953V230.492H466C466.906 228.977 468.203 228.219 469.891 228.219C472.555 228.219 473.887 229.848 473.887 233.105V240.5ZM483.52 240.371C482.988 240.637 482.289 240.77 481.422 240.77C479.094 240.77 477.93 239.652 477.93 237.418V230.633H475.926V228.5H477.93V225.723L480.648 224.949V228.5H483.52V230.633H480.648V236.633C480.648 237.344 480.777 237.852 481.035 238.156C481.293 238.461 481.723 238.613 482.324 238.613C482.785 238.613 483.184 238.48 483.52 238.215V240.371ZM505.703 233.703C505.703 238.422 503.469 240.781 499 240.781C494.719 240.781 492.578 238.512 492.578 233.973V223.695H495.367V233.398C495.367 236.695 496.648 238.344 499.211 238.344C501.68 238.344 502.914 236.754 502.914 233.574V223.695H505.703V233.703ZM512.113 238.73H512.066V246.02H509.348V228.5H512.066V230.609H512.113C513.043 229.016 514.402 228.219 516.191 228.219C517.715 228.219 518.902 228.754 519.754 229.824C520.605 230.895 521.031 232.332 521.031 234.137C521.031 236.137 520.551 237.738 519.59 238.941C518.629 240.145 517.316 240.746 515.652 240.746C514.121 240.746 512.941 240.074 512.113 238.73ZM512.043 233.996V235.484C512.043 236.359 512.32 237.102 512.875 237.711C513.438 238.32 514.148 238.625 515.008 238.625C516.016 238.625 516.805 238.234 517.375 237.453C517.953 236.664 518.242 235.566 518.242 234.16C518.242 232.98 517.973 232.059 517.434 231.395C516.902 230.723 516.18 230.387 515.266 230.387C514.297 230.387 513.516 230.73 512.922 231.418C512.336 232.105 512.043 232.965 512.043 233.996Z" fill="#E1E1E1"/>
</svg>
