<svg width="18" height="18" viewBox="0 0 18 18" fill="none" xmlns="http://www.w3.org/2000/svg">
<path d="M10.1739 0V5.76C10.1739 6.55529 10.8747 7.2 11.7391 7.2H18V15.84C18 16.6353 17.2992 17.28 16.4348 17.28H9.07753C10.2333 16.2938 10.9565 14.8846 10.9565 13.32C10.9565 10.3377 8.32863 7.92 5.08696 7.92C4.09767 7.92 3.16554 8.14517 2.34783 8.54283V1.44C2.34783 0.64471 3.0486 0 3.91304 0H10.1739ZM11.3478 0.36V5.76C11.3478 5.95882 11.523 6.12 11.7391 6.12H17.6087L11.3478 0.36ZM10.1739 13.32C10.1739 15.9047 7.8964 18 5.08696 18C2.27751 18 0 15.9047 0 13.32C0 10.7353 2.27751 8.64 5.08696 8.64C7.8964 8.64 10.1739 10.7353 10.1739 13.32ZM5.47826 10.44C5.47826 10.2412 5.30307 10.08 5.08696 10.08C4.87084 10.08 4.69565 10.2412 4.69565 10.44V12.96H1.95652C1.74041 12.96 1.56522 13.1212 1.56522 13.32C1.56522 13.5188 1.74041 13.68 1.95652 13.68H4.69565L4.69565 16.2C4.69565 16.3988 4.87084 16.56 5.08696 16.56C5.30307 16.56 5.47826 16.3988 5.47826 16.2V13.68H8.21739C8.4335 13.68 8.6087 13.5188 8.6087 13.32C8.6087 13.1212 8.4335 12.96 8.21739 12.96H5.47826V10.44Z" fill="#494CA8"/>
</svg>
