<svg width="18" height="16" viewBox="0 0 18 16" xmlns="http://www.w3.org/2000/svg">
    <path d="M8.5718 1.79877C7.62293 0.960153 6.41276 0.5 5.13728 0.5C3.78101 0.5 2.49693 1.01934 1.51625 1.96549C-0.506132 3.93531 -0.505273 7.01634 1.51797 8.97783L7.81975 15.0899C7.96586 15.3391 8.24778 15.5 8.5718 15.5C8.84856 15.5 9.09523 15.3641 9.25252 15.1591L15.6256 8.97783C17.6489 7.01551 17.6489 3.93531 15.6239 1.96215C14.6467 1.01934 13.3626 0.5 12.0063 0.5C10.7317 0.5 9.52068 0.960153 8.5718 1.79877ZM14.4086 3.14088C15.752 4.45048 15.7528 6.49617 14.4103 7.7991L8.5718 13.4618L2.73329 7.7991C1.39076 6.49617 1.39162 4.45048 2.73157 3.14422C3.38478 2.514 4.23911 2.16722 5.13728 2.16722C6.03545 2.16722 6.88634 2.514 7.5344 3.14255L7.96414 3.55935C8.30021 3.8853 8.8434 3.8853 9.17946 3.55935L9.60921 3.14255C10.9088 1.88463 13.1108 1.88796 14.4086 3.14088Z" fill="#e31b23" />
    <path d="M8.5718 1.79877C7.62293 0.960153 6.41276 0.5 5.13728 0.5C3.78101 0.5 2.49693 1.01934 1.51625 1.96549C-0.506132 3.93531 -0.505273 7.01634 1.51797 8.97783L7.81975 15.0899C7.96586 15.3391 8.24778 15.5 8.5718 15.5C8.84856 15.5 9.09523 15.3641 9.25252 15.1591L15.6256 8.97783C17.6489 7.01551 17.6489 3.93531 15.6239 1.96215C14.6467 1.01934 13.3626 0.5 12.0063 0.5C10.7317 0.5 9.52068 0.960153 8.5718 1.79877Z" fill="#e31b23" />
</svg>
