<svg width="16" height="16" viewBox="0 0 16 16" fill="none" xmlns="http://www.w3.org/2000/svg">
<path d="M2.23795 0.0742411C2.47313 -0.0704844 2.7811 0.00284256 2.92583 0.238022L7.08709 7.00007H8.91291L5.07417 0.762119C4.92945 0.52694 5.00277 0.218967 5.23795 0.0742411C5.47313 -0.0704844 5.7811 0.00284256 5.92583 0.238022L10.0871 7.00007H15.5C15.7761 7.00007 16 7.22393 16 7.50007V8.00007C16 8.69067 15.9125 9.36083 15.748 10.0001H0.252035C0.087506 9.36083 0 8.69067 0 8.00007V7.50007C0 7.22393 0.223858 7.00007 0.5 7.00007H5.91291L2.07417 0.762119C1.92945 0.52694 2.00277 0.218967 2.23795 0.0742411ZM8 16.0001C4.64262 16.0001 1.76829 13.9319 0.581517 11.0001H15.4185C14.2317 13.9319 11.3574 16.0001 8 16.0001Z" fill="#494CA8"/>
</svg>
