<svg width="101" height="101" viewBox="0 0 101 101" fill="none" xmlns="http://www.w3.org/2000/svg">
<g clip-path="url(#clip0_929_3122)">
<path d="M50.5001 90.5637C58.4905 90.5637 66.3014 88.1943 72.9451 83.7551C79.5889 79.3159 84.7671 73.0062 87.8248 65.6241C90.8826 58.242 91.6827 50.1189 90.1238 42.282C88.565 34.4452 84.7173 27.2466 79.0672 21.5966C73.4172 15.9465 66.2186 12.0988 58.3817 10.54C50.5449 8.98112 42.4218 9.78118 35.0397 12.839C27.6576 15.8967 21.3479 21.0749 16.9087 27.7187C12.4695 34.3624 10.1001 42.1733 10.1001 50.1637C10.1001 60.8784 14.3565 71.1543 21.933 78.7308C29.5094 86.3073 39.7854 90.5637 50.5001 90.5637Z" fill="url(#paint0_linear_929_3122)"/>
<path d="M66.5052 21.3984H35.35C32.3751 21.3984 29.9634 23.8101 29.9634 26.7851V68.2052C29.9634 71.1802 32.3751 73.5919 35.35 73.5919H66.5052C69.4801 73.5919 71.8918 71.1802 71.8918 68.2052V26.7851C71.8918 23.8101 69.4801 21.3984 66.5052 21.3984Z" fill="url(#paint1_linear_929_3122)"/>
<path d="M48.8502 28.1318H35.3162C34.4051 28.1318 33.6665 28.8704 33.6665 29.7815C33.6665 30.6926 34.4051 31.4312 35.3162 31.4312H48.8502C49.7613 31.4312 50.4998 30.6926 50.4998 29.7815C50.4998 28.8704 49.7613 28.1318 48.8502 28.1318Z" fill="black"/>
<path d="M65.6835 37.4912H35.3162C34.4051 37.4912 33.6665 38.2298 33.6665 39.1409C33.6665 40.052 34.4051 40.7905 35.3162 40.7905H65.6835C66.5946 40.7905 67.3332 40.052 67.3332 39.1409C67.3332 38.2298 66.5946 37.4912 65.6835 37.4912Z" fill="#D5D5D5"/>
<path d="M65.6835 46.8506H35.3162C34.4051 46.8506 33.6665 47.5892 33.6665 48.5003C33.6665 49.4113 34.4051 50.1499 35.3162 50.1499H65.6835C66.5946 50.1499 67.3332 49.4113 67.3332 48.5003C67.3332 47.5892 66.5946 46.8506 65.6835 46.8506Z" fill="#D5D5D5"/>
<path d="M65.6835 56.21H35.3162C34.4051 56.21 33.6665 56.9485 33.6665 57.8596C33.6665 58.7707 34.4051 59.5093 35.3162 59.5093H65.6835C66.5946 59.5093 67.3332 58.7707 67.3332 57.8596C67.3332 56.9485 66.5946 56.21 65.6835 56.21Z" fill="#D5D5D5"/>
<path d="M35.3162 65.5693H65.6835C66.121 65.5693 66.5406 65.7431 66.85 66.0525C67.1594 66.3619 67.3332 66.7815 67.3332 67.219C67.3332 67.6565 67.1594 68.0761 66.85 68.3855C66.5406 68.6949 66.121 68.8687 65.6835 68.8687H35.3162C34.8787 68.8687 34.4591 68.6949 34.1497 68.3855C33.8403 68.0761 33.6665 67.6565 33.6665 67.219C33.6665 66.7815 33.8403 66.3619 34.1497 66.0525C34.4591 65.7431 34.8787 65.5693 35.3162 65.5693Z" fill="#D5D5D5"/>
<path d="M97.0106 15.6279H76.7836C76.319 15.6403 75.8782 15.8365 75.5582 16.1736C75.2381 16.5107 75.065 16.9611 75.0767 17.4257V27.4315C75.0659 27.8956 75.2394 28.345 75.5594 28.6814C75.8793 29.0177 76.3196 29.2135 76.7836 29.2259H97.0106C97.4746 29.2135 97.9149 29.0177 98.2348 28.6814C98.5548 28.345 98.7283 27.8956 98.7175 27.4315V17.4257C98.7292 16.9611 98.5561 16.5107 98.236 16.1736C97.916 15.8365 97.4752 15.6403 97.0106 15.6279Z" fill="white"/>
<path d="M80.1264 24.5771C80.526 24.5771 80.9165 24.4586 81.2487 24.2367C81.5809 24.0147 81.8398 23.6992 81.9927 23.3301C82.1456 22.961 82.1856 22.5549 82.1076 22.163C82.0297 21.7712 81.8373 21.4113 81.5548 21.1288C81.2723 20.8462 80.9124 20.6539 80.5205 20.5759C80.1287 20.498 79.7225 20.538 79.3534 20.6909C78.9843 20.8438 78.6688 21.1027 78.4469 21.4349C78.2249 21.767 78.1064 22.1576 78.1064 22.5571C78.1064 23.0928 78.3193 23.6066 78.6981 23.9855C79.0769 24.3643 79.5907 24.5771 80.1264 24.5771Z" fill="#CCC6D9"/>
<path d="M86.8598 20.5371H93.5932C94.1289 20.5371 94.6427 20.7499 95.0215 21.1288C95.4003 21.5076 95.6132 22.0214 95.6132 22.5571C95.6132 23.0928 95.4003 23.6066 95.0215 23.9855C94.6427 24.3643 94.1289 24.5771 93.5932 24.5771H86.8598C86.3241 24.5771 85.8103 24.3643 85.4315 23.9855C85.0527 23.6066 84.8398 23.0928 84.8398 22.5571C84.8398 22.0214 85.0527 21.5076 85.4315 21.1288C85.8103 20.7499 86.3241 20.5371 86.8598 20.5371Z" fill="#D5D5D5"/>
<path fill-rule="evenodd" clip-rule="evenodd" d="M62.3204 75.9383C66.4917 75.947 70.5704 74.709 74.0331 72.3831L87.7354 85.4626L92.7046 79.6989L79.4837 67.0772C82.2137 63.2308 83.5724 58.5788 83.3418 53.8676C83.1111 49.1565 81.3046 44.6594 78.2119 41.098C75.1193 37.5367 70.9199 35.1174 66.2876 34.2286C61.6553 33.3398 56.8588 34.0329 52.6676 36.1967C48.4764 38.3605 45.1337 41.8695 43.1757 46.1607C41.2177 50.4519 40.7581 55.2764 41.8706 59.8601C42.983 64.4438 45.6031 68.521 49.3103 71.4372C53.0175 74.3535 57.5969 75.9398 62.3137 75.9417L62.3204 75.9383ZM80.2681 54.8966C80.2688 58.4207 79.2243 61.8657 77.2669 64.7962C75.3095 67.7266 72.527 70.0107 69.2713 71.3596C66.0156 72.7084 62.4331 73.0616 58.9767 72.3742C55.5204 71.6869 52.3455 69.99 49.8536 67.4981C47.3617 65.0062 45.6648 61.8313 44.9775 58.375C44.2901 54.9186 44.6433 51.3361 45.9922 48.0804C47.3411 44.8247 49.6251 42.0422 52.5556 40.0848C55.486 38.1274 58.931 37.0829 62.4551 37.0836C67.1794 37.0836 71.7102 38.9603 75.0508 42.3009C78.3914 45.6415 80.2681 50.1723 80.2681 54.8966Z" fill="#CCC6D9"/>
<path d="M62.4518 73.0563C72.5855 73.0563 80.8002 64.9157 80.8002 54.8763C80.8002 44.8369 72.5855 36.6963 62.4518 36.6963C52.3182 36.6963 44.1035 44.8369 44.1035 54.8763C44.1035 64.9157 52.3182 73.0563 62.4518 73.0563Z" fill="white" fill-opacity="0.3"/>
<path d="M65.6231 54.8771L70.0637 50.4533C70.4771 50.0131 70.7026 49.4291 70.6922 48.8253C70.6818 48.2215 70.4364 47.6456 70.0081 47.2199C69.5798 46.7943 69.0023 46.5524 68.3985 46.5457C67.7947 46.5391 67.2121 46.7681 66.7745 47.1842L62.3237 51.6081L57.8831 47.1842C57.6702 46.9587 57.4136 46.7788 57.129 46.6557C56.8433 46.5302 56.5353 46.4638 56.2233 46.4604C55.912 46.4543 55.6025 46.5107 55.3134 46.6263C55.0242 46.742 54.7612 46.9146 54.54 47.1337C54.3206 47.3515 54.1477 47.6115 54.0316 47.898C53.9152 48.1901 53.8591 48.5027 53.8667 48.8171C53.8708 49.1257 53.9372 49.4303 54.0619 49.7126C54.1882 49.9954 54.3689 50.2505 54.5939 50.4634L59.0446 54.8771L54.5939 59.3009C54.3689 59.5138 54.1882 59.7689 54.0619 60.0516C53.8743 60.4783 53.8196 60.9516 53.9049 61.4097C53.9902 61.8679 54.2115 62.2898 54.54 62.6204C54.7612 62.8396 55.0242 63.0121 55.3134 63.1278C55.6025 63.2435 55.912 63.2999 56.2233 63.2937C56.5341 63.29 56.841 63.2235 57.1256 63.0985C57.4103 62.9754 57.6669 62.7955 57.8797 62.5699L62.3305 58.1461L66.7812 62.5699C67.2264 62.9596 67.8029 63.1655 68.3942 63.1461C68.9855 63.1268 69.5474 62.8835 69.9661 62.4656C70.3849 62.051 70.6283 61.4912 70.6459 60.9021C70.6634 60.313 70.4538 59.7397 70.0603 59.3009L65.6231 54.8771Z" fill="black"/>
<path d="M87.7354 85.459L92.7046 79.6953L93.452 80.409C94.1805 81.1233 94.6119 82.0868 94.6593 83.106C94.7068 84.1252 94.3669 85.1246 93.7078 85.9034C93.3897 86.2777 92.9988 86.5834 92.559 86.8022C92.1192 87.0209 91.6396 87.1481 91.1492 87.176C90.6598 87.1985 90.1711 87.1205 89.7131 86.9468C89.255 86.7731 88.8375 86.5074 88.4861 86.166L87.7387 85.4523L87.7354 85.459Z" fill="#E1DCEB"/>
<path fill-rule="evenodd" clip-rule="evenodd" d="M18.9577 30.6937C18.9535 30.2044 18.8914 29.7173 18.7725 29.2426C18.3483 27.5324 16.4664 26.4315 14.4598 26.1756C12.4533 25.9197 10.3693 26.5123 9.5647 27.9936C9.36191 28.3185 9.22748 28.6813 9.16959 29.0598C9.11171 29.4384 9.13159 29.8248 9.22803 30.1954C9.44602 30.8323 9.88258 31.3714 10.4602 31.7171C12.1436 32.8248 15.0793 33.0638 16.4226 32.5857C17.0451 32.3707 17.6524 32.1142 18.2406 31.8181C17.9039 33.754 16.6448 35.5854 14.9648 37.2385C11.3187 40.8273 5.65601 43.551 2.57215 44.5509C2.49229 44.5806 2.42668 44.6396 2.38857 44.7158C2.35045 44.792 2.34267 44.8799 2.36679 44.9616C2.37762 45.0022 2.39651 45.0403 2.42237 45.0734C2.44822 45.1066 2.4805 45.1342 2.51726 45.1547C2.55403 45.1751 2.59452 45.1879 2.63634 45.1923C2.67816 45.1967 2.72045 45.1927 2.76068 45.1804C5.90515 44.1704 11.6756 41.3761 15.3958 37.7165C17.3181 35.8245 18.6884 33.6967 18.9207 31.4579C23.267 29.0339 26.8323 24.637 29.8825 20.9337C29.9373 20.8675 29.9647 20.7828 29.959 20.6971C29.9534 20.6113 29.9152 20.531 29.8522 20.4725C29.8214 20.4444 29.7851 20.4229 29.7457 20.4093C29.7062 20.3957 29.6644 20.3903 29.6228 20.3935C29.5812 20.3966 29.5406 20.4082 29.5037 20.4276C29.4667 20.447 29.4341 20.4737 29.4078 20.5061C26.4856 24.058 23.0886 28.2798 18.9577 30.6937ZM18.3281 31.0472C18.3529 30.4944 18.2973 29.941 18.1632 29.4042C17.7996 27.9229 16.1196 27.0476 14.3824 26.8254C13.357 26.6679 12.308 26.7984 11.3524 27.2024C10.825 27.4264 10.3853 27.8165 10.1 28.3134C9.94125 28.5602 9.83431 28.8367 9.7857 29.126C9.73708 29.4154 9.74779 29.7117 9.8172 29.9968C9.99203 30.4867 10.3342 30.8993 10.7835 31.1616C12.3153 32.1716 14.9918 32.3837 16.2139 31.9629C16.9418 31.7143 17.6488 31.4081 18.3281 31.0472Z" fill="black"/>
<path d="M95.9502 63.9668C97.0658 63.9668 97.9702 63.0624 97.9702 61.9468C97.9702 60.8311 97.0658 59.9268 95.9502 59.9268C94.8346 59.9268 93.9302 60.8311 93.9302 61.9468C93.9302 63.0624 94.8346 63.9668 95.9502 63.9668Z" fill="#E3E3E3"/>
<path fill-rule="evenodd" clip-rule="evenodd" d="M19.6548 75.8813C20.0312 75.7548 20.3814 75.5608 20.6884 75.309C20.9987 75.0054 21.2029 74.6099 21.2708 74.1812C21.3954 73.6425 21.4425 73.0702 21.6075 72.5315C21.6347 72.4062 21.708 72.2956 21.8128 72.2218C21.9086 72.1478 22.029 72.1129 22.1495 72.1241C22.2395 72.129 22.3265 72.1582 22.4012 72.2086C22.4759 72.259 22.5355 72.3287 22.5737 72.4103C22.5957 72.4589 22.6126 72.5097 22.6242 72.5618C22.6242 72.6123 22.641 72.7672 22.6545 72.8311C22.6814 72.9894 22.705 73.1476 22.7286 73.3058C22.7603 73.808 22.874 74.3016 23.0652 74.767C23.3783 75.4403 23.6948 75.8275 24.119 76.0093C24.619 76.1643 25.1542 76.1643 25.6542 76.0093L25.8326 75.9689C25.9692 75.9476 26.1087 75.9813 26.2204 76.0628C26.3321 76.1442 26.407 76.2666 26.4285 76.4032C26.4563 76.5399 26.4306 76.6821 26.3567 76.8005C26.2828 76.9188 26.1663 77.0044 26.0313 77.0395L25.8629 77.0765C25.0112 77.2987 24.0281 78.0865 23.4558 78.78C23.2773 78.9955 23.0215 79.5914 22.7589 79.9718C22.6158 80.2042 22.4073 80.3893 22.1596 80.5038C22.059 80.5369 21.9505 80.5369 21.8499 80.5038C21.7239 80.4739 21.6142 80.3967 21.5435 80.2883C21.4912 80.2137 21.4556 80.1288 21.4391 80.0392C21.4391 79.9887 21.4391 79.8607 21.4391 79.8001C21.3853 79.6082 21.3213 79.4163 21.2742 79.2211C21.1494 78.8003 20.9435 78.4081 20.6682 78.0663C20.4478 77.7242 20.1333 77.453 19.7625 77.2852C19.712 77.2852 19.2979 77.1674 19.1532 77.1068C19.0192 77.057 18.9061 76.9634 18.8321 76.8411C18.7582 76.7189 18.7277 76.5752 18.7458 76.4335C18.7635 76.2894 18.8329 76.1566 18.9411 76.0598C19.0281 75.9826 19.1336 75.9292 19.2474 75.9049C19.335 75.8982 19.6178 75.8847 19.6548 75.8813ZM22.0687 75.1205L22.1293 75.2551C22.5905 76.2214 23.1023 76.76 23.7251 77.0193H23.7487C23.3509 77.326 22.9875 77.6748 22.6646 78.0596C22.4969 78.2972 22.3472 78.547 22.2168 78.807C22.0528 78.3134 21.8082 77.8504 21.493 77.4367C21.2769 77.1085 21.0018 76.8231 20.6816 76.5951C20.9228 76.4659 21.1486 76.3101 21.355 76.1305C21.6668 75.8527 21.911 75.5072 22.0687 75.1205Z" fill="#CCC6D9"/>
</g>
<defs>
<linearGradient id="paint0_linear_929_3122" x1="50.187" y1="-3.39324" x2="51.0152" y2="138.488" gradientUnits="userSpaceOnUse">
<stop stop-color="#F2F2F2"/>
<stop offset="1" stop-color="#EFEFEF"/>
</linearGradient>
<linearGradient id="paint1_linear_929_3122" x1="50.9276" y1="21.3984" x2="50.9276" y2="73.5885" gradientUnits="userSpaceOnUse">
<stop stop-color="white"/>
<stop offset="0.72" stop-color="#FAFAFA"/>
</linearGradient>
<clipPath id="clip0_929_3122">
<rect width="101" height="101" fill="white"/>
</clipPath>
</defs>
</svg>
