<svg width="46" height="46" viewBox="0 0 46 46" fill="none" xmlns="http://www.w3.org/2000/svg">
<g clip-path="url(#clip0_253_5575)">
<path d="M22.9996 41.2463C26.6388 41.2463 30.1962 40.1672 33.2221 38.1453C36.248 36.1235 38.6063 33.2498 39.999 29.8877C41.3916 26.5255 41.756 22.8259 41.0461 19.2566C40.3361 15.6874 38.5837 12.4088 36.0104 9.83553C33.4371 7.26225 30.1585 5.50982 26.5893 4.79985C23.02 4.08988 19.3204 4.45426 15.9582 5.84691C12.5961 7.23957 9.72238 9.59794 7.70057 12.6238C5.67875 15.6497 4.59961 19.2071 4.59961 22.8463C4.59961 27.7263 6.53817 32.4064 9.98884 35.8571C13.4395 39.3077 18.1196 41.2463 22.9996 41.2463Z" fill="url(#paint0_linear_253_5575)"/>
<path d="M30.2893 9.74609H16.0998C14.7449 9.74609 13.6465 10.8445 13.6465 12.1994V31.064C13.6465 32.419 14.7449 33.5174 16.0998 33.5174H30.2893C31.6442 33.5174 32.7426 32.419 32.7426 31.064V12.1994C32.7426 10.8445 31.6442 9.74609 30.2893 9.74609Z" fill="url(#paint1_linear_253_5575)"/>
<path d="M22.2483 12.8125H16.0843C15.6694 12.8125 15.333 13.1489 15.333 13.5638C15.333 13.9788 15.6694 14.3152 16.0843 14.3152H22.2483C22.6633 14.3152 22.9997 13.9788 22.9997 13.5638C22.9997 13.1489 22.6633 12.8125 22.2483 12.8125Z" fill="black"/>
<path d="M29.915 17.0752H16.0843C15.6694 17.0752 15.333 17.4116 15.333 17.8265C15.333 18.2415 15.6694 18.5779 16.0843 18.5779H29.915C30.33 18.5779 30.6663 18.2415 30.6663 17.8265C30.6663 17.4116 30.33 17.0752 29.915 17.0752Z" fill="#D5D5D5"/>
<path d="M29.915 21.3379H16.0843C15.6694 21.3379 15.333 21.6743 15.333 22.0892C15.333 22.5042 15.6694 22.8406 16.0843 22.8406H29.915C30.33 22.8406 30.6663 22.5042 30.6663 22.0892C30.6663 21.6743 30.33 21.3379 29.915 21.3379Z" fill="#D5D5D5"/>
<path d="M29.915 25.6006H16.0843C15.6694 25.6006 15.333 25.937 15.333 26.3519C15.333 26.7669 15.6694 27.1033 16.0843 27.1033H29.915C30.33 27.1033 30.6663 26.7669 30.6663 26.3519C30.6663 25.937 30.33 25.6006 29.915 25.6006Z" fill="#D5D5D5"/>
<path d="M16.0843 29.8633H29.915C30.1143 29.8633 30.3054 29.9424 30.4463 30.0833C30.5872 30.2242 30.6663 30.4153 30.6663 30.6146C30.6663 30.8139 30.5872 31.005 30.4463 31.1459C30.3054 31.2868 30.1143 31.3659 29.915 31.3659H16.0843C15.8851 31.3659 15.694 31.2868 15.5531 31.1459C15.4122 31.005 15.333 30.8139 15.333 30.6146C15.333 30.4153 15.4122 30.2242 15.5531 30.0833C15.694 29.9424 15.8851 29.8633 16.0843 29.8633Z" fill="#D5D5D5"/>
<path d="M44.1833 7.11816H34.971C34.7594 7.12378 34.5587 7.21318 34.4129 7.3667C34.2671 7.52023 34.1883 7.72533 34.1936 7.93696V12.494C34.1887 12.7054 34.2677 12.9101 34.4134 13.0633C34.5592 13.2165 34.7597 13.3057 34.971 13.3113H44.1833C44.3946 13.3057 44.5951 13.2165 44.7409 13.0633C44.8866 12.9101 44.9656 12.7054 44.9607 12.494V7.93696C44.966 7.72533 44.8872 7.52023 44.7414 7.3667C44.5956 7.21318 44.3949 7.12378 44.1833 7.11816Z" fill="white"/>
<path d="M36.4932 11.1935C36.6752 11.1935 36.8531 11.1396 37.0044 11.0385C37.1557 10.9374 37.2736 10.7937 37.3432 10.6256C37.4128 10.4575 37.4311 10.2725 37.3956 10.094C37.3601 9.91557 37.2724 9.75164 37.1438 9.62298C37.0151 9.49431 36.8512 9.40669 36.6727 9.37119C36.4943 9.3357 36.3093 9.35391 36.1412 9.42355C35.9731 9.49318 35.8294 9.6111 35.7283 9.76239C35.6272 9.91368 35.5732 10.0916 35.5732 10.2735C35.5732 10.5175 35.6702 10.7515 35.8427 10.9241C36.0152 11.0966 36.2492 11.1935 36.4932 11.1935Z" fill="#CCC6D9"/>
<path d="M39.5596 9.35352H42.6263C42.8703 9.35352 43.1043 9.45044 43.2768 9.62298C43.4494 9.79551 43.5463 10.0295 43.5463 10.2735C43.5463 10.5175 43.4494 10.7515 43.2768 10.9241C43.1043 11.0966 42.8703 11.1935 42.6263 11.1935H39.5596C39.3156 11.1935 39.0816 11.0966 38.9091 10.9241C38.7366 10.7515 38.6396 10.5175 38.6396 10.2735C38.6396 10.0295 38.7366 9.79551 38.9091 9.62298C39.0816 9.45044 39.3156 9.35352 39.5596 9.35352Z" fill="#D5D5D5"/>
<path fill-rule="evenodd" clip-rule="evenodd" d="M28.384 34.5862C30.2838 34.5902 32.1414 34.0263 33.7185 32.967L39.9591 38.924L42.2223 36.2989L36.2009 30.5504C37.4443 28.7986 38.0631 26.6799 37.9581 24.5342C37.853 22.3885 37.0302 20.3404 35.6217 18.7183C34.2132 17.0963 32.3006 15.9945 30.1908 15.5897C28.0811 15.1849 25.8965 15.5006 23.9877 16.486C22.0788 17.4715 20.5564 19.0697 19.6646 21.0241C18.7729 22.9785 18.5635 25.1758 19.0702 27.2635C19.5769 29.3511 20.7702 31.208 22.4586 32.5362C24.147 33.8644 26.2327 34.5869 28.3809 34.5877L28.384 34.5862ZM36.5582 25.0028C36.5585 26.6079 36.0828 28.1769 35.1913 29.5115C34.2998 30.8462 33.0325 31.8865 31.5498 32.5008C30.067 33.1152 28.4353 33.276 26.8611 32.9629C25.287 32.6499 23.841 31.877 22.706 30.7421C21.5711 29.6072 20.7983 28.1612 20.4852 26.587C20.1722 25.0129 20.333 23.3812 20.9474 21.8984C21.5617 20.4157 22.602 19.1484 23.9366 18.2569C25.2713 17.3654 26.8403 16.8897 28.4453 16.89C30.597 16.89 32.6605 17.7447 34.182 19.2662C35.7035 20.7876 36.5582 22.8512 36.5582 25.0028Z" fill="#CCC6D9"/>
<path d="M28.3567 33.56C32.972 33.56 36.7133 29.8524 36.7133 25.28C36.7133 20.7076 32.972 17 28.3567 17C23.7413 17 20 20.7076 20 25.28C20 29.8524 23.7413 33.56 28.3567 33.56Z" fill="white" fill-opacity="0.3"/>
<path d="M29.888 24.9937L31.9105 22.9789C32.0988 22.7784 32.2015 22.5124 32.1967 22.2374C32.192 21.9625 32.0802 21.7002 31.8852 21.5063C31.6901 21.3124 31.4271 21.2023 31.1521 21.1992C30.8771 21.1962 30.6117 21.3005 30.4124 21.49L28.3854 23.5048L26.3629 21.49C26.266 21.3873 26.1491 21.3054 26.0194 21.2493C25.8893 21.1921 25.749 21.1619 25.607 21.1604C25.4652 21.1576 25.3242 21.1833 25.1925 21.2359C25.0608 21.2886 24.9411 21.3672 24.8403 21.467C24.7404 21.5662 24.6616 21.6846 24.6088 21.8151C24.5557 21.9481 24.5302 22.0905 24.5336 22.2337C24.5355 22.3743 24.5658 22.513 24.6226 22.6416C24.6801 22.7704 24.7624 22.8865 24.8648 22.9835L26.8919 24.9937L24.8648 27.0085C24.7624 27.1055 24.6801 27.2216 24.6226 27.3504C24.5371 27.5447 24.5122 27.7603 24.551 27.969C24.5899 28.1777 24.6907 28.3698 24.8403 28.5204C24.9411 28.6202 25.0608 28.6988 25.1925 28.7515C25.3242 28.8041 25.4652 28.8298 25.607 28.827C25.7485 28.8253 25.8883 28.7951 26.0179 28.7381C26.1476 28.682 26.2644 28.6001 26.3614 28.4974L28.3884 26.4826L30.4155 28.4974C30.6182 28.6748 30.8808 28.7686 31.1501 28.7598C31.4194 28.751 31.6753 28.6402 31.866 28.4498C32.0568 28.261 32.1677 28.006 32.1756 27.7377C32.1836 27.4694 32.0882 27.2083 31.909 27.0085L29.888 24.9937Z" fill="black"/>
<path d="M39.959 38.9219L42.2222 36.2969L42.5626 36.6219C42.8944 36.9473 43.0909 37.3861 43.1125 37.8502C43.1341 38.3144 42.9793 38.7696 42.6791 39.1243C42.5342 39.2948 42.3562 39.434 42.1559 39.5337C41.9556 39.6333 41.7371 39.6912 41.5138 39.7039C41.2909 39.7142 41.0683 39.6787 40.8597 39.5995C40.6511 39.5204 40.4609 39.3994 40.3009 39.2439L39.9605 38.9189L39.959 38.9219Z" fill="#E1DCEB"/>
<path fill-rule="evenodd" clip-rule="evenodd" d="M8.63382 13.9797C8.63192 13.7568 8.60361 13.535 8.54949 13.3188C8.35629 12.5399 7.49915 12.0385 6.58529 11.9219C5.67142 11.8054 4.72228 12.0753 4.35581 12.7499C4.26345 12.8979 4.20223 13.0631 4.17586 13.2355C4.1495 13.408 4.15855 13.5839 4.20248 13.7527C4.30176 14.0428 4.50059 14.2884 4.76368 14.4458C5.53035 14.9503 6.86742 15.0591 7.47922 14.8414C7.76271 14.7435 8.03932 14.6267 8.30722 14.4918C8.15388 15.3735 7.58042 16.2076 6.81529 16.9605C5.15469 18.595 2.57562 19.8355 1.17109 20.2909C1.13471 20.3044 1.10483 20.3313 1.08748 20.366C1.07012 20.4007 1.06657 20.4407 1.07756 20.4779C1.08249 20.4964 1.0911 20.5138 1.10287 20.5289C1.11465 20.544 1.12935 20.5566 1.14609 20.5659C1.16283 20.5752 1.18128 20.581 1.20032 20.583C1.21937 20.585 1.23863 20.5832 1.25695 20.5776C2.68909 20.1176 5.31721 18.8449 7.01155 17.1782C7.88708 16.3165 8.51115 15.3474 8.61695 14.3277C10.5965 13.2237 12.2203 11.2212 13.6095 9.53453C13.6344 9.50437 13.6469 9.46582 13.6443 9.42676C13.6418 9.3877 13.6244 9.35111 13.5957 9.32447C13.5816 9.31167 13.5651 9.30188 13.5471 9.29569C13.5292 9.2895 13.5101 9.28705 13.4912 9.28848C13.4722 9.28992 13.4538 9.29521 13.4369 9.30404C13.4201 9.31286 13.4052 9.32503 13.3933 9.3398C12.0623 10.9575 10.5152 12.8803 8.63382 13.9797ZM8.34708 14.1407C8.35834 13.8889 8.33303 13.6369 8.27195 13.3924C8.10635 12.7177 7.34121 12.3191 6.55001 12.2179C6.08299 12.1462 5.60522 12.2056 5.17001 12.3896C4.92983 12.4916 4.72954 12.6693 4.59962 12.8956C4.52731 13.008 4.47861 13.1339 4.45647 13.2657C4.43432 13.3975 4.4392 13.5324 4.47081 13.6623C4.55044 13.8854 4.70629 14.0733 4.91089 14.1928C5.60856 14.6528 6.82755 14.7494 7.38415 14.5577C7.7157 14.4445 8.0377 14.3051 8.34708 14.1407Z" fill="black"/>
<path d="M43.7003 29.133C44.2084 29.133 44.6203 28.7211 44.6203 28.213C44.6203 27.7049 44.2084 27.293 43.7003 27.293C43.1922 27.293 42.7803 27.7049 42.7803 28.213C42.7803 28.7211 43.1922 29.133 43.7003 29.133Z" fill="#E3E3E3"/>
<path fill-rule="evenodd" clip-rule="evenodd" d="M8.95147 34.5598C9.12289 34.5022 9.28239 34.4138 9.42221 34.2991C9.56353 34.1609 9.65654 33.9807 9.68747 33.7855C9.7442 33.5401 9.76567 33.2795 9.8408 33.0341C9.8532 32.9771 9.88658 32.9267 9.93434 32.8931C9.97797 32.8594 10.0328 32.8435 10.0877 32.8486C10.1286 32.8508 10.1683 32.8641 10.2023 32.8871C10.2363 32.91 10.2635 32.9418 10.2809 32.9789C10.2909 33.0011 10.2986 33.0242 10.3039 33.0479C10.3039 33.0709 10.3115 33.1415 10.3177 33.1706C10.3299 33.2427 10.3407 33.3147 10.3514 33.3868C10.3659 33.6155 10.4176 33.8403 10.5047 34.0523C10.6473 34.3589 10.7915 34.5353 10.9847 34.6181C11.2124 34.6887 11.4562 34.6887 11.6839 34.6181L11.7651 34.5997C11.8273 34.59 11.8909 34.6053 11.9418 34.6424C11.9926 34.6795 12.0267 34.7353 12.0365 34.7975C12.0492 34.8597 12.0375 34.9245 12.0038 34.9784C11.9701 35.0323 11.9171 35.0713 11.8556 35.0873L11.7789 35.1041C11.391 35.2053 10.9433 35.5641 10.6826 35.88C10.6013 35.9781 10.4848 36.2495 10.3652 36.4228C10.3 36.5286 10.2051 36.6129 10.0923 36.6651C10.0465 36.6802 9.99702 36.6802 9.95121 36.6651C9.89384 36.6514 9.84388 36.6163 9.81167 36.5669C9.78785 36.533 9.77163 36.4943 9.76414 36.4535C9.76414 36.4305 9.76414 36.3722 9.76414 36.3446C9.7396 36.2572 9.71047 36.1698 9.68901 36.0809C9.63216 35.8892 9.53841 35.7106 9.41301 35.5549C9.31262 35.3991 9.1694 35.2756 9.00054 35.1992C8.97754 35.1992 8.78894 35.1455 8.72301 35.1179C8.66201 35.0953 8.61047 35.0526 8.57679 34.9969C8.5431 34.9413 8.52924 34.8758 8.53747 34.8113C8.54552 34.7456 8.57712 34.6852 8.62641 34.6411C8.66604 34.6059 8.71411 34.5816 8.76594 34.5705C8.8058 34.5675 8.93461 34.5613 8.95147 34.5598ZM10.0509 34.2133L10.0785 34.2746C10.2885 34.7147 10.5216 34.96 10.8053 35.0781H10.816C10.6349 35.2178 10.4693 35.3766 10.3223 35.5519C10.2459 35.6601 10.1777 35.7739 10.1183 35.8923C10.0436 35.6675 9.93224 35.4566 9.78868 35.2682C9.69023 35.1187 9.56494 34.9887 9.41914 34.8849C9.52897 34.826 9.63184 34.7551 9.7258 34.6733C9.86784 34.5467 9.97903 34.3894 10.0509 34.2133Z" fill="#CCC6D9"/>
</g>
<defs>
<linearGradient id="paint0_linear_253_5575" x1="22.857" y1="-1.54597" x2="23.2342" y2="63.0733" gradientUnits="userSpaceOnUse">
<stop stop-color="#F2F2F2"/>
<stop offset="1" stop-color="#EFEFEF"/>
</linearGradient>
<linearGradient id="paint1_linear_253_5575" x1="23.1946" y1="9.74609" x2="23.1946" y2="33.5158" gradientUnits="userSpaceOnUse">
<stop stop-color="white"/>
<stop offset="0.72" stop-color="#FAFAFA"/>
</linearGradient>
<clipPath id="clip0_253_5575">
<rect width="46" height="46" fill="white"/>
</clipPath>
</defs>
</svg>
