<svg width="596" height="170" viewBox="0 0 596 170" fill="none" xmlns="http://www.w3.org/2000/svg">
<g clip-path="url(#clip0_253_4402)">
<rect width="596" height="170" rx="8" fill="url(#paint0_linear_253_4402)"/>
<path d="M487.72 319.82C509.533 325.713 529.064 320.712 546.325 308.882L546.576 308.726C569.598 292.864 588.739 264.992 603.816 234.908C616.81 208.635 627.861 180.429 636.859 150.576C644.606 125.423 648.458 107.486 648.567 106.784C648.888 104.691 649.091 102.551 649.091 102.551C649.257 101.003 649.362 99.3728 649.432 97.7752L649.475 97.6828L649.484 97.1958C649.99 84.6926 647.902 71.4484 643.433 58.8131C637.979 43.5247 629.202 29.9518 618.475 20.2168C605.821 8.47219 591.979 0.110959 577.947 -4.26318C545.767 -13.8965 505.57 -2.94835 486.941 30.2086C479.866 42.8497 472.524 63.0881 453.23 71.7939C448.808 73.8001 447.28 74.4003 443.123 76.2195C437.159 78.8124 406.595 92.1414 393.515 131.259C390.302 140.842 380.776 174.028 392.553 216.204C408.658 273.855 454.427 310.748 487.72 319.82Z" fill="#EBF1FF"/>
<g clip-path="url(#clip1_253_4402)">
<path d="M517.069 48.2422H582.854V110.153H517.069V48.2422Z" fill="white"/>
<path d="M517.069 110.3H582.854C582.874 110.3 582.893 110.296 582.91 110.289C582.928 110.281 582.944 110.271 582.958 110.257C582.971 110.243 582.982 110.227 582.989 110.209C582.996 110.191 583 110.172 583 110.153V48.2421C583 48.2227 582.996 48.2036 582.989 48.1857C582.982 48.1679 582.971 48.1516 582.958 48.1379C582.944 48.1242 582.928 48.1134 582.91 48.106C582.893 48.0985 582.874 48.0947 582.854 48.0947H517.069C517.03 48.0947 516.993 48.1103 516.966 48.1379C516.938 48.1655 516.923 48.203 516.923 48.2421V110.153C516.923 110.172 516.927 110.191 516.934 110.209C516.941 110.227 516.952 110.243 516.966 110.257C516.979 110.271 516.995 110.281 517.013 110.289C517.031 110.296 517.05 110.3 517.069 110.3ZM582.708 110.006H517.215V48.3894H582.708V110.006Z" fill="black"/>
<path d="M530.629 99.591C523.605 92.5131 523.605 81.0376 530.629 73.9598C537.653 66.8819 549.041 66.8819 556.065 73.9598C563.09 81.0376 563.09 92.5131 556.065 99.591C549.041 106.669 537.653 106.669 530.629 99.591Z" fill="white"/>
<path d="M543.347 105.046C553.345 105.046 561.479 96.8502 561.479 86.7755C561.479 76.7009 553.345 68.5049 543.347 68.5049C533.349 68.5049 525.215 76.7009 525.215 86.7755C525.215 96.8502 533.349 105.046 543.347 105.046ZM543.347 68.7989C553.184 68.7989 561.187 76.8655 561.187 86.7755C561.187 96.6855 553.182 104.752 543.347 104.752C533.512 104.752 525.507 96.6855 525.507 86.7755C525.507 76.8655 533.51 68.7989 543.347 68.7989Z" fill="black"/>
<path d="M533.729 96.4679C528.416 91.1149 528.416 82.4359 533.729 77.0828C539.041 71.7298 547.654 71.7298 552.967 77.0828C558.279 82.4359 558.279 91.1149 552.967 96.4679C547.654 101.821 539.041 101.821 533.729 96.4679Z" fill="#BFD9FF"/>
<path d="M544.158 68.4277H566.245V88.7611H544.158V68.4277Z" fill="white"/>
<path d="M555.105 88.6796H566.466C566.504 88.6796 566.542 88.6641 566.569 88.6364C566.596 88.6088 566.612 88.5713 566.612 88.5323V68.8029C566.612 68.7836 566.608 68.7645 566.601 68.7466C566.593 68.7288 566.583 68.7126 566.569 68.699C566.555 68.6853 566.539 68.6746 566.522 68.6672C566.504 68.6599 566.485 68.6562 566.466 68.6563H541.612C541.575 68.6588 541.541 68.6753 541.515 68.7026C541.49 68.7299 541.476 68.7659 541.476 68.8033C541.476 68.8406 541.49 68.8766 541.515 68.9039C541.541 68.9312 541.575 68.9477 541.612 68.9503H566.317V88.3856H555.105C555.085 88.3842 555.065 88.387 555.046 88.3938C555.027 88.4006 555.01 88.4112 554.996 88.425C554.981 88.4387 554.969 88.4554 554.961 88.4739C554.953 88.4924 554.949 88.5124 554.949 88.5326C554.949 88.5528 554.953 88.5727 554.961 88.5912C554.969 88.6098 554.981 88.6264 554.996 88.6402C555.01 88.654 555.027 88.6646 555.046 88.6714C555.065 88.6781 555.085 88.6809 555.105 88.6796Z" fill="black"/>
<path d="M545.287 56.3245C546.35 56.3234 547.404 56.5287 548.39 56.9291C549.301 55.8525 550.433 54.9879 551.708 54.395C552.983 53.8022 554.37 53.4951 555.774 53.4951C557.178 53.4951 558.565 53.8022 559.84 54.395C561.115 54.9879 562.247 55.8525 563.158 56.9291C564.504 56.3823 565.97 56.2009 567.408 56.4031C568.846 56.6052 570.206 57.1839 571.353 58.0813C572.5 58.9787 573.393 60.1634 573.943 61.5172C574.493 62.8711 574.682 64.3467 574.489 65.7968C574.297 67.247 573.73 68.6209 572.846 69.7815C571.962 70.9421 570.792 71.8487 569.451 72.411C568.111 72.9733 566.648 73.1715 565.207 72.9859C563.767 72.8003 562.4 72.2373 561.244 71.3531C559.631 72.4611 557.725 73.0537 555.774 73.0537C553.822 73.0537 551.916 72.4611 550.304 71.3531C549.255 72.1554 548.031 72.6944 546.734 72.9258C545.437 73.1571 544.103 73.0741 542.844 72.6835C541.585 72.293 540.437 71.6061 539.493 70.6798C538.55 69.7534 537.839 68.6141 537.419 67.356C536.999 66.0979 536.882 64.7572 537.078 63.4446C537.274 62.132 537.777 60.8853 538.546 59.8074C539.315 58.7296 540.327 57.8515 541.499 57.2459C542.671 56.6403 543.97 56.3244 545.287 56.3245Z" fill="white"/>
<path d="M545.287 73.2005C547.096 73.2062 548.858 72.6215 550.309 71.5339C551.928 72.6205 553.829 73.2004 555.774 73.2004C557.72 73.2004 559.621 72.6205 561.24 71.5339C562.691 72.6215 564.452 73.2062 566.261 73.2005C567.502 73.1997 568.727 72.9235 569.849 72.3916C570.972 71.8597 571.965 71.085 572.757 70.1228C573.549 69.1606 574.121 68.0343 574.432 66.8242C574.743 65.614 574.786 64.3496 574.558 63.1208C574.329 61.8921 573.834 60.7292 573.109 59.7148C572.384 58.7004 571.446 57.8594 570.362 57.2516C569.278 56.6438 568.074 56.284 566.837 56.198C565.599 56.112 564.358 56.3018 563.201 56.7538C562.276 55.6846 561.135 54.8274 559.854 54.24C558.573 53.6526 557.182 53.3486 555.774 53.3486C554.367 53.3486 552.976 53.6526 551.695 54.24C550.414 54.8274 549.273 55.6846 548.348 56.7538C547.191 56.3012 545.949 56.1109 544.711 56.1965C543.473 56.2821 542.269 56.6416 541.185 57.2494C540.1 57.8571 539.162 58.6982 538.436 59.7128C537.711 60.7274 537.216 61.8906 536.987 63.1197C536.759 64.3488 536.801 65.6136 537.113 66.8241C537.424 68.0346 537.996 69.1611 538.789 70.1235C539.581 71.086 540.574 71.8606 541.697 72.3924C542.821 72.9242 544.046 73.2001 545.287 73.2005ZM550.304 71.2058C550.272 71.2058 550.242 71.2163 550.216 71.2358C548.801 72.3248 547.068 72.9121 545.287 72.9065C544.085 72.9058 542.898 72.6374 541.811 72.1203C540.724 71.6033 539.764 70.8504 538.999 69.9157C538.234 68.9809 537.684 67.8874 537.388 66.7134C537.092 65.5394 537.057 64.3139 537.286 63.1247C537.515 61.9355 538.002 60.8121 538.712 59.8347C539.422 58.8573 540.338 58.0503 541.394 57.4713C542.45 56.8923 543.62 56.5557 544.82 56.4856C546.02 56.4155 547.221 56.6137 548.336 57.0658C548.364 57.0772 548.396 57.0794 548.425 57.072C548.455 57.0646 548.482 57.048 548.501 57.0245C549.399 55.9642 550.514 55.1127 551.769 54.5288C553.025 53.9449 554.391 53.6425 555.774 53.6425C557.157 53.6425 558.523 53.9449 559.779 54.5288C561.035 55.1127 562.15 55.9642 563.047 57.0245C563.067 57.0479 563.094 57.0645 563.123 57.0719C563.153 57.0793 563.184 57.0772 563.213 57.0658C564.536 56.5286 565.975 56.3505 567.388 56.5491C568.801 56.7477 570.137 57.3161 571.264 58.1977C572.39 59.0793 573.267 60.2431 573.808 61.5731C574.349 62.9031 574.534 64.3528 574.345 65.7774C574.156 67.2019 573.599 68.5517 572.731 69.6918C571.862 70.832 570.712 71.7227 569.396 72.275C568.079 72.8274 566.641 73.0222 565.226 72.8398C563.812 72.6575 562.469 72.1044 561.333 71.2358C561.308 71.2172 561.279 71.2069 561.248 71.2061C561.217 71.2054 561.187 71.2144 561.162 71.2318C559.574 72.323 557.696 72.9066 555.774 72.9066C553.852 72.9066 551.975 72.323 550.387 71.2318C550.363 71.2149 550.334 71.2059 550.304 71.2058Z" fill="black"/>
<path d="M410.618 74.3615L458.892 74.6281C460.129 74.6348 461.353 74.8869 462.493 75.37C463.634 75.8532 464.669 76.5579 465.539 77.4441C466.409 78.3302 467.097 79.3803 467.564 80.5345C468.032 81.6887 468.269 82.9243 468.262 84.1708C468.248 86.6884 467.243 89.0974 465.467 90.8679C463.69 92.6385 461.289 93.6256 458.791 93.6121L410.516 93.3455C408.017 93.3317 405.627 92.3185 403.87 90.5287C402.113 88.7389 401.133 86.319 401.146 83.8015C401.16 81.2841 402.166 78.8755 403.942 77.1052C405.718 75.3349 408.12 74.348 410.618 74.3615Z" fill="white"/>
<path d="M458.842 93.7614C464.093 93.7614 468.379 89.4714 468.408 84.1734C468.437 78.8581 464.168 74.5108 458.893 74.4821L410.619 74.2188H410.566C405.315 74.2188 401.029 78.5081 401.001 83.8061C400.988 86.3621 401.983 88.8188 403.767 90.6357C405.551 92.4526 407.978 93.481 410.515 93.4947L458.79 93.7614H458.842ZM410.617 74.5128L458.892 74.7794C464.006 74.8074 468.143 79.0221 468.116 84.1754C468.089 89.3088 463.932 93.4701 458.842 93.4708H458.791L410.516 93.2074C409.298 93.2009 408.094 92.9526 406.971 92.4769C405.848 92.0011 404.829 91.3072 403.973 90.4346C403.116 89.5621 402.439 88.5281 401.979 87.3917C401.519 86.2553 401.286 85.0387 401.292 83.8114C401.32 78.6781 405.476 74.5168 410.566 74.5168L410.617 74.5128Z" fill="black"/>
<path d="M491.68 61.7392C491.68 61.7392 488.153 56.6955 489.777 53.1261C491.401 49.5567 497.847 44.5871 506.431 51.7433C515.014 58.8994 518.817 65.9436 513.212 67.8576C513.212 67.8576 514.952 73.2447 509.508 74.9404C509.508 74.9404 508.369 78.4086 503.529 76.8792C498.688 75.3498 491.68 61.7392 491.68 61.7392Z" fill="black"/>
<path d="M496.042 84.7461L494.217 77.1071C494.217 77.1071 501.385 68.617 504.541 70.4574L508.138 83.342C508.739 85.4945 508.359 87.3266 510.553 87.5833L492.883 89.6456C493.416 89.5491 493.924 89.3433 494.375 89.0408C494.826 88.7384 495.211 88.3456 495.507 87.8867C495.803 87.4278 496.003 86.9124 496.095 86.3723C496.187 85.8323 496.169 85.2788 496.042 84.7461Z" fill="white"/>
<path d="M493.067 90.5245H493.089L511.269 88.4082C511.315 88.4038 511.357 88.3823 511.388 88.3479C511.419 88.3135 511.437 88.2687 511.437 88.2222C511.437 88.1757 511.419 88.1309 511.388 88.0965C511.357 88.0621 511.315 88.0406 511.269 88.0361C509.702 87.8535 509.531 86.8714 509.272 85.3855C509.188 84.8579 509.078 84.335 508.941 83.8189L505.241 70.597C505.228 70.5503 505.198 70.5104 505.157 70.4857C501.812 68.5445 494.606 76.99 494.301 77.3503C494.281 77.3732 494.267 77.4007 494.261 77.4304C494.254 77.46 494.254 77.4908 494.262 77.5202L496.138 85.3591C496.263 85.8809 496.281 86.423 496.191 86.952C496.101 87.4811 495.905 87.9859 495.614 88.4354C495.324 88.8849 494.945 89.2697 494.502 89.566C494.059 89.8623 493.561 90.0639 493.038 90.1584C492.992 90.1661 492.95 90.191 492.922 90.2282C492.893 90.2654 492.88 90.312 492.884 90.3589C492.888 90.4058 492.909 90.4494 492.944 90.481C492.978 90.5127 493.023 90.53 493.07 90.5296L493.067 90.5245ZM510.276 88.1457L494.55 89.9765C495.327 89.5016 495.935 88.7892 496.285 87.9423C496.635 87.0954 496.709 86.158 496.497 85.2657L494.647 77.521C495.357 76.7003 501.95 69.2216 504.906 70.7746L508.586 83.92C508.72 84.4236 508.827 84.9341 508.909 85.4492C509.106 86.6165 509.291 87.6581 510.276 88.1457Z" fill="black"/>
<path d="M504.916 67.4193C504.916 67.4193 501.089 67.4007 502.23 63.2707C502.23 63.2707 496.062 64.4696 491.497 59.5879C491.497 59.5879 489.483 68.5174 489.351 73.5401C489.22 78.5629 494.891 81.5641 499.222 78.9673C503.552 76.3706 503.552 72.3002 503.552 72.3002C503.552 72.3002 507.023 74.6431 509.054 71.0312C511.085 67.4193 507.665 64.2061 504.916 67.4193Z" fill="white"/>
<path d="M495.254 80.8053C496.531 80.8052 497.783 80.4592 498.871 79.8059C502.643 77.5427 503.272 74.1586 503.38 73.1229C503.917 73.4171 505.175 73.9792 506.511 73.6709C507.535 73.4345 508.38 72.7368 509.022 71.5961C510.222 69.461 509.601 67.4631 508.407 66.6679C507.518 66.0753 505.977 65.9752 504.53 67.6169C504.202 67.5954 502.996 67.459 502.317 66.5869C501.776 65.8909 501.682 64.8841 502.038 63.5938C502.046 63.5638 502.046 63.5324 502.038 63.5024C502.031 63.4723 502.015 63.4446 501.994 63.4219C501.973 63.3997 501.946 63.3832 501.916 63.3736C501.887 63.3641 501.855 63.3619 501.825 63.3673C501.762 63.3789 495.544 64.5155 490.991 59.6476C490.968 59.6229 490.938 59.6048 490.905 59.5954C490.873 59.5859 490.838 59.5854 490.805 59.5939C490.772 59.6025 490.742 59.6197 490.718 59.6437C490.694 59.6677 490.677 59.6977 490.67 59.7303C490.65 59.822 488.599 68.9675 488.469 74.0784C488.429 75.2559 488.72 76.4218 489.31 77.4493C489.9 78.4769 490.768 79.3268 491.818 79.9068C492.863 80.4947 494.048 80.8045 495.254 80.8053ZM503.21 72.6285C503.181 72.6287 503.152 72.6358 503.126 72.6492C503.095 72.6649 503.069 72.6887 503.051 72.7179C503.034 72.7471 503.025 72.7806 503.026 72.8145C503.026 72.855 502.967 76.9236 498.674 79.4993C497.673 80.1011 496.524 80.4275 495.348 80.4441C494.173 80.4607 493.015 80.1668 491.996 79.5935C491.005 79.0461 490.186 78.2437 489.628 77.2735C489.071 76.3034 488.797 75.2026 488.835 74.0908C488.952 69.5718 490.584 61.8571 490.955 60.151C495.055 64.3005 500.331 63.9327 501.605 63.7723C501.303 65.0519 501.442 66.0753 502.019 66.8142C502.92 67.9715 504.541 67.9888 504.609 67.9897C504.637 67.9895 504.664 67.9835 504.689 67.9721C504.714 67.9607 504.736 67.9441 504.753 67.9235C506.055 66.4001 507.384 66.4357 508.193 66.9729C509.251 67.678 509.785 69.4784 508.691 71.425C508.098 72.4707 507.336 73.108 506.422 73.3196C504.849 73.6825 503.333 72.6748 503.318 72.6649C503.288 72.6429 503.251 72.6302 503.214 72.6285H503.21Z" fill="black"/>
<path d="M504.548 71.0796C504.59 71.0797 504.63 71.061 504.663 71.027C505.29 70.3547 506.051 69.9183 506.862 69.7666C506.885 69.763 506.908 69.7533 506.929 69.7382C506.95 69.723 506.968 69.7027 506.983 69.6785C506.997 69.6542 507.008 69.6264 507.014 69.5969C507.02 69.5673 507.021 69.5365 507.018 69.5063C507.014 69.476 507.006 69.447 506.993 69.4209C506.981 69.3949 506.964 69.3722 506.945 69.3544C506.926 69.3366 506.903 69.3239 506.88 69.3172C506.857 69.3104 506.833 69.3097 506.809 69.3151C505.933 69.4802 505.111 69.9515 504.433 70.6767C504.405 70.7069 504.385 70.7473 504.375 70.7925C504.366 70.8377 504.367 70.8855 504.38 70.9294C504.392 70.9734 504.415 71.0114 504.445 71.0382C504.475 71.0651 504.511 71.0796 504.548 71.0796Z" fill="black"/>
<path d="M443.604 130.72C443.604 130.72 452.716 155.927 469.298 148.4L466.869 155.06H525.632L528.657 142.485C528.657 142.485 545.852 149.035 553.948 142.599C562.044 136.164 555.654 119.18 547.751 105.305C539.847 91.4305 533.633 88.1252 523.134 88.2805C515.613 88.3919 494.348 90.3232 482.889 91.4099C480.533 91.6331 478.254 92.3752 476.214 93.5835C474.174 94.7918 472.422 96.4369 471.082 98.4025L458.564 116.767L457.469 115.397L443.604 130.72Z" fill="#90AAFF"/>
<path d="M499.854 105.802C499.891 105.802 499.928 105.787 499.955 105.76L517.28 88.9145C517.293 88.901 517.304 88.885 517.312 88.8672C517.32 88.8495 517.324 88.8304 517.324 88.8111C517.325 88.7917 517.321 88.7725 517.314 88.7545C517.307 88.7365 517.297 88.7201 517.283 88.7061C517.27 88.6922 517.254 88.6811 517.236 88.6734C517.219 88.6656 517.2 88.6615 517.181 88.6612C517.161 88.6608 517.142 88.6643 517.124 88.6714C517.107 88.6785 517.09 88.689 517.076 88.7025L499.752 105.548C499.731 105.569 499.717 105.595 499.711 105.624C499.705 105.652 499.707 105.682 499.718 105.709C499.729 105.737 499.748 105.76 499.772 105.776C499.796 105.793 499.824 105.802 499.854 105.802Z" fill="black"/>
<path d="M499.854 105.8C499.88 105.8 499.906 105.793 499.928 105.78C499.951 105.766 499.969 105.747 499.982 105.723C499.994 105.7 500 105.674 499.999 105.647C499.998 105.621 499.99 105.595 499.976 105.573L490.515 90.8465C490.494 90.8147 490.461 90.7927 490.423 90.7851C490.386 90.7775 490.347 90.785 490.315 90.8059C490.283 90.8267 490.26 90.8594 490.252 90.8969C490.243 90.9343 490.25 90.9737 490.27 91.0065L499.731 105.733C499.744 105.754 499.762 105.771 499.784 105.783C499.805 105.794 499.829 105.801 499.854 105.8Z" fill="black"/>
<path d="M547.499 128.403C547.534 128.403 547.567 128.39 547.593 128.367C547.62 128.345 547.637 128.313 547.642 128.279C547.648 128.244 547.641 128.209 547.622 128.179C547.604 128.149 547.576 128.127 547.543 128.116C541.746 126.266 535.833 124.805 529.843 123.745C529.806 123.739 529.768 123.749 529.737 123.771C529.706 123.794 529.685 123.827 529.679 123.865C529.672 123.902 529.68 123.941 529.702 123.973C529.723 124.005 529.755 124.027 529.793 124.035C535.77 125.092 541.672 126.549 547.457 128.396C547.471 128.401 547.485 128.403 547.499 128.403Z" fill="black"/>
<path d="M469.655 147.661C469.685 147.661 469.715 147.652 469.739 147.634C469.764 147.617 469.782 147.592 469.793 147.563L476.922 127.245C476.932 127.209 476.929 127.17 476.912 127.137C476.894 127.103 476.865 127.078 476.83 127.065C476.795 127.053 476.757 127.054 476.722 127.069C476.688 127.084 476.661 127.112 476.647 127.147L469.517 147.465C469.505 147.502 469.507 147.542 469.524 147.578C469.54 147.613 469.57 147.64 469.607 147.653C469.622 147.658 469.639 147.661 469.655 147.661Z" fill="black"/>
<path d="M528.658 123.875C528.658 123.875 531.995 132.713 527.182 141.914L515.913 137.074C515.913 137.074 500.078 136.359 496.956 132.714C496.956 132.714 494.867 132.7 494.484 130.696C494.484 130.696 492.268 129.914 491.826 128.82C491.385 127.727 493.099 127.376 495.742 127.927C495.742 127.927 493.746 127.994 493.337 126.198C492.929 124.402 500.737 125.276 505.842 124.808C505.842 124.808 501.175 124.662 499.755 123.875C498.335 123.088 498.428 121.368 502.435 121.497C505.214 121.586 510.13 121.446 512.877 121.352C514.223 121.305 515.571 121.408 516.895 121.658L528.658 123.875Z" fill="white"/>
<path d="M501.622 129.036C502.237 129.036 502.852 129.011 503.467 128.961C503.505 128.957 503.54 128.938 503.565 128.909C503.59 128.879 503.602 128.841 503.599 128.803C503.595 128.764 503.577 128.729 503.547 128.704C503.518 128.679 503.48 128.666 503.442 128.669C501.041 128.865 498.625 128.672 496.284 128.098C496.265 128.092 496.245 128.09 496.225 128.092C496.205 128.094 496.185 128.1 496.168 128.11C496.15 128.12 496.135 128.134 496.123 128.15C496.11 128.166 496.102 128.185 496.097 128.205C496.093 128.225 496.092 128.245 496.096 128.265C496.1 128.285 496.107 128.304 496.119 128.321C496.13 128.338 496.145 128.352 496.162 128.363C496.179 128.374 496.198 128.381 496.218 128.384C497.987 128.817 499.802 129.036 501.622 129.036Z" fill="black"/>
<path d="M501.988 132.028C502.39 132.028 502.79 132.016 503.189 131.994C503.227 131.992 503.264 131.974 503.289 131.945C503.315 131.916 503.328 131.878 503.326 131.839C503.326 131.82 503.321 131.8 503.313 131.783C503.305 131.765 503.293 131.75 503.279 131.737C503.264 131.724 503.247 131.714 503.229 131.708C503.211 131.701 503.192 131.699 503.172 131.7C500.409 131.852 497.642 131.471 495.019 130.578C494.983 130.566 494.943 130.568 494.908 130.585C494.873 130.602 494.847 130.633 494.834 130.67C494.822 130.706 494.824 130.747 494.841 130.782C494.858 130.817 494.888 130.844 494.925 130.856C497.2 131.631 499.586 132.027 501.988 132.028Z" fill="black"/>
<path d="M502.311 133.47C502.534 133.47 502.758 133.466 502.981 133.458C503 133.458 503.019 133.453 503.036 133.445C503.053 133.437 503.069 133.426 503.082 133.412C503.095 133.398 503.105 133.381 503.112 133.363C503.119 133.345 503.122 133.326 503.121 133.306C503.121 133.287 503.116 133.268 503.109 133.25C503.101 133.232 503.09 133.217 503.075 133.203C503.061 133.19 503.045 133.18 503.027 133.173C503.009 133.167 502.989 133.164 502.97 133.165C501.034 133.235 499.099 132.995 497.237 132.456C497.219 132.449 497.199 132.446 497.179 132.448C497.159 132.449 497.139 132.454 497.122 132.464C497.104 132.473 497.088 132.486 497.076 132.501C497.063 132.517 497.054 132.535 497.048 132.554C497.043 132.573 497.041 132.593 497.044 132.613C497.046 132.633 497.053 132.652 497.063 132.67C497.073 132.687 497.087 132.702 497.103 132.714C497.119 132.726 497.137 132.734 497.157 132.738C498.832 133.224 500.567 133.471 502.311 133.47Z" fill="black"/>
<path d="M468.74 136.72C468.763 136.72 468.786 136.714 468.806 136.702C468.823 136.693 468.838 136.681 468.851 136.666C468.863 136.651 468.872 136.634 468.878 136.615C468.884 136.597 468.885 136.577 468.884 136.558C468.882 136.538 468.876 136.52 468.867 136.502L458.99 117.749C458.97 117.716 458.94 117.693 458.903 117.682C458.867 117.672 458.828 117.676 458.795 117.694C458.762 117.712 458.737 117.742 458.725 117.778C458.713 117.814 458.716 117.853 458.732 117.887L468.613 136.642C468.625 136.665 468.643 136.685 468.665 136.698C468.688 136.712 468.713 136.72 468.74 136.72Z" fill="black"/>
<path d="M532.645 124.262C532.668 124.262 532.69 124.256 532.711 124.246C532.728 124.238 532.744 124.226 532.757 124.211C532.77 124.196 532.78 124.179 532.786 124.16C532.792 124.141 532.795 124.122 532.793 124.102C532.791 124.083 532.786 124.063 532.777 124.046L527.124 112.829C527.107 112.795 527.076 112.768 527.039 112.756C527.021 112.75 527.002 112.748 526.983 112.749C526.964 112.751 526.945 112.756 526.928 112.765C526.911 112.774 526.896 112.786 526.883 112.8C526.871 112.815 526.861 112.832 526.856 112.851C526.85 112.869 526.847 112.888 526.849 112.907C526.85 112.927 526.856 112.945 526.864 112.963L532.517 124.179C532.529 124.204 532.547 124.224 532.569 124.239C532.592 124.253 532.618 124.261 532.645 124.262Z" fill="black"/>
<path d="M456.236 117.72C454.851 120.167 453.251 122.486 451.374 124.576C450.387 125.675 449.34 126.723 448.194 127.654C447.065 128.562 445.873 129.388 444.628 130.126C444.29 130.329 443.949 130.527 443.605 130.72C437.376 118.822 433.873 106.95 433.873 106.95C428.911 103.341 431.785 101.452 431.785 101.452C431.009 98.3329 433.519 98.0556 433.519 98.0556C434.258 94.2929 437.578 95.8476 437.578 95.8476C434.862 91.8276 433.53 85.2536 441.427 93.4756C446.095 98.3356 452.085 107.356 457.471 115.398C457.076 116.181 456.668 116.957 456.236 117.72Z" fill="white"/>
<path d="M443.113 129.917C443.125 129.917 443.137 129.916 443.149 129.913C443.187 129.904 443.219 129.88 443.239 129.846C443.258 129.813 443.264 129.772 443.255 129.735C443.148 129.303 442.933 129.007 442.706 128.692C442.635 128.593 442.561 128.492 442.487 128.379C438.875 120.579 436.09 113.537 433.971 106.845C433.961 106.815 433.942 106.789 433.917 106.771C432.819 105.981 431.782 105.234 431.333 104.027C431.122 103.387 430.911 102.207 431.897 101.545C431.925 101.526 431.945 101.499 431.955 101.468C431.966 101.436 431.965 101.402 431.953 101.371C431.498 100.146 432.158 98.6873 433.426 98.1193C433.765 98.006 433.838 97.6393 433.907 97.2853C433.951 97.062 433.996 96.8306 434.106 96.6606C435.134 95.2786 436.686 95.642 437.52 95.982C437.543 95.9915 437.568 95.9948 437.593 95.9918C437.617 95.9888 437.641 95.9794 437.661 95.9646C437.669 95.9587 437.677 95.9517 437.684 95.944C437.691 95.9355 437.698 95.9258 437.703 95.9153C437.714 95.8917 437.719 95.8654 437.716 95.8393C437.713 95.8189 437.705 95.7994 437.694 95.782L437.459 95.4106C436.372 93.6993 435.144 91.762 435.811 89.806C435.928 89.7166 436.164 89.712 436.286 89.712C437.753 90.1206 438.877 91.1286 439.965 92.1033C440.109 92.2326 440.253 92.3613 440.396 92.4873C445.829 98.0926 449.882 104.23 454.173 110.727C454.979 111.948 455.812 113.211 456.646 114.453C456.656 114.469 456.67 114.482 456.686 114.493C456.702 114.504 456.72 114.511 456.739 114.515C456.757 114.518 456.777 114.518 456.795 114.514C456.814 114.511 456.832 114.503 456.848 114.492C456.864 114.482 456.877 114.468 456.888 114.452C456.898 114.436 456.906 114.418 456.909 114.399C456.913 114.38 456.913 114.36 456.909 114.341C456.905 114.323 456.898 114.305 456.887 114.289C456.055 113.047 455.221 111.785 454.415 110.565C450.115 104.055 446.057 97.9066 440.597 92.274C440.445 92.1406 440.302 92.012 440.159 91.8833C439.041 90.8833 437.886 89.8466 436.344 89.4226C436.332 89.4194 436.319 89.4179 436.306 89.418C436.135 89.418 435.781 89.418 435.583 89.618C435.568 89.6333 435.556 89.6517 435.549 89.672C434.858 91.62 435.952 93.5673 436.97 95.186C436.97 95.1897 436.97 95.1935 436.97 95.1973C436.966 95.2466 437.055 95.3973 437.163 95.5606C435.791 95.148 434.633 95.476 433.865 96.5073C433.715 96.7326 433.662 97.0046 433.615 97.2446C433.549 97.588 433.498 97.8013 433.316 97.8626C431.933 98.4806 431.204 100.039 431.637 101.383C430.874 101.958 430.661 102.956 431.052 104.141C431.529 105.423 432.63 106.226 433.699 106.998C435.82 113.689 438.608 120.731 442.218 128.531C442.221 128.538 442.225 128.545 442.229 128.551C442.307 128.669 442.386 128.778 442.462 128.884C442.681 129.187 442.87 129.449 442.964 129.825C442.975 129.855 442.996 129.88 443.023 129.897C443.05 129.913 443.082 129.92 443.113 129.917Z" fill="black"/>
<path d="M444.067 109.387C444.179 109.387 444.291 109.377 444.402 109.357C444.44 109.35 444.474 109.328 444.496 109.296C444.518 109.264 444.526 109.224 444.519 109.186C444.512 109.147 444.491 109.113 444.459 109.091C444.427 109.069 444.387 109.06 444.349 109.067C443.459 109.231 442.654 108.589 442.232 107.991C441.835 107.422 441.597 106.74 441.368 106.08C441.309 105.909 441.25 105.738 441.188 105.569C440.908 104.804 440.484 103.855 439.68 103.296C439.299 103.029 438.863 102.875 438.441 102.723C438.252 102.657 438.057 102.585 437.871 102.507C437.379 102.299 436.757 101.921 436.594 101.302C436.379 100.486 437.1 99.6793 437.881 99.4653C438.708 99.2386 439.602 99.4766 440.442 99.7686C442.745 100.569 444.662 101.647 446.139 102.98C446.168 103.003 446.205 103.014 446.242 103.011C446.279 103.008 446.314 102.991 446.339 102.963C446.364 102.935 446.377 102.898 446.376 102.861C446.375 102.823 446.36 102.787 446.333 102.761C444.828 101.402 442.877 100.302 440.536 99.4899C439.652 99.1839 438.708 98.9346 437.805 99.1813C436.901 99.4279 436.053 100.395 436.311 101.377C436.505 102.111 437.205 102.545 437.758 102.777C437.951 102.859 438.151 102.931 438.343 103C438.766 103.151 439.166 103.295 439.515 103.537C440.251 104.049 440.649 104.946 440.914 105.671C440.975 105.838 441.034 106.004 441.093 106.177C441.328 106.856 441.572 107.558 441.993 108.161C442.415 108.763 443.182 109.387 444.067 109.387Z" fill="black"/>
<path d="M438.482 104.761C438.544 104.761 438.607 104.758 438.669 104.751C439.238 104.684 439.813 104.193 439.761 103.572C439.757 103.534 439.738 103.5 439.708 103.476C439.679 103.452 439.642 103.441 439.604 103.444C439.567 103.447 439.532 103.465 439.507 103.493C439.482 103.522 439.469 103.559 439.47 103.597C439.507 104.042 439.06 104.408 438.635 104.458C438.238 104.505 437.81 104.373 437.273 104.045C436.357 103.474 435.588 102.692 435.031 101.763C434.474 100.834 434.144 99.7847 434.07 98.7019C434.069 98.6825 434.064 98.6635 434.056 98.646C434.047 98.6285 434.036 98.6128 434.021 98.6C434.007 98.5871 433.99 98.5773 433.972 98.5711C433.953 98.5649 433.934 98.5624 433.915 98.5639C433.896 98.5651 433.877 98.57 433.86 98.5785C433.843 98.587 433.827 98.5989 433.815 98.6134C433.802 98.6278 433.792 98.6447 433.786 98.663C433.78 98.6813 433.777 98.7006 433.779 98.7199C433.856 99.8497 434.2 100.945 434.781 101.914C435.362 102.883 436.164 103.699 437.12 104.295C437.457 104.499 437.949 104.761 438.482 104.761Z" fill="black"/>
<path d="M436.062 105.2C436.15 105.2 436.239 105.193 436.326 105.179C436.836 105.096 437.248 104.728 437.329 104.284C437.336 104.245 437.327 104.206 437.305 104.173C437.283 104.141 437.25 104.119 437.212 104.112C437.193 104.109 437.173 104.109 437.155 104.113C437.136 104.117 437.118 104.125 437.102 104.136C437.087 104.147 437.073 104.161 437.063 104.177C437.053 104.193 437.046 104.211 437.042 104.23C436.976 104.592 436.609 104.835 436.28 104.889C435.951 104.943 435.6 104.874 435.148 104.679C433.896 104.134 432.904 103.12 432.381 101.851C432.365 101.817 432.337 101.791 432.302 101.777C432.267 101.764 432.228 101.764 432.194 101.779C432.159 101.793 432.132 101.82 432.116 101.854C432.101 101.889 432.099 101.927 432.111 101.963C432.663 103.303 433.711 104.374 435.033 104.95C435.42 105.118 435.754 105.2 436.062 105.2Z" fill="black"/>
<path d="M434.231 106.454C434.414 106.456 434.595 106.417 434.761 106.339C434.928 106.262 435.075 106.148 435.192 106.007C435.31 105.865 435.394 105.698 435.44 105.52C435.485 105.341 435.491 105.154 435.456 104.973C435.453 104.953 435.446 104.935 435.435 104.918C435.425 104.902 435.411 104.887 435.395 104.876C435.379 104.865 435.361 104.857 435.342 104.853C435.323 104.849 435.303 104.849 435.284 104.852C435.265 104.856 435.247 104.863 435.23 104.874C435.214 104.885 435.2 104.899 435.19 104.916C435.179 104.932 435.171 104.95 435.168 104.97C435.164 104.989 435.165 105.009 435.169 105.028C435.202 105.201 435.186 105.38 435.125 105.545C435.063 105.71 434.957 105.855 434.819 105.963C434.68 106.071 434.515 106.139 434.341 106.158C434.167 106.177 433.991 106.147 433.833 106.072C433.798 106.055 433.758 106.053 433.721 106.067C433.684 106.08 433.655 106.107 433.638 106.143C433.621 106.178 433.619 106.218 433.633 106.255C433.646 106.292 433.673 106.322 433.708 106.339C433.872 106.415 434.05 106.454 434.231 106.454Z" fill="black"/>
<path d="M511.515 88.9283L508.596 84.1963L502.46 85.4596L500.086 88.2756L498.302 85.645L494.971 85.4596L493.33 90.4436L497.197 97.2083L500.086 92.5316L503.899 97.6576L511.515 88.9283Z" fill="#90AAFF"/>
<path d="M503.899 97.8047C503.92 97.8048 503.941 97.8004 503.96 97.7917C503.979 97.7831 503.996 97.7705 504.009 97.7547L511.625 89.028C511.648 88.9984 511.66 88.9608 511.656 88.9232C511.653 88.8855 511.635 88.8505 511.607 88.8256C511.579 88.8007 511.542 88.7876 511.504 88.7892C511.467 88.7908 511.431 88.8068 511.405 88.834L503.909 97.428L500.204 92.4474C500.19 92.4276 500.172 92.4118 500.15 92.4015C500.128 92.3912 500.104 92.3868 500.081 92.3887C500.057 92.3894 500.034 92.3959 500.014 92.4075C499.993 92.4191 499.976 92.4355 499.963 92.4554L497.203 96.922L493.458 90.3707C493.449 90.3528 493.437 90.337 493.421 90.3242C493.406 90.3113 493.388 90.3018 493.369 90.2961C493.35 90.2904 493.33 90.2886 493.31 90.291C493.291 90.2933 493.272 90.2997 493.254 90.3098C493.237 90.3198 493.222 90.3333 493.21 90.3493C493.198 90.3654 493.19 90.3838 493.185 90.4032C493.181 90.4227 493.18 90.443 493.184 90.4627C493.187 90.4824 493.194 90.5013 493.205 90.518L497.071 97.282C497.084 97.304 497.102 97.3223 497.124 97.3352C497.145 97.3481 497.17 97.355 497.195 97.3554C497.22 97.3559 497.245 97.35 497.267 97.3384C497.289 97.3267 497.308 97.3096 497.322 97.2887L500.101 92.7947L503.786 97.7487C503.799 97.7662 503.815 97.7806 503.835 97.7908C503.854 97.8009 503.875 97.8066 503.897 97.8074L503.899 97.8047Z" fill="black"/>
<path d="M423.441 68.955H405.268C405.249 68.955 405.23 68.9512 405.212 68.9438C405.195 68.9364 405.178 68.9255 405.165 68.9118C405.151 68.8981 405.141 68.8819 405.133 68.864C405.126 68.8461 405.122 68.827 405.123 68.8077V50.4943C405.122 50.475 405.126 50.4559 405.133 50.4381C405.141 50.4203 405.151 50.4041 405.165 50.3904C405.179 50.3768 405.195 50.366 405.212 50.3586C405.23 50.3513 405.249 50.3476 405.268 50.3477H422.4C422.437 50.3502 422.472 50.3667 422.497 50.394C422.523 50.4213 422.537 50.4573 422.537 50.4947C422.537 50.532 422.523 50.568 422.497 50.5953C422.472 50.6226 422.437 50.6391 422.4 50.6417H405.414V68.661H423.294V55.4157C423.296 55.3784 423.312 55.3435 423.34 55.3179C423.367 55.2924 423.402 55.2782 423.439 55.2782C423.476 55.2782 423.512 55.2924 423.539 55.3179C423.566 55.3435 423.583 55.3784 423.585 55.4157V68.8077C423.585 68.8464 423.57 68.8837 423.543 68.9113C423.516 68.9389 423.48 68.9546 423.441 68.955Z" fill="black"/>
<path d="M423.441 50.4961H405.269V68.8074H423.441V50.4961Z" fill="white"/>
<path d="M414.356 65.8111C414.332 65.8112 414.31 65.8056 414.289 65.795C414.268 65.7843 414.251 65.7688 414.237 65.7498L407.117 55.7058C407.106 55.6901 407.098 55.6723 407.094 55.6535C407.089 55.6347 407.089 55.6152 407.092 55.5962C407.095 55.5771 407.102 55.5589 407.112 55.5425C407.122 55.5262 407.135 55.512 407.151 55.5008C407.167 55.4896 407.184 55.4816 407.203 55.4772C407.222 55.4729 407.241 55.4723 407.26 55.4755C407.279 55.4787 407.297 55.4856 407.313 55.4958C407.329 55.506 407.343 55.5194 407.354 55.5351L414.356 65.4118L426.646 48.1551C426.668 48.1234 426.702 48.102 426.741 48.0957C426.779 48.0894 426.818 48.0986 426.85 48.1214C426.881 48.1443 426.902 48.1787 426.909 48.2173C426.915 48.2559 426.906 48.2954 426.883 48.3271L414.474 65.7498C414.461 65.7688 414.443 65.7843 414.422 65.795C414.402 65.8056 414.379 65.8112 414.356 65.8111Z" fill="black"/>
<path d="M461.619 55.4672H427.292C427.255 55.4647 427.22 55.4481 427.195 55.4208C427.17 55.3935 427.156 55.3575 427.156 55.3202C427.156 55.2828 427.17 55.2469 427.195 55.2196C427.22 55.1923 427.255 55.1757 427.292 55.1732H461.619C461.639 55.1718 461.659 55.1746 461.678 55.1814C461.697 55.1882 461.715 55.1988 461.729 55.2126C461.744 55.2263 461.755 55.243 461.763 55.2615C461.771 55.28 461.776 55.3 461.776 55.3202C461.776 55.3404 461.771 55.3603 461.763 55.3788C461.755 55.3974 461.744 55.414 461.729 55.4278C461.715 55.4416 461.697 55.4522 461.678 55.459C461.659 55.4657 461.639 55.4685 461.619 55.4672Z" fill="black"/>
<path d="M455.813 59.7992H427.292C427.255 59.7967 427.22 59.7801 427.195 59.7528C427.17 59.7255 427.156 59.6896 427.156 59.6522C427.156 59.6149 427.17 59.5789 427.195 59.5516C427.22 59.5243 427.255 59.5077 427.292 59.5052H455.813C455.833 59.5039 455.853 59.5067 455.871 59.5134C455.89 59.5202 455.908 59.5308 455.922 59.5446C455.937 59.5584 455.949 59.575 455.957 59.5936C455.965 59.6121 455.969 59.632 455.969 59.6522C455.969 59.6724 455.965 59.6924 455.957 59.7109C455.949 59.7294 455.937 59.7461 455.922 59.7598C455.908 59.7736 455.89 59.7842 455.871 59.791C455.853 59.7978 455.833 59.8006 455.813 59.7992Z" fill="black"/>
<path d="M455.813 64.1303H427.292C427.255 64.1278 427.22 64.1112 427.195 64.0839C427.17 64.0566 427.156 64.0206 427.156 63.9833C427.156 63.9459 427.17 63.9099 427.195 63.8827C427.22 63.8554 427.255 63.8388 427.292 63.8363H455.813C455.833 63.8349 455.853 63.8377 455.871 63.8445C455.89 63.8513 455.908 63.8619 455.922 63.8756C455.937 63.8894 455.949 63.9061 455.957 63.9246C455.965 63.9431 455.969 63.9631 455.969 63.9833C455.969 64.0035 455.965 64.0234 455.957 64.0419C455.949 64.0604 455.937 64.0771 455.922 64.0909C455.908 64.1047 455.89 64.1153 455.871 64.1221C455.853 64.1288 455.833 64.1316 455.813 64.1303Z" fill="black"/>
<path d="M476.075 135.552C475.182 132.41 473.787 129.435 471.945 126.745C471.36 125.89 470.707 125.046 469.821 124.517C468.934 123.989 467.76 123.836 466.885 124.384C466.247 124.784 465.862 125.477 465.396 126.072C464.931 126.667 464.257 127.218 463.512 127.123C462.755 127.026 462.247 126.323 461.6 125.914C460.159 125.009 457.947 126.013 457.664 127.7C457.486 128.757 457.895 130.042 457.126 130.783C456.441 131.442 455.329 131.153 454.399 131.333C453.903 131.436 453.446 131.679 453.081 132.033C452.716 132.387 452.458 132.837 452.337 133.333C451.85 135.471 453.428 136.234 455.116 136.46C457.318 136.754 459.53 136.966 461.75 137.095C466.23 137.355 470.723 137.275 475.192 136.856C475.508 136.826 475.866 136.773 476.052 136.511C476.238 136.25 476.166 135.871 476.075 135.552Z" fill="#BFD9FF"/>
<path d="M466.952 131.154H486.396C487.587 131.154 488.553 132.128 488.553 133.328V133.994C488.553 135.194 487.587 136.168 486.396 136.168H466.952C465.76 136.168 464.794 135.194 464.794 133.994V133.328C464.794 132.128 465.76 131.154 466.952 131.154Z" fill="white"/>
<path d="M494.497 134.951H449.955C449.344 134.951 449.095 135.751 449.603 136.095C454.993 139.793 463.125 142.149 472.225 142.149C481.324 142.149 489.456 139.793 494.846 136.095C495.355 135.749 495.108 134.951 494.497 134.951Z" fill="black"/>
<path d="M480.279 130.377C480.302 130.377 480.325 130.371 480.345 130.36C480.362 130.351 480.377 130.339 480.389 130.324C480.402 130.309 480.411 130.291 480.416 130.273C480.422 130.254 480.424 130.235 480.422 130.215C480.42 130.196 480.414 130.177 480.405 130.16C480.08 129.549 480.545 128.803 480.76 128.511C480.851 128.386 480.952 128.261 481.048 128.141C481.365 127.747 481.691 127.341 481.82 126.831C482.006 126.094 481.735 125.231 481.074 124.475C480.772 124.141 480.447 123.829 480.102 123.541C479.833 123.307 479.556 123.065 479.308 122.808C478.769 122.241 478.353 121.569 478.086 120.832C477.818 120.095 477.705 119.311 477.754 118.528C477.802 117.745 478.011 116.98 478.367 116.283C478.723 115.585 479.219 114.97 479.823 114.475C479.853 114.45 479.872 114.415 479.876 114.376C479.88 114.337 479.869 114.298 479.844 114.268C479.82 114.238 479.785 114.219 479.746 114.215C479.708 114.211 479.669 114.222 479.639 114.247C479.004 114.767 478.483 115.415 478.108 116.148C477.734 116.882 477.514 117.686 477.463 118.509C477.412 119.332 477.531 120.157 477.812 120.932C478.094 121.707 478.531 122.414 479.097 123.01C479.353 123.277 479.637 123.527 479.91 123.765C480.245 124.044 480.56 124.345 480.854 124.667C481.136 124.991 481.768 125.845 481.537 126.757C481.424 127.203 481.131 127.567 480.821 127.957C480.722 128.08 480.622 128.207 480.524 128.337C480.276 128.675 479.743 129.542 480.147 130.301C480.16 130.325 480.179 130.344 480.202 130.358C480.226 130.372 480.252 130.378 480.279 130.377Z" fill="black"/>
<path d="M482.302 130.378C482.31 130.379 482.319 130.379 482.327 130.378C482.346 130.375 482.364 130.367 482.38 130.357C482.397 130.347 482.411 130.333 482.421 130.317C482.432 130.301 482.44 130.283 482.444 130.265C482.448 130.246 482.449 130.226 482.445 130.207C482.27 129.233 483.041 128.323 483.636 127.724L483.75 127.609C484.422 126.934 485.184 126.168 485.284 125.171C485.371 124.304 484.953 123.405 484.044 122.491C483.857 122.304 483.66 122.121 483.469 121.945C482.961 121.478 482.435 120.989 482.094 120.389C481.647 119.605 481.6 118.46 482.296 117.903C482.324 117.878 482.342 117.843 482.345 117.806C482.348 117.768 482.337 117.731 482.314 117.701C482.291 117.672 482.257 117.652 482.22 117.647C482.183 117.642 482.146 117.651 482.115 117.673C481.296 118.329 481.332 119.643 481.84 120.539C482.204 121.178 482.747 121.679 483.271 122.165C483.46 122.339 483.656 122.52 483.838 122.703C484.683 123.551 485.072 124.37 484.994 125.144C484.904 126.037 484.212 126.733 483.543 127.405L483.429 127.519C482.789 128.165 481.961 129.153 482.16 130.263C482.167 130.295 482.185 130.324 482.211 130.345C482.237 130.366 482.269 130.378 482.302 130.378Z" fill="black"/>
<path d="M432.472 115.038H422.043V125.189C422.043 126.583 422.592 127.92 423.57 128.905C424.548 129.89 425.874 130.444 427.257 130.444C428.64 130.444 429.967 129.89 430.945 128.905C431.923 127.92 432.472 126.583 432.472 125.189V115.038H432.472Z" fill="white"/>
<path d="M427.258 130.59C428.678 130.588 430.04 130.018 431.045 129.006C432.05 127.994 432.615 126.622 432.617 125.19V115.037C432.617 115.018 432.613 114.999 432.606 114.981C432.598 114.963 432.587 114.947 432.574 114.933C432.56 114.92 432.544 114.909 432.526 114.902C432.509 114.894 432.49 114.891 432.47 114.891H422.042C422.022 114.891 422.004 114.894 421.986 114.902C421.968 114.909 421.952 114.92 421.939 114.933C421.925 114.947 421.914 114.963 421.907 114.981C421.9 114.999 421.896 115.018 421.896 115.037V125.189C421.897 126.621 422.463 127.994 423.468 129.007C424.473 130.02 425.836 130.589 427.258 130.59ZM432.326 115.185V125.189C432.326 126.543 431.792 127.842 430.842 128.8C429.891 129.758 428.602 130.296 427.258 130.296C425.913 130.296 424.624 129.758 423.674 128.8C422.723 127.842 422.189 126.543 422.189 125.189V115.185H432.326Z" fill="black"/>
<path d="M427.258 140.542C427.277 140.542 427.296 140.538 427.314 140.531C427.331 140.523 427.348 140.513 427.361 140.499C427.375 140.485 427.385 140.469 427.393 140.451C427.4 140.433 427.404 140.414 427.403 140.395V130.444C427.405 130.424 427.402 130.404 427.395 130.385C427.389 130.366 427.378 130.349 427.364 130.334C427.351 130.319 427.334 130.307 427.316 130.299C427.297 130.291 427.278 130.287 427.258 130.287C427.238 130.287 427.218 130.291 427.199 130.299C427.181 130.307 427.164 130.319 427.151 130.334C427.137 130.349 427.127 130.366 427.12 130.385C427.113 130.404 427.11 130.424 427.112 130.444V140.395C427.112 140.414 427.116 140.433 427.123 140.451C427.13 140.469 427.141 140.485 427.155 140.499C427.168 140.513 427.184 140.523 427.202 140.531C427.22 140.538 427.239 140.542 427.258 140.542Z" fill="black"/>
<path d="M422.571 141.913H431.944L427.257 140.571L422.571 141.913Z" fill="white"/>
<path d="M422.571 142.061H431.944C431.979 142.061 432.013 142.048 432.039 142.025C432.065 142.001 432.083 141.969 432.087 141.934C432.092 141.899 432.085 141.864 432.066 141.834C432.047 141.804 432.018 141.782 431.984 141.772L427.297 140.43C427.271 140.423 427.244 140.423 427.218 140.43L422.531 141.772C422.497 141.782 422.468 141.804 422.449 141.834C422.43 141.863 422.423 141.899 422.427 141.934C422.432 141.969 422.449 142.001 422.476 142.024C422.502 142.048 422.536 142.061 422.571 142.061ZM430.896 141.767H423.619L427.257 140.724L430.896 141.767Z" fill="black"/>
<path d="M510.911 155.206H572.285C572.305 155.206 572.324 155.202 572.341 155.195C572.359 155.187 572.375 155.176 572.389 155.163C572.402 155.149 572.413 155.133 572.42 155.115C572.428 155.097 572.432 155.078 572.432 155.059V111.974C572.432 111.934 572.416 111.897 572.389 111.869C572.361 111.842 572.324 111.826 572.285 111.826C572.247 111.826 572.209 111.842 572.182 111.869C572.155 111.897 572.139 111.934 572.139 111.974V154.911H510.908C510.888 154.91 510.868 154.913 510.849 154.92C510.83 154.926 510.813 154.937 510.798 154.951C510.783 154.965 510.772 154.981 510.764 155C510.756 155.018 510.752 155.038 510.752 155.058C510.752 155.079 510.756 155.099 510.764 155.117C510.772 155.136 510.783 155.152 510.798 155.166C510.813 155.18 510.83 155.191 510.849 155.197C510.868 155.204 510.888 155.207 510.908 155.206H510.911Z" fill="black"/>
<path d="M583 170.095H401L414.633 146.102C415.348 144.842 416.649 143.754 418.359 142.986C420.069 142.217 422.105 141.805 424.192 141.805H583V170.095Z" fill="white"/>
<path d="M456.77 162.57C456.793 162.571 456.815 162.565 456.836 162.554L493.395 143.888C493.412 143.879 493.428 143.867 493.441 143.853C493.454 143.838 493.464 143.821 493.47 143.802C493.477 143.784 493.479 143.764 493.478 143.744C493.476 143.725 493.471 143.706 493.462 143.688C493.453 143.671 493.441 143.655 493.426 143.642C493.411 143.63 493.394 143.62 493.375 143.614C493.357 143.608 493.337 143.606 493.318 143.608C493.298 143.61 493.279 143.616 493.262 143.625L456.799 162.246L438.451 143.652C438.424 143.626 438.387 143.611 438.348 143.611C438.31 143.611 438.273 143.627 438.246 143.654C438.219 143.681 438.203 143.718 438.203 143.757C438.203 143.795 438.217 143.833 438.244 143.86L456.666 162.527C456.694 162.555 456.731 162.57 456.77 162.57Z" fill="black"/>
<path d="M401.23 170.095C401.203 170.095 401.176 170.092 401.15 170.086C401.093 170.072 401.046 170.045 401.021 170.01C400.995 169.974 400.993 169.934 401.013 169.897L414.611 146.153C415.345 144.88 416.673 143.781 418.416 143.004C420.159 142.226 422.234 141.808 424.362 141.805H582.753C582.785 141.804 582.816 141.806 582.846 141.813C582.876 141.82 582.903 141.831 582.926 141.844C582.949 141.858 582.968 141.875 582.98 141.893C582.993 141.912 583 141.932 583 141.952C583 141.972 582.993 141.992 582.98 142.01C582.968 142.029 582.949 142.046 582.926 142.059C582.903 142.073 582.876 142.084 582.846 142.09C582.816 142.097 582.785 142.1 582.753 142.099H424.362C422.329 142.101 420.346 142.501 418.68 143.244C417.014 143.987 415.745 145.037 415.043 146.254L401.446 169.998C401.43 170.026 401.4 170.051 401.362 170.068C401.323 170.085 401.277 170.095 401.23 170.095Z" fill="black"/>
</g>
</g>
<defs>
<linearGradient id="paint0_linear_253_4402" x1="596" y1="85" x2="-1.18249e-05" y2="85" gradientUnits="userSpaceOnUse">
<stop stop-color="#D9E5FF"/>
<stop offset="1" stop-color="#EEDFFF"/>
</linearGradient>
<clipPath id="clip0_253_4402">
<rect width="596" height="170" rx="8" fill="white"/>
</clipPath>
<clipPath id="clip1_253_4402">
<rect width="182" height="122" fill="white" transform="matrix(-1 0 0 1 583 48)"/>
</clipPath>
</defs>
</svg>
