<svg width="13" height="10" viewBox="0 0 13 10" fill="none" xmlns="http://www.w3.org/2000/svg">
<path d="M10.5581 5.27279L7.87605 7.95531C7.68079 8.15057 7.68079 8.46715 7.87605 8.66241C8.04962 8.83598 8.31904 8.85527 8.51391 8.72027L8.58316 8.66241L12.1491 5.09362L12.1987 5.02248L12.2264 4.96667L12.2492 4.89904L12.2541 4.87831C12.2613 4.84463 12.2651 4.80942 12.2651 4.77333L12.2597 4.84724L12.2633 4.81581L12.2633 4.73081L12.2483 4.6445L12.2273 4.58229L12.1879 4.50632L12.1334 4.43517L8.58316 0.88424C8.38789 0.688977 8.07131 0.688977 7.87605 0.88424C7.70248 1.05781 7.6832 1.32723 7.81819 1.5221L7.87605 1.59135L10.5581 4.27279L6.26514 4.27333C2.74337 4.27333 0.379747 6.24913 0.26919 9.06575L0.265137 9.27333C0.265137 9.54947 0.488995 9.77333 0.765137 9.77333C1.04128 9.77333 1.26514 9.54947 1.26514 9.27333C1.26514 7.00016 3.07261 5.36874 6.00362 5.27737L6.26514 5.27333L10.5581 5.27279Z" fill="#09347A"/>
</svg>
